<svg id="Layer_1" data-name="Layer 1" xmlns="http://www.w3.org/2000/svg" viewBox="0 0 291.55 67.6"><defs><style>.cls-1{fill:#0079d6;}</style></defs><title>acs</title><path class="cls-1" d="M109.84,12.71,117,31h-2.7l-2-5.52h-7.76L102.49,31H100l7.14-18.34Zm1.69,10.76-3.06-8.55h-.05l-3.11,8.55Z"/><path class="cls-1" d="M125.37,19.69h-7.5V17.77H128.2v1.49l-8.12,9.86h8.48V31h-11.2V29.37Z"/><path class="cls-1" d="M139.7,31V28.94h-.05a4.47,4.47,0,0,1-1.77,1.81,5.31,5.31,0,0,1-2.54.58,6,6,0,0,1-2.18-.35,3.48,3.48,0,0,1-1.41-1,3.72,3.72,0,0,1-.76-1.53,8.23,8.23,0,0,1-.22-2V17.77h2.18v9a2.64,2.64,0,0,0,.72,2,2.67,2.67,0,0,0,2,.72,4.45,4.45,0,0,0,1.73-.31,3.25,3.25,0,0,0,1.22-.87,3.76,3.76,0,0,0,.73-1.32,5.36,5.36,0,0,0,.24-1.66v-7.5h2.18V31Z"/><path class="cls-1" d="M147,17.77v2.8h.05a5.91,5.91,0,0,1,2-2.39,4.91,4.91,0,0,1,2.93-.72v2.31a6.17,6.17,0,0,0-2.23.36,3.53,3.53,0,0,0-1.49,1.05,4.36,4.36,0,0,0-.82,1.68,9.08,9.08,0,0,0-.26,2.27V31H145V17.77Z"/><path class="cls-1" d="M162.53,30.19a6,6,0,0,1-3.75,1.13,6.82,6.82,0,0,1-2.76-.51,5.43,5.43,0,0,1-2-1.44,6.09,6.09,0,0,1-1.19-2.21,10.65,10.65,0,0,1-.45-2.8,8,8,0,0,1,.46-2.77,6.64,6.64,0,0,1,1.3-2.18,5.88,5.88,0,0,1,2-1.44,6,6,0,0,1,2.5-.51,5.44,5.44,0,0,1,2.94.73,5.82,5.82,0,0,1,1.88,1.86,7.37,7.37,0,0,1,1,2.47,10.61,10.61,0,0,1,.22,2.54h-9.94a5.25,5.25,0,0,0,.21,1.66,3.75,3.75,0,0,0,.74,1.39,3.67,3.67,0,0,0,1.31,1,4.52,4.52,0,0,0,1.87.36,3.77,3.77,0,0,0,2.27-.64,3.11,3.11,0,0,0,1.17-2h2.16A5.31,5.31,0,0,1,162.53,30.19ZM162,21.67a3.75,3.75,0,0,0-.8-1.19,3.79,3.79,0,0,0-1.18-.8,3.73,3.73,0,0,0-1.5-.3,3.8,3.8,0,0,0-1.53.3,3.53,3.53,0,0,0-1.17.81,3.88,3.88,0,0,0-.77,1.19,4.54,4.54,0,0,0-.33,1.45h7.63A4.48,4.48,0,0,0,162,21.67Z"/><path class="cls-1" d="M101.08,45.29a11.74,11.74,0,0,1,.59-3.76,9,9,0,0,1,1.71-3.06,7.92,7.92,0,0,1,2.75-2,8.77,8.77,0,0,1,3.69-.74,8.3,8.3,0,0,1,2.8.42,7.17,7.17,0,0,1,2,1.05,6.26,6.26,0,0,1,1.32,1.37,7.65,7.65,0,0,1,.78,1.4,6.85,6.85,0,0,1,.37,1.13c.07.32.1.49.1.53h-1.13a5.49,5.49,0,0,0-.74-2.07A5.7,5.7,0,0,0,113.89,38,6.29,6.29,0,0,0,112,37a7.22,7.22,0,0,0-7.79,2.22A8.2,8.2,0,0,0,102.72,42a11.1,11.1,0,0,0,0,6.68,8.2,8.2,0,0,0,1.49,2.74,7.08,7.08,0,0,0,5.6,2.56,5.78,5.78,0,0,0,2.5-.55,6.85,6.85,0,0,0,2-1.46,7.34,7.34,0,0,0,2-4.58h1.13a9,9,0,0,1-.81,3,8.48,8.48,0,0,1-1.67,2.4,7.32,7.32,0,0,1-2.35,1.58,7.25,7.25,0,0,1-2.85.57,8.77,8.77,0,0,1-3.69-.74,7.9,7.9,0,0,1-2.75-2,9,9,0,0,1-1.71-3.06A11.74,11.74,0,0,1,101.08,45.29Z"/><path class="cls-1" d="M119.05,47.86a8.68,8.68,0,0,1,.4-2.66,6.67,6.67,0,0,1,1.17-2.2,5.56,5.56,0,0,1,1.9-1.5,6.37,6.37,0,0,1,5.19,0,5.56,5.56,0,0,1,1.9,1.5,6.68,6.68,0,0,1,1.17,2.2,8.7,8.7,0,0,1,.4,2.66,8.82,8.82,0,0,1-.4,2.67,6.51,6.51,0,0,1-1.17,2.2,5.62,5.62,0,0,1-1.9,1.49,6.37,6.37,0,0,1-5.19,0,5.62,5.62,0,0,1-1.9-1.49,6.5,6.5,0,0,1-1.17-2.2A8.8,8.8,0,0,1,119.05,47.86Zm1,0a7.72,7.72,0,0,0,.33,2.27,6.14,6.14,0,0,0,1,1.94,4.75,4.75,0,0,0,1.59,1.35,5,5,0,0,0,4.37,0,4.77,4.77,0,0,0,1.59-1.35,6.18,6.18,0,0,0,1-1.94,7.91,7.91,0,0,0,0-4.55,6.18,6.18,0,0,0-1-1.94,4.76,4.76,0,0,0-1.59-1.35,5,5,0,0,0-4.37,0,4.75,4.75,0,0,0-1.59,1.35,6.15,6.15,0,0,0-1,1.94A7.72,7.72,0,0,0,120,47.86Z"/><path class="cls-1" d="M133.46,41.26h1v2.82h.05a4.23,4.23,0,0,1,.73-1.32,4.87,4.87,0,0,1,2.48-1.61,5.69,5.69,0,0,1,1.52-.21,6,6,0,0,1,2,.28,3.86,3.86,0,0,1,1.32.74,3.61,3.61,0,0,1,.81,1,4.84,4.84,0,0,1,.42,1.17,6.87,6.87,0,0,1,.15,1.14q0,.55,0,1v8.17h-1V46.11a12.33,12.33,0,0,0-.08-1.23,3.75,3.75,0,0,0-.45-1.43,3.27,3.27,0,0,0-1.13-1.17,3.85,3.85,0,0,0-2.09-.49,4.66,4.66,0,0,0-2,.41,4.34,4.34,0,0,0-1.49,1.14,5,5,0,0,0-.94,1.75,7.31,7.31,0,0,0-.32,2.22v7.14h-1Z"/><path class="cls-1" d="M151.64,42.11h-2.88v9.22a3.57,3.57,0,0,0,.18,1.26,1.43,1.43,0,0,0,.55.71,2,2,0,0,0,.9.3,9.16,9.16,0,0,0,1.22,0v.85a9.22,9.22,0,0,1-1.45,0,2.91,2.91,0,0,1-1.25-.39,2.26,2.26,0,0,1-.86-1,3.64,3.64,0,0,1-.27-1.77V42.11h-2.44v-.85h2.44V37.15h1v4.11h2.88Z"/><path class="cls-1" d="M162.2,51.84h-.05a4.05,4.05,0,0,1-.67,1.12,4.72,4.72,0,0,1-1.07.94,5.25,5.25,0,0,1-1.43.64,6.25,6.25,0,0,1-1.75.23,5.16,5.16,0,0,1-3.26-.91A3.36,3.36,0,0,1,152.82,51a3.3,3.3,0,0,1,1.63-3,5,5,0,0,1,1.57-.6,15.3,15.3,0,0,1,1.66-.26l1.52-.13a8.91,8.91,0,0,0,1.66-.24,2.12,2.12,0,0,0,.91-.46,1.31,1.31,0,0,0,.39-.76,7.18,7.18,0,0,0,.08-1.16,2.44,2.44,0,0,0-.21-1,2.26,2.26,0,0,0-.64-.82,3.18,3.18,0,0,0-1.13-.57,6.06,6.06,0,0,0-1.7-.21,4.45,4.45,0,0,0-2.86.87,3.46,3.46,0,0,0-1.19,2.65h-1a4.32,4.32,0,0,1,1.4-3.27,5.57,5.57,0,0,1,3.69-1.09,5.29,5.29,0,0,1,3.48.94,3.08,3.08,0,0,1,1.09,2.45V52c0,.19,0,.38,0,.57a1.92,1.92,0,0,0,.09.51.78.78,0,0,0,.26.37.82.82,0,0,0,.51.14,4.75,4.75,0,0,0,.72-.08v.82a3.08,3.08,0,0,1-.8.1,2.35,2.35,0,0,1-.94-.15,1.23,1.23,0,0,1-.53-.41,1.52,1.52,0,0,1-.24-.6,4.17,4.17,0,0,1-.06-.76Zm0-4.88a1.85,1.85,0,0,1-1.09.59,13.5,13.5,0,0,1-1.63.23l-1.64.15q-.72.08-1.44.22a4.19,4.19,0,0,0-1.3.48,2.65,2.65,0,0,0-.94.91,2.8,2.8,0,0,0-.36,1.5,2.56,2.56,0,0,0,.92,2.17,4.09,4.09,0,0,0,2.54.71,5,5,0,0,0,2.65-.6,4.68,4.68,0,0,0,1.49-1.39,4.26,4.26,0,0,0,.65-1.52,6.44,6.44,0,0,0,.14-1Z"/><path class="cls-1" d="M166.51,38.77V36.12h1v2.65Zm0,15.69V41.26h1v13.2Z"/><path class="cls-1" d="M170.6,41.26h1v2.82h.05a4.23,4.23,0,0,1,.73-1.32,4.87,4.87,0,0,1,2.48-1.61,5.69,5.69,0,0,1,1.52-.21,6,6,0,0,1,2,.28,3.86,3.86,0,0,1,1.32.74,3.61,3.61,0,0,1,.81,1,4.84,4.84,0,0,1,.42,1.17,6.87,6.87,0,0,1,.15,1.14q0,.55,0,1v8.17h-1V46.11a12.33,12.33,0,0,0-.08-1.23,3.75,3.75,0,0,0-.45-1.43,3.27,3.27,0,0,0-1.13-1.17,3.85,3.85,0,0,0-2.09-.49,4.66,4.66,0,0,0-2,.41,4.34,4.34,0,0,0-1.49,1.14,5,5,0,0,0-.94,1.75,7.31,7.31,0,0,0-.32,2.22v7.14h-1Z"/><path class="cls-1" d="M184.28,48v.15a7.78,7.78,0,0,0,.31,2.21,5.64,5.64,0,0,0,.91,1.85A4.33,4.33,0,0,0,187,53.46a4.64,4.64,0,0,0,2.12.46,4.53,4.53,0,0,0,3.14-1,5.45,5.45,0,0,0,1.6-2.89h1A5.91,5.91,0,0,1,193,53.53a5.73,5.73,0,0,1-3.84,1.23,5.82,5.82,0,0,1-2.56-.53,5.19,5.19,0,0,1-1.82-1.44,6.09,6.09,0,0,1-1.09-2.16,9.61,9.61,0,0,1-.36-2.68,9.4,9.4,0,0,1,.37-2.66,6.68,6.68,0,0,1,1.12-2.23,5.53,5.53,0,0,1,1.86-1.54,5.65,5.65,0,0,1,2.63-.58,5.58,5.58,0,0,1,2.45.51,5.15,5.15,0,0,1,1.79,1.4,6.23,6.23,0,0,1,1.09,2.05,8.21,8.21,0,0,1,.37,2.5c0,.09,0,.18,0,.3s0,.2,0,.27Zm9.71-.85a7.91,7.91,0,0,0-.36-2,5.05,5.05,0,0,0-.91-1.7,4.55,4.55,0,0,0-1.47-1.17,4.3,4.3,0,0,0-2-.44,4.62,4.62,0,0,0-2.09.45,4.7,4.7,0,0,0-1.52,1.18,5.25,5.25,0,0,0-1,1.71,8,8,0,0,0-.41,2Z"/><path class="cls-1" d="M198.23,44.19h.08A3.21,3.21,0,0,1,199,43a4.6,4.6,0,0,1,1.16-1,5.71,5.71,0,0,1,1.52-.63,6.14,6.14,0,0,1,1.73-.19v1a4.63,4.63,0,0,0-1.76.15,4.27,4.27,0,0,0-1.89,1.13,9.13,9.13,0,0,0-.63.74,3.58,3.58,0,0,0-.45.8,5,5,0,0,0-.28,1,8.5,8.5,0,0,0-.13,1.28v7.22h-1V41.26h1Z"/><path class="cls-1" d="M223.68,41.36a4.92,4.92,0,0,0-.5-2.05A4.31,4.31,0,0,0,222,37.84a5.31,5.31,0,0,0-1.84-.89,8.68,8.68,0,0,0-2.32-.3,8.38,8.38,0,0,0-1.66.18,5.24,5.24,0,0,0-1.64.63,3.73,3.73,0,0,0-1.25,1.21,3.42,3.42,0,0,0-.49,1.89,2.85,2.85,0,0,0,.54,1.8,3.93,3.93,0,0,0,1.41,1.12,9.29,9.29,0,0,0,2,.68q1.13.26,2.29.49t2.3.55a7.88,7.88,0,0,1,2,.87,4.32,4.32,0,0,1,1.43,1.44,4.2,4.2,0,0,1,.54,2.22,4.44,4.44,0,0,1-.62,2.41,5.21,5.21,0,0,1-1.55,1.59,6.43,6.43,0,0,1-2.08.89,9.55,9.55,0,0,1-2.2.27,12.69,12.69,0,0,1-3-.35,6.78,6.78,0,0,1-2.47-1.13,5.46,5.46,0,0,1-1.66-2,6.56,6.56,0,0,1-.58-3h1.13a5.12,5.12,0,0,0,.44,2.56,4.61,4.61,0,0,0,1.43,1.71,5.9,5.9,0,0,0,2.14,1,11.05,11.05,0,0,0,2.59.3,8.22,8.22,0,0,0,1.76-.21A5.41,5.41,0,0,0,222.3,53a4.25,4.25,0,0,0,1.31-1.28,3.56,3.56,0,0,0,.53-2,3.1,3.1,0,0,0-.54-1.89,4,4,0,0,0-1.43-1.18,9.23,9.23,0,0,0-2-.72q-1.12-.27-2.3-.5t-2.29-.54a7.84,7.84,0,0,1-2-.83,4.31,4.31,0,0,1-1.41-1.36,3.89,3.89,0,0,1-.54-2.14,4.35,4.35,0,0,1,.55-2.25,4.51,4.51,0,0,1,1.44-1.52,6.39,6.39,0,0,1,2-.85,9.17,9.17,0,0,1,2.18-.27,10.73,10.73,0,0,1,2.68.32,6.38,6.38,0,0,1,2.18,1,5,5,0,0,1,1.5,1.76,6.24,6.24,0,0,1,.64,2.59Z"/><path class="cls-1" d="M228.07,48v.15a7.78,7.78,0,0,0,.31,2.21,5.64,5.64,0,0,0,.91,1.85,4.33,4.33,0,0,0,1.52,1.26,4.64,4.64,0,0,0,2.12.46,4.53,4.53,0,0,0,3.14-1,5.45,5.45,0,0,0,1.6-2.89h1a5.91,5.91,0,0,1-1.89,3.54,5.73,5.73,0,0,1-3.84,1.23,5.82,5.82,0,0,1-2.56-.53,5.19,5.19,0,0,1-1.82-1.44,6.09,6.09,0,0,1-1.09-2.16,9.61,9.61,0,0,1-.36-2.68,9.4,9.4,0,0,1,.37-2.66,6.68,6.68,0,0,1,1.12-2.23,5.53,5.53,0,0,1,1.86-1.54,5.65,5.65,0,0,1,2.63-.58,5.58,5.58,0,0,1,2.45.51,5.15,5.15,0,0,1,1.79,1.4,6.23,6.23,0,0,1,1.09,2.05,8.21,8.21,0,0,1,.37,2.5c0,.09,0,.18,0,.3s0,.2,0,.27Zm9.71-.85a7.91,7.91,0,0,0-.36-2,5.05,5.05,0,0,0-.91-1.7A4.55,4.55,0,0,0,235,42.23a4.3,4.3,0,0,0-2-.44,4.62,4.62,0,0,0-2.09.45,4.7,4.7,0,0,0-1.52,1.18,5.25,5.25,0,0,0-1,1.71,8,8,0,0,0-.41,2Z"/><path class="cls-1" d="M242,44.19h.08a3.21,3.21,0,0,1,.65-1.21,4.6,4.6,0,0,1,1.16-1,5.71,5.71,0,0,1,1.52-.63,6.14,6.14,0,0,1,1.73-.19v1a4.63,4.63,0,0,0-1.76.15,4.27,4.27,0,0,0-1.89,1.13,9.13,9.13,0,0,0-.63.74,3.58,3.58,0,0,0-.45.8,5,5,0,0,0-.28,1,8.5,8.5,0,0,0-.13,1.28v7.22h-1V41.26h1Z"/><path class="cls-1" d="M253.57,54.46h-1.21L247,41.26h1.13L253,53.33H253l4.47-12.07h1.08Z"/><path class="cls-1" d="M260.17,38.77V36.12h1v2.65Zm0,15.69V41.26h1v13.2Z"/><path class="cls-1" d="M274.19,45.34a3.82,3.82,0,0,0-.45-1.54,3.45,3.45,0,0,0-1-1.1A4.39,4.39,0,0,0,271.4,42a5.91,5.91,0,0,0-1.68-.23,4.61,4.61,0,0,0-2.18.5,4.8,4.8,0,0,0-1.59,1.34,6,6,0,0,0-1,1.9,7.3,7.3,0,0,0-.33,2.2,9.34,9.34,0,0,0,.31,2.47,5.58,5.58,0,0,0,1,2,4.42,4.42,0,0,0,1.59,1.3,5,5,0,0,0,2.23.46,4.62,4.62,0,0,0,1.71-.31,4.56,4.56,0,0,0,1.39-.85,4.38,4.38,0,0,0,1-1.3,5.29,5.29,0,0,0,.51-1.66h1a6.2,6.2,0,0,1-.64,2.11,5.16,5.16,0,0,1-1.23,1.55,5.33,5.33,0,0,1-1.7,1,6.56,6.56,0,0,1-4.76-.24,5.28,5.28,0,0,1-1.88-1.55A6.6,6.6,0,0,1,264,50.39a10.07,10.07,0,0,1-.35-2.66,8.45,8.45,0,0,1,.4-2.62A6.39,6.39,0,0,1,265.23,43a5.54,5.54,0,0,1,1.9-1.46,6,6,0,0,1,2.59-.54,7.29,7.29,0,0,1,2,.27,5.23,5.23,0,0,1,1.67.81,4.23,4.23,0,0,1,1.19,1.37,4.91,4.91,0,0,1,.56,1.94Z"/><path class="cls-1" d="M277.94,48v.15a7.78,7.78,0,0,0,.31,2.21,5.64,5.64,0,0,0,.91,1.85,4.33,4.33,0,0,0,1.52,1.26,4.64,4.64,0,0,0,2.12.46,4.53,4.53,0,0,0,3.14-1,5.45,5.45,0,0,0,1.6-2.89h1a5.91,5.91,0,0,1-1.89,3.54,5.73,5.73,0,0,1-3.84,1.23,5.82,5.82,0,0,1-2.56-.53,5.19,5.19,0,0,1-1.82-1.44,6.09,6.09,0,0,1-1.09-2.16A9.61,9.61,0,0,1,277,48a9.4,9.4,0,0,1,.37-2.66,6.68,6.68,0,0,1,1.12-2.23,5.53,5.53,0,0,1,1.86-1.54,5.65,5.65,0,0,1,2.63-.58,5.58,5.58,0,0,1,2.45.51,5.15,5.15,0,0,1,1.79,1.4,6.23,6.23,0,0,1,1.09,2.05,8.21,8.21,0,0,1,.37,2.5c0,.09,0,.18,0,.3s0,.2,0,.27Zm9.71-.85a7.91,7.91,0,0,0-.36-2,5.05,5.05,0,0,0-.91-1.7,4.55,4.55,0,0,0-1.47-1.17,4.3,4.3,0,0,0-2-.44,4.62,4.62,0,0,0-2.09.45,4.7,4.7,0,0,0-1.52,1.18,5.25,5.25,0,0,0-1,1.71,8,8,0,0,0-.41,2Z"/><polygon class="cls-1" points="45.69 24.54 45.69 43.06 56.91 38.63 56.91 28.63 45.69 24.54"/><path class="cls-1" d="M34.58,27.26V40l8.81,3.07V24.54Zm2.06,12-1.38-.48,0-10.13,1.38-.43Zm2.54.91-1.93-.67,0-11.48,1.93-.6Zm3.12,1.08-2.5-.82V27.21l2.5-.78Z"/><polygon class="cls-1" points="18.71 24.54 18.71 43.06 29.93 38.63 29.93 28.63 18.71 24.54"/><path class="cls-1" d="M7.59,27.26V40l8.81,3.07V24.54Zm2.06,12-1.38-.48,0-10.13,1.38-.43Zm2.54.91-1.93-.67L10.3,28l1.93-.6Zm3.12,1.08-2.5-.82V27.21l2.5-.78Z"/><polygon class="cls-1" points="72.67 24.54 72.67 43.06 83.89 38.63 83.89 28.63 72.67 24.54"/><path class="cls-1" d="M61.56,27.26V40l8.81,3.07V24.54Zm2.06,12-1.38-.48,0-10.13,1.38-.43Zm2.54.91-1.93-.67,0-11.48,1.93-.6Zm3.12,1.08-2.5-.82V27.21l2.5-.78Z"/><polygon class="cls-1" points="31.29 43.46 31.29 61.99 42.51 57.55 42.51 47.55 31.29 43.46"/><path class="cls-1" d="M20.18,46.19V58.92L29,62V43.46Zm2.06,12-1.38-.48,0-10.13,1.38-.43Zm2.54.91-1.93-.67,0-11.48,1.93-.6Zm3.12,1.08-2.5-.82V46.13l2.5-.78Z"/><polygon class="cls-1" points="58.74 43.46 58.74 61.99 69.96 57.55 69.96 47.55 58.74 43.46"/><path class="cls-1" d="M47.63,46.19V58.92L56.44,62V43.46Zm2.06,12-1.38-.48,0-10.13,1.38-.43Zm2.54.91-1.93-.67,0-11.48,1.93-.6Zm3.12,1.08-2.5-.82V46.13l2.5-.78Z"/><polygon class="cls-1" points="31.29 5.61 31.29 24.14 42.51 19.71 42.51 9.7 31.29 5.61"/><path class="cls-1" d="M20.18,8.34V21.07L29,24.14V5.61Zm2.06,12-1.38-.48,0-10.13,1.38-.43Zm2.54.91-1.93-.67,0-11.48,1.93-.6Zm3.12,1.08-2.5-.82V8.28l2.5-.78Z"/><polygon class="cls-1" points="58.74 5.61 58.74 24.14 69.96 19.71 69.96 9.7 58.74 5.61"/><path class="cls-1" d="M47.63,8.34V21.07l8.81,3.07V5.61Zm2.06,12-1.38-.48,0-10.13,1.38-.43Zm2.54.91-1.93-.67,0-11.48,1.93-.6Zm3.12,1.08-2.5-.82V8.28l2.5-.78Z"/></svg>