<?xml version="1.0" encoding="utf-8"?>
<!-- Generator: Adobe Illustrator 19.1.0, SVG Export Plug-In . SVG Version: 6.00 Build 0)  -->
<svg version="1.1" id="Layer_1" xmlns="http://www.w3.org/2000/svg" xmlns:xlink="http://www.w3.org/1999/xlink" x="0px" y="0px"
	 viewBox="-349 251 100 100" style="enable-background:new -349 251 100 100;" xml:space="preserve">
<style type="text/css">
	.st0{fill:#EAF2F8;}
	.st1{fill:#2980B9;}
	.st2{fill:#474747;}
	.st3{fill:#666666;}
	.st4{fill:#D6EFF1;stroke:#78C9CF;stroke-width:1.4198;stroke-miterlimit:10;}
	.st5{fill:#F9F5CD;stroke:#EADF5A;stroke-width:1.4198;stroke-miterlimit:10;}
	.st6{fill:#F9F5CD;}
	.st7{fill:#EADF5A;}
	.st8{fill:none;stroke:#2980B9;stroke-width:1.4198;stroke-miterlimit:10;}
	.st9{fill:none;stroke:#2980B9;stroke-width:0.7099;stroke-miterlimit:10;}
	.st10{fill:none;stroke:#334851;stroke-width:1.4198;stroke-miterlimit:10;}
	.st11{fill:#C3EAB2;stroke:#69CA3F;stroke-width:1.42;stroke-miterlimit:10;}
	.st12{fill:#69CA3F;}
	.st13{fill:#FFFFFF;}
	.st14{fill:none;}
	.st15{fill:#7FC65F;}
	.st16{fill:none;stroke:#474747;stroke-width:2;stroke-miterlimit:10;}
</style>
<g>
	<g>
		<path class="st0" d="M-297.5,304.9c-0.3-0.1-0.6-0.2-0.9-0.3l-0.8-0.2v-20.1l0.8-0.2c0.6-0.1,1.2-0.3,1.7-0.7l0.7-0.5l9.8,11.2
			l-0.3,0.6c-0.3,0.5-0.4,1.1-0.4,1.7c0,0.4,0,0.7,0.1,1l0.2,0.7l-10.5,7L-297.5,304.9z"/>
		<path class="st1" d="M-296.2,284.2l8.8,10c-0.3,0.6-0.5,1.4-0.5,2.1c0,0.5,0.1,0.9,0.2,1.3l-9.4,6.3c-0.4-0.2-0.7-0.3-1.1-0.4
			v-18.5C-297.4,284.9-296.8,284.6-296.2,284.2 M-295.8,281.6l-1.5,1c-0.4,0.3-0.8,0.4-1.3,0.5l-1.6,0.3v1.6v18.5v1.6l1.6,0.3
			c0.2,0.1,0.5,0.1,0.7,0.2l1,0.5l1-0.6l9.4-6.3l1.2-0.8l-0.4-1.4c-0.1-0.3-0.1-0.5-0.1-0.8c0-0.5,0.1-0.9,0.3-1.3l0.5-1.2l-0.9-1
			l-8.8-10L-295.8,281.6L-295.8,281.6z"/>
	</g>
	<g>
		<path class="st0" d="M-312,298.1l0.2-0.7c0.1-0.3,0.1-0.7,0.1-1c0-0.6-0.1-1.2-0.4-1.7l-0.3-0.6l9.8-11.2l0.7,0.5
			c0.5,0.3,1,0.6,1.6,0.7l0.8,0.2v20.1l-0.8,0.2c-0.3,0.1-0.6,0.2-0.9,0.3l-0.5,0.2L-312,298.1z"/>
		<path class="st1" d="M-302.4,284.3c0.6,0.4,1.3,0.7,2,0.8v18.5c-0.4,0.1-0.7,0.2-1.1,0.4l-9.4-6.2c0.1-0.4,0.2-0.9,0.2-1.3
			c0-0.8-0.2-1.5-0.5-2.1L-302.4,284.3 M-302.7,281.6l-1.1,1.3l-8.8,10l-0.9,1l0.5,1.2c0.2,0.4,0.3,0.8,0.3,1.3c0,0.3,0,0.5-0.1,0.8
			l-0.4,1.4l1.2,0.8l9.4,6.2l0.9,0.6l1-0.5c0.2-0.1,0.4-0.2,0.7-0.2l1.6-0.3v-1.6v-18.5v-1.6l-1.6-0.3c-0.5-0.1-0.9-0.3-1.3-0.5
			L-302.7,281.6L-302.7,281.6z"/>
	</g>
	<g>
		<path class="st0" d="M-331.4,297.8l32.4-39l32.4,39.3l-32.4,26.9L-331.4,297.8z M-302,305.3l-0.6,0.8c-0.5,0.7-0.8,1.5-0.8,2.4
			c0,2.2,1.8,4.1,4.1,4.1c2.2,0,4.1-1.8,4.1-4.1c0-0.8-0.3-1.6-0.7-2.3l-0.6-0.8l10.2-6.8l0.6,0.6c0.8,0.8,1.8,1.3,3,1.3
			c2.2,0,4.1-1.8,4.1-4.1s-1.8-4.1-4.1-4.1c-0.9,0-1.7,0.3-2.4,0.8l-0.7,0.6l-9.7-11.1l0.4-0.6c0.4-0.7,0.7-1.6,0.7-2.4
			c0-2.6-2.1-4.7-4.7-4.7c-2.6,0-4.7,2.1-4.7,4.7c0,0.9,0.2,1.7,0.7,2.4l0.4,0.6l-9.7,11.1l-0.7-0.6c-0.7-0.5-1.6-0.8-2.4-0.8
			c-2.2,0-4.1,1.8-4.1,4.1s1.8,4.1,4.1,4.1c1.1,0,2.2-0.5,3-1.3l0.6-0.6L-302,305.3z"/>
		<path class="st1" d="M-299,260.4l31,37.6l-31,25.8l-31-26.1L-299,260.4 M-312.7,292.3c-0.8-0.6-1.9-1-3-1c-2.8,0-5.1,2.3-5.1,5.1
			s2.3,5.1,5.1,5.1c1.5,0,2.8-0.6,3.7-1.6l8.6,5.7c-0.6,0.8-0.9,1.8-0.9,2.9c0,2.8,2.3,5.1,5.1,5.1s5.1-2.3,5.1-5.1
			c0-1.1-0.3-2.1-0.9-2.9l8.6-5.8c0.9,1,2.2,1.6,3.7,1.6c2.8,0,5.1-2.3,5.1-5.1s-2.3-5.1-5.1-5.1c-1.1,0-2.2,0.4-3,1l-8.6-9.9
			c0.5-0.9,0.8-1.9,0.8-2.9c0-3.1-2.5-5.7-5.7-5.7s-5.7,2.5-5.7,5.7c0,1.1,0.3,2.1,0.8,3L-312.7,292.3 M-299,257.3l-1.5,1.9
			l-31,37.3l-1.3,1.5l1.5,1.3l31,26.1l1.3,1.1l1.3-1.1l31-25.8l1.5-1.3l-1.3-1.5l-31-37.6L-299,257.3L-299,257.3z M-312.4,295
			l1.2-1.4l8.6-9.8l1-1.1l-0.8-1.3c-0.4-0.6-0.5-1.2-0.5-1.9c0-2,1.6-3.7,3.7-3.7c2,0,3.7,1.6,3.7,3.7c0,0.7-0.2,1.3-0.5,1.9
			l-0.8,1.3l1,1.1l8.6,9.9l1.2,1.4l1.5-1.1c0.5-0.4,1.2-0.6,1.8-0.6c1.7,0,3.1,1.4,3.1,3.1c0,1.7-1.4,3.1-3.1,3.1
			c-0.9,0-1.7-0.3-2.3-1l-1.2-1.2l-1.4,0.9l-8.6,5.8l-1.7,1.1l1.2,1.7c0.4,0.5,0.6,1.1,0.6,1.8c0,1.7-1.4,3.1-3.1,3.1
			c-1.7,0-3.1-1.4-3.1-3.1c0-0.6,0.2-1.3,0.6-1.8l1.2-1.7l-1.7-1.1l-8.6-5.7l-1.4-0.9l-1.2,1.2c-0.6,0.6-1.4,1-2.3,1
			c-1.7,0-3.1-1.4-3.1-3.1c0-1.7,1.4-3.1,3.1-3.1c0.7,0,1.3,0.2,1.8,0.6L-312.4,295L-312.4,295z"/>
	</g>
</g>
<g>
	<path class="st3" d="M-337.2,341.5h-1.5c-0.2,0-0.3,0-0.4-0.1c-0.1-0.1-0.2-0.2-0.2-0.3l-0.6-1.8h-3.8l-0.6,1.8
		c0,0.1-0.1,0.2-0.2,0.3s-0.2,0.1-0.4,0.1h-1.6l3.8-9.6h2L-337.2,341.5z M-340.5,337.9l-1-2.9c-0.1-0.2-0.1-0.3-0.2-0.5
		c-0.1-0.2-0.1-0.4-0.2-0.7c-0.1,0.2-0.1,0.5-0.2,0.7c-0.1,0.2-0.1,0.4-0.2,0.5l-1,2.9H-340.5z"/>
	<path class="st3" d="M-331.9,336.2c-0.1,0.1-0.1,0.1-0.2,0.2c-0.1,0-0.1,0.1-0.2,0.1c-0.1,0-0.2,0-0.3-0.1
		c-0.1-0.1-0.2-0.1-0.3-0.2s-0.2-0.1-0.4-0.2c-0.1-0.1-0.3-0.1-0.5-0.1c-0.3,0-0.5,0-0.7,0.1c-0.2,0.1-0.4,0.2-0.5,0.4
		c-0.1,0.2-0.2,0.4-0.3,0.7c-0.1,0.3-0.1,0.6-0.1,0.9c0,0.7,0.1,1.2,0.4,1.6c0.3,0.4,0.7,0.6,1.1,0.6c0.2,0,0.3,0,0.4,0
		c0.1,0,0.2-0.1,0.3-0.1c0.1,0,0.2-0.1,0.2-0.1c0.1-0.1,0.1-0.1,0.2-0.1s0.1-0.1,0.2-0.1c0.1,0,0.1,0,0.2,0c0.1,0,0.3,0.1,0.3,0.2
		l0.5,0.7c-0.2,0.2-0.4,0.4-0.6,0.6c-0.2,0.1-0.4,0.3-0.7,0.4s-0.5,0.1-0.7,0.2c-0.2,0-0.5,0-0.7,0c-0.4,0-0.8-0.1-1.2-0.2
		c-0.4-0.2-0.7-0.4-1-0.7c-0.3-0.3-0.5-0.7-0.7-1.1s-0.2-0.9-0.2-1.5c0-0.5,0.1-1,0.2-1.4c0.1-0.4,0.4-0.8,0.6-1.1
		c0.3-0.3,0.6-0.6,1-0.7c0.4-0.2,0.9-0.3,1.4-0.3c0.5,0,1,0.1,1.4,0.3c0.4,0.2,0.7,0.4,1.1,0.7L-331.9,336.2z"/>
	<path class="st3" d="M-323.5,341.5h-1.8V336h-3v3.6c0,0.2,0,0.3,0.1,0.5s0.2,0.2,0.4,0.2c0.1,0,0.2,0,0.2,0s0.1,0,0.2-0.1
		c0,0,0.1,0,0.1-0.1c0,0,0.1,0,0.1,0c0.1,0,0.1,0,0.1,0c0,0,0.1,0.1,0.1,0.1l0.5,0.9c-0.3,0.2-0.5,0.3-0.9,0.5
		c-0.3,0.1-0.6,0.2-1,0.2c-0.3,0-0.6,0-0.8-0.1c-0.2-0.1-0.4-0.2-0.6-0.4c-0.2-0.2-0.3-0.4-0.4-0.6c-0.1-0.2-0.1-0.5-0.1-0.8V336
		h-0.6c-0.1,0-0.2,0-0.2-0.1s-0.1-0.2-0.1-0.3v-0.7l1.1-0.2l0.4-1.8c0-0.2,0.2-0.3,0.4-0.3h1v2.1h4.8V341.5z M-323.2,332.7
		c0,0.2,0,0.3-0.1,0.4s-0.1,0.3-0.2,0.4c-0.1,0.1-0.2,0.2-0.4,0.2s-0.3,0.1-0.4,0.1c-0.1,0-0.3,0-0.4-0.1s-0.3-0.1-0.4-0.2
		c-0.1-0.1-0.2-0.2-0.2-0.4s-0.1-0.3-0.1-0.4c0-0.2,0-0.3,0.1-0.4s0.1-0.3,0.2-0.4s0.2-0.2,0.4-0.2c0.1-0.1,0.3-0.1,0.4-0.1
		c0.2,0,0.3,0,0.4,0.1c0.1,0.1,0.3,0.1,0.4,0.2c0.1,0.1,0.2,0.2,0.2,0.4S-323.2,332.6-323.2,332.7z"/>
	<path class="st3" d="M-315.8,334.7l-2.7,6.8h-1.7l-2.7-6.8h1.5c0.1,0,0.2,0,0.3,0.1c0.1,0.1,0.2,0.1,0.2,0.2l1.1,3.4
		c0.1,0.2,0.1,0.5,0.2,0.7c0.1,0.2,0.1,0.4,0.2,0.7c0-0.2,0.1-0.4,0.2-0.7s0.1-0.4,0.2-0.7l1.2-3.4c0-0.1,0.1-0.2,0.2-0.2
		c0.1-0.1,0.2-0.1,0.3-0.1H-315.8z"/>
	<path class="st3" d="M-313.9,338.4c0.1,0.6,0.2,1.1,0.5,1.4s0.7,0.4,1.2,0.4c0.3,0,0.5,0,0.7-0.1s0.3-0.1,0.5-0.2
		c0.1-0.1,0.3-0.1,0.4-0.2s0.2-0.1,0.3-0.1c0.1,0,0.3,0.1,0.3,0.2l0.5,0.7c-0.2,0.2-0.4,0.4-0.6,0.6c-0.2,0.1-0.5,0.3-0.7,0.4
		c-0.3,0.1-0.5,0.1-0.8,0.2s-0.5,0-0.7,0c-0.5,0-0.9-0.1-1.3-0.2c-0.4-0.2-0.8-0.4-1.1-0.7c-0.3-0.3-0.5-0.7-0.7-1.1
		c-0.2-0.5-0.3-1-0.3-1.6c0-0.5,0.1-0.9,0.2-1.3c0.2-0.4,0.4-0.8,0.7-1.1c0.3-0.3,0.6-0.5,1-0.7c0.4-0.2,0.9-0.3,1.4-0.3
		c0.4,0,0.8,0.1,1.2,0.2c0.4,0.1,0.7,0.3,1,0.6c0.3,0.3,0.5,0.6,0.6,1c0.1,0.4,0.2,0.8,0.2,1.3c0,0.1,0,0.2,0,0.3
		c0,0.1,0,0.2-0.1,0.2c0,0.1-0.1,0.1-0.1,0.1c-0.1,0-0.1,0-0.2,0H-313.9z M-311.1,337.3c0-0.2,0-0.4-0.1-0.5
		c-0.1-0.2-0.1-0.3-0.2-0.5c-0.1-0.1-0.2-0.2-0.4-0.3s-0.4-0.1-0.6-0.1c-0.4,0-0.8,0.1-1,0.4c-0.2,0.2-0.4,0.6-0.5,1.1H-311.1z"/>
	<path class="st3" d="M-296.6,336.7c0,0.7-0.1,1.3-0.4,1.9s-0.6,1.1-1,1.5s-0.9,0.8-1.6,1c-0.6,0.2-1.3,0.4-2,0.4h-3.7v-9.6h3.7
		c0.7,0,1.4,0.1,2,0.4s1.1,0.6,1.6,1c0.4,0.4,0.8,0.9,1,1.5C-296.7,335.4-296.6,336-296.6,336.7z M-298.6,336.7c0-0.5-0.1-1-0.2-1.4
		c-0.1-0.4-0.3-0.7-0.6-1c-0.2-0.3-0.5-0.5-0.9-0.6c-0.4-0.1-0.8-0.2-1.2-0.2h-1.7v6.5h1.7c0.5,0,0.9-0.1,1.2-0.2
		c0.4-0.1,0.7-0.4,0.9-0.6c0.2-0.3,0.4-0.6,0.6-1C-298.7,337.7-298.6,337.2-298.6,336.7z"/>
	<path class="st3" d="M-293.6,332.7c0,0.2,0,0.3-0.1,0.4s-0.1,0.2-0.2,0.4c-0.1,0.1-0.2,0.2-0.4,0.2c-0.1,0.1-0.3,0.1-0.4,0.1
		c-0.2,0-0.3,0-0.4-0.1s-0.3-0.1-0.4-0.2c-0.1-0.1-0.2-0.2-0.2-0.4c-0.1-0.1-0.1-0.3-0.1-0.4s0-0.3,0.1-0.4c0.1-0.1,0.1-0.3,0.2-0.4
		s0.2-0.2,0.4-0.2c0.1-0.1,0.3-0.1,0.4-0.1c0.2,0,0.3,0,0.4,0.1c0.1,0.1,0.3,0.1,0.4,0.2s0.2,0.2,0.2,0.4S-293.6,332.6-293.6,332.7z
		 M-293.8,334.7v6.8h-1.8v-6.8H-293.8z"/>
	<path class="st3" d="M-290.7,335.8c0.2-0.4,0.5-0.7,0.7-0.9c0.3-0.2,0.6-0.3,1-0.3c0.3,0,0.6,0.1,0.8,0.2l-0.1,1.4
		c0,0.1-0.1,0.1-0.1,0.2s-0.1,0-0.2,0c-0.1,0-0.2,0-0.3,0c-0.1,0-0.3,0-0.4,0c-0.2,0-0.3,0-0.4,0.1s-0.2,0.1-0.3,0.2
		c-0.1,0.1-0.2,0.2-0.3,0.3c-0.1,0.1-0.2,0.3-0.2,0.4v4.2h-1.8v-6.8h1.1c0.2,0,0.3,0,0.4,0.1c0.1,0.1,0.1,0.2,0.2,0.3L-290.7,335.8z
		"/>
	<path class="st3" d="M-286.2,338.4c0.1,0.6,0.2,1.1,0.5,1.4c0.3,0.3,0.7,0.4,1.2,0.4c0.3,0,0.5,0,0.7-0.1s0.3-0.1,0.5-0.2
		c0.1-0.1,0.3-0.1,0.4-0.2s0.2-0.1,0.3-0.1c0.1,0,0.3,0.1,0.3,0.2l0.5,0.7c-0.2,0.2-0.4,0.4-0.6,0.6c-0.2,0.1-0.5,0.3-0.7,0.4
		c-0.3,0.1-0.5,0.1-0.8,0.2s-0.5,0-0.7,0c-0.5,0-0.9-0.1-1.3-0.2c-0.4-0.2-0.8-0.4-1.1-0.7c-0.3-0.3-0.5-0.7-0.7-1.1
		c-0.2-0.5-0.3-1-0.3-1.6c0-0.5,0.1-0.9,0.2-1.3c0.2-0.4,0.4-0.8,0.7-1.1c0.3-0.3,0.6-0.5,1-0.7s0.9-0.3,1.4-0.3
		c0.4,0,0.8,0.1,1.2,0.2c0.4,0.1,0.7,0.3,1,0.6c0.3,0.3,0.5,0.6,0.6,1c0.1,0.4,0.2,0.8,0.2,1.3c0,0.1,0,0.2,0,0.3
		c0,0.1,0,0.2-0.1,0.2c0,0.1-0.1,0.1-0.1,0.1c-0.1,0-0.1,0-0.2,0H-286.2z M-283.4,337.3c0-0.2,0-0.4-0.1-0.5
		c-0.1-0.2-0.1-0.3-0.2-0.5c-0.1-0.1-0.2-0.2-0.4-0.3s-0.4-0.1-0.6-0.1c-0.4,0-0.8,0.1-1,0.4c-0.2,0.2-0.4,0.6-0.5,1.1H-283.4z"/>
	<path class="st3" d="M-275.8,336.2c-0.1,0.1-0.1,0.1-0.2,0.2c-0.1,0-0.1,0.1-0.2,0.1c-0.1,0-0.2,0-0.3-0.1
		c-0.1-0.1-0.2-0.1-0.3-0.2s-0.2-0.1-0.4-0.2c-0.1-0.1-0.3-0.1-0.5-0.1c-0.3,0-0.5,0-0.7,0.1c-0.2,0.1-0.4,0.2-0.5,0.4
		s-0.2,0.4-0.3,0.7c-0.1,0.3-0.1,0.6-0.1,0.9c0,0.7,0.1,1.2,0.4,1.6s0.7,0.6,1.1,0.6c0.2,0,0.3,0,0.4,0c0.1,0,0.2-0.1,0.3-0.1
		c0.1,0,0.2-0.1,0.2-0.1c0.1-0.1,0.1-0.1,0.2-0.1s0.1-0.1,0.2-0.1c0.1,0,0.1,0,0.2,0c0.1,0,0.3,0.1,0.3,0.2l0.5,0.7
		c-0.2,0.2-0.4,0.4-0.6,0.6c-0.2,0.1-0.4,0.3-0.7,0.4s-0.5,0.1-0.7,0.2c-0.2,0-0.5,0-0.7,0c-0.4,0-0.8-0.1-1.2-0.2
		c-0.4-0.2-0.7-0.4-1-0.7c-0.3-0.3-0.5-0.7-0.7-1.1c-0.2-0.4-0.2-0.9-0.2-1.5c0-0.5,0.1-1,0.2-1.4s0.4-0.8,0.6-1.1
		c0.3-0.3,0.6-0.6,1-0.7c0.4-0.2,0.9-0.3,1.4-0.3c0.5,0,1,0.1,1.4,0.3s0.7,0.4,1.1,0.7L-275.8,336.2z"/>
	<path class="st3" d="M-272.1,341.6c-0.3,0-0.6,0-0.8-0.1c-0.2-0.1-0.4-0.2-0.6-0.4c-0.2-0.2-0.3-0.4-0.4-0.6
		c-0.1-0.2-0.1-0.5-0.1-0.8V336h-0.6c-0.1,0-0.2,0-0.2-0.1s-0.1-0.2-0.1-0.3v-0.7l1.1-0.2l0.4-1.8c0-0.2,0.2-0.3,0.4-0.3h1v2.1h1.8
		v1.3h-1.8v3.6c0,0.2,0,0.3,0.1,0.5c0.1,0.1,0.2,0.2,0.4,0.2c0.1,0,0.2,0,0.2,0s0.1,0,0.2-0.1s0.1,0,0.1-0.1c0,0,0.1,0,0.1,0
		c0.1,0,0.1,0,0.1,0c0,0,0.1,0.1,0.1,0.1l0.5,0.9c-0.3,0.2-0.5,0.3-0.9,0.5C-271.5,341.6-271.8,341.6-272.1,341.6z"/>
	<path class="st3" d="M-266.6,334.6c0.5,0,1,0.1,1.4,0.2c0.4,0.2,0.8,0.4,1.1,0.7c0.3,0.3,0.5,0.7,0.7,1.1c0.2,0.4,0.2,0.9,0.2,1.5
		c0,0.5-0.1,1-0.2,1.5c-0.2,0.4-0.4,0.8-0.7,1.1c-0.3,0.3-0.7,0.5-1.1,0.7c-0.4,0.2-0.9,0.2-1.4,0.2c-0.5,0-1-0.1-1.4-0.2
		c-0.4-0.2-0.8-0.4-1.1-0.7s-0.5-0.7-0.7-1.1c-0.2-0.4-0.2-0.9-0.2-1.5c0-0.5,0.1-1,0.2-1.5c0.2-0.4,0.4-0.8,0.7-1.1
		s0.7-0.5,1.1-0.7C-267.6,334.7-267.1,334.6-266.6,334.6z M-266.6,340.2c0.5,0,0.9-0.2,1.2-0.5c0.3-0.4,0.4-0.9,0.4-1.6
		c0-0.7-0.1-1.2-0.4-1.6c-0.3-0.4-0.6-0.5-1.2-0.5c-0.5,0-0.9,0.2-1.2,0.5c-0.3,0.4-0.4,0.9-0.4,1.6c0,0.7,0.1,1.2,0.4,1.6
		C-267.6,340.1-267.2,340.2-266.6,340.2z"/>
	<path class="st3" d="M-260.5,335.8c0.2-0.4,0.5-0.7,0.7-0.9s0.6-0.3,1-0.3c0.3,0,0.6,0.1,0.8,0.2l-0.1,1.4c0,0.1-0.1,0.1-0.1,0.2
		c0,0-0.1,0-0.2,0c-0.1,0-0.2,0-0.3,0c-0.1,0-0.3,0-0.4,0c-0.2,0-0.3,0-0.4,0.1c-0.1,0-0.2,0.1-0.3,0.2c-0.1,0.1-0.2,0.2-0.3,0.3
		c-0.1,0.1-0.2,0.3-0.2,0.4v4.2h-1.8v-6.8h1.1c0.2,0,0.3,0,0.4,0.1c0.1,0.1,0.1,0.2,0.2,0.3L-260.5,335.8z"/>
	<path class="st3" d="M-251,334.7l-3.7,8.7c-0.1,0.1-0.1,0.2-0.2,0.3c-0.1,0.1-0.2,0.1-0.4,0.1h-1.4l1.3-2.8l-2.7-6.3h1.6
		c0.1,0,0.3,0,0.3,0.1c0.1,0.1,0.1,0.1,0.2,0.2l1.3,3.3c0,0.1,0.1,0.3,0.1,0.4c0,0.1,0.1,0.3,0.1,0.4c0.1-0.3,0.2-0.5,0.3-0.8
		l1.2-3.3c0-0.1,0.1-0.2,0.2-0.2c0.1-0.1,0.2-0.1,0.3-0.1H-251z"/>
</g>
</svg>
