<svg id="Layer_1" data-name="Layer 1" xmlns="http://www.w3.org/2000/svg" viewBox="0 0 100 100"><defs><style>.cls-1{fill:#00aaf2;}</style></defs><path class="cls-1" d="M73.82,51.17c0,3.5,0,7,0,10.52,0,1.2-.36,1.46-1.53,1.29-7.86-1.17-15.74-2.28-23.62-3.35-1.41-.19-1.94-0.69-1.92-2.23,0.1-5.61.07-11.24,0-16.84,0-1.25.38-1.58,1.61-1.58q11.93,0.07,23.86,0c1.27,0,1.61.5,1.61,1.65C73.77,44.15,73.8,47.65,73.82,51.17Z"/><path class="cls-1" d="M60.41,36.92c-4,0-8,0-11.93,0-1.22,0-1.75-.29-1.72-1.68,0.07-5.68.07-11.33,0-17a1.37,1.37,0,0,1,1.44-1.65c8.15-1.15,16.29-2.35,24.44-3.55,1.44-.22,1.17.79,1.17,1.53q0,7.62,0,15.26c0,1.87,0,3.74,0,5.61,0,1.15-.38,1.51-1.51,1.51C68.33,36.9,64.38,36.92,60.41,36.92Z"/><path class="cls-1" d="M34.05,39c3,0,6,0,8.94,0a1.1,1.1,0,0,1,1.37,1.29q0,8.77,0,17.54c0,1-.48,1.13-1.34,1-5.89-.86-11.79-1.72-17.7-2.54a1.49,1.49,0,0,1-1.56-1.77c0.07-4.67.07-9.34,0-14,0-1.15.34-1.51,1.49-1.49C28.21,39.08,31.13,39,34.05,39Z"/><path class="cls-1" d="M34.05,36.92c-2.92,0-5.85,0-8.77,0-1.13,0-1.51-.36-1.49-1.53,0-4.62,0-9.22,0-13.85a1.36,1.36,0,0,1,1.44-1.65c5.89-.79,11.79-1.61,17.66-2.56,1.37-.22,1.49.29,1.49,1.32,0,5.61,0,11.21,0,16.82,0,1.22-.53,1.44-1.58,1.41Z"/><path class="cls-1" d="M2.69,70.92c0-.41,0-0.92,0-1.3h0c-0.1.35-.24,0.76-0.38,1.16L1.72,72.22H1.42L0.95,70.79A11.68,11.68,0,0,1,.6,69.61h0c0,0.36,0,.87-0.06,1.33L0.44,72.23H0.07l0.21-3H0.77l0.51,1.46c0.13,0.36.22,0.71,0.3,1h0c0.08-.3.19-0.65,0.32-1l0.54-1.46H2.95l0.19,3H2.75Z"/><path class="cls-1" d="M4.23,69.47a0.24,0.24,0,0,1-.25.24,0.24,0.24,0,0,1,0-.48A0.25,0.25,0,0,1,4.23,69.47ZM3.79,72.25V70.09h0.4v2.16H3.79Z"/><path class="cls-1" d="M6.37,72.17a1.51,1.51,0,0,1-.62.13,1,1,0,0,1-1.08-1.11A1.11,1.11,0,0,1,5.83,70a1.38,1.38,0,0,1,.54.11l-0.1.3a1,1,0,0,0-.46-0.1,0.75,0.75,0,0,0-.76.82,0.74,0.74,0,0,0,.76.81,1.1,1.1,0,0,0,.48-0.11Z"/><path class="cls-1" d="M6.83,70.76c0-.25,0-0.48,0-0.67H7.17l0,0.43h0A0.67,0.67,0,0,1,7.8,70a0.24,0.24,0,0,1,.11,0v0.36a0.31,0.31,0,0,0-.13,0,0.54,0.54,0,0,0-.52.51,0.65,0.65,0,0,0,0,.17v1.16H6.85V70.76h0Z"/><path class="cls-1" d="M10.21,71.17A1.06,1.06,0,0,1,9.13,72.3a1,1,0,0,1-1-1.13A1.06,1.06,0,1,1,10.21,71.17Zm-1.71,0a0.72,0.72,0,0,0,.65.82,0.85,0.85,0,0,0,0-1.67A0.73,0.73,0,0,0,8.5,71.17Z"/><path class="cls-1" d="M10.66,71.84a1,1,0,0,0,.52.16,0.34,0.34,0,0,0,.41-0.32,0.44,0.44,0,0,0-.4-0.4,0.72,0.72,0,0,1-.57-0.62A0.67,0.67,0,0,1,11.37,70a1.23,1.23,0,0,1,.54.13l-0.1.29a0.87,0.87,0,0,0-.44-0.13,0.33,0.33,0,0,0-.36.3c0,0.17.13,0.25,0.41,0.36a0.66,0.66,0,1,1-.24,1.3,1.13,1.13,0,0,1-.6-0.16Z"/><path class="cls-1" d="M14.43,71.17a1.06,1.06,0,0,1-1.08,1.13,1,1,0,0,1-1-1.13A1.06,1.06,0,0,1,13.4,70,1,1,0,0,1,14.43,71.17Zm-1.71,0a0.72,0.72,0,0,0,.65.82,0.85,0.85,0,0,0,0-1.67A0.73,0.73,0,0,0,12.72,71.17Z"/><path class="cls-1" d="M15,72.25V70.38h-0.3v-0.3H15V70a1,1,0,0,1,.25-0.76A0.76,0.76,0,0,1,15.75,69a0.82,0.82,0,0,1,.33.06l-0.06.3a0.49,0.49,0,0,0-.24,0c-0.33,0-.41.3-0.41,0.63v0.13h0.52v0.3H15.37v1.86H15v0Z"/><path class="cls-1" d="M16.75,69.46v0.62h0.57v0.3H16.75v1.17c0,0.27.08,0.41,0.3,0.41a0.74,0.74,0,0,0,.22,0l0,0.3a0.91,0.91,0,0,1-.35.06,0.61,0.61,0,0,1-.43-0.16,1,1,0,0,1-.14-0.57V70.38H16v-0.3h0.33V69.55Z"/><path class="cls-1" d="M2.44,80.45l-1,3.19H0L3.5,73.52H5.06L8.51,83.64H7.12L6,80.45H2.44Zm3.32-1-1-2.92c-0.22-.67-0.38-1.27-0.52-1.84h0c-0.14.6-.3,1.22-0.49,1.82l-1,2.93h3Z"/><path class="cls-1" d="M14.94,83.37a5,5,0,0,1-2.09.43,3.46,3.46,0,0,1-3.62-3.71,3.71,3.71,0,0,1,3.9-3.87A4.24,4.24,0,0,1,15,76.6l-0.3,1a3.13,3.13,0,0,0-1.54-.35A2.53,2.53,0,0,0,10.54,80a2.49,2.49,0,0,0,2.54,2.71,3.56,3.56,0,0,0,1.6-.36Z"/><path class="cls-1" d="M18.27,74.28v2.11h1.89v1H18.27v3.92c0,0.9.25,1.41,1,1.41a2.79,2.79,0,0,0,.76-0.1l0.06,1a2.85,2.85,0,0,1-1.19.19,1.9,1.9,0,0,1-1.43-.56,2.94,2.94,0,0,1-.49-1.9v-4H15.84v-1H17V74.61Z"/><path class="cls-1" d="M23.14,74.33a0.8,0.8,0,0,1-.84.81,0.77,0.77,0,0,1-.79-0.81,0.8,0.8,0,0,1,.81-0.82A0.82,0.82,0,0,1,23.14,74.33Zm-1.49,9.31V76.39H23v7.25h-1.3Z"/><path class="cls-1" d="M25.68,76.39l1.43,4.08c0.24,0.67.43,1.27,0.59,1.87h0c0.16-.6.38-1.22,0.6-1.87l1.43-4.08h1.38L28.3,83.64H27l-2.76-7.25h1.41Z"/><path class="cls-1" d="M33,80.24a2.32,2.32,0,0,0,2.49,2.52,4.52,4.52,0,0,0,2-.38l0.22,1a5.86,5.86,0,0,1-2.41.46,3.38,3.38,0,0,1-3.57-3.66c0-2.21,1.29-3.92,3.43-3.92,2.36,0,3,2.08,3,3.41a2.84,2.84,0,0,1-.06.62H33Zm3.87-1A1.87,1.87,0,0,0,35,77.17a2.19,2.19,0,0,0-2,2.13h3.86Z"/><path class="cls-1" d="M43,73.66a18.25,18.25,0,0,1,2.79-.21,5.7,5.7,0,0,1,4.09,1.27,4.67,4.67,0,0,1,1.43,3.63,5.37,5.37,0,0,1-1.46,3.93,6.24,6.24,0,0,1-4.47,1.46,20.6,20.6,0,0,1-2.4-.13v-10h0Zm1.33,8.95a7.8,7.8,0,0,0,1.32.08c2.79,0,4.32-1.55,4.32-4.3,0-2.4-1.33-3.9-4.09-3.9a8.28,8.28,0,0,0-1.54.14v8Z"/><path class="cls-1" d="M54.46,74.33a0.8,0.8,0,0,1-.84.81,0.77,0.77,0,0,1-.79-0.81,0.8,0.8,0,0,1,.81-0.82A0.82,0.82,0,0,1,54.46,74.33ZM53,83.64V76.39h1.3v7.25H53Z"/><path class="cls-1" d="M56.47,78.64c0-.86,0-1.57-0.06-2.25h1.16l0,1.43h0a2.22,2.22,0,0,1,2-1.59,1.3,1.3,0,0,1,.36,0v1.25a1.68,1.68,0,0,0-.43,0,1.84,1.84,0,0,0-1.78,1.7,2.51,2.51,0,0,0-.06.6v3.89h-1.3v-5h0Z"/><path class="cls-1" d="M62,80.24a2.32,2.32,0,0,0,2.49,2.52,4.52,4.52,0,0,0,2-.38l0.22,1a5.86,5.86,0,0,1-2.41.46,3.38,3.38,0,0,1-3.57-3.66c0-2.21,1.29-3.92,3.43-3.92,2.36,0,3,2.08,3,3.41a2.84,2.84,0,0,1-.06.62H62Zm3.87-1A1.87,1.87,0,0,0,64,77.17a2.19,2.19,0,0,0-2,2.13h3.86Z"/><path class="cls-1" d="M73.94,83.37a5,5,0,0,1-2.09.43,3.46,3.46,0,0,1-3.62-3.71,3.71,3.71,0,0,1,3.9-3.87A4.24,4.24,0,0,1,74,76.6l-0.3,1a3.13,3.13,0,0,0-1.54-.35A2.53,2.53,0,0,0,69.55,80a2.49,2.49,0,0,0,2.54,2.71,3.56,3.56,0,0,0,1.6-.36Z"/><path class="cls-1" d="M77.27,74.28v2.11h1.89v1H77.27v3.92c0,0.9.25,1.41,1,1.41a2.79,2.79,0,0,0,.76-0.1l0.06,1a2.85,2.85,0,0,1-1.19.19,1.9,1.9,0,0,1-1.43-.56,2.94,2.94,0,0,1-.49-1.9v-4H74.84v-1H76V74.61Z"/><path class="cls-1" d="M87.14,80a3.57,3.57,0,0,1-3.65,3.81A3.48,3.48,0,0,1,80,80a3.54,3.54,0,0,1,3.62-3.81C85.7,76.21,87.14,77.67,87.14,80Zm-5.76,0c0,1.46.73,2.78,2.21,2.78S85.81,81.5,85.81,80c0-1.27-.59-2.82-2.22-2.82S81.38,78.74,81.38,80Z"/><path class="cls-1" d="M88.81,78.64c0-.86,0-1.57-0.06-2.25H89.9l0,1.43h0a2.22,2.22,0,0,1,2-1.59,1.3,1.3,0,0,1,.36,0v1.25a1.68,1.68,0,0,0-.43,0,1.84,1.84,0,0,0-1.78,1.7,2.51,2.51,0,0,0-.06.6v3.89h-1.3v-5h0Z"/><path class="cls-1" d="M94.58,76.39l1.59,4.28c0.16,0.48.35,1,.46,1.49h0c0.14-.43.29-1,0.46-1.51l1.44-4.27H100l-2,5.17c-1,2.49-1.59,3.78-2.49,4.57a3.88,3.88,0,0,1-1.62.84l-0.33-1.11a3.67,3.67,0,0,0,1.17-.65,4.09,4.09,0,0,0,1.09-1.48,0.84,0.84,0,0,0,.11-0.32,0.91,0.91,0,0,0-.11-0.35l-2.68-6.68h1.46Z"/></svg>