<?xml version="1.0" encoding="utf-8"?>
<!-- Generator: Adobe Illustrator 22.1.0, SVG Export Plug-In . SVG Version: 6.00 Build 0)  -->
<svg version="1.1" id="Layer_1" xmlns="http://www.w3.org/2000/svg" xmlns:xlink="http://www.w3.org/1999/xlink" x="0px" y="0px"
	 viewBox="0 0 100 100" style="enable-background:new 0 0 100 100;" xml:space="preserve">
<style type="text/css">
	.st0{fill:#00AAF2;}
</style>
<g>
	<path class="st0" d="M75,63.1c0,3.5,0,7,0,10.5c0,1.2-0.4,1.5-1.5,1.3c-7.9-1.2-15.7-2.3-23.6-3.3c-1.4-0.2-1.9-0.7-1.9-2.2
		c0.1-5.6,0.1-11.2,0-16.8c0-1.2,0.4-1.6,1.6-1.6c8,0,15.9,0,23.9,0c1.3,0,1.6,0.5,1.6,1.6C75,56.1,75,59.6,75,63.1z"/>
	<path class="st0" d="M61.6,48.9c-4,0-8,0-11.9,0c-1.2,0-1.7-0.3-1.7-1.7c0.1-5.7,0.1-11.3,0-17c-0.2-0.7,0.3-1.5,1.1-1.6
		c0.1,0,0.3,0,0.4,0c8.1-1.1,16.3-2.3,24.4-3.5c1.4-0.2,1.2,0.8,1.2,1.5c0,5.1,0,10.2,0,15.3c0,1.9,0,3.7,0,5.6
		c0,1.1-0.4,1.5-1.5,1.5C69.5,48.9,65.6,48.9,61.6,48.9z"/>
	<path class="st0" d="M35.3,51c3,0,6,0,8.9,0c0.6-0.2,1.2,0.2,1.4,0.8c0,0.2,0.1,0.4,0,0.5c0,5.8,0,11.7,0,17.5c0,1-0.5,1.1-1.3,1
		c-5.9-0.9-11.8-1.7-17.7-2.5c-0.8,0.1-1.5-0.6-1.6-1.4c0-0.1,0-0.3,0-0.4c0.1-4.7,0.1-9.3,0-14c0-1.1,0.3-1.5,1.5-1.5
		C29.4,51.1,32.4,51,35.3,51z"/>
	<path class="st0" d="M35.3,48.9c-2.9,0-5.8,0-8.8,0c-1.1,0-1.5-0.4-1.5-1.5c0-4.6,0-9.2,0-13.8c-0.2-0.7,0.3-1.5,1-1.6
		c0.1,0,0.3,0,0.4,0c5.9-0.8,11.8-1.6,17.7-2.6c1.4-0.2,1.5,0.3,1.5,1.3c0,5.6,0,11.2,0,16.8c0,1.2-0.5,1.4-1.6,1.4L35.3,48.9z"/>
</g>
</svg>
