<svg id="Layer_1" data-name="Layer 1" xmlns="http://www.w3.org/2000/svg" viewBox="0 0 100 100"><defs><style>.cls-1{fill:#f8982a;}.cls-2{fill:#fff;}</style></defs><path class="cls-1" d="M67.23,15.5a59.67,59.67,0,0,0-34.47,0,8.88,8.88,0,0,0-5.23,5.23,59.74,59.74,0,0,0,0,34.46,8.88,8.88,0,0,0,5.23,5.23,59.85,59.85,0,0,0,34.46,0,8.88,8.88,0,0,0,5.23-5.23,59.85,59.85,0,0,0,0-34.46A8.88,8.88,0,0,0,67.23,15.5Z"/><path class="cls-2" d="M65.76,33.36C62,33.36,57.33,38,57.33,38s4.32,4.59,8.43,4.59A4.59,4.59,0,1,0,65.76,33.36Z"/><path class="cls-2" d="M54.31,43.67c-0.49.23-1.14,2.24-1.23,4.64-0.68.23-7.32,2.34-7.32-.5,0-3.57,11.49-7.06,7.1-12.37-4.55-5.5-7.51,4.47-14.83-.93h0a4.9,4.9,0,1,0,.64,6.08c3.17-2.33,6.93-2.93,7.86-.68,1.51,3.72-13.47,7.22-8.8,13.74s13.46-5.09,15.42-3.3h0a9.93,9.93,0,0,0,1,3.44,4.84,4.84,0,1,0,8.6-4.45C60.86,45.8,55.18,43.28,54.31,43.67Z"/><path class="cls-2" d="M42,29.29h0.27c3.76-.15,4.3-3.53,7.93-3.53s3.31,3.39,7.27,3.53h0.26a4.9,4.9,0,0,0,0-9.8H57.39a4.91,4.91,0,0,0-1.88.52c-2.16,1-3.67,3.24-5.3,3.24S46.48,21,44.1,20A4.9,4.9,0,1,0,42,29.29Z"/><path class="cls-1" d="M17.77,74.48h1.72l3.91,9.79H21.59L20.69,82H16.55l-0.88,2.26H13.84Zm2.44,6.07-1.58-4.16L17,80.54H20.2Z"/><path class="cls-1" d="M24.79,73.92h1.77V84.27H24.79V73.92Z"/><path class="cls-1" d="M28.24,75.39a1,1,0,0,1,1-1,1,1,0,0,1,1,1,1,1,0,0,1-1,1A1,1,0,0,1,28.24,75.39Zm0.1,2.16h1.79v6.72H28.33V77.55Z"/><path class="cls-1" d="M32.14,86.86V85.52a2.3,2.3,0,0,0,.87.14,1.21,1.21,0,0,0,1.26-1l0.27-.7-2.9-6.42h1.78l2.07,4.9,1.95-4.9H39.2l-2.94,7.33C35.69,86.31,34.9,87,33.53,87A4.89,4.89,0,0,1,32.14,86.86Z"/><path class="cls-1" d="M39.9,81.79V77.55h1.76v4.08A1.26,1.26,0,0,0,43,83.09a2.36,2.36,0,0,0,2-1.15v-4.4h1.76v6.72H45.12V83.36a3.2,3.2,0,0,1-2.52,1.12A2.45,2.45,0,0,1,39.9,81.79Z"/><path class="cls-1" d="M48.51,77.55h1.71v0.91a3.2,3.2,0,0,1,2.52-1.12A2.45,2.45,0,0,1,55.44,80v4.24H53.68V80.19a1.26,1.26,0,0,0-1.37-1.47,2.36,2.36,0,0,0-2,1.15v4.4H48.51V77.55Z"/><path class="cls-1" d="M62.09,74.48h6.63v1.47H63.87v2.69h3.6v1.47h-3.6V82.8h4.85v1.47H62.09V74.48Z"/><path class="cls-1" d="M69.48,79.38a4.89,4.89,0,0,1,5.24-5.11,5.6,5.6,0,0,1,3.39,1v1.69a4.81,4.81,0,0,0-3.24-1,3.49,3.49,0,1,0,0,7,4.9,4.9,0,0,0,3.35-1.09v1.69a5.52,5.52,0,0,1-3.5,1A4.88,4.88,0,0,1,69.48,79.38Z"/><path class="cls-1" d="M79.33,83.89V82.36a7,7,0,0,0,3,.67c1.27,0,1.92-.52,1.92-1.32S83.55,80.53,82,79.93c-1.81-.73-2.61-1.57-2.61-3,0-1.61,1.39-2.7,3.46-2.7a6.28,6.28,0,0,1,2.77.55V76.3a5.55,5.55,0,0,0-2.47-.59c-1.19,0-1.88.45-1.88,1.26s0.69,1.15,2.16,1.76c1.83,0.77,2.69,1.46,2.69,3,0,1.69-1.2,2.75-3.71,2.75A7.69,7.69,0,0,1,79.33,83.89Z"/></svg>