<?xml version="1.0" encoding="utf-8"?>
<!-- Generator: Adobe Illustrator 23.0.1, SVG Export Plug-In . SVG Version: 6.00 Build 0)  -->
<svg version="1.1" id="Layer_1" xmlns="http://www.w3.org/2000/svg" xmlns:xlink="http://www.w3.org/1999/xlink" x="0px" y="0px"
	 viewBox="0 0 100 100" style="enable-background:new 0 0 100 100;" xml:space="preserve">
<style type="text/css">
	.st0{fill:#F8982A;}
	.st1{fill:#FFFFFF;}
</style>
<g>
	<path class="st0" d="M67.2,27.5c-11.2-3.4-23.2-3.4-34.5,0c-2.4,0.9-4.3,2.8-5.2,5.2c-3.4,11.2-3.4,23.2,0,34.5
		c0.9,2.4,2.8,4.3,5.2,5.2c11.2,3.4,23.2,3.4,34.5,0c2.4-0.9,4.3-2.8,5.2-5.2c3.4-11.2,3.4-23.2,0-34.5
		C71.6,30.4,69.7,28.4,67.2,27.5z"/>
	<path class="st1" d="M65.8,45.4c-3.8,0-8.4,4.6-8.4,4.6s4.3,4.6,8.4,4.6c2.5,0,4.6-2.1,4.6-4.6C70.4,47.5,68.3,45.4,65.8,45.4
		L65.8,45.4z"/>
	<path class="st1" d="M54.3,55.7c-0.5,0.2-1.1,2.2-1.2,4.6c-0.7,0.2-7.3,2.3-7.3-0.5c0-3.6,11.5-7.1,7.1-12.4
		C48.3,42,45.4,52,38,46.6l0,0c-1.9-1.9-5-1.9-6.9,0c-1.9,1.9-1.9,5,0,6.9c1.9,1.9,5,1.9,6.9,0c0.3-0.3,0.5-0.5,0.7-0.8
		c3.2-2.3,6.9-2.9,7.9-0.7c1.5,3.7-13.5,7.2-8.8,13.7s13.5-5.1,15.4-3.3l0,0c0.1,1.2,0.5,2.4,1,3.4c1.2,2.4,4.2,3.3,6.5,2.1
		c2.4-1.2,3.3-4.2,2.1-6.5C60.9,57.8,55.2,55.3,54.3,55.7z"/>
	<path class="st1" d="M42,41.3h0.3c3.8-0.2,4.3-3.5,7.9-3.5s3.3,3.4,7.3,3.5h0.3c2.7,0,4.9-2.2,4.9-4.9c0-2.7-2.2-4.9-4.9-4.9h-0.3
		c-0.7,0-1.3,0.2-1.9,0.5c-2.2,1-3.7,3.2-5.3,3.2S46.5,33,44.1,32c-2.4-1.2-5.4-0.2-6.6,2.2c-1.2,2.4-0.2,5.4,2.2,6.6
		C40.5,41.2,41.2,41.3,42,41.3z"/>
</g>
</svg>
