<svg t="1565602491983" class="icon" viewBox="0 0 1638 1024" version="1.1" xmlns="http://www.w3.org/2000/svg" p-id="1809" width="50" height="50"><path d="M392.50972492 672.62561036V334.91137695a27.21588135 27.21588135 0 0 1 21.65405274-27.21588135l292.03308105-70.82061767 18.984375-95.29266358H389.84004718A162.8503418 162.8503418 0 0 0 227.5829671 304.95166016V702.58532715c0 90.24993896 72.67456055 163.3694458 162.25708009 163.3694458h335.34118652l-18.984375-95.29266357-292.03308106-70.82061768a27.21588135 27.21588135 0 0 1-21.65405272-27.21588134z m854.59350586-1e-8V334.91137695a27.21588135 27.21588135 0 0 0-21.65405274-27.21588135L933.41609699 236.87487793 914.43172199 141.58221435h335.34118653c89.65667724 0 162.25708008 73.11950684 162.25708007 163.36944581V702.58532715c0 90.24993896-72.67456055 163.3694458-162.25708007 163.3694458H914.43172199l18.984375-95.29266357 292.03308106-70.82061768a27.21588135 27.21588135 0 0 0 21.65405273-27.21588134z" fill="#323231" p-id="1810"></path><path d="M662.96291095 471.06494141h321.84448243V512h-321.84448243z" fill="#323231" p-id="1811"></path></svg>