<?xml version="1.0" encoding="utf-8"?>
<!-- Generator: Adobe Illustrator 19.2.1, SVG Export Plug-In . SVG Version: 6.00 Build 0)  -->
<svg version="1.1" id="Layer_1" xmlns="http://www.w3.org/2000/svg" xmlns:xlink="http://www.w3.org/1999/xlink" x="0px" y="0px"
	 viewBox="0 0 400 400" style="enable-background:new 0 0 400 400;" xml:space="preserve">
<style type="text/css">
	.st0{fill:#F8982A;}
	.st1{fill:#FFFFFF;}
</style>
<g id="_x36_X8yJS_1_">
	
		<image style="overflow:visible;" width="275" height="183" id="_x36_X8yJS" xlink:href="AA5C47F79F943CAC.jpg"  transform="matrix(1 0 0 1 -471 52)">
	</image>
</g>
<g>
	<path class="st0" d="M334.7,24.5C246.8-2,153.2-2,65.3,24.5c-17,5.1-35.7,23.8-40.9,40.9C-2,153.2-2,246.8,24.5,334.7
		c5.1,17,23.8,35.7,40.9,40.9c87.8,26.4,181.5,26.4,269.3,0c17-5.1,35.7-23.8,40.9-40.9c26.4-87.8,26.4-181.5,0-269.3
		C370.4,48.3,351.7,29.6,334.7,24.5z"/>
	<g>
		<path class="st1" d="M323.2,164.1c-29.6,0-65.9,35.9-65.9,35.9s33.8,35.9,65.9,35.9c19.8,0,35.9-16.1,35.9-35.9
			S343,164.1,323.2,164.1z"/>
		<path class="st1" d="M233.7,244.7c-3.8,1.8-8.9,17.5-9.6,36.3c-5.3,1.8-57.2,18.3-57.2-3.9c0-27.9,89.8-55.2,55.5-96.7
			c-35.6-43-58.7,34.9-115.9-7.3l0,0c-6.9-7-16.6-11.4-27.2-11.4c-21.1,0-38.3,17.1-38.3,38.3s17.1,38.3,38.3,38.3
			c13.5,0,25.4-7,32.2-17.7c24.8-18.2,54.2-22.9,61.4-5.3c11.8,29.1-105.3,56.4-68.8,107.4c36.5,51,105.2-39.8,120.5-25.8v0
			c1,9.3,3.3,18.7,7.5,26.9c9.6,18.6,32.4,25.8,51,16.2c18.6-9.6,25.8-32.4,16.2-51C284.9,261.3,240.5,241.6,233.7,244.7z"/>
		<path class="st1" d="M137.7,132.3c0.7,0,1.4,0,2.1-0.1c29.4-1.2,33.6-27.6,62-27.6c28.4,0,25.9,26.5,56.8,27.6
			c0.7,0,1.3,0.1,2,0.1c21.1,0,38.3-17.1,38.3-38.3s-17.1-38.3-38.3-38.3c-0.8,0-1.6,0-2.4,0.1c-0.1,0-0.3,0-0.4,0
			c-5.3,0.4-10.2,1.8-14.7,4.1c-16.9,8.2-28.7,25.3-41.4,25.3c-13,0-29.2-18.1-47.8-25.9c-4.9-2.3-10.4-3.6-16.2-3.6
			c-21.1,0-38.3,17.1-38.3,38.3S116.6,132.3,137.7,132.3z"/>
	</g>
</g>
</svg>
