<?xml version="1.0" encoding="utf-8"?>
<!-- Generator: Adobe Illustrator 18.1.1, SVG Export Plug-In . SVG Version: 6.00 Build 0)  -->
<svg version="1.1" id="Layer_1" xmlns="http://www.w3.org/2000/svg" xmlns:xlink="http://www.w3.org/1999/xlink" x="0px" y="0px"
	 viewBox="0 0 100 100" enable-background="new 0 0 100 100" xml:space="preserve">
<g id="Layer_1_1_">
	<g>
		<polygon fill="#F58536" points="30.7,58 23.7,59.5 23.7,14.4 30.7,16 		"/>
		<polygon fill="#F58536" points="39.4,60.6 30.7,63.1 30.7,10.9 39.4,13.4 		"/>
		<polygon fill="#F58536" points="50.5,63.4 39.4,67.4 39.4,6.6 50.5,10.7 		"/>
		<polygon fill="#F58536" points="80.3,58.1 50.5,73 50.5,1 80.3,15.9 		"/>
		<polygon fill="#9D5025" points="44.6,4 50.5,1 50.5,73 44.6,70 		"/>
		<polygon fill="#9D5025" points="34.8,8.9 39.4,6.6 39.4,67.4 34.8,65.1 		"/>
		<polygon fill="#9D5025" points="27,12.8 30.7,10.9 30.7,63.1 27,61.2 		"/>
		<polygon fill="#9D5025" points="23.7,14.4 20.7,15.9 20.7,58.1 23.7,59.6 		"/>
	</g>
</g>
<g>
	<rect x="0.1" y="76" fill="none" width="100" height="24"/>
	<path fill="#394D54" d="M3.5,88.9H1.6l5.2-12h1.5l5.2,12h-1.9l-1.2-3H4.7L3.5,88.9z M5.3,84.4h4.5l-2.2-5.6L5.3,84.4z"/>
	<path fill="#394D54" d="M19.5,86.7L19.5,86.7l2.7-7.1h2v9.2H23v-7.7h0l-3.1,7.7h-0.8l-3-7.7h0v7.7h-1.2v-9.2h2L19.5,86.7z"/>
	<path fill="#394D54" d="M26.9,88.9h-1.4l4-9.2h1.2l4,9.2h-1.5l-0.9-2.3h-4.4L26.9,88.9z M28.2,85.5h3.4L30,81.1L28.2,85.5z"/>
	<path fill="#394D54" d="M41.8,80.8l-5.2,6.9h5.3v1.1H35v-1.1l5.2-6.9h-5.1v-1.1h6.7V80.8z"/>
	<path fill="#394D54" d="M52.4,84.2c0,0.7-0.1,1.4-0.4,2c-0.2,0.6-0.6,1.1-1,1.5c-0.4,0.4-0.9,0.8-1.5,1s-1.2,0.4-1.9,0.4
		c-0.7,0-1.4-0.1-1.9-0.4s-1.1-0.6-1.5-1c-0.4-0.4-0.8-0.9-1-1.5c-0.2-0.6-0.4-1.2-0.4-2c0-0.7,0.1-1.4,0.4-2c0.2-0.6,0.6-1.1,1-1.5
		c0.4-0.4,0.9-0.7,1.5-1s1.2-0.4,1.9-0.4c0.7,0,1.4,0.1,1.9,0.4s1.1,0.6,1.5,1c0.4,0.4,0.8,0.9,1,1.5C52.3,82.9,52.4,83.5,52.4,84.2
		z M51,84.2c0-0.5-0.1-1-0.2-1.4c-0.2-0.4-0.4-0.8-0.7-1.2c-0.3-0.3-0.7-0.6-1.1-0.8c-0.4-0.2-0.9-0.3-1.4-0.3c-0.5,0-1,0.1-1.4,0.3
		c-0.4,0.2-0.8,0.5-1.1,0.8c-0.3,0.3-0.5,0.7-0.7,1.2c-0.2,0.4-0.2,0.9-0.2,1.4c0,0.5,0.1,1,0.2,1.4c0.2,0.5,0.4,0.8,0.7,1.2
		c0.3,0.3,0.7,0.6,1.1,0.8c0.4,0.2,0.9,0.3,1.4,0.3c0.5,0,1-0.1,1.4-0.3c0.4-0.2,0.8-0.5,1.1-0.8c0.3-0.3,0.5-0.7,0.7-1.2
		C50.9,85.2,51,84.7,51,84.2z"/>
	<path fill="#394D54" d="M60.6,87L60.6,87l0-7.4h1.3v9.2h-1.6l-4.9-7.5h0v7.5h-1.3v-9.2h1.7L60.6,87z"/>
	<path fill="#394D54" d="M69.5,87.4h6.3v1.5h-8v-12h7.7v1.5h-6v3.6h5.7v1.4h-5.7V87.4z"/>
	<path fill="#394D54" d="M88.3,87c-0.5,0.6-1.1,1.2-1.9,1.6c-0.8,0.4-1.7,0.6-2.7,0.6c-0.9,0-1.8-0.2-2.5-0.5s-1.4-0.7-2-1.3
		c-0.6-0.6-1-1.2-1.3-2s-0.5-1.6-0.5-2.6c0-0.9,0.2-1.8,0.5-2.6c0.3-0.8,0.8-1.4,1.3-2s1.2-1,2-1.3c0.8-0.3,1.6-0.5,2.5-0.5
		c0.4,0,0.8,0,1.2,0.1s0.8,0.2,1.2,0.4c0.4,0.2,0.7,0.4,1.1,0.6s0.6,0.5,0.8,0.8l-1.3,1c-0.3-0.4-0.7-0.7-1.2-1
		C85,78.1,84.4,78,83.8,78c-0.7,0-1.3,0.1-1.9,0.4c-0.6,0.3-1,0.6-1.4,1c-0.4,0.4-0.7,1-0.9,1.5c-0.2,0.6-0.3,1.2-0.3,1.9
		c0,0.7,0.1,1.3,0.3,1.9c0.2,0.6,0.5,1.1,0.9,1.5c0.4,0.4,0.9,0.8,1.4,1c0.6,0.2,1.2,0.4,1.9,0.4c0.7,0,1.3-0.1,1.9-0.4
		c0.6-0.3,1-0.7,1.4-1.2L88.3,87z"/>
	<path fill="#394D54" d="M97.4,88.9h-7.9v-1.6l4.8-4.8c0.4-0.4,0.7-0.8,0.9-1.2c0.3-0.4,0.4-0.9,0.4-1.4c0-0.3-0.1-0.6-0.2-0.9
		c-0.1-0.3-0.3-0.5-0.5-0.7c-0.2-0.2-0.4-0.3-0.7-0.4s-0.5-0.1-0.8-0.1c-0.6,0-1.1,0.2-1.5,0.6c-0.4,0.4-0.6,0.9-0.7,1.5l-1.6-0.3
		c0.1-0.5,0.2-0.9,0.4-1.3c0.2-0.4,0.5-0.7,0.8-1c0.3-0.3,0.7-0.5,1.2-0.7c0.4-0.2,0.9-0.2,1.4-0.2c0.5,0,1,0.1,1.4,0.2
		s0.9,0.4,1.2,0.6s0.6,0.6,0.8,1.1c0.2,0.4,0.3,0.9,0.3,1.5c0,0.4-0.1,0.7-0.2,1.1c-0.1,0.3-0.2,0.6-0.4,0.9
		c-0.2,0.3-0.4,0.6-0.6,0.8c-0.2,0.3-0.5,0.5-0.7,0.8l-3.9,3.8h5.9V88.9z"/>
</g>
<g>
</g>
<g>
</g>
<g>
</g>
<g>
</g>
<g>
</g>
<g>
</g>
<g>
</g>
<g>
</g>
<g>
</g>
<g>
</g>
<g>
</g>
<g>
</g>
<g>
</g>
<g>
</g>
<g>
</g>
</svg>
