<?xml version="1.0" encoding="utf-8"?>
<!-- Generator: Adobe Illustrator 19.2.1, SVG Export Plug-In . SVG Version: 6.00 Build 0)  -->
<svg version="1.1" id="Layer_1" xmlns="http://www.w3.org/2000/svg" xmlns:xlink="http://www.w3.org/1999/xlink" x="0px" y="0px"
	 viewBox="0 0 100 100" style="enable-background:new 0 0 100 100;" xml:space="preserve">
<style type="text/css">
	.st0{fill:#F58536;}
	.st1{fill:#9D5025;}
</style>
<g id="Layer_1_1_">
	<g>
		<polygon class="st0" points="23.2,78.4 13.8,80.4 13.8,19.4 23.2,21.6 		"/>
		<polygon class="st0" points="35,81.9 23.2,85.3 23.2,14.7 35,18.1 		"/>
		<polygon class="st0" points="50,85.7 35,91.1 35,8.9 50,14.4 		"/>
		<polygon class="st0" points="90.3,78.5 50,98.7 50,1.3 90.3,21.5 		"/>
		<polygon class="st1" points="42,5.4 50,1.3 50,98.7 42,94.6 		"/>
		<polygon class="st1" points="28.8,12 35,8.9 35,91.1 28.8,88 		"/>
		<polygon class="st1" points="18.2,17.3 23.2,14.7 23.2,85.3 18.2,82.7 		"/>
		<polygon class="st1" points="13.8,19.4 9.7,21.5 9.7,78.5 13.8,80.6 		"/>
	</g>
</g>
</svg>
