<?xml version="1.0" encoding="utf-8"?>
<!-- Generator: Adobe Illustrator 22.1.0, SVG Export Plug-In . SVG Version: 6.00 Build 0)  -->
<svg version="1.1" id="Layer_1" xmlns="http://www.w3.org/2000/svg" xmlns:xlink="http://www.w3.org/1999/xlink" x="0px" y="0px"
	 viewBox="0 0 100 100" style="enable-background:new 0 0 100 100;" xml:space="preserve">
<style type="text/css">
	.st0{fill:#F58536;}
	.st1{fill:#9D5025;}
</style>
<g id="Layer_1-2">
	<polygon class="st0" points="36.2,64.6 31.4,65.6 31.4,34.3 36.2,35.4 	"/>
	<polygon class="st0" points="42.3,66.4 36.2,68.1 36.2,31.9 42.3,33.6 	"/>
	<polygon class="st0" points="50,68.3 42.3,71.1 42.3,28.9 50,31.7 	"/>
	<polygon class="st0" points="70.7,64.6 50,75 50,25 70.7,35.4 	"/>
	<polygon class="st1" points="45.9,27.1 50,25 50,75 45.9,72.9 	"/>
	<polygon class="st1" points="39.1,30.5 42.3,28.9 42.3,71.1 39.1,69.5 	"/>
	<polygon class="st1" points="33.7,33.2 36.2,31.9 36.2,68.1 33.7,66.8 	"/>
	<polygon class="st1" points="31.4,34.3 29.3,35.4 29.3,64.6 31.4,65.7 	"/>
</g>
</svg>
