<?xml version="1.0" encoding="utf-8"?>
<!-- Generator: Adobe Illustrator 18.1.1, SVG Export Plug-In . SVG Version: 6.00 Build 0)  -->
<svg version="1.1" id="Layer_1" xmlns="http://www.w3.org/2000/svg" xmlns:xlink="http://www.w3.org/1999/xlink" x="0px" y="0px"
	 viewBox="0 0 100 100" enable-background="new 0 0 100 100" xml:space="preserve">
<g id="Layer_1_1_">
	<g>
		<polygon fill="#F58536" points="30.7,58 23.7,59.5 23.7,14.4 30.7,16 		"/>
		<polygon fill="#F58536" points="39.4,60.6 30.7,63.1 30.7,10.9 39.4,13.4 		"/>
		<polygon fill="#F58536" points="50.5,63.4 39.4,67.4 39.4,6.6 50.5,10.7 		"/>
		<polygon fill="#F58536" points="80.3,58.1 50.5,73 50.5,1 80.3,15.9 		"/>
		<polygon fill="#9D5025" points="44.6,4 50.5,1 50.5,73 44.6,70 		"/>
		<polygon fill="#9D5025" points="34.8,8.9 39.4,6.6 39.4,67.4 34.8,65.1 		"/>
		<polygon fill="#9D5025" points="27,12.8 30.7,10.9 30.7,63.1 27,61.2 		"/>
		<polygon fill="#9D5025" points="23.7,14.4 20.7,15.9 20.7,58.1 23.7,59.6 		"/>
	</g>
</g>
<g>
	<rect x="0.1" y="76" fill="none" width="100" height="24"/>
	<path fill="#394D54" d="M6.3,76.8h1.9l5.2,12h-2.4l-1.1-2.8H4.6l-1.1,2.8H1.1L6.3,76.8z M9,84.3l-1.9-4.9l-1.9,4.9H9z"/>
	<path fill="#394D54" d="M14.2,79.6h2.6l2.4,6.5h0l2.4-6.5h2.6v9.2h-1.6v-7.4h0l-2.8,7.4h-1.1l-2.8-7.4h0v7.4h-1.6V79.6z"/>
	<path fill="#394D54" d="M29.1,79.6h1.4l4,9.2h-1.9l-0.9-2.1h-4l-0.8,2.1h-1.8L29.1,79.6z M31.2,85.3l-1.4-3.7l-1.4,3.7H31.2z"/>
	<path fill="#394D54" d="M34.8,87.4l5-6.3h-4.9v-1.4h6.9v1.5l-5,6.3h5.1v1.5h-7V87.4z"/>
	<path fill="#394D54" d="M42.6,84.2c0-0.7,0.1-1.4,0.4-2s0.6-1.1,1-1.5c0.4-0.4,1-0.7,1.6-1c0.6-0.2,1.3-0.3,2-0.3
		c0.7,0,1.4,0.1,2,0.3c0.6,0.2,1.1,0.5,1.6,1c0.4,0.4,0.8,0.9,1,1.5s0.4,1.3,0.4,2c0,0.7-0.1,1.4-0.4,2s-0.6,1.1-1,1.5
		c-0.4,0.4-1,0.8-1.6,1c-0.6,0.2-1.3,0.4-2,0.4c-0.7,0-1.4-0.1-2-0.4c-0.6-0.2-1.1-0.6-1.6-1c-0.4-0.4-0.8-0.9-1-1.5
		S42.6,84.9,42.6,84.2z M44.3,84.2c0,0.5,0.1,0.9,0.2,1.4c0.2,0.4,0.4,0.8,0.6,1.1c0.3,0.3,0.6,0.5,1,0.7s0.8,0.3,1.3,0.3
		c0.5,0,0.9-0.1,1.3-0.3c0.4-0.2,0.7-0.4,1-0.7c0.3-0.3,0.5-0.7,0.6-1.1c0.2-0.4,0.2-0.9,0.2-1.4c0-0.5-0.1-0.9-0.2-1.3
		c-0.2-0.4-0.4-0.8-0.6-1.1c-0.3-0.3-0.6-0.5-1-0.7c-0.4-0.2-0.8-0.3-1.3-0.3c-0.5,0-0.9,0.1-1.3,0.3c-0.4,0.2-0.7,0.4-1,0.7
		c-0.3,0.3-0.5,0.7-0.6,1.1C44.4,83.3,44.3,83.7,44.3,84.2z"/>
	<path fill="#394D54" d="M54,79.6h2.2l4.3,6.9h0v-6.9h1.6v9.2h-2.1l-4.4-7.1h0v7.1H54V79.6z"/>
	<path fill="#394D54" d="M67.7,76.8h8v1.9h-5.8v3.1h5.5v1.8h-5.5v3.4H76v1.9h-8.3V76.8z"/>
	<path fill="#394D54" d="M86.8,79.6c-0.3-0.4-0.7-0.7-1.2-0.9c-0.5-0.2-1-0.3-1.5-0.3c-0.6,0-1.2,0.1-1.7,0.3
		c-0.5,0.2-0.9,0.5-1.3,0.9c-0.4,0.4-0.7,0.9-0.9,1.4c-0.2,0.5-0.3,1.1-0.3,1.7c0,0.7,0.1,1.3,0.3,1.8c0.2,0.5,0.5,1,0.8,1.4
		c0.4,0.4,0.8,0.7,1.3,0.9c0.5,0.2,1.1,0.3,1.7,0.3c0.6,0,1.2-0.1,1.7-0.4c0.5-0.3,0.9-0.6,1.2-1l1.7,1.2c-0.5,0.7-1.2,1.2-2,1.6
		S85,89.2,84,89.2c-0.9,0-1.8-0.2-2.6-0.5c-0.8-0.3-1.5-0.7-2-1.3c-0.6-0.6-1-1.2-1.3-2s-0.5-1.6-0.5-2.6c0-1,0.2-1.8,0.5-2.6
		c0.3-0.8,0.8-1.4,1.4-2c0.6-0.5,1.3-1,2.1-1.3c0.8-0.3,1.7-0.4,2.6-0.4c0.4,0,0.8,0,1.2,0.1c0.4,0.1,0.8,0.2,1.2,0.3
		c0.4,0.2,0.7,0.3,1.1,0.6c0.3,0.2,0.6,0.5,0.9,0.8L86.8,79.6z"/>
	<path fill="#394D54" d="M89.8,87l4.6-4.6c0.4-0.4,0.7-0.7,0.9-1.1c0.2-0.4,0.3-0.8,0.3-1.3c0-0.6-0.2-1-0.6-1.4
		c-0.4-0.3-0.8-0.5-1.4-0.5c-0.6,0-1,0.2-1.4,0.6c-0.4,0.4-0.6,0.9-0.6,1.5l-2-0.3c0.1-0.5,0.2-1,0.4-1.4c0.2-0.4,0.5-0.8,0.9-1.1
		c0.4-0.3,0.8-0.5,1.2-0.7s1-0.3,1.5-0.3c0.5,0,1,0.1,1.5,0.2s0.9,0.4,1.3,0.7c0.4,0.3,0.7,0.7,0.9,1.1c0.2,0.4,0.3,0.9,0.3,1.5
		c0,0.4-0.1,0.7-0.2,1.1c-0.1,0.3-0.2,0.6-0.4,0.9s-0.4,0.6-0.6,0.8c-0.2,0.3-0.5,0.5-0.8,0.8L92.4,87h5.4v1.9h-8V87z"/>
</g>
<g>
</g>
<g>
</g>
<g>
</g>
<g>
</g>
<g>
</g>
<g>
</g>
<g>
</g>
<g>
</g>
<g>
</g>
<g>
</g>
<g>
</g>
<g>
</g>
<g>
</g>
<g>
</g>
<g>
</g>
</svg>
