<svg id="Layer_1" data-name="Layer 1" xmlns="http://www.w3.org/2000/svg" viewBox="0 0 100 100"><defs><style>.cls-1{fill:#f58536;}.cls-2{fill:#9d5025;}</style></defs><g id="Layer_1-2" data-name="Layer 1"><polygon class="cls-1" points="36.61 54.1 31.78 55.12 31.78 23.81 36.61 24.94 36.61 54.1"/><polygon class="cls-1" points="42.66 55.89 36.61 57.64 36.61 21.39 42.66 23.14 42.66 55.89"/><polygon class="cls-1" points="50.36 57.84 42.66 60.62 42.66 18.42 50.36 21.24 50.36 57.84"/><polygon class="cls-1" points="71.05 54.15 50.36 64.52 50.36 14.52 71.05 24.89 71.05 54.15"/><polygon class="cls-2" points="46.26 16.62 50.36 14.52 50.36 64.52 46.26 62.41 46.26 16.62"/><polygon class="cls-2" points="39.48 20.01 42.66 18.42 42.66 60.62 39.48 59.02 39.48 20.01"/><polygon class="cls-2" points="34.04 22.73 36.61 21.39 36.61 57.64 34.04 56.3 34.04 22.73"/><polygon class="cls-2" points="31.78 23.81 29.68 24.89 29.68 54.15 31.78 55.23 31.78 23.81"/></g><path class="cls-1" d="M18.14,85.35l-1.21-3.09H13l-1.2,3.09H10.69l3.85-9.77h1l3.83,9.77H18.14Zm-1.56-4.11-1.13-3q-0.22-.57-0.45-1.4a12.39,12.39,0,0,1-.42,1.4l-1.14,3h3.15Z"/><path class="cls-1" d="M29.78,85.35V80.61a2,2,0,0,0-.37-1.31,1.44,1.44,0,0,0-1.16-.44,1.87,1.87,0,0,0-1.52.59,2.81,2.81,0,0,0-.49,1.82v4.07h-1.1V80.61a2,2,0,0,0-.37-1.31,1.45,1.45,0,0,0-1.16-.44,1.81,1.81,0,0,0-1.52.62,3.38,3.38,0,0,0-.48,2v3.83h-1.1V78.06h0.9l0.18,1h0.05a2.18,2.18,0,0,1,.88-0.83,2.7,2.7,0,0,1,1.27-.3A2.17,2.17,0,0,1,26,79.16h0.05a2.32,2.32,0,0,1,.94-0.9,2.93,2.93,0,0,1,1.41-.33,2.46,2.46,0,0,1,1.85.64,2.84,2.84,0,0,1,.62,2v4.76h-1.1Z"/><path class="cls-1" d="M37.65,85.35l-0.22-1H37.37a3.09,3.09,0,0,1-1.09.93,3.33,3.33,0,0,1-1.35.24,2.44,2.44,0,0,1-1.7-.56,2,2,0,0,1-.61-1.59q0-2.21,3.53-2.32l1.24,0V80.53A1.86,1.86,0,0,0,37,79.26a1.53,1.53,0,0,0-1.18-.41,4.81,4.81,0,0,0-2.06.56l-0.34-.84a5.3,5.3,0,0,1,2.47-.63,2.77,2.77,0,0,1,1.93.58,2.41,2.41,0,0,1,.63,1.86v5H37.65Zm-2.5-.78A2.24,2.24,0,0,0,36.77,84a2.09,2.09,0,0,0,.59-1.58V81.76l-1.1,0a4,4,0,0,0-1.9.41,1.23,1.23,0,0,0-.58,1.13,1.14,1.14,0,0,0,.36.91A1.5,1.5,0,0,0,35.15,84.57Z"/><path class="cls-1" d="M45.4,85.35H40.11V84.6l4-5.68H40.36V78.06H45.3v0.86l-3.93,5.58h4v0.86Z"/><path class="cls-1" d="M53.41,81.7a4,4,0,0,1-.9,2.79,3.17,3.17,0,0,1-2.48,1A3.29,3.29,0,0,1,48.29,85a3,3,0,0,1-1.17-1.32,4.6,4.6,0,0,1-.41-2,4,4,0,0,1,.89-2.78,3.16,3.16,0,0,1,2.48-1,3.08,3.08,0,0,1,2.43,1A4,4,0,0,1,53.41,81.7Zm-5.55,0a3.46,3.46,0,0,0,.56,2.13,1.94,1.94,0,0,0,1.64.73,2,2,0,0,0,1.65-.73,3.45,3.45,0,0,0,.56-2.13,3.38,3.38,0,0,0-.56-2.11A2,2,0,0,0,50,78.86a1.94,1.94,0,0,0-1.64.71A3.43,3.43,0,0,0,47.85,81.7Z"/><path class="cls-1" d="M60.33,85.35V80.63a1.9,1.9,0,0,0-.41-1.33,1.65,1.65,0,0,0-1.27-.44,2.09,2.09,0,0,0-1.68.62,3.13,3.13,0,0,0-.53,2v3.83h-1.1V78.06h0.9l0.18,1h0.05a2.26,2.26,0,0,1,1-.84,3.11,3.11,0,0,1,1.37-.3,2.77,2.77,0,0,1,2,.64,2.7,2.7,0,0,1,.67,2v4.76h-1.1Z"/><path class="cls-1" d="M72.83,85.35H67.41V75.62h5.42v1H68.54v3.13h4v1h-4v3.58h4.29v1Z"/><path class="cls-1" d="M79.16,76.49a3.18,3.18,0,0,0-2.53,1.07,4.31,4.31,0,0,0-.93,2.92,4.39,4.39,0,0,0,.89,3,3.18,3.18,0,0,0,2.55,1,8.73,8.73,0,0,0,2.32-.37v1a7.15,7.15,0,0,1-2.49.38,4.23,4.23,0,0,1-3.32-1.3,5.38,5.38,0,0,1-1.17-3.71A5.85,5.85,0,0,1,75,77.84a4,4,0,0,1,1.62-1.74,4.9,4.9,0,0,1,2.5-.61,6,6,0,0,1,2.68.56l-0.48,1A5.16,5.16,0,0,0,79.16,76.49Z"/><path class="cls-1" d="M89.31,85.35H82.92v-1l2.56-2.57A18.45,18.45,0,0,0,87,80.13a4.17,4.17,0,0,0,.56-1,2.8,2.8,0,0,0,.19-1,1.64,1.64,0,0,0-.47-1.23A1.81,1.81,0,0,0,86,76.43a3.3,3.3,0,0,0-1.15.2,4.55,4.55,0,0,0-1.21.73L83,76.6A4.48,4.48,0,0,1,86,75.48a3.09,3.09,0,0,1,2.15.7,2.42,2.42,0,0,1,.78,1.89,3.65,3.65,0,0,1-.52,1.83,11.59,11.59,0,0,1-1.94,2.29L84.3,84.27v0.05h5v1Z"/></svg>