<?xml version="1.0" encoding="utf-8"?>
<!-- Generator: Adobe Illustrator 19.1.0, SVG Export Plug-In . SVG Version: 6.00 Build 0)  -->
<svg version="1.1" id="Layer_1" xmlns="http://www.w3.org/2000/svg" xmlns:xlink="http://www.w3.org/1999/xlink" x="0px" y="0px"
	 viewBox="0 0 100 100" style="enable-background:new 0 0 100 100;" xml:space="preserve">
<style type="text/css">
	.st0{fill:none;}
	.st1{fill:#0DADEA;}
	.st2{fill:#00ADEF;}
</style>
<g>
	<path class="st0" d="M77,78.6c-0.8,0-1.5,0.4-2.1,1S74,81,73.8,82H80v-0.3c0-1-0.4-1.8-0.9-2.3C78.6,78.8,77.8,78.6,77,78.6z"/>
	<path class="st0" d="M25.8,74L25.8,74c-0.1,1-0.2,0.8-0.3,1.1L23.1,82h5.4L26,75.1C25.9,74.9,25.9,75,25.8,74z"/>
	<polygon class="st1" points="47,12.2 47,38 82,38 82,7.4 	"/>
	<polygon class="st1" points="47,67.2 82,72.1 82,42 47,42 	"/>
	<polygon class="st1" points="44,38 44,12.6 17.5,16.1 17.6,38 	"/>
	<polygon class="st1" points="17.5,63.4 44,66.8 44,42 17.6,42 	"/>
	<rect x="44.1" y="41.5" class="st1" width="0" height="0"/>
	<path class="st2" d="M24.2,72l-6.6,17h3.2l1.5-4h6.9l1.6,4H34l-6.5-17H24.2z M23.1,82l2.4-6.9c0.1-0.3,0.2-0.1,0.2-1.1h0
		c0.1,1,0.2,0.9,0.2,1.1l2.4,6.9H23.1z"/>
	<polygon class="st2" points="35,79 41.5,79 35,88.1 35,89 45,89 45,87 38.6,87 45,78 45,77 35,77 	"/>
	<path class="st2" d="M56,83.9c0,1-0.3,1.8-0.9,2.4c-0.5,0.6-1.5,0.9-2.3,0.9c-1.7,0-2.8-1.1-2.8-3.3V77h-2v7.2
		c0,3.5,1.3,5.2,4.2,5.2c1.7,0,2.8-0.3,3.6-2.3H56v2h2.7l0-12H56V83.9z"/>
	<path class="st2" d="M68.6,76.6c-0.7,0-1.4,0.1-1.9,0.6c-0.6,0.5-1,0.9-1.3,1.9H65v-2h-3v12h3v-5.8c0-1.3,0.4-2.3,1-3.1
		c0.6-0.7,1.3-1.1,2.2-1.1c0.6,0,1.2,0.1,1.5,0.4l0-2.7C69.4,76.6,69.1,76.6,68.6,76.6z"/>
	<path class="st2" d="M77,76.5c-1.7,0-3.2,0.6-4.3,1.8C71.5,79.5,71,81.1,71,83c0,2,0.5,3.6,1.6,4.7s2.3,1.7,4.1,1.7
		c1.9,0,3.3-0.4,4.3-1.1v-2.3c-1,0.8-2.1,1.2-3.5,1.2c-1.2,0-2-0.2-2.7-0.8c-0.7-0.6-0.9-1.5-1-2.5h8.6l0-1.2c0-1.9-0.5-3.5-1.4-4.6
		C80.1,77.1,78.7,76.5,77,76.5z M80,82h-6.2c0.1-1,0.5-1.8,1-2.4s1.3-0.9,2.1-0.9c0.8,0,1.7,0.2,2.1,0.8c0.5,0.6,0.9,1.3,0.9,2.3V82
		z"/>
</g>
</svg>
