<svg id="Layer_1" data-name="Layer 1" xmlns="http://www.w3.org/2000/svg" viewBox="0 0 100 100"><defs><style>.cls-1{fill:#00aaf2;}</style></defs><path class="cls-1" d="M73.66,52.61c0,3.5,0,7,0,10.52,0,1.2-.36,1.46-1.53,1.29-7.86-1.17-15.74-2.28-23.62-3.35-1.41-.19-1.94-0.69-1.92-2.23,0.1-5.61.07-11.24,0-16.84,0-1.25.38-1.58,1.61-1.58q11.93,0.07,23.86,0c1.27,0,1.61.5,1.61,1.65C73.62,45.59,73.64,49.09,73.66,52.61Z"/><path class="cls-1" d="M60.25,38.36c-4,0-8,0-11.93,0-1.22,0-1.75-.29-1.72-1.68,0.07-5.68.07-11.33,0-17A1.37,1.37,0,0,1,48,18c8.15-1.15,16.29-2.35,24.44-3.55,1.44-.22,1.17.79,1.17,1.53q0,7.62,0,15.26c0,1.87,0,3.74,0,5.61,0,1.15-.38,1.51-1.51,1.51C68.18,38.34,64.23,38.36,60.25,38.36Z"/><path class="cls-1" d="M33.9,40.47c3,0,6,0,8.94,0a1.1,1.1,0,0,1,1.37,1.29q0,8.77,0,17.54c0,1-.48,1.13-1.34,1-5.89-.86-11.79-1.72-17.7-2.54A1.49,1.49,0,0,1,23.6,56c0.07-4.67.07-9.34,0-14,0-1.15.34-1.51,1.49-1.49C28.05,40.52,31,40.47,33.9,40.47Z"/><path class="cls-1" d="M33.9,38.36c-2.92,0-5.85,0-8.77,0-1.13,0-1.51-.36-1.49-1.53,0-4.62,0-9.22,0-13.85a1.36,1.36,0,0,1,1.44-1.65c5.89-.79,11.79-1.61,17.66-2.56,1.37-.22,1.49.29,1.49,1.32,0,5.61,0,11.21,0,16.82,0,1.22-.53,1.44-1.58,1.41Z"/><path class="cls-1" d="M12.82,81.23c-0.07-1.32-.15-2.9-0.14-4.08h0c-0.32,1.11-.71,2.28-1.19,3.59L9.78,85.32H8.86l-1.53-4.5c-0.45-1.33-.83-2.55-1.09-3.67h0c0,1.18-.1,2.76-0.18,4.17l-0.25,4H4.61l0.66-9.44H6.82L8.44,80.5c0.39,1.16.71,2.2,1,3.18h0c0.24-1,.57-2,1-3.18l1.68-4.57h1.55l0.59,9.44H13.06Z"/><path class="cls-1" d="M17.62,76.69a0.76,0.76,0,0,1-1.53,0,0.75,0.75,0,0,1,.77-0.77A0.73,0.73,0,0,1,17.62,76.69Zm-1.37,8.68V78.6h1.23v6.78H16.25Z"/><path class="cls-1" d="M24.35,85.12a4.55,4.55,0,0,1-1.95.39A3.22,3.22,0,0,1,19,82.06a3.44,3.44,0,0,1,3.64-3.6,4.11,4.11,0,0,1,1.71.35l-0.28,1a2.86,2.86,0,0,0-1.43-.32,2.56,2.56,0,0,0,0,5.1,3.5,3.5,0,0,0,1.51-.34Z"/><path class="cls-1" d="M25.79,80.71c0-.8,0-1.48-0.06-2.12h1.08l0,1.33h0.06a2,2,0,0,1,1.88-1.48,1.32,1.32,0,0,1,.35,0v1.16a1.83,1.83,0,0,0-.42,0,1.73,1.73,0,0,0-1.65,1.58,3.55,3.55,0,0,0-.06.57v3.61H25.79V80.71Z"/><path class="cls-1" d="M36.37,81.93A3.31,3.31,0,0,1,33,85.53,3.22,3.22,0,0,1,29.74,82a3.31,3.31,0,0,1,3.36-3.6A3.21,3.21,0,0,1,36.37,81.93ZM31,82c0,1.48.85,2.61,2.06,2.61S35.11,83.5,35.11,82c0-1.15-.57-2.61-2-2.61S31,80.71,31,82Z"/><path class="cls-1" d="M37.75,84.12a3.23,3.23,0,0,0,1.63.49,1.09,1.09,0,0,0,1.32-1c0-.59-0.35-0.91-1.26-1.25-1.22-.43-1.79-1.11-1.79-1.92a2.09,2.09,0,0,1,2.34-2,3.39,3.39,0,0,1,1.67.42l-0.31.9a2.64,2.64,0,0,0-1.39-.39,1,1,0,0,0-1.13.92c0,0.56.41,0.81,1.29,1.15,1.18,0.45,1.78,1,1.78,2,0,1.19-.92,2-2.54,2a3.87,3.87,0,0,1-1.91-.46Z"/><path class="cls-1" d="M49.6,81.93a3.31,3.31,0,0,1-3.38,3.6A3.22,3.22,0,0,1,43,82a3.31,3.31,0,0,1,3.36-3.6A3.21,3.21,0,0,1,49.6,81.93ZM44.22,82c0,1.48.85,2.61,2.06,2.61S48.34,83.5,48.34,82c0-1.15-.57-2.61-2-2.61S44.22,80.71,44.22,82Z"/><path class="cls-1" d="M51.27,85.38V79.53h-1V78.6h1V78.27a3.2,3.2,0,0,1,.78-2.37,2.36,2.36,0,0,1,1.65-.63,2.86,2.86,0,0,1,1.05.2l-0.17,1a1.85,1.85,0,0,0-.79-0.15c-1,0-1.32.92-1.32,2V78.6h1.64v0.94H52.49v5.84H51.27Z"/><path class="cls-1" d="M56.87,76.65V78.6h1.76v0.94H56.87v3.66c0,0.84.24,1.32,0.92,1.32a2.75,2.75,0,0,0,.71-0.08l0.06,0.92a3,3,0,0,1-1.09.17A1.71,1.71,0,0,1,56.14,85a2.51,2.51,0,0,1-.48-1.76v-3.7H54.62V78.6h1.05V77Z"/><path class="cls-1" d="M64.56,82.41l-1,3H62.32l3.21-9.44H67l3.22,9.44h-1.3l-1-3H64.56Zm3.1-1-0.92-2.72c-0.21-.62-0.35-1.18-0.49-1.72h0c-0.14.56-.29,1.13-0.48,1.71l-0.92,2.73h2.84Z"/><path class="cls-1" d="M71,84.66l3.07-4c0.29-.36.58-0.69,0.88-1.05v0H71.26v-1h5.17v0.77l-3,3.94c-0.28.38-.56,0.71-0.87,1.06v0h4v1H71V84.66Z"/><path class="cls-1" d="M83.42,83.53c0,0.7,0,1.32.06,1.85H82.38l-0.07-1.11h0A2.55,2.55,0,0,1,80,85.53c-1.06,0-2.34-.59-2.34-3v-4h1.23v3.75c0,1.29.39,2.16,1.51,2.16a1.73,1.73,0,0,0,1.74-1.75V78.6h1.23v4.93Z"/><path class="cls-1" d="M85.46,80.71c0-.8,0-1.48-0.06-2.12h1.08l0,1.33h0.06a2,2,0,0,1,1.88-1.48,1.31,1.31,0,0,1,.35,0v1.16a1.83,1.83,0,0,0-.42,0,1.73,1.73,0,0,0-1.65,1.58,3.55,3.55,0,0,0-.06.57v3.61H85.46V80.71Z"/><path class="cls-1" d="M90.58,82.21a2.17,2.17,0,0,0,2.33,2.35,4.45,4.45,0,0,0,1.88-.35L95,85.1a5.48,5.48,0,0,1-2.25.42,3.15,3.15,0,0,1-3.33-3.42c0-2,1.21-3.66,3.18-3.66,2.21,0,2.8,1.95,2.8,3.19a4.73,4.73,0,0,1,0,.57H90.58Zm3.61-.88a1.76,1.76,0,0,0-1.71-2,2,2,0,0,0-1.89,2h3.6Z"/></svg>