<?xml version="1.0" encoding="utf-8"?>
<!-- Generator: Adobe Illustrator 19.2.1, SVG Export Plug-In . SVG Version: 6.00 Build 0)  -->
<svg version="1.1" id="Layer_1" xmlns="http://www.w3.org/2000/svg" xmlns:xlink="http://www.w3.org/1999/xlink" x="0px" y="0px"
	 viewBox="0 0 100 100" style="enable-background:new 0 0 100 100;" xml:space="preserve">
<style type="text/css">
	.st0{fill:#00BDF5;}
</style>
<g>
	<path class="st0" d="M54.3,37.9c-0.5,0.2-1,0.4-1.6,0.5V69c0.4,0.1,0.8,0.2,1.2,0.4l15.5-9.9c-0.3-0.9-0.5-1.8-0.5-2.8
		c0-1.5,0.4-3,1.2-4.2L54.3,37.9z"/>
	<path class="st0" d="M50,0L0.3,58.9L50,100l49.7-41.1L50,0z M76.8,64.6c-1.9,0-3.7-0.7-5-1.8l-14.6,9.3c0.9,1.3,1.5,2.9,1.5,4.6
		c0,4.4-3.6,7.9-7.9,7.9c-4.4,0-7.9-3.6-7.9-7.9c0-1.7,0.5-3.2,1.4-4.5l-15.4-9.9c-1.4,1.4-3.4,2.3-5.5,2.3c-4.4,0-7.9-3.6-7.9-7.9
		s3.6-7.9,7.9-7.9c1.7,0,3.2,0.5,4.5,1.4l16-14.8c-1.2-1.5-2-3.5-2-5.6c0-4.9,4-8.9,8.9-8.9c4.9,0,8.9,4,8.9,8.9
		c0,2.1-0.8,4.1-2,5.6L73,49.7c1.1-0.6,2.4-1,3.8-1c4.4,0,7.9,3.6,7.9,7.9S81.2,64.6,76.8,64.6z"/>
	<path class="st0" d="M30.4,53.2c0.5,1,0.8,2.2,0.8,3.5c0,0.8-0.1,1.5-0.3,2.2l16.5,10.6c0.4-0.2,0.8-0.3,1.3-0.5V38.4
		c-0.6-0.1-1.2-0.3-1.7-0.6L30.4,53.2z"/>
</g>
</svg>
