<?xml version="1.0" encoding="utf-8"?>
<!-- Generator: Adobe Illustrator 22.1.0, SVG Export Plug-In . SVG Version: 6.00 Build 0)  -->
<svg version="1.1" id="Layer_1" xmlns="http://www.w3.org/2000/svg" xmlns:xlink="http://www.w3.org/1999/xlink" x="0px" y="0px"
	 viewBox="0 0 100 100" style="enable-background:new 0 0 100 100;" xml:space="preserve">
<style type="text/css">
	.st0{fill:#996FAB;}
	.st1{fill:#7F4B96;}
</style>
<g>
	<polygon class="st0" points="48.2999992,32 48.2999992,44.0999985 55.5999985,41.2000008 55.5999985,34.7000008 	"/>
	<path class="st1" d="M41,33.7999992v8.2999992l5.7999992,2V32L41,33.7999992z M42.2999992,41.5999985l-0.9000015-0.2999992
		v-6.5999985l0.9000015-0.2999992V41.5999985z M44,42.2000008l-1.2999992-0.4000015v-7.5L44,33.8999977V42.2000008z M46,42.9000015
		l-1.5999985-0.5v-8.7000008l1.5999985-0.5V42.9000015z"/>
	<polygon class="st0" points="30.6000004,32 30.6000004,44.0999985 37.9000015,41.2000008 37.9000015,34.7000008 	"/>
	<path class="st1" d="M23.2999992,33.7999992v8.2999992l5.7999992,2V32L23.2999992,33.7999992z M24.6000004,41.5999985
		l-0.8999996-0.2999992v-6.5999985l0.8999996-0.2999992V41.5999985z M26.2999992,42.2000008L25,41.7999992v-7.5l1.2999992-0.4000015
		V42.2000008z M28.3999996,42.9000015l-1.6000004-0.5v-8.7000008l1.6000004-0.5V42.9000015z"/>
	<polygon class="st0" points="65.9000015,32 65.9000015,44.0999985 73.3000031,41.2000008 73.3000031,34.7000008 	"/>
	<path class="st1" d="M58.7000008,33.7999992v8.2999992l5.7999992,2V32L58.7000008,33.7999992z M60,41.5999985l-0.9000015-0.2999992
		v-6.5999985L60,34.4000015V41.5999985z M61.7000008,42.2000008l-1.2999992-0.4000015v-7.5l1.2999992-0.4000015V42.2000008z
		 M63.7000008,42.9000015l-1.5999985-0.5v-8.7000008l1.5999985-0.5V42.9000015z"/>
	<polygon class="st0" points="38.7999992,44.4000015 38.7999992,56.5 46.2000008,53.5999985 46.2000008,47.0999985 	"/>
	<path class="st1" d="M31.5,46.2000008V54.5l5.7999992,2V44.4000015L31.5,46.2000008z M32.9000015,54L32,53.7000008v-6.5999985
		l0.9000015-0.2999992V54z M34.5999985,54.5999985l-1.2999992-0.4000015v-7.5l1.2999992-0.4000015V54.5999985z
		 M36.5999985,55.2999992L35,54.7999992v-8.7000008l1.5999985-0.5V55.2999992z"/>
	<polygon class="st0" points="56.7999992,44.4000015 56.7999992,56.5 64.1999969,53.5999985 64.1999969,47.0999985 	"/>
	<path class="st1" d="M49.5,46.2000008V54.5l5.7999992,2V44.4000015L49.5,46.2000008z M50.9000015,54L50,53.7000008v-6.5999985
		l0.9000015-0.2999992V54z M52.5,54.5999985l-1.2999992-0.4000015v-7.5L52.5,46.2999954V54.5999985z M54.5999985,55.2999992
		L53,54.7999992v-8.7000008l1.5999985-0.5V55.2999992z"/>
	<polygon class="st0" points="38.7999992,19.6000004 38.7999992,31.7000008 46.2000008,28.7999992 46.2000008,22.2999992 	"/>
	<path class="st1" d="M31.5,21.3999996v8.3000011l5.7999992,2V19.6000004L31.5,21.3999996z M32.9000015,29.2000008L32,28.8999996
		v-6.6000004L32.9000015,22V29.2000008z M34.5999985,29.7999992l-1.2999992-0.3999996v-7.5L34.5999985,21.5V29.7999992z
		 M36.5999985,30.5L35,30v-8.7000008l1.5999985-0.5V30.5z"/>
	<polygon class="st0" points="56.7999992,19.6000004 56.7999992,31.7000008 64.1999969,28.7999992 64.1999969,22.2999992 	"/>
	<path class="st1" d="M49.5,21.3999996v8.3000011l5.7999992,2V19.6000004L49.5,21.3999996z M50.9000015,29.2000008L50,28.8999996
		v-6.6000004L50.9000015,22V29.2000008z M52.5,29.7999992l-1.2999992-0.3999996v-7.5L52.5,21.5V29.7999992z M54.5999985,30.5L53,30
		v-8.7000008l1.5999985-0.5V30.5z"/>
</g>
<path class="st1" d="M10,64.5l3.5,8.9000015h-1.3000002l-1-2.6999969H7.4000001l-1,2.6999969H5.1999998l3.5-8.9000015H10z
	 M10.8000002,69.6999969l-1.5-4.1999969l0,0l-1.5,4.1999969H10.8000002z"/>
<path class="st1" d="M17.5,67.9000015h-3.6000004V67h5v0.6999969L15,72.5h4.1000004v0.9000015h-5.3999996v-0.8000031
	L17.5,67.9000015z"/>
<path class="st1" d="M24.5,73.4000015v-1l0,0c-0.2000008,0.4000015-0.5,0.6999969-0.8999996,0.9000015
	C23.2000008,73.5,22.8000011,73.6000061,22.3999996,73.6000061c-0.3999996,0-0.7000008,0-1.1000004-0.1999969
	c-0.2999992-0.0999985-0.5-0.3000031-0.7000008-0.5s-0.2999992-0.5-0.3999996-0.6999969
	c-0.1000004-0.3000031-0.1000004-0.5999985-0.1000004-1V67h1.1000004v4.4000015c0,0.4000015,0.1000004,0.6999969,0.2999992,1
	c0.2999992,0.1999969,0.6000004,0.4000015,1,0.3000031c0.2999992,0,0.6000004,0,0.7999992-0.1999969
	c0.2000008-0.0999985,0.3999996-0.1999969,0.6000004-0.4000015c0.2000008-0.1999969,0.2999992-0.4000015,0.3999996-0.5999985
	c0.1000004-0.3000031,0.1000004-0.5,0.1000004-0.8000031V67h1.1000004v6.4000015H24.5z"/>
<path class="st1" d="M28,67v1.4000015l0,0c0.2000008-0.5,0.5-0.9000015,1-1.1999969
	c0.3999996-0.3000031,0.8999996-0.4000015,1.3999996-0.3000031V68C30,68,29.6999989,68.0999985,29.2999992,68.1999969
	c-0.2999992,0.0999985-0.5,0.3000031-0.7000008,0.5s-0.2999992,0.5-0.3999996,0.8000031
	c-0.1000004,0.4000015-0.1000004,0.6999969-0.1000004,1.0999985V73.5H27V67H28z"/>
<path class="st1" d="M35.5999985,73c-0.5,0.4000015-1.2000008,0.5999985-1.7999992,0.5
	c-0.5,0-0.9000015-0.0999985-1.2999992-0.1999969c-0.4000015-0.1999969-0.7000008-0.4000015-1-0.6999969
	c-0.2999992-0.3000031-0.5-0.6999969-0.6000004-1.0999985s-0.2000008-0.9000015-0.2000008-1.4000015
	s0.1000004-0.9000015,0.2000008-1.3000031S31.2999992,68.1000061,31.5,67.7000046c0.2999992-0.3000031,0.5999985-0.5,1-0.6999969
	s0.7999992-0.3000031,1.2000008-0.1999969c0.5,0,1,0.0999985,1.4000015,0.4000015
	c0.4000015,0.1999969,0.7000008,0.5,0.9000015,0.9000015s0.4000015,0.8000031,0.5,1.1999969
	c0.0999985,0.4000015,0.0999985,0.8000031,0.0999985,1.1999969h-4.7999992c0,0.3000031,0,0.5,0.1000004,0.8000031
	c0.1000004,0.1999969,0.1999989,0.5,0.3999996,0.6999969s0.4000015,0.4000015,0.5999985,0.5
	c0.2999992,0.0999985,0.5999985,0.1999969,0.9000015,0.1999969c0.4000015,0,0.7999992-0.0999985,1.0999985-0.3000031
	c0.2999992-0.1999969,0.5-0.5999985,0.5999985-1h1C36.4000015,72,36.0999985,72.5999985,35.5999985,73z M35.2999992,68.8000031
	c-0.0999985-0.1999969-0.2000008-0.4000015-0.4000015-0.5999985s-0.4000015-0.3000031-0.5999985-0.4000015
	c-0.2000008-0.0999985-0.5-0.0999985-0.7000008-0.0999985c-0.2999992,0-0.5,0-0.7000008,0.0999985
	S32.4999962,68,32.2999992,68.2000046C32.0999985,68.4000015,32,68.6000061,31.8999996,68.8000031
	s-0.1000004,0.5-0.2000008,0.6999969h3.6999989C35.5,69.3000031,35.4000015,69.0999985,35.2999992,68.8000031z"/>
<g>
	<path class="st1" d="M5.1999998,76.8667068h0.4888258v4.5659866l4.989171-4.5659866h0.6331406l-3.6219773,3.2997055
		l3.844418,4.6332703h-0.6114397l-3.5888824-4.300148l-1.6444302,1.5006561v2.7994919H5.1999998V76.8667068z"/>
	<path class="st1" d="M16.3442535,84.7996826h-0.4220934v-1.2217941h-0.0222435
		c-0.0743275,0.2148438-0.1795797,0.4047318-0.3168421,0.5718307c-0.1367197,0.1671066-0.2962255,0.3092499-0.4774323,0.4275208
		c-0.1817503,0.1182785-0.379776,0.2072525-0.5946207,0.2669296s-0.4334869,0.088974-0.655385,0.088974
		c-0.3336601,0-0.6168652-0.0412292-0.8501558-0.122612s-0.424264-0.1888046-0.5723763-0.3222656
		c-0.1481133-0.133461-0.2647581-0.2832031-0.3499365-0.4492188c-0.0851784-0.1671066-0.1464853-0.335289-0.1833773-0.5056458
		c-0.0368929-0.1703568-0.0591373-0.335289-0.0667324-0.4947968c-0.0070534-0.1595078-0.0108509-0.2983932-0.0108509-0.4166641
		v-3.5330048h0.4220943v3.6111298c0,0.1475677,0.0113926,0.3276901,0.033637,0.5381927
		c0.0222435,0.2115936,0.0868053,0.4155884,0.1942282,0.6109009c0.1074219,0.1963959,0.2685556,0.3656693,0.4834003,0.5056458
		c0.2148447,0.1410599,0.5181227,0.211586,0.9109201,0.211586c0.318469,0,0.6054716-0.0596771,0.8610058-0.1779556
		c0.2555351-0.1182709,0.4725504-0.2832031,0.6499596-0.4947891c0.1779528-0.2105026,0.3130445-0.4622421,0.405818-0.7552109
		c0.0927734-0.2918854,0.1388893-0.6130676,0.1388893-0.96138v-3.0881195h0.4220934V84.7996826z"/>
	<path class="st1" d="M17.7109051,76.8667068h0.4112434v3.4331741h0.0222435
		c0.0813808-0.2224426,0.1963978-0.4166718,0.3450546-0.5837708c0.1486549-0.1660156,0.3195534-0.3070755,0.5126972-0.4220963
		c0.1931419-0.1150131,0.4009342-0.1996536,0.6233749-0.2549896c0.2229824-0.056427,0.4530182-0.0835495,0.690649-0.0835495
		c0.4231796,0,0.7888489,0.0737839,1.0970097,0.222435c0.3081627,0.1475754,0.5658665,0.3515701,0.7742004,0.6109009
		c0.2077923,0.2593307,0.3618736,0.5609818,0.4622421,0.904953c0.1003704,0.3450546,0.1502838,0.7172318,0.1502838,1.116539
		c0,0.6825104-0.0927753,1.228302-0.2783222,1.6395493c-0.1860905,0.4112396-0.4085312,0.725914-0.6684055,0.9440155
		c-0.2598763,0.2191849-0.5306015,0.3634949-0.8127213,0.4340286c-0.2826614,0.0694427-0.5240898,0.1052475-0.724287,0.1052475
		c-0.3786907,0-0.699873-0.0596771-0.9635448-0.177948c-0.2636738-0.1182785-0.4806881-0.257164-0.6515884-0.4166718
		c-0.1708984-0.1595078-0.3005657-0.3168411-0.3895416-0.4720078c-0.0895176-0.15625-0.1448574-0.2701797-0.1671009-0.3450546
		h-0.0217018v1.2782211h-0.4117851V76.8667068z M20.3167114,84.566391c0.3786907,0,0.6977024-0.0813828,0.9581203-0.2441406
		c0.2598743-0.1627655,0.4714642-0.3765182,0.6347675-0.6391068c0.163847-0.2625885,0.2821198-0.558815,0.3564472-0.8886795
		s0.111763-0.6575546,0.111763-0.9841614c0-0.3179245-0.04286-0.625-0.1280384-0.9212265
		c-0.085722-0.2962265-0.2153873-0.5620728-0.3900852-0.7953644c-0.174696-0.233284-0.3900833-0.4199219-0.646162-0.5609818
		c-0.2560768-0.1399765-0.5550156-0.2105026-0.8968124-0.2105026c-0.3710957,0-0.6944485,0.0629349-0.9689713,0.1888046
		c-0.2750664,0.1258698-0.5018482,0.2994766-0.6798,0.5219193c-0.1784935,0.2224426-0.3119583,0.4850311-0.4009342,0.7888489
		c-0.0895195,0.3038177-0.1340065,0.6336823-0.1340065,0.9885025c0,0.3483124,0.0412331,0.6890182,0.122612,1.0232239
		c0.0819244,0.3331223,0.2099628,0.6271744,0.3846588,0.883255c0.1741562,0.2549896,0.3993073,0.4611511,0.6738319,0.6163177
		S19.9228287,84.566391,20.3167114,84.566391z"/>
	<path class="st1" d="M23.9668999,82.0001907v0.0661926c0,0.3331146,0.0444889,0.6521225,0.1334648,0.9559479
		c0.0889759,0.3038177,0.2208118,0.569664,0.3955097,0.7996979c0.174696,0.2300339,0.3933392,0.4112473,0.657011,0.5447083
		c0.2636738,0.133461,0.5702076,0.1996536,0.9196014,0.1996536c0.5718346,0,1.0248528-0.1497421,1.3590546-0.4503021
		c0.3342037-0.2994843,0.5642395-0.716156,0.6906509-1.2500076h0.4220924
		c-0.1258678,0.6673203-0.398222,1.1783905-0.8165169,1.5332108c-0.4182968,0.3559036-0.9722271,0.5338516-1.6612492,0.5338516
		c-0.4220943,0-0.7904758-0.0759506-1.1051483-0.2278595c-0.3152142-0.1519165-0.5778008-0.3591614-0.7893906-0.6217499
		c-0.2110481-0.2636719-0.3683834-0.5740051-0.4720078-0.9342499c-0.1036243-0.3591614-0.1557083-0.7454453-0.1557083-1.161026
		c0-0.3993073,0.0537109-0.7834244,0.1611328-1.1501846c0.1074238-0.3656693,0.2685566-0.6879349,0.4834023-0.9657135
		c0.2148438-0.2777786,0.4834003-0.5002213,0.805666-0.6673203c0.3222675-0.1660156,0.7015018-0.2495651,1.1387863-0.2495651
		c0.3998489,0,0.7535839,0.0737839,1.061203,0.222435c0.3070755,0.1475754,0.5647812,0.3493958,0.7720299,0.6054764
		c0.2072487,0.2549896,0.3651276,0.5512161,0.4725494,0.8886719c0.1074219,0.3374634,0.1611328,0.6977081,0.1611328,1.0829086
		c0,0.0368881-0.0021687,0.0802917-0.0054245,0.1280365c-0.0043411,0.0477448-0.0059681,0.0868073-0.0059681,0.1171875H23.9668999z
		 M28.1666794,81.6334381c-0.0146484-0.3114166-0.0667324-0.6054764-0.1557083-0.883255
		c-0.0895176-0.2777786-0.2213535-0.5230026-0.3955097-0.7335052c-0.174696-0.2115936-0.3862858-0.379776-0.6353092-0.5056458
		c-0.2490253-0.1258698-0.5327721-0.1888046-0.8523273-0.1888046c-0.3412552,0-0.6423626,0.0651016-0.9022388,0.1942291
		c-0.2598743,0.1291199-0.4790592,0.2994766-0.6575546,0.5110703c-0.1779518,0.2105026-0.3152142,0.457901-0.4117851,0.7389374
		c-0.0965729,0.2810287-0.1562519,0.5707474-0.1784954,0.8669739H28.1666794z"/>
	<path class="st1" d="M30.0221577,80.355217h0.0336361c0.0515404-0.1855469,0.1459427-0.3591614,0.283205-0.5219193
		c0.1367188-0.1627579,0.303278-0.3038177,0.4996758-0.4220963c0.1963997-0.1193542,0.415041-0.2094193,0.6559277-0.2723541
		c0.240345-0.0629349,0.4904537-0.0911407,0.7497864-0.0835495v0.4220963
		c-0.2218971-0.0292969-0.4758053-0.0075989-0.761179,0.066185c-0.2853756,0.0748749-0.5571861,0.2376328-0.8165188,0.4893723
		c-0.1036243,0.1106796-0.1942291,0.2181015-0.2723541,0.3222656c-0.0775814,0.1041718-0.1426868,0.2181015-0.1942272,0.3439713
		c-0.052084,0.1269531-0.0927753,0.2669296-0.1220722,0.4231796c-0.0298386,0.1551666-0.0482845,0.3407135-0.0558796,0.5555573
		v3.1217575h-0.4220943v-5.7107468h0.4220943V80.355217z"/>
	<path class="st1" d="M32.7109718,79.0889359h0.4220924V80.31073h0.0222435
		c0.0737839-0.2148438,0.1795807-0.4058151,0.3168411-0.5718307c0.1367188-0.1671066,0.2962265-0.3092499,0.4774323-0.4286041
		c0.1817513-0.1182785,0.379776-0.2072525,0.5946236-0.2658463c0.2148438-0.0596771,0.4334869-0.088974,0.6553841-0.088974
		c0.3336601,0,0.6168633,0.0401459,0.8501549,0.1215286c0.2332916,0.0824661,0.424263,0.188797,0.5723763,0.3222656
		c0.1481133,0.133461,0.2647591,0.2832031,0.3499374,0.4503021c0.0851784,0.1671066,0.1459427,0.335289,0.1833763,0.5056458
		c0.0368919,0.1703568,0.0591354,0.335289,0.0667343,0.4947968c0.0070534,0.1595078,0.010849,0.2983932,0.010849,0.4166641
		v3.5330048h-0.4220924v-3.6111298c0-0.1410599-0.0108528-0.3179245-0.0330963-0.5338516
		c-0.0222435-0.2137604-0.0873489-0.4199295-0.1947708-0.6163254s-0.2701836-0.3645859-0.4888268-0.5056458
		c-0.2186394-0.1399765-0.5202904-0.2105026-0.9054947-0.2105026c-0.3260651,0-0.6152344,0.0585938-0.8669739,0.1779556
		c-0.2517357,0.1182709-0.4665794,0.2832031-0.6439896,0.4937057c-0.1779518,0.211586-0.3130455,0.4633255-0.4058189,0.7562943
		c-0.0927734,0.2918854-0.1388893,0.6119843-0.1388893,0.960289v3.0892105h-0.4220924V79.0889359z"/>
	<path class="st1" d="M38.6555481,82.0001907v0.0661926c0,0.3331146,0.0444908,0.6521225,0.1334648,0.9559479
		c0.0889778,0.3038177,0.2208138,0.569664,0.3955116,0.7996979c0.1746941,0.2300339,0.3933372,0.4112473,0.6570091,0.5447083
		c0.2636757,0.133461,0.5702095,0.1996536,0.9196014,0.1996536c0.5718346,0,1.0248528-0.1497421,1.3590546-0.4503021
		c0.3342056-0.2994843,0.5642395-0.716156,0.6906509-1.2500076h0.4220924
		c-0.1258659,0.6673203-0.3982201,1.1783905-0.8165169,1.5332108c-0.4182968,0.3559036-0.9722252,0.5338516-1.6612473,0.5338516
		c-0.4220963,0-0.7904778-0.0759506-1.1051483-0.2278595c-0.3152161-0.1519165-0.5778046-0.3591614-0.7893906-0.6217499
		c-0.2110481-0.2636719-0.3683853-0.5740051-0.4720078-0.9342499c-0.1036263-0.3591614-0.1557083-0.7454453-0.1557083-1.161026
		c0-0.3993073,0.0537109-0.7834244,0.1611328-1.1501846c0.1074219-0.3656693,0.2685547-0.6879349,0.4833984-0.9657135
		c0.2148476-0.2777786,0.4834023-0.5002213,0.8056679-0.6673203c0.3222694-0.1660156,0.7015038-0.2495651,1.1387863-0.2495651
		c0.3998489,0,0.7535858,0.0737839,1.061203,0.222435c0.3070755,0.1475754,0.5647812,0.3493958,0.7720299,0.6054764
		c0.2072487,0.2549896,0.3651276,0.5512161,0.4725494,0.8886719c0.1074219,0.3374634,0.1611328,0.6977081,0.1611328,1.0829086
		c0,0.0368881-0.0021667,0.0802917-0.0054245,0.1280365c-0.0043411,0.0477448-0.0059662,0.0868073-0.0059662,0.1171875H38.6555481z
		 M42.8553276,81.6334381c-0.0146484-0.3114166-0.0667305-0.6054764-0.1557083-0.883255
		c-0.0895157-0.2777786-0.2213516-0.5230026-0.3955078-0.7335052c-0.1746979-0.2115936-0.3862877-0.379776-0.6353111-0.5056458
		s-0.5327721-0.1888046-0.8523254-0.1888046c-0.3412552,0-0.6423645,0.0651016-0.9022408,0.1942291
		c-0.2598724,0.1291199-0.4790573,0.2994766-0.6575546,0.5110703c-0.1779518,0.2105026-0.3152122,0.457901-0.4117851,0.7389374
		c-0.0965729,0.2810287-0.15625,0.5707474-0.1784935,0.8669739H42.8553276z"/>
	<path class="st1" d="M46.3888741,79.4556885h-1.2445793v3.988739c0,0.2289505,0.0260391,0.4112396,0.0775795,0.5436172
		c0.0520859,0.1334686,0.1312943,0.235466,0.2392616,0.3059921c0.1068802,0.0705338,0.2365456,0.1128464,0.3884544,0.1280365
		c0.1519127,0.0151901,0.3276939,0.0184479,0.5278893,0.0108566v0.3667526
		c-0.2148438,0.0151901-0.424263,0.0130234-0.6277161-0.0054245c-0.2039948-0.0184479-0.3835716-0.0737839-0.5387383-0.1671066
		c-0.1557083-0.0922241-0.2799492-0.2311172-0.3721809-0.4166641c-0.0927734-0.1844635-0.1318359-0.4405441-0.1166458-0.7660599
		v-3.988739h-1.0557747v-0.3667526h1.0557747v-1.7784348h0.4220963v1.7784348h1.2445793V79.4556885z"/>
	<path class="st1" d="M47.1891136,82.0001907v0.0661926c0,0.3331146,0.0444908,0.6521225,0.1334648,0.9559479
		c0.0889778,0.3038177,0.2208138,0.569664,0.3955116,0.7996979c0.1746941,0.2300339,0.3933372,0.4112473,0.6570129,0.5447083
		c0.2636719,0.133461,0.5702057,0.1996536,0.9195976,0.1996536c0.5718346,0,1.0248528-0.1497421,1.3590584-0.4503021
		c0.3342018-0.2994843,0.5642357-0.716156,0.6906471-1.2500076h0.4220963
		c-0.1258698,0.6673203-0.3982239,1.1783905-0.8165207,1.5332108c-0.4182968,0.3559036-0.9722252,0.5338516-1.6612473,0.5338516
		c-0.4220963,0-0.7904778-0.0759506-1.1051483-0.2278595c-0.3152161-0.1519165-0.5778008-0.3591614-0.7893906-0.6217499
		c-0.2110481-0.2636719-0.3683853-0.5740051-0.4720078-0.9342499c-0.1036263-0.3591614-0.1557083-0.7454453-0.1557083-1.161026
		c0-0.3993073,0.0537109-0.7834244,0.1611328-1.1501846c0.1074219-0.3656693,0.2685547-0.6879349,0.4834023-0.9657135
		c0.2148438-0.2777786,0.4833984-0.5002213,0.8056679-0.6673203c0.3222656-0.1660156,0.7014999-0.2495651,1.1387825-0.2495651
		c0.3998489,0,0.7535858,0.0737839,1.061203,0.222435c0.3070755,0.1475754,0.5647812,0.3493958,0.7720299,0.6054764
		c0.2072487,0.2549896,0.3651276,0.5512161,0.4725494,0.8886719c0.1074219,0.3374634,0.1611366,0.6977081,0.1611366,1.0829086
		c0,0.0368881-0.0021706,0.0802917-0.0054283,0.1280365c-0.0043373,0.0477448-0.0059662,0.0868073-0.0059662,0.1171875H47.1891136z
		 M51.3888931,81.6334381c-0.0146484-0.3114166-0.0667305-0.6054764-0.1557045-0.883255
		c-0.0895195-0.2777786-0.2213554-0.5230026-0.3955116-0.7335052c-0.1746979-0.2115936-0.3862877-0.379776-0.6353111-0.5056458
		s-0.5327721-0.1888046-0.8523254-0.1888046c-0.3412552,0-0.6423645,0.0651016-0.9022408,0.1942291
		c-0.2598724,0.1291199-0.4790573,0.2994766-0.6575546,0.5110703c-0.1779518,0.2105026-0.3152122,0.457901-0.4117851,0.7389374
		c-0.0965691,0.2810287-0.15625,0.5707474-0.1784935,0.8669739H51.3888931z"/>
	<path class="st1" d="M53.0224724,82.8997192c0.0146484,0.2669296,0.0737877,0.502388,0.1774101,0.7052994
		c0.1036263,0.2039871,0.2392616,0.3776016,0.4058189,0.5219193c0.1665573,0.145401,0.3607864,0.2539062,0.5832291,0.3287735
		c0.2224388,0.0737839,0.4627838,0.1106796,0.7221146,0.1106796c0.1850052,0,0.3835754-0.0162735,0.5951653-0.0499115
		c0.2105026-0.033638,0.4069023-0.0944061,0.5881081-0.1833801c0.1812096-0.088974,0.3320351-0.212677,0.4503059-0.3721771
		c0.1182747-0.1595078,0.1779518-0.3613358,0.1779518-0.6054764c0-0.3190079-0.0965691-0.5598984-0.2897148-0.7226562
		c-0.1920586-0.1627655-0.435112-0.2886276-0.7269974-0.3776093c-0.2929726-0.088974-0.6076431-0.1605911-0.9445572-0.2170105
		c-0.3374596-0.0553436-0.6521301-0.1388931-0.9445572-0.2495651c-0.2929726-0.1106796-0.5354843-0.2680206-0.7280846-0.4720078
		c-0.1926003-0.2039948-0.2886314-0.5023956-0.2886314-0.8951874c0-0.2810364,0.0629349-0.5164948,0.1888046-0.7052994
		c0.1258659-0.1888046,0.2870026-0.3385468,0.4833984-0.4503098c0.1963997-0.110672,0.4166679-0.189888,0.6613541-0.2387161
		c0.2441406-0.0477371,0.4888268-0.0716095,0.7329674-0.0716095c0.2962265,0,0.5745468,0.032547,0.8338776,0.099823
		c0.2582474,0.0661926,0.4828606,0.1736145,0.6716614,0.3222656c0.1888046,0.1486588,0.3374596,0.3374634,0.4448814,0.5664139
		c0.1074219,0.2300339,0.1605911,0.5078125,0.1605911,0.8333359h-0.4220924c0-0.2593307-0.0423203-0.4817734-0.1280403-0.6662369
		c-0.0846367-0.1855469-0.2039948-0.335289-0.3548203-0.4503021c-0.1519089-0.1150208-0.3320312-0.1996536-0.5392799-0.2560806
		c-0.2072487-0.055336-0.4296913-0.0824661-0.6667786-0.0824661c-0.1926003,0-0.3868294,0.0184479-0.5832291,0.055336
		c-0.1963959,0.0368958-0.3721809,0.0998306-0.5278854,0.1888046c-0.1557083,0.088974-0.2832069,0.2039948-0.3830338,0.3439713
		c-0.1003685,0.1410599-0.1502838,0.3114166-0.1502838,0.5110703c0,0.2300339,0.0558815,0.4155807,0.1665611,0.5555573
		c0.1112213,0.1410599,0.2577057,0.2539062,0.4389114,0.3396301c0.1817513,0.0846329,0.3852005,0.1540756,0.6114388,0.2050781
		c0.2256966,0.0520782,0.4535637,0.1041641,0.6830559,0.15625c0.2821198,0.0509949,0.5457916,0.1128464,0.7942734,0.1833725
		c0.2484818,0.0694504,0.4633255,0.1660233,0.6445351,0.2886353c0.1812057,0.1215286,0.3244362,0.2799454,0.4275169,0.4720078
		c0.1041679,0.1931381,0.1562538,0.4372787,0.1562538,0.7335052c0,0.3114166-0.0705299,0.5664139-0.2115898,0.7660675
		c-0.1410599,0.200737-0.3179283,0.3613281-0.5327721,0.4839401c-0.2148438,0.1215286-0.4546471,0.2072525-0.7172356,0.2549896
		c-0.2625885,0.0488281-0.5202904,0.0727005-0.7720299,0.0727005c-0.3260651,0-0.6277161-0.0423126-0.9054947-0.1280365
		c-0.2777786-0.0846329-0.5202904-0.2148438-0.7275429-0.3884583c-0.2077904-0.1746979-0.3705521-0.3873672-0.4893684-0.6391068
		c-0.1182709-0.2517395-0.1812057-0.5447083-0.1888008-0.8778229H53.0224724z"/>
	<path class="st1" d="M66.5555191,79.1334229c-0.0151901-0.3407135-0.0868073-0.63694-0.2170181-0.8897629
		c-0.1291199-0.2517319-0.3049011-0.4622345-0.5273438-0.6325912s-0.4871979-0.2984009-0.7942734-0.3841171
		c-0.3081589-0.0846405-0.6434479-0.1269531-1.005867-0.1269531c-0.222435,0-0.4611511,0.0260391-0.7161446,0.077034
		c-0.2560768,0.0520859-0.4937096,0.1432343-0.7118111,0.2723541c-0.2180977,0.1302109-0.3982201,0.3038254-0.5381966,0.5230103
		c-0.1410599,0.2181015-0.2115898,0.4904556-0.2115898,0.8159714c0,0.3190155,0.0781288,0.5783463,0.2332916,0.7779999
		c0.1551666,0.1996536,0.3591614,0.3613281,0.6108971,0.4828568c0.2517395,0.122612,0.5403671,0.2213593,0.8669739,0.2951431
		c0.3255234,0.0737839,0.6553841,0.1443176,0.9885063,0.2105026c0.3407135,0.067276,0.6727448,0.1464844,0.9950104,0.2387161
		c0.3222656,0.0933151,0.6108932,0.2191849,0.8658905,0.3786926c0.256073,0.1595078,0.4611588,0.3667526,0.6174088,0.6217499
		c0.155159,0.256073,0.2332916,0.5761719,0.2332916,0.9613724c0,0.4144974-0.0889816,0.7628098-0.2669296,1.0438385
		c-0.1779556,0.2821198-0.4014816,0.5110703-0.6716614,0.6890259c-0.2712708,0.1779556-0.5707474,0.3059921-0.9006119,0.3841171
		c-0.3298645,0.0770416-0.6467056,0.1161041-0.94944,0.1161041c-0.4665833,0-0.9038696-0.0499191-1.3118553-0.1497421
		c-0.4069023-0.0998306-0.7628098-0.2625885-1.0666275-0.4893723c-0.3038216-0.2256927-0.5425377-0.5164948-0.7161484-0.8723984
		c-0.1746979-0.3548203-0.2582512-0.7888489-0.2506523-1.2999191h0.4893684
		c-0.022789,0.4372864,0.0401459,0.8062134,0.1888008,1.10569c0.1475716,0.3005676,0.3537331,0.5468826,0.6163216,0.7389374
		c0.2636757,0.1931458,0.5729218,0.3320312,0.9277382,0.4166718c0.3559074,0.0857162,0.7302551,0.1280365,1.1230545,0.1280365
		c0.2365417,0,0.4904556-0.0292969,0.7606354-0.088974c0.2701874-0.0596848,0.5186691-0.1595078,0.7443619-0.2994843
		c0.2256927-0.1410599,0.4144974-0.3266068,0.5664062-0.5555573c0.1519089-0.2300339,0.2278671-0.5186615,0.2278671-0.8669739
		c0-0.3331146-0.0770416-0.6054688-0.2332916-0.8170624c-0.1551666-0.2105026-0.3613281-0.3808594-0.6163177-0.5110703
		c-0.2560806-0.1291199-0.5447083-0.2332916-0.8669815-0.3114166c-0.3222656-0.077034-0.6532135-0.1497345-0.993927-0.2159271
		c-0.3331146-0.067276-0.6629791-0.1443176-0.9895859-0.2332916c-0.3255196-0.088974-0.614151-0.2094193-0.8658867-0.3613281
		c-0.2528229-0.1519089-0.4557343-0.3483124-0.6119843-0.5891953c-0.1551628-0.2408905-0.2332916-0.5501328-0.2332916-0.927742
		c0-0.3776016,0.0802956-0.7020416,0.2398033-0.9722214c0.1584206-0.2701874,0.3656693-0.4882889,0.6217461-0.6553879
		s0.5425377-0.2886276,0.8615494-0.3667526c0.3179283-0.078125,0.6325989-0.1161041,0.9440117-0.1161041
		c0.414505,0,0.8018723,0.0455704,1.1610336,0.1388855c0.3591614,0.0922318,0.6738281,0.2365494,0.9440155,0.4329453
		c0.2712631,0.1964035,0.4871979,0.4503098,0.6510391,0.760643c0.1627655,0.3114166,0.2549973,0.6857605,0.2777863,1.1230469
		H66.5555191z"/>
	<path class="st1" d="M68.4782715,82.0001907v0.0661926c0,0.3331146,0.044487,0.6521225,0.133461,0.9559479
		c0.0889816,0.3038177,0.2213593,0.569664,0.3949661,0.7996979c0.1746979,0.2300339,0.3938828,0.4112473,0.6575546,0.5447083
		c0.2636795,0.133461,0.570755,0.1996536,0.9190598,0.1996536c0.5718384,0,1.0253983-0.1497421,1.3595963-0.4503021
		c0.3342056-0.2994843,0.5642395-0.716156,0.6911926-1.2500076h0.4220963
		c-0.1258698,0.6673203-0.3982239,1.1783905-0.8170624,1.5332108c-0.4188385,0.3559036-0.9722214,0.5338516-1.6612473,0.5338516
		c-0.4220963,0-0.7910156-0.0759506-1.10569-0.2278595c-0.3146744-0.1519165-0.5772629-0.3591614-0.7888489-0.6217499
		c-0.2105026-0.2636719-0.3678436-0.5740051-0.4720078-0.9342499c-0.1041641-0.3591614-0.1551666-0.7454453-0.1551666-1.161026
		c0-0.3993073,0.0531693-0.7834244,0.1605911-1.1501846c0.1074219-0.3656693,0.2690964-0.6879349,0.4839478-0.9657135
		c0.2148438-0.2777786,0.4828568-0.5002213,0.8051224-0.6673203c0.3222656-0.1660156,0.7020416-0.2495651,1.139328-0.2495651
		c0.3993073,0,0.7530441,0.0737839,1.061203,0.222435c0.3070755,0.1475754,0.5642395,0.3493958,0.7714844,0.6054764
		c0.2072525,0.2549896,0.3645859,0.5512161,0.4720078,0.8886719c0.1074219,0.3374634,0.1616745,0.6977081,0.1616745,1.0829086
		c0,0.0368881-0.0021667,0.0802917-0.0054245,0.1280365c-0.0043411,0.0477448-0.0054245,0.0868073-0.0054245,0.1171875H68.4782715z
		 M72.6785965,81.6334381c-0.0151978-0.3114166-0.067276-0.6054764-0.1562576-0.883255
		c-0.088974-0.2777786-0.2213516-0.5230026-0.3960495-0.7335052c-0.1746979-0.2115936-0.3862839-0.379776-0.6347656-0.5056458
		s-0.5327759-0.1888046-0.8517838-0.1888046c-0.3417969,0-0.6434479,0.0651016-0.9027863,0.1942291
		c-0.2604141,0.1291199-0.479599,0.2994766-0.6575546,0.5110703c-0.177948,0.2105026-0.3157501,0.457901-0.412323,0.7389374
		c-0.0965729,0.2810287-0.1551666,0.5707474-0.1779556,0.8669739H72.6785965z"/>
	<path class="st1" d="M74.5340729,80.355217h0.032547c0.0520859-0.1855469,0.1464844-0.3591614,0.2832031-0.5219193
		c0.1378098-0.1627579,0.3038254-0.3038177,0.5002213-0.4220963c0.1964035-0.1193542,0.4144974-0.2094193,0.6553879-0.2723541
		c0.2408829-0.0629349,0.491539-0.0911407,0.7508698-0.0835495v0.4220963
		c-0.2224426-0.0292969-0.4763489-0.0075989-0.7617188,0.066185c-0.2853775,0.0748749-0.5577316,0.2376328-0.8170624,0.4893723
		C75.07444,80.143631,74.9832916,80.2510529,74.90625,80.355217c-0.078125,0.1041718-0.1432266,0.2181015-0.1953125,0.3439713
		c-0.0510025,0.1269531-0.0922318,0.2669296-0.1215286,0.4231796c-0.0303802,0.1551666-0.0488281,0.3407135-0.055336,0.5555573
		v3.1217575h-0.4231796v-5.7107468h0.4231796V80.355217z"/>
	<path class="st1" d="M79.5557938,84.7996826h-0.5219193l-2.2992706-5.7107468h0.4882812l2.0670624,5.2213745h0.0217056
		l1.9336014-5.2213745h0.4665833L79.5557938,84.7996826z"/>
	<path class="st1" d="M82.4334106,78.010376v-1.1436691h0.4220963v1.1436691H82.4334106z M82.4334106,84.7996826v-5.7107468
		h0.4220963v5.7107468H82.4334106z"/>
	<path class="st1" d="M88.521759,80.8554382c-0.021698-0.2517395-0.0868073-0.4741821-0.1942291-0.6673203
		c-0.1074219-0.1920624-0.2463074-0.3515625-0.4166641-0.4774323s-0.368927-0.2224426-0.5946198-0.2886276
		c-0.2257004-0.067276-0.4687576-0.0998306-0.727005-0.0998306c-0.3559036,0-0.6705704,0.0716171-0.9450989,0.2159271
		c-0.2734375,0.1443176-0.5034714,0.3374634-0.6890182,0.5783463c-0.1844635,0.2408905-0.3255234,0.514328-0.4220963,0.8224869
		c-0.0965729,0.3070755-0.1443176,0.6239166-0.1443176,0.94944c0,0.3852005,0.0444946,0.7411041,0.1334686,1.0666275
		c0.088974,0.3266068,0.2256927,0.6098099,0.4112396,0.8507004c0.1844635,0.2397995,0.4144974,0.4275208,0.6890259,0.5609818
		c0.2734375,0.133461,0.5957031,0.1996536,0.9667969,0.1996536c0.2658463,0,0.5121613-0.044487,0.7389374-0.133461
		c0.2256927-0.0889816,0.4253464-0.2105103,0.5989609-0.3667603c0.1746979-0.1551666,0.3168411-0.3428802,0.4286041-0.5609818
		c0.1106796-0.2181015,0.1844635-0.4568176,0.2224426-0.7161484h0.4220963
		c-0.0444946,0.3407135-0.1378098,0.6434479-0.2777863,0.9103775c-0.1410522,0.2669296-0.3190079,0.491539-0.5338516,0.6727448
		s-0.4589844,0.3200989-0.7335129,0.4166718c-0.2734375,0.0954819-0.5631485,0.14431-0.8658905,0.14431
		c-0.4676666,0-0.8658829-0.0835495-1.194664-0.2506485c-0.3298645-0.1660156-0.6000443-0.390625-0.8116379-0.6716614
		c-0.2105026-0.2810364-0.3667526-0.6054688-0.4665756-0.972229c-0.0998306-0.3667526-0.1497421-0.7497864-0.1497421-1.150177
		s0.0575104-0.7779999,0.1725235-1.1328201c0.1139374-0.3559036,0.2832031-0.6673203,0.5056458-0.9342422
		c0.2213516-0.2658463,0.4958801-0.4774399,0.8214035-0.6325989c0.3266068-0.15625,0.6998672-0.2332916,1.1230469-0.2332916
		c0.3103333,0,0.6011353,0.0390625,0.871315,0.1161041c0.2712708,0.078125,0.5110703,0.1942215,0.7226639,0.3504791
		c0.211586,0.155159,0.3830261,0.3537292,0.5164948,0.5946198c0.133461,0.2408829,0.2148438,0.5197449,0.2441406,0.8387604
		H88.521759z"/>
	<path class="st1" d="M90.1667328,82.0001907v0.0661926c0,0.3331146,0.044487,0.6521225,0.133461,0.9559479
		c0.0889816,0.3038177,0.2213593,0.569664,0.3949738,0.7996979c0.1746902,0.2300339,0.3938828,0.4112473,0.6575546,0.5447083
		s0.5707474,0.1996536,0.9190521,0.1996536c0.5718384,0,1.0253983-0.1497421,1.3596039-0.4503021
		c0.334198-0.2994843,0.5642395-0.716156,0.6911926-1.2500076h0.4220886
		c-0.1258698,0.6673203-0.3982239,1.1783905-0.8170624,1.5332108c-0.4188385,0.3559036-0.9722214,0.5338516-1.6612473,0.5338516
		c-0.4220886,0-0.7910156-0.0759506-1.10569-0.2278595c-0.3146667-0.1519165-0.5772552-0.3591614-0.7888489-0.6217499
		c-0.2105026-0.2636719-0.367836-0.5740051-0.4720078-0.9342499c-0.1041641-0.3591614-0.1551666-0.7454453-0.1551666-1.161026
		c0-0.3993073,0.0531693-0.7834244,0.1605911-1.1501846c0.1074219-0.3656693,0.269104-0.6879349,0.4839478-0.9657135
		s0.4828568-0.5002213,0.8051224-0.6673203c0.3222656-0.1660156,0.7020416-0.2495651,1.139328-0.2495651
		c0.3993073,0,0.7530441,0.0737839,1.061203,0.222435c0.3070755,0.1475754,0.5642395,0.3493958,0.7714844,0.6054764
		c0.2072525,0.2549896,0.3645859,0.5512161,0.4720078,0.8886719c0.1074219,0.3374634,0.1616821,0.6977081,0.1616821,1.0829086
		c0,0.0368881-0.0021744,0.0802917-0.0054245,0.1280365c-0.0043411,0.0477448-0.0054321,0.0868073-0.0054321,0.1171875H90.1667328z
		 M94.3670578,81.6334381c-0.0151901-0.3114166-0.067276-0.6054764-0.15625-0.883255
		c-0.0889816-0.2777786-0.2213593-0.5230026-0.3960571-0.7335052c-0.1746979-0.2115936-0.3862839-0.379776-0.6347656-0.5056458
		s-0.5327682-0.1888046-0.8517838-0.1888046c-0.3417969,0-0.6434479,0.0651016-0.9027786,0.1942291
		c-0.2604218,0.1291199-0.4796066,0.2994766-0.6575546,0.5110703c-0.1779556,0.2105026-0.3157578,0.457901-0.4123306,0.7389374
		c-0.0965729,0.2810287-0.1551666,0.5707474-0.1779556,0.8669739H94.3670578z"/>
</g>
</svg>
