<?xml version="1.0" encoding="utf-8"?>
<!-- Generator: Adobe Illustrator 19.2.1, SVG Export Plug-In . SVG Version: 6.00 Build 0)  -->
<svg version="1.1" id="Layer_1" xmlns="http://www.w3.org/2000/svg" xmlns:xlink="http://www.w3.org/1999/xlink" x="0px" y="0px"
	 viewBox="0 0 100 100" style="enable-background:new 0 0 100 100;" xml:space="preserve">
<style type="text/css">
	.st0{fill:#EAF2F8;}
	.st1{fill:#2980B9;}
	.st2{fill:#666666;}
</style>
<g>
	<g>
		<path class="st0" d="M51.3,54.3c-0.3-0.1-0.6-0.2-0.9-0.3l-0.8-0.2V33.7l0.8-0.2c0.6-0.1,1.2-0.3,1.7-0.7l0.7-0.5l9.8,11.2
			l-0.3,0.6c-0.3,0.5-0.4,1.1-0.4,1.7c0,0.4,0,0.7,0.1,1l0.2,0.7l-10.5,7L51.3,54.3z"/>
		<path class="st1" d="M52.6,33.7l8.8,10c-0.3,0.6-0.5,1.4-0.5,2.1c0,0.5,0.1,0.9,0.2,1.3l-9.4,6.3c-0.4-0.2-0.7-0.3-1.1-0.4V34.4
			C51.4,34.3,52,34.1,52.6,33.7 M53,31.1l-1.5,1c-0.4,0.3-0.8,0.4-1.3,0.5l-1.6,0.3v1.6v18.5v1.6l1.6,0.3c0.2,0.1,0.5,0.1,0.7,0.2
			l1,0.5l1-0.6l9.4-6.3l1.2-0.8l-0.4-1.4C63,46.2,63,46,63,45.7c0-0.5,0.1-0.9,0.3-1.3l0.5-1.2l-0.9-1l-8.8-10L53,31.1L53,31.1z"/>
	</g>
	<g>
		<path class="st0" d="M36.8,47.6l0.2-0.7c0.1-0.3,0.1-0.7,0.1-1c0-0.6-0.1-1.2-0.4-1.7l-0.3-0.6l9.8-11.2l0.7,0.5
			c0.5,0.3,1,0.6,1.6,0.7l0.8,0.2v20.1l-0.8,0.2c-0.3,0.1-0.6,0.2-0.9,0.3l-0.5,0.2L36.8,47.6z"/>
		<path class="st1" d="M46.4,33.7c0.6,0.4,1.3,0.7,2,0.8V53c-0.4,0.1-0.7,0.2-1.1,0.4l-9.4-6.2c0.1-0.4,0.2-0.9,0.2-1.3
			c0-0.8-0.2-1.5-0.5-2.1L46.4,33.7 M46.1,31.1l-1.1,1.3l-8.8,10l-0.9,1l0.5,1.2c0.2,0.4,0.3,0.8,0.3,1.3c0,0.3,0,0.5-0.1,0.8
			L35.6,48l1.2,0.8l9.4,6.2l0.9,0.6l1-0.5c0.2-0.1,0.4-0.2,0.7-0.2l1.6-0.3V53V34.5v-1.6l-1.6-0.3c-0.5-0.1-0.9-0.3-1.3-0.5
			L46.1,31.1L46.1,31.1z"/>
	</g>
	<g>
		<path class="st0" d="M17.4,47.2l32.4-39l32.4,39.3L49.8,74.4L17.4,47.2z M46.8,54.7l-0.6,0.8c-0.5,0.7-0.8,1.5-0.8,2.4
			c0,2.2,1.8,4.1,4.1,4.1c2.2,0,4.1-1.8,4.1-4.1c0-0.8-0.3-1.6-0.7-2.3l-0.6-0.8l10.2-6.8l0.6,0.6c0.8,0.8,1.8,1.3,3,1.3
			c2.2,0,4.1-1.8,4.1-4.1s-1.8-4.1-4.1-4.1c-0.9,0-1.7,0.3-2.4,0.8L63,43.1L53.3,32l0.4-0.6c0.4-0.7,0.7-1.6,0.7-2.4
			c0-2.6-2.1-4.7-4.7-4.7s-4.7,2.1-4.7,4.7c0,0.9,0.2,1.7,0.7,2.4l0.4,0.6l-9.7,11.1l-0.7-0.6c-0.7-0.5-1.6-0.8-2.4-0.8
			c-2.2,0-4.1,1.8-4.1,4.1s1.8,4.1,4.1,4.1c1.1,0,2.2-0.5,3-1.3l0.6-0.6L46.8,54.7z"/>
		<path class="st1" d="M49.8,9.8l31,37.6l-31,25.8l-31-26.1L49.8,9.8 M36.1,41.7c-0.8-0.6-1.9-1-3-1c-2.8,0-5.1,2.3-5.1,5.1
			s2.3,5.1,5.1,5.1c1.5,0,2.8-0.6,3.7-1.6l8.6,5.7c-0.6,0.8-0.9,1.8-0.9,2.9c0,2.8,2.3,5.1,5.1,5.1s5.1-2.3,5.1-5.1
			c0-1.1-0.3-2.1-0.9-2.9l8.6-5.8c0.9,1,2.2,1.6,3.7,1.6c2.8,0,5.1-2.3,5.1-5.1s-2.3-5.1-5.1-5.1c-1.1,0-2.2,0.4-3,1l-8.6-9.9
			c0.5-0.9,0.8-1.9,0.8-2.9c0-3.1-2.5-5.7-5.7-5.7s-5.7,2.5-5.7,5.7c0,1.1,0.3,2.1,0.8,3L36.1,41.7 M49.8,6.7l-1.5,1.9l-31,37.3
			L16,47.4l1.5,1.3l31,26.1l1.3,1.1l1.3-1.1l31-25.8l1.5-1.3l-1.3-1.5l-31-37.6L49.8,6.7L49.8,6.7z M36.4,44.4l1.2-1.4l8.6-9.8
			l1-1.1l-0.8-1.3c-0.4-0.6-0.5-1.2-0.5-1.9c0-2,1.6-3.7,3.7-3.7c2,0,3.7,1.6,3.7,3.7c0,0.7-0.2,1.3-0.5,1.9L52,32.2l1,1.1l8.6,9.9
			l1.2,1.4l1.5-1.1c0.5-0.4,1.2-0.6,1.8-0.6c1.7,0,3.1,1.4,3.1,3.1s-1.4,3.1-3.1,3.1c-0.9,0-1.7-0.3-2.3-1l-1.2-1.2l-1.4,0.9
			l-8.6,5.8l-1.7,1.1l1.2,1.7c0.4,0.5,0.6,1.1,0.6,1.8c0,1.7-1.4,3.1-3.1,3.1s-3.1-1.4-3.1-3.1c0-0.6,0.2-1.3,0.6-1.8l1.2-1.7
			l-1.7-1.1L38,47.8l-1.4-0.9l-1.2,1.2c-0.6,0.6-1.4,1-2.3,1c-1.7,0-3.1-1.4-3.1-3.1s1.4-3.1,3.1-3.1c0.7,0,1.3,0.2,1.8,0.6
			L36.4,44.4L36.4,44.4z"/>
	</g>
</g>
<g>
	<path class="st2" d="M31.7,90.9h-1.3c-0.2,0-0.3,0-0.4-0.1c-0.1-0.1-0.2-0.2-0.2-0.3l-0.7-1.9h-3.9l-0.7,1.9c0,0.1-0.1,0.2-0.2,0.3
		c-0.1,0.1-0.2,0.1-0.4,0.1h-1.4l3.7-9.3h1.8L31.7,90.9z M28.7,87.4l-1.1-3.1c-0.1-0.1-0.1-0.3-0.2-0.5c-0.1-0.2-0.1-0.4-0.2-0.6
		c-0.1,0.2-0.1,0.4-0.2,0.6c-0.1,0.2-0.1,0.4-0.2,0.5l-1.1,3.1H28.7z"/>
	<path class="st2" d="M37.2,84.9c0,0.1,0,0.2-0.1,0.3c0,0.1-0.1,0.2-0.2,0.3l-3.1,4.1h3.3v1.2H32v-0.7c0-0.1,0-0.2,0.1-0.3
		c0-0.1,0.1-0.2,0.2-0.3l3.2-4.2h-3.2v-1.2h5V84.9z"/>
	<path class="st2" d="M44.1,84.3v6.6h-1c-0.2,0-0.3-0.1-0.4-0.3l-0.1-0.5c-0.3,0.3-0.6,0.5-0.9,0.7C41.4,90.9,41,91,40.5,91
		c-0.4,0-0.7-0.1-1-0.2c-0.3-0.1-0.5-0.3-0.7-0.5c-0.2-0.2-0.3-0.5-0.4-0.8c-0.1-0.3-0.1-0.6-0.1-1v-4.2h1.6v4.2
		c0,0.4,0.1,0.7,0.3,0.9c0.2,0.2,0.5,0.3,0.8,0.3c0.3,0,0.5-0.1,0.8-0.2c0.2-0.1,0.5-0.3,0.7-0.5v-4.8H44.1z"/>
	<path class="st2" d="M47.2,85.4c0.2-0.4,0.5-0.7,0.7-0.9c0.3-0.2,0.6-0.3,1-0.3c0.3,0,0.6,0.1,0.7,0.2l-0.1,1.2
		c0,0.1-0.1,0.1-0.1,0.2c0,0-0.1,0-0.2,0c-0.1,0-0.2,0-0.3,0c-0.1,0-0.3,0-0.4,0c-0.2,0-0.3,0-0.5,0.1c-0.1,0.1-0.3,0.1-0.4,0.2
		c-0.1,0.1-0.2,0.2-0.3,0.4c-0.1,0.1-0.2,0.3-0.2,0.5v4.1h-1.6v-6.6h0.9c0.2,0,0.3,0,0.3,0.1s0.1,0.2,0.1,0.3L47.2,85.4z"/>
	<path class="st2" d="M51.5,87.8c0,0.3,0.1,0.6,0.2,0.9c0.1,0.2,0.2,0.5,0.4,0.6c0.2,0.2,0.3,0.3,0.6,0.4c0.2,0.1,0.4,0.1,0.7,0.1
		c0.3,0,0.5,0,0.7-0.1c0.2-0.1,0.4-0.1,0.5-0.2c0.1-0.1,0.3-0.1,0.4-0.2c0.1-0.1,0.2-0.1,0.3-0.1c0.1,0,0.2,0,0.3,0.1l0.5,0.6
		c-0.2,0.2-0.4,0.4-0.6,0.5c-0.2,0.1-0.4,0.3-0.7,0.3c-0.2,0.1-0.5,0.1-0.7,0.2c-0.2,0-0.5,0.1-0.7,0.1c-0.5,0-0.9-0.1-1.3-0.2
		c-0.4-0.2-0.7-0.4-1-0.7c-0.3-0.3-0.5-0.7-0.7-1.1c-0.2-0.4-0.3-1-0.3-1.5c0-0.5,0.1-0.9,0.2-1.3c0.1-0.4,0.4-0.7,0.6-1
		c0.3-0.3,0.6-0.5,1-0.7c0.4-0.2,0.8-0.3,1.3-0.3c0.4,0,0.8,0.1,1.2,0.2c0.4,0.1,0.7,0.3,0.9,0.6c0.3,0.3,0.5,0.6,0.6,0.9
		c0.1,0.4,0.2,0.8,0.2,1.3c0,0.2,0,0.4-0.1,0.5c-0.1,0.1-0.2,0.1-0.3,0.1H51.5z M54.5,86.8c0-0.2,0-0.4-0.1-0.6
		c-0.1-0.2-0.1-0.3-0.3-0.5c-0.1-0.1-0.3-0.2-0.4-0.3c-0.2-0.1-0.4-0.1-0.6-0.1c-0.5,0-0.8,0.1-1.1,0.4c-0.3,0.3-0.4,0.6-0.5,1.1
		H54.5z"/>
	<path class="st2" d="M68.1,90.9h-1.3c-0.2,0-0.3,0-0.4-0.1c-0.1-0.1-0.2-0.2-0.2-0.3l-0.7-1.9h-3.9l-0.7,1.9c0,0.1-0.1,0.2-0.2,0.3
		c-0.1,0.1-0.2,0.1-0.4,0.1H59l3.7-9.3h1.8L68.1,90.9z M65.1,87.4l-1.1-3.1c-0.1-0.1-0.1-0.3-0.2-0.5c-0.1-0.2-0.1-0.4-0.2-0.6
		c-0.1,0.2-0.1,0.4-0.2,0.6c-0.1,0.2-0.1,0.4-0.2,0.5l-1.1,3.1H65.1z"/>
	<path class="st2" d="M77.4,86.2c0,0.7-0.1,1.3-0.3,1.9c-0.2,0.6-0.5,1.1-1,1.5c-0.4,0.4-0.9,0.7-1.5,1c-0.6,0.2-1.2,0.3-1.9,0.3
		h-3.6v-9.3h3.6c0.7,0,1.4,0.1,1.9,0.3c0.6,0.2,1.1,0.6,1.5,1c0.4,0.4,0.7,0.9,1,1.5S77.4,85.6,77.4,86.2z M75.6,86.2
		c0-0.5-0.1-1-0.2-1.4s-0.3-0.8-0.6-1c-0.3-0.3-0.6-0.5-0.9-0.6C73.5,83,73.1,83,72.7,83h-1.8v6.6h1.8c0.5,0,0.9-0.1,1.2-0.2
		c0.4-0.2,0.7-0.4,0.9-0.6c0.3-0.3,0.5-0.6,0.6-1C75.5,87.2,75.6,86.8,75.6,86.2z"/>
</g>
</svg>
