<?xml version="1.0" encoding="utf-8"?>
<!-- Generator: Adobe Illustrator 21.1.0, SVG Export Plug-In . SVG Version: 6.00 Build 0)  -->
<svg version="1.1" id="Layer_1" xmlns="http://www.w3.org/2000/svg" xmlns:xlink="http://www.w3.org/1999/xlink" x="0px" y="0px"
	 viewBox="0 0 100 100" style="enable-background:new 0 0 100 100;" xml:space="preserve">
<style type="text/css">
	.st0{fill:#0D5075;}
	.st1{fill:#0080FF;}
	.st2{fill:#F58536;}
	.st3{fill:#9D5025;}
	.st4{fill:#00AAF2;}
	.st5{fill:#F8982A;}
	.st6{fill:#FFFFFF;}
	.st7{fill:#3497DA;}
	.st8{fill:#D10019;}
	.st9{fill:#1A171B;}
	.st10{fill:#181616;}
	.st11{fill:#326CE5;}
	.st12{fill:#326DE5;}
	.st13{fill:#181F7A;}
	.st14{fill:#D9F6FE;}
	.st15{fill:#F3FCFE;}
	.st16{fill:#7484FE;}
	.st17{fill:#D7E0FF;}
	.st18{fill:#D4DDFF;}
	.st19{fill:#E6ECFE;}
	.st20{fill:#030328;}
	.st21{fill:#99B0FE;}
	.st22{fill:#73ABFF;}
	.st23{fill:#D9E2FE;}
	.st24{fill:#7382FE;}
	.st25{fill:#F3F6FE;}
	.st26{fill:#D4D9FE;}
	.st27{fill:#F7F9FE;}
	.st28{fill:#73ABFE;}
	.st29{fill:#0E0C43;}
	.st30{fill:#0E1749;}
	.st31{fill:#1A214E;}
	.st32{fill:#040404;}
	.st33{fill:#D1E3FE;}
	.st34{fill:#030348;}
	.st35{fill:#9EA6A9;}
	.st36{fill:#050505;}
	.st37{fill:#798082;}
	.st38{fill:#474F52;}
	.st39{fill:#2C3336;}
	.st40{fill:#039AD9;}
	.st41{fill:#C9E7EA;}
	.st42{fill:#293132;}
	.st43{fill:#7D8689;}
	.st44{fill:#4D535C;}
	.st45{fill:#4B515A;}
	.st46{fill:#7A8386;}
	.st47{fill:#040A0B;}
	.st48{fill:#1F2426;}
	.st49{fill:#090D0E;}
	.st50{fill:#FEFEFE;}
	.st51{fill:#616B70;}
	.st52{fill:#35393F;}
	.st53{fill:#4A5059;}
	.st54{fill:#61808B;}
	.st55{fill:#454D50;}
	.st56{fill:#AADCE0;}
	.st57{fill:#667384;}
	.st58{fill:#0D1213;}
	.st59{fill:#9FA5AC;}
	.st60{fill:#91BDC0;}
	.st61{fill:#3E4344;}
	.st62{fill:#474D4F;}
	.st63{fill:#030407;}
	.st64{fill:#495155;}
	.st65{fill:#9BA8B8;}
	.st66{fill:#677485;}
	.st67{fill:#030303;}
	.st68{fill:#F3E7C0;}
	.st69{fill:#C1D4EA;}
	.st70{fill:#CA514B;}
	.st71{fill:#9F4A45;}
	.st72{fill:#838079;}
	.st73{fill:#4F5967;}
	.st74{fill:#626C71;}
	.st75{fill:#BAB09B;}
	.st76{fill:#717377;}
	.st77{fill:#CDD3D7;}
	.st78{fill:#D72F30;}
	.st79{fill:#85827B;}
	.st80{fill:#CED3D9;}
	.st81{fill:#BE524D;}
	.st82{fill:#4C555E;}
	.st83{fill:#687486;}
	.st84{fill:#353C46;}
	.st85{fill:#4E5762;}
	.st86{fill:#9CA9B9;}
	.st87{fill:#808995;}
	.st88{fill:#23272B;}
	.st89{fill:#6B6C6E;}
	.st90{fill:#343B45;}
	.st91{fill:#818B97;}
	.st92{fill:#7E8894;}
	.st93{fill:#DFE3E8;}
	.st94{fill:#4F5863;}
	.st95{fill:#B6B8B9;}
	.st96{fill:#7F8995;}
	.st97{fill:#929EAF;}
	.st98{fill:#3C444E;}
	.st99{fill:#D0D5DE;}
	.st100{fill:#808A96;}
	.st101{fill:#505964;}
	.st102{fill:#D2D7DF;}
	.st103{fill:#828C98;}
	.st104{fill:#0E0F11;}
	.st105{fill:#4E5054;}
	.st106{fill:#D7DBE2;}
	.st107{fill:#6F7175;}
	.st108{fill:#03030E;}
	.st109{fill:#0C0D0F;}
	.st110{fill:#515A64;}
	.st111{fill:#00435A;}
	.st112{fill:#00AEDE;}
	.st113{fill:#004561;}
	.st114{fill:#1F1A17;}
	.st115{fill:#925470;}
	.st116{fill:#7CC639;}
	.st117{fill:#4E4540;}
	.st118{opacity:0.98;}
	.st119{fill:#EC1944;}
	.st120{fill:#E34D59;}
	.st121{fill:#003764;}
	.st122{fill:#40B4E5;}
	.st123{fill:#231F20;}
	.st124{fill:#E11A2C;}
	.st125{fill:#70A9FF;}
	.st126{fill:#CFE1FF;}
	.st127{fill:none;stroke:#000000;stroke-width:0.5;stroke-miterlimit:10;}
	.st128{fill:#00C8FA;}
	.st129{fill:#00A9D2;}
	.st130{opacity:0.5;fill:#0EB7ED;enable-background:new    ;}
	.st131{fill:#8C929D;}
	.st132{fill:#E24329;}
	.st133{fill:#FC6D26;}
	.st134{fill:#FCA326;}
	.st135{fill:#3882FA;}
	.st136{fill:#4052D7;}
	.st137{fill:#387EFA;}
	.st138{fill:#0079D6;}
	.st139{fill:#757575;}
	.st140{fill:#4285F4;}
	.st141{fill:#EA4335;}
	.st142{fill:#FBBC05;}
	.st143{fill:#34A853;}
	.st144{fill:none;}
	.st145{fill:#4489F2;}
	.st146{fill:#407FDD;}
</style>
<g>
	<polygon class="st138" points="48.3,32 48.3,44.1 55.6,41.2 55.6,34.7 	"/>
	<path class="st138" d="M41,33.8v8.3l5.8,2V32L41,33.8z M42.3,41.6l-0.9-0.3v-6.6l0.9-0.3V41.6z M44,42.2l-1.3-0.4v-7.5l1.3-0.4
		V42.2z M46,42.9l-1.6-0.5v-8.7l1.6-0.5V42.9z"/>
	<polygon class="st138" points="30.6,32 30.6,44.1 37.9,41.2 37.9,34.7 	"/>
	<path class="st138" d="M23.3,33.8v8.3l5.8,2V32L23.3,33.8z M24.6,41.6l-0.9-0.3v-6.6l0.9-0.3V41.6z M26.3,42.2L25,41.8l0-7.5
		l1.3-0.4L26.3,42.2z M28.4,42.9l-1.6-0.5v-8.7l1.6-0.5V42.9z"/>
	<polygon class="st138" points="65.9,32 65.9,44.1 73.3,41.2 73.3,34.7 	"/>
	<path class="st138" d="M58.7,33.8v8.3l5.8,2V32L58.7,33.8z M60,41.6l-0.9-0.3v-6.6l0.9-0.3V41.6z M61.7,42.2l-1.3-0.4v-7.5l1.3-0.4
		V42.2z M63.7,42.9l-1.6-0.5v-8.7l1.6-0.5V42.9z"/>
	<polygon class="st138" points="38.8,44.4 38.8,56.5 46.2,53.6 46.2,47.1 	"/>
	<path class="st138" d="M31.5,46.2v8.3l5.8,2V44.4L31.5,46.2z M32.9,54L32,53.7v-6.6l0.9-0.3V54z M34.6,54.6l-1.3-0.4v-7.5l1.3-0.4
		V54.6z M36.6,55.3L35,54.8v-8.7l1.6-0.5V55.3z"/>
	<polygon class="st138" points="56.8,44.4 56.8,56.5 64.2,53.6 64.2,47.1 	"/>
	<path class="st138" d="M49.5,46.2v8.3l5.8,2V44.4L49.5,46.2z M50.9,54L50,53.7v-6.6l0.9-0.3V54z M52.5,54.6l-1.3-0.4v-7.5l1.3-0.4
		V54.6z M54.6,55.3L53,54.8v-8.7l1.6-0.5V55.3z"/>
	<polygon class="st138" points="38.8,19.6 38.8,31.7 46.2,28.8 46.2,22.3 	"/>
	<path class="st138" d="M31.5,21.4v8.3l5.8,2V19.6L31.5,21.4z M32.9,29.2L32,28.9v-6.6l0.9-0.3V29.2z M34.6,29.8l-1.3-0.4v-7.5
		l1.3-0.4V29.8z M36.6,30.5L35,30v-8.7l1.6-0.5V30.5z"/>
	<polygon class="st138" points="56.8,19.6 56.8,31.7 64.2,28.8 64.2,22.3 	"/>
	<path class="st138" d="M49.5,21.4v8.3l5.8,2V19.6L49.5,21.4z M50.9,29.2L50,28.9v-6.6l0.9-0.3V29.2z M52.5,29.8l-1.3-0.4v-7.5
		l1.3-0.4V29.8z M54.6,30.5L53,30v-8.7l1.6-0.5V30.5z"/>
</g>
<g>
	<path class="st138" d="M10,64.5l3.5,8.9h-1.3l-1-2.7H7.4l-1,2.7H5.2l3.5-8.9L10,64.5z M10.8,69.7l-1.5-4.2h0l-1.5,4.2H10.8z"/>
	<path class="st138" d="M17.5,67.9h-3.6V67h5v0.7l-3.9,4.8h4.1v0.9h-5.4v-0.8L17.5,67.9z"/>
	<path class="st138" d="M24.5,73.4v-1h0c-0.2,0.4-0.5,0.7-0.9,0.9c-0.4,0.2-0.8,0.3-1.2,0.3c-0.4,0-0.7,0-1.1-0.2
		c-0.3-0.1-0.5-0.3-0.7-0.5c-0.2-0.2-0.3-0.5-0.4-0.7c-0.1-0.3-0.1-0.6-0.1-1V67h1.1v4.4c0,0.4,0.1,0.7,0.3,1c0.3,0.2,0.6,0.4,1,0.3
		c0.3,0,0.6,0,0.8-0.2c0.2-0.1,0.4-0.2,0.6-0.4c0.2-0.2,0.3-0.4,0.4-0.6c0.1-0.3,0.1-0.5,0.1-0.8V67h1.1v6.4H24.5z"/>
	<path class="st138" d="M28,67v1.4h0c0.2-0.5,0.5-0.9,1-1.2c0.4-0.3,0.9-0.4,1.4-0.3v1.1c-0.4,0-0.7,0.1-1.1,0.2
		c-0.3,0.1-0.5,0.3-0.7,0.5c-0.2,0.2-0.3,0.5-0.4,0.8c-0.1,0.4-0.1,0.7-0.1,1.1v2.9H27V67H28z"/>
	<path class="st138" d="M35.6,73c-0.5,0.4-1.2,0.6-1.8,0.5c-0.5,0-0.9-0.1-1.3-0.2c-0.4-0.2-0.7-0.4-1-0.7c-0.3-0.3-0.5-0.7-0.6-1.1
		c-0.1-0.4-0.2-0.9-0.2-1.4c0-0.5,0.1-0.9,0.2-1.3c0.1-0.4,0.4-0.7,0.6-1.1c0.3-0.3,0.6-0.5,1-0.7c0.4-0.2,0.8-0.3,1.2-0.2
		c0.5,0,1,0.1,1.4,0.4c0.4,0.2,0.7,0.5,0.9,0.9c0.2,0.4,0.4,0.8,0.5,1.2c0.1,0.4,0.1,0.8,0.1,1.2h-4.8c0,0.3,0,0.5,0.1,0.8
		c0.1,0.2,0.2,0.5,0.4,0.7c0.2,0.2,0.4,0.4,0.6,0.5c0.3,0.1,0.6,0.2,0.9,0.2c0.4,0,0.8-0.1,1.1-0.3c0.3-0.2,0.5-0.6,0.6-1h1
		C36.4,72,36.1,72.6,35.6,73z M35.3,68.8c-0.1-0.2-0.2-0.4-0.4-0.6c-0.2-0.2-0.4-0.3-0.6-0.4c-0.2-0.1-0.5-0.1-0.7-0.1
		c-0.3,0-0.5,0-0.7,0.1c-0.2,0.1-0.4,0.2-0.6,0.4c-0.2,0.2-0.3,0.4-0.4,0.6c-0.1,0.2-0.1,0.5-0.2,0.7h3.7
		C35.5,69.3,35.4,69.1,35.3,68.8z"/>
	<path class="st138" d="M5.7,80.3c0-0.6,0.1-1.2,0.3-1.8c0.2-0.5,0.5-1,0.8-1.5c0.4-0.4,0.8-0.7,1.3-1c0.6-0.2,1.2-0.4,1.8-0.4
		c0.5,0,0.9,0.1,1.4,0.2c0.3,0.1,0.7,0.3,1,0.5c0.2,0.2,0.5,0.4,0.6,0.7c0.1,0.2,0.3,0.4,0.4,0.7c0.1,0.2,0.1,0.4,0.2,0.5
		c0,0.2,0,0.2,0,0.3H13c-0.1-0.4-0.2-0.7-0.4-1c-0.2-0.3-0.4-0.6-0.7-0.8c-0.3-0.2-0.6-0.4-0.9-0.5c-1.4-0.4-2.9,0-3.8,1.1
		c-0.3,0.4-0.6,0.9-0.7,1.3c-0.3,1.1-0.3,2.2,0,3.2c0.2,0.5,0.4,0.9,0.7,1.3c0.7,0.8,1.7,1.3,2.7,1.2c0.4,0,0.8-0.1,1.2-0.3
		c0.4-0.2,0.7-0.4,1-0.7c0.6-0.6,0.9-1.4,1-2.2h0.5c0,0.5-0.2,1-0.4,1.5c-0.2,0.4-0.5,0.8-0.8,1.2c-0.3,0.3-0.7,0.6-1.1,0.8
		c-0.4,0.2-0.9,0.3-1.4,0.3c-0.6,0-1.2-0.1-1.8-0.4c-0.5-0.2-1-0.6-1.3-1c-0.4-0.4-0.7-0.9-0.8-1.5C5.8,81.6,5.7,80.9,5.7,80.3z"/>
	<path class="st138" d="M14.4,81.6c0-0.4,0.1-0.9,0.2-1.3c0.1-0.4,0.3-0.8,0.6-1.1c0.3-0.3,0.6-0.6,0.9-0.7c0.8-0.4,1.7-0.4,2.5,0
		c0.4,0.2,0.7,0.4,0.9,0.7c0.3,0.3,0.4,0.7,0.6,1.1c0.1,0.4,0.2,0.9,0.2,1.3c0,0.4-0.1,0.9-0.2,1.3c-0.1,0.4-0.3,0.8-0.6,1.1
		c-0.3,0.3-0.6,0.6-0.9,0.7c-0.8,0.4-1.7,0.4-2.5,0c-0.4-0.2-0.7-0.4-0.9-0.7c-0.3-0.3-0.4-0.7-0.6-1.1C14.5,82.4,14.4,82,14.4,81.6
		z M14.9,81.6c0,0.4,0.1,0.7,0.2,1.1c0.1,0.3,0.3,0.7,0.5,0.9c0.2,0.3,0.5,0.5,0.8,0.7c0.7,0.3,1.5,0.3,2.1,0
		c0.3-0.2,0.6-0.4,0.8-0.7c0.2-0.3,0.4-0.6,0.5-0.9c0.2-0.7,0.2-1.5,0-2.2c-0.1-0.3-0.3-0.7-0.5-0.9c-0.2-0.3-0.5-0.5-0.8-0.7
		c-0.7-0.3-1.5-0.3-2.1,0c-0.3,0.2-0.6,0.4-0.8,0.7c-0.2,0.3-0.4,0.6-0.5,0.9C15,80.8,14.9,81.2,14.9,81.6L14.9,81.6z"/>
	<path class="st138" d="M21.4,78.4h0.5v1.4h0c0.1-0.2,0.2-0.5,0.4-0.6c0.3-0.4,0.7-0.7,1.2-0.8c0.2-0.1,0.5-0.1,0.7-0.1
		c0.3,0,0.7,0,1,0.1c0.2,0.1,0.5,0.2,0.6,0.4c0.2,0.1,0.3,0.3,0.4,0.5c0.1,0.2,0.2,0.4,0.2,0.6c0,0.2,0.1,0.4,0.1,0.6
		c0,0.2,0,0.3,0,0.5v4H26v-4c0-0.2,0-0.4,0-0.6c0-0.2-0.1-0.5-0.2-0.7c-0.1-0.2-0.3-0.4-0.5-0.6c-0.3-0.2-0.7-0.3-1-0.2
		c-0.3,0-0.7,0.1-1,0.2c-0.3,0.1-0.5,0.3-0.7,0.6c-0.2,0.2-0.4,0.5-0.5,0.8c-0.1,0.3-0.2,0.7-0.2,1.1v3.5h-0.5L21.4,78.4z"/>
	<path class="st138" d="M30.3,78.8h-1.4v4.5c0,0.2,0,0.4,0.1,0.6c0,0.1,0.1,0.3,0.3,0.3c0.1,0.1,0.3,0.1,0.4,0.1c0.2,0,0.4,0,0.6,0
		v0.4c-0.2,0-0.5,0-0.7,0c-0.2,0-0.4-0.1-0.6-0.2c-0.2-0.1-0.3-0.3-0.4-0.5c-0.1-0.3-0.2-0.6-0.1-0.9v-4.5h-1.2v-0.4h1.2v-2h0.5v2
		h1.4L30.3,78.8z"/>
	<path class="st138" d="M35.4,83.5L35.4,83.5c-0.1,0.2-0.2,0.4-0.3,0.5c-0.1,0.2-0.3,0.3-0.5,0.5c-0.2,0.1-0.4,0.2-0.7,0.3
		c-0.3,0.1-0.6,0.1-0.8,0.1c-0.6,0-1.1-0.1-1.6-0.4c-0.4-0.3-0.6-0.9-0.6-1.4c0-0.6,0.3-1.2,0.8-1.5c0.2-0.1,0.5-0.2,0.8-0.3
		c0.3-0.1,0.5-0.1,0.8-0.1l0.7-0.1c0.3,0,0.5-0.1,0.8-0.1c0.2,0,0.3-0.1,0.4-0.2c0.1-0.1,0.2-0.2,0.2-0.4c0-0.2,0-0.4,0-0.6
		c0-0.2,0-0.3-0.1-0.5c-0.1-0.2-0.2-0.3-0.3-0.4c-0.2-0.1-0.3-0.2-0.5-0.3c-0.3-0.1-0.5-0.1-0.8-0.1c-0.5,0-1,0.1-1.4,0.4
		c-0.4,0.3-0.6,0.8-0.6,1.3h-0.5c0-0.6,0.2-1.2,0.7-1.6c0.5-0.4,1.2-0.6,1.8-0.5c0.6-0.1,1.2,0.1,1.7,0.5c0.3,0.3,0.5,0.7,0.5,1.2
		v3.7c0,0.1,0,0.2,0,0.3c0,0.1,0,0.2,0,0.2c0,0.1,0.1,0.1,0.1,0.2c0.1,0,0.2,0.1,0.2,0.1c0.1,0,0.2,0,0.3,0v0.4c-0.1,0-0.3,0-0.4,0
		c-0.2,0-0.3,0-0.5-0.1c-0.1,0-0.2-0.1-0.3-0.2c-0.1-0.1-0.1-0.2-0.1-0.3c0-0.1,0-0.2,0-0.4L35.4,83.5z M35.4,81.1
		c-0.1,0.2-0.3,0.3-0.5,0.3c-0.3,0.1-0.5,0.1-0.8,0.1l-0.8,0.1c-0.2,0-0.5,0.1-0.7,0.1c-0.2,0-0.4,0.1-0.6,0.2
		c-0.2,0.1-0.3,0.3-0.5,0.4c-0.1,0.2-0.2,0.5-0.2,0.7c0,0.4,0.1,0.8,0.4,1.1c0.4,0.2,0.8,0.4,1.2,0.3c0.4,0,0.9-0.1,1.3-0.3
		c0.3-0.2,0.5-0.4,0.7-0.7c0.2-0.2,0.3-0.5,0.3-0.7c0-0.2,0.1-0.3,0.1-0.5L35.4,81.1z"/>
	<path class="st138" d="M37.5,77.1v-1.3H38v1.3H37.5z M37.5,84.8v-6.4H38v6.4H37.5z"/>
	<path class="st138" d="M39.5,78.4H40v1.4h0c0.1-0.2,0.2-0.5,0.4-0.6c0.3-0.4,0.7-0.7,1.2-0.8c0.2-0.1,0.5-0.1,0.7-0.1
		c0.3,0,0.7,0,1,0.1c0.2,0.1,0.5,0.2,0.6,0.4c0.2,0.1,0.3,0.3,0.4,0.5c0.1,0.2,0.2,0.4,0.2,0.6c0,0.2,0.1,0.4,0.1,0.6
		c0,0.2,0,0.3,0,0.5v4h-0.5v-4c0-0.2,0-0.4,0-0.6c0-0.2-0.1-0.5-0.2-0.7c-0.1-0.2-0.3-0.4-0.5-0.6c-0.3-0.2-0.7-0.3-1-0.2
		c-0.3,0-0.7,0.1-1,0.2c-0.3,0.1-0.5,0.3-0.7,0.6c-0.2,0.2-0.4,0.5-0.5,0.8c-0.1,0.3-0.2,0.7-0.2,1.1v3.5h-0.5L39.5,78.4z"/>
	<path class="st138" d="M46.1,81.6L46.1,81.6c0,0.4,0,0.8,0.2,1.1c0.1,0.3,0.2,0.6,0.4,0.9c0.2,0.3,0.4,0.5,0.7,0.6
		c0.3,0.2,0.7,0.2,1,0.2c0.6,0,1.1-0.1,1.5-0.5c0.4-0.4,0.7-0.9,0.8-1.4h0.5c-0.1,0.7-0.4,1.3-0.9,1.7c-0.5,0.4-1.2,0.6-1.9,0.6
		c-0.4,0-0.9-0.1-1.2-0.3c-0.3-0.2-0.6-0.4-0.9-0.7c-0.2-0.3-0.4-0.7-0.5-1c-0.1-0.4-0.2-0.9-0.2-1.3c0-0.4,0.1-0.9,0.2-1.3
		c0.1-0.4,0.3-0.8,0.5-1.1c0.2-0.3,0.6-0.6,0.9-0.7c0.4-0.2,0.8-0.3,1.3-0.3c0.4,0,0.8,0.1,1.2,0.2c0.3,0.2,0.6,0.4,0.9,0.7
		c0.2,0.3,0.4,0.6,0.5,1c0.1,0.4,0.2,0.8,0.2,1.2c0,0,0,0.1,0,0.1s0,0.1,0,0.1L46.1,81.6z M50.8,81.2c0-0.3-0.1-0.7-0.2-1
		c-0.1-0.3-0.2-0.6-0.4-0.8c-0.2-0.2-0.4-0.4-0.7-0.6c-0.3-0.1-0.6-0.2-1-0.2c-0.4,0-0.7,0.1-1,0.2c-0.3,0.1-0.5,0.3-0.7,0.6
		c-0.2,0.2-0.4,0.5-0.5,0.8c-0.1,0.3-0.2,0.6-0.2,1L50.8,81.2z"/>
	<path class="st138" d="M52.9,79.8L52.9,79.8c0.1-0.2,0.2-0.4,0.4-0.6c0.2-0.2,0.3-0.4,0.6-0.5c0.2-0.1,0.5-0.2,0.7-0.3
		c0.3-0.1,0.6-0.1,0.8-0.1v0.5c-0.3,0-0.6,0-0.9,0.1c-0.3,0.1-0.7,0.3-0.9,0.5c-0.1,0.1-0.2,0.2-0.3,0.4c-0.1,0.1-0.2,0.3-0.2,0.4
		C53,80.3,53,80.5,53,80.7c0,0.2-0.1,0.4-0.1,0.6v3.5h-0.5v-6.4h0.5L52.9,79.8z"/>
	<path class="st138" d="M65.2,78.4c0-0.3-0.1-0.7-0.2-1c-0.1-0.3-0.3-0.5-0.6-0.7c-0.3-0.2-0.6-0.3-0.9-0.4
		c-0.4-0.1-0.7-0.1-1.1-0.1c-0.3,0-0.5,0-0.8,0.1c-0.3,0.1-0.5,0.2-0.8,0.3c-0.2,0.1-0.5,0.3-0.6,0.6C60,77.4,60,77.7,60,78
		c0,0.3,0.1,0.6,0.3,0.9c0.2,0.2,0.4,0.4,0.7,0.5c0.3,0.1,0.6,0.3,1,0.3c0.4,0.1,0.7,0.2,1.1,0.2s0.7,0.2,1.1,0.3
		c0.3,0.1,0.7,0.2,1,0.4c0.3,0.2,0.5,0.4,0.7,0.7c0.2,0.3,0.3,0.7,0.3,1.1c0,0.4-0.1,0.8-0.3,1.2c-0.2,0.3-0.4,0.6-0.8,0.8
		c-0.3,0.2-0.7,0.3-1,0.4c-0.3,0.1-0.7,0.1-1.1,0.1c-0.5,0-1-0.1-1.5-0.2c-0.4-0.1-0.8-0.3-1.2-0.5c-0.3-0.3-0.6-0.6-0.8-1
		c-0.2-0.5-0.3-1-0.3-1.5h0.5c0,0.4,0,0.9,0.2,1.2c0.2,0.3,0.4,0.6,0.7,0.8c0.3,0.2,0.7,0.4,1,0.5c0.4,0.1,0.8,0.1,1.3,0.1
		c0.3,0,0.6,0,0.9-0.1c0.3-0.1,0.6-0.2,0.8-0.4c0.3-0.2,0.5-0.4,0.6-0.6c0.2-0.3,0.3-0.6,0.3-1c0-0.3-0.1-0.6-0.3-0.9
		c-0.2-0.2-0.4-0.4-0.7-0.6c-0.3-0.2-0.6-0.3-1-0.3c-0.4-0.1-0.7-0.2-1.1-0.2c-0.4-0.1-0.8-0.2-1.1-0.3c-0.3-0.1-0.7-0.2-1-0.4
		c-0.3-0.2-0.5-0.4-0.7-0.7c-0.2-0.3-0.3-0.7-0.3-1c0-0.4,0.1-0.8,0.3-1.1c0.2-0.3,0.4-0.6,0.7-0.7c0.3-0.2,0.6-0.3,1-0.4
		c0.3-0.1,0.7-0.1,1.1-0.1c0.4,0,0.9,0,1.3,0.2c0.4,0.1,0.7,0.3,1.1,0.5c0.3,0.2,0.6,0.5,0.7,0.9c0.2,0.4,0.3,0.8,0.3,1.3L65.2,78.4
		z"/>
	<path class="st138" d="M67.4,81.6L67.4,81.6c0,0.4,0,0.8,0.2,1.1c0.1,0.3,0.2,0.6,0.4,0.9c0.2,0.3,0.4,0.5,0.7,0.6
		c0.3,0.2,0.7,0.2,1,0.2c0.6,0,1.1-0.1,1.5-0.5c0.4-0.4,0.7-0.9,0.8-1.4h0.5c-0.1,0.7-0.4,1.3-0.9,1.7c-0.5,0.4-1.2,0.6-1.9,0.6
		c-0.4,0-0.9-0.1-1.2-0.3c-0.3-0.2-0.6-0.4-0.9-0.7c-0.2-0.3-0.4-0.7-0.5-1c-0.1-0.4-0.2-0.9-0.2-1.3c0-0.4,0.1-0.9,0.2-1.3
		c0.1-0.4,0.3-0.8,0.5-1.1c0.2-0.3,0.6-0.6,0.9-0.7c0.4-0.2,0.8-0.3,1.3-0.3c0.4,0,0.8,0.1,1.2,0.2c0.3,0.2,0.6,0.4,0.9,0.7
		c0.2,0.3,0.4,0.6,0.5,1c0.1,0.4,0.2,0.8,0.2,1.2c0,0,0,0.1,0,0.1c0,0.1,0,0.1,0,0.1L67.4,81.6z M72.1,81.2c0-0.3-0.1-0.7-0.2-1
		c-0.1-0.3-0.2-0.6-0.4-0.8c-0.2-0.2-0.4-0.4-0.7-0.6c-0.3-0.1-0.6-0.2-1-0.2c-0.4,0-0.7,0.1-1,0.2c-0.3,0.1-0.5,0.3-0.7,0.6
		c-0.2,0.2-0.4,0.5-0.5,0.8c-0.1,0.3-0.2,0.6-0.2,1L72.1,81.2z"/>
	<path class="st138" d="M74.1,79.8L74.1,79.8c0.1-0.2,0.2-0.4,0.4-0.6c0.2-0.2,0.3-0.4,0.6-0.5c0.2-0.1,0.5-0.2,0.7-0.3
		c0.3-0.1,0.6-0.1,0.8-0.1v0.5c-0.3,0-0.6,0-0.9,0.1c-0.3,0.1-0.7,0.3-0.9,0.5c-0.1,0.1-0.2,0.2-0.3,0.4c-0.1,0.1-0.2,0.3-0.2,0.4
		c-0.1,0.2-0.1,0.3-0.1,0.5c0,0.2-0.1,0.4-0.1,0.6v3.5h-0.5v-6.4h0.5V79.8z"/>
	<path class="st138" d="M79.8,84.8h-0.6l-2.6-6.4h0.5l2.4,5.9l0,0l2.2-5.9h0.5L79.8,84.8z"/>
	<path class="st138" d="M83,77.1v-1.3h0.5v1.3H83z M83,84.8v-6.4h0.5v6.4H83z"/>
	<path class="st138" d="M89.8,80.3c0-0.3-0.1-0.5-0.2-0.7c-0.1-0.2-0.3-0.4-0.5-0.5c-0.2-0.2-0.4-0.3-0.7-0.3
		c-0.3-0.1-0.5-0.1-0.8-0.1c-0.4,0-0.7,0.1-1.1,0.2c-0.3,0.2-0.6,0.4-0.8,0.7c-0.2,0.3-0.4,0.6-0.5,0.9c-0.1,0.3-0.2,0.7-0.2,1.1
		c0,0.4,0,0.8,0.2,1.2c0.1,0.4,0.3,0.7,0.5,1c0.2,0.3,0.5,0.5,0.8,0.6c0.3,0.2,0.7,0.2,1.1,0.2c0.3,0,0.6,0,0.8-0.2
		c0.2-0.1,0.5-0.2,0.7-0.4c0.2-0.2,0.4-0.4,0.5-0.6c0.1-0.3,0.2-0.5,0.2-0.8h0.5c0,0.4-0.1,0.7-0.3,1c-0.1,0.3-0.4,0.5-0.6,0.8
		c-0.2,0.2-0.5,0.4-0.8,0.5C87.8,85,87,85,86.3,84.7c-0.4-0.2-0.7-0.4-0.9-0.8c-0.3-0.3-0.4-0.7-0.6-1.1c-0.1-0.4-0.2-0.9-0.2-1.3
		c0-0.4,0.1-0.9,0.2-1.3c0.1-0.4,0.3-0.7,0.6-1c0.3-0.3,0.6-0.5,0.9-0.7c0.4-0.2,0.8-0.3,1.3-0.3c0.3,0,0.7,0,1,0.1
		c0.3,0.1,0.6,0.2,0.8,0.4c0.2,0.2,0.4,0.4,0.6,0.7c0.2,0.3,0.2,0.6,0.3,0.9L89.8,80.3z"/>
	<path class="st138" d="M91.6,81.6L91.6,81.6c0,0.4,0,0.8,0.2,1.1c0.1,0.3,0.2,0.6,0.4,0.9c0.2,0.3,0.4,0.5,0.7,0.6
		c0.3,0.2,0.7,0.2,1,0.2c0.6,0,1.1-0.1,1.5-0.5c0.4-0.4,0.7-0.9,0.8-1.4h0.5c-0.1,0.7-0.4,1.3-0.9,1.7c-0.5,0.4-1.2,0.6-1.9,0.6
		c-0.4,0-0.9-0.1-1.2-0.3c-0.3-0.2-0.6-0.4-0.9-0.7c-0.2-0.3-0.4-0.7-0.5-1c-0.1-0.4-0.2-0.9-0.2-1.3c0-0.4,0.1-0.9,0.2-1.3
		c0.1-0.4,0.3-0.8,0.5-1.1c0.2-0.3,0.6-0.6,0.9-0.7c0.4-0.2,0.8-0.3,1.3-0.3c0.4,0,0.8,0.1,1.2,0.2c0.3,0.2,0.6,0.4,0.9,0.7
		c0.2,0.3,0.4,0.6,0.5,1c0.1,0.4,0.2,0.8,0.2,1.2c0,0,0,0.1,0,0.1c0,0.1,0,0.1,0,0.1L91.6,81.6z M96.3,81.2c0-0.3-0.1-0.7-0.2-1
		c-0.1-0.3-0.2-0.6-0.4-0.8c-0.2-0.2-0.4-0.4-0.7-0.6c-0.3-0.1-0.6-0.2-1-0.2c-0.4,0-0.7,0.1-1,0.2c-0.3,0.1-0.5,0.3-0.7,0.6
		c-0.2,0.2-0.4,0.5-0.5,0.8c-0.1,0.3-0.2,0.6-0.2,1L96.3,81.2z"/>
</g>
</svg>
