<?xml version="1.0" encoding="utf-8"?>
<!-- Generator: Adobe Illustrator 22.1.0, SVG Export Plug-In . SVG Version: 6.00 Build 0)  -->
<svg version="1.1" id="Layer_1" xmlns="http://www.w3.org/2000/svg" xmlns:xlink="http://www.w3.org/1999/xlink" x="0px" y="0px"
	 viewBox="0 0 100 100" style="enable-background:new 0 0 100 100;" xml:space="preserve">
<style type="text/css">
	.st0{fill:#996FAB;}
	.st1{fill:#7F4B96;}
</style>
<g>
	<polygon class="st0" points="50,41.8 50,58.2 59.9,54.3 59.9,45.5 	"/>
	<path class="st1" d="M40.1,44.2v11.2l7.9,2.7V41.8L40.1,44.2z M41.9,54.8l-1.2-0.4v-8.9l1.2-0.4V54.8z M44.2,55.6l-1.8-0.5V44.9
		l1.8-0.5V55.6z M46.9,56.6l-2.2-0.7V44.1l2.2-0.7V56.6z"/>
	<polygon class="st0" points="26,41.8 26,58.2 35.9,54.3 35.9,45.5 	"/>
	<path class="st1" d="M16.1,44.2v11.2l7.9,2.7V41.8L16.1,44.2z M17.9,54.8l-1.2-0.4v-8.9l1.2-0.4V54.8z M20.2,55.6l-1.8-0.5V44.9
		l1.8-0.5V55.6z M23,56.6l-2.2-0.7V44.1l2.2-0.7V56.6z"/>
	<polygon class="st0" points="73.8,41.8 73.8,58.2 83.9,54.3 83.9,45.5 	"/>
	<path class="st1" d="M64.1,44.2v11.2l7.9,2.7V41.8L64.1,44.2z M65.9,54.8l-1.2-0.4v-8.9l1.2-0.4V54.8z M68.2,55.6l-1.8-0.5V44.9
		l1.8-0.5V55.6z M70.9,56.6l-2.2-0.7V44.1l2.2-0.7V56.6z"/>
	<polygon class="st0" points="37.1,58.6 37.1,75 47.2,71.1 47.2,62.3 	"/>
	<path class="st1" d="M27.2,61v11.2l7.9,2.7V58.6L27.2,61z M29.1,71.6l-1.2-0.4v-8.9l1.2-0.4V71.6z M31.4,72.4l-1.8-0.5V61.7
		l1.8-0.5V72.4z M34.1,73.4L32,72.7V60.9l2.2-0.7V73.4z"/>
	<polygon class="st0" points="61.5,58.6 61.5,75 71.5,71.1 71.5,62.3 	"/>
	<path class="st1" d="M51.6,61v11.2l7.9,2.7V58.6L51.6,61z M53.5,71.6l-1.2-0.4v-8.9l1.2-0.4V71.6z M55.7,72.4l-1.8-0.5V61.7
		l1.8-0.5V72.4z M58.5,73.4l-2.2-0.7V60.9l2.2-0.7V73.4z"/>
	<polygon class="st0" points="37.1,25 37.1,41.4 47.2,37.5 47.2,28.7 	"/>
	<path class="st1" d="M27.2,27.4v11.2l7.9,2.7V25L27.2,27.4z M29.1,38l-1.2-0.4v-8.9l1.2-0.4V38z M31.4,38.8l-1.8-0.5V28.1l1.8-0.5
		V38.8z M34.1,39.8L32,39.1V27.3l2.2-0.7V39.8z"/>
	<polygon class="st0" points="61.5,25 61.5,41.4 71.5,37.5 71.5,28.7 	"/>
	<path class="st1" d="M51.6,27.4v11.2l7.9,2.7V25L51.6,27.4z M53.5,38l-1.2-0.4v-8.9l1.2-0.4V38z M55.7,38.8l-1.8-0.5V28.1l1.8-0.5
		V38.8z M58.5,39.8l-2.2-0.7V27.3l2.2-0.7V39.8z"/>
</g>
</svg>
