<?xml version="1.0" encoding="utf-8"?>
<!-- Generator: Adobe Illustrator 22.1.0, SVG Export Plug-In . SVG Version: 6.00 Build 0)  -->
<svg version="1.1" id="Layer_1" xmlns="http://www.w3.org/2000/svg" xmlns:xlink="http://www.w3.org/1999/xlink" x="0px" y="0px"
	 viewBox="0 0 100 100" style="enable-background:new 0 0 100 100;" xml:space="preserve">
<style type="text/css">
	.st0{fill:#00AAF2;}
</style>
<g>
	<path class="st0" d="M52.2,43.9c-0.3,0.1-0.5,0.2-0.8,0.2v15.3c0.2,0,0.4,0.1,0.6,0.2l7.8-5c-0.2-0.4-0.2-0.9-0.2-1.4
		c0-0.7,0.2-1.5,0.6-2.1L52.2,43.9z"/>
	<path class="st0" d="M50,25L25.1,54.4L50,75l24.8-20.6L50,25z M63.4,57.3c-0.9,0-1.8-0.3-2.5-0.9L53.6,61c0.5,0.7,0.7,1.5,0.8,2.3
		c0.3,2.2-1.1,4.2-3.3,4.6c-2.2,0.3-4.2-1.1-4.6-3.3c-0.1-0.4-0.1-0.8,0-1.3c0-0.8,0.2-1.6,0.7-2.2l-7.7-5c-1.5,1.5-4,1.5-5.5,0
		c-0.7-0.7-1.2-1.8-1.2-2.8c0-2.2,1.8-4,4-4c0.8,0,1.6,0.2,2.2,0.7l8-7.4c-0.6-0.8-1-1.8-1-2.8c0-2.5,2-4.4,4.5-4.4
		c2.5,0,4.4,2,4.4,4.4c0,1-0.4,2-1,2.8l7.7,7.2c2-1,4.4-0.3,5.4,1.7c1,2,0.3,4.4-1.7,5.4C64.6,57.1,64,57.3,63.4,57.3z"/>
	<path class="st0" d="M40.2,51.6c0.4,0.9,0.5,1.9,0.2,2.8l8.2,5.3c0.2-0.1,0.4-0.2,0.7-0.2V44.2c-0.3,0-0.6-0.1-0.8-0.3L40.2,51.6z"
		/>
</g>
</svg>
