<?xml version="1.0" encoding="utf-8"?>
<!-- Generator: Adobe Illustrator 22.1.0, SVG Export Plug-In . SVG Version: 6.00 Build 0)  -->
<svg version="1.1" id="Layer_1" xmlns="http://www.w3.org/2000/svg" xmlns:xlink="http://www.w3.org/1999/xlink" x="0px" y="0px"
	 viewBox="0 0 100 100" style="enable-background:new 0 0 100 100;" xml:space="preserve">
<style type="text/css">
	.st0{fill:#996FAB;}
	.st1{fill:#7F4B96;}
</style>
<g>
	<polygon class="st0" points="48.3,32 48.3,44.1 55.6,41.2 55.6,34.7 	"/>
	<path class="st1" d="M41,33.8v8.3l5.8,2V32L41,33.8z M42.3,41.6l-0.9-0.3v-6.6l0.9-0.3V41.6z M44,42.2l-1.3-0.4v-7.5l1.3-0.4V42.2z
		 M46,42.9l-1.6-0.5v-8.7l1.6-0.5V42.9z"/>
	<polygon class="st0" points="30.6,32 30.6,44.1 37.9,41.2 37.9,34.7 	"/>
	<path class="st1" d="M23.3,33.8v8.3l5.8,2V32L23.3,33.8z M24.6,41.6l-0.9-0.3v-6.6l0.9-0.3V41.6z M26.3,42.2L25,41.8v-7.5l1.3-0.4
		V42.2z M28.4,42.9l-1.6-0.5v-8.7l1.6-0.5V42.9z"/>
	<polygon class="st0" points="65.9,32 65.9,44.1 73.3,41.2 73.3,34.7 	"/>
	<path class="st1" d="M58.7,33.8v8.3l5.8,2V32L58.7,33.8z M60,41.6l-0.9-0.3v-6.6l0.9-0.3V41.6z M61.7,42.2l-1.3-0.4v-7.5l1.3-0.4
		V42.2z M63.7,42.9l-1.6-0.5v-8.7l1.6-0.5V42.9z"/>
	<polygon class="st0" points="38.8,44.4 38.8,56.5 46.2,53.6 46.2,47.1 	"/>
	<path class="st1" d="M31.5,46.2v8.3l5.8,2V44.4L31.5,46.2z M32.9,54L32,53.7v-6.6l0.9-0.3V54z M34.6,54.6l-1.3-0.4v-7.5l1.3-0.4
		V54.6z M36.6,55.3L35,54.8v-8.7l1.6-0.5V55.3z"/>
	<polygon class="st0" points="56.8,44.4 56.8,56.5 64.2,53.6 64.2,47.1 	"/>
	<path class="st1" d="M49.5,46.2v8.3l5.8,2V44.4L49.5,46.2z M50.9,54L50,53.7v-6.6l0.9-0.3V54z M52.5,54.6l-1.3-0.4v-7.5l1.3-0.4
		V54.6z M54.6,55.3L53,54.8v-8.7l1.6-0.5V55.3z"/>
	<polygon class="st0" points="38.8,19.6 38.8,31.7 46.2,28.8 46.2,22.3 	"/>
	<path class="st1" d="M31.5,21.4v8.3l5.8,2V19.6L31.5,21.4z M32.9,29.2L32,28.9v-6.6l0.9-0.3V29.2z M34.6,29.8l-1.3-0.4v-7.5
		l1.3-0.4V29.8z M36.6,30.5L35,30v-8.7l1.6-0.5V30.5z"/>
	<polygon class="st0" points="56.8,19.6 56.8,31.7 64.2,28.8 64.2,22.3 	"/>
	<path class="st1" d="M49.5,21.4v8.3l5.8,2V19.6L49.5,21.4z M50.9,29.2L50,28.9v-6.6l0.9-0.3V29.2z M52.5,29.8l-1.3-0.4v-7.5
		l1.3-0.4V29.8z M54.6,30.5L53,30v-8.7l1.6-0.5V30.5z"/>
</g>
<path class="st1" d="M10,64.5l3.5,8.9h-1.3l-1-2.7H7.4l-1,2.7H5.2l3.5-8.9H10z M10.8,69.7l-1.5-4.2l0,0l-1.5,4.2H10.8z"/>
<path class="st1" d="M17.5,67.9h-3.6V67h5v0.7L15,72.5h4.1v0.9h-5.4v-0.8L17.5,67.9z"/>
<path class="st1" d="M24.5,73.4v-1l0,0c-0.2,0.4-0.5,0.7-0.9,0.9c-0.4,0.2-0.8,0.3-1.2,0.3c-0.4,0-0.7,0-1.1-0.2
	c-0.3-0.1-0.5-0.3-0.7-0.5s-0.3-0.5-0.4-0.7c-0.1-0.3-0.1-0.6-0.1-1V67h1.1v4.4c0,0.4,0.1,0.7,0.3,1c0.3,0.2,0.6,0.4,1,0.3
	c0.3,0,0.6,0,0.8-0.2c0.2-0.1,0.4-0.2,0.6-0.4c0.2-0.2,0.3-0.4,0.4-0.6c0.1-0.3,0.1-0.5,0.1-0.8V67h1.1v6.4H24.5z"/>
<path class="st1" d="M28,67v1.4l0,0c0.2-0.5,0.5-0.9,1-1.2c0.4-0.3,0.9-0.4,1.4-0.3V68c-0.4,0-0.7,0.1-1.1,0.2
	c-0.3,0.1-0.5,0.3-0.7,0.5s-0.3,0.5-0.4,0.8c-0.1,0.4-0.1,0.7-0.1,1.1v2.9H27V67H28z"/>
<path class="st1" d="M35.6,73c-0.5,0.4-1.2,0.6-1.8,0.5c-0.5,0-0.9-0.1-1.3-0.2c-0.4-0.2-0.7-0.4-1-0.7c-0.3-0.3-0.5-0.7-0.6-1.1
	s-0.2-0.9-0.2-1.4s0.1-0.9,0.2-1.3s0.4-0.7,0.6-1.1c0.3-0.3,0.6-0.5,1-0.7s0.8-0.3,1.2-0.2c0.5,0,1,0.1,1.4,0.4
	c0.4,0.2,0.7,0.5,0.9,0.9s0.4,0.8,0.5,1.2c0.1,0.4,0.1,0.8,0.1,1.2h-4.8c0,0.3,0,0.5,0.1,0.8c0.1,0.2,0.2,0.5,0.4,0.7
	s0.4,0.4,0.6,0.5c0.3,0.1,0.6,0.2,0.9,0.2c0.4,0,0.8-0.1,1.1-0.3c0.3-0.2,0.5-0.6,0.6-1h1C36.4,72,36.1,72.6,35.6,73z M35.3,68.8
	c-0.1-0.2-0.2-0.4-0.4-0.6s-0.4-0.3-0.6-0.4c-0.2-0.1-0.5-0.1-0.7-0.1c-0.3,0-0.5,0-0.7,0.1s-0.4,0.2-0.6,0.4
	c-0.2,0.2-0.3,0.4-0.4,0.6s-0.1,0.5-0.2,0.7h3.7C35.5,69.3,35.4,69.1,35.3,68.8z"/>
<g>
	<path class="st1" d="M5.2,76.9h0.5v4.6l5-4.6h0.6l-3.6,3.3l3.8,4.6h-0.6l-3.6-4.3L5.7,82v2.8H5.2V76.9z"/>
	<path class="st1" d="M16.3,84.8h-0.4v-1.2h0c-0.1,0.2-0.2,0.4-0.3,0.6c-0.1,0.2-0.3,0.3-0.5,0.4c-0.2,0.1-0.4,0.2-0.6,0.3
		s-0.4,0.1-0.7,0.1c-0.3,0-0.6,0-0.9-0.1s-0.4-0.2-0.6-0.3c-0.1-0.1-0.3-0.3-0.3-0.4c-0.1-0.2-0.1-0.3-0.2-0.5
		c0-0.2-0.1-0.3-0.1-0.5c0-0.2,0-0.3,0-0.4v-3.5h0.4v3.6c0,0.1,0,0.3,0,0.5c0,0.2,0.1,0.4,0.2,0.6c0.1,0.2,0.3,0.4,0.5,0.5
		c0.2,0.1,0.5,0.2,0.9,0.2c0.3,0,0.6-0.1,0.9-0.2c0.3-0.1,0.5-0.3,0.6-0.5c0.2-0.2,0.3-0.5,0.4-0.8c0.1-0.3,0.1-0.6,0.1-1v-3.1h0.4
		V84.8z"/>
	<path class="st1" d="M17.7,76.9h0.4v3.4h0c0.1-0.2,0.2-0.4,0.3-0.6c0.1-0.2,0.3-0.3,0.5-0.4c0.2-0.1,0.4-0.2,0.6-0.3
		c0.2-0.1,0.5-0.1,0.7-0.1c0.4,0,0.8,0.1,1.1,0.2c0.3,0.1,0.6,0.4,0.8,0.6c0.2,0.3,0.4,0.6,0.5,0.9c0.1,0.3,0.2,0.7,0.2,1.1
		c0,0.7-0.1,1.2-0.3,1.6c-0.2,0.4-0.4,0.7-0.7,0.9c-0.3,0.2-0.5,0.4-0.8,0.4c-0.3,0.1-0.5,0.1-0.7,0.1c-0.4,0-0.7-0.1-1-0.2
		c-0.3-0.1-0.5-0.3-0.7-0.4c-0.2-0.2-0.3-0.3-0.4-0.5c-0.1-0.2-0.1-0.3-0.2-0.3h0v1.3h-0.4V76.9z M20.3,84.6c0.4,0,0.7-0.1,1-0.2
		c0.3-0.2,0.5-0.4,0.6-0.6c0.2-0.3,0.3-0.6,0.4-0.9s0.1-0.7,0.1-1c0-0.3,0-0.6-0.1-0.9c-0.1-0.3-0.2-0.6-0.4-0.8
		c-0.2-0.2-0.4-0.4-0.6-0.6c-0.3-0.1-0.6-0.2-0.9-0.2c-0.4,0-0.7,0.1-1,0.2c-0.3,0.1-0.5,0.3-0.7,0.5c-0.2,0.2-0.3,0.5-0.4,0.8
		c-0.1,0.3-0.1,0.6-0.1,1c0,0.3,0,0.7,0.1,1c0.1,0.3,0.2,0.6,0.4,0.9c0.2,0.3,0.4,0.5,0.7,0.6S19.9,84.6,20.3,84.6z"/>
	<path class="st1" d="M24,82L24,82c0,0.4,0,0.7,0.1,1c0.1,0.3,0.2,0.6,0.4,0.8c0.2,0.2,0.4,0.4,0.7,0.5c0.3,0.1,0.6,0.2,0.9,0.2
		c0.6,0,1-0.1,1.4-0.5c0.3-0.3,0.6-0.7,0.7-1.3h0.4c-0.1,0.7-0.4,1.2-0.8,1.5c-0.4,0.4-1,0.5-1.7,0.5c-0.4,0-0.8-0.1-1.1-0.2
		c-0.3-0.2-0.6-0.4-0.8-0.6c-0.2-0.3-0.4-0.6-0.5-0.9c-0.1-0.4-0.2-0.7-0.2-1.2c0-0.4,0.1-0.8,0.2-1.2c0.1-0.4,0.3-0.7,0.5-1
		c0.2-0.3,0.5-0.5,0.8-0.7c0.3-0.2,0.7-0.2,1.1-0.2c0.4,0,0.8,0.1,1.1,0.2c0.3,0.1,0.6,0.3,0.8,0.6c0.2,0.3,0.4,0.6,0.5,0.9
		c0.1,0.3,0.2,0.7,0.2,1.1c0,0,0,0.1,0,0.1c0,0,0,0.1,0,0.1H24z M28.2,81.6c0-0.3-0.1-0.6-0.2-0.9c-0.1-0.3-0.2-0.5-0.4-0.7
		c-0.2-0.2-0.4-0.4-0.6-0.5c-0.2-0.1-0.5-0.2-0.9-0.2c-0.3,0-0.6,0.1-0.9,0.2c-0.3,0.1-0.5,0.3-0.7,0.5c-0.2,0.2-0.3,0.5-0.4,0.7
		C24.1,81,24,81.3,24,81.6H28.2z"/>
	<path class="st1" d="M30,80.4L30,80.4c0.1-0.2,0.2-0.4,0.3-0.5c0.1-0.2,0.3-0.3,0.5-0.4c0.2-0.1,0.4-0.2,0.7-0.3
		c0.2-0.1,0.5-0.1,0.7-0.1v0.4c-0.2,0-0.5,0-0.8,0.1c-0.3,0.1-0.6,0.2-0.8,0.5c-0.1,0.1-0.2,0.2-0.3,0.3c-0.1,0.1-0.1,0.2-0.2,0.3
		c-0.1,0.1-0.1,0.3-0.1,0.4c0,0.2,0,0.3-0.1,0.6v3.1h-0.4v-5.7H30V80.4z"/>
	<path class="st1" d="M32.7,79.1h0.4v1.2h0c0.1-0.2,0.2-0.4,0.3-0.6c0.1-0.2,0.3-0.3,0.5-0.4c0.2-0.1,0.4-0.2,0.6-0.3
		C34.8,79,35,79,35.2,79c0.3,0,0.6,0,0.9,0.1c0.2,0.1,0.4,0.2,0.6,0.3c0.1,0.1,0.3,0.3,0.3,0.5c0.1,0.2,0.1,0.3,0.2,0.5
		c0,0.2,0.1,0.3,0.1,0.5c0,0.2,0,0.3,0,0.4v3.5h-0.4v-3.6c0-0.1,0-0.3,0-0.5c0-0.2-0.1-0.4-0.2-0.6s-0.3-0.4-0.5-0.5
		c-0.2-0.1-0.5-0.2-0.9-0.2c-0.3,0-0.6,0.1-0.9,0.2c-0.3,0.1-0.5,0.3-0.6,0.5c-0.2,0.2-0.3,0.5-0.4,0.8c-0.1,0.3-0.1,0.6-0.1,1v3.1
		h-0.4V79.1z"/>
	<path class="st1" d="M38.7,82L38.7,82c0,0.4,0,0.7,0.1,1c0.1,0.3,0.2,0.6,0.4,0.8c0.2,0.2,0.4,0.4,0.7,0.5c0.3,0.1,0.6,0.2,0.9,0.2
		c0.6,0,1-0.1,1.4-0.5c0.3-0.3,0.6-0.7,0.7-1.3h0.4c-0.1,0.7-0.4,1.2-0.8,1.5c-0.4,0.4-1,0.5-1.7,0.5c-0.4,0-0.8-0.1-1.1-0.2
		c-0.3-0.2-0.6-0.4-0.8-0.6c-0.2-0.3-0.4-0.6-0.5-0.9c-0.1-0.4-0.2-0.7-0.2-1.2c0-0.4,0.1-0.8,0.2-1.2c0.1-0.4,0.3-0.7,0.5-1
		c0.2-0.3,0.5-0.5,0.8-0.7C40,79,40.4,79,40.8,79c0.4,0,0.8,0.1,1.1,0.2c0.3,0.1,0.6,0.3,0.8,0.6c0.2,0.3,0.4,0.6,0.5,0.9
		c0.1,0.3,0.2,0.7,0.2,1.1c0,0,0,0.1,0,0.1c0,0,0,0.1,0,0.1H38.7z M42.9,81.6c0-0.3-0.1-0.6-0.2-0.9c-0.1-0.3-0.2-0.5-0.4-0.7
		c-0.2-0.2-0.4-0.4-0.6-0.5s-0.5-0.2-0.9-0.2c-0.3,0-0.6,0.1-0.9,0.2c-0.3,0.1-0.5,0.3-0.7,0.5c-0.2,0.2-0.3,0.5-0.4,0.7
		c-0.1,0.3-0.2,0.6-0.2,0.9H42.9z"/>
	<path class="st1" d="M46.4,79.5h-1.2v4c0,0.2,0,0.4,0.1,0.5c0.1,0.1,0.1,0.2,0.2,0.3c0.1,0.1,0.2,0.1,0.4,0.1c0.2,0,0.3,0,0.5,0
		v0.4c-0.2,0-0.4,0-0.6,0c-0.2,0-0.4-0.1-0.5-0.2c-0.2-0.1-0.3-0.2-0.4-0.4c-0.1-0.2-0.1-0.4-0.1-0.8v-4h-1.1v-0.4h1.1v-1.8h0.4v1.8
		h1.2V79.5z"/>
	<path class="st1" d="M47.2,82L47.2,82c0,0.4,0,0.7,0.1,1c0.1,0.3,0.2,0.6,0.4,0.8c0.2,0.2,0.4,0.4,0.7,0.5c0.3,0.1,0.6,0.2,0.9,0.2
		c0.6,0,1-0.1,1.4-0.5c0.3-0.3,0.6-0.7,0.7-1.3h0.4c-0.1,0.7-0.4,1.2-0.8,1.5c-0.4,0.4-1,0.5-1.7,0.5c-0.4,0-0.8-0.1-1.1-0.2
		c-0.3-0.2-0.6-0.4-0.8-0.6c-0.2-0.3-0.4-0.6-0.5-0.9c-0.1-0.4-0.2-0.7-0.2-1.2c0-0.4,0.1-0.8,0.2-1.2c0.1-0.4,0.3-0.7,0.5-1
		c0.2-0.3,0.5-0.5,0.8-0.7c0.3-0.2,0.7-0.2,1.1-0.2c0.4,0,0.8,0.1,1.1,0.2c0.3,0.1,0.6,0.3,0.8,0.6c0.2,0.3,0.4,0.6,0.5,0.9
		c0.1,0.3,0.2,0.7,0.2,1.1c0,0,0,0.1,0,0.1c0,0,0,0.1,0,0.1H47.2z M51.4,81.6c0-0.3-0.1-0.6-0.2-0.9c-0.1-0.3-0.2-0.5-0.4-0.7
		c-0.2-0.2-0.4-0.4-0.6-0.5s-0.5-0.2-0.9-0.2c-0.3,0-0.6,0.1-0.9,0.2c-0.3,0.1-0.5,0.3-0.7,0.5c-0.2,0.2-0.3,0.5-0.4,0.7
		c-0.1,0.3-0.2,0.6-0.2,0.9H51.4z"/>
	<path class="st1" d="M53,82.9c0,0.3,0.1,0.5,0.2,0.7c0.1,0.2,0.2,0.4,0.4,0.5c0.2,0.1,0.4,0.3,0.6,0.3c0.2,0.1,0.5,0.1,0.7,0.1
		c0.2,0,0.4,0,0.6,0c0.2,0,0.4-0.1,0.6-0.2c0.2-0.1,0.3-0.2,0.5-0.4c0.1-0.2,0.2-0.4,0.2-0.6c0-0.3-0.1-0.6-0.3-0.7
		c-0.2-0.2-0.4-0.3-0.7-0.4c-0.3-0.1-0.6-0.2-0.9-0.2c-0.3-0.1-0.7-0.1-0.9-0.2c-0.3-0.1-0.5-0.3-0.7-0.5c-0.2-0.2-0.3-0.5-0.3-0.9
		c0-0.3,0.1-0.5,0.2-0.7c0.1-0.2,0.3-0.3,0.5-0.5c0.2-0.1,0.4-0.2,0.7-0.2c0.2,0,0.5-0.1,0.7-0.1c0.3,0,0.6,0,0.8,0.1
		c0.3,0.1,0.5,0.2,0.7,0.3c0.2,0.1,0.3,0.3,0.4,0.6c0.1,0.2,0.2,0.5,0.2,0.8h-0.4c0-0.3,0-0.5-0.1-0.7c-0.1-0.2-0.2-0.3-0.4-0.5
		c-0.2-0.1-0.3-0.2-0.5-0.3c-0.2-0.1-0.4-0.1-0.7-0.1c-0.2,0-0.4,0-0.6,0.1c-0.2,0-0.4,0.1-0.5,0.2c-0.2,0.1-0.3,0.2-0.4,0.3
		c-0.1,0.1-0.2,0.3-0.2,0.5c0,0.2,0.1,0.4,0.2,0.6c0.1,0.1,0.3,0.3,0.4,0.3c0.2,0.1,0.4,0.2,0.6,0.2c0.2,0.1,0.5,0.1,0.7,0.2
		c0.3,0.1,0.5,0.1,0.8,0.2c0.2,0.1,0.5,0.2,0.6,0.3c0.2,0.1,0.3,0.3,0.4,0.5c0.1,0.2,0.2,0.4,0.2,0.7c0,0.3-0.1,0.6-0.2,0.8
		c-0.1,0.2-0.3,0.4-0.5,0.5c-0.2,0.1-0.5,0.2-0.7,0.3c-0.3,0-0.5,0.1-0.8,0.1c-0.3,0-0.6,0-0.9-0.1c-0.3-0.1-0.5-0.2-0.7-0.4
		c-0.2-0.2-0.4-0.4-0.5-0.6c-0.1-0.3-0.2-0.5-0.2-0.9H53z"/>
	<path class="st1" d="M66.6,79.1c0-0.3-0.1-0.6-0.2-0.9c-0.1-0.3-0.3-0.5-0.5-0.6s-0.5-0.3-0.8-0.4c-0.3-0.1-0.6-0.1-1-0.1
		c-0.2,0-0.5,0-0.7,0.1c-0.3,0.1-0.5,0.1-0.7,0.3c-0.2,0.1-0.4,0.3-0.5,0.5c-0.1,0.2-0.2,0.5-0.2,0.8c0,0.3,0.1,0.6,0.2,0.8
		c0.2,0.2,0.4,0.4,0.6,0.5c0.3,0.1,0.5,0.2,0.9,0.3c0.3,0.1,0.7,0.1,1,0.2c0.3,0.1,0.7,0.1,1,0.2c0.3,0.1,0.6,0.2,0.9,0.4
		c0.3,0.2,0.5,0.4,0.6,0.6c0.2,0.3,0.2,0.6,0.2,1c0,0.4-0.1,0.8-0.3,1c-0.2,0.3-0.4,0.5-0.7,0.7c-0.3,0.2-0.6,0.3-0.9,0.4
		c-0.3,0.1-0.6,0.1-0.9,0.1c-0.5,0-0.9,0-1.3-0.1c-0.4-0.1-0.8-0.3-1.1-0.5c-0.3-0.2-0.5-0.5-0.7-0.9c-0.2-0.4-0.3-0.8-0.3-1.3h0.5
		c0,0.4,0,0.8,0.2,1.1c0.1,0.3,0.4,0.5,0.6,0.7c0.3,0.2,0.6,0.3,0.9,0.4c0.4,0.1,0.7,0.1,1.1,0.1c0.2,0,0.5,0,0.8-0.1
		c0.3-0.1,0.5-0.2,0.7-0.3c0.2-0.1,0.4-0.3,0.6-0.6c0.2-0.2,0.2-0.5,0.2-0.9c0-0.3-0.1-0.6-0.2-0.8c-0.2-0.2-0.4-0.4-0.6-0.5
		c-0.3-0.1-0.5-0.2-0.9-0.3c-0.3-0.1-0.7-0.1-1-0.2c-0.3-0.1-0.7-0.1-1-0.2c-0.3-0.1-0.6-0.2-0.9-0.4c-0.3-0.2-0.5-0.3-0.6-0.6
		c-0.2-0.2-0.2-0.6-0.2-0.9c0-0.4,0.1-0.7,0.2-1c0.2-0.3,0.4-0.5,0.6-0.7s0.5-0.3,0.9-0.4c0.3-0.1,0.6-0.1,0.9-0.1
		c0.4,0,0.8,0,1.2,0.1c0.4,0.1,0.7,0.2,0.9,0.4c0.3,0.2,0.5,0.5,0.7,0.8c0.2,0.3,0.3,0.7,0.3,1.1H66.6z"/>
	<path class="st1" d="M68.5,82L68.5,82c0,0.4,0,0.7,0.1,1c0.1,0.3,0.2,0.6,0.4,0.8c0.2,0.2,0.4,0.4,0.7,0.5c0.3,0.1,0.6,0.2,0.9,0.2
		c0.6,0,1-0.1,1.4-0.5c0.3-0.3,0.6-0.7,0.7-1.3h0.4c-0.1,0.7-0.4,1.2-0.8,1.5c-0.4,0.4-1,0.5-1.7,0.5c-0.4,0-0.8-0.1-1.1-0.2
		c-0.3-0.2-0.6-0.4-0.8-0.6c-0.2-0.3-0.4-0.6-0.5-0.9c-0.1-0.4-0.2-0.7-0.2-1.2c0-0.4,0.1-0.8,0.2-1.2c0.1-0.4,0.3-0.7,0.5-1
		c0.2-0.3,0.5-0.5,0.8-0.7c0.3-0.2,0.7-0.2,1.1-0.2c0.4,0,0.8,0.1,1.1,0.2c0.3,0.1,0.6,0.3,0.8,0.6c0.2,0.3,0.4,0.6,0.5,0.9
		c0.1,0.3,0.2,0.7,0.2,1.1c0,0,0,0.1,0,0.1c0,0,0,0.1,0,0.1H68.5z M72.7,81.6c0-0.3-0.1-0.6-0.2-0.9c-0.1-0.3-0.2-0.5-0.4-0.7
		c-0.2-0.2-0.4-0.4-0.6-0.5s-0.5-0.2-0.9-0.2c-0.3,0-0.6,0.1-0.9,0.2c-0.3,0.1-0.5,0.3-0.7,0.5c-0.2,0.2-0.3,0.5-0.4,0.7
		c-0.1,0.3-0.2,0.6-0.2,0.9H72.7z"/>
	<path class="st1" d="M74.5,80.4L74.5,80.4c0.1-0.2,0.2-0.4,0.3-0.5c0.1-0.2,0.3-0.3,0.5-0.4c0.2-0.1,0.4-0.2,0.7-0.3
		c0.2-0.1,0.5-0.1,0.8-0.1v0.4c-0.2,0-0.5,0-0.8,0.1c-0.3,0.1-0.6,0.2-0.8,0.5c-0.1,0.1-0.2,0.2-0.3,0.3c-0.1,0.1-0.1,0.2-0.2,0.3
		c-0.1,0.1-0.1,0.3-0.1,0.4c0,0.2,0,0.3-0.1,0.6v3.1h-0.4v-5.7h0.4V80.4z"/>
	<path class="st1" d="M79.6,84.8H79l-2.3-5.7h0.5l2.1,5.2h0l1.9-5.2h0.5L79.6,84.8z"/>
	<path class="st1" d="M82.4,78v-1.1h0.4V78H82.4z M82.4,84.8v-5.7h0.4v5.7H82.4z"/>
	<path class="st1" d="M88.5,80.9c0-0.3-0.1-0.5-0.2-0.7c-0.1-0.2-0.2-0.4-0.4-0.5s-0.4-0.2-0.6-0.3c-0.2-0.1-0.5-0.1-0.7-0.1
		c-0.4,0-0.7,0.1-0.9,0.2c-0.3,0.1-0.5,0.3-0.7,0.6c-0.2,0.2-0.3,0.5-0.4,0.8c-0.1,0.3-0.1,0.6-0.1,0.9c0,0.4,0,0.7,0.1,1.1
		c0.1,0.3,0.2,0.6,0.4,0.9c0.2,0.2,0.4,0.4,0.7,0.6c0.3,0.1,0.6,0.2,1,0.2c0.3,0,0.5,0,0.7-0.1c0.2-0.1,0.4-0.2,0.6-0.4
		c0.2-0.2,0.3-0.3,0.4-0.6c0.1-0.2,0.2-0.5,0.2-0.7H89c0,0.3-0.1,0.6-0.3,0.9c-0.1,0.3-0.3,0.5-0.5,0.7s-0.5,0.3-0.7,0.4
		c-0.3,0.1-0.6,0.1-0.9,0.1c-0.5,0-0.9-0.1-1.2-0.3c-0.3-0.2-0.6-0.4-0.8-0.7c-0.2-0.3-0.4-0.6-0.5-1C84,82.7,84,82.3,84,81.9
		s0.1-0.8,0.2-1.1c0.1-0.4,0.3-0.7,0.5-0.9c0.2-0.3,0.5-0.5,0.8-0.6c0.3-0.2,0.7-0.2,1.1-0.2c0.3,0,0.6,0,0.9,0.1
		c0.3,0.1,0.5,0.2,0.7,0.4c0.2,0.2,0.4,0.4,0.5,0.6c0.1,0.2,0.2,0.5,0.2,0.8H88.5z"/>
	<path class="st1" d="M90.2,82L90.2,82c0,0.4,0,0.7,0.1,1c0.1,0.3,0.2,0.6,0.4,0.8c0.2,0.2,0.4,0.4,0.7,0.5s0.6,0.2,0.9,0.2
		c0.6,0,1-0.1,1.4-0.5c0.3-0.3,0.6-0.7,0.7-1.3h0.4c-0.1,0.7-0.4,1.2-0.8,1.5c-0.4,0.4-1,0.5-1.7,0.5c-0.4,0-0.8-0.1-1.1-0.2
		c-0.3-0.2-0.6-0.4-0.8-0.6c-0.2-0.3-0.4-0.6-0.5-0.9c-0.1-0.4-0.2-0.7-0.2-1.2c0-0.4,0.1-0.8,0.2-1.2c0.1-0.4,0.3-0.7,0.5-1
		s0.5-0.5,0.8-0.7c0.3-0.2,0.7-0.2,1.1-0.2c0.4,0,0.8,0.1,1.1,0.2c0.3,0.1,0.6,0.3,0.8,0.6c0.2,0.3,0.4,0.6,0.5,0.9
		c0.1,0.3,0.2,0.7,0.2,1.1c0,0,0,0.1,0,0.1c0,0,0,0.1,0,0.1H90.2z M94.4,81.6c0-0.3-0.1-0.6-0.2-0.9c-0.1-0.3-0.2-0.5-0.4-0.7
		c-0.2-0.2-0.4-0.4-0.6-0.5s-0.5-0.2-0.9-0.2c-0.3,0-0.6,0.1-0.9,0.2c-0.3,0.1-0.5,0.3-0.7,0.5c-0.2,0.2-0.3,0.5-0.4,0.7
		c-0.1,0.3-0.2,0.6-0.2,0.9H94.4z"/>
</g>
</svg>
