<svg id="Layer_1" data-name="Layer 1" xmlns="http://www.w3.org/2000/svg" viewBox="0 0 100 100"><defs><style>.cls-1{fill:#00aaf2;}</style></defs><path class="cls-1" d="M25.28,82.41l-1,3H23l3.21-9.44h1.47l3.22,9.44h-1.3l-1-3H25.28Zm3.1-1-0.92-2.72C27.24,78.12,27.1,77.56,27,77h0c-0.14.56-.29,1.13-0.48,1.71l-0.92,2.73h2.84Z"/><path class="cls-1" d="M31.71,84.66l3.07-4c0.29-.36.58-0.69,0.88-1.05v0H32v-1h5.17v0.77l-3,3.94c-0.28.38-.56,0.71-0.87,1.06v0h4v1h-5.5V84.66Z"/><path class="cls-1" d="M44.14,83.53c0,0.7,0,1.32.06,1.85H43.11L43,84.27h0a2.55,2.55,0,0,1-2.24,1.26c-1.06,0-2.34-.59-2.34-3v-4h1.23v3.75c0,1.29.39,2.16,1.51,2.16a1.73,1.73,0,0,0,1.74-1.75V78.6h1.23v4.93Z"/><path class="cls-1" d="M46.18,80.71c0-.8,0-1.48-0.06-2.12h1.08l0,1.33H47.3a2,2,0,0,1,1.88-1.48,1.31,1.31,0,0,1,.35,0v1.16a1.83,1.83,0,0,0-.42,0,1.73,1.73,0,0,0-1.65,1.58,3.55,3.55,0,0,0-.06.57v3.61H46.18V80.71Z"/><path class="cls-1" d="M51.31,82.21a2.17,2.17,0,0,0,2.33,2.35,4.45,4.45,0,0,0,1.88-.35l0.21,0.88a5.48,5.48,0,0,1-2.25.42,3.15,3.15,0,0,1-3.33-3.42c0-2,1.21-3.66,3.18-3.66,2.21,0,2.8,1.95,2.8,3.19a4.73,4.73,0,0,1,0,.57H51.31Zm3.61-.88a1.76,1.76,0,0,0-1.71-2,2,2,0,0,0-1.89,2h3.6Z"/><path class="cls-1" d="M62.17,82.41l-1,3H59.93l3.21-9.44h1.47l3.22,9.44h-1.3l-1-3H62.17Zm3.1-1-0.92-2.72C64.13,78.12,64,77.56,63.85,77h0c-0.14.56-.29,1.13-0.48,1.71l-0.92,2.73h2.84Z"/><path class="cls-1" d="M69.21,76.06a17.42,17.42,0,0,1,2.59-.2A5.41,5.41,0,0,1,75.63,77,4.35,4.35,0,0,1,77,80.43,5,5,0,0,1,75.6,84.1a5.82,5.82,0,0,1-4.17,1.36,19.72,19.72,0,0,1-2.21-.11V76.06Zm1.22,8.35a7.75,7.75,0,0,0,1.23.07c2.61,0,4-1.46,4-4,0-2.23-1.25-3.64-3.82-3.64a6.91,6.91,0,0,0-1.43.13v7.45Z"/><path class="cls-1" d="M52.23,33.42a3.75,3.75,0,0,1-.8.25V49a2.82,2.82,0,0,1,.6.2l7.75-5a4.34,4.34,0,0,1-.25-1.4,3.81,3.81,0,0,1,.6-2.1Z"/><path class="cls-1" d="M50.08,14.47L25.23,43.92,50.08,64.47,74.93,43.92Zm13.4,32.3a3.91,3.91,0,0,1-2.5-.9l-7.3,4.65a4.07,4.07,0,0,1,.75,2.3,4,4,0,1,1-7.9,0,3.87,3.87,0,0,1,.7-2.25l-7.7-5a3.92,3.92,0,0,1-6.7-2.8,4,4,0,0,1,3.95-4,3.87,3.87,0,0,1,2.25.7l8-7.4a4.55,4.55,0,0,1-1-2.8,4.45,4.45,0,0,1,8.9,0,4.55,4.55,0,0,1-1,2.8l7.65,7.15A4,4,0,1,1,63.48,46.77Z"/><path class="cls-1" d="M40.28,41.07a4.06,4.06,0,0,1,.25,2.85l8.25,5.3c0.2-.1.4-0.15,0.65-0.25V33.67a2.46,2.46,0,0,1-.85-0.3Z"/></svg>