<?xml version="1.0" encoding="utf-8"?>
<!-- Generator: Adobe Illustrator 22.1.0, SVG Export Plug-In . SVG Version: 6.00 Build 0)  -->
<svg version="1.1" id="Layer_1" xmlns="http://www.w3.org/2000/svg" xmlns:xlink="http://www.w3.org/1999/xlink" x="0px" y="0px"
	 viewBox="0 0 100 100" style="enable-background:new 0 0 100 100;" xml:space="preserve">
<style type="text/css">
	.st0{fill:none;}
	.st1{fill:#2684FF;}
	.st2{fill:url(#SVGID_1_);}
</style>
<g>
	<polygon class="st0" points="44.2,58.1 55.8,58.1 58.6,41.8 41.1,41.8 	"/>
	<path class="st1" d="M24,25c-0.5,0-1,0.2-1.4,0.6c-0.3,0.4-0.5,0.9-0.4,1.4L29.8,73c0.2,1.2,1.2,2,2.4,2h36.3
		c0.9,0,1.6-0.6,1.8-1.5l7.6-46.4c0.1-0.5-0.1-1-0.4-1.4S76.5,25,76,25L24,25z M55.8,58.2H44.3l-3.1-16.4h17.5L55.8,58.2z"/>
	
		<linearGradient id="SVGID_1_" gradientUnits="userSpaceOnUse" x1="71.8475" y1="418.773" x2="71.7135" y2="418.6319" gradientTransform="matrix(206 0 0 -152.7284 -14721.3896 64004.8828)">
		<stop  offset="0.18" style="stop-color:#0052CC"/>
		<stop  offset="1" style="stop-color:#2684FF"/>
	</linearGradient>
	<path class="st2" d="M75.3,41.8H58.6l-2.8,16.4H44.2L30.6,74.4c0.4,0.4,1,0.6,1.6,0.6h36.3c0.9,0,1.6-0.6,1.8-1.5L75.3,41.8z"/>
</g>
</svg>
