<?xml version="1.0" encoding="utf-8"?>
<!-- Generator: Adobe Illustrator 22.1.0, SVG Export Plug-In . SVG Version: 6.00 Build 0)  -->
<svg version="1.1" id="Layer_1" xmlns="http://www.w3.org/2000/svg" xmlns:xlink="http://www.w3.org/1999/xlink" x="0px" y="0px"
	 viewBox="0 0 412 600" style="enable-background:new 0 0 412 600;" xml:space="preserve">
<style type="text/css">
	.st0{fill:none;stroke:#3780B3;stroke-miterlimit:10;}
	.st1{fill:#666666;}
	.st2{fill:#C6E7F7;}
	.st3{fill:#ADDFF7;}
	.st4{fill:#3498DB;}
</style>
<path class="st0" d="M505.2,157L505.2,157L505.2,157"/>
<g>
	<path class="st1" d="M54.1,478.2c3.7,0,6.9,0.4,9.5,1.1c2.7,0.7,4.9,1.8,6.6,3.1c1.7,1.3,3,3,3.8,4.9c0.8,1.9,1.2,4.1,1.2,6.5
		c0,1.5-0.2,2.9-0.7,4.2c-0.5,1.4-1.2,2.6-2.1,3.8c-0.9,1.2-2.1,2.2-3.5,3.2c-1.4,0.9-3.1,1.7-5,2.3c4.4,0.8,7.7,2.4,9.9,4.7
		c2.2,2.3,3.3,5.3,3.3,9.1c0,2.5-0.5,4.9-1.4,6.9c-0.9,2.1-2.3,3.9-4.1,5.4c-1.8,1.5-4,2.7-6.6,3.5s-5.6,1.2-8.9,1.2H34.9v-59.9
		H54.1z M43,484.6v20.4h10.7c2.3,0,4.3-0.3,6-0.8c1.7-0.5,3.1-1.2,4.2-2.1c1.1-0.9,1.9-2,2.4-3.2c0.5-1.3,0.8-2.7,0.8-4.2
		c0-3.5-1.1-6.1-3.2-7.8c-2.1-1.6-5.4-2.4-9.9-2.4H43z M56,531.7c2.3,0,4.3-0.3,6-0.8c1.7-0.5,3-1.3,4.1-2.2c1.1-1,1.9-2.1,2.4-3.4
		c0.5-1.3,0.8-2.8,0.8-4.4c0-3.1-1.1-5.5-3.3-7.3c-2.2-1.8-5.5-2.7-9.9-2.7H43v20.9H56z"/>
	<path class="st1" d="M95.8,482.5c0,0.7-0.1,1.4-0.4,2c-0.3,0.6-0.7,1.2-1.2,1.7c-0.5,0.5-1.1,0.9-1.7,1.2c-0.7,0.3-1.3,0.4-2.1,0.4
		c-0.7,0-1.4-0.1-2-0.4c-0.6-0.3-1.2-0.7-1.7-1.2c-0.5-0.5-0.9-1-1.1-1.7c-0.3-0.6-0.4-1.3-0.4-2c0-0.7,0.1-1.4,0.4-2.1
		c0.3-0.7,0.7-1.2,1.1-1.7c0.5-0.5,1-0.9,1.7-1.2c0.6-0.3,1.3-0.4,2-0.4c0.7,0,1.4,0.1,2.1,0.4c0.7,0.3,1.2,0.7,1.7,1.2
		c0.5,0.5,0.9,1.1,1.2,1.7C95.7,481.1,95.8,481.8,95.8,482.5z M94.2,495.8v42.4h-7.4v-42.4H94.2z"/>
	<path class="st1" d="M119.5,538.8c-3.3,0-5.9-0.9-7.7-2.8c-1.8-1.9-2.7-4.6-2.7-8.1V502h-5.1c-0.4,0-0.8-0.1-1.1-0.4
		c-0.3-0.3-0.5-0.7-0.5-1.2v-3l6.9-0.9l1.7-13.1c0.1-0.4,0.3-0.8,0.6-1c0.3-0.3,0.7-0.4,1.2-0.4h3.8v14.6h12.3v5.4h-12.3v25.4
		c0,1.8,0.4,3.1,1.3,4c0.9,0.9,2,1.3,3.3,1.3c0.8,0,1.5-0.1,2-0.3c0.6-0.2,1.1-0.4,1.5-0.7c0.4-0.3,0.8-0.5,1.1-0.7
		c0.3-0.2,0.5-0.3,0.8-0.3c0.4,0,0.7,0.2,1,0.7l2.2,3.6c-1.3,1.2-2.8,2.1-4.6,2.8C123.3,538.5,121.4,538.8,119.5,538.8z"/>
	<path class="st1" d="M143.9,501.9c1.8-2.1,3.8-3.7,6-4.9c2.2-1.2,4.8-1.8,7.8-1.8c2.5,0,4.7,0.5,6.7,1.4c2,0.9,3.7,2.3,5.1,4.1
		c1.4,1.8,2.5,4,3.2,6.5c0.7,2.6,1.1,5.5,1.1,8.7c0,3.4-0.4,6.6-1.3,9.4c-0.8,2.8-2,5.2-3.6,7.2c-1.6,2-3.5,3.5-5.7,4.6
		c-2.3,1.1-4.8,1.7-7.6,1.7c-2.8,0-5.1-0.5-7-1.6c-1.9-1-3.6-2.5-5-4.5l-0.4,3.8c-0.2,1.1-0.9,1.6-1.9,1.6h-4.8v-61.6h7.5V501.9z
		 M143.9,527.9c1.4,1.8,2.9,3.1,4.5,3.9c1.6,0.8,3.4,1.1,5.4,1.1c4,0,7-1.4,9.2-4.2c2.1-2.8,3.2-7,3.2-12.6c0-5.2-0.9-9-2.8-11.4
		c-1.9-2.4-4.6-3.7-8-3.7c-2.4,0-4.5,0.6-6.3,1.7c-1.8,1.1-3.5,2.7-5,4.7V527.9z"/>
	<path class="st1" d="M218.1,495.8v42.4h-4.4c-1.1,0-1.7-0.5-2-1.5l-0.6-4.6c-1.8,2-3.9,3.7-6.2,4.9c-2.3,1.2-4.9,1.9-7.9,1.9
		c-2.3,0-4.4-0.4-6.1-1.2c-1.8-0.8-3.3-1.8-4.5-3.2s-2.1-3.1-2.7-5.1c-0.6-2-0.9-4.2-0.9-6.6v-27h7.4v27c0,3.2,0.7,5.7,2.2,7.4
		c1.5,1.8,3.7,2.6,6.7,2.6c2.2,0,4.3-0.5,6.2-1.6c1.9-1,3.7-2.5,5.3-4.3v-31.2H218.1z"/>
	<path class="st1" d="M259.4,503.3c-0.2,0.3-0.4,0.5-0.7,0.7c-0.2,0.2-0.5,0.3-0.9,0.3c-0.4,0-0.9-0.2-1.4-0.5
		c-0.5-0.3-1.1-0.7-1.9-1.2c-0.7-0.4-1.6-0.8-2.7-1.2c-1.1-0.3-2.4-0.5-4-0.5c-2.1,0-3.9,0.4-5.5,1.1c-1.6,0.7-2.9,1.8-4,3.2
		c-1.1,1.4-1.9,3.1-2.4,5.1c-0.5,2-0.8,4.2-0.8,6.6c0,2.6,0.3,4.8,0.9,6.8c0.6,2,1.4,3.7,2.5,5c1.1,1.4,2.4,2.4,3.9,3.1
		c1.5,0.7,3.2,1.1,5.1,1.1c1.8,0,3.3-0.2,4.5-0.6c1.2-0.4,2.1-0.9,2.9-1.4c0.8-0.5,1.4-1,1.9-1.4c0.5-0.4,1-0.6,1.5-0.6
		c0.6,0,1.1,0.2,1.4,0.7l2.1,2.7c-0.9,1.1-2,2.1-3.1,2.9c-1.2,0.8-2.4,1.5-3.8,2c-1.4,0.5-2.8,0.9-4.2,1.2c-1.5,0.3-3,0.4-4.5,0.4
		c-2.6,0-5.1-0.5-7.4-1.5c-2.3-1-4.2-2.4-5.9-4.2c-1.7-1.9-3-4.1-3.9-6.8c-0.9-2.7-1.4-5.8-1.4-9.2c0-3.1,0.4-6.1,1.3-8.7
		c0.9-2.7,2.2-5,3.8-6.9c1.7-1.9,3.8-3.4,6.2-4.5c2.5-1.1,5.3-1.6,8.5-1.6c3,0,5.6,0.5,7.9,1.4c2.3,1,4.3,2.3,6,4.1L259.4,503.3z"/>
	<path class="st1" d="M277.3,476.5v36.3h1.9c0.6,0,1-0.1,1.4-0.2c0.4-0.2,0.8-0.5,1.2-0.9l13.4-14.3c0.4-0.5,0.8-0.8,1.2-1.1
		c0.4-0.3,1-0.4,1.7-0.4h6.7l-15.6,16.6c-0.8,0.9-1.6,1.7-2.4,2.2c0.5,0.3,1,0.7,1.4,1.1c0.4,0.4,0.8,0.9,1.1,1.5l16.6,20.9h-6.6
		c-0.6,0-1.2-0.1-1.7-0.3c-0.5-0.2-0.9-0.6-1.2-1.2l-13.9-17.4c-0.4-0.6-0.8-1-1.2-1.2c-0.4-0.2-1-0.3-1.9-0.3h-2.1v20.2h-7.5v-61.6
		H277.3z"/>
	<path class="st1" d="M344.3,532.2c-0.9,1.1-2,2.1-3.3,2.9c-1.3,0.8-2.7,1.5-4.1,2c-1.5,0.5-3,0.9-4.5,1.2c-1.6,0.3-3.1,0.4-4.6,0.4
		c-2.9,0-5.6-0.5-8.1-1.5c-2.5-1-4.6-2.4-6.4-4.3c-1.8-1.9-3.2-4.3-4.2-7.1c-1-2.8-1.5-6-1.5-9.7c0-3,0.5-5.7,1.4-8.3
		c0.9-2.6,2.2-4.8,3.9-6.7c1.7-1.9,3.8-3.4,6.2-4.4c2.5-1.1,5.2-1.6,8.3-1.6c2.5,0,4.9,0.4,7,1.3c2.2,0.9,4,2.1,5.6,3.7
		c1.6,1.6,2.8,3.6,3.7,5.9c0.9,2.4,1.3,5,1.3,8c0,1.2-0.1,2-0.4,2.3c-0.3,0.4-0.7,0.6-1.4,0.6h-28.3c0.1,2.7,0.5,5,1.1,7
		c0.7,2,1.6,3.6,2.7,5c1.2,1.3,2.6,2.3,4.2,3c1.6,0.7,3.4,1,5.4,1c1.9,0,3.5-0.2,4.8-0.6c1.4-0.4,2.5-0.9,3.5-1.4
		c1-0.5,1.8-1,2.4-1.4c0.7-0.4,1.2-0.6,1.7-0.6c0.6,0,1.1,0.2,1.4,0.7L344.3,532.2z M338.3,512.3c0-1.7-0.2-3.3-0.7-4.7
		c-0.5-1.4-1.2-2.7-2.1-3.7c-0.9-1-2.1-1.9-3.4-2.4c-1.3-0.6-2.9-0.9-4.6-0.9c-3.6,0-6.4,1-8.5,3.1c-2.1,2.1-3.4,5-3.9,8.6H338.3z"
		/>
	<path class="st1" d="M366.8,538.8c-3.3,0-5.9-0.9-7.7-2.8c-1.8-1.9-2.7-4.6-2.7-8.1V502h-5.1c-0.4,0-0.8-0.1-1.1-0.4
		c-0.3-0.3-0.5-0.7-0.5-1.2v-3l6.9-0.9l1.7-13.1c0.1-0.4,0.3-0.8,0.6-1c0.3-0.3,0.7-0.4,1.2-0.4h3.8v14.6h12.3v5.4h-12.3v25.4
		c0,1.8,0.4,3.1,1.3,4c0.9,0.9,2,1.3,3.3,1.3c0.8,0,1.5-0.1,2-0.3c0.6-0.2,1.1-0.4,1.5-0.7c0.4-0.3,0.8-0.5,1.1-0.7
		c0.3-0.2,0.5-0.3,0.8-0.3c0.4,0,0.7,0.2,1,0.7l2.2,3.6c-1.3,1.2-2.8,2.1-4.6,2.8C370.6,538.5,368.7,538.8,366.8,538.8z"/>
</g>
<g>
	<path class="st2" d="M206,44L206,44C114.8,44,39.9,68.4,39.9,99.3c0,8.1,19.5,123.7,27.7,169.3c3.3,21.2,57,50.5,138.4,50.5l0,0
		c81.4,0,133.5-29.3,138.4-50.5c8.1-45.6,27.7-161.2,27.7-169.3C370.4,68.4,297.2,44,206,44L206,44z M206,281.7
		c-29.3,0-52.1-22.8-52.1-52.1s22.8-52.1,52.1-52.1c29.3,0,52.1,22.8,52.1,52.1C258.1,257.2,235.3,281.7,206,281.7L206,281.7z
		 M206,115.6c-58.6,0-105.8-9.8-105.8-22.8c0-13,47.2-22.8,105.8-22.8s105.8,9.8,105.8,22.8C311.8,105.8,264.6,115.6,206,115.6
		L206,115.6z"/>
	<path class="st2" d="M326.2,312.6c-3.3,0-4.9,1.6-4.9,1.6s-40.7,32.6-114,32.6s-114-32.6-114-32.6s-3.3-1.6-4.9-1.6
		c-3.3,0-6.5,1.6-6.5,6.5v1.6c6.5,34.2,11.4,58.6,11.4,61.9c4.9,24.4,53.7,44,112.3,44l0,0c58.6,0,107.4-19.5,112.3-44
		c0-3.3,4.9-27.7,11.4-61.9v-1.6C331,315.9,329.4,312.6,326.2,312.6L326.2,312.6z"/>
	<circle class="st3" cx="206" cy="227.9" r="26"/>
</g>
<g>
	<path class="st4" d="M206,44c91.2,0,164.4,24.4,166.1,55.4c0,8.1-19.5,123.7-27.7,169.3c-4.9,21.2-57,50.5-138.4,50.5
		S70.9,289.8,67.6,268.6c-8.1-45.6-27.7-161.2-27.7-169.3C39.9,68.4,114.8,44,206,44 M206,115.6c58.6,0,105.8-9.8,105.8-22.8
		c0-13-47.2-22.8-105.8-22.8s-105.8,9.8-105.8,22.8C100.2,105.8,147.4,115.6,206,115.6 M206,281.7c29.3,0,52.1-24.4,52.1-52.1
		c0-29.3-22.8-52.1-52.1-52.1s-52.1,22.8-52.1,52.1C153.9,258.9,176.7,281.7,206,281.7 M206,36c-45.1,0-87.6,5.9-119.7,16.5
		C41.4,67.3,31.9,86.2,31.9,99.3c0,9.5,21.1,133,27.8,170.6c4.4,27.6,64.1,57.1,146.3,57.1c82.2,0,139.9-29.4,146.2-56.7l0-0.2
		l0-0.2c6.7-37.5,27.8-161.2,27.8-170.7v-0.2l0-0.2c-0.7-13.1-10.8-31.7-54.9-46.4C293.2,41.8,250.9,36,206,36L206,36z M109,92.8
		c2.7-2.1,10.6-6,28.5-9.4c18.6-3.5,43-5.4,68.5-5.4c25.6,0,49.9,1.9,68.5,5.4c18,3.4,25.9,7.3,28.5,9.4c-2.7,2.1-10.6,6-28.5,9.4
		c-18.6,3.5-43,5.4-68.5,5.4s-49.9-1.9-68.5-5.4C119.5,98.9,111.6,94.9,109,92.8L109,92.8z M206,273.7c-12,0-23.2-4.5-31.4-12.7
		c-8.2-8.2-12.7-19.3-12.7-31.4c0-12,4.5-23.2,12.7-31.4c8.2-8.2,19.3-12.7,31.4-12.7s23.2,4.5,31.4,12.7
		c8.2,8.2,12.7,19.3,12.7,31.4c0,11.3-4.7,22.5-12.8,30.8C228.9,269,217.8,273.7,206,273.7L206,273.7z"/>
	<path class="st4" d="M326.2,312.6c3.3,0,4.9,3.3,3.3,6.5v1.6c-6.5,34.2-11.4,58.6-11.4,61.9c-4.9,24.4-53.7,44-112.3,44
		c-58.6,0-107.4-19.5-112.3-44c0-3.3-4.9-27.7-11.4-61.9v-1.6c0-4.9,3.3-6.5,6.5-6.5c1.6,0,4.9,1.6,4.9,1.6s40.7,32.6,114,32.6
		s114-32.6,114-32.6S322.9,312.6,326.2,312.6 M326.2,304.6c-5.3,0-8.6,2.3-10,3.5c-1.2,0.9-10.9,8.2-28.1,15.3
		c-16.9,7-44.5,15.4-80.7,15.4c-36.2,0-63.9-8.4-80.7-15.4c-18.3-7.6-28.2-15.4-28.3-15.4l-0.6-0.5l-0.8-0.4
		c-2.3-1.1-5.6-2.5-8.5-2.5c-8.5,0-14.5,6-14.5,14.5v1.6v0.8l0.1,0.7c1.5,8,3,15.5,4.3,22.2c3.6,19,6.8,35.4,7,38.2v0.7l0.2,0.8
		c2.9,14.6,17.5,27.8,40.9,37c21.9,8.6,50,13.4,79.2,13.4s57.3-4.8,79.2-13.4c23.5-9.2,38-22.4,40.9-37l0.2-0.8v-0.7
		c0.2-2.9,3.3-19.3,7-38.2c1.3-6.8,2.7-14.2,4.3-22.2l0.1-0.7v-0.8v-0.1c1.1-3.6,0.8-7.4-1.2-10.5
		C334.1,306.7,330.3,304.6,326.2,304.6L326.2,304.6z"/>
	<path class="st4" d="M206,201.9c14.4,0,26,11.7,26,26s-11.7,26-26,26c-14.4,0-26-11.7-26-26S191.6,201.9,206,201.9 M206,193.9
		c-18.8,0-34,15.3-34,34s15.3,34,34,34s34-15.3,34-34S224.8,193.9,206,193.9L206,193.9z"/>
</g>
</svg>
