<svg id="Layer_1" data-name="Layer 1" xmlns="http://www.w3.org/2000/svg" viewBox="0 0 305.1 67.6"><defs><style>.cls-1{fill:#1c3649;}.cls-2{fill:#00b29f;}.cls-3{fill:#5aaafa;}</style></defs><title>bluemix</title><path class="cls-1" d="M100,19.9h2.6V47H100Z"/><path class="cls-1" d="M105.8,19.9h11.5c4.6,0,8.7,1.6,8.7,6.6a6.22,6.22,0,0,1-4.7,6.1v.1a6.36,6.36,0,0,1,5.7,6.6c0,2.6-.9,7.7-9.7,7.7H105.8Zm2.6,11.9h8.9c4.1,0,6.1-2,6.1-4.6,0-3.4-2-5.1-6.1-5.1h-8.9Zm0,13h8.9c3.8,0,7.1-1.2,7.1-5.6,0-3.5-2.6-5.2-7.1-5.2h-8.9Z"/><path class="cls-1" d="M129.4,19.9h3.8l9.4,23.8,9.3-23.8h3.8V47h-2.6V23.6H153L143.8,47h-2.4l-9.3-23.4H132V47h-2.6Z"/><path class="cls-1" d="M167.1,19.9h12.8c5.2,0,8.7,1.7,8.7,6.7a6,6,0,0,1-3.7,5.7c3.3.9,5,3.5,5,6.9,0,5.5-4.7,7.9-9.6,7.9H167.2V19.9Zm6,11h6c2.1,0,3.6-.9,3.6-3.2,0-2.5-2-3.1-4.1-3.1H173v6.3Zm0,11.5h6.4c2.3,0,4.4-.8,4.4-3.6s-1.7-3.9-4.3-3.9h-6.5v7.5Z"/><path class="cls-1" d="M192.4,19.9h5.4V47h-5.4Z"/><path class="cls-1" d="M219.4,47h-5.1V44.3h-.1a7.06,7.06,0,0,1-6,3.3c-5.7,0-7.2-3.2-7.2-8.1V27.4h5.4V38.5c0,3.2.9,4.8,3.5,4.8,2.9,0,4.2-1.6,4.2-5.6V27.4h5.4V47Z"/><path class="cls-1" d="M227.3,38.5c.2,3.5,1.8,5,4.8,5a4.54,4.54,0,0,0,4.3-2.5h4.7c-1.5,4.7-4.7,6.6-9.2,6.6-6.2,0-10-4.3-10-10.3s4.1-10.4,10-10.4c6.7,0,9.9,5.6,9.5,11.7H227.3Zm8.8-3.4c-.5-2.7-1.7-4.2-4.3-4.2a4.26,4.26,0,0,0-4.5,4.2Z"/><path class="cls-1" d="M244.3,27.4h5.1V30h.1a7.05,7.05,0,0,1,6-3.2c2.5,0,4.7.9,5.7,3.3a7.27,7.27,0,0,1,5.9-3.3c4.2,0,7.2,1.9,7.2,7V47h-5.4V35.9c0-2.6-.2-4.8-3.3-4.8s-3.6,2.5-3.6,5V47h-5.4V36c0-2.3.2-4.9-3.3-4.9-1.1,0-3.6.7-3.6,4.5V47h-5.4V27.4Z"/><path class="cls-1" d="M282.9,24.4h-5.4V20h5.4Zm-5.4,3h5.4V47h-5.4Z"/><path class="cls-1" d="M291.9,36.7l-6.5-9.3h6.1l3.5,5.1,3.4-5.1h6l-6.5,9.2L305.1,47H299l-4.1-6.2L290.8,47h-6Z"/><path class="cls-1" d="M32.24,33.8a17.87,17.87,0,0,0,1.5,7.2,18.14,18.14,0,0,0,4,5.9c.4.4.8.7,1.2,1.1V19.7a12,12,0,0,0-1.2,1.1,19.86,19.86,0,0,0-4,5.9A17.07,17.07,0,0,0,32.24,33.8Z"/><path class="cls-2" d="M63.84,20.7a19.86,19.86,0,0,0-5.9-4,17.87,17.87,0,0,0-7.2-1.5,19,19,0,0,0-6.3,1.1L69,30.5a14.19,14.19,0,0,0-1.2-4A18.85,18.85,0,0,0,63.84,20.7Z"/><path class="cls-2" d="M42.14,17.4h0l9,15.6h18.1v-.6L42.74,17.1Z"/><path class="cls-3" d="M69.34,34.6H51.24l-9,15.7h0a2.19,2.19,0,0,1,.5.3l26.5-15.3A1.48,1.48,0,0,1,69.34,34.6Z"/><path class="cls-3" d="M58,50.9a18.14,18.14,0,0,0,5.9-4,19.86,19.86,0,0,0,4-5.9,26.43,26.43,0,0,0,1.2-4L44.44,51.2a19.42,19.42,0,0,0,6.3,1.1A20.16,20.16,0,0,0,58,50.9Z"/><path class="cls-1" d="M49.84,33.8h0l-9-15.6h0a2.19,2.19,0,0,0-.5.3V49.1c.2.1.3.2.5.3h0Z"/><path class="cls-2" d="M50.74,13.9a19.92,19.92,0,0,1,19.8,17.6c0,.3.1.6.1.8h0l9.1-15.8L70.24,0h-19L42,15.9a5.94,5.94,0,0,0,.8-.4A19.25,19.25,0,0,1,50.74,13.9Z"/><path class="cls-3" d="M70.64,35.2h0a2.77,2.77,0,0,1-.1.9,19.93,19.93,0,0,1-19.8,17.7,20.63,20.63,0,0,1-7.9-1.6,3,3,0,0,1-.8-.4l9.1,15.8h19.1l9.5-16.5Z"/><path class="cls-1" d="M39.64,17.3H21.24l-9.5,16.5,9.5,16.5h18.3c-.2-.2-.5-.3-.7-.5a19.7,19.7,0,0,1-8-16,20.12,20.12,0,0,1,8-16A3.51,3.51,0,0,1,39.64,17.3Z"/></svg>