<?xml version="1.0" encoding="utf-8"?>
<!-- Generator: Adobe Illustrator 23.0.4, SVG Export Plug-In . SVG Version: 6.00 Build 0)  -->
<svg version="1.1" id="Layer_1" xmlns="http://www.w3.org/2000/svg" xmlns:xlink="http://www.w3.org/1999/xlink" x="0px" y="0px"
	 viewBox="0 0 100.1 100.1" style="enable-background:new 0 0 100.1 100.1;" xml:space="preserve">
<style type="text/css">
	.st0{fill:#404041;}
	.st1{fill:#F38020;}
	.st2{fill:#FAAE40;}
	.st3{fill:#FFFFFF;}
</style>
<g>
	<path class="st0" d="M95.4,77.4c-0.4,0-0.8-0.3-0.8-0.8c0-0.4,0.3-0.8,0.8-0.8c0.4,0,0.8,0.3,0.8,0.8C96.2,77,95.8,77.4,95.4,77.4
		 M95.4,76c-0.3,0-0.6,0.3-0.6,0.6c0,0.3,0.3,0.6,0.6,0.6S96,77,96,76.6C96,76.3,95.7,76,95.4,76 M95.8,77h-0.2l-0.2-0.3h-0.2V77
		h-0.2v-0.9h0.4c0.2,0,0.3,0.1,0.3,0.3c0,0.1-0.1,0.2-0.2,0.3L95.8,77z M95.5,76.6c0.1,0,0.1,0,0.1-0.1c0-0.1-0.1-0.1-0.1-0.1h-0.3
		v0.3H95.5L95.5,76.6z"/>
	<polygon class="st0" points="13.8,75.8 15.8,75.8 15.8,81.2 19.3,81.2 19.3,83 13.8,83 	"/>
	<path class="st0" d="M21.4,79.4L21.4,79.4c0-2.1,1.7-3.8,3.9-3.8s3.9,1.7,3.9,3.7v0c0,2.1-1.7,3.7-3.9,3.7S21.4,81.5,21.4,79.4
		 M27.1,79.4L27.1,79.4c0-1.1-0.7-2-1.8-2c-1.1,0-1.8,0.9-1.8,1.9v0c0,1,0.7,1.9,1.8,1.9C26.4,81.3,27.1,80.4,27.1,79.4"/>
	<path class="st0" d="M31.6,79.8v-4h2v4c0,1,0.5,1.5,1.3,1.5s1.3-0.5,1.3-1.5v-4.1h2v4c0,2.3-1.3,3.3-3.4,3.3
		C32.9,83.1,31.6,82.1,31.6,79.8"/>
	<path class="st0" d="M41.3,75.8h2.8c2.6,0,4.1,1.5,4.1,3.6v0c0,2.1-1.5,3.6-4.1,3.6h-2.7L41.3,75.8L41.3,75.8z M44.1,81.2
		c1.2,0,2-0.7,2-1.8v0c0-1.2-0.8-1.8-2-1.8h-0.8v3.7L44.1,81.2L44.1,81.2z"/>
	<polygon class="st0" points="51.1,75.8 56.8,75.8 56.8,77.5 53.1,77.5 53.1,78.7 56.5,78.7 56.5,80.4 53.1,80.4 53.1,83 51.1,83 	
		"/>
	<polygon class="st0" points="59.6,75.8 61.6,75.8 61.6,81.2 65.1,81.2 65.1,83 59.6,83 	"/>
	<path class="st0" d="M70.3,75.7h1.9l3.1,7.3h-2.1l-0.5-1.3h-2.8L69.3,83h-2.1L70.3,75.7z M72.1,80.1l-0.8-2l-0.8,2H72.1z"/>
	<path class="st0" d="M77.9,75.8h3.4c1.1,0,1.9,0.3,2.3,0.8c0.4,0.4,0.6,1,0.6,1.7v0c0,1.1-0.6,1.8-1.5,2.2l1.7,2.5h-2.3l-1.5-2.2
		h-0.9V83h-2V75.8L77.9,75.8z M81.2,79.2c0.7,0,1.1-0.3,1.1-0.8v0c0-0.6-0.4-0.8-1.1-0.8h-1.3v1.7H81.2L81.2,79.2z"/>
	<polygon class="st0" points="87.1,75.8 92.9,75.8 92.9,77.5 89.1,77.5 89.1,78.6 92.6,78.6 92.6,80.1 89.1,80.1 89.1,81.3 93,81.3 
		93,83 87.1,83 	"/>
	<path class="st0" d="M9.5,80.2c-0.3,0.6-0.9,1.1-1.6,1.1c-1.1,0-1.8-0.9-1.8-1.9v0c0-1,0.7-1.9,1.8-1.9c0.8,0,1.5,0.5,1.7,1.2h2.1
		c-0.3-1.7-1.8-3-3.8-3c-2.2,0-3.9,1.7-3.9,3.7v0c0,2.1,1.6,3.7,3.9,3.7c1.9,0,3.4-1.2,3.8-2.9L9.5,80.2L9.5,80.2z"/>
</g>
<g>
	<g>
		<path class="st1" d="M65.1,54.2c0.5-1.7,0.3-3.2-0.5-4.4c-0.7-1.1-2-1.7-3.5-1.7l-28.8-0.4c-0.2,0-0.4-0.1-0.4-0.2
			s-0.1-0.3-0.1-0.5c0.1-0.3,0.4-0.5,0.7-0.5l29.1-0.4c3.4-0.2,7.2-3,8.5-6.4l1.7-4.3c0.1-0.2,0.1-0.4,0-0.6
			C69.8,26.3,62.2,20,53.2,20c-8.3,0-15.4,5.4-17.9,12.9c-1.6-1.2-3.7-1.9-6-1.7c-4,0.4-7.2,3.6-7.6,7.6c-0.1,1,0,2,0.2,3
			c-6.5,0.2-11.8,5.5-11.8,12.1c0,0.6,0,1.2,0.1,1.8c0,0.3,0.3,0.5,0.6,0.5H64c0.3,0,0.6-0.2,0.7-0.5L65.1,54.2z"/>
		<path class="st2" d="M74.3,35.7c-0.3,0-0.5,0-0.8,0c-0.2,0-0.4,0.1-0.4,0.3l-1.1,3.9c-0.5,1.7-0.3,3.2,0.5,4.4
			c0.7,1.1,2,1.7,3.5,1.7l6.1,0.4c0.2,0,0.4,0.1,0.4,0.2s0.1,0.4,0.1,0.5c-0.1,0.3-0.4,0.5-0.7,0.5L75.5,48c-3.5,0.2-7.2,3-8.5,6.4
			l-0.5,1.2c-0.1,0.2,0.1,0.5,0.3,0.5h22c0.3,0,0.5-0.2,0.6-0.4c0.4-1.4,0.6-2.8,0.6-4.3C90,42.7,82.9,35.7,74.3,35.7"/>
	</g>
	<path class="st3" d="M66.9,56.1c-0.3,0-0.4-0.2-0.3-0.5l0.5-1.2c1.3-3.4,5-6.2,8.5-6.4l6.4-0.4c0.3,0,0.6-0.2,0.7-0.5
		c0-0.2,0-0.4-0.1-0.5c-0.1-0.1-0.3-0.2-0.4-0.2L76,46c-1.5-0.1-2.8-0.7-3.5-1.7c-0.8-1.1-1-2.7-0.5-4.4L73,36
		c0.1-0.1,0.2-0.3,0.3-0.3l0,0L71.7,35c0,0.1,0,0.2-0.1,0.4l-1.7,4.3c-1.3,3.4-5.1,6.2-8.5,6.4l-29.1,0.4c-0.3,0-0.6,0.2-0.7,0.5
		c0,0.2,0,0.4,0.1,0.5c0.1,0.1,0.3,0.2,0.4,0.2L61,48.1c1.5,0.1,2.8,0.7,3.5,1.7c0.8,1.1,1,2.7,0.5,4.4l-0.4,1.4
		c-0.1,0.2-0.3,0.4-0.5,0.5h19.2v0H66.9z"/>
</g>
</svg>
