<?xml version="1.0" encoding="utf-8"?>
<!-- Generator: Adobe Illustrator 19.2.1, SVG Export Plug-In . SVG Version: 6.00 Build 0)  -->
<svg version="1.1" id="Layer_1" xmlns="http://www.w3.org/2000/svg" xmlns:xlink="http://www.w3.org/1999/xlink" x="0px" y="0px"
	 viewBox="0 0 505.9 116" style="enable-background:new 0 0 505.9 116;" xml:space="preserve">
<style type="text/css">
	.st0{fill:#414042;}
	.st1{fill:url(#SVGID_1_);}
	.st2{fill:#F68B1F;}
	.st3{fill:url(#SVGID_2_);}
	.st4{fill:url(#SVGID_3_);}
	.st5{fill:url(#SVGID_4_);}
	.st6{fill:url(#SVGID_5_);}
	.st7{fill:url(#SVGID_6_);}
	.st8{fill:url(#SVGID_7_);}
</style>
<g>
	<g>
		<path class="st0" d="M411.3,52.8h-9l-8.8,15.9h-11.8V52.8h-6.1v19h22.5l2-3.6h13.7l2.1,3.6h6.2L411.3,52.8z M401.5,65.5l5.4-9.9
			h0.1l5.5,9.9H401.5z"/>
		<path class="st0" d="M441,65.5c4.7-0.5,6.5-2,6.5-6.1c0-5.3-2.8-6.6-11.3-6.6h-14v19h6.1V55.9h8c4.6,0,5.2,0.7,5.2,3.4
			c0,2.6-0.8,3.1-4.8,3.2h-6.9l11,9.3h7.7L441,65.5z"/>
		<path class="st0" d="M456.5,60.7h14.9v3h-14.9v5.1h15.8v3.1h-21.9v-19h21.8V56h-15.7L456.5,60.7L456.5,60.7z"/>
	</g>
	<g>
		<path class="st0" d="M236.5,68.3h-11.6c-4.7,0-6.2-2.5-6.2-5v-5.2c0-3.6,2-4.6,7.3-4.6h9l0,0h3.3v-3.6H226
			c-10.1,0-14.4,2.2-14.4,8.1v5.2c0,4.6,2.1,8.6,13.2,8.6h13.6v-3.6L236.5,68.3L236.5,68.3z"/>
	</g>
	<g>
		<path class="st0" d="M246.8,68.7h14.8v3.1h-20.9v-19h6.1L246.8,68.7L246.8,68.7z"/>
	</g>
	<g>
		<path class="st0" d="M288.3,59.6v5.1c0,6.1-3.9,7.3-13.5,7.3c-9.8,0-13.4-1-13.4-7.3v-5.1c0-5.9,3.3-7,13.4-7
			C283.9,52.6,288.3,53.5,288.3,59.6z M267.5,59.6v5.1c0,3.8,1.2,4.1,7.3,4.1c5.5,0,7.4-0.5,7.4-4.1v-5.1c0.1-3.6-2-3.8-7.4-3.8
			C268.2,55.7,267.6,56.6,267.5,59.6z"/>
	</g>
	<g>
		<path class="st0" d="M317,52.8v13.5c0,5.3-5.5,5.7-13.2,5.7c-7.4,0-13.2-0.3-13.2-5.7V52.8h6.1v13.5c0,2,1.2,2.5,7.1,2.5
			c5.6,0,7.2-0.5,7.2-2.5V52.8H317z"/>
	</g>
	<g>
		<path class="st0" d="M320.2,52.8h15.2c8.8,0,12.5,1.9,12.5,7.1v4.5c0,4-1.9,7.5-11.5,7.5h-16.2V52.8z M336.4,68.7
			c4.1,0,5.4-2.2,5.4-4.3v-4.5c0-3.2-1.7-4-6.4-4h-9.1v12.8H336.4z"/>
	</g>
	<g>
		<path class="st0" d="M357,59.5h16v3.4h-16v8.9h-6.9V50.2h23.8v3.5H357V59.5z"/>
	</g>
	<path class="st0" d="M477.1,52.5c0.9,0,1.6,0.7,1.6,1.6s-0.7,1.6-1.6,1.6s-1.6-0.7-1.6-1.6S476.2,52.5,477.1,52.5z M477.1,55.4
		c0.7,0,1.2-0.6,1.2-1.3s-0.5-1.3-1.2-1.3s-1.2,0.6-1.2,1.3C475.9,54.8,476.4,55.4,477.1,55.4z M476.5,53.2h0.6
		c0.4,0,0.8,0.1,0.8,0.5c0,0.3-0.2,0.5-0.4,0.5l0.4,0.7h-0.5l-0.4-0.7h-0.1v0.7h-0.4V53.2z M476.9,53.9h0.2c0.1,0,0.3,0,0.3-0.2
		s-0.2-0.2-0.3-0.2h-0.2V53.9z"/>
	
		<radialGradient id="SVGID_1_" cx="162.9412" cy="-122.7475" r="32.463" fx="162.1466" fy="-121.0777" gradientTransform="matrix(1 0 0 -1 0 -60)" gradientUnits="userSpaceOnUse">
		<stop  offset="0" style="stop-color:#FFFFFF"/>
		<stop  offset="0.1902" style="stop-color:#FCE800"/>
		<stop  offset="0.8593" style="stop-color:#EC8F27"/>
	</radialGradient>
	<polygon class="st1" points="160.2,42 164.1,28.5 164.6,28.6 165,42.7 172.3,30.8 172.9,31.1 169.5,44.7 179.8,35 180.3,35.4 
		173.4,47.7 185.8,41.1 186.2,41.6 176.4,51.7 190.1,48.6 190.4,49.2 178.2,56.3 192.3,56.8 192.3,57.4 178.8,61.2 192.3,65.2 
		192.3,65.8 178.1,66 190.1,73.5 189.8,74.1 176.2,70.7 185.8,80.9 185.4,81.5 173.2,74.5 179.8,86.8 179.2,87.3 169.1,77.4 
		172.4,91 171.8,91.4 164.6,79.3 164.4,93.3 163.8,93.4 159.8,79.9 155.8,93.4 155.1,93.3 155.1,79.3 154.7,79.1 146.9,90.8 
		150.3,77.3 140,86.9 139.4,86.4 146.4,74.2 133.9,80.7 133.5,80.2 143.3,70.3 129.5,73.3 129.4,72.8 141.6,65.6 127.6,65.1 
		127.4,64.5 140.9,60.7 127.5,56.7 127.6,56.1 141.7,55.8 129.8,48.6 129.9,48 143.6,51.4 133.9,41.1 134.4,40.6 146.7,47.3 
		140,35.1 140.4,34.6 150.7,44.5 147.4,30.8 147.2,30.5 155.4,42.7 155.6,28.5 156.4,28.5 	"/>
	<path class="st2" d="M198.3,87.5c0-13.5-10.9-24.4-24.4-24.4c-5.4,0-10.5,1.8-14.5,4.8c0.5-2.6,0.8-5.2,0.8-7.9
		c0-22.5-18.2-40.7-40.7-40.7c-17.9,0-33.1,11.5-38.5,27.6c-3.1-2.3-6.9-3.7-11-3.7c-10.1,0-18.3,8.2-18.3,18.3
		c0,1.6,0.2,3.1,0.6,4.5c-14,0.4-25.2,11.9-25.2,26c0,1.6,0.2,3.2,0.4,4.8h169C197.8,94,198.3,90.8,198.3,87.5z"/>
	
		<linearGradient id="SVGID_2_" gradientUnits="userSpaceOnUse" x1="119.6" y1="-111.4809" x2="119.6" y2="-79.6399" gradientTransform="matrix(1 0 0 -1 0 -60)">
		<stop  offset="0" style="stop-color:#F68B1F"/>
		<stop  offset="1" style="stop-color:#FFFFFF"/>
	</linearGradient>
	<path class="st3" d="M155.4,60c0,19.8-16.1,32.3-35.9,32.3S83.7,79.8,83.7,60s16.1-35.9,35.9-35.9S155.4,40.2,155.4,60"/>
	<path class="st2" d="M149.9,60.2c0,12.1-13.7,21.9-30.6,21.9s-30.6-9.8-30.6-21.9c0-12.1,13.7-21.9,30.6-21.9
		S149.9,48.1,149.9,60.2"/>
	
		<linearGradient id="SVGID_3_" gradientUnits="userSpaceOnUse" x1="79.1347" y1="-59.4381" x2="89.26" y2="-69.5634" gradientTransform="matrix(0.9642 0.2653 0.2653 -0.9642 2.4232 -29.5861)">
		<stop  offset="0" style="stop-color:#FFFFFF"/>
		<stop  offset="4.820810e-02" style="stop-color:#FEF6ED"/>
		<stop  offset="0.2569" style="stop-color:#FBD0A5"/>
		<stop  offset="0.4442" style="stop-color:#F9B26B"/>
		<stop  offset="0.6034" style="stop-color:#F79D42"/>
		<stop  offset="0.7282" style="stop-color:#F69028"/>
		<stop  offset="0.8033" style="stop-color:#F68B1F"/>
	</linearGradient>
	<circle class="st4" cx="70.2" cy="61.6" r="13.5"/>
	<path class="st2" d="M81.2,56.5c2.3,4-0.6,9.9-6.4,13.3c-5.8,3.4-12.4,2.9-14.7-1.1s0.6-9.9,6.4-13.3C72.3,52,78.9,52.5,81.2,56.5"
		/>
	
		<linearGradient id="SVGID_4_" gradientUnits="userSpaceOnUse" x1="29.0499" y1="-111.8834" x2="67.3462" y2="-170.8475" gradientTransform="matrix(1 0 0 -1 0 -60)">
		<stop  offset="0" style="stop-color:#FFFFFF"/>
		<stop  offset="4.820810e-02" style="stop-color:#FEF6ED"/>
		<stop  offset="0.2569" style="stop-color:#FBD0A5"/>
		<stop  offset="0.4442" style="stop-color:#F9B26B"/>
		<stop  offset="0.6034" style="stop-color:#F79D42"/>
		<stop  offset="0.7282" style="stop-color:#F69028"/>
		<stop  offset="0.8033" style="stop-color:#F68B1F"/>
	</linearGradient>
	<path class="st5" d="M74.4,92c0-11.8-9.6-21.4-21.4-21.4S31.6,80.2,31.6,92v0.1L74.4,92C74.4,92.1,74.4,92.1,74.4,92z"/>
	
		<linearGradient id="SVGID_5_" gradientUnits="userSpaceOnUse" x1="181.0524" y1="-126.7036" x2="175.1763" y2="-143.9265" gradientTransform="matrix(1 0 0 -1 0 -60)">
		<stop  offset="0" style="stop-color:#FFFFFF"/>
		<stop  offset="4.820810e-02" style="stop-color:#FEF6ED"/>
		<stop  offset="0.2569" style="stop-color:#FBD0A5"/>
		<stop  offset="0.4442" style="stop-color:#F9B26B"/>
		<stop  offset="0.6034" style="stop-color:#F79D42"/>
		<stop  offset="0.7282" style="stop-color:#F69028"/>
		<stop  offset="0.8033" style="stop-color:#F68B1F"/>
	</linearGradient>
	<path class="st6" d="M193.6,87.3c0-10.8-8.7-19.5-19.5-19.5c-10.8,0-19.5,8.7-19.5,19.5c0,1.5,0.2,3,0.5,4.4H193
		C193.4,90.3,193.6,88.8,193.6,87.3z"/>
	
		<linearGradient id="SVGID_6_" gradientUnits="userSpaceOnUse" x1="113.15" y1="-134.5959" x2="113.15" y2="-153.4168" gradientTransform="matrix(1 0 0 -1 0 -60)">
		<stop  offset="0" style="stop-color:#F68B1F"/>
		<stop  offset="0.5308" style="stop-color:#CB672F"/>
		<stop  offset="1" style="stop-color:#A1453F"/>
	</linearGradient>
	<polygon class="st7" points="194.4,92.4 193.8,90.9 192.9,89.6 191.8,87.8 190.8,86.4 189.3,84.7 187.9,83.2 186.3,81.7 
		184.8,80.4 183.1,79.2 181.4,78.2 179.6,77.1 178,76.3 176.4,75.7 174.9,75.3 173.5,74.9 172,74.7 170.3,74.5 60,74.8 58.2,74.9 
		56.5,74.9 54.5,75.2 52.9,75.5 50.8,76 49.4,76.5 47.9,77 46.3,77.6 44.4,78.6 43,79.3 41.1,80.5 39.4,81.8 37.7,83.2 36.2,84.7 
		34.9,86.2 33.7,87.9 32.7,89.6 32,91 31.6,92.4 31.3,93.5 194.9,93.5 	"/>
	
		<radialGradient id="SVGID_7_" cx="135.6859" cy="-132.4141" r="43.4509" fx="162.6389" fy="-140.2917" gradientTransform="matrix(1 0 0 -1 0 -60)" gradientUnits="userSpaceOnUse">
		<stop  offset="0" style="stop-color:#FFFFFF"/>
		<stop  offset="0.1334" style="stop-color:#FCE800"/>
		<stop  offset="0.8593" style="stop-color:#EC8F27"/>
	</radialGradient>
	<polygon class="st8" points="162.6,64.7 177.4,84 176.8,84.4 159.6,68.9 93.3,81 93.3,80.3 154.8,66.2 121,54.6 121.4,54.1 	"/>
</g>
</svg>
