<?xml version="1.0" encoding="utf-8"?>
<!-- Generator: Adobe Illustrator 18.1.1, SVG Export Plug-In . SVG Version: 6.00 Build 0)  -->
<svg version="1.1" id="Layer_1" xmlns="http://www.w3.org/2000/svg" xmlns:xlink="http://www.w3.org/1999/xlink" x="0px" y="0px"
	 viewBox="0 0 100 100" enable-background="new 0 0 100 100" xml:space="preserve">
<g id="A" display="none">
	<path display="inline" fill="#394D54" d="M89.1,90.8c2.3-1.9,4.5-3.9,6.8-5.8c0.8-0.7,1.6-1.3,2.4-2.1c-0.6-0.8-1.6-1.3-2.5-1.7
		c-1.7-0.7-3.5-0.4-5.1,0.5c-2.1,1.2-3,3.2-2.9,5.6c0,0.9,0.3,1.9,0.8,2.7C88.7,90.2,88.9,90.5,89.1,90.8 M91.7,92.6
		c1.1,0.4,2.4,0.3,3.5,0.1c0.6-0.3,2.1-0.9,2.6-0.8l0.1,0l0.1,0c0.3,0.2,0.7,0.4,0.8,0.7c0.4,0.8,0.2,1.6-0.6,2L98,94.9
		c-2.9,1.7-6,1.4-8.8-0.1c-1.4-0.7-2.4-1.9-3.2-3.2l-0.2-0.3c-1.9-3.2-1.6-6.6,0.5-9.6c0.7-1.1,1.7-1.9,2.8-2.5l0.4-0.2
		c2.7-1.6,5.6-1.5,8.4-0.1c1.5,0.7,2.7,1.9,3.6,3.3l0.1,0.3c0.6,1.1-0.2,2-1,2.6c-0.9,0.7-1.9,1.6-2.8,2.4
		C95.7,89.1,93.7,90.8,91.7,92.6z M113.4,78h0.3c0.9,0,1.5,0.6,1.5,1.5c0,1.3-1.2,1.6-2.3,1.6c-1.4,0-2.7,0.8-3.6,1.7
		c-1.2,1.2-1.7,2.7-1.7,4.3v7.4c0,0.8-0.5,1.5-1.4,1.5H106c-0.9,0-1.4-0.7-1.4-1.5v-7.8c0-3,1.5-5.4,3.9-7.2
		C109.9,78.5,111.6,78,113.4,78z M75.4,83.2c1.2-1.2,2.4-2.4,3.6-3.5c0.3-0.3,1.6-1.7,2.1-1.7h0.5l0.1,0c0.7,0.1,1.2,0.6,1.2,1.3
		v0.3c0,0.5-0.6,1.1-0.9,1.5c-0.7,0.7-1.4,1.5-2.1,2.2L76.2,87c1.6,1.6,3.2,3.2,4.7,4.8c0.4,0.4,0.9,0.9,1.3,1.3
		c0.1,0.2,0.4,0.4,0.5,0.6s0.2,0.4,0.2,0.7v0.3l0,0.1c-0.2,0.7-0.6,1.3-1.4,1.3h-0.3c-0.5,0-1.1-0.6-1.4-0.9
		c-0.7-0.7-1.4-1.4-2.1-2.1l-2.3-2.3v3.7c0,0.8-0.5,1.5-1.4,1.5h-0.2c-0.9,0-1.4-0.7-1.4-1.5V73.7c0-0.8,0.5-1.5,1.4-1.5H74
		c0.9,0,1.4,0.7,1.4,1.5L75.4,83.2L75.4,83.2z M65.5,81.2c-0.5-0.2-1.3-0.3-1.8-0.3c-2.5-0.1-4.4,1.3-5.5,3.6
		c-0.4,0.8-0.5,1.6-0.5,2.4c0,2.6,1.4,4.4,3.7,5.6c0.8,0.4,2,0.5,2.9,0.5c0.8,0,2-0.5,2.7-0.8l0.1-0.1h0.6l0.1,0
		c0.7,0.1,1.2,0.6,1.2,1.3v0.3c0,1.9-3.4,2.3-4.7,2.4c-4.6,0.3-8-2.2-9.3-6.5c-0.2-0.8-0.3-1.5-0.3-2.3v-0.6c0-3.3,1.6-5.9,4.5-7.6
		c1.3-0.8,2.8-1.2,4.3-1.2H64c1.6,0,3.1,0.5,4.5,1.4l0.1,0.1l0.1,0.1c0.1,0.2,0.3,0.5,0.3,0.8v0.3c0,0.8-0.6,1.2-1.3,1.3h-0.1h-0.2
		C67,81.8,65.9,81.3,65.5,81.2z M37.7,86.9c0,2.3,1.1,4,3.1,5.2c0.9,0.6,1.9,0.8,3,0.8c2.3,0,4-1.2,5.2-3.1c0.6-0.9,0.8-1.9,0.8-3
		c0-2.1-1-3.8-2.8-5c-1-0.7-2.1-1-3.2-1c-2.5,0-4.4,1.3-5.5,3.6C37.9,85.3,37.7,86.1,37.7,86.9z M43.5,77.8h0.4
		c3.5,0,6.2,1.7,7.9,4.8c0.7,1.2,1.1,2.6,1.1,4v0.6c0,3.3-1.6,5.9-4.5,7.6C47,95.6,45.6,96,44.1,96h-0.6c-3.3,0-5.9-1.6-7.6-4.5
		c-0.8-1.3-1.2-2.8-1.2-4.3v-0.6c0-3.3,1.6-5.9,4.5-7.6C40.5,78.2,41.9,77.8,43.5,77.8z M17.8,86.9c0,2.4,1.2,4.2,3.2,5.3
		c0.8,0.5,1.8,0.7,2.7,0.7c2.3,0,4.1-1.1,5.3-3.1c0.5-0.9,0.8-1.9,0.8-3c0-2.1-1-3.7-2.7-4.9c-1-0.7-2.1-1.1-3.4-1.1
		c-2.5,0-4.4,1.3-5.5,3.6C18,85.3,17.8,86.1,17.8,86.9z M29.9,80.1v-6.4c0-0.8,0.5-1.5,1.4-1.5h0.3c0.9,0,1.4,0.7,1.4,1.5v13.5
		c0,3.3-1.6,5.9-4.5,7.6c-1.3,0.8-2.8,1.2-4.3,1.2h-0.6c-3.3,0-5.9-1.6-7.6-4.5c-0.8-1.3-1.2-2.8-1.2-4.3v-0.6
		c0-3.3,1.6-5.9,4.5-7.6c1.3-0.8,2.8-1.2,4.3-1.2h0.6C26.4,77.8,28.3,78.7,29.9,80.1z"/>
	<path display="inline" fill="#394D54" d="M72.6,29.7h9v9.2h4.5c2.1,0,4.3-0.4,6.3-1.1c1-0.3,2.1-0.8,3-1.4
		c-1.3-1.7-1.9-3.7-2.1-5.8c-0.3-2.8,0.3-6.5,2.2-8.7l0.9-1.1l1.1,0.9c2.8,2.3,5.2,5.5,5.6,9.1c3.4-1,7.4-0.8,10.4,1l1.2,0.7
		l-0.7,1.3c-2.5,5-7.9,6.5-13.1,6.2c-7.8,19.4-24.7,28.6-45.3,28.6c-10.6,0-20.4-4-25.9-13.4L30,55.1l-0.8-1.6
		c-1.9-4.1-2.5-8.7-2.1-13.2l0.1-1.4h7.7v-9.2h9v-9h18v-9h10.8V29.7z"/>
	<path display="inline" fill="#00AADA" d="M55.9,67.2c-11.3,0-20-4.8-24.3-12.2L31,53.8c-2-3.9-2.8-8.4-2.4-13.4h57.6
		c4.7,0,9.3-1.8,11.5-3.7c-3.9-3.2-3.5-10.8-1-13.7c2.2,1.7,5.7,5.4,5.1,10.1c2.7-1.4,7.5-2.1,11.2,0.1c-2.3,4.5-7.4,5.9-12.7,5.3
		C92.8,58.3,75.9,67.2,55.9,67.2"/>
	<path display="inline" fill="#24B8EB" d="M32,40.4h54.2c4.7,0,9.3-1.8,11.5-3.7c-3.9-3.2-3.5-10.8-1-13.7c2.2,1.7,5.7,5.4,5.1,10.1
		c0.1-0.1,0.2-0.1,0.4-0.2c-8.2,10.6-20,19.8-32.6,24.7C47.8,66,31.4,58.2,32,40.4"/>
	<path display="inline" fill="#008BB8" d="M55.9,67.2c-11.3,0-20-4.8-24.3-12.2L31,53.8c-1.2-2.3-1.9-4.7-2.3-7.4h67.8
		C87.8,60.7,73,67.2,55.9,67.2"/>
	<path display="inline" fill="#039BC6" d="M32.5,46.4h56.3c-5.9,4.7-12.4,8.6-19.3,11.2C50.4,64.9,35.5,59.9,32.5,46.4"/>
	<path display="inline" fill="#BFDBE0" d="M55.9,67.2c-11.1,0-17.1-3.8-21.9-8.5l8.9-0.3l5.5-1.2c1.6,3.8,4.5,7.4,10,9.9
		C57.6,67.2,56.8,67.2,55.9,67.2"/>
	<path display="inline" fill="#D4EDF1" d="M42.9,59L42.9,59l5.6-1.9c0.5,1.3,1.2,2.5,2.1,3.7C47.7,60.6,45.1,60,42.9,59"/>
	<path display="inline" fill="#00ACD3" d="M42.9,31.9h0.6v6.5h-0.6V31.9z M41.7,31.9h0.6v6.5h-0.6V31.9z M40.6,31.9h0.6v6.5h-0.6
		V31.9z M39.4,31.9H40v6.5h-0.6V31.9z M38.2,31.9h0.6v6.5h-0.6V31.9z M37,31.9h0.6v6.5H37V31.9z M36.4,31.2h7.8V39h-7.8V31.2z"/>
	<path display="inline" fill="#00ACD3" d="M51.9,22.9h0.6v6.5h-0.6V22.9z M50.7,22.9h0.6v6.5h-0.6V22.9z M49.5,22.9h0.6v6.5h-0.6
		V22.9z M48.4,22.9H49v6.5h-0.6V22.9z M47.2,22.9h0.6v6.5h-0.6V22.9z M46,22.9h0.6v6.5H46V22.9z M45.4,22.2h7.8V30h-7.8V22.2z"/>
	<path display="inline" fill="#20C2EF" d="M51.9,31.9h0.6v6.5h-0.6V31.9z M50.7,31.9h0.6v6.5h-0.6V31.9z M49.5,31.9h0.6v6.5h-0.6
		V31.9z M48.4,31.9H49v6.5h-0.6V31.9z M47.2,31.9h0.6v6.5h-0.6V31.9z M46,31.9h0.6v6.5H46V31.9z M45.4,31.2h7.8V39h-7.8V31.2z"/>
	<path display="inline" fill="#00ACD3" d="M60.9,31.9h0.6v6.5h-0.6V31.9z M59.7,31.9h0.6v6.5h-0.6V31.9z M58.5,31.9h0.6v6.5h-0.6
		V31.9z M57.4,31.9H58v6.5h-0.6V31.9z M56.2,31.9h0.6v6.5h-0.6V31.9z M55,31.9h0.6v6.5H55V31.9z M54.4,31.2h7.8V39h-7.8V31.2z"/>
	<path display="inline" fill="#20C2EF" d="M60.9,22.9h0.6v6.5h-0.6V22.9z M59.7,22.9h0.6v6.5h-0.6V22.9z M58.5,22.9h0.6v6.5h-0.6
		V22.9z M57.4,22.9H58v6.5h-0.6V22.9z M56.2,22.9h0.6v6.5h-0.6V22.9z M55,22.9h0.6v6.5H55V22.9z M54.4,22.2h7.8V30h-7.8V22.2z"/>
	<path display="inline" fill="#20C2EF" d="M69.9,31.9h0.6v6.5h-0.6V31.9z M68.7,31.9h0.6v6.5h-0.6V31.9z M67.5,31.9h0.6v6.5h-0.6
		V31.9z M66.4,31.9H67v6.5h-0.6V31.9z M65.2,31.9h0.6v6.5h-0.6V31.9z M64,31.9h0.6v6.5H64V31.9z M63.4,31.2h7.8V39h-7.8V31.2z"/>
	<path display="inline" fill="#00ACD3" d="M69.9,22.9h0.6v6.5h-0.6V22.9z M68.7,22.9h0.6v6.5h-0.6V22.9z M67.5,22.9h0.6v6.5h-0.6
		V22.9z M66.4,22.9H67v6.5h-0.6V22.9z M65.2,22.9h0.6v6.5h-0.6V22.9z M64,22.9h0.6v6.5H64V22.9z M63.4,22.2h7.8V30h-7.8V22.2z"/>
	<path display="inline" fill="#20C2EF" d="M69.9,13.9h0.6v6.5h-0.6V13.9z M68.7,13.9h0.6v6.5h-0.6V13.9z M67.5,13.9h0.6v6.5h-0.6
		V13.9z M66.4,13.9H67v6.5h-0.6V13.9z M65.2,13.9h0.6v6.5h-0.6V13.9z M64,13.9h0.6v6.5H64V13.9z M63.4,13.2h7.8V21h-7.8V13.2z"/>
	<path display="inline" fill="#00ACD3" d="M78.9,31.9h0.6v6.5h-0.6V31.9z M77.7,31.9h0.6v6.5h-0.6V31.9z M76.5,31.9h0.6v6.5h-0.6
		V31.9z M75.3,31.9H76v6.5h-0.6V31.9z M74.2,31.9h0.6v6.5h-0.6V31.9z M73,31.9h0.6v6.5H73V31.9z M72.4,31.2h7.8V39h-7.8V31.2z"/>
	<path display="inline" fill="#D4EDF1" d="M52.7,51.6c1.2,0,2.1,1,2.1,2.1s-1,2.1-2.1,2.1c-1.2,0-2.1-1-2.1-2.1
		C50.5,52.6,51.5,51.6,52.7,51.6"/>
	<path display="inline" fill="#394D54" d="M52.7,52.2c0.2,0,0.4,0,0.5,0.1c-0.2,0.1-0.3,0.3-0.3,0.5c0,0.3,0.3,0.6,0.6,0.6
		c0.2,0,0.4-0.1,0.5-0.3c0.1,0.2,0.1,0.4,0.1,0.6c0,0.8-0.7,1.5-1.5,1.5c-0.8,0-1.5-0.7-1.5-1.5C51.1,52.9,51.8,52.2,52.7,52.2"/>
	<path display="inline" fill="#394D54" d="M14.7,47.2h47.1h5.8h47.1c-2.2-0.5-6.9-1.3-6.1-4.1c-4,4.6-13.5,3.2-15.9,0.9
		c-2.7,3.9-18.3,2.4-19.4-0.6c-3.4,3.9-13.8,3.9-17.2,0c-1.1,3-16.7,4.5-19.4,0.6c-2.4,2.3-12,3.6-15.9-0.9
		C21.6,45.9,16.8,46.6,14.7,47.2"/>
	
		<path display="inline" fill="none" stroke="#394D54" stroke-width="6.5739" stroke-linecap="round" stroke-linejoin="round" stroke-miterlimit="2.6131" d="
		M32.7,58c5.6,0.4,13.1,0.4,17-1.6"/>
</g>
<g display="none">
	<path display="inline" fill="#394D54" d="M23.5,55c1.2,0,2.3,0,3.3-0.1c0.1,0,0.2,0,0.3,0l0,0c2.7-0.2,4.9-0.5,6.8-1.1l0,0
		c0.4-0.1,0.7-0.2,1-0.3c0.4-0.1,0.5-0.5,0.4-0.9c-0.1-0.4-0.5-0.5-0.9-0.4c-2.4,0.8-5.6,1.3-9.6,1.4l0,0c-2,0-4.2,0-6.5-0.2l0,0
		c-0.1,0-0.2,0-0.4,0c-0.4,0-0.7,0.3-0.7,0.7c0,0.4,0.3,0.7,0.7,0.7c0.5,0,1,0.1,1.4,0.1c0.1,0,0.1,0,0.2,0l0,0
		C20.9,54.9,22.2,55,23.5,55z"/>
</g>
<g>
	<rect y="76" fill="none" width="99.9" height="24"/>
	<path fill="#394D54" d="M30.8,79.6c-0.3-0.4-0.7-0.7-1.2-0.9c-0.5-0.2-1-0.3-1.5-0.3c-0.6,0-1.2,0.1-1.7,0.3
		c-0.5,0.2-0.9,0.5-1.3,0.9s-0.7,0.9-0.8,1.4c-0.2,0.5-0.3,1.1-0.3,1.7c0,0.7,0.1,1.3,0.3,1.8s0.5,1,0.8,1.4
		c0.4,0.4,0.8,0.7,1.3,0.9c0.5,0.2,1.1,0.3,1.7,0.3c0.6,0,1.2-0.1,1.7-0.4c0.5-0.3,0.9-0.6,1.2-1l1.7,1.2c-0.5,0.7-1.2,1.2-2,1.6
		c-0.8,0.4-1.7,0.6-2.7,0.6c-0.9,0-1.8-0.2-2.6-0.5c-0.8-0.3-1.5-0.7-2-1.3c-0.6-0.6-1-1.2-1.3-2c-0.3-0.8-0.5-1.6-0.5-2.6
		c0-1,0.2-1.8,0.5-2.6c0.3-0.8,0.8-1.4,1.4-2c0.6-0.5,1.3-1,2.1-1.3c0.8-0.3,1.7-0.4,2.6-0.4c0.4,0,0.8,0,1.2,0.1
		c0.4,0.1,0.8,0.2,1.2,0.3s0.7,0.3,1.1,0.6c0.3,0.2,0.6,0.5,0.9,0.8L30.8,79.6z"/>
	<path fill="#394D54" d="M40.9,85.5c0,0.6-0.1,1.1-0.3,1.5c-0.2,0.4-0.5,0.8-0.8,1.1c-0.3,0.3-0.7,0.6-1.2,0.7s-0.9,0.3-1.5,0.3
		c-0.5,0-1-0.1-1.5-0.3s-0.8-0.4-1.2-0.7c-0.3-0.3-0.6-0.7-0.8-1.1c-0.2-0.4-0.3-0.9-0.3-1.5v-5.8h1.6v5.8c0,0.3,0,0.5,0.1,0.8
		c0.1,0.3,0.2,0.5,0.3,0.7c0.2,0.2,0.4,0.4,0.6,0.5c0.3,0.1,0.6,0.2,1,0.2c0.4,0,0.7-0.1,1-0.2c0.3-0.1,0.5-0.3,0.6-0.5
		c0.2-0.2,0.3-0.4,0.3-0.7s0.1-0.5,0.1-0.8v-5.8h1.6V85.5z"/>
	<path fill="#394D54" d="M47.6,81.5c-0.2-0.2-0.4-0.4-0.7-0.6c-0.3-0.2-0.6-0.2-1-0.2c-0.2,0-0.4,0-0.6,0.1c-0.2,0-0.4,0.1-0.5,0.2
		c-0.2,0.1-0.3,0.2-0.4,0.4s-0.1,0.4-0.1,0.6c0,0.2,0,0.4,0.1,0.5c0.1,0.1,0.2,0.3,0.4,0.4c0.2,0.1,0.3,0.2,0.6,0.3
		c0.2,0.1,0.5,0.2,0.7,0.2c0.3,0.1,0.6,0.2,0.9,0.3c0.3,0.1,0.6,0.3,0.9,0.5c0.3,0.2,0.5,0.5,0.6,0.8s0.3,0.7,0.3,1.1
		c0,0.5-0.1,0.9-0.3,1.3s-0.4,0.7-0.7,0.9c-0.3,0.2-0.7,0.4-1.1,0.5s-0.8,0.2-1.3,0.2c-0.6,0-1.2-0.1-1.8-0.3s-1-0.5-1.4-1l1.2-1.1
		c0.2,0.3,0.5,0.6,0.9,0.7c0.4,0.2,0.7,0.3,1.1,0.3c0.2,0,0.4,0,0.6-0.1c0.2,0,0.4-0.1,0.5-0.2c0.2-0.1,0.3-0.3,0.4-0.4
		s0.1-0.4,0.1-0.6c0-0.2-0.1-0.4-0.2-0.6c-0.1-0.2-0.3-0.3-0.5-0.4c-0.2-0.1-0.4-0.2-0.7-0.3c-0.3-0.1-0.5-0.2-0.8-0.3
		c-0.3-0.1-0.6-0.2-0.8-0.3c-0.3-0.1-0.5-0.3-0.7-0.5c-0.2-0.2-0.4-0.4-0.5-0.7s-0.2-0.7-0.2-1.1c0-0.5,0.1-0.9,0.3-1.2
		s0.5-0.6,0.8-0.8c0.3-0.2,0.7-0.4,1.1-0.5c0.4-0.1,0.8-0.2,1.2-0.2c0.5,0,0.9,0.1,1.4,0.2c0.5,0.2,0.9,0.4,1.3,0.7L47.6,81.5z"/>
	<path fill="#394D54" d="M52,81.1h-2.8v-1.4h7.3v1.4h-2.8v7.8H52V81.1z"/>
	<path fill="#394D54" d="M56.7,84.2c0-0.7,0.1-1.4,0.4-2s0.6-1.1,1-1.5s1-0.7,1.6-1c0.6-0.2,1.3-0.3,2-0.3c0.7,0,1.4,0.1,2,0.3
		c0.6,0.2,1.1,0.5,1.6,1c0.4,0.4,0.8,0.9,1,1.5s0.4,1.3,0.4,2c0,0.7-0.1,1.4-0.4,2s-0.6,1.1-1,1.5c-0.4,0.4-1,0.8-1.6,1
		c-0.6,0.2-1.3,0.4-2,0.4c-0.7,0-1.4-0.1-2-0.4s-1.1-0.6-1.6-1c-0.4-0.4-0.8-0.9-1-1.5S56.7,84.9,56.7,84.2z M58.5,84.2
		c0,0.5,0.1,0.9,0.2,1.4c0.2,0.4,0.4,0.8,0.7,1.1c0.3,0.3,0.6,0.5,1,0.7s0.8,0.3,1.3,0.3c0.5,0,0.9-0.1,1.3-0.3
		c0.4-0.2,0.7-0.4,1-0.7c0.3-0.3,0.5-0.7,0.6-1.1c0.2-0.4,0.2-0.9,0.2-1.4c0-0.5-0.1-0.9-0.2-1.3c-0.2-0.4-0.4-0.8-0.6-1.1
		c-0.3-0.3-0.6-0.5-1-0.7c-0.4-0.2-0.8-0.3-1.3-0.3s-0.9,0.1-1.3,0.3c-0.4,0.2-0.7,0.4-1,0.7c-0.3,0.3-0.5,0.7-0.6,1.1
		C58.6,83.3,58.5,83.7,58.5,84.2z"/>
	<path fill="#394D54" d="M68.2,79.6h2.6l2.4,6.5h0l2.4-6.5h2.6v9.2h-1.6v-7.4h0l-2.8,7.4h-1.1l-2.8-7.4h0v7.4h-1.6V79.6z"/>
</g>
<path fill="#00AADA" d="M25.6,66.6V30.2c0-3,2.4-5.4,5.4-5.4l0,0v-5.4c0-1.5,1.2-2.7,2.7-2.7h2.7V5.9c0-0.7,0.6-1.4,1.4-1.4
	c0.7,0,1.4,0.6,1.4,1.4v10.8h2.7c1.5,0,2.7,1.2,2.7,2.7v5.4l0,0l0,0c3,0,5.4,2.4,5.4,5.4V41h9.5v-8.1h5.4v-4.1h8.1v4.1h1.4v33.8
	H25.6z M41.8,20.7c0-0.7-0.6-1.4-1.4-1.4h-5.4c-0.7,0-1.4,0.6-1.4,1.4v4.1h8.1V20.7z M47.2,30.2c0-1.5-1.2-2.7-2.7-2.7H31
	c-1.5,0-2.7,1.2-2.7,2.7v33.8h18.9V30.2z M59.4,43.7h-9.5v20.3h9.5V43.7z M71.5,35.6h-9.5v28.4h9.5V35.6z M66.1,39.6h1.4
	c0.7,0,1.4,0.6,1.4,1.4v1.4c0,0.7-0.6,1.4-1.4,1.4h-1.4c-0.7,0-1.4-0.6-1.4-1.4V41C64.8,40.2,65.4,39.6,66.1,39.6z M66.1,47.7h1.4
	c0.7,0,1.4,0.6,1.4,1.4v1.4c0,0.7-0.6,1.4-1.4,1.4h-1.4c-0.7,0-1.4-0.6-1.4-1.4v-1.4C64.8,48.3,65.4,47.7,66.1,47.7z M66.1,55.8h1.4
	c0.7,0,1.4,0.6,1.4,1.4v1.4c0,0.7-0.6,1.4-1.4,1.4h-1.4c-0.7,0-1.4-0.6-1.4-1.4v-1.4C64.8,56.4,65.4,55.8,66.1,55.8z M54,47.7h1.4
	c0.7,0,1.4,0.6,1.4,1.4v1.4c0,0.7-0.6,1.4-1.4,1.4H54c-0.7,0-1.4-0.6-1.4-1.4v-1.4C52.6,48.3,53.2,47.7,54,47.7z M54,55.8h1.4
	c0.7,0,1.4,0.6,1.4,1.4v1.4c0,0.7-0.6,1.4-1.4,1.4H54c-0.7,0-1.4-0.6-1.4-1.4v-1.4C52.6,56.4,53.2,55.8,54,55.8z M41.8,59.9h-1.4
	c-0.7,0-1.4-0.6-1.4-1.4v-1.4c0-0.7,0.6-1.4,1.4-1.4h1.4c0.7,0,1.4,0.6,1.4,1.4v1.4C43.2,59.3,42.6,59.9,41.8,59.9z M41.8,51.8h-1.4
	c-0.7,0-1.4-0.6-1.4-1.4v-1.4c0-0.7,0.6-1.4,1.4-1.4h1.4c0.7,0,1.4,0.6,1.4,1.4v1.4C43.2,51.2,42.6,51.8,41.8,51.8z M41.8,43.7h-1.4
	c-0.7,0-1.4-0.6-1.4-1.4V41c0-0.7,0.6-1.4,1.4-1.4h1.4c0.7,0,1.4,0.6,1.4,1.4v1.4C43.2,43.1,42.6,43.7,41.8,43.7z M41.8,35.6h-1.4
	c-0.7,0-1.4-0.6-1.4-1.4v-1.4c0-0.7,0.6-1.4,1.4-1.4h1.4c0.7,0,1.4,0.6,1.4,1.4v1.4C43.2,35,42.6,35.6,41.8,35.6z M35.1,59.9h-1.4
	c-0.7,0-1.4-0.6-1.4-1.4v-1.4c0-0.7,0.6-1.4,1.4-1.4h1.4c0.7,0,1.4,0.6,1.4,1.4v1.4C36.4,59.3,35.8,59.9,35.1,59.9z M35.1,51.8h-1.4
	c-0.7,0-1.4-0.6-1.4-1.4v-1.4c0-0.7,0.6-1.4,1.4-1.4h1.4c0.7,0,1.4,0.6,1.4,1.4v1.4C36.4,51.2,35.8,51.8,35.1,51.8z M35.1,43.7h-1.4
	c-0.7,0-1.4-0.6-1.4-1.4V41c0-0.7,0.6-1.4,1.4-1.4h1.4c0.7,0,1.4,0.6,1.4,1.4v1.4C36.4,43.1,35.8,43.7,35.1,43.7z M35.1,35.6h-1.4
	c-0.7,0-1.4-0.6-1.4-1.4v-1.4c0-0.7,0.6-1.4,1.4-1.4h1.4c0.7,0,1.4,0.6,1.4,1.4v1.4C36.4,35,35.8,35.6,35.1,35.6z"/>
</svg>
