<?xml version="1.0" encoding="utf-8"?>
<!-- Generator: Adobe Illustrator 22.1.0, SVG Export Plug-In . SVG Version: 6.00 Build 0)  -->
<svg version="1.1" id="Layer_1" xmlns="http://www.w3.org/2000/svg" xmlns:xlink="http://www.w3.org/1999/xlink" x="0px" y="0px"
	 viewBox="0 0 100 100" style="enable-background:new 0 0 100 100;" xml:space="preserve">
<style type="text/css">
	.st0{fill:#EAF4FB;}
	.st1{fill:#3498DB;}
</style>
<g>
	<path class="st0" d="M51.7,25.1c-0.4,0-0.8,0.1-1.2,0.2l-3.4,1.8c0.3-0.1,0.7-0.2,1.1-0.2c0.8,0,1.6,0.2,2.5,0.8
		c3.1,1.8,5.6,6.2,5.6,9.7c0,1.3-0.3,2.3-0.9,3l0,0l3.1-1.8c0.7-0.7,1.2-1.8,1.2-3.2c0-3.5-2.4-7.8-5.5-9.5
		C53.3,25.4,52.4,25.1,51.7,25.1"/>
	<polyline class="st1" points="70.4,52 70.2,52 70.2,67 57.5,74.4 57.4,59.8 70.5,52.1 70.4,52 70.2,52 70.4,52 70.3,51.8 
		57.1,59.4 57,59.6 57,74.8 57.1,75 57.4,75 70.6,67.3 70.7,67.1 70.6,52 70.5,51.8 70.3,51.8 70.4,52 	"/>
	<polyline class="st1" points="57.3,74.8 57.4,74.6 29.8,58.6 29.8,43.9 57,59.8 57,74.8 57.3,74.8 57.4,74.6 57.3,74.8 57.5,74.8 
		57.4,59.6 57.3,59.4 29.7,43.3 29.5,43.3 29.3,43.5 29.4,58.7 29.5,58.9 57.1,75 57.4,75 57.5,74.8 57.3,74.8 	"/>
	<path class="st1" d="M63.7,56.1v14.8c0,0.1,0.1,0.2,0.2,0.2c0.1,0,0.2-0.1,0.2-0.2V56.1c0-0.1-0.1-0.2-0.2-0.2S63.7,56,63.7,56.1"
		/>
	<path class="st1" d="M68.5,55.2v10.9L59,71.6V60.7L68.5,55.2 M68.5,54.8h-0.2l-9.4,5.6c-0.1,0.1-0.2,0.2-0.2,0.3v10.9
		c0,0.2,0.2,0.4,0.4,0.4l0,0h0.2l9.5-5.5c0.1-0.1,0.2-0.2,0.1-0.3V55.3C68.9,55,68.7,54.8,68.5,54.8"/>
	<path class="st1" d="M31.8,47.3L55,60.9v10.2L31.8,57.4V47.3L31.8,47.3 M31.8,46.9c-0.2,0-0.4,0.2-0.4,0.4l0,0v10.2
		c0,0.1,0.1,0.3,0.2,0.3l23.4,13.6c0.2,0.1,0.4,0.1,0.5-0.1l0,0c0,0,0-0.1,0-0.2V60.9c0-0.1-0.1-0.3-0.2-0.3L32,47L31.8,46.9
		L31.8,46.9"/>
	<polyline class="st1" points="67.8,55.5 67.9,65.7 59.1,70.7 59,70.9 59.2,71 68.1,65.9 68.2,65.8 68.1,55.5 68,55.3 67.8,55.5 
		67.8,55.5 	"/>
	<path class="st0" d="M63.7,58l-4.6,2.6v10l4.5-2.6L63.7,58 M67.8,55.6l-3.8,2.2v10l3.9-2.2L67.8,55.6"/>
	<polyline class="st1" points="64.1,57.8 63.7,58 63.7,68 64.1,67.8 64.1,57.8 	"/>
	<polyline class="st1" points="68,55.5 67.8,55.6 67.9,65.7 64.1,67.8 63.7,68 59.1,70.7 59.1,70.8 68.1,65.7 68,55.5 	"/>
	<polyline class="st0" points="51.9,59.1 51.9,69.2 52.1,69.3 52.9,69.1 53,59.7 51.9,59.1 	"/>
	<path class="st1" d="M51.9,69.2v0.2h0.2L51.9,69.2 M51.9,59L51.9,59l1,0.7l0,0L51.9,59"/>
	<polygon class="st1" points="51.9,69.2 50.9,68.6 50.9,58.2 50.7,58.1 50.6,58.2 50.6,68.7 50.7,68.8 51.8,69.5 52,69.4 	"/>
	<polyline class="st1" points="55.3,70.1 53,68.8 52.8,68.9 52.9,69.1 55.2,70.4 55.4,70.3 55.3,70.1 	"/>
	<polyline class="st0" points="47.7,56.6 47.7,66.7 48,66.8 48.8,66.7 48.8,57.2 47.7,56.6 	"/>
	<polyline class="st1" points="47.7,66.7 47.7,66.9 48,66.8 47.7,66.7 	"/>
	<polygon class="st1" points="47.8,66.8 46.7,66.3 46.7,55.8 46.6,55.6 46.4,55.8 46.4,66.3 46.5,66.5 47.7,67 47.9,67 	"/>
	<polyline class="st1" points="50.8,67.6 48.9,66.6 48.7,66.6 48.8,66.7 50.7,67.9 50.9,67.8 50.8,67.6 	"/>
	<polyline class="st1" points="46.7,65.3 44.4,64 44.2,64 44.3,64.2 46.5,65.5 46.7,65.5 46.7,65.3 	"/>
	<polyline class="st0" points="43.5,54.1 43.5,64.3 43.7,64.4 44.4,64.3 44.3,64.2 44.2,64 44.4,64 44.5,64 44.5,54.8 43.5,54.1 	
		"/>
	<polyline class="st1" points="43.5,64.3 43.5,64.5 43.7,64.4 43.5,64.3 	"/>
	<polyline class="st1" points="44.4,64 44.2,64 44.3,64.2 44.4,64.3 44.5,64.3 44.5,64 44.4,64 	"/>
	<polygon class="st1" points="43.5,64.4 42.4,63.8 42.5,53.3 42.3,53.2 42.2,53.3 42.1,63.9 42.2,64 43.4,64.6 43.6,64.6 	"/>
	<polyline class="st0" points="39.2,51.7 39.2,61.8 39.5,62 40.2,61.8 40.3,52.4 39.2,51.7 	"/>
	<polyline class="st1" points="39.2,61.8 39.2,62.1 39.5,62 39.2,61.8 	"/>
	<polygon class="st1" points="39.2,61.9 38.2,61.3 38.2,50.9 38.1,50.7 37.9,50.9 37.9,61.4 38,61.5 39.1,62.2 39.3,62.1 	"/>
	<polyline class="st1" points="42.4,62.8 40.4,61.6 40.2,61.7 40.2,61.9 42.2,63 42.4,63 42.4,62.8 	"/>
	<polyline class="st0" points="35,49.3 35,59.4 35.3,59.5 36,59.3 36,50 35,49.3 	"/>
	<polyline class="st1" points="35,59.4 35,59.6 35.3,59.5 35,59.4 	"/>
	<polygon class="st1" points="34.9,59.3 33.8,58.7 33.9,48.4 33.6,48.4 33.5,58.8 33.6,59 34.8,59.6 	"/>
	<polyline class="st1" points="38.1,60.2 36.1,59.1 35.9,59.1 35.9,59.3 37.9,60.5 38.1,60.4 38.1,60.2 	"/>
	<polyline class="st1" points="33.8,57.7 31.7,56.4 31.5,56.7 33.6,57.9 	"/>
	<path class="st1" d="M70.4,64v3.3L64,70.9V71c0,0.1-0.1,0.2-0.2,0.2c-0.1,0-0.1,0-0.2-0.1l-6.2,3.6v0.1L57.3,75l13.3-7.7l0.1-0.2
		V64H70.4"/>
	<path class="st1" d="M57.5,74.8L57.5,74.8 M42.7,66.6L57.1,75h0.2l0,0l0.1-0.2h-0.2h0.2v-0.1L57,74.9L42.7,66.6 M29.4,56.2
		L29.4,56.2v1.4V56.2"/>
	<path class="st1" d="M64.1,70.9l-0.4,0.2c0,0.1,0.1,0.1,0.2,0.1C64,71.2,64.1,71.1,64.1,70.9L64.1,70.9"/>
	<polyline class="st0" points="56,40.3 52.5,41.4 52.5,50 56,48 56,40.3 	"/>
	<path class="st1" d="M50.7,27.8L50.6,28c3.1,1.7,5.5,6.1,5.5,9.5c0,1.2-0.3,2.2-0.8,2.8c-0.5,0.6-1.2,1-2.1,1c-0.2,0-0.4,0-0.7-0.1
		h-0.2l-0.1,0.2v8.3l-4.6-2.6l1.1-0.7c0.1-0.1,0.1-0.2,0.1-0.3l-1.3-2.3l1.3-0.7C49,43,49,42.9,49,42.8l-1.3-2.3l1.4-0.8l0-0.2v-0.2
		L49,39.1c-2.2-2.1-3.7-5.4-3.7-8.2c0-1.3,0.3-2.2,0.8-2.9c0.5-0.6,1.2-1,2.1-1c0.7,0,1.5,0.2,2.4,0.7L50.7,27.8l0.1-0.2
		c-0.9-0.5-1.8-0.8-2.6-0.8c-1,0-1.9,0.4-2.4,1.1C45.3,28.6,45,29.7,45,31c0,2.9,1.6,6.3,3.9,8.4l0.2-0.2h-0.2v0.1l-1.4,0.8
		c-0.4,0.1-0.4,0.3-0.4,0.4l1.3,2.3l-1.2,0.7c-0.1,0.1-0.1,0.2-0.1,0.3l1.3,2.3l-1.3,0.7V47l0.1,0.2l5.2,3h0.2l0.1-0.2v-8.6h-0.2
		v0.2c0.3,0,0.5,0.1,0.7,0.1c1,0,1.9-0.4,2.4-1.1c0.6-0.7,0.9-1.8,0.9-3.1c0-3.7-2.5-8.1-5.7-9.9V27.8z M50.6,33.2
		c0.2,0.1,0.5,0.2,0.7,0.2c0.3,0,0.6-0.1,0.7-0.3c0.2-0.2,0.3-0.5,0.3-0.9l0,0c0-1.1-0.6-2-1.5-2.6l0,0c-0.2-0.1-0.5-0.2-0.7-0.2
		c-0.3,0-0.6,0.1-0.7,0.3c-0.2,0.2-0.3,0.5-0.3,0.9l0,0C49.2,31.7,49.8,32.7,50.6,33.2c0.1,0.1,0.2,0,0.3-0.1c0.1-0.1,0-0.2-0.1-0.3
		c-0.8-0.5-1.2-1.3-1.3-2.2h-0.2h0.2c0-0.3,0.1-0.5,0.2-0.6c0.1-0.1,0.2-0.2,0.4-0.2c0.1,0,0.3,0,0.5,0.2l0.1-0.2L50.6,30
		c0.8,0.5,1.3,1.3,1.3,2.2h0.2h-0.2c0,0.3-0.1,0.5-0.2,0.6S51.5,33,51.3,33c-0.1,0-0.3,0-0.5-0.2c-0.1-0.1-0.2,0-0.3,0.1
		C50.4,33,50.5,33.2,50.6,33.2L50.6,33.2z"/>
	<path class="st1" d="M49,39.3l-6.4-3.6h-0.2l-12.9,7.6l-0.1,0.2l0.1,0.2l27.6,16.2h0.2l13.2-7.7l0.1-0.2l-0.1-0.2l-14.4-8.4
		c-0.1-0.1-0.2,0-0.3,0.1c-0.1,0.1,0,0.2,0.1,0.3L70,52l-12.8,7.4L30,43.5l12.5-7.4l6.3,3.6c0.1,0.1,0.2,0,0.3-0.1
		C49.1,39.5,49.1,39.3,49,39.3L49,39.3z"/>
	<polygon class="st1" points="56,48.2 59.8,45.8 56,43.5 	"/>
	<path class="st1" d="M55.8,40.1v7.8l-3,1.8v-8.3c0-0.1-0.1-0.2-0.2-0.2s-0.2,0.1-0.2,0.2V50l0.1,0.2h0.2l3.5-2l0.1-0.2v-7.9
		c0-0.1-0.1-0.2-0.2-0.2C55.9,39.8,55.8,39.9,55.8,40.1L55.8,40.1z"/>
	<path class="st1" d="M46.6,27.7l4-2.1l-0.1-0.2l0.1,0.2c0.3-0.1,0.7-0.2,1.1-0.2c0.7,0,1.5,0.2,2.4,0.7c3,1.7,5.4,6,5.4,9.3
		c0,1.4-0.4,2.5-1.1,3.1l0.1,0.2l-0.1-0.2l-3.1,1.8c-0.1,0.1-0.1,0.2-0.1,0.3c0.1,0.1,0.2,0.1,0.3,0.1l3.1-1.8l0,0
		c0.8-0.7,1.3-1.9,1.3-3.4c0-3.6-2.5-8-5.6-9.7c-0.9-0.5-1.8-0.8-2.6-0.8c-0.5,0-0.9,0.1-1.3,0.3l0,0l-4,2.1
		c-0.1,0.1-0.1,0.2-0.1,0.3C46.4,27.7,46.5,27.8,46.6,27.7L46.6,27.7z"/>
	<polygon class="st1" points="53,59.7 52.8,59.7 52.8,69 52,69.1 52.1,59.3 52.9,59.8 53,59.7 52.8,59.7 53,59.7 53,59.6 52,58.9 
		51.8,58.9 51.8,59 51.7,69.3 51.8,69.5 51.9,69.5 53,69.2 53.1,69.1 53.1,59.7 53,59.6 	"/>
	<polygon class="st1" points="48.8,57.2 48.6,57.2 48.6,66.6 47.9,66.7 47.9,56.9 48.7,57.4 48.8,57.2 48.6,57.2 48.8,57.2 
		48.9,57.1 47.8,56.5 47.7,56.5 47.6,56.6 47.6,66.9 47.6,67 47.8,67 48.8,66.8 48.9,66.7 48.9,57.2 48.9,57.1 	"/>
	<polygon class="st1" points="44.5,54.8 44.4,54.8 44.3,64.1 43.6,64.3 43.6,54.4 44.4,54.9 44.5,54.8 44.4,54.8 44.5,54.8 
		44.6,54.7 43.5,54 43.4,54 43.3,54.1 43.3,64.5 43.4,64.6 43.5,64.7 44.5,64.4 44.6,64.3 44.6,54.8 44.6,54.7 	"/>
	<polygon class="st1" points="40.3,52.4 40.1,52.4 40.1,61.7 39.3,61.9 39.4,51.9 40.2,52.5 40.3,52.4 40.1,52.4 40.3,52.4 
		40.4,52.2 39.3,51.5 39.2,51.5 39.1,51.7 39,62.1 39.1,62.2 39.2,62.2 40.3,62 40.4,61.8 40.4,52.4 40.4,52.2 	"/>
	<polygon class="st1" points="36,50 35.9,50 35.8,59.2 35.1,59.4 35.1,49.5 36,50 36,50 35.9,50 36,50 36.1,49.8 35.1,49.1 
		34.9,49.1 34.8,49.3 34.8,59.6 34.9,59.7 35,59.7 36,59.5 36.1,59.3 36.2,50 36.1,49.8 	"/>
</g>
</svg>
