<svg id="Layer_1" data-name="Layer 1" xmlns="http://www.w3.org/2000/svg" viewBox="0 0 100 100"><defs><style>.cls-1{fill:#3497da;}</style></defs><path class="cls-1" d="M28,84.82A4.54,4.54,0,0,1,26.15,83a5.79,5.79,0,0,1,0-5.36A4.59,4.59,0,0,1,28,75.88a5.45,5.45,0,0,1,2.65-.64A5.21,5.21,0,0,1,34,76.31v1.06a4.71,4.71,0,0,0-3.28-1.13,4.42,4.42,0,0,0-2.13.5,3.65,3.65,0,0,0-1.47,1.44,4.69,4.69,0,0,0,0,4.35A3.7,3.7,0,0,0,28.6,84a4.39,4.39,0,0,0,2.11.5,5.83,5.83,0,0,0,1.88-.28,4.27,4.27,0,0,0,1.53-.92v1.08a5.08,5.08,0,0,1-3.49,1.11A5.5,5.5,0,0,1,28,84.82Z"/><path class="cls-1" d="M36.1,84.72a2.64,2.64,0,0,1-.72-1.95V78.52h1.08v4.31a1.59,1.59,0,0,0,1.83,1.76,2.65,2.65,0,0,0,1.35-.34,3.12,3.12,0,0,0,1-1.06V78.52h1.08v6.72h-1v-1a3,3,0,0,1-2.55,1.22A2.78,2.78,0,0,1,36.1,84.72Z"/><path class="cls-1" d="M44.65,85.26a3.8,3.8,0,0,1-1.18-.47V83.88a5,5,0,0,0,1.23.52,4.9,4.9,0,0,0,1.34.2,2.42,2.42,0,0,0,1.25-.25,0.81,0.81,0,0,0,.39-0.73A1,1,0,0,0,47.5,83a1.38,1.38,0,0,0-.56-0.38,10.06,10.06,0,0,0-1.22-.39,7.11,7.11,0,0,1-1.29-.47,1.88,1.88,0,0,1-.73-0.62,1.71,1.71,0,0,1-.25-1,1.57,1.57,0,0,1,.73-1.39,3.51,3.51,0,0,1,2-.48,6.18,6.18,0,0,1,1.24.12,3.61,3.61,0,0,1,1,.33v0.91a3.82,3.82,0,0,0-1-.36,5.27,5.27,0,0,0-1.19-.13,2.55,2.55,0,0,0-1.23.24,0.82,0.82,0,0,0-.42.77,0.92,0.92,0,0,0,.15.56,1.26,1.26,0,0,0,.55.36,12.36,12.36,0,0,0,1.28.4,4.31,4.31,0,0,1,1.76.82,1.69,1.69,0,0,1,.5,1.29A1.58,1.58,0,0,1,48.08,85a3.41,3.41,0,0,1-2,.49A5.85,5.85,0,0,1,44.65,85.26Z"/><path class="cls-1" d="M51.23,84.89a2.24,2.24,0,0,1-.52-1.6V79.36H49.66V78.52h1.05v-2h1.08v2h1.69v0.84H51.79v4a1.39,1.39,0,0,0,.28,1,1.41,1.41,0,0,0,1,.29,2,2,0,0,0,.77-0.17v0.88a4,4,0,0,1-1.15.14A1.93,1.93,0,0,1,51.23,84.89Z"/><path class="cls-1" d="M56.76,85a3.15,3.15,0,0,1-1.32-1.24,4,4,0,0,1,0-3.76,3.28,3.28,0,0,1,1.32-1.26,4.36,4.36,0,0,1,3.85,0A3.28,3.28,0,0,1,61.95,80a4,4,0,0,1,0,3.76A3.15,3.15,0,0,1,60.64,85,4.55,4.55,0,0,1,56.76,85Zm3.86-1.15a3.06,3.06,0,0,0,0-3.95,2.89,2.89,0,0,0-3.85,0,3.06,3.06,0,0,0,0,3.95A2.89,2.89,0,0,0,60.63,83.86Z"/><path class="cls-1" d="M64.1,78.52h1v1.05a2.92,2.92,0,0,1,2.39-1.26,2.46,2.46,0,0,1,1.31.29,1.66,1.66,0,0,1,.68.88,2.71,2.71,0,0,1,1.11-.89A3.42,3.42,0,0,1,72,78.31a2.23,2.23,0,0,1,1.75.62,2.67,2.67,0,0,1,.55,1.82v4.49H73.23V80.87a2,2,0,0,0-.33-1.32,1.49,1.49,0,0,0-1.17-.38,2.37,2.37,0,0,0-2,1.08,3.46,3.46,0,0,1,0,.64v4.34H68.74V80.9a2.2,2.2,0,0,0-.31-1.33,1.39,1.39,0,0,0-1.15-.39,2.57,2.57,0,0,0-2.11,1.34v4.72H64.1V78.52Z"/><path class="cls-1" d="M61.56,53.78l0.1-.08a2.86,2.86,0,0,0,.27-0.23c0.23-.2.56-0.47,0.93-0.84a19.71,19.71,0,0,0,2.45-2.89,19.25,19.25,0,0,0,1.81-3.33c0.1-.24.19-0.46,0.26-0.66l0.18-.51c0-.15.09-0.26,0.11-0.33l0-.12L68,44.95l0.66,0.43c0.54,0.36,1.26.87,2,1.42s1.37,1.12,1.87,1.56,0.83,0.76.83,0.76-0.06.15-.18,0.39L72.91,50l-0.13.27-0.16.3a25.57,25.57,0,0,1-1.75,3,28.81,28.81,0,0,1-2.13,2.71L68,57l-0.23.23-0.08.08s-0.41-.19-1-0.49-1.37-.72-2.14-1.18-1.5-.93-2-1.3-0.9-.61-0.9-0.61h0Z"/><path class="cls-1" d="M46,57.34l0.12,0,0.34,0.08L47,57.55l0.33,0.06,0.37,0a18.78,18.78,0,0,0,3.8.11,18.19,18.19,0,0,0,3.73-.67l0.35-.1,0.31-.11,0.52-.18,0.44-.18s0,0.43.1,1.09S57,59.15,57,60s0,1.79,0,2.44S56.9,63.6,56.9,63.6l-0.41.12L55.38,64c-0.23.06-.48,0.1-0.75,0.15l-0.83.15c-0.58.08-1.21,0.17-1.83,0.2s-1.26.06-1.83,0.08l-0.84,0c-0.26,0-.52,0-0.76,0l-1.13-.09-0.43,0s-0.11-.44-0.25-1.09-0.29-1.53-.42-2.4-0.22-1.74-.26-2.4S46,57.34,46,57.34h0Z"/><path class="cls-1" d="M33.44,47.36l0.22,0.42c0.07,0.14.15,0.3,0.26,0.48l0.35,0.61a18,18,0,0,0,2.29,3,19,19,0,0,0,2.86,2.5c0.21,0.15.4,0.29,0.58,0.4l0.46,0.29,0.3,0.18,0.11,0.06s-0.3.3-.79,0.76-1.14,1-1.82,1.59c-0.34.28-.7,0.56-1,0.8l-0.91.68-0.92.64L35,59.54l-0.89-.71a26.65,26.65,0,0,1-2.51-2.36C31.4,56.24,31.2,56,31,55.77s-0.4-.46-0.58-0.7l-0.52-.67-0.44-.62c-0.27-.38-0.48-0.72-0.63-0.94l-0.24-.36,0.19-.25,0.52-.63c0.43-.52,1-1.19,1.62-1.82s1.25-1.26,1.73-1.7S33.44,47.36,33.44,47.36Z"/><path class="cls-1" d="M33.44,31.36l-0.2.43c-0.06.14-.15,0.3-0.22,0.5s-0.17.41-.26,0.66a18.32,18.32,0,0,0-.94,3.66,19.19,19.19,0,0,0-.18,3.79c0,0.26,0,.49,0,0.71s0,0.39.06,0.54l0.06,0.47L30.74,42c-0.65-.1-1.52-0.25-2.38-0.43s-1.72-.41-2.36-0.6l-0.78-.24-0.29-.09s0-.16,0-0.43,0-.3,0-0.49,0-.2,0-0.3,0-.22,0-0.33c0-.47,0-1,0.07-1.6s0.12-1.21.2-1.83c0-.31.11-0.62,0.16-0.92,0-.15,0-0.3.09-0.45s0.07-.29.1-0.44,0.13-.57.2-0.82,0.15-.51.21-0.74c0.12-.45.26-0.82,0.34-1.09l0.14-.41h1.12c0.68,0,1.56.06,2.43,0.13s1.76,0.19,2.4.29,1.1,0.19,1.1.19h0Z"/><path class="cls-1" d="M46,21.38l-0.46.11L45,21.64c-0.21.06-.43,0.12-0.68,0.21a18.28,18.28,0,0,0-3.45,1.55,18.88,18.88,0,0,0-3.07,2.22c-0.2.17-.36,0.34-0.52,0.48L37,26.3l-0.18.18-0.32.34s-0.24-.36-0.56-0.93-0.76-1.34-1.15-2.13-0.76-1.6-1-2.23-0.41-1-.41-1l0.32-.28,0.37-.32,0.5-.39c0.36-.29.81-0.61,1.3-1L36.66,18l0.39-.25,0.41-.24c0.54-.32,1.1-0.6,1.63-0.87l0.78-.35,0.36-.16L40.58,16c0.44-.17.8-0.32,1.06-0.4L42,15.5s0.28,0.34.69,0.87,0.93,1.26,1.42,2,0.94,1.48,1.28,2.06S46,21.38,46,21.38Z"/><path class="cls-1" d="M61.56,24.94l-0.37-.29c-0.12-.1-0.27-0.2-0.44-0.32s-0.36-.26-0.58-0.4a18.74,18.74,0,0,0-3.37-1.74,18.26,18.26,0,0,0-3.64-1c-0.26,0-.49-0.08-0.7-0.1L51.93,21l-0.47,0s0.15-.41.38-1,0.58-1.42,1-2.23,0.78-1.6,1.11-2.19l0.55-1,0.42,0.08c0.27,0,.66.14,1.11,0.25L56.33,15l0.38,0.11,0.81,0.24c0.56,0.19,1.16.37,1.74,0.62s1.16,0.49,1.7.74L61.72,17l0.35,0.18,0.32,0.19c0.41,0.24.76,0.42,1,.58l0.36,0.24s-0.1.44-.26,1.09-0.4,1.51-.68,2.35c-0.14.42-.27,0.83-0.41,1.22s-0.28.75-.4,1.06Z"/><path class="cls-1" d="M68.52,39.36s0-.18,0-0.47,0-.33,0-0.55,0-.45,0-0.71a18.35,18.35,0,0,0-2.22-7.2l-0.35-.61-0.29-.46-0.19-.29L65.32,29l0.28-.1,0.75-.25c0.63-.2,1.47-0.43,2.34-0.65s1.73-.38,2.38-0.49,1.11-.18,1.11-0.18l0,0.1c0,0.07.08,0.16,0.15,0.28l0.23,0.44c0.09,0.17.19,0.36,0.28,0.58a27.8,27.8,0,0,1,1.25,3.22,26.83,26.83,0,0,1,.78,3.37,5.8,5.8,0,0,1,.09.64c0,0.19,0,.35.06,0.49s0,0.25,0,.31a0.85,0.85,0,0,1,0,.11l-1,.48c-0.61.27-1.42,0.63-2.25,0.94s-1.67.59-2.3,0.78-1,.3-1,0.3h0Z"/><path class="cls-1" d="M50,25.62a13.94,13.94,0,1,1-9.85,4.08A13.85,13.85,0,0,1,50,25.62Zm0-5.89A19.82,19.82,0,1,0,69.82,39.55,19.81,19.81,0,0,0,50,19.73h0Z"/><path class="cls-1" d="M50,36.07a3.48,3.48,0,1,1-3.48,3.48A3.48,3.48,0,0,1,50,36.07Zm0-5.89a9.37,9.37,0,1,0,9.37,9.37A9.38,9.38,0,0,0,50,30.18h0Z"/></svg>