<?xml version="1.0" encoding="utf-8"?>
<!-- Generator: Adobe Illustrator 18.1.1, SVG Export Plug-In . SVG Version: 6.00 Build 0)  -->
<svg version="1.1" id="Layer_1" xmlns="http://www.w3.org/2000/svg" xmlns:xlink="http://www.w3.org/1999/xlink" x="0px" y="0px"
	 viewBox="0 0 474.9 397.7" enable-background="new 0 0 474.9 397.7" xml:space="preserve">
<g>
	<rect x="-3.5" y="313.3" fill-rule="evenodd" clip-rule="evenodd" fill="none" width="481" height="113.3"/>
	<path fill="#394D54" d="M107.4,372.2c0,0.5,0,1,0,1.4c0,0.4-0.1,0.7-0.2,1c-0.1,0.3-0.2,0.6-0.3,0.8c-0.1,0.2-0.4,0.5-0.7,0.8
		c-0.3,0.3-1,0.8-2.1,1.5c-1,0.7-2.3,1.3-3.9,2c-1.5,0.6-3.3,1.2-5.3,1.6s-4.2,0.7-6.6,0.7c-4.1,0-7.8-0.7-11.1-2.1
		c-3.3-1.4-6.1-3.4-8.4-6.1c-2.3-2.7-4.1-6-5.4-9.9c-1.3-3.9-1.9-8.4-1.9-13.5c0-5.2,0.7-9.9,2-14c1.4-4.1,3.2-7.6,5.7-10.4
		c2.4-2.8,5.4-5,8.8-6.5c3.4-1.5,7.2-2.2,11.3-2.2c1.8,0,3.6,0.2,5.3,0.5c1.7,0.3,3.3,0.8,4.8,1.3c1.5,0.5,2.8,1.1,3.9,1.8
		c1.1,0.7,1.9,1.2,2.4,1.7s0.7,0.8,0.9,1c0.1,0.2,0.2,0.5,0.3,0.8c0.1,0.3,0.1,0.7,0.2,1.1c0,0.4,0.1,0.9,0.1,1.5
		c0,0.7,0,1.2-0.1,1.7c-0.1,0.5-0.2,0.8-0.3,1.1c-0.1,0.3-0.3,0.5-0.5,0.7c-0.2,0.1-0.4,0.2-0.7,0.2c-0.5,0-1.1-0.3-1.9-1
		s-1.9-1.3-3.2-2.1c-1.3-0.8-2.9-1.5-4.7-2.1c-1.8-0.6-4.1-1-6.7-1c-2.8,0-5.4,0.6-7.7,1.7s-4.3,2.8-5.9,5c-1.6,2.2-2.9,4.8-3.8,8
		c-0.9,3.1-1.3,6.7-1.3,10.8c0,4,0.4,7.5,1.3,10.6c0.9,3.1,2.1,5.6,3.7,7.7c1.6,2.1,3.6,3.6,6,4.7c2.4,1.1,5,1.6,8,1.6
		c2.5,0,4.7-0.3,6.6-0.9c1.9-0.6,3.5-1.3,4.8-2.1c1.3-0.8,2.4-1.5,3.3-2.1c0.9-0.6,1.5-0.9,2-0.9c0.2,0,0.4,0,0.6,0.1
		c0.2,0.1,0.3,0.3,0.4,0.6c0.1,0.3,0.2,0.7,0.2,1.1S107.4,371.4,107.4,372.2z"/>
	<path fill="#394D54" d="M166.1,357.8c0,3.8-0.6,7.3-1.7,10.3c-1.1,3-2.7,5.6-4.8,7.6c-2.1,2.1-4.6,3.7-7.6,4.7
		c-3,1.1-6.4,1.6-10.2,1.6c-3.5,0-6.7-0.5-9.5-1.5c-2.9-1-5.3-2.5-7.4-4.5c-2.1-2-3.6-4.4-4.7-7.4c-1.1-3-1.7-6.4-1.7-10.3v-39.2
		c0-0.3,0.1-0.5,0.2-0.7c0.1-0.2,0.4-0.3,0.7-0.5c0.3-0.1,0.7-0.2,1.3-0.3c0.5-0.1,1.2-0.1,2.1-0.1c0.8,0,1.4,0,2,0.1
		c0.6,0.1,1,0.2,1.3,0.3c0.3,0.1,0.5,0.3,0.7,0.5c0.1,0.2,0.2,0.4,0.2,0.7v38.2c0,2.9,0.4,5.5,1.1,7.7c0.7,2.2,1.7,4,3.1,5.4
		c1.4,1.4,3,2.5,4.9,3.3s4,1.1,6.4,1.1c2.4,0,4.6-0.4,6.5-1.1c1.9-0.7,3.5-1.8,4.8-3.2c1.3-1.4,2.3-3.2,3-5.3c0.7-2.1,1-4.6,1-7.4
		v-38.6c0-0.3,0.1-0.5,0.2-0.7c0.1-0.2,0.4-0.3,0.7-0.5c0.3-0.1,0.8-0.2,1.3-0.3c0.5-0.1,1.2-0.1,2-0.1c0.8,0,1.4,0,2,0.1
		c0.5,0.1,1,0.2,1.3,0.3c0.3,0.1,0.5,0.3,0.7,0.5s0.2,0.4,0.2,0.7V357.8z"/>
	<path fill="#394D54" d="M216.6,363.4c0,3-0.5,5.6-1.6,7.9c-1.1,2.3-2.6,4.3-4.5,5.9c-1.9,1.6-4.2,2.8-6.8,3.6
		c-2.6,0.8-5.4,1.2-8.5,1.2c-2.1,0-4.1-0.2-5.9-0.5c-1.8-0.4-3.4-0.8-4.8-1.3c-1.4-0.5-2.6-1.1-3.6-1.6c-1-0.6-1.6-1-2-1.4
		c-0.4-0.4-0.7-0.9-0.8-1.5c-0.2-0.6-0.3-1.4-0.3-2.4c0-0.7,0-1.3,0.1-1.8c0.1-0.5,0.2-0.9,0.3-1.1c0.1-0.3,0.3-0.5,0.5-0.6
		c0.2-0.1,0.4-0.2,0.7-0.2c0.5,0,1.1,0.3,1.9,0.8c0.8,0.6,1.9,1.2,3.2,1.8c1.3,0.7,2.9,1.3,4.7,1.8c1.8,0.6,4,0.9,6.4,0.9
		c1.8,0,3.5-0.2,5-0.7s2.8-1.2,3.9-2.1c1.1-0.9,1.9-2,2.5-3.3c0.6-1.3,0.9-2.8,0.9-4.4c0-1.8-0.4-3.3-1.2-4.6
		c-0.8-1.3-1.9-2.4-3.2-3.3c-1.3-1-2.9-1.8-4.6-2.6c-1.7-0.8-3.5-1.6-5.2-2.4c-1.8-0.8-3.5-1.7-5.2-2.8c-1.7-1-3.2-2.2-4.5-3.6
		c-1.3-1.4-2.4-3-3.2-4.8c-0.8-1.8-1.2-4-1.2-6.6c0-2.6,0.5-5,1.4-7.1c1-2.1,2.3-3.8,4-5.2c1.7-1.4,3.7-2.5,6.1-3.2
		c2.4-0.7,4.9-1.1,7.6-1.1c1.4,0,2.8,0.1,4.2,0.4s2.8,0.6,4,1c1.3,0.4,2.4,0.9,3.3,1.4c1,0.5,1.6,0.9,1.9,1.2
		c0.3,0.3,0.5,0.6,0.6,0.7c0.1,0.2,0.2,0.4,0.2,0.7c0.1,0.3,0.1,0.6,0.1,1c0,0.4,0,0.9,0,1.5c0,0.6,0,1.1-0.1,1.6
		c0,0.5-0.1,0.8-0.2,1.1c-0.1,0.3-0.2,0.5-0.4,0.7c-0.2,0.1-0.4,0.2-0.6,0.2c-0.4,0-0.9-0.2-1.7-0.7c-0.8-0.5-1.7-1-2.8-1.5
		c-1.1-0.6-2.4-1.1-3.9-1.6c-1.5-0.5-3.2-0.7-5.1-0.7c-1.8,0-3.3,0.2-4.6,0.7c-1.3,0.5-2.4,1.1-3.2,1.9c-0.8,0.8-1.5,1.7-1.9,2.8
		c-0.4,1.1-0.6,2.2-0.6,3.4c0,1.8,0.4,3.3,1.2,4.5c0.8,1.3,1.9,2.4,3.2,3.4c1.4,1,2.9,1.9,4.6,2.7c1.7,0.8,3.5,1.6,5.3,2.5
		c1.8,0.8,3.5,1.7,5.3,2.7c1.7,1,3.3,2.2,4.6,3.5c1.4,1.4,2.4,2.9,3.3,4.8C216.2,358.7,216.6,360.9,216.6,363.4z"/>
	<path fill="#394D54" d="M267.6,321.6c0,0.6,0,1.2-0.1,1.6c-0.1,0.5-0.2,0.8-0.3,1.1c-0.1,0.3-0.3,0.5-0.5,0.6
		c-0.2,0.1-0.4,0.2-0.7,0.2h-17.8v54.8c0,0.3-0.1,0.5-0.2,0.7c-0.1,0.2-0.4,0.4-0.7,0.5c-0.3,0.1-0.8,0.2-1.3,0.3
		c-0.5,0.1-1.2,0.1-2,0.1c-0.8,0-1.4,0-2-0.1c-0.6-0.1-1-0.2-1.3-0.3c-0.3-0.1-0.6-0.3-0.7-0.5c-0.1-0.2-0.2-0.4-0.2-0.7v-54.8H222
		c-0.3,0-0.5-0.1-0.7-0.2c-0.2-0.1-0.4-0.3-0.5-0.6c-0.1-0.3-0.2-0.6-0.3-1.1c-0.1-0.5-0.1-1-0.1-1.6c0-0.6,0-1.2,0.1-1.6
		c0.1-0.5,0.2-0.9,0.3-1.1c0.1-0.3,0.3-0.5,0.5-0.6c0.2-0.1,0.4-0.2,0.7-0.2h43.9c0.3,0,0.5,0.1,0.7,0.2c0.2,0.1,0.4,0.3,0.5,0.6
		s0.3,0.7,0.3,1.1C267.5,320.4,267.6,320.9,267.6,321.6z"/>
	<path fill="#394D54" d="M326.8,348.8c0,5.1-0.6,9.7-1.8,13.8c-1.2,4.1-3,7.6-5.4,10.5s-5.4,5.1-9,6.6c-3.6,1.5-7.8,2.3-12.6,2.3
		c-4.8,0-8.9-0.7-12.3-2.1s-6.3-3.5-8.6-6.2c-2.3-2.7-3.9-6.1-5.1-10.1c-1.1-4-1.7-8.6-1.7-13.8c0-5,0.6-9.5,1.8-13.6
		c1.2-4.1,3-7.5,5.4-10.4c2.4-2.8,5.4-5,9-6.6c3.6-1.5,7.8-2.3,12.6-2.3c4.7,0,8.7,0.7,12.2,2.1c3.5,1.4,6.3,3.4,8.6,6.1s4,6,5.1,10
		S326.8,343.7,326.8,348.8z M317.9,349.4c0-3.6-0.3-6.9-1-10s-1.7-5.7-3.2-8c-1.5-2.3-3.5-4-5.9-5.3c-2.5-1.3-5.5-1.9-9.2-1.9
		c-3.6,0-6.7,0.7-9.2,2.1c-2.5,1.4-4.5,3.2-6,5.5c-1.5,2.3-2.6,4.9-3.3,8c-0.7,3-1,6.2-1,9.6c0,3.7,0.3,7.1,0.9,10.3
		c0.6,3.1,1.7,5.8,3.1,8.1c1.5,2.3,3.4,4,5.9,5.3c2.5,1.3,5.5,1.9,9.2,1.9c3.7,0,6.8-0.7,9.3-2.1c2.5-1.4,4.5-3.2,6-5.5
		c1.5-2.3,2.6-5,3.3-8.1C317.6,356.1,317.9,352.8,317.9,349.4z"/>
	<path fill="#394D54" d="M408.8,379.9c0,0.3-0.1,0.5-0.2,0.7c-0.1,0.2-0.4,0.4-0.7,0.5c-0.3,0.1-0.8,0.2-1.3,0.3
		c-0.5,0.1-1.2,0.1-2,0.1c-0.8,0-1.4,0-2-0.1c-0.6-0.1-1-0.2-1.3-0.3c-0.3-0.1-0.5-0.3-0.7-0.5c-0.1-0.2-0.2-0.4-0.2-0.7v-55h-0.1
		L378,380.1c-0.1,0.2-0.2,0.4-0.4,0.6c-0.2,0.2-0.4,0.3-0.8,0.4s-0.7,0.2-1.2,0.2c-0.5,0-1,0.1-1.7,0.1c-0.7,0-1.3,0-1.8-0.1
		c-0.5-0.1-0.9-0.2-1.2-0.3c-0.3-0.1-0.6-0.3-0.8-0.4c-0.2-0.2-0.3-0.3-0.4-0.5l-21.3-55.3h0v55c0,0.3-0.1,0.5-0.2,0.7
		c-0.1,0.2-0.4,0.4-0.7,0.5c-0.3,0.1-0.8,0.2-1.3,0.3c-0.5,0.1-1.2,0.1-2.1,0.1c-0.8,0-1.5,0-2-0.1c-0.5-0.1-1-0.2-1.3-0.3
		c-0.3-0.1-0.5-0.3-0.7-0.5c-0.1-0.2-0.2-0.4-0.2-0.7v-58.1c0-1.4,0.4-2.3,1.1-2.9c0.7-0.6,1.5-0.9,2.4-0.9h5.2c1.1,0,2,0.1,2.8,0.3
		c0.8,0.2,1.5,0.5,2.1,0.9c0.6,0.4,1.1,1,1.5,1.6c0.4,0.7,0.7,1.4,1,2.3l18.1,45.8h0.2l18.8-45.6c0.4-1,0.8-1.8,1.2-2.5
		c0.4-0.7,0.9-1.2,1.4-1.6c0.5-0.4,1.1-0.7,1.7-0.9c0.6-0.2,1.4-0.3,2.2-0.3h5.4c0.5,0,1,0.1,1.4,0.2s0.8,0.4,1.1,0.7
		c0.3,0.3,0.6,0.7,0.8,1.2c0.2,0.5,0.3,1,0.3,1.7V379.9z"/>
</g>
<g id="A" display="none">
	<path display="inline" fill-rule="evenodd" clip-rule="evenodd" fill="#394D54" d="M423.1,392.4c10.7-9.2,21.5-18.4,32.2-27.7
		c3.7-3.2,7.7-6.4,11.3-9.8c-2.9-3.7-7.8-6.3-11.9-7.9c-8.3-3.2-16.6-2.1-24.2,2.3c-10,5.8-14.3,15-13.9,26.5
		c0.1,4.5,1.4,8.9,3.8,12.7C421.2,389.9,422.1,391.2,423.1,392.4 M435.6,401.1c5.3,1.8,11.3,1.6,16.7,0.6c2.8-1.2,9.8-4.3,12.4-3.8
		l0.4,0.1l0.4,0.2c1.6,0.8,3.1,1.9,3.9,3.5c1.9,3.8,1,7.6-2.7,9.7l-1.2,0.7c-13.7,7.9-28.3,6.8-42-0.6c-6.5-3.5-11.5-8.8-15.2-15.2
		l-0.9-1.5c-8.8-15.3-7.6-31.3,2.3-45.8c3.4-5,7.9-8.9,13.2-11.9l2-1.1c12.9-7.5,26.8-7,40.1-0.4c7.1,3.5,12.9,8.8,16.9,15.7
		l0.7,1.2c2.9,5-0.9,9.4-4.7,12.4c-4.5,3.5-9,7.6-13.3,11.4C454.7,384.5,445.2,392.8,435.6,401.1z M538.4,331.7h1.4
		c4.3,0,7.2,2.9,7.2,7.2c0,6-5.7,7.5-10.7,7.5c-6.5,0-12.7,3.9-17.2,8.3c-5.6,5.5-8,12.6-8,20.3v35c0,4-2.5,7.2-6.7,7.2h-1.1
		c-4.2,0-6.7-3.2-6.7-7.2v-37c0-14.2,6.9-25.8,18.5-34C522.1,334.3,530,331.7,538.4,331.7z M358.1,356.6c5.6-5.6,11.3-11.2,17-16.8
		c1.6-1.5,7.6-8.1,10-8.1h2.6l0.3,0.1c3.3,0.7,5.8,2.8,5.8,6.3v1.4c0,2.4-2.8,5.2-4.4,6.9c-3.3,3.5-6.8,6.9-10.2,10.4l-17.5,17.7
		c7.5,7.5,15,15.1,22.5,22.7c2.1,2.1,4.1,4.2,6.2,6.3c0.7,0.8,1.8,1.7,2.4,2.7c0.6,1,1,2.1,1,3.3v1.5l-0.1,0.3c-0.8,3.3-2.9,6-6.6,6
		h-1.2c-2.4,0-5.1-2.7-6.7-4.3c-3.4-3.2-6.6-6.5-10-9.8l-11.1-10.9v17.4c0,4-2.5,7.2-6.7,7.2h-1.1c-4.2,0-6.7-3.2-6.7-7.2v-98.2
		c0-4,2.5-7.2,6.7-7.2h1.1c4.2,0,6.7,3.2,6.7,7.2V356.6z M311.1,346.8c-2.2-1-6.3-1.4-8.6-1.5c-12.1-0.5-20.8,6.4-26,17
		c-1.8,3.7-2.6,7.6-2.6,11.6c0,12.4,6.5,21.1,17.6,26.4c4,1.9,9.3,2.3,13.7,2.3c3.9,0,9.4-2.4,12.8-4l0.6-0.3h2.7l0.3,0.1
		c3.3,0.7,5.8,2.8,5.8,6.3v1.4c0,8.8-16.1,10.8-22.2,11.3c-21.7,1.5-37.9-10.4-44.1-31.1c-1.1-3.6-1.6-7.2-1.6-10.9v-2.9
		c0-15.7,7.8-28.1,21.2-36.1c6.3-3.7,13.2-5.6,20.4-5.6h2.9c7.7,0,14.8,2.2,21.2,6.5l0.5,0.4l0.3,0.5c0.7,1.1,1.3,2.5,1.3,3.8v1.4
		c0,3.7-2.8,5.7-6.1,6.3l-0.3,0h-0.9C318,349.9,313.1,347.7,311.1,346.8z M179.2,374.3c0,11,5.4,19.1,14.7,24.8
		c4.4,2.7,9.2,3.9,14.3,3.9c10.9,0,18.9-5.5,24.5-14.7c2.7-4.4,3.9-9.2,3.9-14.3c0-10.2-4.9-18-13.3-23.7c-4.6-3.1-9.8-4.7-15.3-4.7
		c-12.1,0-20.8,6.1-26.1,17C180,366.3,179.2,370.2,179.2,374.3z M206.4,331.1h2c16.8,0,29.5,8.1,37.6,22.8c3.2,5.9,5,12.2,5,18.9
		v2.9c0,15.7-7.7,28.2-21.3,36.1c-6.3,3.7-13.2,5.6-20.4,5.6h-2.9c-15.7,0-28.2-7.8-36.1-21.3c-3.7-6.3-5.6-13.2-5.6-20.4v-2.9
		c0-15.7,7.8-28.1,21.2-36.1C192.2,333,199.2,331.1,206.4,331.1z M84.5,374.3c0,11.3,5.5,19.8,15.4,25.3c4,2.2,8.4,3.4,13,3.4
		c11.1,0,19.4-5.2,25.1-14.7c2.6-4.4,3.9-9.2,3.9-14.3c0-9.8-4.7-17.5-12.6-23.2c-4.8-3.5-10.2-5.2-16.1-5.2
		c-12.1,0-20.8,6.1-26.1,17C85.3,366.3,84.5,370.2,84.5,374.3z M141.8,341.9v-30.6c0-4,2.5-7.2,6.7-7.2h1.2c4.2,0,6.7,3.2,6.7,7.2
		v64.3c0,15.7-7.7,28.2-21.3,36.1c-6.3,3.7-13.2,5.6-20.4,5.6h-2.9c-15.7,0-28.2-7.8-36.1-21.3c-3.7-6.3-5.6-13.2-5.6-20.4v-2.9
		c0-15.7,7.8-28.2,21.2-36.1c6.3-3.7,13.2-5.6,20.4-5.6h2.9C125.2,331.1,134.2,335.2,141.8,341.9z"/>
	<path display="inline" fill-rule="evenodd" clip-rule="evenodd" fill="#394D54" d="M345,102.5h42.7v43.6h21.6c10,0,20.2-1.8,29.7-5
		c4.6-1.6,9.8-3.8,14.4-6.5c-6-7.9-9.1-17.8-10-27.6c-1.2-13.3,1.5-30.7,10.5-41.1l4.5-5.2l5.3,4.3c13.5,10.8,24.8,25.9,26.8,43.2
		c16.2-4.8,35.2-3.6,49.5,4.6l5.9,3.4l-3.1,6c-12.1,23.6-37.4,30.9-62.1,29.6c-37,92.1-117.4,135.7-215,135.7
		c-50.4,0-96.7-18.8-123-63.6l-0.4-0.7l-3.8-7.8c-8.9-19.7-11.9-41.3-9.9-62.8l0.6-6.5h36.5v-43.6h42.7V59.8h85.4V17.1H345V102.5z"
		/>
	<path display="inline" fill-rule="evenodd" clip-rule="evenodd" fill="#00AADA" d="M265.7,280.4c-53.7,0-94.8-22.6-115.6-57.9
		l-3.1-5.7c-9.4-18.5-13.5-40.1-11.3-63.6h273.6c22.5,0,44.4-8.4,54.8-17.6c-18.7-15.2-16.8-51.2-4.9-65c10.3,8.3,27,25.8,24.1,48
		c13-6.5,35.6-9.8,53.1,0.4c-11,21.5-35.2,27.9-60.4,25.3C440.5,238.4,360.3,280.4,265.7,280.4"/>
	<path display="inline" fill-rule="evenodd" clip-rule="evenodd" fill="#24B8EB" d="M151.9,153.2h257.4c22.5,0,44.4-8.4,54.8-17.6
		c-18.7-15.2-16.8-51.2-4.9-65c10.3,8.3,27,25.8,24.1,48c0.6-0.3,1.1-0.5,1.7-0.8c-39,50.2-94.8,94.1-154.8,117.2
		C227.1,274.6,149.3,238,151.9,153.2"/>
	<path display="inline" fill-rule="evenodd" clip-rule="evenodd" fill="#008BB8" d="M265.7,280.4c-53.7,0-94.8-22.6-115.6-57.9
		l-3.1-5.7c-5.5-10.7-9.1-22.5-10.8-35.1H458C417.1,249.6,346.7,280.4,265.7,280.4"/>
	<path display="inline" fill-rule="evenodd" clip-rule="evenodd" fill="#039BC6" d="M154.4,181.7h267.4
		c-27.9,22.3-59.1,40.8-91.5,53.2C239.5,269.8,168.4,245.7,154.4,181.7"/>
	<path display="inline" fill-rule="evenodd" clip-rule="evenodd" fill="#BFDBE0" d="M265.7,280.4c-52.9,0-81.3-17.9-104.2-40.5
		l42.5-1.2l26-5.7c7.6,18.2,21.6,35,47.3,47.2C273.5,280.3,269.6,280.4,265.7,280.4"/>
	<path display="inline" fill-rule="evenodd" clip-rule="evenodd" fill="#D4EDF1" d="M203.6,241.7l0.3,0l26.2-8.8
		c2.5,6,5.7,11.9,9.9,17.5C226.5,249.3,214.3,246.4,203.6,241.7"/>
	<path display="inline" fill-rule="evenodd" clip-rule="evenodd" fill="#00ACD3" d="M203.8,112.7h2.9v30.8h-2.9V112.7z M198.2,112.7
		h3v30.8h-3V112.7z M192.6,112.7h3v30.8h-3V112.7z M187,112.7h3v30.8h-3V112.7z M181.4,112.7h3v30.8h-3V112.7z M175.9,112.7h2.9
		v30.8h-2.9V112.7z M172.8,109.6h37v37h-37V109.6z"/>
	<path display="inline" fill-rule="evenodd" clip-rule="evenodd" fill="#00ACD3" d="M246.5,70h2.9v30.8h-2.9V70z M240.9,70h3v30.8
		h-3V70z M235.3,70h3v30.8h-3V70z M229.7,70h3v30.8h-3V70z M224.1,70h3v30.8h-3V70z M218.6,70h2.9v30.8h-2.9V70z M215.5,66.9h37v37
		h-37V66.9z"/>
	<path display="inline" fill-rule="evenodd" clip-rule="evenodd" fill="#20C2EF" d="M246.5,112.7h2.9v30.8h-2.9V112.7z M240.9,112.7
		h3v30.8h-3V112.7z M235.3,112.7h3v30.8h-3V112.7z M229.7,112.7h3v30.8h-3V112.7z M224.1,112.7h3v30.8h-3V112.7z M218.6,112.7h2.9
		v30.8h-2.9V112.7z M215.5,109.6h37v37h-37V109.6z"/>
	<path display="inline" fill-rule="evenodd" clip-rule="evenodd" fill="#00ACD3" d="M289.2,112.7h2.9v30.8h-2.9V112.7z M283.6,112.7
		h3v30.8h-3V112.7z M278,112.7h3v30.8h-3V112.7z M272.4,112.7h3v30.8h-3V112.7z M266.8,112.7h3v30.8h-3V112.7z M261.3,112.7h2.9
		v30.8h-2.9V112.7z M258.2,109.6h37v37h-37V109.6z"/>
	<path display="inline" fill-rule="evenodd" clip-rule="evenodd" fill="#20C2EF" d="M289.2,70h2.9v30.8h-2.9V70z M283.6,70h3v30.8
		h-3V70z M278,70h3v30.8h-3V70z M272.4,70h3v30.8h-3V70z M266.8,70h3v30.8h-3V70z M261.3,70h2.9v30.8h-2.9V70z M258.2,66.9h37v37
		h-37V66.9z"/>
	<path display="inline" fill-rule="evenodd" clip-rule="evenodd" fill="#20C2EF" d="M331.9,112.7h2.9v30.8h-2.9V112.7z M326.3,112.7
		h3v30.8h-3V112.7z M320.7,112.7h3v30.8h-3V112.7z M315.1,112.7h3v30.8h-3V112.7z M309.5,112.7h3v30.8h-3V112.7z M304,112.7h2.9
		v30.8H304V112.7z M300.9,109.6h37v37h-37V109.6z"/>
	<path display="inline" fill-rule="evenodd" clip-rule="evenodd" fill="#00ACD3" d="M331.9,70h2.9v30.8h-2.9V70z M326.3,70h3v30.8
		h-3V70z M320.7,70h3v30.8h-3V70z M315.1,70h3v30.8h-3V70z M309.5,70h3v30.8h-3V70z M304,70h2.9v30.8H304V70z M300.9,66.9h37v37h-37
		V66.9z"/>
	<path display="inline" fill-rule="evenodd" clip-rule="evenodd" fill="#20C2EF" d="M331.9,27.3h2.9v30.8h-2.9V27.3z M326.3,27.3h3
		v30.8h-3V27.3z M320.7,27.3h3v30.8h-3V27.3z M315.1,27.3h3v30.8h-3V27.3z M309.5,27.3h3v30.8h-3V27.3z M304,27.3h2.9v30.8H304V27.3
		z M300.9,24.2h37v37h-37V24.2z"/>
	<path display="inline" fill-rule="evenodd" clip-rule="evenodd" fill="#00ACD3" d="M374.6,112.7h2.9v30.8h-2.9V112.7z M369,112.7h3
		v30.8h-3V112.7z M363.4,112.7h3v30.8h-3V112.7z M357.8,112.7h3v30.8h-3V112.7z M352.2,112.7h3v30.8h-3V112.7z M346.7,112.7h2.9
		v30.8h-2.9V112.7z M343.6,109.6h37v37h-37V109.6z"/>
	<path display="inline" fill-rule="evenodd" clip-rule="evenodd" fill="#D4EDF1" d="M250.2,206.6c5.6,0,10.2,4.6,10.2,10.2
		c0,5.6-4.6,10.2-10.2,10.2c-5.6,0-10.2-4.6-10.2-10.2C240,211.1,244.6,206.6,250.2,206.6"/>
	<path display="inline" fill-rule="evenodd" clip-rule="evenodd" fill="#394D54" d="M250.2,209.5c0.9,0,1.8,0.2,2.6,0.5
		c-0.9,0.5-1.5,1.5-1.5,2.6c0,1.6,1.3,3,3,3c1.1,0,2.1-0.6,2.6-1.6c0.4,0.9,0.6,1.8,0.6,2.8c0,4-3.3,7.3-7.3,7.3s-7.3-3.3-7.3-7.3
		C242.9,212.7,246.2,209.5,250.2,209.5"/>
	<path display="inline" fill-rule="evenodd" clip-rule="evenodd" fill="#394D54" d="M69.7,185.4h223.6h27.7h223.6
		c-10.3-2.6-32.7-6.2-29-19.7c-18.8,21.8-64.1,15.3-75.6,4.5c-12.7,18.5-86.9,11.5-92.1-2.9c-16,18.7-65.5,18.7-81.5,0
		c-5.2,14.4-79.4,21.4-92.1,2.9c-11.4,10.7-56.8,17.2-75.6-4.5C102.4,179.3,80,182.8,69.7,185.4"/>
	
		<path display="inline" fill="none" stroke="#394D54" stroke-width="6.5739" stroke-linecap="round" stroke-linejoin="round" stroke-miterlimit="2.6131" d="
		M155.4,236.9c26.8,1.8,62.4,1.7,80.8-7.4"/>
</g>
<path id="outline" fill-rule="evenodd" clip-rule="evenodd" fill="#394D54" d="M275.4,85.4h42.7V129h21.6c10,0,20.2-1.8,29.7-5
	c4.6-1.6,9.8-3.8,14.4-6.5c-6-7.9-9.1-17.8-10-27.6c-1.2-13.3,1.5-30.7,10.5-41.1l4.5-5.2l5.3,4.3c13.5,10.8,24.8,25.9,26.8,43.2
	c16.2-4.8,35.2-3.6,49.5,4.6l5.9,3.4l-3.1,6c-12.1,23.6-37.4,30.9-62.1,29.6c-37,92.1-117.4,135.7-215,135.7
	c-50.4,0-96.7-18.8-123-63.6l-0.4-0.7l-3.8-7.8c-8.9-19.7-11.9-41.3-9.9-62.8l0.6-6.5h36.5V85.4h42.7V42.7h85.4V0h51.2V85.4z"/>
<g id="body_colors">
	<path fill="#00AADA" d="M413.7,101.5c2.9-22.2-13.8-39.7-24.1-48c-11.9,13.8-13.7,49.8,4.9,65c-10.4,9.3-32.4,17.6-54.8,17.6H66
		c-2.2,23.5,1.9,45.1,11.3,63.6l3.1,5.7c2,3.3,4.1,6.6,6.5,9.7c0,0,0,0,0,0c11.2,0.7,21.6,1,31.1,0.8c0,0,0,0,0,0
		c18.6-0.4,33.9-2.6,45.4-6.6c1.7-0.6,3.6,0.3,4.2,2c0.6,1.7-0.3,3.6-2,4.2c-1.5,0.5-3.1,1-4.8,1.5c0,0,0,0,0,0
		c-9.1,2.6-18.8,4.3-31.4,5.1c0.7,0-0.8,0.1-0.8,0.1c-0.4,0-1,0.1-1.4,0.1c-4.9,0.3-10.3,0.3-15.7,0.3c-6,0-11.8-0.1-18.4-0.4
		l-0.2,0.1c22.8,25.6,58.4,41,103.1,41c94.6,0,174.8-41.9,210.3-136c25.2,2.6,49.4-3.8,60.4-25.3C449.3,91.8,426.7,95,413.7,101.5z"
		/>
	<path fill="#24B8EB" d="M413.7,101.5c2.9-22.2-13.8-39.7-24.1-48c-11.9,13.8-13.7,49.8,4.9,65c-10.4,9.3-32.4,17.6-54.8,17.6H82.2
		c-1.1,35.9,12.2,63.2,35.8,79.7c0,0,0,0,0,0c18.6-0.4,33.9-2.6,45.4-6.6c1.7-0.6,3.6,0.3,4.2,2c0.6,1.7-0.3,3.6-2,4.2
		c-1.5,0.5-3.1,1-4.8,1.5c0,0,0,0,0,0c-9.1,2.6-19.7,4.6-32.2,5.3c0,0-0.3-0.3-0.3-0.3c32.2,16.5,78.9,16.5,132.4-4.1
		c60-23,115.8-67,154.8-117.2C414.8,101,414.3,101.3,413.7,101.5z"/>
	<path fill="#008BB8" d="M66.6,164.7c1.7,12.6,5.4,24.3,10.8,35.1l3.1,5.7c2,3.3,4.1,6.6,6.5,9.7c11.3,0.7,21.6,1,31.1,0.8
		c18.6-0.4,33.9-2.6,45.4-6.6c1.7-0.6,3.6,0.3,4.2,2c0.6,1.7-0.3,3.6-2,4.2c-1.5,0.5-3.1,1-4.8,1.5c0,0,0,0,0,0
		c-9.1,2.6-19.6,4.4-32.2,5.2c-0.4,0-1.2,0-1.6,0.1c-4.9,0.3-10.2,0.4-15.7,0.4c-6,0-12.1-0.1-18.6-0.4c22.8,25.6,58.7,41,103.4,41
		c81,0,151.4-30.7,192.3-98.6H66.6z"/>
	<path fill="#039BC6" d="M84.7,164.7c4.8,22.1,16.5,39.4,33.4,51.2c18.6-0.4,33.9-2.6,45.4-6.6c1.7-0.6,3.6,0.3,4.2,2
		c0.6,1.7-0.3,3.6-2,4.2c-1.5,0.5-3.1,1-4.8,1.5c0,0,0,0,0,0c-9.1,2.6-19.8,4.4-32.4,5.2c32.2,16.5,78.7,16.3,132.2-4.3
		c32.4-12.4,63.5-30.9,91.5-53.2H84.7z"/>
</g>
<g display="none">
	<path display="inline" fill="#394D54" d="M111.4,222.5c5.5,0,10.7-0.1,15.6-0.4c0.4,0,0.8-0.1,1.3-0.1c0,0,0,0,0,0
		c12.6-0.8,23.4-2.5,32.5-5c0,0,0,0,0,0c1.7-0.5,3.2-1,4.8-1.5c1.7-0.6,2.6-2.5,2-4.2c-0.6-1.7-2.5-2.6-4.2-2
		c-11.5,4-26.7,6.2-45.4,6.6c0,0,0,0,0,0c-9.5,0.2-19.9,0-31.1-0.8c0,0,0,0,0,0c-0.6,0-1.1-0.1-1.7-0.1c-1.8-0.1-3.4,1.2-3.5,3.1
		c-0.1,1.8,1.2,3.4,3.1,3.5c2.3,0.2,4.6,0.3,6.8,0.4c0.4,0,0.7,0,1,0l0,0C99.2,222.3,105.5,222.5,111.4,222.5z"/>
</g>
<g id="Containers">
	<path fill-rule="evenodd" clip-rule="evenodd" fill="#00ACD3" d="M134.2,95.6h2.9v30.8h-2.9V95.6z M128.6,95.6h3v30.8h-3V95.6z
		 M123,95.6h3v30.8h-3V95.6z M117.4,95.6h3v30.8h-3V95.6z M111.8,95.6h3v30.8h-3V95.6z M106.3,95.6h2.9v30.8h-2.9V95.6z M103.2,92.5
		h37v37h-37V92.5z"/>
	<path fill-rule="evenodd" clip-rule="evenodd" fill="#00ACD3" d="M176.9,52.9h2.9v30.8h-2.9V52.9z M171.3,52.9h3v30.8h-3V52.9z
		 M165.7,52.9h3v30.8h-3V52.9z M160.1,52.9h3v30.8h-3V52.9z M154.5,52.9h3v30.8h-3V52.9z M149,52.9h2.9v30.8H149V52.9z M145.9,49.8
		h37v37h-37V49.8z"/>
	<path fill-rule="evenodd" clip-rule="evenodd" fill="#20C2EF" d="M176.9,95.6h2.9v30.8h-2.9V95.6z M171.3,95.6h3v30.8h-3V95.6z
		 M165.7,95.6h3v30.8h-3V95.6z M160.1,95.6h3v30.8h-3V95.6z M154.5,95.6h3v30.8h-3V95.6z M149,95.6h2.9v30.8H149V95.6z M145.9,92.5
		h37v37h-37V92.5z"/>
	<path fill-rule="evenodd" clip-rule="evenodd" fill="#00ACD3" d="M219.6,95.6h2.9v30.8h-2.9V95.6z M214,95.6h3v30.8h-3V95.6z
		 M208.4,95.6h3v30.8h-3V95.6z M202.8,95.6h3v30.8h-3V95.6z M197.1,95.6h3v30.8h-3V95.6z M191.7,95.6h2.9v30.8h-2.9V95.6z
		 M188.6,92.5h37v37h-37V92.5z"/>
	<path fill-rule="evenodd" clip-rule="evenodd" fill="#20C2EF" d="M219.6,52.9h2.9v30.8h-2.9V52.9z M214,52.9h3v30.8h-3V52.9z
		 M208.4,52.9h3v30.8h-3V52.9z M202.8,52.9h3v30.8h-3V52.9z M197.1,52.9h3v30.8h-3V52.9z M191.7,52.9h2.9v30.8h-2.9V52.9z
		 M188.6,49.8h37v37h-37V49.8z"/>
	<path fill-rule="evenodd" clip-rule="evenodd" fill="#20C2EF" d="M262.3,95.6h2.9v30.8h-2.9V95.6z M256.7,95.6h3v30.8h-3V95.6z
		 M251.1,95.6h3v30.8h-3V95.6z M245.4,95.6h3v30.8h-3V95.6z M239.8,95.6h3v30.8h-3V95.6z M234.4,95.6h2.9v30.8h-2.9V95.6z
		 M231.3,92.5h37v37h-37V92.5z"/>
	<path fill-rule="evenodd" clip-rule="evenodd" fill="#00ACD3" d="M262.3,52.9h2.9v30.8h-2.9V52.9z M256.7,52.9h3v30.8h-3V52.9z
		 M251.1,52.9h3v30.8h-3V52.9z M245.4,52.9h3v30.8h-3V52.9z M239.8,52.9h3v30.8h-3V52.9z M234.4,52.9h2.9v30.8h-2.9V52.9z
		 M231.3,49.8h37v37h-37V49.8z"/>
	<path fill-rule="evenodd" clip-rule="evenodd" fill="#20C2EF" d="M262.3,10.2h2.9V41h-2.9V10.2z M256.7,10.2h3V41h-3V10.2z
		 M251.1,10.2h3V41h-3V10.2z M245.4,10.2h3V41h-3V10.2z M239.8,10.2h3V41h-3V10.2z M234.4,10.2h2.9V41h-2.9V10.2z M231.3,7.1h37v37
		h-37V7.1z"/>
	<path fill-rule="evenodd" clip-rule="evenodd" fill="#00ACD3" d="M305,95.6h2.9v30.8H305V95.6z M299.4,95.6h3v30.8h-3V95.6z
		 M293.7,95.6h3v30.8h-3V95.6z M288.1,95.6h3v30.8h-3V95.6z M282.5,95.6h3v30.8h-3V95.6z M277,95.6h2.9v30.8H277V95.6z M274,92.5h37
		v37h-37V92.5z"/>
</g>
<path fill-rule="evenodd" clip-rule="evenodd" fill="#D4EDF1" d="M180.6,189.5c5.6,0,10.2,4.6,10.2,10.2c0,5.6-4.6,10.2-10.2,10.2
	c-5.6,0-10.2-4.6-10.2-10.2C170.4,194.1,174.9,189.5,180.6,189.5"/>
<path fill-rule="evenodd" clip-rule="evenodd" fill="#394D54" d="M180.6,192.4c0.9,0,1.8,0.2,2.6,0.5c-0.9,0.5-1.5,1.5-1.5,2.6
	c0,1.6,1.3,3,3,3c1.1,0,2.1-0.6,2.6-1.6c0.4,0.9,0.6,1.8,0.6,2.8c0,4-3.3,7.3-7.3,7.3c-4,0-7.3-3.3-7.3-7.3
	C173.3,195.7,176.5,192.4,180.6,192.4"/>
<path fill-rule="evenodd" clip-rule="evenodd" fill="#394D54" d="M0,168.3h223.6h27.7h223.6c-10.3-2.6-32.7-6.2-29-19.7
	c-18.8,21.8-64.1,15.3-75.6,4.5c-12.7,18.5-86.9,11.5-92.1-2.9c-16,18.7-65.5,18.7-81.5,0c-5.2,14.4-79.4,21.4-92.1,2.9
	c-11.4,10.7-56.8,17.2-75.6-4.5C32.7,162.2,10.3,165.7,0,168.3"/>
<path fill="#BFDBE0" d="M207.7,263.1c-25.3-12-39.2-28.3-46.9-46.1c-9.4,2.7-20.7,4.4-33.8,5.1c-4.9,0.3-10.1,0.4-15.6,0.4
	c-6.3,0-12.9-0.2-19.9-0.6c23.2,23.2,51.7,41,104.5,41.3C200,263.3,203.8,263.2,207.7,263.1z"/>
<path fill="#D4EDF1" d="M170.2,233.4c-3.5-4.7-6.9-10.7-9.4-16.4c-9.4,2.7-20.7,4.4-33.8,5.1C136,227,148.9,231.5,170.2,233.4z"/>
</svg>
