<?xml version="1.0" encoding="utf-8"?>
<!-- Generator: Adobe Illustrator 22.0.1, SVG Export Plug-In . SVG Version: 6.00 Build 0)  -->
<svg version="1.1" id="Layer_1" xmlns="http://www.w3.org/2000/svg" xmlns:xlink="http://www.w3.org/1999/xlink" x="0px" y="0px"
	 viewBox="0 0 100 100" style="enable-background:new 0 0 100 100;" xml:space="preserve">
<style type="text/css">
	.st0{fill:#3498DB;}
	.st1{fill:#EAF4FB;}
</style>
<g>
	<rect x="23.9" y="75.9" class="st0" width="2.3" height="9.1"/>
	<polygon class="st0" points="28.4,75.9 30.6,75.9 33.2,81.5 35.9,75.9 38.1,75.9 38.1,84.9 35.9,84.9 35.9,80.4 33.7,84.9 
		32.7,84.9 30.5,80.4 30.5,84.9 28.4,84.9 	"/>
	<path class="st0" d="M40.2,75.9h4c2.1,0,3.5,1.1,3.5,3.2c0,2.1-1.4,3.2-3.5,3.2h-1.7v2.7h-2.3V75.9z M43.8,80.3
		c0.8,0,1.5-0.3,1.5-1.3c0-1-0.6-1.2-1.5-1.2h-1.3v2.5H43.8z"/>
	<path class="st0" d="M49,80.4c0-2.8,2.1-4.7,4.9-4.7c2.7,0,4.9,1.9,4.9,4.7c0,2.8-2.1,4.7-4.9,4.7C51.1,85.1,49,83.2,49,80.4z
		 M56.4,80.4c0-1.6-1.1-2.6-2.5-2.6c-1.4,0-2.5,1-2.5,2.6c0,1.6,1.1,2.6,2.5,2.6C55.3,83,56.4,82,56.4,80.4z"/>
	<path class="st0" d="M60.6,75.9h4.1c2.1,0,3.4,1.1,3.4,3.1c0,1.4-0.6,2.3-1.7,2.8l1.6,3.2h-2.4l-1.4-2.8h-1.3v2.8h-2.3V75.9z
		 M64.3,80.2c0.8,0,1.4-0.3,1.4-1.2c0-1-0.6-1.2-1.4-1.2h-1.4v2.4H64.3z"/>
	<polygon class="st0" points="71.6,77.8 69.1,77.8 69.1,75.9 76.5,75.9 76.5,77.8 73.9,77.8 73.9,84.9 71.6,84.9 	"/>
	<path class="st1" d="M50.7,13.5c-0.4,0-0.8,0.1-1.2,0.2l-3.4,1.8c0.3-0.1,0.7-0.2,1.1-0.2c0.8,0,1.6,0.2,2.5,0.8
		c3.1,1.8,5.6,6.2,5.6,9.8c0,1.3-0.3,2.3-0.9,3l0,0l3.1-1.8c0.7-0.7,1.2-1.8,1.2-3.2c0-3.5-2.4-7.8-5.5-9.6
		C52.3,13.8,51.4,13.5,50.7,13.5"/>
	<polyline class="st0" points="69.5,40.6 69.3,40.6 69.3,55.7 56.5,63.1 56.4,48.4 69.6,40.7 69.5,40.6 69.3,40.6 69.5,40.6 
		69.4,40.4 56.1,48 56,48.2 56,63.5 56.1,63.7 56.4,63.7 69.7,56 69.8,55.8 69.7,40.6 69.6,40.4 69.4,40.4 69.5,40.6 	"/>
	<polyline class="st0" points="56.3,63.5 56.4,63.3 28.6,47.2 28.6,32.4 56,48.4 56,63.5 56.3,63.5 56.4,63.3 56.3,63.5 56.5,63.5 
		56.4,48.2 56.3,48 28.5,31.8 28.3,31.8 28.1,32 28.2,47.3 28.3,47.5 56.1,63.7 56.4,63.7 56.5,63.5 56.3,63.5 	"/>
	<path class="st0" d="M62.7,44.7v14.9c0,0.1,0.1,0.2,0.2,0.2c0.1,0,0.2-0.1,0.2-0.2V44.7c0-0.1-0.1-0.2-0.2-0.2
		C62.8,44.5,62.7,44.6,62.7,44.7"/>
	<path class="st0" d="M67.6,43.8l0,11l-9.6,5.5l0-11L67.6,43.8 M67.6,43.4l-0.2,0L57.9,49c-0.1,0.1-0.2,0.2-0.2,0.3l0,11
		c0,0.2,0.2,0.4,0.4,0.4h0l0.2,0l9.6-5.5c0.1-0.1,0.2-0.2,0.1-0.3v-11C68,43.6,67.8,43.4,67.6,43.4"/>
	<path class="st0" d="M30.6,35.8L54,49.5l0,10.3L30.6,46L30.6,35.8L30.6,35.8 M30.6,35.4c-0.2,0-0.4,0.2-0.4,0.4v0l0,10.3
		c0,0.1,0.1,0.3,0.2,0.3l23.5,13.7c0.2,0.1,0.4,0.1,0.5-0.1l0,0c0,0,0-0.1,0-0.2V49.5c0-0.1-0.1-0.3-0.2-0.3L30.8,35.5L30.6,35.4
		L30.6,35.4"/>
	<polyline class="st0" points="66.9,44.1 67,54.3 58.1,59.4 58,59.6 58.2,59.7 67.2,54.5 67.3,54.4 67.2,44.1 67.1,43.9 66.9,44.1 
		66.9,44.1 	"/>
	<path class="st1" d="M62.7,46.6l-4.6,2.6l0,10.1l4.5-2.6V46.6 M66.9,44.2l-3.8,2.2v10.1l3.9-2.2L66.9,44.2"/>
	<polyline class="st0" points="63.1,46.4 62.7,46.6 62.7,56.7 63.1,56.5 63.1,46.4 	"/>
	<polyline class="st0" points="67.1,44.1 66.9,44.2 67,54.3 63.1,56.5 62.7,56.7 58.1,59.4 58.1,59.5 67.2,54.3 67.1,44.1 	"/>
	<polyline class="st1" points="50.9,47.7 50.9,57.9 51.1,58 51.9,57.8 52,48.3 50.9,47.7 	"/>
	<path class="st0" d="M50.9,57.9l0,0.2l0.2,0L50.9,57.9 M50.9,47.6L50.9,47.6l1,0.7l0,0L50.9,47.6"/>
	<polygon class="st0" points="50.9,57.9 49.9,57.3 49.9,46.8 49.7,46.7 49.6,46.8 49.6,57.4 49.7,57.5 50.8,58.2 51,58.1 50.9,57.9 
			"/>
	<polyline class="st0" points="54.3,58.8 52,57.5 51.8,57.6 51.9,57.8 54.2,59.1 54.4,59 54.3,58.8 	"/>
	<polyline class="st1" points="46.6,45.2 46.6,55.4 46.9,55.5 47.7,55.3 47.7,45.8 46.6,45.2 	"/>
	<polyline class="st0" points="46.6,55.4 46.6,55.6 46.9,55.5 46.6,55.4 	"/>
	<polygon class="st0" points="46.7,55.5 45.6,54.9 45.6,44.4 45.5,44.2 45.3,44.4 45.3,54.9 45.4,55.1 46.6,55.7 46.8,55.7 
		46.7,55.5 	"/>
	<polyline class="st0" points="49.8,56.3 47.8,55.2 47.6,55.2 47.7,55.4 49.7,56.6 49.9,56.5 49.8,56.3 	"/>
	<polyline class="st0" points="45.6,53.9 43.3,52.6 43.1,52.6 43.2,52.8 45.4,54.1 45.6,54.1 45.6,53.9 	"/>
	<polyline class="st1" points="42.4,42.7 42.4,52.9 42.6,53 43.3,52.9 43.2,52.8 43.1,52.6 43.3,52.6 43.4,52.6 43.4,43.4 
		42.4,42.7 	"/>
	<polyline class="st0" points="42.4,52.9 42.4,53.1 42.6,53 42.4,52.9 	"/>
	<polyline class="st0" points="43.3,52.6 43.1,52.6 43.2,52.8 43.3,52.9 43.4,52.9 43.4,52.6 43.3,52.6 	"/>
	<polygon class="st0" points="42.4,53 41.3,52.4 41.4,41.9 41.2,41.8 41.1,41.9 41,52.5 41.1,52.6 42.3,53.2 42.5,53.2 42.4,53 	"/>
	<polyline class="st1" points="38.1,40.3 38.1,50.4 38.4,50.6 39.1,50.4 39.2,41 38.1,40.3 	"/>
	<polyline class="st0" points="38.1,50.4 38.1,50.7 38.4,50.6 38.1,50.4 	"/>
	<polygon class="st0" points="38.1,50.5 37.1,49.9 37.1,39.5 37,39.3 36.8,39.5 36.8,50 36.9,50.1 38,50.8 38.2,50.7 38.1,50.5 	"/>
	<polyline class="st0" points="41.3,51.4 39.3,50.2 39.1,50.3 39.1,50.5 41.1,51.6 41.3,51.6 41.3,51.4 	"/>
	<polyline class="st1" points="33.9,37.8 33.9,48 34.2,48.1 34.9,47.9 34.9,38.5 33.9,37.8 	"/>
	<polyline class="st0" points="33.9,48 33.9,48.2 34.2,48.1 33.9,48 	"/>
	<polygon class="st0" points="33.8,47.9 32.7,47.3 32.8,36.9 32.5,36.9 32.4,47.4 32.5,47.6 33.7,48.2 33.8,47.9 	"/>
	<polyline class="st0" points="37,48.8 35,47.7 34.8,47.7 34.8,47.9 36.8,49.1 37,49 37,48.8 	"/>
	<polyline class="st0" points="32.7,46.3 30.5,45 30.3,45.3 32.5,46.5 	"/>
	<polyline class="st1" points="28.2,44.8 23.9,47.5 56.3,67 76.1,55.5 69.8,52.7 69.8,55.8 69.7,56 56.4,63.7 56.4,63.7 56.1,63.7 
		41.6,55.2 28.2,47.4 28.2,46.2 28.2,44.8 	"/>
	<path class="st0" d="M69.5,52.6l0,3.3l-6.5,3.7v0.1c0,0.1-0.1,0.2-0.2,0.2c-0.1,0-0.1,0-0.2-0.1l-6.2,3.6l0,0.1l-0.1,0.2L69.7,56
		l0.1-0.2l0-3.2L69.5,52.6"/>
	<path class="st0" d="M56.5,63.5L56.5,63.5 M41.6,55.2l14.5,8.5l0.2,0l0,0l0.1-0.2l-0.2,0l0.2,0l0-0.1L56,63.6L41.6,55.2 M28.2,44.8
		L28.2,44.8l0,1.4L28.2,44.8"/>
	<path class="st0" d="M63.1,59.6l-0.4,0.2c0,0.1,0.1,0.1,0.2,0.1c0.1,0,0.2-0.1,0.2-0.2V59.6"/>
	<polyline class="st1" points="55,28.8 51.5,29.9 51.5,38.5 55,36.5 55,28.8 	"/>
	<path class="st0" d="M49.7,16.2l-0.1,0.2c3.1,1.7,5.5,6.1,5.5,9.6c0,1.2-0.3,2.2-0.8,2.8c-0.5,0.6-1.2,1-2.1,1
		c-0.2,0-0.4,0-0.7-0.1l-0.2,0l-0.1,0.2v8.3l-4.6-2.6l1.1-0.7c0.1-0.1,0.1-0.2,0.1-0.3l-1.3-2.3l1.3-0.7c0.1-0.1,0.1-0.2,0.1-0.3
		l-1.3-2.3l1.4-0.8L48,28v-0.2l-0.1-0.2c-2.2-2.1-3.7-5.4-3.7-8.2c0-1.3,0.3-2.2,0.8-2.9c0.5-0.6,1.2-1,2.1-1c0.7,0,1.5,0.2,2.4,0.7
		L49.7,16.2l0.1-0.2c-0.9-0.5-1.8-0.8-2.6-0.8c-1,0-1.9,0.4-2.4,1.1c-0.6,0.7-0.9,1.8-0.9,3.1c0,2.9,1.6,6.3,3.9,8.5l0.2-0.2h-0.2
		v0.1l-1.4,0.8C46,28.7,46,28.9,46,29l1.3,2.3L46.1,32C46,32.1,46,32.2,46,32.3l1.3,2.3l-1.3,0.7L46,35.5l0.1,0.2l5.2,3l0.2,0
		l0.1-0.2v-8.7h-0.2l0,0.2c0.3,0,0.5,0.1,0.7,0.1c1,0,1.9-0.4,2.4-1.1c0.6-0.7,0.9-1.8,0.9-3.1c0-3.7-2.5-8.1-5.7-10L49.7,16.2z
		 M49.6,21.6c0.2,0.1,0.5,0.2,0.7,0.2c0.3,0,0.6-0.1,0.7-0.3c0.2-0.2,0.3-0.5,0.3-0.9l0,0c0-1.1-0.6-2-1.5-2.6l0,0
		c-0.2-0.1-0.5-0.2-0.7-0.2c-0.3,0-0.6,0.1-0.7,0.3c-0.2,0.2-0.3,0.5-0.3,0.9l0,0C48.1,20.1,48.7,21.1,49.6,21.6
		c0.1,0.1,0.2,0,0.3-0.1c0.1-0.1,0-0.2-0.1-0.3c-0.8-0.5-1.2-1.3-1.3-2.2l-0.2,0h0.2c0-0.3,0.1-0.5,0.2-0.6c0.1-0.1,0.2-0.2,0.4-0.2
		c0.1,0,0.3,0,0.5,0.2l0.1-0.2l-0.1,0.2c0.8,0.5,1.3,1.3,1.3,2.2l0.2,0h-0.2c0,0.3-0.1,0.5-0.2,0.6c-0.1,0.1-0.2,0.2-0.4,0.2
		c-0.1,0-0.3,0-0.5-0.2c-0.1-0.1-0.2,0-0.3,0.1C49.4,21.4,49.5,21.6,49.6,21.6L49.6,21.6z"/>
	<path class="st0" d="M47.9,27.8l-6.4-3.6l-0.2,0l-13,7.6l-0.1,0.2l0.1,0.2l27.8,16.3l0.2,0l13.3-7.7l0.1-0.2l-0.1-0.2l-14.5-8.5
		c-0.1-0.1-0.2,0-0.3,0.1c-0.1,0.1,0,0.2,0.1,0.3l14.2,8.3L56.2,48l-27.4-16l12.6-7.4l6.3,3.6c0.1,0.1,0.2,0,0.3-0.1
		C48,28,48,27.8,47.9,27.8L47.9,27.8z"/>
	<polygon class="st0" points="55,36.7 58.8,34.3 55,32 	"/>
	<path class="st0" d="M54.8,28.6l0,7.8l-3,1.8l0-8.3c0-0.1-0.1-0.2-0.2-0.2c-0.1,0-0.2,0.1-0.2,0.2l0,8.7l0.1,0.2l0.2,0l3.5-2
		l0.1-0.2l0-7.9c0-0.1-0.1-0.2-0.2-0.2C54.9,28.3,54.8,28.4,54.8,28.6L54.8,28.6z"/>
	<path class="st0" d="M45.5,16.1l4-2.1l-0.1-0.2l0.1,0.2c0.3-0.1,0.7-0.2,1.1-0.2c0.7,0,1.5,0.2,2.4,0.7c3,1.7,5.4,6,5.4,9.4
		c0,1.4-0.4,2.5-1.1,3.1l0.1,0.2l-0.1-0.2l-3.1,1.8c-0.1,0.1-0.1,0.2-0.1,0.3c0.1,0.1,0.2,0.1,0.3,0.1l3.1-1.8l0,0
		c0.8-0.7,1.3-1.9,1.3-3.4c0-3.6-2.5-8-5.6-9.8c-0.9-0.5-1.8-0.8-2.6-0.8c-0.5,0-0.9,0.1-1.3,0.3l0,0l-4,2.1
		c-0.1,0.1-0.1,0.2-0.1,0.3C45.3,16.1,45.4,16.2,45.5,16.1L45.5,16.1z"/>
	<polygon class="st0" points="52,48.3 51.8,48.3 51.8,57.7 51,57.8 51.1,47.9 51.9,48.4 52,48.3 51.8,48.3 52,48.3 52,48.2 51,47.5 
		50.8,47.5 50.8,47.6 50.7,58 50.8,58.2 50.9,58.2 52,57.9 52.1,57.8 52.1,48.3 52,48.2 	"/>
	<polygon class="st0" points="47.7,45.8 47.5,45.8 47.5,55.2 46.8,55.4 46.8,45.5 47.6,46 47.7,45.8 47.5,45.8 47.7,45.8 47.8,45.7 
		46.7,45.1 46.6,45.1 46.5,45.2 46.5,55.6 46.5,55.7 46.7,55.7 47.7,55.5 47.8,55.3 47.8,45.8 47.8,45.7 	"/>
	<polygon class="st0" points="43.4,43.4 43.3,43.4 43.2,52.7 42.5,52.9 42.5,43 43.3,43.5 43.4,43.4 43.3,43.4 43.4,43.4 43.5,43.3 
		42.4,42.6 42.3,42.6 42.2,42.7 42.2,53.1 42.3,53.2 42.4,53.3 43.4,53 43.5,52.9 43.5,43.4 43.5,43.3 	"/>
	<polygon class="st0" points="39.2,41 39,41 39,50.3 38.2,50.5 38.3,40.5 39.1,41.1 39.2,41 39,41 39.2,41 39.3,40.8 38.2,40.1 
		38.1,40.1 38,40.3 37.9,50.7 38,50.8 38.1,50.8 39.2,50.6 39.3,50.4 39.3,41 39.3,40.8 	"/>
	<polygon class="st0" points="34.9,38.5 34.8,38.5 34.7,47.8 34,48 34,38 34.9,38.6 34.9,38.5 34.8,38.5 34.9,38.5 35,38.3 34,37.6 
		33.8,37.6 33.7,37.8 33.7,48.2 33.8,48.3 33.9,48.3 34.9,48.1 35,47.9 35.1,38.5 35,38.3 	"/>
</g>
</svg>
