<?xml version="1.0" encoding="utf-8"?>
<!-- Generator: Adobe Illustrator 22.1.0, SVG Export Plug-In . SVG Version: 6.00 Build 0)  -->
<svg version="1.1" id="Layer_1" xmlns="http://www.w3.org/2000/svg" xmlns:xlink="http://www.w3.org/1999/xlink" x="0px" y="0px"
	 viewBox="0 0 100 100" style="enable-background:new 0 0 100 100;" xml:space="preserve">
<style type="text/css">
	.st0{fill:#3498DB;}
	.st1{fill:#F5FAFD;}
	.st2{fill:#FEFFFF;}
	.st3{clip-path:url(#SVGID_2_);fill:#F5FAFD;}
	.st4{clip-path:url(#SVGID_4_);fill:#F5FAFD;}
	.st5{clip-path:url(#SVGID_6_);fill:#3498DB;}
	.st6{clip-path:url(#SVGID_8_);fill:#3498DB;}
	.st7{clip-path:url(#SVGID_10_);}
</style>
<g>
	<path class="st0" d="M58.5,55.5v7.3L37.9,74.7l-0.1-34l20.6-11.9v3.5c0,0.1,0.1,0.2,0.2,0.2c0.1,0,0.2-0.1,0.2-0.2v-3.9l0-0.2h-0.2
		L37.5,40.4l-0.1,0.2l0.1,34.5l0.1,0.2h0.2L58.9,63l0.1-0.2v-7.4c0-0.1-0.1-0.2-0.2-0.2C58.6,55.2,58.5,55.2,58.5,55.5"/>
	<polyline class="st1" points="31.8,37.2 31.9,71.7 37.5,74.8 37.4,40.5 37.4,40.5 31.8,37.2 	"/>
	<polyline class="st0" points="37.4,40.5 37.4,40.5 37.5,74.8 37.7,74.9 37.6,40.5 37.4,40.5 	"/>
	<polygon class="st0" points="37.6,40.5 37.7,40.4 32.3,37.2 52.9,25.2 58.2,28.4 37.5,40.4 37.6,40.5 37.7,40.4 37.6,40.5 
		37.7,40.8 58.8,28.5 58.9,28.4 58.8,28.2 53,24.8 52.8,24.8 31.7,37 31.6,37.2 31.7,37.4 37.5,40.7 37.7,40.8 	"/>
	<path class="st2" d="M56.2,53.7c-0.1,0-0.2,0-0.3,0l1.9,1.8c0-0.1,0-0.2,0-0.3L57.3,54C56.9,53.9,56.6,53.7,56.2,53.7L56.2,53.7"/>
	<g>
		<g>
			<defs>
				<path id="SVGID_1_" d="M57,53.7c0.6,0.3,0.9,1.1,0.9,2.1l-2.2-1.3c0-0.4,0-0.7-0.1-0.9L57,53.7"/>
			</defs>
			<clipPath id="SVGID_2_">
				<use xlink:href="#SVGID_1_"  style="overflow:visible;"/>
			</clipPath>
			<path class="st3" d="M57.2,54.1l0.5,1.2c-0.1-0.5-0.2-0.8-0.4-1.1C57.3,54.2,57.2,54.2,57.2,54.1"/>
		</g>
		<g>
			<defs>
				<path id="SVGID_3_" d="M57,53.7c0.6,0.3,0.9,1.1,0.9,2.1l-2.2-1.3c0-0.4,0-0.7-0.1-0.9L57,53.7"/>
			</defs>
			<clipPath id="SVGID_4_">
				<use xlink:href="#SVGID_3_"  style="overflow:visible;"/>
			</clipPath>
			<path class="st4" d="M55.8,53.8L55.8,53.8c-0.1,0.2,0,0.5,0,0.7l0,0l2,1.2c0,0,0,0,0-0.1L55.8,53.8"/>
		</g>
	</g>
	<path class="st0" d="M53.1,55.2l0.1-0.2L51.1,54l-1.2-1.8l1.3,0.7l1.8,2.6L53.1,55.2l0.1-0.2L53.1,55.2l0.2-0.1l-1.8-2.6l-0.1-0.1
		l-2.2-1.3h-0.3v0.3l1.8,2.7l0.1,0.1l2.2,1.2c0.1,0.1,0.2,0,0.3,0v-0.3L53.1,55.2"/>
	<path class="st1" d="M50.5,46.1c0.1,0.3,0.2,0.7,0.2,1.2c0,0.2,0,0.3,0,0.5v0.1c0,0.2,0,0.3-0.1,0.4v0.1c0,0.2-0.1,0.3-0.1,0.5V49
		c0,0.2-0.1,0.3-0.2,0.4l0,0c-0.1,0.2-0.1,0.3-0.2,0.5l0,0c-0.1,0.2-0.2,0.3-0.2,0.5c-0.1,0.2-0.2,0.3-0.3,0.4l0,0
		c-0.1,0.1-0.1,0.2-0.2,0.3l2,1.1c0.9-1.1,1.5-2.6,1.5-3.9c0-0.7-0.2-1.2-0.4-1.5c-0.3-0.3-0.6-0.5-1-0.6l0,0h-0.1L50.5,46.1"/>
	<path class="st0" d="M49.3,51.2c0,0.1-0.1,0.1-0.1,0.2l2,1.1l0,0l0.1-0.1L49.3,51.2"/>
	<path class="st0" d="M51.2,46.2l0.1-0.2l-2-1.1l1.6-4.4l1.8,1L51,46.2L51.2,46.2l0.1-0.2L51.2,46.2l0.2,0.1l1.8-4.7
		c0-0.1,0-0.2-0.1-0.3L50.9,40h-0.2v0.1L48.9,45c0,0.1,0,0.2,0.1,0.3l2.1,1.2h0.2l0.1-0.1L51.2,46.2"/>
	<path class="st0" d="M66.7,40.5h-0.2c0,0.7,0.2,1.3,0.5,1.8c0.3,0.4,0.8,0.7,1.3,0.7v-0.2l-0.2-0.1l-1.8,4.8l0.2,0.1v-0.2h-0.2
		c-0.5,0-1,0.2-1.6,0.5l0,0c-1.9,1.1-3.3,3.6-3.3,5.7h0.2l-0.1-0.2l-3.7,2.1l0.1,0.2h0.2c0-0.8-0.2-1.4-0.5-1.8
		c-0.4-0.4-0.9-0.7-1.5-0.7c-0.5,0-1,0.2-1.5,0.5l0,0c-0.6,0.3-1.2,0.9-1.7,1.5l0.2,0.1l0.2-0.1l-1.9-2.7l-0.2,0.1l0.2,0.1
		c1-1.2,1.7-2.9,1.7-4.3c0-0.7-0.2-1.3-0.5-1.8c-0.3-0.4-0.8-0.7-1.3-0.7v0.2l0.2,0.1l1.8-4.7l-0.2-0.1v0.2h0.2c0.5,0,1-0.1,1.5-0.5
		L54.7,41l0.1,0.2c1.9-1.1,3.3-3.6,3.3-5.7h-0.2l0.1,0.2l3.7-2.1l-0.1-0.2h-0.2c0,0.8,0.2,1.4,0.6,1.8c0.4,0.4,0.9,0.7,1.5,0.7
		c0.5,0,1-0.2,1.5-0.5l0,0c0.6-0.3,1.2-0.9,1.7-1.5l-0.2-0.1l-0.2,0.1l0.9,1.3l0.9,1.3l0.2-0.1l-0.2-0.1c-1,1.2-1.7,2.8-1.7,4.2v0.1
		H66.7h-0.2H66.7h0.2v-0.1c0-1.3,0.6-2.8,1.6-3.9v-0.3L67.5,35l-0.9-1.3l-0.2-0.1l-0.2,0.1c-0.4,0.6-1,1.1-1.5,1.4l0,0
		c-0.5,0.3-0.9,0.4-1.3,0.4c-0.5,0-0.9-0.2-1.1-0.5c-0.3-0.3-0.5-0.9-0.5-1.5l-0.2-0.3h-0.2l-3.7,2.1l-0.1,0.2
		c0,1.9-1.4,4.4-3.1,5.4l0,0c-0.5,0.3-0.9,0.4-1.3,0.4h-0.2c-0.1,0-0.2,0-0.2,0.1l-1.8,4.8v0.2l0.2,0.1c0.4,0,0.8,0.2,1,0.6
		c0.3,0.3,0.4,0.8,0.4,1.5c0,1.3-0.6,2.9-1.6,4v0.3l1.9,2.7l0.2,0.1l0.2-0.1c0.4-0.6,1-1.1,1.5-1.4l0,0c0.5-0.3,0.9-0.4,1.3-0.4
		c0.5,0,0.8,0.2,1.1,0.5s0.5,0.9,0.5,1.5l0.1,0.2h0.2l3.7-2.1l0.1-0.2c0-1.9,1.4-4.4,3.1-5.4l0,0c0.5-0.3,0.9-0.4,1.3-0.4h0.1
		c0.1,0,0.2,0,0.2-0.1l1.8-4.8v-0.2l-0.2-0.1c-0.4,0-0.8-0.2-1-0.6c-0.3-0.3-0.4-0.8-0.4-1.5l0,0L66.7,40.5 M59.9,50
		c2.6-1.5,4.6-5,4.6-8c0-1.4-0.4-2.4-1.2-3l0,0c-0.4-0.3-1-0.5-1.5-0.5c-0.7,0-1.4,0.2-2.1,0.6l0,0c-2.6,1.5-4.6,5-4.6,8
		c0,0.6,0.1,1.2,0.3,1.7l0,0c0.4,1.1,1.4,1.8,2.5,1.8C58.4,50.6,59.1,50.4,59.9,50c0.1-0.1,0.1-0.2,0.1-0.3
		c-0.1-0.1-0.2-0.1-0.3-0.1c-0.7,0.4-1.3,0.6-1.9,0.6c-1,0-1.7-0.5-2.1-1.5l-0.2,0.1l0.2-0.1c-0.2-0.4-0.2-0.9-0.2-1.5
		c0-2.8,2-6.2,4.4-7.6l-0.1-0.2l0.1,0.2c0.7-0.4,1.4-0.6,1.9-0.6c0.5,0,0.9,0.1,1.3,0.4l0.1-0.2l-0.1,0.2c0.6,0.5,1,1.3,1,2.6
		c0,2.8-2,6.2-4.4,7.6c-0.1,0.1-0.1,0.2-0.1,0.3C59.7,50,59.8,50,59.9,50"/>
	<path class="st0" d="M57.9,35.5l0.1-0.2L55.8,34h-0.2l-0.1,0.2c0,0.1,0,0.2,0,0.3v0.1v0.2V35l0,0v0.2l0,0l0,0h0.2l-0.2-0.1
		c-0.1,0.2-0.1,0.3-0.1,0.4l0,0v0.1l-0.1,0.2V36c0,0.1-0.1,0.2-0.1,0.4v0.1l0,0h0.2l-0.2-0.1c0,0.1-0.1,0.2-0.1,0.3l0,0v0.1L54.9,37
		l0,0v0.1l0.2,0.1l-0.2-0.1c-0.1,0.1-0.1,0.2-0.2,0.3l0,0v0.1l-0.2,0.2l0,0l-0.1,0.1l-0.2,0.2l0,0l-0.1,0.2l0,0L54,38.5l-0.2,0.2
		l-0.1,0.1l-0.1,0.1l0,0l-0.4,0.3l-0.1,0.1l0,0l-0.2,0.2l0,0l-0.1,0.1l-0.3,0.2l-0.2,0.1h-0.1l0,0L52.1,40l0.1,0.2V40l0,0h-0.1
		C52,40,51.9,40,51.7,40l0.1,0.2V40l0,0l0,0h-0.2h-0.1h-0.2h-0.1h-0.1H51c-0.1,0-0.2,0.1-0.2,0.2c0,0.1,0,0.2,0.1,0.2l2.2,1.3h0.1
		l0,0l0,0h0.1l0,0l0,0h0.2l0,0l0,0l0,0h0.2l0,0c0.1,0,0.2-0.1,0.3-0.1l0,0l0.2-0.1l0,0h0.1l0,0l0.2-0.1l0.2-0.3l0.1,0.2
		c0.2-0.1,0.3-0.2,0.4-0.3l0,0l0.1-0.1l0.2-0.1l0.1-0.1l0,0l0.1-0.1l0.1-0.1h0.1h0.1l0.1-0.1l0,0l0.2-0.2l0.1-0.1V40v-0.1l0.1-0.1
		l0.1-0.1l0,0l0.1-0.1l0,0l0.1-0.1l0,0v-0.1l0.1-0.1l0,0l0,0l0,0v-0.1c0,0,0.1-0.1,0.2-0.3v-0.1l0,0h-0.2l0.2,0.1v-0.1l0.1-0.2l0,0
		v-0.1l0,0v-0.1l0,0v-0.1l0,0l0.1-0.2V38l0,0H57l0.2,0.1l0.1-0.3v-0.1l0,0v-0.1l0,0v-0.2v-0.1v-0.1v-0.1l0,0c0-0.1,0.1-0.3,0.1-0.4
		h-0.2h0.2v-0.2v-0.1v-0.1v-0.2V36l0,0l0,0c0-0.1,0-0.2,0-0.4l-0.1-0.2L57.9,35.5h-0.2c0,0.1,0,0.2,0,0.4l0,0V36l0,0l0,0v0.1l0,0
		v0.2l0,0c0,0.1,0,0.2-0.1,0.3l0.2,0.1l-0.2-0.1v0.1l0,0v0.1V37l0,0v0.2v0.1v0.1l0,0h0.2l-0.2-0.1l-0.1,0.3v0.1l0,0h0.2l-0.2-0.1
		L57.1,38l0,0v0.1l0,0v0.1l0,0v0.1L57,38.6l0,0v0.1v0.1l0,0h0.2L57,38.7c0,0.1-0.1,0.1-0.2,0.3l0.2,0.1l-0.2-0.2l0,0V39v0.1
		l-0.4,0.1l0,0v0.1l-0.1,0.1l-0.1,0.1l0,0l-0.1,0.1l0,0L56,39.8l0,0l0,0l-0.1,0.1l0,0l-0.2,0.3l0,0l0,0l0,0l-0.1,0.1l0,0l-0.1,0.1
		l-0.1,0.1l0,0l-0.2,0.2l0,0l-0.1,0.1l0,0L54.9,41l0,0l-0.2,0.1h-0.1l0,0l-0.2,0.1l0.1,0.2l-0.3-0.2c-0.1,0-0.2,0.1-0.3,0.1l0.1,0.2
		v-0.2h-0.2l0,0l0,0h-0.2l0,0l0,0h-0.1l0,0l0,0v0.2l0.1-0.2l-2.5-1.1L51,40.4v0.2h0.1h0.1h0.1h0.2h0.1l0,0h0.2l0,0h0.1
		c0.1,0,0.2-0.1,0.3-0.1l-0.1-0.3v0.2l0,0h0.1l0.2-0.1l0,0h0.1l0,0l0.2-0.1l0,0L53,40l0,0l0.1-0.1l0.2-0.1l0.1-0.1l0,0l0.1-0.1
		l0.1-0.1l0,0l0.1-0.1l0,0l0.2-0.2l0,0l0.1-0.2l0,0l0.1-0.2l0.2-0.2l0,0l0.1-0.1l0,0l0.2-0.2l0,0v-0.1L54.3,38l0.2,0.1
		c0.1-0.1,0.1-0.2,0.2-0.3l0,0v-0.1l0.2-0.3l0,0v-0.1l0.1-0.4l0.2,0.1c0.1-0.1,0.1-0.2,0.2-0.4v-0.1l0,0h-0.2l0.2,0.1
		c0-0.1,0.1-0.2,0.1-0.4v-0.1l0.1-0.2v-0.1l0,0c0.1-0.2,0.1-0.3,0.1-0.4v-0.1l0,0v-0.2v-0.2l0,0v-0.2l0,0v-0.1c0-0.1,0-0.2,0-0.3
		h-0.2l-0.1,0.2l2.2,1.2L57.9,35.5h-0.2H57.9z"/>
	<path class="st0" d="M50.2,46c0.2,0.3,0.3,0.8,0.3,1.3c0,0.2,0,0.3,0,0.4v0.1v0.1c0,0.1,0,0.2-0.1,0.4v0.1v0.1h0.2l-0.2-0.1
		c0,0.2-0.1,0.3-0.1,0.5l0.2,0.1l-0.2-0.1v0.1l0,0c0,0.1-0.1,0.3-0.2,0.4l0.2,0.1l-0.2-0.2l0,0v0.1c-0.1,0.2-0.1,0.4-0.2,0.5v0.1
		l0,0h0.2l-0.2-0.1c-0.1,0.2-0.2,0.3-0.2,0.5l0,0c-0.1,0.1-0.2,0.2-0.3,0.4l0.2,0.1l-0.2-0.2l0,0l0,0c-0.1,0.2-0.2,0.3-0.3,0.4v0.2
		l0.1,0.1l2.2,1.3c0.1,0.1,0.2,0,0.3-0.1l0.1-0.1l0.2-0.3l0,0l0,0l0,0l0,0L52,52l0,0c0,0,0.1-0.1,0.2-0.3L52,51.6l0.2,0.1
		c0,0,0.1-0.1,0.2-0.3l-0.4,0.1l0.2,0.1l0.1-0.2v-0.1l0,0h-0.2l0.2,0.1l0.1-0.3l0,0l0.1-0.2l0,0l0.1-0.2l0,0h-0.2l0.2,0.1l0.1-0.3
		l0,0v-0.1v-0.1l0,0v-0.1c0-0.1,0.1-0.3,0.1-0.4v-0.1h-0.2l0.2,0.1c0.1-0.2,0.1-0.3,0.1-0.4v-0.1v-0.1v-0.1c0-0.1,0-0.3,0-0.5
		c0-0.7-0.1-1.2-0.5-1.6l-0.2,0.1l0.2-0.1c-0.2-0.3-0.4-0.5-0.6-0.6c-0.1-0.1-0.2,0-0.3,0.1s0,0.2,0.1,0.3c0.2,0.1,0.3,0.2,0.5,0.5
		l0,0c0.2,0.3,0.4,0.7,0.4,1.4c0,0.1,0,0.3,0,0.5v0v0.1h0.2l-0.1-0.1c-0.1,0.2-0.1,0.3-0.1,0.4v0.1v0.1c0,0.1,0,0.2-0.1,0.3v0.1v0.1
		l0,0v0.1l-0.1,0.3v0.1l0,0h0.2l-0.2-0.2l0,0l-0.1,0.1l-0.1,0.2l-0.1,0.3v0.1l0,0h0.2l-0.2-0.1L52,51.4l0,0c0,0.1-0.1,0.1-0.2,0.3
		l0,0c0,0.1-0.1,0.1-0.2,0.3l0.2,0.1L51.6,52l-0.1,0.2l0,0l0,0l0,0l0,0l-0.2,0.3l0,0l-0.2,0.1l0.2,0.1l0.1-0.2l-2.2-1.3l-0.1,0.2
		l0.2,0.1c0.1-0.2,0.2-0.3,0.3-0.4L49.4,51l0.2,0.2l0,0v-0.1c0.1-0.1,0.2-0.2,0.3-0.4l0,0c0.1-0.2,0.2-0.3,0.2-0.5v-0.1l0,0l0,0
		l0.2,0.1c0.1-0.2,0.1-0.4,0.2-0.5l-0.2-0.1l0.2,0.2l0,0l0.1-0.1c0-0.1,0.1-0.3,0.2-0.5l-0.2-0.1l0.2,0.1v-0.1l0,0
		c0-0.2,0.1-0.3,0.1-0.5v-0.1v-0.1h-0.2l0.2,0.1c0-0.2,0.1-0.3,0.1-0.5v-0.1h-0.2L51,48c0-0.2,0-0.4,0-0.5c0-0.6-0.1-1.1-0.4-1.5
		C50.5,45.9,50.3,45.9,50.2,46C50.2,45.8,50.2,45.9,50.2,46L50.2,46z"/>
	<path class="st0" d="M62.4,35.7l0.2,0.1h0.1l0,0l0,0v-0.2l-0.1,0.2h0.1l0,0h0.1h0.1l0,0l0,0H63l0,0l0,0h0.2l0,0h0.1h0.1h0.1h0.1
		h0.1l0,0h0.1h0.1l0.2-0.1l0,0h0.1l0,0h0.1l0,0h0.1l0,0l0.3-0.2l0,0c0.1-0.1,0.2-0.2,0.4-0.2l0,0l0.1-0.1L65,34.9l0.1,0.2
		c0.1-0.1,0.3-0.2,0.4-0.3l0,0l0,0l0.2-0.2l0,0l0.1-0.1l0,0l0.2-0.2l0,0l0.1-0.1l0,0l0.2-0.2v-0.2l-0.1-0.2L64,32.3
		c-0.1-0.1-0.2,0-0.3,0.1c-0.1,0.1-0.1,0.2-0.3,0.3l0,0l-0.2,0.2l0,0l0,0.2l0,0l0,0l0,0c-0.1,0.1-0.2,0.2-0.3,0.3l0,0l-0.1,0.1
		l0.2,0.2l-0.1-0.2c-0.1,0.1-0.2,0.2-0.4,0.2l0.1,0.2l-0.1-0.2L62.2,34h-0.1l0,0l-0.2,0.1l-0.2,0.1h-0.2c-0.1,0-0.2,0.1-0.2,0.3
		c0,0.1,0.1,0.2,0.3,0.2h0.2l0,0l0.2-0.1l0,0l0.2-0.1l0,0h0.1l0,0l0.3-0.2l0,0c0.1-0.1,0.2-0.2,0.4-0.2l0,0l0.1-0.1L63,33.7l0.1,0.2
		c0.1-0.1,0.3-0.2,0.4-0.3l0,0l0,0l0,0l0.3-0.3l0,0l0.2-0.2l0,0c0.1-0.1,0.2-0.2,0.3-0.4l-0.2-0.1l0,0.1l1.9,1.1l0,0l0.2,0.1
		L66,33.8l-0.1,0.1l0,0l-0.1,0.3l0,0l-0.1,0.1l-0.2,0.2l0,0l0,0l0.2,0.2l-0.1-0.2c-0.1,0.1-0.3,0.2-0.4,0.3l0,0l-0.1,0.1l0.2,0.2
		l-0.1-0.2c-0.1,0.1-0.2,0.2-0.4,0.2l0.1,0.2l-0.1-0.2l-0.4,0.1h-0.1l0,0h-0.1l0,0h-0.1l-0.2,0.1l0,0l0,0l0,0h-0.1h-0.1l0,0h-0.1
		h-0.1l0,0h-0.2l0,0h-0.2l0,0l0,0l0,0v0.2l0.1-0.2h-0.1l0,0H63h-0.1l0,0l0,0v0.2l0.1-0.2l-0.2-0.1c-0.1-0.1-0.2,0-0.3,0.1
		C62.2,35.5,62.2,35.5,62.4,35.7L62.4,35.7z"/>
	<g>
		<g>
			<defs>
				<path id="SVGID_5_" d="M57,53.7c0.6,0.3,0.9,1.1,0.9,2.1l-2.2-1.3c0-0.4,0-0.7-0.1-0.9L57,53.7"/>
			</defs>
			<clipPath id="SVGID_6_">
				<use xlink:href="#SVGID_5_"  style="overflow:visible;"/>
			</clipPath>
			<path class="st5" d="M56.9,53.9c0.5,0.3,0.8,0.9,0.8,1.9c0,0.1,0.1,0.2,0.2,0.2c0.1,0,0.2-0.1,0.2-0.2c0-1.1-0.4-1.9-1.1-2.3
				c-0.1-0.1-0.2,0-0.3,0.1C56.7,53.7,56.8,53.8,56.9,53.9L56.9,53.9z"/>
		</g>
		<g>
			<defs>
				<path id="SVGID_7_" d="M57,53.7c0.6,0.3,0.9,1.1,0.9,2.1l-2.2-1.3c0-0.4,0-0.7-0.1-0.9L57,53.7"/>
			</defs>
			<clipPath id="SVGID_8_">
				<use xlink:href="#SVGID_7_"  style="overflow:visible;"/>
			</clipPath>
			<path class="st6" d="M58.1,55.6l-2.2-1.3l-0.1,0.2H56c0-0.3,0-0.7-0.1-1c0-0.1-0.2-0.2-0.3-0.2s-0.2,0.2-0.2,0.3
				c0.1,0.3,0.1,0.6,0.1,0.9l0.1,0.2l2.2,1.3c0.1,0.1,0.2,0,0.3-0.1C58.2,55.8,58.2,55.7,58.1,55.6L58.1,55.6z"/>
		</g>
	</g>
	<path class="st0" d="M56.9,53.9c0.5,0.3,0.8,0.9,0.8,1.9h0.2l0.1-0.2l-2.2-1.3l-0.1,0.2h0.2c0-0.4,0-0.7-0.1-1
		c0-0.1-0.2-0.2-0.3-0.1c-0.1,0-0.2,0.2-0.1,0.3c0.1,0.2,0.1,0.5,0.1,0.9l0.1,0.2l2.2,1.3H58l0.1-0.2c0-1.1-0.4-1.9-1.1-2.3
		c-0.1-0.1-0.2,0-0.3,0.1C56.7,53.7,56.8,53.8,56.9,53.9L56.9,53.9z"/>
	<polygon class="st0" points="37.7,74.9 37.8,74.8 32.1,71.6 32.1,37.5 37.4,40.7 37.5,74.9 37.7,74.9 37.8,74.8 37.7,74.9 
		37.9,74.9 37.8,40.5 37.7,40.4 32,37 31.7,37 31.6,37.2 31.7,71.7 31.8,71.8 37.6,75.2 37.8,75.2 37.9,74.9 	"/>
	<g>
		<g>
			<defs>
				<path id="SVGID_9_" d="M61.6,38.7c-0.1,0.1-0.2,0.2-0.1,0.3c0.2,0.4,0.4,1,0.4,1.8c0,0.3,0,0.6-0.1,0.9l0,0c0,0.1,0,0.2-0.1,0.3
					l0,0v0.3v0.2c0,0.1,0,0.2-0.1,0.3l0,0v0.2c0,0.1-0.1,0.2-0.1,0.3l0,0v0.1c-0.1,0.2-0.1,0.3-0.2,0.4l0,0v0.1
					c-0.1,0.2-0.1,0.3-0.2,0.4L61,44.3c-0.1,0.1-0.2,0.3-0.2,0.4v0.1c-0.1,0.1-0.2,0.3-0.3,0.4l-0.1,0.1c-0.1,0.1-0.2,0.2-0.2,0.4
					l-0.3,0.4l-0.2,0.2l0,0l-0.2,0.2l-0.2,0.2C59.2,46.9,59,47,59,47.2l-0.1,0.1v-7.1c0-0.1-0.1-0.2-0.2-0.2c-0.1,0-0.2,0.1-0.2,0.2
					v7.5l0,0l-0.1,0.1l-0.1,0.1L58,48l-0.1,0.1c-0.1,0.1-0.3,0.2-0.3,0.2l0,0c-0.1,0.1-0.3,0.1-0.4,0.2h-0.1
					c-0.2,0.1-0.3,0.1-0.4,0.2c-0.1,0-0.2,0-0.4,0.1H56h-0.2h-0.1c-0.1,0-0.2,0.1-0.2,0.2s0.1,0.2,0.2,0.2h0.1l0,0l0,0
					c0,0.2,0.2,0.4,0.5,0.6c-0.1,0-0.1,0-0.2,0.1c-0.1,0.1,0,0.2,0.1,0.3l0.2,0.1h0.1h0.1l0,0h0.1h0.1h0.1H57l0,0c0,0,0.1,0,0.3,0
					h0.1h0.2h0.1h0.3h0.1h0.1h0.1h0.2l0,0h0.1l0.2-0.1l0,0c0.1,0,0.1-0.1,0.3-0.1h0.1h0.1h0.1c0.1-0.1,0.2-0.1,0.4-0.2
					c0.2-0.1,0.4-0.2,0.5-0.3l0.1-0.1l0,0c0.2-0.1,0.3-0.2,0.4-0.3l0,0l0,0c0.2-0.1,0.4-0.3,0.5-0.4l0,0c0.2-0.2,0.3-0.3,0.5-0.5
					l0,0l0.1-0.1l0,0l0.2-0.2l0.1-0.1l0,0l0.1-0.1l0.1-0.2l0,0l0.1-0.1l0,0l0.1-0.2l0.1-0.1l0,0l0,0c0.1-0.1,0.2-0.2,0.2-0.4v-0.1
					l0,0c0,0,0.1-0.1,0.2-0.3l0.1-0.1l0.1-0.1v-0.1v-0.1c0-0.1,0.1-0.2,0.1-0.3l0,0l0.1-0.1c0-0.1,0.1-0.2,0.2-0.4v-0.1l0,0V45
					l0.1-0.2l0,0v-0.2l0,0v-0.2v-0.1l0,0v-0.2l0,0v-0.2l0,0v-0.1v-0.1l0,0c0.1-0.2,0.1-0.3,0.1-0.4v-0.1v-0.1c0-0.3,0-0.6,0-0.9
					c0-1.3-0.4-2.4-1.2-3l0,0l-0.2-0.1c-0.1-0.1-0.2,0-0.3,0.1v0.1c-0.3-0.1-0.5-0.2-0.7-0.2V39C61.9,38.7,61.8,38.7,61.6,38.7
					C61.7,38.7,61.7,38.7,61.6,38.7 M63.9,32.9l-0.2,0.2l-0.3,0.3l0,0c-0.1,0.1-0.2,0.2-0.4,0.3l-0.1,0.1c-0.1,0.1-0.3,0.2-0.4,0.3
					l-0.2,0.1h-0.1l-0.1,0.1l-0.3,0.1h-0.2l0.9,1.1l0.2,0.1l0,0l0,0h0.1h0.1l0,0l0,0H63l0,0h0.2l0,0h0.1h0.1h0.1h0.1h0.1h0.1
					l0.2-0.1h0.1h0.1h0.1l0.3-0.2c0.1-0.1,0.2-0.2,0.4-0.2l0.1-0.1c0.1-0.1,0.2-0.2,0.4-0.3l0,0l0.2-0.2l0.1-0.1l0.2-0.2l0.1-0.1
					l0.2-0.2l-2.2-1.3C64.1,32.7,64,32.8,63.9,32.9 M56.2,34.2l3.3-1.9l1.7,1L58,35.2L56.2,34.2 M59.3,32L55.6,34l-0.1,0.2l0.1,0.2
					l0.1,0.1v0.1v0.1V35v0.2v0.2l0,0c0,0.1,0,0.2-0.1,0.4v0.1l-0.2,0.3v0.1c0,0.1-0.1,0.2-0.1,0.4l0,0c0,0.1-0.1,0.2-0.2,0.3V37
					l-0.2,0.3v0.1c-0.1,0.1-0.1,0.2-0.2,0.3v0.1L54.5,38l-0.1,0.1l-0.2,0.2l-0.1,0.2L54,38.8L53.8,39l-0.2,0.2l-0.1,0.1l-0.2,0.2
					l-0.1,0.1L53,39.8l-0.1,0.1l-0.3,0.2l-0.2,0.1h-0.1l-0.1,0l0,0c-0.1,0-0.2,0.1-0.3,0.1l0,0h-0.2h-0.1h-0.2h-0.1h-0.2H51l2.2,1.3
					l0,0l0,0h0.1l0,0l0,0h0.2l0,0l0,0h0.2c0.1,0,0.2-0.1,0.3-0.1l0.2-0.1h0.1l0.2-0.1c0.1,0,0.2-0.1,0.3-0.2l0.1-0.1l0.2-0.2
					l0.1-0.1l0.2-0.2l0.1-0.1h0.1l0.1-0.1l0.2-0.3l0.1-0.1v-0.1l0.1-0.2l0.1-0.1l0.1-0.1l0.1-0.1v-0.1l0.1-0.2v-0.1l0,0
					c0-0.1,0.1-0.2,0.2-0.3l0,0v-0.1l0.1-0.2v-0.1V38v-0.1l0.1-0.2l0,0l0.1-0.3l0,0v-0.1v-0.2V37v-0.1v-0.1c0-0.1,0.1-0.2,0.1-0.4
					v-0.2v-0.1v0V36l0,0c0-0.1,0-0.1,0-0.2h0.1l3.7-2.1l0.1-0.2l0.7-0.3L59.6,32H59.3"/>
			</defs>
			<clipPath id="SVGID_10_">
				<use xlink:href="#SVGID_9_"  style="overflow:visible;"/>
			</clipPath>
			<g class="st7">
			</g>
		</g>
	</g>
</g>
</svg>
