<?xml version="1.0" encoding="utf-8"?>
<!-- Generator: Adobe Illustrator 22.0.1, SVG Export Plug-In . SVG Version: 6.00 Build 0)  -->
<svg version="1.1" id="Layer_1" xmlns="http://www.w3.org/2000/svg" xmlns:xlink="http://www.w3.org/1999/xlink" x="0px" y="0px"
	 viewBox="0 0 100 100" style="enable-background:new 0 0 100 100;" xml:space="preserve">
<style type="text/css">
	.st0{fill:#3498DB;}
	.st1{fill:#F5FAFD;}
	.st2{fill:#FEFFFF;}
	.st3{clip-path:url(#SVGID_2_);fill:#F5FAFD;}
	.st4{clip-path:url(#SVGID_4_);fill:#3498DB;}
</style>
<g>
	<path class="st0" d="M21.2,80.4c0-2.9,2-4.7,5-4.7c1.3,0,2.3,0.2,3.2,0.8v2.2c-0.8-0.6-1.7-0.9-3-0.9c-1.8,0-2.8,1-2.8,2.6
		c0,1.6,1,2.6,2.8,2.6c1.2,0,2.2-0.3,3.1-0.9v2.2c-0.9,0.6-2,0.8-3.3,0.8C23.1,85.2,21.2,83.3,21.2,80.4z"/>
	<path class="st0" d="M31.2,81.2v-5.3h2.3v5.3c0,1.2,0.7,1.8,1.8,1.8s1.8-0.6,1.8-1.8v-5.3h2.3v5.3c0,2.3-1.3,4-4.1,4
		C32.5,85.2,31.2,83.5,31.2,81.2z"/>
	<path class="st0" d="M41.3,84.5v-2.1c1,0.5,2,0.7,2.9,0.7c0.9,0,1.3-0.3,1.3-0.8c0-0.6-0.5-0.8-1.7-1.3c-1.7-0.7-2.4-1.5-2.4-2.8
		c0-1.6,1.4-2.7,3.4-2.7c1.1,0,1.9,0.2,2.7,0.5v2c-0.8-0.4-1.5-0.6-2.3-0.6c-0.8,0-1.4,0.3-1.4,0.8c0,0.5,0.6,0.8,1.8,1.2
		c1.8,0.7,2.4,1.3,2.4,2.8c0,1.6-1.2,2.7-3.7,2.7C43.2,85.2,42,84.9,41.3,84.5z"/>
	<polygon class="st0" points="51.7,77.8 49.1,77.8 49.1,75.9 56.6,75.9 56.6,77.8 54,77.8 54,85 51.7,85 	"/>
	<path class="st0" d="M57.5,80.4c0-2.8,2.1-4.7,4.9-4.7c2.7,0,4.9,1.9,4.9,4.7c0,2.8-2.1,4.7-4.9,4.7C59.7,85.2,57.5,83.3,57.5,80.4
		z M64.9,80.4c0-1.6-1.1-2.6-2.5-2.6c-1.4,0-2.5,1-2.5,2.6c0,1.6,1.1,2.6,2.5,2.6C63.8,83,64.9,82,64.9,80.4z"/>
	<polygon class="st0" points="69.2,75.9 71.4,75.9 74,81.5 76.6,75.9 78.8,75.9 78.8,85 76.7,85 76.7,80.4 74.5,85 73.5,85 
		71.3,80.4 71.3,85 69.2,85 	"/>
	<path class="st0" d="M60.4,44.3v7.3L39.8,63.5l-0.1-34l20.6-11.9l0,3.5c0,0.1,0.1,0.2,0.2,0.2c0.1,0,0.2-0.1,0.2-0.2l0-3.9L60.7,17
		l-0.2,0L39.4,29.2l-0.1,0.2l0.1,34.5l0.1,0.2l0.2,0l21.1-12.2l0.1-0.2v-7.4c0-0.1-0.1-0.2-0.2-0.2C60.5,44,60.4,44.1,60.4,44.3"/>
	<polyline class="st1" points="33.7,26 33.8,60.5 39.4,63.7 39.3,29.4 39.3,29.3 33.7,26 	"/>
	<polyline class="st0" points="39.3,29.3 39.3,29.4 39.4,63.7 39.6,63.8 39.5,29.4 39.3,29.3 	"/>
	<polygon class="st0" points="39.5,29.4 39.6,29.2 34.2,26 54.8,14.1 60.1,17.2 39.4,29.2 39.5,29.4 39.6,29.2 39.5,29.4 39.6,29.6 
		60.7,17.4 60.8,17.2 60.7,17 54.9,13.6 54.7,13.6 33.6,25.8 33.5,26 33.6,26.2 39.4,29.5 39.6,29.6 	"/>
	<path class="st2" d="M58.1,42.5c-0.1,0-0.2,0-0.3,0l1.9,1.8c0-0.1,0-0.2,0-0.3l-0.5-1.2C58.8,42.7,58.5,42.5,58.1,42.5
		C58.1,42.5,58.1,42.5,58.1,42.5"/>
	<g>
		<defs>
			<path id="SVGID_1_" d="M58.9,42.5c0.6,0.3,0.9,1.1,0.9,2.1l-2.2-1.3c0-0.4,0-0.7-0.1-0.9L58.9,42.5"/>
		</defs>
		<clipPath id="SVGID_2_">
			<use xlink:href="#SVGID_1_"  style="overflow:visible;"/>
		</clipPath>
		<path class="st3" d="M59.1,42.9l0.5,1.2c-0.1-0.5-0.2-0.8-0.4-1.1C59.2,43,59.1,43,59.1,42.9"/>
		<path class="st3" d="M57.7,42.6c0,0-0.1,0-0.1,0c0,0.2,0.1,0.5,0.1,0.7l0,0l2,1.2c0,0,0,0,0-0.1L57.7,42.6"/>
	</g>
	<path class="st0" d="M55,44.1l0.1-0.2L53,42.8L51.8,41l1.3,0.7l1.8,2.6L55,44.1l0.1-0.2L55,44.1l0.2-0.1l-1.8-2.6l-0.1-0.1
		l-2.2-1.3l-0.3,0l0,0.3l1.8,2.7l0.1,0.1l2.2,1.2c0.1,0.1,0.2,0,0.3,0l0-0.3L55,44.1"/>
	<path class="st1" d="M52.4,34.9c0.1,0.3,0.2,0.7,0.2,1.2c0,0.2,0,0.3,0,0.5v0.1c0,0.2,0,0.3-0.1,0.4v0.1c0,0.2-0.1,0.3-0.1,0.5
		l0,0.1c0,0.2-0.1,0.3-0.2,0.4l0,0c-0.1,0.2-0.1,0.3-0.2,0.5v0c-0.1,0.2-0.2,0.3-0.2,0.5c-0.1,0.2-0.2,0.3-0.3,0.4l0,0
		c-0.1,0.1-0.1,0.2-0.2,0.3l2,1.1c0.9-1.1,1.5-2.6,1.5-3.9c0-0.7-0.2-1.2-0.4-1.5c-0.3-0.3-0.6-0.5-1-0.6l0,0l-0.1,0L52.4,34.9"/>
	<path class="st0" d="M51.2,40.1c0,0.1-0.1,0.1-0.1,0.2l2,1.1l0,0c0,0,0.1-0.1,0.1-0.1L51.2,40.1"/>
	<path class="st0" d="M53.1,35.1l0.1-0.2l-2-1.1l1.6-4.4l1.8,1L52.9,35L53.1,35.1l0.1-0.2L53.1,35.1l0.2,0.1l1.8-4.7
		c0-0.1,0-0.2-0.1-0.3l-2.2-1.3l-0.2,0L52.6,29l-1.8,4.8c0,0.1,0,0.2,0.1,0.3l2.1,1.2l0.2,0l0.1-0.1L53.1,35.1"/>
	<path class="st0" d="M68.6,29.4h-0.2c0,0.7,0.2,1.3,0.5,1.8c0.3,0.4,0.8,0.7,1.3,0.7l0-0.2L70,31.6l-1.8,4.8l0.2,0.1l0-0.2l-0.2,0
		c-0.5,0-1,0.2-1.6,0.5l0,0c-1.9,1.1-3.3,3.6-3.3,5.7h0.2l-0.1-0.2l-3.7,2.1l0.1,0.2h0.2c0-0.8-0.2-1.4-0.5-1.8
		c-0.4-0.4-0.9-0.7-1.5-0.7c-0.5,0-1,0.2-1.5,0.5l0,0c-0.6,0.3-1.2,0.9-1.7,1.5l0.2,0.1l0.2-0.1l-1.9-2.7l-0.2,0.1l0.2,0.1
		c1-1.2,1.7-2.9,1.7-4.3c0-0.7-0.2-1.3-0.5-1.8c-0.3-0.4-0.8-0.7-1.3-0.7l0,0.2l0.2,0.1l1.8-4.7L55,30.3l0,0.2l0.2,0
		c0.5,0,1-0.1,1.5-0.5l-0.1-0.2l0.1,0.2c1.9-1.1,3.3-3.6,3.3-5.7h-0.2l0.1,0.2l3.7-2.1l-0.1-0.2h-0.2c0,0.8,0.2,1.4,0.6,1.8
		c0.4,0.4,0.9,0.7,1.5,0.7c0.5,0,1-0.2,1.5-0.5l0,0c0.6-0.3,1.2-0.9,1.7-1.5l-0.2-0.1l-0.2,0.1l0.9,1.3l0.9,1.3l0.2-0.1L70,25.1
		c-1,1.2-1.7,2.8-1.7,4.2l0,0.1L68.6,29.4h-0.2H68.6l0.2,0l0-0.1c0-1.3,0.6-2.8,1.6-3.9l0-0.3l-0.9-1.3l-0.9-1.3l-0.2-0.1l-0.2,0.1
		c-0.4,0.6-1,1.1-1.5,1.4l0,0c-0.5,0.3-0.9,0.4-1.3,0.4c-0.5,0-0.9-0.2-1.1-0.5c-0.3-0.3-0.5-0.9-0.5-1.5L63.6,22l-0.2,0l-3.7,2.1
		l-0.1,0.2c0,1.9-1.4,4.4-3.1,5.4l0,0c-0.5,0.3-0.9,0.4-1.3,0.4l-0.2,0c-0.1,0-0.2,0-0.2,0.1L53,35l0,0.2l0.2,0.1
		c0.4,0,0.8,0.2,1,0.6c0.3,0.3,0.4,0.8,0.4,1.5c0,1.3-0.6,2.9-1.6,4l0,0.3l1.9,2.7l0.2,0.1l0.2-0.1c0.4-0.6,1-1.1,1.5-1.4l0,0
		c0.5-0.3,0.9-0.4,1.3-0.4c0.5,0,0.8,0.2,1.1,0.5c0.3,0.3,0.5,0.9,0.5,1.5l0.1,0.2l0.2,0l3.7-2.1l0.1-0.2c0-1.9,1.4-4.4,3.1-5.4l0,0
		c0.5-0.3,0.9-0.4,1.3-0.4l0.1,0c0.1,0,0.2,0,0.2-0.1l1.8-4.8l0-0.2l-0.2-0.1c-0.4,0-0.8-0.2-1-0.6c-0.3-0.3-0.4-0.8-0.4-1.5l0,0
		L68.6,29.4 M61.8,38.8c2.6-1.5,4.6-5,4.6-8c0-1.4-0.4-2.4-1.2-3l0,0c-0.4-0.3-1-0.5-1.5-0.5c-0.7,0-1.4,0.2-2.1,0.6l0,0
		c-2.6,1.5-4.6,5-4.6,8c0,0.6,0.1,1.2,0.3,1.7l0,0c0.4,1.1,1.4,1.8,2.5,1.8C60.3,39.4,61,39.2,61.8,38.8c0.1-0.1,0.1-0.2,0.1-0.3
		c-0.1-0.1-0.2-0.1-0.3-0.1c-0.7,0.4-1.3,0.6-1.9,0.6c-1,0-1.7-0.5-2.1-1.5l-0.2,0.1l0.2-0.1c-0.2-0.4-0.2-0.9-0.2-1.5
		c0-2.8,2-6.2,4.4-7.6l-0.1-0.2l0.1,0.2c0.7-0.4,1.4-0.6,1.9-0.6c0.5,0,0.9,0.1,1.3,0.4l0.1-0.2l-0.1,0.2c0.6,0.5,1,1.3,1,2.6
		c0,2.8-2,6.2-4.4,7.6c-0.1,0.1-0.1,0.2-0.1,0.3C61.6,38.8,61.7,38.8,61.8,38.8"/>
	<path class="st0" d="M59.8,24.3l0.1-0.2l-2.2-1.2l-0.2,0l-0.1,0.2c0,0.1,0,0.2,0,0.3v0.1l0,0.2l0,0.2l0,0l0,0.2l0,0v0h0.2l-0.2-0.1
		c-0.1,0.2-0.1,0.3-0.1,0.4l0,0l0,0.1l-0.1,0.2l0,0.1c0,0.1-0.1,0.2-0.1,0.4l0,0.1v0h0.2l-0.2-0.1c0,0.1-0.1,0.2-0.1,0.3l0,0l0,0.1
		l-0.2,0.3l0,0l0,0.1l0.2,0.1l-0.2-0.1c-0.1,0.1-0.1,0.2-0.2,0.3l0,0l0,0.1l-0.2,0.2l0,0l-0.1,0.1l-0.2,0.2l0,0l-0.1,0.2l0,0
		l-0.1,0.2l-0.2,0.2l-0.1,0.1l-0.1,0.1l0,0L55.1,28L55,28.1l0,0l-0.2,0.2l0,0l-0.1,0.1l-0.3,0.2l-0.2,0.1l-0.1,0l0,0L54,28.8
		l0.1,0.2v-0.2h0l-0.1,0c-0.1,0-0.2,0.1-0.4,0.1l0.1,0.2v-0.2h0l0,0l-0.2,0l-0.1,0h-0.2h-0.1H53h-0.1c-0.1,0-0.2,0.1-0.2,0.2
		c0,0.1,0,0.2,0.1,0.2l2.2,1.3l0.1,0h0h0h0.1h0h0h0.2h0h0l0,0l0.2,0l0,0c0.1,0,0.2-0.1,0.3-0.1l0,0l0.2-0.1l0,0l0.1,0l0,0l0.2-0.1
		L56.6,30l0.1,0.2c0.2-0.1,0.3-0.2,0.4-0.3l0,0l0.1-0.1l0.2-0.1l0.1-0.1l0,0l0.1-0.1l0.1-0.1l0.1,0l0.1,0l0.1-0.1l0,0l0.2-0.2
		l0.1-0.1l0-0.1l0-0.1l0.1-0.1l0.1-0.1l0,0l0.1-0.1l0,0l0.1-0.1l0,0l0-0.1l0.1-0.1l0,0l0,0l0,0l0-0.1c0,0,0.1-0.1,0.2-0.3l0-0.1v0
		h-0.2l0.2,0.1l0-0.1l0.1-0.2l0,0l0-0.1l0,0l0-0.1l0,0l0-0.1l0,0l0.1-0.2l0-0.1v0h-0.2l0.2,0.1l0.1-0.3l0-0.1v0l0-0.1l0,0l0-0.2
		l0-0.1l0-0.1l0-0.1l0,0c0-0.1,0.1-0.3,0.1-0.4h-0.2l0.2,0l0-0.2l0-0.1l0-0.1V25l0-0.2l0,0v0c0-0.1,0-0.2,0-0.4l-0.1-0.2L59.8,24.3
		h-0.2c0,0.1,0,0.2,0,0.4v0l0,0.2l0,0v0l0,0.1l0,0l0,0.2l0,0c0,0.1,0,0.2-0.1,0.3l0.2,0.1l-0.2-0.1l0,0.1l0,0l0,0.1l0,0.1l0,0l0,0.2
		l0,0.1l0,0.1v0h0.2l-0.2-0.1l-0.1,0.3l0,0.1v0h0.2l-0.2-0.1L59,26.9l0,0l0,0.1l0,0l0,0.1l0,0l0,0.1l-0.1,0.2l0,0l0,0.1l0,0.1v0h0.2
		l-0.2-0.1c0,0.1-0.1,0.1-0.2,0.3l0.2,0.1l-0.2-0.2l0,0l0,0.1l0,0.1L58.3,28l0,0l0,0.1l-0.1,0.1l-0.1,0.1l0,0l-0.1,0.1l0,0l-0.1,0.2
		l0,0l0,0l-0.1,0.1l0,0L57.6,29l0,0l0,0l0,0l-0.1,0.1l0,0l-0.1,0.1l-0.1,0.1l0,0l-0.2,0.2l0,0l-0.1,0.1l0,0l-0.2,0.2l0,0l-0.2,0.1
		l-0.1,0l0,0l-0.2,0.1l0.1,0.2L56.1,30c-0.1,0-0.2,0.1-0.3,0.1l0.1,0.2l0-0.2l-0.2,0h0h0h-0.2h0h0h-0.1h0h0v0.2l0.1-0.2L53,29
		l-0.1,0.2v0.2H53h0.1h0.1h0.2h0.1l0,0l0.2,0h0l0.1,0c0.1,0,0.2-0.1,0.3-0.1L54,29v0.2h0l0.1,0l0.2-0.1l0,0l0.1,0l0,0l0.2-0.1l0,0
		l0.3-0.2l0,0l0.1-0.1l0.2-0.1l0.1-0.1l0,0l0.1-0.1l0.1-0.1l0,0l0.1-0.1l0,0l0.2-0.2l0,0l0.1-0.2l0,0l0.1-0.2l0.2-0.2l0,0l0.1-0.1
		l0,0l0.2-0.2l0,0l0-0.1l-0.2-0.1l0.2,0.1c0.1-0.1,0.1-0.2,0.2-0.3l0,0l0-0.1l0.2-0.3l0,0l0-0.1L57,25.8l0.2,0.1
		c0.1-0.1,0.1-0.2,0.2-0.4l0-0.1v0h-0.2l0.2,0.1c0-0.1,0.1-0.2,0.1-0.4l0-0.1l0.1-0.2l0-0.1l0,0c0.1-0.2,0.1-0.3,0.1-0.4l0-0.1v0
		l0-0.2l0-0.2l0,0l0-0.2l0,0v-0.1c0-0.1,0-0.2,0-0.3h-0.2l-0.1,0.2l2.2,1.2L59.8,24.3h-0.2H59.8z"/>
	<path class="st0" d="M52.1,34.8c0.2,0.3,0.3,0.8,0.3,1.3c0,0.2,0,0.3,0,0.4l0,0.1v0.1c0,0.1,0,0.2-0.1,0.4l0,0.1v0.1h0.2l-0.2-0.1
		c0,0.2-0.1,0.3-0.1,0.5l0.2,0.1l-0.2-0.1l0,0.1l0,0c0,0.1-0.1,0.3-0.2,0.4l0.2,0.1L52,38.1l0,0l0,0.1c-0.1,0.2-0.1,0.4-0.2,0.5
		l0,0.1v0H52l-0.2-0.1c-0.1,0.2-0.2,0.3-0.2,0.5l0,0c-0.1,0.1-0.2,0.2-0.3,0.4l0.2,0.1l-0.2-0.2l0,0l0,0c-0.1,0.2-0.2,0.3-0.3,0.4
		l0,0.2l0.1,0.1l2.2,1.3c0.1,0.1,0.2,0,0.3-0.1l0.1-0.1l0.2-0.3l0,0l0,0l0,0l0,0l0.1-0.2l0,0c0,0,0.1-0.1,0.2-0.3l-0.2-0.1l0.2,0.1
		c0,0,0.1-0.1,0.2-0.3L54,40.3l0.2,0.1l0.1-0.2l0-0.1v0h-0.2l0.2,0.1l0.1-0.3l0,0l0.1-0.2l0,0l0.1-0.2v0h-0.2l0.2,0.1l0.1-0.3l0,0
		l0-0.1l0-0.1l0,0l0-0.1c0-0.1,0.1-0.3,0.1-0.4v-0.1h-0.2l0.2,0.1c0.1-0.2,0.1-0.3,0.1-0.4l0-0.1V38v-0.1c0-0.1,0-0.3,0-0.5
		c0-0.7-0.1-1.2-0.5-1.6l-0.2,0.1l0.2-0.1c-0.2-0.3-0.4-0.5-0.6-0.6c-0.1-0.1-0.2,0-0.3,0.1c-0.1,0.1,0,0.2,0.1,0.3
		c0.2,0.1,0.3,0.2,0.5,0.5l0,0c0.2,0.3,0.4,0.7,0.4,1.4c0,0.1,0,0.3,0,0.5V38v0.1h0.2L54.6,38c-0.1,0.2-0.1,0.3-0.1,0.4l0,0.1v0.1
		c0,0.1,0,0.2-0.1,0.3l0,0.1l0,0.1l0,0l0,0.1l-0.1,0.3l0,0.1v0h0.2l-0.2-0.2l0,0l-0.1,0.1l-0.1,0.2L54,40l0,0.1v0h0.2L54,40
		l-0.1,0.2l0,0c0,0.1-0.1,0.1-0.2,0.3l0,0c0,0.1-0.1,0.1-0.2,0.3l0.2,0.1l-0.2-0.1l-0.1,0.2l0,0l0,0l0,0l0,0l-0.2,0.3l0,0L53,41.4
		l0.2,0.1l0.1-0.2l-2.2-1.3l-0.1,0.2l0.2,0.1c0.1-0.2,0.2-0.3,0.3-0.4l-0.2-0.1l0.2,0.2l0,0l0-0.1c0.1-0.1,0.2-0.2,0.3-0.4l0,0
		c0.1-0.2,0.2-0.3,0.2-0.5l0-0.1v0H52l0.2,0.1c0.1-0.2,0.1-0.4,0.2-0.5l-0.2-0.1l0.2,0.2l0,0l0.1-0.1c0-0.1,0.1-0.3,0.2-0.5
		l-0.2-0.1l0.2,0.1l0-0.1l0,0c0-0.2,0.1-0.3,0.1-0.5l0-0.1v-0.1h-0.2l0.2,0.1c0-0.2,0.1-0.3,0.1-0.5v-0.1h-0.2l0.2,0.1
		c0-0.2,0-0.4,0-0.5c0-0.6-0.1-1.1-0.4-1.5c-0.1-0.1-0.2-0.1-0.3-0.1C52.1,34.6,52.1,34.7,52.1,34.8L52.1,34.8z"/>
	<path class="st0" d="M64.3,24.5l0.2,0.1l0.1,0h0h0v-0.2l-0.1,0.2l0.1,0l0,0l0.1,0l0.1,0h0h0l0.2,0l0,0h0h0.2h0h0.1h0.1h0.1l0.1,0
		l0.1,0l0,0l0.1,0l0.1,0l0.2-0.1l0,0l0.1,0l0,0l0.1,0l0,0l0.1,0l0,0l0.3-0.2l0,0c0.1-0.1,0.2-0.2,0.4-0.2l0,0l0.1-0.1l-0.2-0.2
		l0.1,0.2c0.1-0.1,0.3-0.2,0.4-0.3l0,0l0,0l0.2-0.2l0,0l0.1-0.1l0,0l0.2-0.2l0,0l0.1-0.1l0,0l0.2-0.2l0-0.2l-0.1-0.2l-2.2-1.3
		c-0.1-0.1-0.2,0-0.3,0.1c-0.1,0.1-0.1,0.2-0.3,0.3l0,0l-0.2,0.2l0,0L65.2,22l0,0l0,0l0,0c-0.1,0.1-0.2,0.2-0.3,0.3l0,0l-0.1,0.1
		l0.2,0.2l-0.1-0.2c-0.1,0.1-0.2,0.2-0.4,0.2l0.1,0.2l-0.1-0.2l-0.3,0.2l-0.1,0l0,0l-0.2,0.1L63.7,23l-0.2,0c-0.1,0-0.2,0.1-0.2,0.3
		c0,0.1,0.1,0.2,0.3,0.2l0.2,0l0,0l0.2-0.1l0,0l0.2-0.1l0,0l0.1,0l0,0l0.3-0.2l0,0c0.1-0.1,0.2-0.2,0.4-0.2l0,0l0.1-0.1l-0.2-0.2
		l0.1,0.2c0.1-0.1,0.3-0.2,0.4-0.3l0,0l0,0l0,0l0.3-0.3l0,0l0.2-0.2l0,0c0.1-0.1,0.2-0.2,0.3-0.4l-0.2-0.1L66,21.6l1.9,1.1l0,0
		l0.2,0.1l-0.2-0.2l-0.1,0.1l0,0L67.7,23l0,0l-0.1,0.1l-0.2,0.2l0,0l0,0l0.2,0.2l-0.1-0.2c-0.1,0.1-0.3,0.2-0.4,0.3l0,0l-0.1,0.1
		l0.2,0.2l-0.1-0.2c-0.1,0.1-0.2,0.2-0.4,0.2l0.1,0.2l-0.1-0.2L66.3,24l-0.1,0l0,0l-0.1,0l0,0l-0.1,0l-0.2,0.1l0,0l0,0h0l-0.1,0
		l-0.1,0h0h-0.1h-0.1h0h-0.2h0l-0.2,0l0,0h0h0v0.2l0.1-0.2l-0.1,0l0,0l-0.1,0l-0.1,0h0h0v0.2l0.1-0.2l-0.2-0.1
		c-0.1-0.1-0.2,0-0.3,0.1C64.2,24.3,64.2,24.4,64.3,24.5L64.3,24.5z"/>
	<g>
		<defs>
			<path id="SVGID_3_" d="M58.9,42.5c0.6,0.3,0.9,1.1,0.9,2.1l-2.2-1.3c0-0.4,0-0.7-0.1-0.9L58.9,42.5"/>
		</defs>
		<clipPath id="SVGID_4_">
			<use xlink:href="#SVGID_3_"  style="overflow:visible;"/>
		</clipPath>
		<path class="st4" d="M58.8,42.7c0.5,0.3,0.8,0.9,0.8,1.9c0,0.1,0.1,0.2,0.2,0.2c0.1,0,0.2-0.1,0.2-0.2c0-1.1-0.4-1.9-1.1-2.3
			c-0.1-0.1-0.2,0-0.3,0.1C58.6,42.5,58.7,42.6,58.8,42.7L58.8,42.7z"/>
		<path class="st4" d="M60,44.4l-2.2-1.3l-0.1,0.2h0.2c0-0.3,0-0.7-0.1-1c0-0.1-0.2-0.2-0.3-0.2c-0.1,0-0.2,0.2-0.2,0.3
			c0.1,0.3,0.1,0.6,0.1,0.9l0.1,0.2l2.2,1.3c0.1,0.1,0.2,0,0.3-0.1C60.1,44.6,60.1,44.5,60,44.4L60,44.4z"/>
	</g>
	<path class="st0" d="M58.8,42.7c0.5,0.3,0.8,0.9,0.8,1.9h0.2l0.1-0.2l-2.2-1.3l-0.1,0.2h0.2c0-0.4,0-0.7-0.1-1
		c0-0.1-0.2-0.2-0.3-0.1c-0.1,0-0.2,0.2-0.1,0.3c0.1,0.2,0.1,0.5,0.1,0.9l0.1,0.2l2.2,1.3l0.2,0l0.1-0.2c0-1.1-0.4-1.9-1.1-2.3
		c-0.1-0.1-0.2,0-0.3,0.1C58.6,42.5,58.7,42.6,58.8,42.7L58.8,42.7z"/>
	<polygon class="st0" points="39.6,63.8 39.7,63.6 34,60.4 34,26.4 39.3,29.5 39.4,63.8 39.6,63.8 39.7,63.6 39.6,63.8 39.8,63.8 
		39.7,29.4 39.6,29.2 33.9,25.8 33.6,25.8 33.5,26 33.6,60.5 33.7,60.7 39.5,64 39.7,64 39.8,63.8 	"/>
	<g>
		<defs>
			<path id="SVGID_5_" d="M63.5,27.5c-0.1,0.1-0.2,0.2-0.1,0.3c0.2,0.4,0.4,1,0.4,1.8c0,0.3,0,0.6-0.1,0.9v0c0,0.1,0,0.2-0.1,0.3
				l0,0l0,0.3l0,0.2c0,0.1,0,0.2-0.1,0.3l0,0l0,0.2c0,0.1-0.1,0.2-0.1,0.3v0l0,0.1c-0.1,0.2-0.1,0.3-0.2,0.4l0,0l0,0.1
				c-0.1,0.2-0.1,0.3-0.2,0.4l-0.1,0.1c-0.1,0.1-0.2,0.3-0.2,0.4l0,0.1c-0.1,0.1-0.2,0.3-0.3,0.4l-0.1,0.1c-0.1,0.1-0.2,0.2-0.2,0.4
				L61.8,35l-0.2,0.2v0l-0.2,0.2l-0.2,0.2c-0.1,0.1-0.2,0.2-0.3,0.4l-0.1,0.1V29c0-0.1-0.1-0.2-0.2-0.2c-0.1,0-0.2,0.1-0.2,0.2v7.5
				c0,0,0,0,0,0l-0.1,0.1l-0.1,0.1l-0.3,0.2L59.8,37c-0.1,0.1-0.3,0.2-0.3,0.2l0,0c-0.1,0.1-0.3,0.1-0.4,0.2l-0.1,0
				c-0.2,0.1-0.3,0.1-0.4,0.2c-0.1,0-0.2,0-0.4,0.1l-0.2,0l-0.2,0h-0.1c-0.1,0-0.2,0.1-0.2,0.2s0.1,0.2,0.2,0.2h0.1l0,0l0,0
				c0,0.2,0.2,0.4,0.5,0.6c-0.1,0-0.1,0-0.2,0.1c-0.1,0.1,0,0.2,0.1,0.3l0.2,0.1l0.1,0l0.1,0l0,0l0.1,0l0.1,0l0.1,0h0.1h0
				c0,0,0.1,0,0.3,0h0.1h0.2h0.1H60h0.1l0.1,0l0.1,0l0.2,0l0,0l0.1,0l0.2-0.1l0,0c0.1,0,0.1-0.1,0.3-0.1l0.1,0l0.1,0l0.1,0
				c0.1-0.1,0.2-0.1,0.4-0.2c0.2-0.1,0.4-0.2,0.5-0.3l0.1-0.1l0,0c0.2-0.1,0.3-0.2,0.4-0.3v0l0,0c0.2-0.1,0.4-0.3,0.5-0.4v0
				c0.2-0.2,0.3-0.3,0.5-0.5h0l0.1-0.1l0,0l0.2-0.2l0.1-0.1l0,0l0.1-0.1l0.1-0.2v0l0.1-0.1l0,0l0.1-0.2l0.1-0.1l0,0l0,0
				c0.1-0.1,0.2-0.2,0.2-0.4l0-0.1l0,0c0,0,0.1-0.1,0.2-0.3l0.1-0.1l0.1-0.1l0-0.1l0-0.1c0-0.1,0.1-0.2,0.1-0.3l0,0l0.1-0.1
				c0-0.1,0.1-0.2,0.2-0.4l0-0.1l0,0l0-0.2l0.1-0.2l0,0l0-0.2l0,0l0-0.2l0-0.1l0,0l0-0.2v0l0-0.2v0v-0.1l0-0.1h0
				c0.1-0.2,0.1-0.3,0.1-0.4l0-0.1v-0.1c0-0.3,0-0.6,0-0.9c0-1.3-0.4-2.4-1.2-3l0,0l-0.2-0.1c-0.1-0.1-0.2,0-0.3,0.1
				c0,0,0,0.1,0,0.1c-0.3-0.1-0.5-0.2-0.7-0.2c0,0,0-0.1,0-0.1C63.8,27.5,63.7,27.5,63.5,27.5C63.6,27.5,63.6,27.5,63.5,27.5
				 M65.8,21.7l-0.2,0.2l-0.3,0.3l0,0c-0.1,0.1-0.2,0.2-0.4,0.3l-0.1,0.1c-0.1,0.1-0.3,0.2-0.4,0.3L64.2,23l-0.1,0L64,23.1l-0.3,0.1
				l-0.2,0l0.9,1.1l0.2,0.1h0h0l0.1,0l0.1,0h0h0l0.2,0h0h0.2h0h0.1h0.1h0.1l0.1,0h0.1l0.1,0l0.2-0.1l0.1,0l0.1,0l0.1,0l0.3-0.2
				c0.1-0.1,0.2-0.2,0.4-0.2l0.1-0.1c0.1-0.1,0.2-0.2,0.4-0.3l0,0l0.2-0.2l0.1-0.1L68,23l0.1-0.1l0.2-0.2l-2.2-1.3
				C66,21.5,65.9,21.6,65.8,21.7 M58.1,23.1l3.3-1.9l1.7,1l-3.2,1.9L58.1,23.1 M61.2,20.8l-3.7,2.1l-0.1,0.2l0.1,0.2l0.1,0.1
				c0,0,0,0.1,0,0.1v0.1l0,0.2l0,0.2l0,0.2v0c0,0.1,0,0.2-0.1,0.4l0,0.1L57.3,25l0,0.1c0,0.1-0.1,0.2-0.1,0.4v0
				c0,0.1-0.1,0.2-0.2,0.3l0,0.1l-0.2,0.3l0,0.1c-0.1,0.1-0.1,0.2-0.2,0.3l0,0.1l-0.2,0.2l-0.1,0.1l-0.2,0.2L56,27.4l-0.1,0.2
				l-0.2,0.2L55.5,28l-0.1,0.1l-0.2,0.2l-0.1,0.1l-0.2,0.2l-0.1,0.1l-0.3,0.2l-0.2,0.1l-0.1,0L54.1,29h0c-0.1,0-0.2,0.1-0.3,0.1h0
				l-0.2,0h-0.1h-0.2h-0.1H53h-0.1l2.2,1.3h0h0h0.1h0h0h0.2h0h0l0.2,0c0.1,0,0.2-0.1,0.3-0.1l0.2-0.1l0.1,0l0.2-0.1
				c0.1,0,0.2-0.1,0.3-0.2l0.1-0.1l0.2-0.2l0.1-0.1l0.2-0.2l0.1-0.1l0.1,0l0.1-0.1l0.2-0.3l0.1-0.1l0-0.1l0.1-0.2l0.1-0.1l0.1-0.1
				l0.1-0.1l0-0.1l0.1-0.2l0-0.1l0,0c0-0.1,0.1-0.2,0.2-0.3v0l0-0.1l0.1-0.2l0-0.1l0-0.1l0-0.1l0.1-0.2v0l0.1-0.3v0l0-0.1l0-0.2
				l0-0.1l0-0.1l0-0.1c0-0.1,0.1-0.2,0.1-0.4l0-0.2l0-0.1V25l0-0.2v0c0-0.1,0-0.1,0-0.2h0.1l3.7-2.1l0.1-0.2L63.6,22l-2.1-1.2H61.2"
				/>
		</defs>
		<clipPath id="SVGID_6_">
			<use xlink:href="#SVGID_5_"  style="overflow:visible;"/>
		</clipPath>
		<g style="clip-path:url(#SVGID_6_);">
			
				<image style="overflow:visible;" width="67" height="81" xlink:href="7825FC4925C678DE.jpg"  transform="matrix(0.24 0 0 -0.24 52.56 39.76)">
			</image>
		</g>
	</g>
</g>
</svg>
