<svg id="Layer_1" data-name="Layer 1" xmlns="http://www.w3.org/2000/svg" viewBox="0 0 100 100"><defs><style>.cls-1{fill:#0080ff;}</style></defs><g id="_Group_" data-name=" Group "><g id="_Group_2" data-name=" Group 2"><g id="_Group_3" data-name=" Group 3"><g id="_Group_4" data-name=" Group 4"><g id="_Group_5" data-name=" Group 5"><path id="_Path_" data-name=" Path " class="cls-1" d="M50,63V53.32a15.4,15.4,0,0,0,14.31-21,14.51,14.51,0,0,0-8.65-8.65A15.41,15.41,0,0,0,34.66,38H25A25.1,25.1,0,0,1,58,14.21,24.19,24.19,0,0,1,73.78,30,25.11,25.11,0,0,1,50,63Z"/></g><polygon id="_Path_2" data-name=" Path 2" class="cls-1" points="50.02 53.35 40.36 53.35 40.36 43.69 40.36 43.69 50.02 43.69 50.02 43.69 50.02 53.35"/><polygon id="_Path_3" data-name=" Path 3" class="cls-1" points="40.36 60.77 32.94 60.77 32.94 60.77 32.94 53.35 40.36 53.35 40.36 60.77 40.36 60.77"/><path id="_Path_4" data-name=" Path 4" class="cls-1" d="M32.94,53.35H26.72V47.13h6.22v6.22h0Z"/></g></g></g><g id="_Group_6" data-name=" Group 6"><path id="_Compound_Path_" data-name=" Compound Path " class="cls-1" d="M17.4,75.24a6.33,6.33,0,0,0-3.67-1H10.59v10h3.14a6.07,6.07,0,0,0,3.67-1.1,3.8,3.8,0,0,0,1.27-1.59,5.81,5.81,0,0,0,.45-2.36,5.67,5.67,0,0,0-.45-2.33A3.61,3.61,0,0,0,17.4,75.24Zm-5,.65h1a5.1,5.1,0,0,1,2.68.64,2.8,2.8,0,0,1,1.15,2.59,3,3,0,0,1-1.15,2.71h0a4.8,4.8,0,0,1-2.67.65h-1v-6.6Z"/><path id="_Path_5" data-name=" Path 5" class="cls-1" d="M21.3,74.08a1.06,1.06,0,0,0-.77.32,1,1,0,0,0-.32.76,1.09,1.09,0,1,0,2.18,0,1,1,0,0,0-.32-0.76A1.06,1.06,0,0,0,21.3,74.08Z"/><rect id="_Path_6" data-name=" Path 6" class="cls-1" x="20.4" y="77.15" width="1.77" height="7.02"/><path id="_Compound_Path_2" data-name=" Compound Path 2" class="cls-1" d="M28.59,77.74A2.66,2.66,0,0,0,26.82,77a3.17,3.17,0,0,0-2.41,1,3.52,3.52,0,0,0-1,2.52A3.6,3.6,0,0,0,24.39,83a3.22,3.22,0,0,0,2.42,1,2.75,2.75,0,0,0,1.74-.56v0.16A1.85,1.85,0,0,1,28.1,85a1.71,1.71,0,0,1-1.27.47,2.23,2.23,0,0,1-2-1.16l-1.2,1.16,0,0a4.29,4.29,0,0,0,1.18,1.06,3.58,3.58,0,0,0,2,.51,3.39,3.39,0,0,0,2.52-1,3.51,3.51,0,0,0,.95-2.55V77.15H28.59v0.59h0Zm-0.46,4.15a1.52,1.52,0,0,1-1.21.52,1.51,1.51,0,0,1-1.21-.52,2,2,0,0,1-.45-1.37,2.06,2.06,0,0,1,.45-1.39A1.65,1.65,0,0,1,28,79l0.08,0.08a2,2,0,0,1,.46,1.39,2,2,0,0,1-.47,1.37h0Z"/><rect id="_Path_7" data-name=" Path 7" class="cls-1" x="31.84" y="77.15" width="1.77" height="7.02"/><path id="_Path_8" data-name=" Path 8" class="cls-1" d="M32.74,74.08a1.06,1.06,0,0,0-.77.32,1,1,0,0,0-.32.76,1.09,1.09,0,1,0,2.18,0,1,1,0,0,0-.32-0.76A1.06,1.06,0,0,0,32.74,74.08Z"/><path id="_Path_9" data-name=" Path 9" class="cls-1" d="M37.48,75.25H35.74v1.9h-1v1.61h1v2.91a2.8,2.8,0,0,0,.54,1.94,2.59,2.59,0,0,0,1.9.57c0.29,0,.58,0,0.86,0h0.08V82.54l-0.61,0a1.13,1.13,0,0,1-.83-0.22,1.49,1.49,0,0,1-.2-0.93V78.76h1.64V77.15H37.48v-1.9h0Z"/><rect id="_Path_10" data-name=" Path 10" class="cls-1" x="47.41" y="74.2" width="1.77" height="9.97"/><path id="_Path_11" data-name=" Path 11" class="cls-1" d="M67,81.66a5,5,0,0,1-.89.82h0a1.67,1.67,0,0,1-.92.24,1.61,1.61,0,0,1-1.28-.58,2.42,2.42,0,0,1,0-3,1.6,1.6,0,0,1,1.27-.58,2.34,2.34,0,0,1,1.68,1l1.17-1.12h0A3.48,3.48,0,0,0,65.17,77a3.4,3.4,0,0,0-2.5,1,3.85,3.85,0,0,0,0,5.24,3.39,3.39,0,0,0,2.5,1.05,3.5,3.5,0,0,0,3-1.57Z"/><path id="_Compound_Path_3" data-name=" Compound Path 3" class="cls-1" d="M74.28,78.13a2.65,2.65,0,0,0-1-.84A3.31,3.31,0,0,0,71.8,77a3,3,0,0,0-2.4,1.08,4,4,0,0,0-.89,2.63,3.64,3.64,0,0,0,1,2.62,3.39,3.39,0,0,0,2.55,1,3.52,3.52,0,0,0,2.91-1.43l0-.05-1.15-1.12h0a5,5,0,0,1-.4.4,2.18,2.18,0,0,1-.51.38,2,2,0,0,1-.89.2,1.72,1.72,0,0,1-1.21-.43,1.61,1.61,0,0,1-.5-1.07H75l0-.64a4.57,4.57,0,0,0-.19-1.31A3.82,3.82,0,0,0,74.28,78.13Zm-3.86,1.65a1.74,1.74,0,0,1,.46-0.83,1.27,1.27,0,0,1,.93-0.36,1.29,1.29,0,0,1,1,.36,1.32,1.32,0,0,1,.35.83H70.42Z"/><path id="_Compound_Path_4" data-name=" Compound Path 4" class="cls-1" d="M81.06,77.68h0a3.34,3.34,0,0,0-2.2-.69,3.58,3.58,0,0,0-1.63.38A2.91,2.91,0,0,0,76,78.49l0,0,1.13,1.08a1.82,1.82,0,0,1,1.67-1,1.39,1.39,0,0,1,.91.3,0.92,0.92,0,0,1,.35.75V80a4.47,4.47,0,0,0-1.3-.2,3.43,3.43,0,0,0-2.13.62,2.09,2.09,0,0,0-.81,1.76,2,2,0,0,0,.69,1.59,2.58,2.58,0,0,0,1.71.58,3,3,0,0,0,1.87-.74v0.57h1.74V79.66A2.44,2.44,0,0,0,81.06,77.68Zm-3.13,3.81a1.46,1.46,0,0,1,.84-0.21,3.94,3.94,0,0,1,1.34.25v0.69a2.16,2.16,0,0,1-1.53.54,1.09,1.09,0,0,1-.71-0.2,0.62,0.62,0,0,1-.24-0.51,0.64,0.64,0,0,1,.28-0.57h0Z"/><path id="_Path_12" data-name=" Path 12" class="cls-1" d="M88.67,77.81A2.63,2.63,0,0,0,86.62,77a2.4,2.4,0,0,0-1.7.6V77.15H83.19v7H85V80.3A1.92,1.92,0,0,1,85.33,79a1.27,1.27,0,0,1,1-.45,1.13,1.13,0,0,1,.93.4,1.68,1.68,0,0,1,.34,1.1v4.07h1.77V80.1A3.3,3.3,0,0,0,88.67,77.81Z"/><path id="_Compound_Path_5" data-name=" Compound Path 5" class="cls-1" d="M45.19,77.68h0A3.34,3.34,0,0,0,43,77a3.58,3.58,0,0,0-1.63.38,2.91,2.91,0,0,0-1.2,1.12l0,0L41.3,79.6a1.82,1.82,0,0,1,1.67-1,1.39,1.39,0,0,1,.91.3,0.92,0.92,0,0,1,.35.75V80a4.47,4.47,0,0,0-1.3-.2,3.43,3.43,0,0,0-2.13.62A2.09,2.09,0,0,0,40,82.15a2,2,0,0,0,.69,1.59,2.58,2.58,0,0,0,1.71.58,3,3,0,0,0,1.87-.74v0.57H46V79.66A2.43,2.43,0,0,0,45.19,77.68Zm-3.13,3.81a1.46,1.46,0,0,1,.84-0.21,3.94,3.94,0,0,1,1.34.25v0.69a2.16,2.16,0,0,1-1.53.54,1.09,1.09,0,0,1-.71-0.2,0.62,0.62,0,0,1-.24-0.51,0.64,0.64,0,0,1,.28-0.57h0Z"/><path id="_Compound_Path_6" data-name=" Compound Path 6" class="cls-1" d="M55.59,84.32a5.14,5.14,0,1,1,5.14-5.14h0A5.14,5.14,0,0,1,55.59,84.32Zm0-8.47a3.33,3.33,0,1,0,3.33,3.33,3.33,3.33,0,0,0-3.33-3.33h0Z"/></g></g></svg>