<?xml version="1.0" encoding="utf-8"?>
<!-- Generator: Adobe Illustrator 18.1.1, SVG Export Plug-In . SVG Version: 6.00 Build 0)  -->
<svg version="1.1" id="Layer_1" xmlns="http://www.w3.org/2000/svg" xmlns:xlink="http://www.w3.org/1999/xlink" x="0px" y="0px"
	 viewBox="0 0 100 100" enable-background="new 0 0 100 100" xml:space="preserve">
<g>
	<path fill="#5FB0E2" d="M17.1,56.9c13.1-8.4,28-2.3,35.3,1.7C42.2,54.5,27.2,53.5,17.1,56.9z"/>
	
		<radialGradient id="SVGID_1_" cx="103.4391" cy="59.359" r="190.99" gradientTransform="matrix(0.25 0 0 -0.25 0 43.375)" gradientUnits="userSpaceOnUse">
		<stop  offset="0" style="stop-color:#5FB0E2"/>
		<stop  offset="9.123212e-02" style="stop-color:#45A1D7"/>
		<stop  offset="0.208" style="stop-color:#2C93CD"/>
		<stop  offset="0.3383" style="stop-color:#1888C4"/>
		<stop  offset="0.4876" style="stop-color:#0B80BE"/>
		<stop  offset="0.6724" style="stop-color:#027BBB"/>
		<stop  offset="1" style="stop-color:#007ABA"/>
	</radialGradient>
	<path fill="url(#SVGID_1_)" d="M40.1,18.3c6.3,0,11.7,3.7,14.1,9h-4.9C47.1,24.7,43.8,23,40,23c-3.7,0-7,1.6-9.1,4.3
		c0.1-0.1,0.2-0.2,0.4-0.3c5.2-3.7,12,0.4,12,0.4s-6.5-1.9-10.9,1.2c-4.4,3.1-3.7,9.3-3.7,9.3s0-0.1-0.1-0.2c0,0.1,0,0.2,0,0.2
		c-1-0.8-2.4-1.3-3.7-1.4c-0.2-0.9-0.2-1.8-0.2-2.8C24.6,25.2,31.5,18.3,40.1,18.3L40.1,18.3z M20.3,53.3V52c4.1-3,11.6-7,20.7-4.1
		c13.8,4.3,22.5,10.2,33.2,7.5c10.7-2.7,11.6-8.5,11.6-8.5s-1.9,8.2-12.3,10S53.2,56.7,41,52.1C32.7,49.1,24.6,51.5,20.3,53.3
		L20.3,53.3z M20.3,50.7c0.8-0.5,1.5-1,2.2-1.4c-0.4-0.2-0.7-0.5-1-0.8c-0.5-0.5-1-1.1-1.3-1.8v2.8c0,0,0,0.1,0.1,0.1
		c0.1,0.1,0.3,0.2,0.4,0.3c-0.2-0.1-0.4-0.2-0.5-0.3V50.7L20.3,50.7z M20.3,37.4v-4.8c1-0.4,2.1-0.6,3.2-0.6c0,0.5-0.1,1.1-0.1,1.7
		c0,0.9,0.1,1.9,0.2,2.8C22.4,36.5,21.3,36.8,20.3,37.4z M20.3,32.5v4.8c-2.1,1.2-3.6,3.5-3.6,6.2c0,2.6,1.5,5,3.6,6.2v0.9
		c-0.9,0.6-1.7,1.2-2.4,1.8c-3.1-2-5.2-5.4-5.2-9.3C12.7,38.2,15.9,34,20.3,32.5L20.3,32.5z M20.3,46.8c-1.4-2.7-0.9-5.7-0.9-5.7
		s-2.3,5.4,0.9,8.5V46.8L20.3,46.8z M20.3,52c-2.1,1.6-3.3,2.9-3.3,2.9c0,0,1.2-0.7,3.3-1.6V52z"/>
	<path fill="#5FB0E2" d="M54.9,49.9c0,0,6.6,3.4,12.8,2.8s8.1-2.8,8.1-2.8s-2.3,4.2-8.2,4.4C61.6,54.6,54.9,50,54.9,49.9z"/>
	<rect x="49.9" y="28.6" fill="#5FB0E2" width="5.5" height="5.5"/>
	<rect x="71.8" y="43.9" fill="#0088CF" width="4.3" height="4.3"/>
	<rect x="56.5" y="23.6" fill="#5FB0E2" width="7.4" height="7.4"/>
	<rect x="77.9" y="36.3" fill="#0088CF" width="7.4" height="7.4"/>
	<rect x="64.6" y="31.5" fill="#5FB0E2" width="4.1" height="4.1"/>
	<rect x="67.4" y="39.6" fill="#5FB0E2" width="4.1" height="4.1"/>
	<rect x="58.7" y="40" fill="#0088CF" width="4.1" height="4.1"/>
	<rect x="73.1" y="31.6" fill="#0088CF" width="4.1" height="4.1"/>
</g>
<g>
	<path fill="#0A8CCC" d="M12.8,82.2c0,1-0.2,1.9-0.5,2.8c-0.3,0.8-0.8,1.5-1.4,2.2c-0.6,0.6-1.3,1.1-2.2,1.4S6.9,89,5.9,89H0.6V75.3
		h5.2c1,0,2,0.2,2.8,0.5c0.9,0.3,1.6,0.8,2.2,1.4c0.6,0.6,1.1,1.3,1.4,2.1C12.6,80.2,12.8,81.2,12.8,82.2z M10.2,82.2
		c0-0.8-0.1-1.4-0.3-2c-0.2-0.6-0.5-1.1-0.9-1.5c-0.4-0.4-0.8-0.7-1.3-0.9c-0.5-0.2-1.1-0.3-1.8-0.3H3.2V87h2.7
		c0.7,0,1.3-0.1,1.8-0.3s1-0.5,1.4-1c0.4-0.4,0.6-0.9,0.9-1.5C10.1,83.6,10.2,82.9,10.2,82.2z"/>
	<path fill="#0A8CCC" d="M16.5,76.5c0,0.2,0,0.4-0.1,0.6c-0.1,0.2-0.2,0.3-0.3,0.5c-0.1,0.1-0.3,0.2-0.5,0.3S15.2,78,15,78
		s-0.4-0.1-0.6-0.1s-0.3-0.2-0.5-0.3c-0.1-0.1-0.2-0.3-0.3-0.5c-0.1-0.2-0.1-0.4-0.1-0.6s0.1-0.4,0.1-0.6c0.1-0.2,0.2-0.4,0.3-0.5
		c0.1-0.1,0.3-0.2,0.5-0.3S14.8,75,15,75s0.4,0.1,0.6,0.1s0.4,0.2,0.5,0.3c0.1,0.1,0.2,0.3,0.3,0.5C16.5,76.1,16.5,76.3,16.5,76.5z
		 M16.2,79.3V89h-2.3v-9.7H16.2z"/>
	<path fill="#0A8CCC" d="M21.2,79.2c0.4,0,0.8,0,1.2,0.1s0.7,0.2,1,0.4h2.8v0.9c0,0.2,0,0.2-0.1,0.3c-0.1,0.1-0.2,0.2-0.4,0.2
		l-0.9,0.1c0.1,0.2,0.1,0.3,0.1,0.5c0,0.2,0,0.4,0,0.6c0,0.5-0.1,0.9-0.3,1.3c-0.2,0.4-0.5,0.7-0.8,1c-0.3,0.3-0.7,0.5-1.2,0.6
		c-0.5,0.2-1,0.2-1.5,0.2c-0.4,0-0.7,0-1.1-0.1c-0.3,0.2-0.5,0.4-0.5,0.6c0,0.2,0.1,0.4,0.3,0.4c0.2,0.1,0.4,0.2,0.7,0.2
		c0.3,0.1,0.6,0.1,1,0.1s0.8,0,1.1,0.1c0.4,0,0.8,0.1,1.1,0.2c0.4,0.1,0.7,0.2,1,0.4s0.5,0.4,0.7,0.7c0.2,0.3,0.3,0.7,0.3,1.1
		c0,0.4-0.1,0.8-0.3,1.2c-0.2,0.4-0.5,0.8-0.9,1.1c-0.4,0.3-0.9,0.6-1.5,0.8s-1.2,0.3-2,0.3s-1.4-0.1-1.9-0.2
		c-0.5-0.2-1-0.3-1.4-0.6c-0.4-0.2-0.6-0.5-0.8-0.8c-0.2-0.3-0.3-0.6-0.3-1c0-0.5,0.1-0.8,0.4-1.2c0.3-0.3,0.6-0.5,1.1-0.7
		c-0.2-0.1-0.4-0.3-0.6-0.5c-0.1-0.2-0.2-0.5-0.2-0.8c0-0.2,0-0.3,0.1-0.5c0-0.2,0.1-0.3,0.2-0.5c0.1-0.1,0.2-0.3,0.4-0.4
		c0.1-0.1,0.4-0.2,0.5-0.4c-0.5-0.3-0.9-0.6-1.1-1c-0.3-0.5-0.4-1-0.4-1.6c0-0.5,0.1-0.9,0.3-1.3c0.2-0.4,0.5-0.7,0.8-1
		c0.4-0.3,0.8-0.5,1.2-0.6C20.1,79.2,20.6,79.2,21.2,79.2z M23.8,89.4c0-0.2,0-0.4-0.2-0.5s-0.3-0.2-0.5-0.3
		c-0.2-0.1-0.4-0.1-0.7-0.2c-0.2,0-0.5,0-0.8,0s-0.6,0-0.9,0s-0.6,0-0.9-0.1c-0.3,0.2-0.5,0.3-0.6,0.5c-0.1,0.2-0.2,0.4-0.2,0.7
		c0,0.2,0,0.3,0.1,0.5c0.1,0.1,0.2,0.3,0.4,0.4c0.2,0.1,0.4,0.2,0.7,0.2c0.3,0,0.6,0.1,1.1,0.1c0.4,0,0.8,0,1.1-0.1
		c0.3-0.1,0.6-0.2,0.8-0.3c0.2-0.1,0.4-0.2,0.5-0.4C23.7,89.8,23.8,89.6,23.8,89.4z M21.2,83.9c0.3,0,0.5-0.1,0.8-0.1
		c0.2-0.1,0.4-0.2,0.5-0.3c0.1-0.2,0.2-0.3,0.3-0.5s0.1-0.4,0.1-0.7c0-0.5-0.1-0.8-0.4-1.2c-0.3-0.3-0.7-0.4-1.3-0.4
		c-0.6,0-1,0.1-1.3,0.4c-0.3,0.3-0.4,0.7-0.4,1.2c0,0.2,0,0.4,0.1,0.6c0.1,0.2,0.2,0.4,0.3,0.5c0.1,0.2,0.3,0.2,0.5,0.3
		C20.7,83.9,20.9,83.9,21.2,83.9z"/>
	<path fill="#0A8CCC" d="M29.5,76.5c0,0.2,0,0.4-0.1,0.6c-0.1,0.2-0.2,0.3-0.3,0.5c-0.1,0.1-0.3,0.2-0.5,0.3
		C28.4,77.9,28.2,78,28,78s-0.4-0.1-0.6-0.1c-0.2-0.1-0.3-0.2-0.5-0.3c-0.1-0.1-0.2-0.3-0.3-0.5c-0.1-0.2-0.1-0.4-0.1-0.6
		s0-0.4,0.1-0.6c0.1-0.2,0.2-0.4,0.3-0.5c0.1-0.1,0.3-0.2,0.5-0.3c0.2-0.1,0.4-0.1,0.6-0.1s0.4,0.1,0.6,0.1c0.2,0.1,0.4,0.2,0.5,0.3
		c0.1,0.1,0.2,0.3,0.3,0.5C29.5,76.1,29.5,76.3,29.5,76.5z M29.2,79.3V89h-2.3v-9.7H29.2z"/>
	<path fill="#0A8CCC" d="M34,89.2c-0.8,0-1.5-0.2-1.9-0.7s-0.7-1.1-0.7-2V81h-1c-0.1,0-0.2-0.1-0.3-0.1C30,80.8,30,80.7,30,80.5
		v-0.9l1.5-0.2l0.5-2.7c0-0.1,0.1-0.2,0.2-0.3c0.1-0.1,0.2-0.1,0.3-0.1h1.2v3.1h2.5V81h-2.5v5.2c0,0.3,0.1,0.5,0.2,0.7
		c0.2,0.2,0.3,0.2,0.6,0.2c0.2,0,0.3,0,0.4-0.1c0.1,0,0.2-0.1,0.2-0.1c0.1-0.1,0.1-0.1,0.2-0.1c0,0,0.1,0,0.2,0c0.1,0,0.1,0,0.2,0
		c0,0,0.1,0.1,0.2,0.2l0.7,1.1c-0.3,0.3-0.7,0.5-1.2,0.6C35,89.1,34.5,89.2,34,89.2z"/>
	<path fill="#0A8CCC" d="M44.8,89h-1c-0.2,0-0.4,0-0.5-0.1c-0.1-0.1-0.2-0.2-0.3-0.4l-0.2-0.7c-0.2,0.2-0.5,0.4-0.7,0.6
		c-0.2,0.2-0.5,0.3-0.7,0.4s-0.5,0.2-0.8,0.2c-0.3,0-0.6,0.1-1,0.1c-0.4,0-0.8-0.1-1.1-0.2c-0.3-0.1-0.7-0.3-0.9-0.5
		c-0.2-0.2-0.5-0.5-0.6-0.8c-0.2-0.3-0.2-0.7-0.2-1.2c0-0.4,0.1-0.7,0.3-1.1c0.2-0.3,0.5-0.7,1-1c0.5-0.3,1-0.5,1.8-0.7
		c0.8-0.2,1.7-0.3,2.8-0.3v-0.6c0-0.7-0.1-1.2-0.4-1.5c-0.3-0.3-0.7-0.5-1.2-0.5c-0.4,0-0.7,0-1,0.1c-0.2,0.1-0.5,0.2-0.7,0.3
		c-0.2,0.1-0.3,0.2-0.5,0.3c-0.2,0.1-0.3,0.1-0.5,0.1c-0.2,0-0.3,0-0.4-0.1c-0.1-0.1-0.2-0.2-0.3-0.3l-0.4-0.8c1.1-1,2.5-1.5,4-1.5
		c0.6,0,1.1,0.1,1.5,0.3c0.5,0.2,0.8,0.5,1.1,0.8s0.5,0.7,0.7,1.2c0.2,0.4,0.2,1,0.2,1.5L44.8,89L44.8,89z M40.3,87.6
		c0.2,0,0.5,0,0.7-0.1s0.4-0.1,0.6-0.2c0.2-0.1,0.3-0.2,0.5-0.3c0.2-0.1,0.3-0.3,0.5-0.4v-1.6c-0.7,0-1.2,0-1.7,0.1
		c-0.5,0.1-0.8,0.2-1.1,0.3c-0.3,0.1-0.5,0.3-0.6,0.5S39,86.2,39,86.4c0,0.4,0.1,0.7,0.4,0.9C39.6,87.5,39.9,87.6,40.3,87.6z"/>
	<path fill="#0A8CCC" d="M48.7,75v14h-2.3V75H48.7z"/>
	<path fill="#0A8CCC" d="M63.6,82.2c0,1-0.2,1.9-0.5,2.8c-0.3,0.9-0.8,1.6-1.4,2.2c-0.6,0.6-1.3,1.1-2.2,1.4
		c-0.8,0.3-1.8,0.5-2.8,0.5s-2-0.2-2.8-0.5c-0.8-0.3-1.6-0.8-2.2-1.4c-0.6-0.6-1.1-1.4-1.4-2.2c-0.3-0.8-0.5-1.8-0.5-2.8
		s0.2-1.9,0.5-2.8c0.3-0.8,0.8-1.6,1.4-2.2c0.6-0.6,1.3-1.1,2.2-1.5c0.8-0.3,1.8-0.5,2.8-0.5s2,0.2,2.8,0.5c0.8,0.3,1.6,0.8,2.2,1.5
		c0.6,0.6,1.1,1.3,1.4,2.2C63.4,80.2,63.6,81.2,63.6,82.2z M61,82.2c0-0.8-0.1-1.4-0.3-2c-0.2-0.6-0.5-1.1-0.8-1.5s-0.8-0.7-1.3-1
		c-0.5-0.2-1.1-0.3-1.8-0.3s-1.3,0.1-1.8,0.3c-0.5,0.2-1,0.5-1.4,1c-0.4,0.4-0.7,0.9-0.9,1.5c-0.2,0.6-0.3,1.3-0.3,2s0.1,1.4,0.3,2
		c0.2,0.6,0.5,1.1,0.9,1.5c0.4,0.4,0.8,0.7,1.4,1c0.5,0.2,1.1,0.3,1.8,0.3s1.3-0.1,1.8-0.3c0.5-0.2,1-0.5,1.3-1
		c0.4-0.4,0.7-0.9,0.8-1.5C60.9,83.6,61,82.9,61,82.2z"/>
	<path fill="#0A8CCC" d="M71.3,81.4c-0.1,0.1-0.1,0.2-0.2,0.2c-0.1,0.1-0.2,0.1-0.3,0.1c-0.1,0-0.2,0-0.3-0.1s-0.2-0.2-0.4-0.2
		s-0.3-0.2-0.6-0.2C69.3,81,69.1,81,68.7,81c-0.4,0-0.8,0.1-1.1,0.2c-0.3,0.2-0.6,0.3-0.8,0.7c-0.2,0.3-0.3,0.6-0.4,1
		c-0.1,0.4-0.2,0.8-0.2,1.3c0,0.5,0.1,1,0.2,1.4c0.1,0.4,0.3,0.8,0.5,1c0.2,0.3,0.4,0.5,0.8,0.6c0.3,0.2,0.6,0.2,1,0.2
		s0.7-0.1,0.9-0.1c0.2-0.1,0.4-0.2,0.6-0.3c0.2-0.1,0.3-0.2,0.4-0.3c0.1-0.1,0.2-0.1,0.4-0.1c0.2,0,0.3,0.1,0.4,0.2l0.7,0.8
		c-0.2,0.3-0.6,0.6-0.8,0.8c-0.3,0.2-0.6,0.4-0.9,0.5s-0.7,0.2-1,0.2c-0.3,0.1-0.7,0.1-1,0.1c-0.6,0-1.2-0.1-1.7-0.3
		c-0.5-0.2-1-0.5-1.4-1c-0.4-0.4-0.7-1-0.9-1.6c-0.2-0.6-0.3-1.3-0.3-2.1c0-0.7,0.1-1.4,0.3-2c0.2-0.6,0.5-1.1,0.9-1.6
		c0.4-0.5,0.9-0.8,1.5-1.1s1.2-0.4,2-0.4c0.7,0,1.3,0.1,1.9,0.3s1,0.6,1.5,1L71.3,81.4z"/>
	<path fill="#0A8CCC" d="M76.6,79.2c0.6,0,1.2,0.1,1.7,0.3c0.5,0.2,0.9,0.5,1.3,0.8s0.7,0.8,0.9,1.4c0.2,0.6,0.3,1.2,0.3,1.9
		c0,0.2,0,0.3,0,0.4s-0.1,0.2-0.1,0.3c-0.1,0.1-0.1,0.1-0.2,0.1c-0.1,0-0.2,0.1-0.3,0.1h-6c0.1,1,0.3,1.7,0.8,2.2
		c0.5,0.5,1.1,0.7,1.8,0.7c0.4,0,0.7,0,1-0.1c0.3-0.1,0.5-0.2,0.7-0.3c0.2-0.1,0.4-0.2,0.6-0.3c0.2-0.1,0.3-0.1,0.4-0.1
		c0.1,0,0.2,0,0.2,0.1c0.1,0,0.1,0.1,0.2,0.1l0.7,0.9c-0.2,0.3-0.6,0.5-0.9,0.8c-0.3,0.2-0.7,0.4-1,0.5s-0.7,0.2-1.1,0.2
		c-0.4,0-0.7,0.1-1.1,0.1c-0.7,0-1.3-0.1-1.9-0.3c-0.6-0.2-1.1-0.6-1.5-1c-0.4-0.5-0.8-1-1-1.6c-0.2-0.7-0.4-1.4-0.4-2.2
		c0-0.7,0.1-1.3,0.3-1.9c0.2-0.6,0.5-1.1,0.9-1.5c0.4-0.4,0.9-0.8,1.5-1S75.9,79.2,76.6,79.2z M76.7,80.8c-0.7,0-1.2,0.2-1.6,0.6
		s-0.6,0.9-0.7,1.6h4.4c0-0.3-0.1-0.6-0.1-0.8c-0.1-0.3-0.2-0.5-0.4-0.7c-0.2-0.2-0.4-0.4-0.7-0.5C77.3,80.9,77,80.8,76.7,80.8z"/>
	<path fill="#0A8CCC" d="M89.3,89h-1.1c-0.2,0-0.4,0-0.5-0.1c-0.1-0.1-0.2-0.2-0.3-0.4l-0.2-0.7c-0.2,0.2-0.5,0.4-0.7,0.6
		c-0.2,0.2-0.5,0.3-0.7,0.4S85.3,89,85,89.1c-0.3,0-0.6,0.1-0.9,0.1c-0.4,0-0.8-0.1-1.1-0.2c-0.3-0.1-0.7-0.3-0.9-0.5
		c-0.2-0.2-0.4-0.5-0.6-0.8c-0.2-0.3-0.2-0.7-0.2-1.2c0-0.4,0.1-0.7,0.3-1.1c0.2-0.3,0.5-0.7,0.9-1c0.4-0.3,1.1-0.5,1.8-0.7
		c0.8-0.2,1.7-0.3,2.8-0.3v-0.6c0-0.7-0.1-1.2-0.4-1.5c-0.3-0.3-0.7-0.5-1.2-0.5c-0.4,0-0.7,0-0.9,0.1c-0.2,0.1-0.5,0.2-0.7,0.3
		s-0.3,0.2-0.5,0.3c-0.2,0.1-0.3,0.1-0.5,0.1c-0.2,0-0.3,0-0.4-0.1c-0.1-0.1-0.2-0.2-0.3-0.3l-0.4-0.8c1.1-1,2.4-1.5,4-1.5
		c0.6,0,1.1,0.1,1.5,0.3c0.4,0.2,0.8,0.5,1.1,0.8s0.6,0.7,0.7,1.2c0.2,0.4,0.2,1,0.2,1.5L89.3,89L89.3,89z M84.8,87.6
		c0.2,0,0.4,0,0.7-0.1c0.2,0,0.4-0.1,0.6-0.2c0.2-0.1,0.3-0.2,0.5-0.3s0.3-0.3,0.5-0.4v-1.6c-0.7,0-1.2,0-1.7,0.1
		c-0.4,0.1-0.8,0.2-1.1,0.3s-0.5,0.3-0.6,0.5s-0.2,0.4-0.2,0.6c0,0.4,0.1,0.7,0.4,0.9C84.1,87.5,84.4,87.6,84.8,87.6z"/>
	<path fill="#0A8CCC" d="M90.7,89v-9.7h1.4c0.3,0,0.5,0.1,0.6,0.4l0.2,0.8c0.2-0.2,0.4-0.4,0.6-0.6c0.2-0.2,0.4-0.3,0.7-0.4
		s0.5-0.2,0.8-0.3s0.6-0.1,0.9-0.1c0.5,0,1,0.1,1.4,0.3s0.8,0.4,1,0.8s0.5,0.7,0.6,1.2s0.2,1,0.2,1.5V89h-2.3v-6.2
		c0-0.6-0.1-1-0.4-1.4S95.8,81,95.2,81c-0.4,0-0.8,0.1-1.1,0.3c-0.3,0.2-0.7,0.4-1,0.8v7C93.1,89,90.7,89,90.7,89z"/>
</g>
</svg>
