<?xml version="1.0" encoding="utf-8"?>
<!-- Generator: Adobe Illustrator 22.1.0, SVG Export Plug-In . SVG Version: 6.00 Build 0)  -->
<svg version="1.1" id="Layer_1" xmlns="http://www.w3.org/2000/svg" xmlns:xlink="http://www.w3.org/1999/xlink" x="0px" y="0px"
	 viewBox="0 0 100 100" style="enable-background:new 0 0 100 100;" xml:space="preserve">
<style type="text/css">
	.st0{fill:#0080FF;}
</style>
<g id="_Group_">
	<g id="_Group_2">
		<g id="_Group_3">
			<g id="_Group_4">
				<g id="_Group_5">
					<path id="_Path_" class="st0" d="M50,75v-9.7c8.5,0,15.4-6.9,15.3-15.4c0-1.9-0.4-3.8-1.1-5.6c-1.5-4-4.6-7.2-8.6-8.6
						c-7.9-3.1-16.8,0.8-19.9,8.8c-0.7,1.8-1,3.7-1,5.6H25C25,36.2,36.3,25,50.1,25c2.7,0,5.3,0.4,7.9,1.3
						c7.5,2.4,13.4,8.3,15.8,15.8c4.4,13.1-2.8,27.3-15.9,31.7C55.3,74.6,52.6,75,50,75z"/>
				</g>
				<polygon id="_Path_2" class="st0" points="50,65.4 40.3,65.4 40.3,55.7 40.3,55.7 50,55.7 50,55.7 				"/>
				<polygon id="_Path_3" class="st0" points="40.3,72.8 32.9,72.8 32.9,72.8 32.9,65.4 40.3,65.4 40.3,72.8 				"/>
				<path id="_Path_4" class="st0" d="M32.9,65.4h-6.2v-6.2h6.2V65.4C32.9,65.4,32.9,65.4,32.9,65.4z"/>
			</g>
		</g>
	</g>
</g>
</svg>
