<?xml version="1.0" encoding="utf-8"?>
<!-- Generator: Adobe Illustrator 19.2.1, SVG Export Plug-In . SVG Version: 6.00 Build 0)  -->
<svg version="1.1"
	 id="Layer_1" inkscape:version="0.91 r13725" sodipodi:docname="DO_Logo_vertical_blue._100x100svg.svg" xmlns:cc="http://creativecommons.org/ns#" xmlns:dc="http://purl.org/dc/elements/1.1/" xmlns:inkscape="http://www.inkscape.org/namespaces/inkscape" xmlns:rdf="http://www.w3.org/1999/02/22-rdf-syntax-ns#" xmlns:sodipodi="http://sodipodi.sourceforge.net/DTD/sodipodi-0.dtd" xmlns:svg="http://www.w3.org/2000/svg"
	 xmlns="http://www.w3.org/2000/svg" xmlns:xlink="http://www.w3.org/1999/xlink" x="0px" y="0px" viewBox="0 0 100 100"
	 style="enable-background:new 0 0 100 100;" xml:space="preserve">
<style type="text/css">
	.st0{fill:#0080FF;}
</style>
<sodipodi:namedview  bordercolor="#666666" borderopacity="1" gridtolerance="10" guidetolerance="10" id="namedview31" inkscape:current-layer="Layer_1" inkscape:cx="175.5" inkscape:cy="177" inkscape:pageopacity="0" inkscape:pageshadow="2" inkscape:window-height="1056" inkscape:window-maximized="1" inkscape:window-width="1871" inkscape:window-x="1129" inkscape:window-y="24" inkscape:zoom="0.66666667" objecttolerance="10" pagecolor="#ffffff" showgrid="false">
	</sodipodi:namedview>
<g id="XMLID_229_" transform="matrix(0.2553916,0,0,0.2553916,4.7956868,4.8180275)">
	<g id="XMLID_690_">
		<g id="XMLID_691_">
			<g id="g8">
				<g id="XMLID_44_">
					<g id="XMLID_48_">
						<path id="XMLID_49_" inkscape:connector-curvature="0" class="st0" d="M177,370.2v-75c79.3,0,140.9-78.7,110.5-162.2
							c-11.2-30.7-35.9-55.4-66.8-66.6C137.1,36.2,58.5,97.5,58.5,176.9l0,0h-74.7C-16.3,50.4,106-48.2,238.6-6.8
							c57.9,18.2,104.1,64.2,122.1,122.1C402.1,247.9,303.5,370.2,177,370.2z"/>
					</g>
					<polygon id="XMLID_47_" class="st0" points="102.5,220.9 177.2,220.9 177.2,220.9 177.2,295.7 102.5,295.7 					"/>
					<polygon id="XMLID_46_" class="st0" points="45.3,295.7 102.5,295.7 102.5,352.9 102.5,352.9 45.3,352.9 45.3,352.9 					"/>
					<path id="XMLID_45_" inkscape:connector-curvature="0" class="st0" d="M45.3,295.7h-48l0,0v-48l0,0h48l0,0V295.7z"/>
				</g>
			</g>
		</g>
	</g>
</g>
</svg>
