<?xml version="1.0" encoding="UTF-8" standalone="no"?>
<!-- Generator: Adobe Illustrator 19.0.0, SVG Export Plug-In . SVG Version: 6.00 Build 0)  -->

<svg
   xmlns:dc="http://purl.org/dc/elements/1.1/"
   xmlns:cc="http://creativecommons.org/ns#"
   xmlns:rdf="http://www.w3.org/1999/02/22-rdf-syntax-ns#"
   xmlns:svg="http://www.w3.org/2000/svg"
   xmlns="http://www.w3.org/2000/svg"
   xmlns:sodipodi="http://sodipodi.sourceforge.net/DTD/sodipodi-0.dtd"
   xmlns:inkscape="http://www.inkscape.org/namespaces/inkscape"
   version="1.1"
   id="Layer_1"
   x="0px"
   y="0px"
   viewBox="0 0 100 100"
   xml:space="preserve"
   inkscape:version="0.91 r13725"
   sodipodi:docname="DO_Logo_vertical_blue._100x100svg.svg"
   width="100"
   height="100"><metadata
     id="metadata35"><rdf:RDF><cc:Work
         rdf:about=""><dc:format>image/svg+xml</dc:format><dc:type
           rdf:resource="http://purl.org/dc/dcmitype/StillImage" /><dc:title></dc:title></cc:Work></rdf:RDF></metadata><defs
     id="defs33" /><sodipodi:namedview
     pagecolor="#ffffff"
     bordercolor="#666666"
     borderopacity="1"
     objecttolerance="10"
     gridtolerance="10"
     guidetolerance="10"
     inkscape:pageopacity="0"
     inkscape:pageshadow="2"
     inkscape:window-width="1871"
     inkscape:window-height="1056"
     id="namedview31"
     showgrid="false"
     inkscape:zoom="0.66666667"
     inkscape:cx="175.5"
     inkscape:cy="177"
     inkscape:window-x="1129"
     inkscape:window-y="24"
     inkscape:window-maximized="1"
     inkscape:current-layer="Layer_1" /><style
     type="text/css"
     id="style3">
	.st0{fill:#0080FF;}
	.st1{fill-rule:evenodd;clip-rule:evenodd;fill:#0080FF;}
</style><g
     id="XMLID_229_"
     transform="matrix(0.2553916,0,0,0.2553916,4.7956868,4.8180275)"><g
       id="XMLID_690_"><g
         id="XMLID_691_"><g
           id="g8"><g
             id="XMLID_44_"><g
               id="XMLID_48_"><path
                 id="XMLID_49_"
                 class="st0"
                 d="m 177,221.5 0,-34.2 c 36.2,0 64.3,-35.9 50.4,-74 -5.1,-14 -16.4,-25.3 -30.5,-30.4 -38.1,-13.8 -74,14.2 -74,50.4 0,0 0,0 0,0 l -34.1,0 c 0,-57.7 55.8,-102.7 116.3,-83.8 26.4,8.3 47.5,29.3 55.7,55.7 18.9,60.5 -26.1,116.3 -83.8,116.3 z"
                 inkscape:connector-curvature="0"
                 style="fill:#0080ff" /></g><polygon
               id="XMLID_47_"
               class="st1"
               points="143,153.4 177.1,153.4 177.1,153.4 177.1,187.5 143,187.5 143,153.4 "
               style="clip-rule:evenodd;fill:#0080ff;fill-rule:evenodd" /><polygon
               id="XMLID_46_"
               class="st1"
               points="116.9,187.5 143,187.5 143,213.6 143,213.6 116.9,213.6 116.9,213.6 "
               style="clip-rule:evenodd;fill:#0080ff;fill-rule:evenodd" /><path
               id="XMLID_45_"
               class="st1"
               d="m 116.9,187.5 -21.9,0 c 0,0 0,0 0,0 l 0,-21.9 c 0,0 0,0 0,0 l 21.9,0 c 0,0 0,0 0,0 l 0,21.9 z"
               inkscape:connector-curvature="0"
               style="clip-rule:evenodd;fill:#0080ff;fill-rule:evenodd" /></g></g></g></g><g
       id="XMLID_234_"><path
         id="XMLID_677_"
         class="st0"
         d="m 31.2,256.1 c -4.4,-3.1 -10,-4.6 -16.4,-4.6 l -14,0 0,44.5 14.1,0 c 6.4,0 12,-1.6 16.4,-4.9 2.4,-1.7 4.3,-4.1 5.7,-7.1 1.3,-3 2,-6.6 2,-10.5 0,-3.9 -0.7,-7.4 -2,-10.4 -1.4,-3 -3.3,-5.4 -5.8,-7 z M 9,259 l 4.4,0 c 4.9,0 8.9,1 12,2.9 3.4,2.1 5.1,6 5.1,11.6 0,5.8 -1.7,9.9 -5.1,12.1 l 0,0 c -2.9,1.9 -6.9,2.9 -11.9,2.9 L 9,288.5 9,259 Z"
         inkscape:connector-curvature="0"
         style="fill:#0080ff" /><path
         id="XMLID_676_"
         class="st0"
         d="m 48.7,250.9 c -1.4,0 -2.5,0.5 -3.5,1.4 -0.9,0.9 -1.4,2 -1.4,3.4 0,1.4 0.5,2.5 1.4,3.5 0.9,0.9 2.1,1.4 3.5,1.4 1.3,0 2.5,-0.5 3.5,-1.4 0.9,-0.9 1.4,-2.1 1.4,-3.5 0,-1.4 -0.5,-2.5 -1.4,-3.4 -1,-0.9 -2.2,-1.4 -3.5,-1.4 z"
         inkscape:connector-curvature="0"
         style="fill:#0080ff" /><rect
         id="XMLID_675_"
         x="44.700001"
         y="264.60001"
         class="st0"
         width="7.9000001"
         height="31.4"
         style="fill:#0080ff" /><path
         id="XMLID_670_"
         class="st0"
         d="m 81.3,267.2 c -2.4,-2.1 -5,-3.4 -7.9,-3.4 -4.4,0 -8,1.5 -10.8,4.5 -2.8,2.9 -4.3,6.7 -4.3,11.3 0,4.4 1.4,8.2 4.2,11.2 2.8,2.9 6.5,4.4 10.8,4.4 3,0 5.7,-0.8 7.8,-2.5 l 0,0.7 c 0,2.6 -0.7,4.6 -2.1,6 -1.4,1.4 -3.3,2.1 -5.7,2.1 -3.6,0 -5.9,-1.4 -8.7,-5.2 l -5.4,5.2 0.1,0.2 c 1.2,1.6 2.9,3.2 5.3,4.7 2.3,1.5 5.3,2.3 8.8,2.3 4.7,0 8.5,-1.4 11.3,-4.3 2.8,-2.9 4.2,-6.7 4.2,-11.4 l 0,-28.5 -7.8,0 0,2.7 z m -2.1,18.6 c -1.4,1.6 -3.2,2.3 -5.4,2.3 -2.3,0 -4,-0.8 -5.4,-2.3 -1.4,-1.6 -2,-3.6 -2,-6.1 0,-2.6 0.7,-4.6 2,-6.2 1.3,-1.6 3.2,-2.3 5.4,-2.3 2.3,0 4,0.8 5.4,2.3 1.4,1.6 2.1,3.7 2.1,6.2 0,2.5 -0.7,4.5 -2.1,6.1 z"
         inkscape:connector-curvature="0"
         style="fill:#0080ff" /><rect
         id="XMLID_668_"
         x="95.800003"
         y="264.60001"
         class="st0"
         width="7.9000001"
         height="31.4"
         style="fill:#0080ff" /><path
         id="XMLID_660_"
         class="st0"
         d="m 99.8,250.9 c -1.4,0 -2.5,0.5 -3.5,1.4 -0.9,0.9 -1.4,2 -1.4,3.4 0,1.4 0.5,2.5 1.4,3.5 0.9,0.9 2.1,1.4 3.5,1.4 1.3,0 2.5,-0.5 3.5,-1.4 0.9,-0.9 1.4,-2.1 1.4,-3.5 0,-1.4 -0.5,-2.5 -1.4,-3.4 -1,-0.9 -2.1,-1.4 -3.5,-1.4 z"
         inkscape:connector-curvature="0"
         style="fill:#0080ff" /><path
         id="XMLID_652_"
         class="st0"
         d="m 121,256.1 -7.8,0 0,8.5 -4.5,0 0,7.2 4.5,0 0,13 c 0,4.1 0.8,7 2.4,8.7 1.6,1.7 4.5,2.5 8.5,2.5 1.3,0 2.6,0 3.8,-0.1 l 0.4,0 0,-7.2 -2.7,0.1 c -1.9,0 -3.1,-0.3 -3.7,-1 -0.6,-0.7 -0.9,-2.1 -0.9,-4.2 l 0,-11.9 7.4,0 0,-7.2 -7.4,0 0,-8.4 z"
         inkscape:connector-curvature="0"
         style="fill:#0080ff" /><rect
         id="XMLID_642_"
         x="165.39999"
         y="251.39999"
         class="st0"
         width="7.9000001"
         height="44.599998"
         style="fill:#0080ff" /><path
         id="XMLID_448_"
         class="st0"
         d="m 253.1,284.8 c -1.4,1.6 -2.9,3 -4,3.7 l 0,0 c -1.1,0.7 -2.5,1.1 -4.1,1.1 -2.3,0 -4.2,-0.8 -5.7,-2.6 -1.5,-1.7 -2.3,-4 -2.3,-6.6 0,-2.7 0.8,-4.9 2.3,-6.6 1.5,-1.7 3.4,-2.6 5.7,-2.6 2.5,0 5.2,1.6 7.5,4.3 l 5.2,-5 0,0 c -3.4,-4.4 -7.7,-6.5 -12.9,-6.5 -4.3,0 -8.1,1.6 -11.2,4.7 -3.1,3.1 -4.6,7 -4.6,11.7 0,4.7 1.6,8.6 4.6,11.7 3.1,3.1 6.8,4.7 11.2,4.7 5.7,0 10.3,-2.5 13.5,-7 l -5.2,-5 z"
         inkscape:connector-curvature="0"
         style="fill:#0080ff" /><path
         id="XMLID_445_"
         class="st0"
         d="m 285.6,269 c -1.1,-1.6 -2.6,-2.8 -4.5,-3.7 -1.9,-0.9 -4.1,-1.4 -6.5,-1.4 -4.4,0 -8,1.6 -10.7,4.8 -2.6,3.2 -4,7.1 -4,11.8 0,4.8 1.5,8.7 4.3,11.7 2.9,3 6.7,4.5 11.4,4.5 5.3,0 9.7,-2.2 13,-6.4 l 0.2,-0.2 -5.2,-5 0,0 c -0.5,0.6 -1.2,1.2 -1.8,1.8 -0.8,0.7 -1.5,1.3 -2.3,1.7 -1.2,0.6 -2.5,0.9 -4,0.9 -2.2,0 -4,-0.6 -5.4,-1.9 -1.3,-1.2 -2.1,-2.8 -2.3,-4.8 l 20.9,0 0.1,-2.9 c 0,-2 -0.3,-4 -0.8,-5.8 -0.5,-1.8 -1.3,-3.5 -2.4,-5.1 z m -17.3,7.4 c 0.4,-1.5 1.1,-2.8 2.1,-3.7 1.1,-1.1 2.5,-1.6 4.1,-1.6 1.9,0 3.4,0.5 4.4,1.6 0.9,1 1.5,2.2 1.6,3.7 l -12.2,0 z"
         inkscape:connector-curvature="0"
         style="fill:#0080ff" /><path
         id="XMLID_442_"
         class="st0"
         d="m 315.9,267 0,0 c -2.4,-2 -5.7,-3.1 -9.8,-3.1 -2.6,0 -5.1,0.6 -7.3,1.7 -2.1,1 -4.1,2.8 -5.4,5 l 0.1,0.1 5.1,4.8 c 2.1,-3.3 4.4,-4.5 7.5,-4.5 1.7,0 3,0.4 4.1,1.3 1,0.9 1.6,2 1.6,3.4 l 0,1.5 c -2,-0.6 -3.9,-0.9 -5.8,-0.9 -3.9,0 -7.1,0.9 -9.5,2.7 -2.4,1.8 -3.6,4.5 -3.6,7.9 0,3 1,5.3 3.1,7.1 2.1,1.7 4.6,2.6 7.6,2.6 3,0 5.8,-1.2 8.4,-3.3 l 0,2.6 7.8,0 0,-20.2 c -0.3,-3.7 -1.5,-6.7 -3.9,-8.7 z m -14,17 c 0.9,-0.6 2.2,-0.9 3.8,-0.9 1.9,0 3.9,0.4 6,1.1 l 0,3.1 c -1.7,1.6 -4,2.4 -6.8,2.4 -1.4,0 -2.4,-0.3 -3.2,-0.9 -0.7,-0.6 -1.1,-1.3 -1.1,-2.3 0,-1.1 0.4,-1.9 1.3,-2.5 z"
         inkscape:connector-curvature="0"
         style="fill:#0080ff" /><path
         id="XMLID_393_"
         class="st0"
         d="m 349.9,267.6 c -2.2,-2.5 -5.3,-3.7 -9.2,-3.7 -3.1,0 -5.7,0.9 -7.6,2.7 l 0,-1.9 -7.7,0 0,31.3 7.9,0 0,-17.3 c 0,-2.4 0.6,-4.3 1.7,-5.6 1.1,-1.3 2.6,-2 4.7,-2 1.8,0 3.1,0.6 4.1,1.8 1,1.2 1.5,2.9 1.5,4.9 l 0,18.2 7.9,0 0,-18.2 c 0,-4.3 -1.1,-7.8 -3.3,-10.2 z"
         inkscape:connector-curvature="0"
         style="fill:#0080ff" /><path
         id="XMLID_320_"
         class="st0"
         d="m 155.5,267 0,0 c -2.4,-2 -5.7,-3.1 -9.8,-3.1 -2.6,0 -5.1,0.6 -7.3,1.7 -2.1,1 -4.1,2.8 -5.4,5 l 0.1,0.1 5.1,4.8 c 2.1,-3.3 4.4,-4.5 7.5,-4.5 1.7,0 3,0.4 4.1,1.3 1,0.9 1.6,2 1.6,3.4 l 0,1.5 c -2,-0.6 -3.9,-0.9 -5.8,-0.9 -3.9,0 -7.1,0.9 -9.5,2.7 -2.4,1.8 -3.6,4.5 -3.6,7.9 0,3 1,5.3 3.1,7.1 2.1,1.7 4.6,2.6 7.6,2.6 3,0 5.8,-1.2 8.4,-3.3 l 0,2.6 7.8,0 0,-20.2 c -0.3,-3.7 -1.5,-6.7 -3.9,-8.7 z m -14,17 c 0.9,-0.6 2.2,-0.9 3.8,-0.9 1.9,0 3.9,0.4 6,1.1 l 0,3.1 c -1.7,1.6 -4,2.4 -6.8,2.4 -1.4,0 -2.4,-0.3 -3.2,-0.9 -0.7,-0.6 -1.1,-1.3 -1.1,-2.3 0,-1.1 0.4,-1.9 1.3,-2.5 z"
         inkscape:connector-curvature="0"
         style="fill:#0080ff" /><path
         id="XMLID_235_"
         class="st0"
         d="m 202,296.7 c -12.7,0 -23,-10.3 -23,-23 0,-12.7 10.3,-23 23,-23 12.7,0 23,10.3 23,23 0,12.7 -10.3,23 -23,23 z m 0,-37.9 c -8.2,0 -14.9,6.7 -14.9,14.9 0,8.2 6.7,14.9 14.9,14.9 8.2,0 14.9,-6.7 14.9,-14.9 0,-8.2 -6.7,-14.9 -14.9,-14.9 z"
         inkscape:connector-curvature="0"
         style="fill:#0080ff" /></g></g></svg>