<svg id="Layer_1" data-name="Layer 1" xmlns="http://www.w3.org/2000/svg" viewBox="0 0 100 100"><defs><style>.cls-1{fill:#0d5075;}</style></defs><path class="cls-1" d="M18.79,31.18h7.16v7H18.79v-7h0Zm8.79,0h7.16v7H27.58v-7h0Zm0-8.92h7.16v7H27.58v-7Zm8.78,8.92h7.16v7H36.36v-7h0Zm0-8.92h7.16v7H36.36v-7Zm8.79,8.92h7.16v7H45.14v-7h0Zm0-8.92h7.16v7H45.14v-7Zm8.79,8.92h7.16v7H53.93v-7h0ZM45.14,13.33h7.16v7H45.14v-7ZM28.79,48.19a1.94,1.94,0,1,0,2,1.94,2,2,0,0,0-2-1.94"/><path class="cls-1" d="M84.15,34.78A11.26,11.26,0,0,0,75.82,34c-0.34-2.82-2.24-5.29-4.5-7.06l-0.9-.7-0.76.85c-1.52,1.7-2,4.54-1.76,6.72a8.61,8.61,0,0,0,1.68,4.51,13.08,13.08,0,0,1-2.42,1.07,16.2,16.2,0,0,1-5,.81H15.06L15,41.27a19.71,19.71,0,0,0,1.66,10.26l0.64,1.28,0.07,0.12C21.77,60.25,29.55,63.33,38,63.33c16.41,0,29.95-7.12,36.16-22.17,4.15,0.21,8.4-1,10.44-4.84l0.52-1-1-.55h0Zm-55.36,19a3.68,3.68,0,1,1,3.79-3.68,3.74,3.74,0,0,1-3.79,3.68h0Z"/><path class="cls-1" d="M12.92,73.9a0.83,0.83,0,0,1,.23.61V82a4.6,4.6,0,0,1-.6,2.33,4.45,4.45,0,0,1-3.93,2.25A4.57,4.57,0,0,1,6.3,86a4.34,4.34,0,0,1-1.64-1.65A4.66,4.66,0,0,1,4.06,82a4.93,4.93,0,0,1,.55-2.33,4.17,4.17,0,0,1,1.52-1.64,4,4,0,0,1,2.15-.59A4.05,4.05,0,0,1,11.47,79V74.51a0.81,0.81,0,0,1,.24-0.61A0.91,0.91,0,0,1,12.92,73.9ZM10.11,84.73a2.84,2.84,0,0,0,1-1.11A3.3,3.3,0,0,0,11.53,82a3.25,3.25,0,0,0-.38-1.57,2.91,2.91,0,0,0-4-1.11,2.91,2.91,0,0,0-1.06,1.11A3.2,3.2,0,0,0,5.68,82a3.25,3.25,0,0,0,.39,1.58,2.89,2.89,0,0,0,1.06,1.11A3,3,0,0,0,10.11,84.73Z"/><path class="cls-1" d="M17.38,86a4.14,4.14,0,0,1-1.62-1.62,5.14,5.14,0,0,1,0-4.74,4.13,4.13,0,0,1,1.62-1.62,4.72,4.72,0,0,1,2.36-.59,4.64,4.64,0,0,1,2.33.59,4.21,4.21,0,0,1,1.62,1.62,5.11,5.11,0,0,1,0,4.74A4.16,4.16,0,0,1,22.09,86a4.67,4.67,0,0,1-2.35.59A4.72,4.72,0,0,1,17.38,86Zm3.87-1.3a2.73,2.73,0,0,0,1-1.1,3.35,3.35,0,0,0,.37-1.59,3.41,3.41,0,0,0-.37-1.6,2.73,2.73,0,0,0-1-1.1,3.07,3.07,0,0,0-3,0,2.78,2.78,0,0,0-1,1.1,3.34,3.34,0,0,0-.38,1.6,3.29,3.29,0,0,0,.38,1.59,2.79,2.79,0,0,0,1,1.1A3.07,3.07,0,0,0,21.25,84.74Z"/><path class="cls-1" d="M28.14,86a4.24,4.24,0,0,1-1.63-1.64,4.7,4.7,0,0,1-.59-2.33,4.87,4.87,0,0,1,.57-2.37,4.09,4.09,0,0,1,1.59-1.63,4.56,4.56,0,0,1,2.31-.59A4.1,4.1,0,0,1,33.63,79a0.62,0.62,0,0,1,.16.43,0.72,0.72,0,0,1-.36.61,0.64,0.64,0,0,1-.38.12,0.83,0.83,0,0,1-.64-0.3,2.62,2.62,0,0,0-.9-0.65A2.82,2.82,0,0,0,30.4,79a2.69,2.69,0,0,0-2.06.85,3.17,3.17,0,0,0-.79,2.25,3.35,3.35,0,0,0,.37,1.59,2.74,2.74,0,0,0,1,1.1,2.93,2.93,0,0,0,1.53.4,2.74,2.74,0,0,0,1.81-.58,1,1,0,0,1,.61-0.23,0.7,0.7,0,0,1,.43.15,0.77,0.77,0,0,1,.31.59,0.61,0.61,0,0,1-.2.45,4.19,4.19,0,0,1-3,1.1A4.63,4.63,0,0,1,28.14,86Z"/><path class="cls-1" d="M42.83,85.86a0.77,0.77,0,0,1-.3.61,0.83,0.83,0,0,1-.53.2,0.72,0.72,0,0,1-.59-0.3L38.28,82.5l-0.83.73v2.52a0.81,0.81,0,1,1-1.62,0V74.48a0.81,0.81,0,1,1,1.62,0V81.2l4-3.58A0.7,0.7,0,0,1,42,77.4a0.69,0.69,0,0,1,.56.26,0.7,0.7,0,0,1,.21.51,0.69,0.69,0,0,1-.26.56l-3,2.71,3.2,3.93A0.71,0.71,0,0,1,42.83,85.86Z"/><path class="cls-1" d="M51.64,82.42a0.75,0.75,0,0,1-.54.21H44.82a2.91,2.91,0,0,0,1,1.86A3.35,3.35,0,0,0,49,85a3,3,0,0,0,.88-0.45,0.85,0.85,0,0,1,.54-0.18,0.71,0.71,0,0,1,.49.17,0.72,0.72,0,0,1,.3.56,0.6,0.6,0,0,1-.26.5,4.55,4.55,0,0,1-1.39.72,5,5,0,0,1-4-.3,4.25,4.25,0,0,1-1.67-1.62,4.62,4.62,0,0,1-.6-2.36,4.87,4.87,0,0,1,.57-2.37,4.1,4.1,0,0,1,1.58-1.63,4.52,4.52,0,0,1,2.3-.59,4.15,4.15,0,0,1,2.19.56,3.71,3.71,0,0,1,1.42,1.57,5.17,5.17,0,0,1,.5,2.31A0.69,0.69,0,0,1,51.64,82.42Zm-5.85-2.88a3,3,0,0,0-.95,1.76h5.49a2.93,2.93,0,0,0-.83-1.76,2.42,2.42,0,0,0-1.77-.66A2.85,2.85,0,0,0,45.79,79.55Z"/><path class="cls-1" d="M59.49,77.7a0.77,0.77,0,0,1,.49.66,0.6,0.6,0,0,1,0,.17,0.64,0.64,0,0,1-.66.53l-0.25,0A6.55,6.55,0,0,0,58,78.9a3.11,3.11,0,0,0-1.91.55,1.74,1.74,0,0,0-.73,1.47v4.82a0.84,0.84,0,0,1-.21.61,0.82,0.82,0,0,1-.62.21,0.84,0.84,0,0,1-.61-0.21,0.82,0.82,0,0,1-.21-0.62V78.36a0.75,0.75,0,0,1,.83-0.83,0.73,0.73,0,0,1,.82.83v0.31a3.5,3.5,0,0,1,1.22-.91,3.72,3.72,0,0,1,1.55-.33A2.94,2.94,0,0,1,59.49,77.7Z"/><path class="cls-1" d="M72.15,77.95a3.48,3.48,0,0,1,1.42,1.44,4.75,4.75,0,0,1,.51,2.29v4.06a0.84,0.84,0,1,1-1.68,0V81.67A2.43,2.43,0,0,0,69.77,79a2.82,2.82,0,0,0-1.26.28,2.24,2.24,0,0,0-.89.76,1.87,1.87,0,0,0-.32,1.07v4.65a0.83,0.83,0,0,1-.23.6,0.81,0.81,0,0,1-.61.24,0.82,0.82,0,0,1-.84-0.84V74.51a0.81,0.81,0,0,1,.24-0.61,0.83,0.83,0,0,1,.6-0.23,0.79,0.79,0,0,1,.84.84v4a3.67,3.67,0,0,1,1.25-.82A4.4,4.4,0,0,1,72.15,77.95Z"/><path class="cls-1" d="M84.25,77.75a0.83,0.83,0,0,1,.23.61v7.36a0.83,0.83,0,0,1-.23.6,0.85,0.85,0,0,1-1.45-.6V85.53a3.65,3.65,0,0,1-1.25.82,4.14,4.14,0,0,1-1.55.29,4.2,4.2,0,0,1-2-.49,3.49,3.49,0,0,1-1.42-1.44A4.76,4.76,0,0,1,76,82.42V78.36a0.84,0.84,0,1,1,1.68,0v4.06a2.43,2.43,0,0,0,2.62,2.71,2.82,2.82,0,0,0,1.26-.28,2.25,2.25,0,0,0,.89-0.76A1.89,1.89,0,0,0,82.8,83V78.36A0.81,0.81,0,0,1,83,77.75,0.91,0.91,0,0,1,84.25,77.75Z"/><path class="cls-1" d="M93.87,78.06a4.16,4.16,0,0,1,1.52,1.64A4.92,4.92,0,0,1,95.94,82a4.66,4.66,0,0,1-.59,2.33A4.35,4.35,0,0,1,93.7,86a4.57,4.57,0,0,1-2.32.6,4.44,4.44,0,0,1-3.93-2.25,4.6,4.6,0,0,1-.6-2.33V74.51a0.8,0.8,0,0,1,.24-0.61,0.84,0.84,0,0,1,1.44.61V79A4.15,4.15,0,0,1,93.87,78.06Zm-1,6.67a2.9,2.9,0,0,0,1.06-1.11A3.24,3.24,0,0,0,94.32,82a3.19,3.19,0,0,0-.39-1.57,2.92,2.92,0,0,0-1.06-1.11,2.88,2.88,0,0,0-4,1.11A3.26,3.26,0,0,0,88.47,82a3.31,3.31,0,0,0,.38,1.58A2.91,2.91,0,0,0,92.88,84.73Z"/></svg>