<?xml version="1.0" encoding="utf-8"?>
<!-- Generator: Adobe Illustrator 18.1.1, SVG Export Plug-In . SVG Version: 6.00 Build 0)  -->
<svg version="1.1" id="Layer_1" xmlns="http://www.w3.org/2000/svg" xmlns:xlink="http://www.w3.org/1999/xlink" x="0px" y="0px"
	 viewBox="0 0 100 100" enable-background="new 0 0 100 100" xml:space="preserve">
<g id="A" display="none">
	<path display="inline" fill="#394D54" d="M89.1,90.8c2.3-1.9,4.5-3.9,6.8-5.8c0.8-0.7,1.6-1.3,2.4-2.1c-0.6-0.8-1.6-1.3-2.5-1.7
		c-1.7-0.7-3.5-0.4-5.1,0.5c-2.1,1.2-3,3.2-2.9,5.6c0,0.9,0.3,1.9,0.8,2.7C88.7,90.2,88.9,90.5,89.1,90.8 M91.7,92.6
		c1.1,0.4,2.4,0.3,3.5,0.1c0.6-0.3,2.1-0.9,2.6-0.8l0.1,0l0.1,0c0.3,0.2,0.7,0.4,0.8,0.7c0.4,0.8,0.2,1.6-0.6,2L98,94.9
		c-2.9,1.7-6,1.4-8.8-0.1c-1.4-0.7-2.4-1.9-3.2-3.2l-0.2-0.3c-1.9-3.2-1.6-6.6,0.5-9.6c0.7-1.1,1.7-1.9,2.8-2.5l0.4-0.2
		c2.7-1.6,5.6-1.5,8.4-0.1c1.5,0.7,2.7,1.9,3.6,3.3l0.1,0.3c0.6,1.1-0.2,2-1,2.6c-0.9,0.7-1.9,1.6-2.8,2.4
		C95.7,89.1,93.7,90.8,91.7,92.6z M113.4,78h0.3c0.9,0,1.5,0.6,1.5,1.5c0,1.3-1.2,1.6-2.3,1.6c-1.4,0-2.7,0.8-3.6,1.7
		c-1.2,1.2-1.7,2.7-1.7,4.3v7.4c0,0.8-0.5,1.5-1.4,1.5H106c-0.9,0-1.4-0.7-1.4-1.5v-7.8c0-3,1.5-5.4,3.9-7.2
		C109.9,78.5,111.6,78,113.4,78z M75.4,83.2c1.2-1.2,2.4-2.4,3.6-3.5c0.3-0.3,1.6-1.7,2.1-1.7h0.5l0.1,0c0.7,0.1,1.2,0.6,1.2,1.3
		v0.3c0,0.5-0.6,1.1-0.9,1.5c-0.7,0.7-1.4,1.5-2.1,2.2L76.2,87c1.6,1.6,3.2,3.2,4.7,4.8c0.4,0.4,0.9,0.9,1.3,1.3
		c0.1,0.2,0.4,0.4,0.5,0.6s0.2,0.4,0.2,0.7v0.3l0,0.1c-0.2,0.7-0.6,1.3-1.4,1.3h-0.3c-0.5,0-1.1-0.6-1.4-0.9
		c-0.7-0.7-1.4-1.4-2.1-2.1l-2.3-2.3v3.7c0,0.8-0.5,1.5-1.4,1.5h-0.2c-0.9,0-1.4-0.7-1.4-1.5V73.7c0-0.8,0.5-1.5,1.4-1.5H74
		c0.9,0,1.4,0.7,1.4,1.5L75.4,83.2L75.4,83.2z M65.5,81.2c-0.5-0.2-1.3-0.3-1.8-0.3c-2.5-0.1-4.4,1.3-5.5,3.6
		c-0.4,0.8-0.5,1.6-0.5,2.4c0,2.6,1.4,4.4,3.7,5.6c0.8,0.4,2,0.5,2.9,0.5c0.8,0,2-0.5,2.7-0.8l0.1-0.1h0.6l0.1,0
		c0.7,0.1,1.2,0.6,1.2,1.3v0.3c0,1.9-3.4,2.3-4.7,2.4c-4.6,0.3-8-2.2-9.3-6.5c-0.2-0.8-0.3-1.5-0.3-2.3v-0.6c0-3.3,1.6-5.9,4.5-7.6
		c1.3-0.8,2.8-1.2,4.3-1.2H64c1.6,0,3.1,0.5,4.5,1.4l0.1,0.1l0.1,0.1c0.1,0.2,0.3,0.5,0.3,0.8v0.3c0,0.8-0.6,1.2-1.3,1.3h-0.1h-0.2
		C67,81.8,65.9,81.3,65.5,81.2z M37.7,86.9c0,2.3,1.1,4,3.1,5.2c0.9,0.6,1.9,0.8,3,0.8c2.3,0,4-1.2,5.2-3.1c0.6-0.9,0.8-1.9,0.8-3
		c0-2.1-1-3.8-2.8-5c-1-0.7-2.1-1-3.2-1c-2.5,0-4.4,1.3-5.5,3.6C37.9,85.3,37.7,86.1,37.7,86.9z M43.5,77.8h0.4
		c3.5,0,6.2,1.7,7.9,4.8c0.7,1.2,1.1,2.6,1.1,4v0.6c0,3.3-1.6,5.9-4.5,7.6C47,95.6,45.6,96,44.1,96h-0.6c-3.3,0-5.9-1.6-7.6-4.5
		c-0.8-1.3-1.2-2.8-1.2-4.3v-0.6c0-3.3,1.6-5.9,4.5-7.6C40.5,78.2,41.9,77.8,43.5,77.8z M17.8,86.9c0,2.4,1.2,4.2,3.2,5.3
		c0.8,0.5,1.8,0.7,2.7,0.7c2.3,0,4.1-1.1,5.3-3.1c0.5-0.9,0.8-1.9,0.8-3c0-2.1-1-3.7-2.7-4.9c-1-0.7-2.1-1.1-3.4-1.1
		c-2.5,0-4.4,1.3-5.5,3.6C18,85.3,17.8,86.1,17.8,86.9z M29.9,80.1v-6.4c0-0.8,0.5-1.5,1.4-1.5h0.3c0.9,0,1.4,0.7,1.4,1.5v13.5
		c0,3.3-1.6,5.9-4.5,7.6c-1.3,0.8-2.8,1.2-4.3,1.2h-0.6c-3.3,0-5.9-1.6-7.6-4.5c-0.8-1.3-1.2-2.8-1.2-4.3v-0.6
		c0-3.3,1.6-5.9,4.5-7.6c1.3-0.8,2.8-1.2,4.3-1.2h0.6C26.4,77.8,28.3,78.7,29.9,80.1z"/>
	<path display="inline" fill="#394D54" d="M72.6,29.7h9v9.2h4.5c2.1,0,4.3-0.4,6.3-1.1c1-0.3,2.1-0.8,3-1.4
		c-1.3-1.7-1.9-3.7-2.1-5.8c-0.3-2.8,0.3-6.5,2.2-8.7l0.9-1.1l1.1,0.9c2.8,2.3,5.2,5.5,5.6,9.1c3.4-1,7.4-0.8,10.4,1l1.2,0.7
		l-0.7,1.3c-2.5,5-7.9,6.5-13.1,6.2c-7.8,19.4-24.7,28.6-45.3,28.6c-10.6,0-20.4-4-25.9-13.4L30,55.1l-0.8-1.6
		c-1.9-4.1-2.5-8.7-2.1-13.2l0.1-1.4h7.7v-9.2h9v-9h18v-9h10.8V29.7z"/>
	<path display="inline" fill="#00AADA" d="M55.9,67.2c-11.3,0-20-4.8-24.3-12.2L31,53.8c-2-3.9-2.8-8.4-2.4-13.4h57.6
		c4.7,0,9.3-1.8,11.5-3.7c-3.9-3.2-3.5-10.8-1-13.7c2.2,1.7,5.7,5.4,5.1,10.1c2.7-1.4,7.5-2.1,11.2,0.1c-2.3,4.5-7.4,5.9-12.7,5.3
		C92.8,58.3,75.9,67.2,55.9,67.2"/>
	<path display="inline" fill="#24B8EB" d="M32,40.4h54.2c4.7,0,9.3-1.8,11.5-3.7c-3.9-3.2-3.5-10.8-1-13.7c2.2,1.7,5.7,5.4,5.1,10.1
		c0.1-0.1,0.2-0.1,0.4-0.2c-8.2,10.6-20,19.8-32.6,24.7C47.8,66,31.4,58.2,32,40.4"/>
	<path display="inline" fill="#008BB8" d="M55.9,67.2c-11.3,0-20-4.8-24.3-12.2L31,53.8c-1.2-2.3-1.9-4.7-2.3-7.4h67.8
		C87.8,60.7,73,67.2,55.9,67.2"/>
	<path display="inline" fill="#039BC6" d="M32.5,46.4h56.3c-5.9,4.7-12.4,8.6-19.3,11.2C50.4,64.9,35.5,59.9,32.5,46.4"/>
	<path display="inline" fill="#BFDBE0" d="M55.9,67.2c-11.1,0-17.1-3.8-21.9-8.5l8.9-0.3l5.5-1.2c1.6,3.8,4.5,7.4,10,9.9
		C57.6,67.2,56.8,67.2,55.9,67.2"/>
	<path display="inline" fill="#D4EDF1" d="M42.9,59L42.9,59l5.6-1.9c0.5,1.3,1.2,2.5,2.1,3.7C47.7,60.6,45.1,60,42.9,59"/>
	<path display="inline" fill="#00ACD3" d="M42.9,31.9h0.6v6.5h-0.6V31.9z M41.7,31.9h0.6v6.5h-0.6V31.9z M40.6,31.9h0.6v6.5h-0.6
		V31.9z M39.4,31.9H40v6.5h-0.6V31.9z M38.2,31.9h0.6v6.5h-0.6V31.9z M37,31.9h0.6v6.5H37V31.9z M36.4,31.2h7.8V39h-7.8V31.2z"/>
	<path display="inline" fill="#00ACD3" d="M51.9,22.9h0.6v6.5h-0.6V22.9z M50.7,22.9h0.6v6.5h-0.6V22.9z M49.5,22.9h0.6v6.5h-0.6
		V22.9z M48.4,22.9H49v6.5h-0.6V22.9z M47.2,22.9h0.6v6.5h-0.6V22.9z M46,22.9h0.6v6.5H46V22.9z M45.4,22.2h7.8V30h-7.8V22.2z"/>
	<path display="inline" fill="#20C2EF" d="M51.9,31.9h0.6v6.5h-0.6V31.9z M50.7,31.9h0.6v6.5h-0.6V31.9z M49.5,31.9h0.6v6.5h-0.6
		V31.9z M48.4,31.9H49v6.5h-0.6V31.9z M47.2,31.9h0.6v6.5h-0.6V31.9z M46,31.9h0.6v6.5H46V31.9z M45.4,31.2h7.8V39h-7.8V31.2z"/>
	<path display="inline" fill="#00ACD3" d="M60.9,31.9h0.6v6.5h-0.6V31.9z M59.7,31.9h0.6v6.5h-0.6V31.9z M58.5,31.9h0.6v6.5h-0.6
		V31.9z M57.4,31.9H58v6.5h-0.6V31.9z M56.2,31.9h0.6v6.5h-0.6V31.9z M55,31.9h0.6v6.5H55V31.9z M54.4,31.2h7.8V39h-7.8V31.2z"/>
	<path display="inline" fill="#20C2EF" d="M60.9,22.9h0.6v6.5h-0.6V22.9z M59.7,22.9h0.6v6.5h-0.6V22.9z M58.5,22.9h0.6v6.5h-0.6
		V22.9z M57.4,22.9H58v6.5h-0.6V22.9z M56.2,22.9h0.6v6.5h-0.6V22.9z M55,22.9h0.6v6.5H55V22.9z M54.4,22.2h7.8V30h-7.8V22.2z"/>
	<path display="inline" fill="#20C2EF" d="M69.9,31.9h0.6v6.5h-0.6V31.9z M68.7,31.9h0.6v6.5h-0.6V31.9z M67.5,31.9h0.6v6.5h-0.6
		V31.9z M66.4,31.9H67v6.5h-0.6V31.9z M65.2,31.9h0.6v6.5h-0.6V31.9z M64,31.9h0.6v6.5H64V31.9z M63.4,31.2h7.8V39h-7.8V31.2z"/>
	<path display="inline" fill="#00ACD3" d="M69.9,22.9h0.6v6.5h-0.6V22.9z M68.7,22.9h0.6v6.5h-0.6V22.9z M67.5,22.9h0.6v6.5h-0.6
		V22.9z M66.4,22.9H67v6.5h-0.6V22.9z M65.2,22.9h0.6v6.5h-0.6V22.9z M64,22.9h0.6v6.5H64V22.9z M63.4,22.2h7.8V30h-7.8V22.2z"/>
	<path display="inline" fill="#20C2EF" d="M69.9,13.9h0.6v6.5h-0.6V13.9z M68.7,13.9h0.6v6.5h-0.6V13.9z M67.5,13.9h0.6v6.5h-0.6
		V13.9z M66.4,13.9H67v6.5h-0.6V13.9z M65.2,13.9h0.6v6.5h-0.6V13.9z M64,13.9h0.6v6.5H64V13.9z M63.4,13.2h7.8V21h-7.8V13.2z"/>
	<path display="inline" fill="#00ACD3" d="M78.9,31.9h0.6v6.5h-0.6V31.9z M77.7,31.9h0.6v6.5h-0.6V31.9z M76.5,31.9h0.6v6.5h-0.6
		V31.9z M75.3,31.9H76v6.5h-0.6V31.9z M74.2,31.9h0.6v6.5h-0.6V31.9z M73,31.9h0.6v6.5H73V31.9z M72.4,31.2h7.8V39h-7.8V31.2z"/>
	<path display="inline" fill="#D4EDF1" d="M52.7,51.6c1.2,0,2.1,1,2.1,2.1s-1,2.1-2.1,2.1c-1.2,0-2.1-1-2.1-2.1
		C50.5,52.6,51.5,51.6,52.7,51.6"/>
	<path display="inline" fill="#394D54" d="M52.7,52.2c0.2,0,0.4,0,0.5,0.1c-0.2,0.1-0.3,0.3-0.3,0.5c0,0.3,0.3,0.6,0.6,0.6
		c0.2,0,0.4-0.1,0.5-0.3c0.1,0.2,0.1,0.4,0.1,0.6c0,0.8-0.7,1.5-1.5,1.5c-0.8,0-1.5-0.7-1.5-1.5C51.1,52.9,51.8,52.2,52.7,52.2"/>
	<path display="inline" fill="#394D54" d="M14.7,47.2h47.1h5.8h47.1c-2.2-0.5-6.9-1.3-6.1-4.1c-4,4.6-13.5,3.2-15.9,0.9
		c-2.7,3.9-18.3,2.4-19.4-0.6c-3.4,3.9-13.8,3.9-17.2,0c-1.1,3-16.7,4.5-19.4,0.6c-2.4,2.3-12,3.6-15.9-0.9
		C21.6,45.9,16.8,46.6,14.7,47.2"/>
	
		<path display="inline" fill="none" stroke="#394D54" stroke-width="6.5739" stroke-linecap="round" stroke-linejoin="round" stroke-miterlimit="2.6131" d="
		M32.7,58c5.6,0.4,13.1,0.4,17-1.6"/>
</g>
<path id="outline" fill="#394D54" d="M58,26.1h9v9.2h4.5c2.1,0,4.3-0.4,6.3-1.1c1-0.3,2.1-0.8,3-1.4c-1.3-1.7-1.9-3.7-2.1-5.8
	c-0.3-2.8,0.3-6.5,2.2-8.7l0.9-1.1l1.1,0.9c2.8,2.3,5.2,5.5,5.6,9.1c3.4-1,7.4-0.8,10.4,1l1.2,0.7l-0.7,1.3c-2.5,5-7.9,6.5-13.1,6.2
	c-7.8,19.4-24.7,28.6-45.3,28.6c-10.6,0-20.4-4-25.9-13.4l-0.1-0.1l-0.8-1.6c-1.9-4.1-2.5-8.7-2.1-13.2l0.1-1.4h7.7v-9.2h9v-9h18v-9
	H58V26.1z"/>
<path fill="#00AADA" d="M87.1,29.5c0.6-4.7-2.9-8.4-5.1-10.1c-2.5,2.9-2.9,10.5,1,13.7c-2.2,2-6.8,3.7-11.5,3.7H13.9
	c-0.5,4.9,0.4,9.5,2.4,13.4l0.7,1.2c0.4,0.7,0.9,1.4,1.4,2l0,0c2.4,0.1,4.5,0.2,6.5,0.2l0,0c3.9-0.1,7.1-0.5,9.6-1.4
	c0.4-0.1,0.8,0.1,0.9,0.4c0.1,0.4-0.1,0.8-0.4,0.9c-0.3,0.1-0.7,0.2-1,0.3l0,0c-1.9,0.5-4,0.9-6.6,1.1c0.1,0-0.2,0-0.2,0
	c-0.1,0-0.2,0-0.3,0c-1,0.1-2.2,0.1-3.3,0.1c-1.3,0-2.5,0-3.9-0.1l0,0c4.8,5.4,12.3,8.6,21.7,8.6c19.9,0,36.8-8.8,44.3-28.6
	c5.3,0.5,10.4-0.8,12.7-5.3C94.6,27.5,89.9,28.1,87.1,29.5z"/>
<path fill="#24B8EB" d="M87.1,29.5c0.6-4.7-2.9-8.4-5.1-10.1c-2.5,2.9-2.9,10.5,1,13.7c-2.2,2-6.8,3.7-11.5,3.7H17.3
	c-0.2,7.6,2.6,13.3,7.5,16.8l0,0c3.9-0.1,7.1-0.5,9.6-1.4c0.4-0.1,0.8,0.1,0.9,0.4c0.1,0.4-0.1,0.8-0.4,0.9c-0.3,0.1-0.7,0.2-1,0.3
	l0,0c-1.9,0.5-4.1,1-6.8,1.1L27,54.9c6.8,3.5,16.6,3.5,27.9-0.9c12.6-4.8,24.4-14.1,32.6-24.7C87.3,29.4,87.2,29.5,87.1,29.5z"/>
<g display="none">
	<path display="inline" fill="#394D54" d="M23.5,55c1.2,0,2.3,0,3.3-0.1c0.1,0,0.2,0,0.3,0l0,0c2.7-0.2,4.9-0.5,6.8-1.1l0,0
		c0.4-0.1,0.7-0.2,1-0.3c0.4-0.1,0.5-0.5,0.4-0.9c-0.1-0.4-0.5-0.5-0.9-0.4c-2.4,0.8-5.6,1.3-9.6,1.4l0,0c-2,0-4.2,0-6.5-0.2l0,0
		c-0.1,0-0.2,0-0.4,0c-0.4,0-0.7,0.3-0.7,0.7c0,0.4,0.3,0.7,0.7,0.7c0.5,0,1,0.1,1.4,0.1c0.1,0,0.1,0,0.2,0l0,0
		C20.9,54.9,22.2,55,23.5,55z"/>
</g>
<g id="Containers">
	<path fill="#00ACD3" d="M21.7,27.6h7.8v7.8h-7.8V27.6z"/>
	<path fill="#00ACD3" d="M30.7,18.6h7.8v7.8h-7.8V18.6z"/>
	<path fill="#20C2EF" d="M30.7,27.6h7.8v7.8h-7.8V27.6z"/>
	<path fill="#00ACD3" d="M39.7,27.6h7.8v7.8h-7.8V27.6z"/>
	<path fill="#20C2EF" d="M39.7,18.6h7.8v7.8h-7.8V18.6z"/>
	<path fill="#20C2EF" d="M48.7,27.6h7.8v7.8h-7.8L48.7,27.6z"/>
	<path fill="#00ACD3" d="M48.7,18.6h7.8v7.8h-7.8L48.7,18.6z"/>
	<path fill="#20C2EF" d="M48.7,9.6h7.8v7.8h-7.8L48.7,9.6z"/>
	<path fill="#00ACD3" d="M57.7,27.6h7.8v7.8h-7.8V27.6z"/>
</g>
<path fill="#D4EDF1" d="M38,48c1.2,0,2.1,1,2.1,2.1c0,1.2-1,2.1-2.1,2.1s-2.1-1-2.1-2.1C35.9,49,36.8,48,38,48"/>
<path fill="#394D54" d="M38,48.6c0.2,0,0.4,0,0.5,0.1c-0.2,0.1-0.3,0.3-0.3,0.5c0,0.3,0.3,0.6,0.6,0.6c0.2,0,0.4-0.1,0.5-0.3
	c0.1,0.2,0.1,0.4,0.1,0.6c0,0.8-0.7,1.5-1.5,1.5s-1.5-0.7-1.5-1.5C36.5,49.3,37.2,48.6,38,48.6"/>
<path fill="#BFDBE0" d="M43.7,63.5c-5.3-2.5-8.3-6-9.9-9.7c-2,0.6-4.4,0.9-7.1,1.1c-1,0.1-2.1,0.1-3.3,0.1c-1.3,0-2.7,0-4.2-0.1
	c4.9,4.9,10.9,8.6,22,8.7C42.1,63.6,42.9,63.6,43.7,63.5z"/>
<g>
	<rect x="0.1" y="76" fill="none" width="99.9" height="24"/>
	<path fill="#394D54" d="M7.2,76.8h4.3c0.8,0,1.6,0.1,2.4,0.3c0.8,0.2,1.5,0.5,2.1,1c0.6,0.5,1.1,1.1,1.5,1.9
		c0.4,0.8,0.6,1.7,0.6,2.8c0,1.1-0.2,2-0.6,2.7c-0.4,0.8-0.9,1.4-1.5,1.9c-0.6,0.5-1.3,0.8-2.1,1.1c-0.8,0.2-1.6,0.3-2.4,0.3H7.2
		V76.8z M11.1,87c0.6,0,1.1-0.1,1.7-0.2s1.1-0.4,1.5-0.7s0.8-0.7,1.1-1.3c0.3-0.5,0.4-1.2,0.4-2c0-0.9-0.1-1.6-0.4-2.1
		s-0.6-1-1.1-1.3c-0.4-0.3-0.9-0.5-1.5-0.6s-1.1-0.2-1.7-0.2H9.3V87H11.1z"/>
	<path fill="#394D54" d="M19.4,84.2c0-0.7,0.1-1.4,0.4-2s0.6-1.1,1-1.5c0.4-0.4,1-0.7,1.6-1c0.6-0.2,1.3-0.3,2-0.3
		c0.7,0,1.4,0.1,2,0.3c0.6,0.2,1.1,0.5,1.6,1s0.8,0.9,1,1.5c0.2,0.6,0.4,1.3,0.4,2c0,0.7-0.1,1.4-0.4,2c-0.2,0.6-0.6,1.1-1,1.5
		c-0.4,0.4-1,0.8-1.6,1c-0.6,0.2-1.3,0.4-2,0.4c-0.7,0-1.4-0.1-2-0.4c-0.6-0.2-1.1-0.6-1.6-1c-0.4-0.4-0.8-0.9-1-1.5
		S19.4,84.9,19.4,84.2z M21.2,84.2c0,0.5,0.1,0.9,0.2,1.4c0.2,0.4,0.4,0.8,0.6,1.1c0.3,0.3,0.6,0.5,1,0.7s0.8,0.3,1.3,0.3
		c0.5,0,0.9-0.1,1.3-0.3c0.4-0.2,0.7-0.4,1-0.7c0.3-0.3,0.5-0.7,0.6-1.1c0.2-0.4,0.2-0.9,0.2-1.4c0-0.5-0.1-0.9-0.2-1.3
		c-0.2-0.4-0.4-0.8-0.6-1.1c-0.3-0.3-0.6-0.5-1-0.7c-0.4-0.2-0.8-0.3-1.3-0.3c-0.5,0-0.9,0.1-1.3,0.3c-0.4,0.2-0.7,0.4-1,0.7
		c-0.3,0.3-0.5,0.7-0.6,1.1C21.3,83.3,21.2,83.7,21.2,84.2z"/>
	<path fill="#394D54" d="M37.5,81.8c-0.2-0.3-0.6-0.6-0.9-0.7s-0.8-0.2-1.1-0.2c-0.5,0-0.9,0.1-1.3,0.3c-0.4,0.2-0.7,0.4-1,0.7
		c-0.3,0.3-0.5,0.7-0.6,1.1c-0.2,0.4-0.2,0.8-0.2,1.3c0,0.5,0.1,1,0.2,1.4c0.1,0.4,0.4,0.8,0.6,1.1s0.6,0.5,1,0.7
		c0.4,0.2,0.8,0.2,1.3,0.2c0.5,0,0.9-0.1,1.3-0.3s0.7-0.5,0.9-0.8l1.3,0.9c-0.4,0.5-0.9,0.9-1.5,1.2c-0.6,0.3-1.3,0.4-2.1,0.4
		c-0.7,0-1.4-0.1-2-0.4s-1.1-0.6-1.6-1c-0.4-0.4-0.8-0.9-1-1.5s-0.4-1.2-0.4-2c0-0.7,0.1-1.4,0.4-2c0.3-0.6,0.6-1.1,1.1-1.5
		s1-0.7,1.6-1c0.6-0.2,1.3-0.3,2-0.3c0.3,0,0.6,0,0.9,0.1c0.3,0.1,0.6,0.1,0.9,0.3c0.3,0.1,0.6,0.3,0.8,0.4c0.3,0.2,0.5,0.4,0.7,0.6
		L37.5,81.8z"/>
	<path fill="#394D54" d="M39.9,79.6h1.6v4h0l3.8-4h2.2l-4.3,4.3l4.6,5h-2.3l-4-4.6h0v4.6h-1.6V79.6z"/>
	<path fill="#394D54" d="M48.9,79.6H55v1.4h-4.5v2.3h4.2v1.4h-4.2v2.6h4.7v1.5h-6.3V79.6z"/>
	<path fill="#394D54" d="M56.8,79.6H60c0.4,0,0.9,0,1.3,0.1s0.8,0.2,1.1,0.4s0.6,0.5,0.8,0.8c0.2,0.3,0.3,0.8,0.3,1.2
		c0,0.7-0.2,1.2-0.6,1.6c-0.4,0.4-0.9,0.7-1.5,0.9l2.5,4.1h-2l-2.1-3.9h-1.2v3.9h-1.6V79.6z M59.8,83.6c0.2,0,0.5,0,0.7-0.1
		c0.2,0,0.4-0.1,0.6-0.2c0.2-0.1,0.3-0.2,0.5-0.4c0.1-0.2,0.2-0.4,0.2-0.7c0-0.3-0.1-0.5-0.2-0.6s-0.3-0.3-0.4-0.4
		c-0.2-0.1-0.4-0.2-0.6-0.2C60.4,81,60.2,81,60,81h-1.5v2.6H59.8z"/>
	<path fill="#394D54" d="M65.3,76.8h2.1v4.9h5.6v-4.9h2.1v12h-2.1v-5.3h-5.6v5.3h-2.1V76.8z"/>
	<path fill="#394D54" d="M84.9,85.5c0,0.6-0.1,1.1-0.3,1.5c-0.2,0.4-0.5,0.8-0.8,1.1c-0.3,0.3-0.7,0.6-1.2,0.7
		c-0.5,0.2-0.9,0.3-1.5,0.3c-0.5,0-1-0.1-1.5-0.3s-0.8-0.4-1.2-0.7c-0.3-0.3-0.6-0.7-0.8-1.1c-0.2-0.4-0.3-0.9-0.3-1.5v-5.8h1.6v5.8
		c0,0.3,0,0.5,0.1,0.8s0.2,0.5,0.3,0.7s0.4,0.4,0.6,0.5c0.3,0.1,0.6,0.2,1,0.2c0.4,0,0.7-0.1,1-0.2c0.3-0.1,0.5-0.3,0.6-0.5
		c0.2-0.2,0.3-0.4,0.3-0.7s0.1-0.5,0.1-0.8v-5.8h1.6V85.5z"/>
	<path fill="#394D54" d="M86.9,79.6h3.6c0.3,0,0.7,0,1,0.1c0.3,0.1,0.6,0.2,0.9,0.4c0.3,0.2,0.5,0.4,0.6,0.7
		c0.2,0.3,0.2,0.7,0.2,1.1c0,0.5-0.1,0.9-0.4,1.3c-0.3,0.3-0.7,0.6-1.2,0.7v0c0.6,0.1,1.1,0.3,1.4,0.7s0.6,0.9,0.6,1.5
		c0,0.5-0.1,0.9-0.3,1.3c-0.2,0.3-0.5,0.6-0.8,0.8s-0.7,0.4-1.1,0.4s-0.8,0.1-1.3,0.1h-3.3V79.6z M88.5,83.4H90c0.5,0,1-0.1,1.2-0.3
		c0.3-0.2,0.4-0.5,0.4-0.9c0-0.4-0.1-0.7-0.4-0.9c-0.3-0.2-0.8-0.3-1.4-0.3h-1.3V83.4z M88.5,87.5H90c0.2,0,0.4,0,0.7,0
		c0.2,0,0.5-0.1,0.7-0.2c0.2-0.1,0.4-0.2,0.5-0.4c0.1-0.2,0.2-0.4,0.2-0.7c0-0.5-0.2-0.8-0.5-1c-0.3-0.2-0.8-0.3-1.5-0.3h-1.5V87.5z
		"/>
</g>
</svg>
