<?xml version="1.0" encoding="utf-8"?>
<!-- Generator: Adobe Illustrator 22.1.0, SVG Export Plug-In . SVG Version: 6.00 Build 0)  -->
<svg version="1.1" id="Layer_1" xmlns="http://www.w3.org/2000/svg" xmlns:xlink="http://www.w3.org/1999/xlink" x="0px" y="0px"
	 viewBox="0 0 100 100" style="enable-background:new 0 0 100 100;" xml:space="preserve">
<style type="text/css">
	.st0{fill:#FFFFFF;}
	.st1{fill:#F4BD19;}
	.st2{fill:#3CBEB1;}
	.st3{fill:#E9478C;}
	.st4{fill:#2C458F;}
	.st5{fill:#95C63D;}
	.st6{fill:#176655;}
</style>
<g>
	<path class="st0" d="M75.1025848,51.1884422c0-4.2212257-2.6230392-7.8687325-6.51651-9.3031387
		c0.1649017-0.8922043,0.2471695-1.7977142,0.2457657-2.7050285C68.8318405,31.3523388,62.4795036,25,54.6515694,25
		c-4.5491791,0-8.8114052,2.1721058-11.475441,5.901598c-1.3114204-1.0246582-2.9098053-1.5573883-4.5901756-1.5573883
		c-4.1394348,0-7.5409737,3.3605442-7.5409737,7.5409756c0,0.9016762,0.1639748,1.8033562,0.4507389,2.6230431
		c-3.934269,1.3524132-6.5983047,5.1229019-6.5983047,9.3031349c0,4.2214279,2.6230431,7.9099236,6.5573101,9.3443298
		c-0.1637802,0.8606834-0.2457695,1.7623596-0.2457695,2.704834C31.2089539,68.6474686,37.5612946,75,45.3482323,75
		c4.5901794,0,8.8116035-2.2131042,11.475441-5.9015961c1.3114243,1.0244598,2.9508018,1.598381,4.6311722,1.598381
		c4.1394386,0,7.5409737-3.3607407,7.5409737-7.5409737c0-0.90168-0.1639786-1.8033562-0.450737-2.6230431
		c3.8522797-1.3934135,6.5573044-5.1638985,6.5573044-9.3443298L75.1025848,51.1884422z"/>
	<path class="st1" d="M44.5285454,46.4752808l11.1886749,5.1231041l11.3114662-9.9180527
		c0.1649017-0.823101,0.2472382-1.6606064,0.2457657-2.500061c0-6.9670563-5.655632-12.6228848-12.6228828-12.6228848
		c-4.1804314,0-8.0737038,2.0491219-10.4097862,5.4916553l-1.8853416,9.7542725l2.1721039,4.6721649V46.4752808z"/>
	<path class="st2" d="M32.9301224,58.3196716c-0.1637802,0.8196869-0.2457695,1.6803703-0.2457695,2.5410538
		c0,6.9670563,5.6966286,12.6638794,12.6638832,12.6638794c4.2214241,0,8.1148949-2.0901184,10.4917755-5.5328445
		l1.8443489-9.7540779l-2.500061-4.7541542l-11.2294731-5.1229057l-11.0247002,9.9590492H32.9301224z"/>
	<path class="st3" d="M32.8483315,38.9343071l7.6639595,1.8033524l1.7211685-8.7296104
		c-1.0654602-0.8196888-2.3360825-1.229435-3.6884995-1.229435c-3.3197479,0-6.0655746,2.704834-6.0655746,6.0655746
		c0,0.6967087,0.122982,1.4344063,0.3687515,2.0901184H32.8483315z"/>
	<path class="st4" d="M32.1924248,40.7784576c-3.4425354,1.1066475-5.8196106,4.4263954-5.8196106,8.0329056
		c0,3.5247192,2.1721039,6.6804924,5.4508591,7.9099236l10.7787323-9.7542686l-1.9673309-4.221035l-8.4426498-1.9673271V40.7784576z
		"/>
	<path class="st5" d="M57.8073387,67.9507599c1.0654602,0.8198853,2.3360825,1.2706299,3.6475067,1.2706299
		c3.3197441,0,6.0655708-2.704834,6.0655708-6.0655785c0-0.7376976-0.1229782-1.4346008-0.3687515-2.090313l-7.6639557-1.803154
		l-1.6803703,8.6884232V67.9507599z"/>
	<path class="st6" d="M59.364727,57.2540169l8.4426537,1.9673309c3.4425278-1.1474495,5.8196106-4.4261971,5.8196106-8.0329056
		c0-3.5247192-2.1721115-6.6392975-5.4508591-7.909729l-11.0654984,9.6720886l2.2540932,4.3034134V57.2540169z"/>
</g>
</svg>
