<?xml version="1.0" encoding="utf-8"?>
<!-- Generator: Adobe Illustrator 22.0.1, SVG Export Plug-In . SVG Version: 6.00 Build 0)  -->
<svg version="1.1" id="Layer_1" xmlns="http://www.w3.org/2000/svg" xmlns:xlink="http://www.w3.org/1999/xlink" x="0px" y="0px"
	 viewBox="0 0 100 100" style="enable-background:new 0 0 100 100;" xml:space="preserve">
<style type="text/css">
	.st0{fill:#0D5E8C;}
	.st1{fill:#0071BC;}
</style>
<g>
	<path class="st0" d="M73.4,26.9l-1.4-8.7c-0.5-2.8-1.6-5.1-2.4-5.1c-0.9,0-1.6,2.3-1.6,5.1v2.3c0,2.8-2.3,4.8-5.1,4.8h-2.3
		c-0.2,0-0.3,0.3-0.7,0.3v6.2c0.5,0,0.6,0.1,0.7,0.1h8.5C71.9,32,73.8,29.7,73.4,26.9z"/>
</g>
<path class="st0" d="M23.5,26.9l1.4-8.7c0.5-2.8,1.6-5.1,2.5-5.1s1.7,2.3,1.7,5.1v2.3c0,2.8,2.1,4.8,4.9,4.8h2.3
	c0.2,0,0.4,0.3,0.6,0.3v6.2c-0.2,0-0.5,0.1-0.6,0.1h-8.5C24.9,32,23,29.7,23.5,26.9z"/>
<path class="st1" d="M60.5,53.9c0,1.4-1.1,2.5-2.5,2.5H38.9c-1.4,0-2.5-1.1-2.5-2.5v-32c0-1.4,1.1-2.5,2.5-2.5H58
	c1.4,0,2.5,1.1,2.5,2.5V53.9z"/>
<g>
	<path class="st0" d="M73.4,26.9l-1.4-8.7c-0.5-2.8-1.6-5.1-2.4-5.1c-0.9,0-1.6,2.3-1.6,5.1v2.3c0,2.8-2.3,4.8-5.1,4.8h-2.3
		c-0.2,0-0.3,0.3-0.7,0.3v6.2c0.5,0,0.6,0.1,0.7,0.1h8.5C71.9,32,73.8,29.7,73.4,26.9z"/>
</g>
<path class="st0" d="M23.5,26.9l1.4-8.7c0.5-2.8,1.6-5.1,2.5-5.1s1.7,2.3,1.7,5.1v2.3c0,2.8,2.1,4.8,4.9,4.8h2.3
	c0.2,0,0.4,0.3,0.6,0.3v6.2c-0.2,0-0.5,0.1-0.6,0.1h-8.5C24.9,32,23,29.7,23.5,26.9z"/>
<path class="st1" d="M60.5,53.9c0,1.4-1.1,2.5-2.5,2.5H38.9c-1.4,0-2.5-1.1-2.5-2.5v-32c0-1.4,1.1-2.5,2.5-2.5H58
	c1.4,0,2.5,1.1,2.5,2.5V53.9z"/>
<g>
	<g>
		<path d="M16.5,64.7h4.9v0.7h-4.1v2.7h3v0.7h-3v2.7h4.1v0.7h-4.9V64.7z"/>
		<path d="M22.7,67.1h0.8v0.8c0.5-0.7,1.1-1,1.9-1c0.4,0,0.8,0.1,1,0.2c0.2,0.2,0.4,0.4,0.5,0.7c0.2-0.3,0.5-0.5,0.9-0.7
			c0.3-0.1,0.7-0.2,1.1-0.2c0.6,0,1.1,0.2,1.4,0.5c0.3,0.3,0.4,0.8,0.4,1.4v3.5h-0.8v-3.4c0-0.5-0.1-0.8-0.3-1
			c-0.2-0.2-0.5-0.3-0.9-0.3c-0.6,0-1.1,0.3-1.5,0.8c0,0.1,0,0.3,0,0.5v3.4h-0.8v-3.4c0-0.5-0.1-0.8-0.2-1c-0.2-0.2-0.5-0.3-0.9-0.3
			c-0.6,0-1.2,0.3-1.6,1v3.7h-0.8V67.1z"/>
		<path d="M33.9,72.2c-0.4-0.2-0.7-0.4-1-0.8v0.9h-0.8v-8H33V68c0.2-0.3,0.5-0.6,0.9-0.8c0.4-0.2,0.8-0.3,1.3-0.3
			c0.5,0,1,0.1,1.4,0.3c0.4,0.2,0.7,0.6,1,1c0.2,0.4,0.4,0.9,0.4,1.5c0,0.6-0.1,1-0.4,1.5c-0.2,0.4-0.6,0.7-1,1
			c-0.4,0.2-0.9,0.3-1.4,0.3C34.7,72.5,34.3,72.4,33.9,72.2z M36.1,71.5c0.3-0.2,0.6-0.4,0.7-0.7c0.2-0.3,0.3-0.7,0.3-1.1
			c0-0.4-0.1-0.8-0.3-1.1c-0.2-0.3-0.4-0.6-0.7-0.7c-0.3-0.2-0.7-0.3-1.1-0.3c-0.5,0-0.9,0.1-1.3,0.4c-0.4,0.3-0.6,0.6-0.8,1.1v1.3
			c0.1,0.5,0.4,0.8,0.8,1.1c0.4,0.3,0.8,0.4,1.3,0.4C35.4,71.8,35.8,71.7,36.1,71.5z"/>
		<path d="M39.8,71.7c-0.5-0.5-0.8-1.2-0.8-2c0-0.9,0.2-1.5,0.7-2c0.5-0.5,1.2-0.8,2-0.8c0.6,0,1.1,0.1,1.5,0.3
			c0.4,0.2,0.7,0.5,0.9,0.9c0.2,0.4,0.3,0.9,0.3,1.4V70h-4.7c0,0.6,0.2,1,0.7,1.3c0.4,0.3,1,0.4,1.7,0.4c0.3,0,0.7,0,1-0.1
			c0.3-0.1,0.6-0.1,0.9-0.3v0.7c-0.2,0.1-0.5,0.2-0.9,0.2c-0.4,0.1-0.7,0.1-1.1,0.1C41.1,72.5,40.4,72.2,39.8,71.7z M43.8,69.4
			c0-0.6-0.2-1-0.5-1.3c-0.3-0.3-0.8-0.5-1.5-0.5c-0.6,0-1.1,0.2-1.4,0.5c-0.3,0.3-0.5,0.8-0.5,1.3H43.8z"/>
		<path d="M47,72.1c-0.4-0.2-0.7-0.5-1-1c-0.2-0.4-0.4-0.9-0.4-1.5c0-0.5,0.1-1,0.4-1.5c0.2-0.4,0.6-0.8,1-1
			c0.4-0.2,0.9-0.3,1.4-0.3c0.5,0,0.9,0.1,1.3,0.3c0.4,0.2,0.7,0.4,0.9,0.8v-3.7h0.8v8h-0.8v-0.9c-0.3,0.4-0.6,0.6-1,0.8
			c-0.4,0.2-0.8,0.3-1.3,0.3C47.9,72.5,47.4,72.4,47,72.1z M49.9,71.4c0.4-0.3,0.6-0.6,0.8-1.1v-1.3c-0.1-0.5-0.4-0.8-0.8-1.1
			c-0.4-0.3-0.8-0.4-1.3-0.4c-0.4,0-0.7,0.1-1.1,0.3c-0.3,0.2-0.6,0.4-0.7,0.7c-0.2,0.3-0.3,0.7-0.3,1.1c0,0.4,0.1,0.8,0.3,1.1
			c0.2,0.3,0.4,0.6,0.7,0.7c0.3,0.2,0.7,0.3,1.1,0.3C49.1,71.8,49.5,71.7,49.9,71.4z"/>
		<path d="M54,72.1c-0.4-0.2-0.7-0.5-1-1c-0.2-0.4-0.4-0.9-0.4-1.5c0-0.5,0.1-1,0.4-1.5c0.2-0.4,0.6-0.8,1-1
			c0.4-0.2,0.9-0.3,1.4-0.3c0.5,0,0.9,0.1,1.3,0.3c0.4,0.2,0.7,0.4,0.9,0.8v-3.7h0.8v8h-0.8v-0.9c-0.3,0.4-0.6,0.6-1,0.8
			c-0.4,0.2-0.8,0.3-1.3,0.3C54.9,72.5,54.4,72.4,54,72.1z M56.9,71.4c0.4-0.3,0.6-0.6,0.8-1.1v-1.3c-0.1-0.5-0.4-0.8-0.8-1.1
			c-0.4-0.3-0.8-0.4-1.3-0.4c-0.4,0-0.7,0.1-1.1,0.3c-0.3,0.2-0.6,0.4-0.7,0.7c-0.2,0.3-0.3,0.7-0.3,1.1c0,0.4,0.1,0.8,0.3,1.1
			c0.2,0.3,0.4,0.6,0.7,0.7c0.3,0.2,0.7,0.3,1.1,0.3C56,71.8,56.5,71.7,56.9,71.4z"/>
		<path d="M60.6,71.7c-0.5-0.5-0.8-1.2-0.8-2c0-0.9,0.2-1.5,0.7-2c0.5-0.5,1.2-0.8,2-0.8c0.6,0,1.1,0.1,1.5,0.3
			c0.4,0.2,0.7,0.5,0.9,0.9c0.2,0.4,0.3,0.9,0.3,1.4V70h-4.7c0,0.6,0.2,1,0.7,1.3c0.4,0.3,1,0.4,1.7,0.4c0.3,0,0.7,0,1-0.1
			c0.3-0.1,0.6-0.1,0.9-0.3v0.7c-0.2,0.1-0.5,0.2-0.9,0.2c-0.4,0.1-0.7,0.1-1.1,0.1C61.9,72.5,61.1,72.2,60.6,71.7z M64.5,69.4
			c0-0.6-0.2-1-0.5-1.3c-0.3-0.3-0.8-0.5-1.5-0.5c-0.6,0-1.1,0.2-1.4,0.5c-0.3,0.3-0.5,0.8-0.5,1.3H64.5z"/>
		<path d="M67.7,72.1c-0.4-0.2-0.7-0.5-1-1c-0.2-0.4-0.4-0.9-0.4-1.5c0-0.5,0.1-1,0.4-1.5c0.2-0.4,0.6-0.8,1-1
			c0.4-0.2,0.9-0.3,1.4-0.3c0.5,0,0.9,0.1,1.3,0.3c0.4,0.2,0.7,0.4,0.9,0.8v-3.7h0.8v8h-0.8v-0.9c-0.3,0.4-0.6,0.6-1,0.8
			c-0.4,0.2-0.8,0.3-1.3,0.3C68.6,72.5,68.2,72.4,67.7,72.1z M70.6,71.4c0.4-0.3,0.6-0.6,0.8-1.1v-1.3c-0.1-0.5-0.4-0.8-0.8-1.1
			c-0.4-0.3-0.8-0.4-1.3-0.4c-0.4,0-0.7,0.1-1.1,0.3c-0.3,0.2-0.6,0.4-0.7,0.7c-0.2,0.3-0.3,0.7-0.3,1.1c0,0.4,0.1,0.8,0.3,1.1
			c0.2,0.3,0.4,0.6,0.7,0.7c0.3,0.2,0.7,0.3,1.1,0.3C69.8,71.8,70.2,71.7,70.6,71.4z"/>
	</g>
	<g>
		<path d="M15.9,75.9h5.4V77h-3.9v2.2h2.9v1.2h-2.9v2.2h3.9v1.2h-5.4V75.9z"/>
		<path d="M22.3,75.4h1.4v8.4h-1.4V75.4z"/>
		<path d="M24.9,82c0-1.2,0.8-1.9,2.2-1.9c0.7,0,1.3,0.2,1.8,0.4v-0.1c0-0.8-0.5-1.1-1.5-1.1c-0.7,0-1.4,0.1-1.8,0.4v-1.1
			c0.5-0.2,1.3-0.4,2-0.4c2,0,2.8,0.9,2.8,2.3v3.3H29v-0.5c-0.4,0.4-1,0.7-1.9,0.7C25.8,84,24.9,83.2,24.9,82z M28.9,82.2v-0.6
			c-0.4-0.3-0.9-0.4-1.4-0.4c-0.7,0-1.1,0.3-1.1,0.9c0,0.6,0.4,0.9,1.1,0.9C28.1,82.9,28.6,82.6,28.9,82.2z"/>
		<path d="M31.3,83.4v-1.2c0.6,0.4,1.5,0.6,2.2,0.6c0.7,0,1-0.1,1-0.5c0-0.4-0.4-0.5-1.4-0.8c-1.3-0.4-1.9-0.7-1.9-1.7
			c0-1.1,1-1.6,2.4-1.6c0.7,0,1.6,0.1,2,0.4v1.2c-0.4-0.3-1.1-0.5-1.8-0.5c-0.6,0-1.1,0.1-1.1,0.5c0,0.4,0.5,0.5,1.5,0.8
			c1.4,0.4,1.8,0.8,1.8,1.8c0,0.9-0.8,1.6-2.4,1.6C32.9,84,31.8,83.8,31.3,83.4z"/>
		<path d="M37.3,82v-2.6h-0.8v-1.1h0.8v-1.6h1.4v1.6h1.3v1.1h-1.3v2.4c0,0.7,0.2,1,0.9,1c0.2,0,0.5-0.1,0.7-0.2v1.1
			C40,83.9,39.7,84,39.2,84C38,84,37.3,83.2,37.3,82z"/>
		<path d="M41.4,76.6c0-0.5,0.4-0.8,0.8-0.8c0.5,0,0.8,0.4,0.8,0.8c0,0.5-0.4,0.8-0.8,0.8C41.7,77.4,41.4,77,41.4,76.6z M41.5,78.3
			h1.5v5.4h-1.5V78.3z"/>
		<path d="M44.1,81.1c0-1.8,1.3-2.9,3.2-2.9c0.8,0,1.5,0.2,2,0.5v1.1c-0.5-0.4-1.2-0.5-1.9-0.5c-1.1,0-1.9,0.5-1.9,1.8
			s0.8,1.8,1.9,1.8c0.8,0,1.4-0.2,2-0.5v1.1c-0.5,0.4-1.2,0.5-2.1,0.5C45.4,84,44.1,82.9,44.1,81.1z"/>
		<path d="M50.4,83.4v-1.2c0.6,0.4,1.5,0.6,2.2,0.6c0.7,0,1-0.1,1-0.5c0-0.4-0.4-0.5-1.4-0.8c-1.3-0.4-1.9-0.7-1.9-1.7
			c0-1.1,1-1.6,2.4-1.6c0.7,0,1.6,0.1,2,0.4v1.2c-0.4-0.3-1.1-0.5-1.8-0.5c-0.6,0-1.1,0.1-1.1,0.5c0,0.4,0.5,0.5,1.5,0.8
			c1.4,0.4,1.8,0.8,1.8,1.8c0,0.9-0.8,1.6-2.4,1.6C51.9,84,50.9,83.8,50.4,83.4z"/>
		<path d="M56,81.1c0-1.7,1-2.9,3-2.9c2,0,3,1.2,3,2.8v0.7h-4.6c0.1,0.9,0.9,1.2,2.1,1.2c0.7,0,1.5-0.1,2-0.3v1.1
			C61,83.8,60.1,84,59.3,84C57.3,84,56,82.9,56,81.1z M60.6,80.6c0-0.9-0.6-1.3-1.7-1.3c-1,0-1.6,0.5-1.6,1.3H60.6z"/>
		<path d="M62.9,82c0-1.2,0.8-1.9,2.2-1.9c0.7,0,1.3,0.2,1.8,0.4v-0.1c0-0.8-0.5-1.1-1.5-1.1c-0.7,0-1.4,0.1-1.8,0.4v-1.1
			c0.5-0.2,1.3-0.4,2-0.4c2,0,2.8,0.9,2.8,2.3v3.3H67v-0.5c-0.4,0.4-1,0.7-1.9,0.7C63.8,84,62.9,83.2,62.9,82z M66.9,82.2v-0.6
			c-0.4-0.3-0.9-0.4-1.4-0.4c-0.7,0-1.1,0.3-1.1,0.9c0,0.6,0.4,0.9,1.1,0.9C66.1,82.9,66.7,82.6,66.9,82.2z"/>
		<path d="M69.7,78.3h1.4v0.9c0.5-0.6,1.3-0.9,2.3-0.9v1.1c-1,0-2,0.3-2.3,1.1v3.3h-1.4V78.3z"/>
		<path d="M74,81.1c0-1.8,1.3-2.9,3.2-2.9c0.8,0,1.5,0.2,2,0.5v1.1c-0.5-0.4-1.2-0.5-1.9-0.5c-1.1,0-1.9,0.5-1.9,1.8
			s0.8,1.8,1.9,1.8c0.8,0,1.4-0.2,2-0.5v1.1c-0.5,0.4-1.2,0.5-2.1,0.5C75.3,84,74,82.9,74,81.1z"/>
		<path d="M80.5,75.4h1.4V79c0.5-0.6,1.3-0.9,2-0.9c1.5,0,2.2,0.9,2.2,2.2v3.4h-1.4v-3.3c0-0.7-0.3-1.2-1.1-1.2
			c-0.6,0-1.2,0.3-1.6,0.9v3.6h-1.4V75.4z"/>
	</g>
</g>
</svg>
