<?xml version="1.0" encoding="utf-8"?>
<!-- Generator: Adobe Illustrator 22.0.1, SVG Export Plug-In . SVG Version: 6.00 Build 0)  -->
<svg version="1.1" id="Layer_1" xmlns="http://www.w3.org/2000/svg" xmlns:xlink="http://www.w3.org/1999/xlink" x="0px" y="0px"
	 viewBox="0 0 100 100" style="enable-background:new 0 0 100 100;" xml:space="preserve">
<style type="text/css">
	.st0{fill:#0071BC;}
	.st1{fill:#FFFFFF;}
	.st2{fill:#F4BD19;}
	.st3{fill:#3CBEB1;}
	.st4{fill:#E9478C;}
	.st5{fill:#2C458F;}
	.st6{fill:#95C63D;}
	.st7{fill:#176655;}
</style>
<g>
	<g>
		<path class="st0" d="M60.3,44c0.5,0,10.8,0.2,10.9,0.2h9.8c3.3,0,5.5-2.7,4.9-5.9l-1.7-10c-0.5-3.2-1.9-5.9-2.9-5.9
			s-1.9,2.6-1.9,5.9v2.6c0,3.3-2.5,5.6-5.8,5.6H61.2"/>
	</g>
	<g>
		<path class="st0" d="M38.8,44.2H18.9c-3.3,0-5.5-2.7-4.9-5.9l1.7-10c0.5-3.2,1.8-5.9,2.8-5.9s1.9,2.6,1.9,5.9v2.6
			c0,3.3,2.6,5.6,5.8,5.6h12.6"/>
	</g>
	<path class="st1" d="M76.4,54c0-4.2-2.6-7.9-6.5-9.3c0.2-0.9,0.2-1.8,0.2-2.7c0-7.8-6.4-14.2-14.2-14.2c-4.5,0-8.8,2.2-11.5,5.9
		c-1.3-1-2.9-1.6-4.6-1.6c-4.1,0-7.5,3.4-7.5,7.5c0,0.9,0.2,1.8,0.5,2.6c-3.9,1.4-6.6,5.1-6.6,9.3s2.6,7.9,6.6,9.3
		c-0.2,0.9-0.2,1.8-0.2,2.7c0,7.8,6.4,14.1,14.1,14.1c4.6,0,8.8-2.2,11.5-5.9c1.3,1,3,1.6,4.6,1.6c4.1,0,7.5-3.4,7.5-7.5
		c0-0.9-0.2-1.8-0.5-2.6C73.7,62,76.4,58.2,76.4,54L76.4,54z"/>
	<path class="st2" d="M45.8,49.3L57,54.4l11.3-9.9c0.2-0.8,0.2-1.7,0.2-2.5c0-7-5.7-12.6-12.6-12.6c-4.2,0-8.1,2-10.4,5.5l-1.9,9.8
		L45.8,49.3L45.8,49.3z"/>
	<path class="st3" d="M34.1,61.2c-0.2,0.8-0.2,1.7-0.2,2.5c0,7,5.7,12.7,12.7,12.7c4.2,0,8.1-2.1,10.5-5.5l1.8-9.8l-2.5-4.8
		l-11.2-5.1L34.1,61.2L34.1,61.2z"/>
	<path class="st4" d="M34,41.8l7.7,1.8l1.7-8.7c-1.1-0.8-2.3-1.2-3.7-1.2c-3.3,0-6.1,2.7-6.1,6.1C33.6,40.4,33.8,41.1,34,41.8
		L34,41.8z"/>
	<path class="st5" d="M33.5,43.6c-3.4,1.1-5.8,4.4-5.8,8c0,3.5,2.2,6.7,5.5,7.9L44,49.7l-2-4.2L33.5,43.6L33.5,43.6z"/>
	<path class="st6" d="M59,70.8c1.1,0.8,2.3,1.3,3.6,1.3c3.3,0,6.1-2.7,6.1-6.1c0-0.7-0.1-1.4-0.4-2.1l-7.7-1.8L59,70.8L59,70.8z"/>
	<path class="st7" d="M60.5,60.1l8.4,2c3.4-1.1,5.8-4.4,5.8-8c0-3.5-2.2-6.6-5.5-7.9l-11.1,9.7L60.5,60.1L60.5,60.1z"/>
</g>
</svg>
