<?xml version="1.0" encoding="utf-8"?>
<!-- Generator: Adobe Illustrator 22.1.0, SVG Export Plug-In . SVG Version: 6.00 Build 0)  -->
<svg version="1.1" id="Layer_1" xmlns="http://www.w3.org/2000/svg" xmlns:xlink="http://www.w3.org/1999/xlink" x="0px" y="0px"
	 viewBox="0 0 100 100" style="enable-background:new 0 0 100 100;" xml:space="preserve">
<style type="text/css">
	.st0{fill:#3498DB;}
</style>
<g>
	<g>
		<path class="st0" d="M64.2856445,48.4084473l23.8237305,18.298584c0.4375,0.3359375,0.5205078,0.9638672,0.1835938,1.4023438
			C88.0957031,68.3652344,87.7998047,68.5,87.4990234,68.5c-0.2119141,0-0.4267578-0.0673828-0.6083984-0.2070312
			L62.644104,49.6693726l-12.034729,9.2437134C50.4296875,59.0507812,50.2148438,59.1201172,50,59.1201172
			s-0.4296875-0.0693359-0.609375-0.2070312l-12.0349731-9.2438965L13.109375,68.2929688
			c-0.4370117,0.3359375-1.065918,0.2539062-1.4023438-0.1835938c-0.3364258-0.4384766-0.2543945-1.0664062,0.1835938-1.4023438
			l23.8234863-18.2987671L6.6537476,26.0873413c-0.3189087,0.4353638-0.5133667,0.9664307-0.5133667,1.5442505v44.7368164
			C6.1403809,73.8157959,7.324585,75,8.7719116,75h82.4561768c1.4473267,0,2.6315308-1.1842041,2.6315308-2.6315918V27.6315918
			c0-0.5778198-0.194458-1.1088867-0.5133667-1.5442505L64.2856445,48.4084473z"/>
	</g>
	<g>
		<path class="st0" d="M37.9638062,47.6144409c0.0004883,0.0003662,0.0010376,0.0004272,0.0015259,0.0007935L50,56.859375
			l12.0341797-9.2441406c0.0009766-0.0007324,0.0021362-0.0009155,0.0031128-0.0016479l29.4118042-22.5911255
			C91.375,25.0161133,91.3037109,25,91.2280884,25H8.7719116C8.6962891,25,8.625,25.0161133,8.5509033,25.0224609
			L37.9638062,47.6144409z"/>
	</g>
</g>
</svg>
