<?xml version="1.0" encoding="utf-8"?>
<!-- Generator: Adobe Illustrator 22.0.1, SVG Export Plug-In . SVG Version: 6.00 Build 0)  -->
<svg version="1.1" id="Layer_1" xmlns="http://www.w3.org/2000/svg" xmlns:xlink="http://www.w3.org/1999/xlink" x="0px" y="0px"
	 viewBox="0 0 100 100" style="enable-background:new 0 0 100 100;" xml:space="preserve">
<style type="text/css">
	.st0{fill:#3498DB;}
	.st1{fill:#FFFFFF;}
</style>
<g>
	<g>
		<path class="st0" d="M21.6,75.9c-0.6,0-1-0.4-1-1V43c0-0.3,0.2-0.7,0.5-0.8l28.3-18.1c0.2-0.1,0.4-0.2,0.5-0.2s0.4,0.1,0.5,0.2
			l28.3,18.1c0.3,0.2,0.5,0.5,0.5,0.8v31.9c0,0.6-0.4,1-1,1H21.6z"/>
		<path class="st0" d="M49.9,24.9L78.2,43v31.9H21.6V43L49.9,24.9 M49.9,22.9c-0.4,0-0.7,0.1-1.1,0.3L20.5,41.3
			c-0.6,0.4-0.9,1-0.9,1.7v31.9c0,1.1,0.9,2,2,2h56.7c1.1,0,2-0.9,2-2V43c0-0.7-0.3-1.3-0.9-1.7L51,23.2
			C50.7,23,50.3,22.9,49.9,22.9L49.9,22.9z"/>
	</g>
	<g>
		<path class="st1" d="M32.9,75.9c-0.6,0-1-0.4-1-1V30.1c0-0.6,0.4-1,1-1h34c0.6,0,1,0.4,1,1v44.8c0,0.6-0.4,1-1,1H32.9z"/>
		<path class="st0" d="M66.9,30.1v44.8h-34V30.1H66.9 M66.9,28.1h-34c-1.1,0-2,0.9-2,2v44.8c0,1.1,0.9,2,2,2h34c1.1,0,2-0.9,2-2
			V30.1C68.9,29,68,28.1,66.9,28.1L66.9,28.1z"/>
	</g>
	<g>
		<path class="st1" d="M21.6,75.9c-0.6,0-1-0.4-1-1V43c0-0.4,0.2-0.7,0.5-0.9c0.1-0.1,0.3-0.1,0.5-0.1s0.4,0.1,0.5,0.2L49.9,60
			l27.8-17.8c0.2-0.1,0.4-0.2,0.5-0.2c0.2,0,0.3,0,0.5,0.1c0.3,0.2,0.5,0.5,0.5,0.9v31.9c0,0.6-0.4,1-1,1H21.6z"/>
		<path class="st0" d="M78.3,43v31.9H21.6V43l28.3,18.1L78.3,43 M78.3,41c-0.4,0-0.7,0.1-1.1,0.3L49.9,58.8L22.7,41.3
			C22.4,41.1,22,41,21.6,41c-0.3,0-0.7,0.1-1,0.2c-0.6,0.4-1,1-1,1.8v31.9c0,1.1,0.9,2,2,2h56.7c1.1,0,2-0.9,2-2V43
			c0-0.7-0.4-1.4-1-1.8C78.9,41.1,78.6,41,78.3,41L78.3,41z"/>
	</g>
	<g>
		<g>
			<path class="st1" d="M21.6,75.9c-0.1,0-0.3,0-0.4-0.1c-0.4-0.2-0.6-0.5-0.6-0.9V43c0-0.4,0.2-0.7,0.5-0.9
				c0.1-0.1,0.3-0.1,0.5-0.1s0.4,0.1,0.5,0.2l21.3,13.6c0.3,0.2,0.4,0.5,0.5,0.8s-0.1,0.6-0.3,0.8L22.2,75.8
				C22.1,75.8,21.8,75.9,21.6,75.9z"/>
			<path class="st0" d="M21.6,43l21.3,13.7L21.6,74.9V43 M21.6,41c-0.3,0-0.7,0.1-1,0.2c-0.6,0.4-1,1-1,1.8v31.9
				c0,0.8,0.5,1.5,1.2,1.8c0.3,0.1,0.6,0.2,0.8,0.2c0.5,0,0.9-0.2,1.3-0.5l21.3-18.2c0.5-0.4,0.7-1,0.7-1.7c0-0.6-0.4-1.2-0.9-1.5
				L22.7,41.3C22.3,41.1,22,41,21.6,41L21.6,41z"/>
		</g>
		<g>
			<path class="st1" d="M78.3,75.9c-0.2,0-0.5-0.1-0.7-0.2L56.3,57.5c-0.2-0.2-0.4-0.5-0.3-0.8s0.2-0.6,0.5-0.8l21.3-13.6
				c0.2-0.1,0.4-0.2,0.5-0.2c0.2,0,0.3,0,0.5,0.1c0.3,0.2,0.5,0.5,0.5,0.9v31.9c0,0.4-0.2,0.7-0.6,0.9
				C78.6,75.9,78.4,75.9,78.3,75.9z"/>
			<path class="st0" d="M78.3,43v31.9L57,56.8L78.3,43 M78.3,41c-0.4,0-0.7,0.1-1.1,0.3L55.9,55C55.4,55.3,55,56,55,56.5
				s0.2,1.2,0.7,1.7L77,76.6c0.4,0.3,0.8,0.5,1.3,0.5c0.3,0,0.6-0.1,0.8-0.2c0.7-0.3,1.2-1,1.2-1.8v-32c0-0.7-0.4-1.4-1-1.8
				C78.9,41.1,78.6,41,78.3,41L78.3,41z"/>
		</g>
		<g>
			<path class="st1" d="M21.6,75.9c-0.4,0-0.8-0.3-0.9-0.7s0-0.8,0.3-1.1l21.3-18.3c0.2-0.2,0.4-0.2,0.7-0.2c0.2,0,0.4,0.1,0.5,0.2
				L50,60l6.5-4.2c0.2-0.1,0.4-0.2,0.5-0.2c0.2,0,0.5,0.1,0.7,0.2L79,74.2c0.3,0.3,0.4,0.7,0.3,1.1s-0.5,0.7-0.9,0.7H21.6z"/>
			<path class="st0" d="M42.9,56.8l7,4.5l7-4.5L78.2,75H21.6L42.9,56.8 M42.9,54.8c-0.5,0-0.9,0.2-1.3,0.5L20.3,73.4
				c-0.6,0.5-0.9,1.4-0.6,2.2s1,1.3,1.9,1.3h56.7c0.8,0,1.6-0.5,1.9-1.3c0.3-0.8,0.1-1.7-0.6-2.2L58.3,55.2
				c-0.4-0.3-0.8-0.5-1.3-0.5c-0.4,0-0.7,0.1-1.1,0.3l-6,3.8l-6-3.8C43.6,54.8,43.3,54.8,42.9,54.8L42.9,54.8z"/>
		</g>
	</g>
</g>
</svg>
