<?xml version="1.0" encoding="utf-8"?>
<!DOCTYPE svg PUBLIC "-//W3C//DTD SVG 1.1//EN" "http://www.w3.org/Graphics/SVG/1.1/DTD/svg11.dtd">
<svg version="1.1" id="Layer_1" xmlns="http://www.w3.org/2000/svg" xmlns:xlink="http://www.w3.org/1999/xlink" x="0px" y="0px"
	 width="100px" height="100px" viewBox="-429 231 100 100" style="enable-background:new -429 231 100 100;" xml:space="preserve">
<style type="text/css">
	.st0{fill:#D10019;}
	.st1{fill:#1A171B;}
</style>
<g>
	<g>
		<g id="g19_6_" transform="matrix(0.42836016,0,0,0.42836016,343.54716,500.67717)">
			<path id="path21_6_" class="st0" d="M-1706-589.6l47,47h26.6c4.9,0,6-2.9,2.6-6.3l-40.7-40.7c-3.4-3.4-10.3-6.3-15.2-6.3h-17.8
				C-1708.3-595.9-1709.4-593-1706-589.6L-1706-589.6z"/>
			<path id="path23_6_" class="st0" d="M-1632.4-539h-26.6l-47,47l0,0c-3.4,3.4-2.3,6.3,2.6,6.3h17.8c4.9,0,11.7-2.9,15.2-6.3
				l40.7-40.7C-1626.3-536.2-1627.5-539-1632.4-539L-1632.4-539z"/>
			<path id="path25_6_" class="st0" d="M-1698.7-507.7L-1698.7-507.7L-1730-539h-17.8c-3.2,0-4.1,1.8-1.8,4.2l27.2,27.2
				c2.3,2.3,6.8,4.2,10.1,4.2h11.8C-1697.1-503.5-1696.4-505.4-1698.7-507.7z"/>
			<path id="path27_6_" class="st0" d="M-1747.8-542.6h17.8l31.3-31.3l0,0c2.3-2.3,1.5-4.2-1.8-4.2h-11.8c-3.2,0-7.8,1.8-10.1,4.2
				l-27.2,27.2C-1751.7-544.5-1751-542.6-1747.8-542.6z"/>
		</g>
		<g>
			<path id="path2986_6_" class="st1" d="M-418,311.5c0,1.8,1,4,3.4,4c1.8,0,2.8-1.1,3.2-2.6h1.2c-0.5,2.3-1.9,3.6-4.4,3.6
				c-3.2,0-4.6-2.5-4.6-5.4c0-2.7,1.4-5.4,4.6-5.4c3.3,0,4.6,2.9,4.5,5.7L-418,311.5L-418,311.5z M-411.4,310.4
				c0-1.9-1.2-3.6-3.2-3.6s-3.2,1.8-3.4,3.6H-411.4z"/>
			<path id="path2988_6_" class="st1" d="M-405.3,311l-3.6-4.9h1.6l2.9,3.9l2.8-3.9h1.6l-3.7,4.8l4,5.3h-1.6l-3.2-4.3l-3.2,4.3h-1.6
				L-405.3,311L-405.3,311z"/>
			<path id="path2990_6_" class="st1" d="M-389,311.1c0,2.9-1.7,5.4-4.8,5.4c-3.1,0-4.8-2.5-4.8-5.4s1.7-5.4,4.8-5.4
				C-390.8,305.7-389,308.2-389,311.1z M-397.5,311.1c0,2.2,1.2,4.4,3.6,4.4s3.6-2.2,3.6-4.4c0-2.2-1.2-4.4-3.6-4.4
				C-396.3,306.8-397.5,309-397.5,311.1z"/>
			<path id="path2992_6_" class="st1" d="M-385.1,313c0.1,1.3,1.1,1.8,2.3,1.8c0.8,0,2.3-0.2,2.3-1.4s-1.7-1.3-3.3-1.7s-3.3-1-3.3-3
				c0-2.2,2.4-2.9,4.3-2.9c2.1,0,4,0.9,4.3,3.2h-2.4c-0.2-1.1-1.1-1.4-2.1-1.4c-0.6,0-1.8,0.2-1.8,1c0,1.1,1.6,1.3,3.3,1.6
				c1.6,0.4,3.3,1,3.3,3c0,2.4-2.4,3.3-4.6,3.3c-2.6,0-4.5-1.2-4.5-3.6h2.2V313z"/>
			<path id="path2994_6_" class="st1" d="M-369.2,309.4c-0.2-1.2-1.1-1.9-2.3-1.9c-1.2,0-2.8,0.6-2.8,3.7c0,1.7,0.8,3.5,2.7,3.5
				c1.3,0,2.2-0.9,2.4-2.3h2.2c-0.4,2.6-2,4.1-4.7,4.1c-3.2,0-5-2.3-5-5.3c0-3.1,1.7-5.5,5-5.5c2.4,0,4.4,1.2,4.6,3.7L-369.2,309.4
				L-369.2,309.4z"/>
			<path id="path2996_6_" class="st1" d="M-356.2,314c0,0.6,0.1,0.8,0.5,0.8c0.1,0,0.3,0,0.6,0v1.6c-0.3,0.1-1,0.2-1.4,0.2
				c-0.9,0-1.6-0.3-1.7-1.2c-0.9,0.9-2.3,1.2-3.5,1.2c-1.8,0-3.5-1-3.5-3c0-2.6,2-3,3.9-3.2c1.6-0.3,3.1-0.1,3.1-1.4
				c0-1.2-1.2-1.4-2.1-1.4c-1.3,0-2.2,0.5-2.2,1.6h-2.2c0.2-2.6,2.4-3.4,4.6-3.4c2,0,4.1,0.8,4.1,3L-356.2,314L-356.2,314z
				 M-358.4,311.1c-0.7,0.4-1.8,0.4-2.8,0.6s-1.8,0.5-1.8,1.7c0,1,1.3,1.3,2.1,1.3c1,0,2.5-0.5,2.5-1.9L-358.4,311.1L-358.4,311.1z"
				/>
			<path id="path2998_6_" class="st1" d="M-353.3,302.1h2.2v14.1h-2.2V302.1z"/>
			<path id="path3000_6_" class="st1" d="M-346.4,311.7c0,1.6,0.9,3,2.8,3c1.3,0,2.1-0.6,2.5-1.7h2.1c-0.5,2.2-2.4,3.5-4.6,3.5
				c-3.2,0-5-2.2-5-5.4c0-2.9,1.9-5.4,4.9-5.4c3.2,0,5.2,2.9,4.8,6H-346.4L-346.4,311.7z M-341.2,310.2c-0.1-1.4-1-2.7-2.6-2.7
				s-2.6,1.2-2.7,2.7H-341.2z"/>
		</g>
	</g>
</g>
</svg>
