<?xml version="1.0" encoding="utf-8"?>
<!-- Generator: Adobe Illustrator 18.1.1, SVG Export Plug-In . SVG Version: 6.00 Build 0)  -->
<svg version="1.1" id="Layer_1" xmlns="http://www.w3.org/2000/svg" xmlns:xlink="http://www.w3.org/1999/xlink" x="0px" y="0px"
	 viewBox="0 1 100 100" enable-background="new 0 1 100 100" xml:space="preserve">
<g>
	<g>
		<g id="g19_6_" transform="matrix(0.42836016,0,0,0.42836016,343.54716,500.67717)">
			<path id="path21_6_" fill="#D10019" d="M-704.4-1126.6l47,47h26.6c4.9,0,6-2.9,2.6-6.3l-40.7-40.7c-3.4-3.4-10.3-6.3-15.2-6.3
				h-17.8C-706.7-1132.9-707.8-1130-704.4-1126.6L-704.4-1126.6z"/>
			<path id="path23_6_" fill="#D10019" d="M-630.8-1076h-26.6l-47,47l0,0c-3.4,3.4-2.3,6.3,2.6,6.3h17.8c4.9,0,11.7-2.9,15.2-6.3
				l40.7-40.7C-624.7-1073.2-625.9-1076-630.8-1076L-630.8-1076z"/>
			<path id="path25_6_" fill="#D10019" d="M-697.1-1044.7L-697.1-1044.7l-31.3-31.3h-17.8c-3.2,0-4.1,1.8-1.8,4.2l27.2,27.2
				c2.3,2.3,6.8,4.2,10.1,4.2h11.8C-695.5-1040.5-694.8-1042.4-697.1-1044.7z"/>
			<path id="path27_6_" fill="#D10019" d="M-746.2-1079.6h17.8l31.3-31.3l0,0c2.3-2.3,1.5-4.2-1.8-4.2h-11.8
				c-3.2,0-7.8,1.8-10.1,4.2l-27.2,27.2C-750.1-1081.5-749.4-1079.6-746.2-1079.6z"/>
		</g>
		<g>
			<path id="path2986_6_" fill="#1A171B" d="M11,81.5c0,1.8,1,4,3.4,4c1.8,0,2.8-1.1,3.2-2.6h1.2c-0.5,2.3-1.9,3.6-4.4,3.6
				c-3.2,0-4.6-2.5-4.6-5.4c0-2.7,1.4-5.4,4.6-5.4c3.3,0,4.6,2.9,4.5,5.7L11,81.5L11,81.5z M17.6,80.4c0-1.9-1.2-3.6-3.2-3.6
				s-3.2,1.8-3.4,3.6H17.6z"/>
			<path id="path2988_6_" fill="#1A171B" d="M23.7,81l-3.6-4.9h1.6l2.9,3.9l2.8-3.9H29l-3.7,4.8l4,5.3h-1.6l-3.2-4.3l-3.2,4.3h-1.6
				L23.7,81L23.7,81z"/>
			<path id="path2990_6_" fill="#1A171B" d="M40,81.1c0,2.9-1.7,5.4-4.8,5.4c-3.1,0-4.8-2.5-4.8-5.4s1.7-5.4,4.8-5.4
				C38.2,75.7,40,78.2,40,81.1z M31.5,81.1c0,2.2,1.2,4.4,3.6,4.4s3.6-2.2,3.6-4.4c0-2.2-1.2-4.4-3.6-4.4
				C32.7,76.8,31.5,79,31.5,81.1z"/>
			<path id="path2992_6_" fill="#1A171B" d="M43.9,83c0.1,1.3,1.1,1.8,2.3,1.8c0.8,0,2.3-0.2,2.3-1.4s-1.7-1.3-3.3-1.7s-3.3-1-3.3-3
				c0-2.2,2.4-2.9,4.3-2.9c2.1,0,4,0.9,4.3,3.2h-2.4c-0.2-1.1-1.1-1.4-2.1-1.4c-0.6,0-1.8,0.2-1.8,1c0,1.1,1.6,1.3,3.3,1.6
				c1.6,0.4,3.3,1,3.3,3c0,2.4-2.4,3.3-4.6,3.3c-2.6,0-4.5-1.2-4.5-3.6h2.2L43.9,83L43.9,83z"/>
			<path id="path2994_6_" fill="#1A171B" d="M59.8,79.4c-0.2-1.2-1.1-1.9-2.3-1.9c-1.2,0-2.8,0.6-2.8,3.7c0,1.7,0.8,3.5,2.7,3.5
				c1.3,0,2.2-0.9,2.4-2.3H62c-0.4,2.6-2,4.1-4.7,4.1c-3.2,0-5-2.3-5-5.3c0-3.1,1.7-5.5,5-5.5c2.4,0,4.4,1.2,4.6,3.7L59.8,79.4
				L59.8,79.4z"/>
			<path id="path2996_6_" fill="#1A171B" d="M72.8,84c0,0.6,0.1,0.8,0.5,0.8c0.1,0,0.3,0,0.6,0v1.6c-0.3,0.1-1,0.2-1.4,0.2
				c-0.9,0-1.6-0.3-1.7-1.2c-0.9,0.9-2.3,1.2-3.5,1.2c-1.8,0-3.5-1-3.5-3c0-2.6,2-3,3.9-3.2c1.6-0.3,3.1-0.1,3.1-1.4
				c0-1.2-1.2-1.4-2.1-1.4c-1.3,0-2.2,0.5-2.2,1.6h-2.2c0.2-2.6,2.4-3.4,4.6-3.4c2,0,4.1,0.8,4.1,3L72.8,84L72.8,84z M70.6,81.1
				c-0.7,0.4-1.8,0.4-2.8,0.6S66,82.2,66,83.4c0,1,1.3,1.3,2.1,1.3c1,0,2.5-0.5,2.5-1.9L70.6,81.1L70.6,81.1z"/>
			<path id="path2998_6_" fill="#1A171B" d="M75.7,72.1h2.2v14.1h-2.2V72.1z"/>
			<path id="path3000_6_" fill="#1A171B" d="M82.6,81.7c0,1.6,0.9,3,2.8,3c1.3,0,2.1-0.6,2.5-1.7H90c-0.5,2.2-2.4,3.5-4.6,3.5
				c-3.2,0-5-2.2-5-5.4c0-2.9,1.9-5.4,4.9-5.4c3.2,0,5.2,2.9,4.8,6H82.6L82.6,81.7z M87.8,80.2c-0.1-1.4-1-2.7-2.6-2.7
				s-2.6,1.2-2.7,2.7H87.8z"/>
		</g>
	</g>
</g>
</svg>
