<svg xmlns="http://www.w3.org/2000/svg" width="100" height="100"><path class="st0" d="M50 32.843v7.452L37.102 62.508h4.3L50 47.747v7.309l-4.3 7.452h34.252L50 10.63 20.048 62.508h4.156L50 18.082v7.309L28.504 62.508h4.299z" fill="#d10019"/><path d="M9.952 76.617h7.057v1.387h-5.366v2.268h4.778v1.387h-4.778v2.335h5.44v1.388H9.952zM27.853 76.617l-3.308 4.264L28 85.348h-1.985l-2.5-3.35-2.5 3.35h-1.91l3.418-4.467-3.308-4.298H21.2l2.352 3.147 2.39-3.147h1.911zM29.36 81.016c0-2.504 2.059-4.535 5-4.535 2.903 0 4.962 2.03 4.962 4.501 0 2.47-2.059 4.535-5 4.535-2.903 0-4.962-2.03-4.962-4.5zm8.197 0c0-1.726-1.36-3.113-3.235-3.113-1.874 0-3.197 1.387-3.197 3.08 0 1.691 1.36 3.113 3.234 3.113 1.875 0 3.198-1.388 3.198-3.08zM41.38 84.096l.993-1.117c.919.71 1.838 1.15 3.014 1.15 1.029 0 1.69-.44 1.69-1.116v-.034c0-.61-.367-.948-2.131-1.354-2.022-.44-3.162-1.015-3.162-2.606v-.033c0-1.49 1.36-2.539 3.235-2.539 1.397 0 2.5.373 3.456 1.117l-.883 1.15c-.845-.574-1.727-.913-2.573-.913-.992 0-1.544.474-1.544 1.05v.033c0 .677.441.981 2.28 1.388 2.021.44 3.05 1.116 3.05 2.572v.033c0 1.625-1.396 2.606-3.381 2.606-1.508 0-2.904-.474-4.044-1.387zM51.048 81.016c0-2.504 2.021-4.535 4.888-4.535 1.765 0 2.83.576 3.75 1.354l-1.066 1.15c-.772-.642-1.58-1.082-2.684-1.082-1.8 0-3.124 1.353-3.124 3.08 0 1.725 1.323 3.113 3.124 3.113 1.177 0 1.912-.44 2.72-1.117l1.067 1.015c-.993.948-2.096 1.557-3.86 1.557-2.757-.034-4.815-2.03-4.815-4.535zM65.64 76.549h1.545l4.19 8.799h-1.764l-.956-2.098H64.17l-.992 2.098H61.45zm2.39 5.347l-1.654-3.486-1.617 3.486zM73.764 76.617h1.655v7.343h4.999v1.388h-6.654zM82.917 76.617h7.058v1.387h-5.367v2.268h4.779v1.387h-4.779v2.335h5.44v1.388h-7.13z"/></svg>