<?xml version="1.0" encoding="utf-8"?>
<!-- Generator: Adobe Illustrator 19.2.1, SVG Export Plug-In . SVG Version: 6.00 Build 0)  -->
<svg version="1.1" id="Layer_1" xmlns="http://www.w3.org/2000/svg" xmlns:xlink="http://www.w3.org/1999/xlink" x="0px" y="0px"
	 viewBox="0 0 100 100" style="enable-background:new 0 0 100 100;" xml:space="preserve">
<style type="text/css">
	.st0{fill:#D10019;}
</style>
<g>
	<g>
		<g id="g19_6_" transform="matrix(0.42836016,0,0,0.42836016,343.54716,500.67717)">
			<path id="path21_6_" class="st0" d="M-716.1-1144l88.6,88.6h50.2c9.2,0,11.3-5.5,4.9-11.9l-76.7-76.7
				c-6.4-6.4-19.4-11.9-28.7-11.9h-33.6C-720.4-1155.9-722.5-1150.4-716.1-1144L-716.1-1144z"/>
			<path id="path23_6_" class="st0" d="M-577.3-1048.6h-50.2l-88.6,88.6l0,0c-6.4,6.4-4.3,11.9,4.9,11.9h33.6
				c9.2,0,22.1-5.5,28.7-11.9l76.7-76.7C-565.8-1043.3-568.1-1048.6-577.3-1048.6L-577.3-1048.6z"/>
			<path id="path25_6_" class="st0" d="M-702.3-989.6L-702.3-989.6l-59-59h-33.6c-6,0-7.7,3.4-3.4,7.9l51.3,51.3
				c4.3,4.3,12.8,7.9,19,7.9h22.2C-699.3-981.7-698-985.3-702.3-989.6z"/>
			<path id="path27_6_" class="st0" d="M-794.9-1055.4h33.6l59-59l0,0c4.3-4.3,2.8-7.9-3.4-7.9h-22.2c-6,0-14.7,3.4-19,7.9
				l-51.3,51.3C-802.2-1059-800.9-1055.4-794.9-1055.4z"/>
		</g>
	</g>
</g>
</svg>
