<svg id="Layer_1" data-name="Layer 1" xmlns="http://www.w3.org/2000/svg" viewBox="0 0 100 100"><defs><style>.cls-1{fill:#d10019;}.cls-2{fill:#1a171b;}</style></defs><path id="path21" class="cls-1" d="M42.43,18.08L63.76,39.4H75.85c2.23,0,2.73-1.3,1.18-2.85L58.55,18.08a11.26,11.26,0,0,0-6.88-2.85H43.61c-2.22,0-2.73,1.3-1.18,2.85h0Z"/><path id="path23" class="cls-1" d="M75.85,41H63.76L42.43,62.37h0c-1.55,1.55-1,2.85,1.18,2.85h8.06a11.26,11.26,0,0,0,6.88-2.85L77,43.89c1.6-1.6,1-2.85-1.18-2.85h0Z"/><path id="path25" class="cls-1" d="M45.75,55.27h0L31.51,41H23.45c-1.47,0-1.85.84-.8,1.89L35,55.27a7.44,7.44,0,0,0,4.58,1.89h5.37C46.46,57.16,46.8,56.32,45.75,55.27Z"/><path id="path27" class="cls-1" d="M23.45,39.4h8.06L45.75,25.17h0c1-1,.67-1.89-0.8-1.89H39.58A7.44,7.44,0,0,0,35,25.17L22.66,37.51C21.65,38.56,22,39.4,23.45,39.4Z"/><path id="path2986" class="cls-2" d="M15,80.21c0,1.62.86,3.6,3,3.6a2.82,2.82,0,0,0,2.88-2.34H22a3.72,3.72,0,0,1-4,3.28c-2.92,0-4.14-2.23-4.14-4.86C13.88,77.47,15.1,75,18,75s4.14,2.59,4,5.15H15v0Zm5.94-.94A3.08,3.08,0,0,0,18,76c-1.84,0-2.84,1.58-3,3.28h5.94Z"/><path id="path2988" class="cls-2" d="M26.44,79.74l-3.28-4.39h1.4l2.63,3.49,2.56-3.49h1.4L27.81,79.7l3.57,4.79H29.94l-2.88-3.85-2.84,3.85h-1.4l3.64-4.75h0Z"/><path id="path2990" class="cls-2" d="M41.06,79.88c0,2.63-1.51,4.86-4.36,4.86s-4.32-2.23-4.32-4.86S33.9,75,36.71,75,41.06,77.25,41.06,79.88Zm-7.56,0c0,1.94,1.08,3.93,3.2,3.93s3.2-1.94,3.2-3.93S38.83,76,36.71,76,33.5,77.94,33.5,79.88Z"/><path id="path2992" class="cls-2" d="M44.59,81.54c0.11,1.19,1,1.58,2.09,1.58,0.76,0,2.09-.14,2.05-1.22s-1.51-1.19-3-1.51-3-.86-3-2.74S45,75,46.65,75c1.87,0,3.6.79,3.85,2.84H48.37a1.61,1.61,0,0,0-1.87-1.22c-0.58,0-1.66.14-1.66,0.94,0,1,1.48,1.15,3,1.48s3,0.86,3,2.7c0,2.2-2.2,3-4.11,3-2.3,0-4-1-4.07-3.2h2Z"/><path id="path2994" class="cls-2" d="M58.85,78.37a1.93,1.93,0,0,0-2.09-1.73c-1,0-2.52.54-2.52,3.35,0,1.51.68,3.13,2.45,3.13A2.2,2.2,0,0,0,58.89,81h2a4,4,0,0,1-4.21,3.71c-2.88,0-4.47-2.05-4.47-4.75s1.51-4.93,4.54-4.93c2.12,0,4,1.08,4.14,3.31H58.85Z"/><path id="path2996" class="cls-2" d="M70.59,82.44c0,0.5.11,0.68,0.47,0.68a2.94,2.94,0,0,0,.5,0v1.4a4.88,4.88,0,0,1-1.3.22,1.33,1.33,0,0,1-1.55-1.12,4.62,4.62,0,0,1-3.17,1.12c-1.66,0-3.13-.9-3.13-2.7,0-2.3,1.84-2.66,3.53-2.88,1.48-.25,2.77-0.11,2.77-1.3s-1.08-1.26-1.91-1.26c-1.15,0-1.94.47-2,1.44h-2c0.14-2.38,2.16-3.06,4.18-3.06,1.8,0,3.67.72,3.67,2.66l0,4.83h0Zm-2-2.56a7,7,0,0,1-2.48.54c-0.86.14-1.66,0.47-1.66,1.51s1.15,1.19,1.87,1.19c0.9,0,2.27-.47,2.27-1.73V79.88h0Z"/><path id="path2998" class="cls-2" d="M73.19,71.78h2V84.49h-2V71.78Z"/><path id="path3000" class="cls-2" d="M79.38,80.42a2.47,2.47,0,0,0,2.48,2.74,2.11,2.11,0,0,0,2.23-1.51H86a4,4,0,0,1-4.18,3.13c-2.88,0-4.5-2-4.5-4.83,0-2.63,1.69-4.86,4.43-4.86a4.53,4.53,0,0,1,4.32,5.37l-6.7,0h0Zm4.72-1.33a2.36,2.36,0,1,0-4.72,0H84.1Z"/></svg>