<?xml version="1.0" encoding="utf-8"?>
<!-- Generator: Adobe Illustrator 22.1.0, SVG Export Plug-In . SVG Version: 6.00 Build 0)  -->
<svg version="1.1" id="Layer_1" xmlns="http://www.w3.org/2000/svg" xmlns:xlink="http://www.w3.org/1999/xlink" x="0px" y="0px"
	 viewBox="0 0 100 100" style="enable-background:new 0 0 100 100;" xml:space="preserve">
<style type="text/css">
	.st0{fill:url(#SVGID_1_);}
	.st1{fill:url(#SVGID_2_);}
	.st2{fill:url(#SVGID_3_);}
	.st3{fill:url(#SVGID_4_);}
	.st4{fill:url(#SVGID_5_);}
	.st5{fill:url(#SVGID_6_);}
	.st6{fill:url(#SVGID_7_);}
	.st7{fill:url(#SVGID_8_);}
	.st8{fill:#FFFFFF;}
</style>
<g>
	<g>
		<g>
			<g>
				
					<linearGradient id="SVGID_1_" gradientUnits="userSpaceOnUse" x1="165.3981934" y1="-1023.9997559" x2="226.6016846" y2="-1023.9997559" gradientTransform="matrix(1 0 0 1 -146 1074)">
					<stop  offset="0" style="stop-color:#2A59A2"/>
					<stop  offset="1" style="stop-color:#2A59A2"/>
				</linearGradient>
				<path class="st0" d="M80.2753448,46.3167496c-0.3214188,0-0.815918,0-1.0928268,0
					c-1.9878693-0.0247231-5.8004227,0.1879082-9.2569275,3.1746521
					c-8.2531052,7.1454353-10.1371231,17.6633224-24.2598686,23.3401108
					C33.9017067,77.558876,19.398201,73.0837021,19.398201,73.0837021s12.9409065-0.8999786,14.6567993-10.7750206
					c1.3400764-7.7239952-5.6866817-13.2079315-10.0975666-20.175354
					c-4.4850597-7.0959854-5.6372299-12.9903507-3.4762917-15.5369949
					c6.1267796-7.2344456,22.9989109,12.3227882,31.375639,14.9584427
					c8.1987114,2.576313,13.7321014-3.4070625,20.5214996-2.5268669c2.1658859,0.2769165,3.2240982,1.2115097,3.9262848,2.4032402
					c0.2373581,0.4005432,0.8208542,1.7653465,1.3400726,2.2697296c0.5093307,0.4944916,1.1867905,0.8604164,1.8197403,1.2312889
					C80.270401,45.4068794,81.0665359,46.3167496,80.2753448,46.3167496z"/>
				
					<linearGradient id="SVGID_2_" gradientUnits="userSpaceOnUse" x1="162.9269409" y1="-1034.4493408" x2="227.6619873" y2="-1034.4493408" gradientTransform="matrix(1 0 0 1 -146 1074)">
					<stop  offset="0" style="stop-color:#91D3F2"/>
					<stop  offset="0.2664" style="stop-color:#6FB2DE"/>
					<stop  offset="0.5214" style="stop-color:#5598CE"/>
					<stop  offset="0.6729" style="stop-color:#4B8FC8"/>
				</linearGradient>
				<path class="st1" d="M41.502079,35.0027275c-2.0274277-1.54282-4.119133-3.1598148-6.1762314-4.6334057l0,0
					c-0.4648209-0.3313103-0.9296455-0.6576767-1.3895264-0.9741535l0,0
					c-5.513607-3.7729893-10.6266747-6.1366692-13.4551792-2.7988358
					c-2.1609383,2.5466442-1.0087681,8.4410095,3.4812374,15.5369987c0.0445042,0.0741768,0.0939541,0.1434021,0.1384583,0.2175789
					c2.3389568,3.6196938,9.1234131,12.1002655,25.2043571,11.7392845c1.0582161-1.1225014,2.6653214-3.2438774,4.7421989-5.5531654
					C50.6798859,43.0926514,45.6063766,38.3455086,41.502079,35.0027275z"/>
				
					<linearGradient id="SVGID_3_" gradientUnits="userSpaceOnUse" x1="165.4031525" y1="-1009.7515869" x2="227.0533905" y2="-1009.7515869" gradientTransform="matrix(1 0 0 1 -146 1074)">
					<stop  offset="0" style="stop-color:#2C9EC7"/>
					<stop  offset="0.4037" style="stop-color:#2C63A5"/>
					<stop  offset="1" style="stop-color:#395DA1"/>
				</linearGradient>
				<path class="st2" d="M57.7115898,60.5878448c0.0642815-2.4131279-0.3758163-4.7916451-1.2115135-7.0910416
					c-2.1114883,0.3164749-4.4900017,0.53405-7.1948853,0.5933914c-1.9680862,2.0917091-6.4630356,7.6794891-13.9101143,12.7134399
					c-9.9146023,6.7053375-15.9919319,6.2800674-15.9919319,6.2800674s14.5084534,4.475174,26.2675209-0.2521896
					c4.2180328-1.6961136,7.3481789-3.8224335,9.8799858-6.1663361
					C55.9660263,66.269577,57.6225815,64.2025986,57.7115898,60.5878448z"/>
				
					<linearGradient id="SVGID_4_" gradientUnits="userSpaceOnUse" x1="165.4021149" y1="-1022.6864014" x2="227.0523529" y2="-1022.6864014" gradientTransform="matrix(1 0 0 1 -146 1074)">
					<stop  offset="0" style="stop-color:#4FAAC4"/>
					<stop  offset="0.0015545" style="stop-color:#2F75B1"/>
					<stop  offset="1" style="stop-color:#356EAC"/>
				</linearGradient>
				<path class="st3" d="M54.0523338,48.5370293c-2.0768738,2.3043404-3.6889229,4.4306641-4.7421989,5.5531654
					c2.7098274-0.0593414,5.0883446-0.2769165,7.1948853-0.5933914c-0.2472458-0.6873474-0.53405-1.3648033-0.8505287-2.0323715
					C55.1797791,50.4704971,54.6407814,49.4914017,54.0523338,48.5370293z"/>
				
					<linearGradient id="SVGID_5_" gradientUnits="userSpaceOnUse" x1="187.5020752" y1="-1032.2301025" x2="227.4069366" y2="-1032.2301025" gradientTransform="matrix(1 0 0 1 -146 1074)">
					<stop  offset="0" style="stop-color:#4FAAC4"/>
					<stop  offset="0.0015545" style="stop-color:#2F81B6"/>
					<stop  offset="1" style="stop-color:#3B5EA9"/>
				</linearGradient>
				<path class="st4" d="M66.1080933,39.7894287c-4.3416557,1.3153572-8.6783676,3.5158539-14.2513161,1.7653465
					c-2.7592735-0.8653641-6.4432526-3.5702477-10.354702-6.5520477c4.1043015,3.3427811,9.1778107,8.0849762,12.5502586,13.5343018
					C57.1280861,45.1299629,61.2323837,41.322361,66.1080933,39.7894287z"/>
				
					<linearGradient id="SVGID_6_" gradientUnits="userSpaceOnUse" x1="187.5005188" y1="-1016.9527588" x2="227.4053802" y2="-1016.9527588" gradientTransform="matrix(1 0 0 1 -146 1074)">
					<stop  offset="0" style="stop-color:#4FAAC4"/>
					<stop  offset="0.0015545" style="stop-color:#1E3773"/>
					<stop  offset="1" style="stop-color:#203370"/>
				</linearGradient>
				<path class="st5" d="M56.505024,53.4968033c0.8356972,2.2993965,1.275795,4.6779099,1.2115097,7.0910416
					c-0.0939522,3.6098099-1.7505074,5.6767883-2.1658821,6.0773315c5.9388733-5.493824,8.5943069-12.1645508,14.3798828-17.1737709
					c1.0780029-0.9296494,2.1856613-1.5922737,3.2686005-2.0620422H73.194191
					C69.4014206,49.0216331,65.2872391,52.1715584,56.505024,53.4968033z"/>
				
					<linearGradient id="SVGID_7_" gradientUnits="userSpaceOnUse" x1="213.3270721" y1="-1013.619751" x2="213.3270721" y2="-1035.5018311" gradientTransform="matrix(1 0 0 1 -146 1074)">
					<stop  offset="0" style="stop-color:#4FAAC4"/>
					<stop  offset="0.0015545" style="stop-color:#2C5A9A"/>
					<stop  offset="1" style="stop-color:#374580"/>
				</linearGradient>
				<path class="st6" d="M80.2753448,46.3167496c0.7911911,0-0.0049438-0.9098701-0.8060303-1.3796387
					c-0.6329498-0.3758163-1.3104095-0.7417412-1.8197403-1.2312889c-0.5241623-0.5043831-1.107666-1.8741302-1.3400726-2.2697258
					c-0.7071304-1.1966782-1.7603989-2.1263237-3.9262848-2.4032402c-2.1757736-0.2818642-4.2229767,0.1434021-6.2701797,0.7615204
					c-4.8757095,1.5329285-8.9849586,5.3405342-12.0607071,8.7475967c0.5884476,0.9543724,1.1323929,1.928524,1.6021614,2.9224586
					c0.3164787,0.6725082,0.6032829,1.349968,0.8505287,2.0323677c8.7871628-1.3252449,12.8964005-4.4751701,16.6891708-6.06744
					h0.0049438c2.3884048-1.0384369,4.6235123-1.1323929,5.9883194-1.1126137
					C79.4643707,46.3167496,79.9588699,46.3167496,80.2753448,46.3167496z"/>
				
					<linearGradient id="SVGID_8_" gradientUnits="userSpaceOnUse" x1="158.746994" y1="-1016.2799683" x2="204.1580353" y2="-1016.2799683" gradientTransform="matrix(1 0 0 1 -146 1074)">
					<stop  offset="0.1115" style="stop-color:#38B1DA"/>
					<stop  offset="1" style="stop-color:#326FB5"/>
				</linearGradient>
				<path class="st7" d="M35.3950768,66.8036346c7.4470787-5.0339508,11.942028-10.6217308,13.9101143-12.7134399
					c-16.0809441,0.360981-22.8653984-8.1195908-25.2043552-11.7392845
					c4.4158325,6.8685188,11.2843533,12.3178444,9.9591084,19.9577751
					c-1.7158928,9.8750458-14.6567993,10.7750168-14.6567993,10.7750168S25.4804745,73.5089722,35.3950768,66.8036346z"/>
				<ellipse class="st8" cx="71.9332352" cy="42.7118874" rx="1.2856842" ry="1.2757937"/>
			</g>
		</g>
	</g>
</g>
</svg>
