<svg id="Layer_1" data-name="Layer 1" xmlns="http://www.w3.org/2000/svg" viewBox="0 0 100 100"><defs><style>.cls-1{fill:#3497da;}</style></defs><path class="cls-1" d="M27.53,84.92a4.54,4.54,0,0,1-1.83-1.79,5.8,5.8,0,0,1,0-5.36A4.59,4.59,0,0,1,27.53,76a5.45,5.45,0,0,1,2.65-.64,5.21,5.21,0,0,1,3.36,1.06v1.06a4.71,4.71,0,0,0-3.28-1.13,4.42,4.42,0,0,0-2.13.5,3.65,3.65,0,0,0-1.47,1.44,4.72,4.72,0,0,0,0,4.35,3.66,3.66,0,0,0,1.46,1.44,4.35,4.35,0,0,0,2.11.5,5.46,5.46,0,0,0,1.33-.16A3.63,3.63,0,0,0,32.63,84V81H30.57V80h3.15v4.4a4.4,4.4,0,0,1-1.56.84,6.8,6.8,0,0,1-2,.27A5.5,5.5,0,0,1,27.53,84.92Z"/><path class="cls-1" d="M36.15,84.61a3.36,3.36,0,0,1-1-2.62A3.63,3.63,0,0,1,36,79.37a3.47,3.47,0,0,1,2.63-1,4,4,0,0,1,1.95.44,2.92,2.92,0,0,1,1.2,1.21,3.7,3.7,0,0,1,.41,1.75V82.4h-6.1A2.13,2.13,0,0,0,37,84.12a3.59,3.59,0,0,0,2.15.57,7,7,0,0,0,1.29-.12,5.69,5.69,0,0,0,1.14-.33v0.91a5.44,5.44,0,0,1-1.14.28,9.21,9.21,0,0,1-1.41.11A4.09,4.09,0,0,1,36.15,84.61Zm5.08-3a2.39,2.39,0,0,0-.67-1.72,2.59,2.59,0,0,0-1.89-.63,2.51,2.51,0,0,0-1.86.65,2.41,2.41,0,0,0-.67,1.7h5.1Z"/><path class="cls-1" d="M43.91,78.62h1v1a2.92,2.92,0,0,1,1.2-.92,3.88,3.88,0,0,1,1.5-.29,2.58,2.58,0,0,1,2,.7A2.64,2.64,0,0,1,50.3,81v4.35H49.22V81.08a1.94,1.94,0,0,0-.42-1.34,1.72,1.72,0,0,0-1.34-.47A2.81,2.81,0,0,0,45,80.67v4.66H43.91V78.62Z"/><path class="cls-1" d="M52.94,84.61a3.36,3.36,0,0,1-1-2.62,3.63,3.63,0,0,1,.92-2.62,3.47,3.47,0,0,1,2.63-1,4,4,0,0,1,1.95.44,2.92,2.92,0,0,1,1.2,1.21A3.68,3.68,0,0,1,59,81.81V82.4h-6.1a2.13,2.13,0,0,0,.85,1.72,3.59,3.59,0,0,0,2.15.57,7,7,0,0,0,1.29-.12,5.68,5.68,0,0,0,1.14-.33v0.91a5.43,5.43,0,0,1-1.14.28,9.23,9.23,0,0,1-1.41.11A4.09,4.09,0,0,1,52.94,84.61Zm5.08-3a2.39,2.39,0,0,0-.67-1.72,2.6,2.6,0,0,0-1.89-.63,2.5,2.5,0,0,0-1.86.65,2.41,2.41,0,0,0-.67,1.7H58Z"/><path class="cls-1" d="M60.7,78.62h1v1.32a3.28,3.28,0,0,1,3-1.32v0.87q-2.44,0-3,1.61v4.24H60.7V78.62Z"/><path class="cls-1" d="M66.38,77a0.67,0.67,0,0,1,.48-1.15,0.67,0.67,0,0,1,.48.2,0.66,0.66,0,0,1,0,1,0.67,0.67,0,0,1-.48.2A0.65,0.65,0,0,1,66.38,77Zm-0.06,1.65h1.08v6.72H66.33V78.62Z"/><path class="cls-1" d="M71,85.12a3.15,3.15,0,0,1-1.32-1.23,4,4,0,0,1,0-3.79A3.21,3.21,0,0,1,71,78.84,4.21,4.21,0,0,1,73,78.41a5.9,5.9,0,0,1,1.36.14,3.2,3.2,0,0,1,1,.45V79.9a3.89,3.89,0,0,0-2.31-.63,2.83,2.83,0,0,0-2,.71,3,3,0,0,0,0,4,2.78,2.78,0,0,0,2,.71,4.86,4.86,0,0,0,1.33-.17A4.07,4.07,0,0,0,75.48,84v0.91a3.29,3.29,0,0,1-1.1.48,6.23,6.23,0,0,1-1.45.15A4.19,4.19,0,0,1,71,85.12Z"/><path class="cls-1" d="M69.43,17.79v8.67H31.1V17.79H69.43Zm3.33-3.33h-45V29.79h45V14.45Z"/><path class="cls-1" d="M33.76,20.45H60.43v3.33H33.76V20.45Z"/><path class="cls-1" d="M62.1,20.45h4.67v3.33H62.1V20.45Z"/><path class="cls-1" d="M69.43,35v8.67H31.1V35H69.43Zm3.33-3.33h-45V47h45V31.62h0Z"/><path class="cls-1" d="M33.76,37.62H60.43V41H33.76V37.62h0Z"/><path class="cls-1" d="M62.1,37.62h4.67V41H62.1V37.62h0Z"/><path class="cls-1" d="M69.43,52.12v9H31.1v-9H69.43Zm3.33-3.33h-45V64.45h45V48.79h0Z"/><path class="cls-1" d="M33.76,54.79H60.43v3.67H33.76V54.79Z"/><path class="cls-1" d="M62.1,54.79h4.67v3.67H62.1V54.79Z"/></svg>