<svg id="Layer_1" data-name="Layer 1" xmlns="http://www.w3.org/2000/svg" viewBox="0 0 100 100"><defs><style>.cls-1{fill:#3497da;}</style></defs><path class="cls-1" d="M69.43,17.79v8.67H31.1V17.79H69.43Zm3.33-3.33h-45V29.79h45V14.45Z"/><path class="cls-1" d="M33.76,20.45H60.43v3.33H33.76V20.45Z"/><path class="cls-1" d="M62.1,20.45h4.67v3.33H62.1V20.45Z"/><path class="cls-1" d="M69.43,35v8.67H31.1V35H69.43Zm3.33-3.33h-45V47h45V31.62h0Z"/><path class="cls-1" d="M33.76,37.62H60.43V41H33.76V37.62h0Z"/><path class="cls-1" d="M62.1,37.62h4.67V41H62.1V37.62h0Z"/><path class="cls-1" d="M69.43,52.12v9H31.1v-9H69.43Zm3.33-3.33h-45V64.45h45V48.79h0Z"/><path class="cls-1" d="M33.76,54.79H60.43v3.67H33.76V54.79Z"/></svg>
