<?xml version="1.0" encoding="utf-8"?>
<!-- Generator: Adobe Illustrator 19.1.0, SVG Export Plug-In . SVG Version: 6.00 Build 0)  -->
<svg version="1.1" id="Layer_1" xmlns="http://www.w3.org/2000/svg" xmlns:xlink="http://www.w3.org/1999/xlink" x="0px" y="0px"
	 viewBox="0 0 180 80" style="enable-background:new 0 0 180 80;" xml:space="preserve">
<style type="text/css">
	.st0{fill:none;}
	.st1{fill:#4D4D4D;}
	.st2{fill:#999999;}
	.st3{fill:#333333;}
	.st4{fill:url(#SVGID_1_);stroke:#4D4D4D;stroke-miterlimit:10;}
	.st5{fill:url(#SVGID_2_);stroke:#4D4D4D;stroke-miterlimit:10;}
	.st6{fill:url(#SVGID_3_);stroke:#4D4D4D;stroke-miterlimit:10;}
	.st7{fill:url(#SVGID_4_);stroke:#4D4D4D;stroke-miterlimit:10;}
	.st8{fill:none;stroke:#333333;stroke-linecap:round;stroke-miterlimit:10;}
	.st9{fill:#8CC63F;}
	.st10{opacity:0.5;fill:none;stroke:#8CC63F;stroke-width:0.5;stroke-miterlimit:10;}
	.st11{opacity:0.2;fill:none;stroke:#FFFFFF;stroke-width:0.25;stroke-linecap:round;stroke-miterlimit:10;}
</style>
<pattern  width="1.6" height="1.6" patternUnits="userSpaceOnUse" id="New_Pattern_Swatch_8" viewBox="0.2 -1.8 1.6 1.6" style="overflow:visible;">
	<g>
		<polygon class="st0" points="0.2,-0.2 1.8,-0.2 1.8,-1.8 0.2,-1.8 		"/>
		<path class="st1" d="M1.4-1.8c0,0.2-0.2,0.4-0.4,0.4S0.6-1.6,0.6-1.8"/>
		<path class="st1" d="M0.6-0.2c0-0.2,0.2-0.4,0.4-0.4s0.4,0.2,0.4,0.4"/>
		<path class="st1" d="M0.2-1.4c0.2,0,0.4,0.2,0.4,0.4S0.4-0.6,0.2-0.6"/>
		<path class="st1" d="M1.8-0.6C1.6-0.6,1.4-0.8,1.4-1s0.2-0.4,0.4-0.4"/>
	</g>
</pattern>
<g>
	<path class="st2" d="M59.8,71c-2.1,0-4.8-2.3-4.8-4.6v-9c0-1.2,0.5-2.3,1.4-3c-0.8-0.7-1.4-1.8-1.4-3v-9c0-1.2,0.5-2.3,1.4-3
		c-0.8-0.7-1.4-1.8-1.4-3v-9c0-1.2,0.5-2.3,1.4-3c-0.8-0.7-1.4-1.8-1.4-3v-9c0-2.2,2.3-3.4,4.8-3.4h61.8c3.2,0,3.4,2.5,3.4,3.4v9
		c0,1.2-0.5,2.3-1.4,3c0.8,0.7,1.4,1.8,1.4,3v9c0,1.2-0.5,2.3-1.4,3c0.8,0.7,1.4,1.8,1.4,3v9c0,1.2-0.5,2.3-1.4,3
		c0.8,0.7,1.4,1.8,1.4,3v9c0,2.9-1.5,4.6-3.4,4.6H59.8z"/>
	<path class="st3" d="M121.9,10c1.7,0,2.1,0.7,2.1,2.4v9c0,1.6-1.3,3-3,3c1.7,0,3,1.3,3,3v9c0,1.6-1.3,3-3,3c1.7,0,3,1.3,3,3v9
		c0,1.6-1.3,3-3,3c1.7,0,3,1.3,3,3v9c0,1.6-0.8,3.6-2.4,3.6H59.8c-1.7,0-3.8-2-3.8-3.6v-9c0-1.7,1.3-3,3-3c-1.7,0-3-1.4-3-3v-9
		c0-1.7,1.3-3,3-3c-1.7,0-3-1.4-3-3v-9c0-1.7,1.3-3,3-3c-1.7,0-3-1.4-3-3v-9c0-1.7,2.1-2.4,3.8-2.4H121.9 M121.6,8H59.8
		c-3,0-5.8,1.5-5.8,4.4v9c0,1.1,0.4,2.2,1,3c-0.6,0.8-1,1.9-1,3v9c0,1.1,0.4,2.2,1,3c-0.6,0.8-1,1.9-1,3v9c0,1.1,0.4,2.2,1,3
		c-0.6,0.8-1,1.9-1,3v9c0,2.9,3.1,5.6,5.8,5.6h61.8c2.5,0,4.4-2.2,4.4-5.6v-9c0-1.1-0.4-2.2-1-3c0.6-0.8,1-1.9,1-3v-9
		c0-1.1-0.4-2.2-1-3c0.6-0.8,1-1.9,1-3v-9c0-1.1-0.4-2.2-1-3c0.6-0.8,1-1.9,1-3v-9c0-3.8-2.7-4.4-4.3-4.4H121.6z"/>
</g>
<pattern  id="SVGID_1_" xlink:href="#New_Pattern_Swatch_8" patternTransform="matrix(1 0 0 1 2.125 10.375)">
</pattern>
<rect x="59.5" y="57.5" class="st4" width="62" height="9"/>
<pattern  id="SVGID_2_" xlink:href="#New_Pattern_Swatch_8" patternTransform="matrix(1 0 0 1 2.125 10.375)">
</pattern>
<rect x="59.5" y="42.5" class="st5" width="62" height="9"/>
<pattern  id="SVGID_3_" xlink:href="#New_Pattern_Swatch_8" patternTransform="matrix(1 0 0 1 2.125 10.375)">
</pattern>
<rect x="59.5" y="27.5" class="st6" width="62" height="9"/>
<pattern  id="SVGID_4_" xlink:href="#New_Pattern_Swatch_8" patternTransform="matrix(1 0 0 1 2.125 10.375)">
</pattern>
<rect x="59.5" y="12.5" class="st7" width="62" height="9"/>
<line class="st8" x1="63" y1="24.5" x2="117" y2="24.5"/>
<line class="st8" x1="63" y1="39.5" x2="117" y2="39.5"/>
<line class="st8" x1="63" y1="54.5" x2="117" y2="54.5"/>
<circle class="st9" cx="63.3" cy="17.2" r="1.4"/>
<circle class="st10" cx="63.3" cy="17.2" r="0.9"/>
<circle class="st9" cx="67.3" cy="17.2" r="1.4"/>
<circle class="st10" cx="67.3" cy="17.2" r="0.9"/>
<circle class="st9" cx="71.3" cy="17.2" r="1.4"/>
<circle class="st10" cx="71.3" cy="17.2" r="0.9"/>
<path class="st11" d="M63.3,16.3c0.5,0,0.9,0.4,0.9,0.9"/>
<path class="st11" d="M67.3,16.3c0.5,0,0.9,0.4,0.9,0.9"/>
<path class="st11" d="M71.3,16.3c0.5,0,0.9,0.4,0.9,0.9"/>
<circle class="st9" cx="63.3" cy="32.2" r="1.4"/>
<circle class="st10" cx="63.3" cy="32.2" r="0.9"/>
<circle class="st9" cx="67.3" cy="32.2" r="1.4"/>
<circle class="st10" cx="67.3" cy="32.2" r="0.9"/>
<circle class="st9" cx="71.3" cy="32.2" r="1.4"/>
<circle class="st10" cx="71.3" cy="32.2" r="0.9"/>
<circle class="st9" cx="63.3" cy="47.2" r="1.4"/>
<circle class="st10" cx="63.3" cy="47.2" r="0.9"/>
<circle class="st9" cx="67.3" cy="47.2" r="1.4"/>
<circle class="st10" cx="67.3" cy="47.2" r="0.9"/>
<circle class="st9" cx="71.3" cy="47.2" r="1.4"/>
<circle class="st10" cx="71.3" cy="47.2" r="0.9"/>
<circle class="st9" cx="63.3" cy="62.2" r="1.4"/>
<circle class="st10" cx="63.3" cy="62.2" r="0.9"/>
<circle class="st9" cx="67.3" cy="62.2" r="1.4"/>
<circle class="st10" cx="67.3" cy="62.2" r="0.9"/>
<circle class="st9" cx="71.3" cy="62.2" r="1.4"/>
<circle class="st10" cx="71.3" cy="62.2" r="0.9"/>
<path class="st11" d="M63.3,31.3c0.5,0,0.9,0.4,0.9,0.9"/>
<path class="st11" d="M67.3,31.3c0.5,0,0.9,0.4,0.9,0.9"/>
<path class="st11" d="M71.3,31.3c0.5,0,0.9,0.4,0.9,0.9"/>
<path class="st11" d="M63.3,46.3c0.5,0,0.9,0.4,0.9,0.9"/>
<path class="st11" d="M67.3,46.3c0.5,0,0.9,0.4,0.9,0.9"/>
<path class="st11" d="M71.3,46.3c0.5,0,0.9,0.4,0.9,0.9"/>
<path class="st11" d="M63.3,61.3c0.5,0,0.9,0.4,0.9,0.9"/>
<path class="st11" d="M67.3,61.3c0.5,0,0.9,0.4,0.9,0.9"/>
<path class="st11" d="M71.3,61.3c0.5,0,0.9,0.4,0.9,0.9"/>
</svg>
