<?xml version="1.0" encoding="utf-8"?>
<!-- Generator: Adobe Illustrator 23.0.1, SVG Export Plug-In . SVG Version: 6.00 Build 0)  -->
<svg version="1.1" id="Layer_1" xmlns="http://www.w3.org/2000/svg" xmlns:xlink="http://www.w3.org/1999/xlink" x="0px" y="0px"
	 viewBox="0 0 100 100" style="enable-background:new 0 0 100 100;" xml:space="preserve">
<style type="text/css">
	.st0{fill:#3497DA;}
</style>
<path class="st0" d="M69.2,28.3V37H30.8v-8.7H69.2z M72.5,25h-45v15.3h45V25L72.5,25z"/>
<path class="st0" d="M33.5,31h26.7v3.3H33.5V31z"/>
<path class="st0" d="M61.8,31h4.7v3.3h-4.7V31z"/>
<path class="st0" d="M69.2,45.6v8.7H30.8v-8.7H69.2z M72.5,42.2h-45v15.3h45V42.2L72.5,42.2L72.5,42.2z"/>
<path class="st0" d="M33.5,48.2h26.7v3.4H33.5V48.2L33.5,48.2z"/>
<path class="st0" d="M61.8,48.2h4.7v3.4h-4.7V48.2L61.8,48.2z"/>
<path class="st0" d="M61.8,65.5h4.7v3.4h-4.7V65.5L61.8,65.5z"/>
<path class="st0" d="M69.2,62.7v9H30.8v-9H69.2z M72.5,59.3h-45V75h45V59.3L72.5,59.3z"/>
<path class="st0" d="M33.5,65.3h26.7V69H33.5V65.3z"/>
</svg>
