<svg id="Layer_1" data-name="Layer 1" xmlns="http://www.w3.org/2000/svg" viewBox="0 0 100 100"><defs><style>.cls-1{fill:#181616;}</style></defs><path class="cls-1" d="M35.22,78.53h-4a0.19,0.19,0,0,0-.19.19v2a0.19,0.19,0,0,0,.19.19h1.58v2.46a4.78,4.78,0,0,1-1.33.12c-1.16,0-2.77-.42-2.77-4s1.68-4,3.26-4a6.4,6.4,0,0,1,2.33.36,0.19,0.19,0,0,0,.22-0.16v0l0.45-1.93a0.18,0.18,0,0,0-.07-0.15A7.3,7.3,0,0,0,31.42,73C28.72,73,26,74.11,26,79.63S29.12,86,31.79,86a6.58,6.58,0,0,0,3.56-1,0.16,0.16,0,0,0,.06-0.14V78.72a0.19,0.19,0,0,0-.19-0.19h0Z"/><path class="cls-1" d="M56.07,73.62a0.19,0.19,0,0,0-.19-0.19H53.61a0.19,0.19,0,0,0-.19.19V78H49.87v-4.4a0.19,0.19,0,0,0-.19-0.19H47.4a0.19,0.19,0,0,0-.19.19V85.54a0.19,0.19,0,0,0,.18.19h2.28a0.19,0.19,0,0,0,.19-0.19h0v-5.1h3.55v5.1a0.19,0.19,0,0,0,.18.19h2.29a0.19,0.19,0,0,0,.19-0.19h0V73.62h0Z"/><ellipse class="cls-1" cx="38.05" cy="75.19" rx="1.47" ry="1.48"/><path class="cls-1" d="M39.36,83v-5.5a0.19,0.19,0,0,0-.16-0.21H36.9a0.22,0.22,0,0,0-.2.21v7.9a0.28,0.28,0,0,0,.25.3h2.12a0.25,0.25,0,0,0,.28-0.3V83h0Z"/><path class="cls-1" d="M64.73,77.35H62.46a0.19,0.19,0,0,0-.19.19h0v5.84a2.55,2.55,0,0,1-1.39.42c-0.81,0-1-.37-1-1.17V77.55a0.19,0.19,0,0,0-.18-0.19h-2.3a0.19,0.19,0,0,0-.19.19h0V83c0,2.37,1.32,3,3.14,3A5.3,5.3,0,0,0,63,85.15a4.79,4.79,0,0,0,.08.48,0.2,0.2,0,0,0,.17.1h1.44a0.19,0.19,0,0,0,.19-0.19h0v-8A0.19,0.19,0,0,0,64.73,77.35Z"/><path class="cls-1" d="M70.9,77.09a4.25,4.25,0,0,0-2.16.57v-4a0.19,0.19,0,0,0-.19-0.19H66.28a0.19,0.19,0,0,0-.19.19V85.54a0.19,0.19,0,0,0,.18.19h1.59a0.19,0.19,0,0,0,.16-0.1,3.72,3.72,0,0,0,.1-0.55,4.09,4.09,0,0,0,2.71.9c2.07,0,3.26-1.05,3.26-4.73S72.19,77.09,70.9,77.09ZM70,83.8a2.71,2.71,0,0,1-1.31-.38V79.65a3,3,0,0,1,1.17-.38c0.81-.07,1.6.17,1.6,2.11S71.11,83.83,70,83.8Z"/><path class="cls-1" d="M45.9,77.31H44.19V75.08a0.12,0.12,0,0,0-.11-0.13H41.72a0.12,0.12,0,0,0-.14.13v2.34l-1.25.3a0.19,0.19,0,0,0-.13.18v1.44a0.19,0.19,0,0,0,.18.19h1.2v3.56c0,2.62,1.84,2.89,3.08,2.89A5.2,5.2,0,0,0,46,85.76a0.18,0.18,0,0,0,.11-0.17V83.95a0.19,0.19,0,0,0-.19-0.19c-0.1,0-.36,0-0.62,0a0.91,0.91,0,0,1-1.12-.9V79.53H45.9a0.19,0.19,0,0,0,.19-0.19h0V77.53a0.19,0.19,0,0,0-.16-0.21h0Z"/><path class="cls-1" d="M50,14a25.64,25.64,0,0,0-8.1,50,1.29,1.29,0,0,0,1.75-1.24V58.38C36.53,60,35,54.94,35,54.94c-1.17-3-2.84-3.75-2.84-3.75-2.36-1.57.17-1.57,0.17-1.57a5.41,5.41,0,0,1,3.94,2.64c2.28,3.94,6,2.79,7.46,2.13A5.51,5.51,0,0,1,45.35,51c-5.69-.65-11.68-2.84-11.68-12.67a9.91,9.91,0,0,1,2.64-6.88,9.22,9.22,0,0,1,.25-6.79s2.15-.69,7.09,2.63a24.3,24.3,0,0,1,12.84,0c4.89-3.32,7-2.63,7-2.63a9.21,9.21,0,0,1,.25,6.79,9.89,9.89,0,0,1,2.64,6.88c0,9.85-6,12-11.7,12.65a6.1,6.1,0,0,1,1.74,4.72v7a1.29,1.29,0,0,0,1.76,1.24A25.64,25.64,0,0,0,50,14Z"/></svg>