<?xml version="1.0" encoding="utf-8"?>
<!-- Generator: Adobe Illustrator 22.1.0, SVG Export Plug-In . SVG Version: 6.00 Build 0)  -->
<svg version="1.1" id="Layer_1" xmlns="http://www.w3.org/2000/svg" xmlns:xlink="http://www.w3.org/1999/xlink" x="0px" y="0px"
	 viewBox="0 0 100 100" style="enable-background:new 0 0 100 100;" xml:space="preserve">
<style type="text/css">
	.st0{fill:#181616;}
</style>
<path class="st0" d="M50,25c-14.1-0.1-25.6,11.4-25.7,25.5c0,11.1,7.1,21,17.6,24.4c0.7,0.3,1.4-0.1,1.7-0.7
	c0.1-0.2,0.1-0.3,0.1-0.5v-4.4c-7.1,1.6-8.6-3.4-8.6-3.4c-1.2-3-2.8-3.7-2.8-3.7c-2.4-1.6,0.2-1.6,0.2-1.6c1.6,0.2,3.1,1.2,3.9,2.6
	c2.3,3.9,6,2.8,7.4,2.1c0.1-1.3,0.7-2.5,1.6-3.4c-5.7-0.6-11.7-2.8-11.7-12.6c0-2.5,0.9-5,2.6-6.9c-0.8-2.2-0.7-4.6,0.2-6.8
	c0,0,2.1-0.7,7.1,2.6c4.2-1.1,8.6-1.1,12.8,0c4.9-3.3,7-2.6,7-2.6c0.9,2.1,1,4.6,0.2,6.8c1.7,1.9,2.7,4.3,2.6,6.9
	c0,9.8-6,12-11.7,12.6c1.2,1.2,1.9,3,1.7,4.7v7c0,0.7,0.5,1.3,1.2,1.3c0.2,0,0.3,0,0.5-0.1c13.4-4.5,20.6-19,16.1-32.4
	C70.8,32,61,25,50,25z"/>
</svg>
