<?xml version="1.0" encoding="utf-8"?>
<!-- Generator: Adobe Illustrator 18.1.1, SVG Export Plug-In . SVG Version: 6.00 Build 0)  -->
<svg version="1.1"
	 id="Layer_1" xmlns:cc="http://creativecommons.org/ns#" xmlns:dc="http://purl.org/dc/elements/1.1/" xmlns:rdf="http://www.w3.org/1999/02/22-rdf-syntax-ns#" xmlns:svg="http://www.w3.org/2000/svg"
	 xmlns="http://www.w3.org/2000/svg" xmlns:xlink="http://www.w3.org/1999/xlink" x="0px" y="0px" viewBox="0 0 53 58"
	 enable-background="new 0 0 53 58" xml:space="preserve">
<g id="A" display="none">
	<path id="path4" display="inline" fill="#394D54" d="M47.2,50.6c1.2-1,2.4-2.1,3.6-3.1c0.4-0.4,0.8-0.7,1.3-1.1
		c-0.3-0.4-0.8-0.7-1.3-0.9c-0.9-0.4-1.9-0.2-2.7,0.3c-1.1,0.6-1.6,1.7-1.5,3c0,0.5,0.2,1,0.4,1.4C47,50.3,47.1,50.5,47.2,50.6
		 M48.6,51.6c0.6,0.2,1.3,0.2,1.9,0.1c0.3-0.2,1.1-0.5,1.4-0.4H52h0.1c0.2,0.1,0.4,0.2,0.4,0.4c0.2,0.4,0.1,0.8-0.3,1.1L52.1,53
		c-1.5,0.9-3.2,0.7-4.7-0.1c-0.7-0.4-1.3-1-1.7-1.7L45.6,51c-1-1.7-0.8-3.5,0.3-5.1c0.4-0.6,0.9-1,1.5-1.3l0.2-0.1
		c1.4-0.8,3-0.8,4.5-0.1c0.8,0.4,1.4,1,1.9,1.7l0.1,0.2c0.3,0.6-0.1,1.1-0.5,1.4c-0.5,0.4-1,0.8-1.5,1.3
		C50.7,49.7,49.7,50.6,48.6,51.6z M60.1,43.8h0.2c0.5,0,0.8,0.3,0.8,0.8c0,0.7-0.6,0.8-1.2,0.8c-0.7,0-1.4,0.4-1.9,0.9
		c-0.7,0.7-1,1.5-1,2.4v3.9c0,0.4-0.3,0.8-0.7,0.8h-0.1c-0.5,0-0.7-0.4-0.7-0.8v-4.1c0-1.6,0.8-2.9,2.1-3.8
		C58.2,44.1,59.1,43.8,60.1,43.8z M40,46.6c0.6-0.6,1.3-1.3,1.9-1.9c0.2-0.2,0.8-0.9,1.1-0.9h0.3h0.1c0.4,0.1,0.6,0.3,0.6,0.7v0.2
		c0,0.3-0.3,0.6-0.5,0.8c-0.4,0.4-0.7,0.8-1.1,1.2l-2,2c0.8,0.8,1.7,1.7,2.5,2.5c0.2,0.2,0.5,0.5,0.7,0.7c0.1,0.1,0.2,0.2,0.3,0.3
		s0.1,0.2,0.1,0.4v0.2v0.1c-0.1,0.4-0.3,0.7-0.7,0.7H43c-0.3,0-0.6-0.3-0.7-0.5c-0.4-0.4-0.7-0.7-1.1-1.1L40,50.6v2
		c0,0.4-0.3,0.8-0.7,0.8h-0.1c-0.5,0-0.7-0.4-0.7-0.8v-11c0-0.4,0.3-0.8,0.7-0.8h0.1c0.5,0,0.7,0.4,0.7,0.8V46.6L40,46.6z
		 M34.7,45.5c-0.3-0.1-0.7-0.2-1-0.2c-1.3-0.1-2.3,0.7-2.9,1.9c-0.2,0.4-0.3,0.8-0.3,1.3c0,1.4,0.7,2.3,2,3c0.4,0.2,1.1,0.3,1.5,0.3
		s1.1-0.3,1.4-0.4l0.1-0.1h0.3h0.1c0.4,0.1,0.6,0.3,0.6,0.7v0.2c0,1-1.8,1.2-2.5,1.3c-2.4,0.2-4.2-1.2-4.9-3.4
		C29,49.6,29,49.2,29,48.8v-0.3c0-1.7,0.8-3.1,2.4-4c0.7-0.4,1.5-0.6,2.3-0.6H34c0.8,0,1.6,0.3,2.4,0.7l0.1,0.1l0.1,0.1
		c0.1,0.1,0.2,0.3,0.2,0.4v0.2c0,0.4-0.3,0.6-0.7,0.7H36h-0.1C35.5,45.9,34.9,45.6,34.7,45.5z M20,48.6c0,1.2,0.6,2.1,1.6,2.8
		c0.5,0.3,1,0.4,1.6,0.4c1.2,0,2.1-0.6,2.8-1.6c0.3-0.5,0.4-1,0.4-1.6c0-1.1-0.5-2-1.5-2.7c-0.5-0.4-1.1-0.5-1.7-0.5
		c-1.3,0-2.3,0.7-2.9,1.9C20.1,47.7,20,48.1,20,48.6z M23.1,43.7h0.2c1.9,0,3.3,0.9,4.2,2.5c0.4,0.6,0.6,1.4,0.6,2.1v0.3
		c0,1.7-0.8,3.1-2.4,4c-0.7,0.4-1.5,0.6-2.3,0.6h-0.3c-1.7,0-3.1-0.8-4-2.4c-0.4-0.7-0.6-1.5-0.6-2.3v-0.3c0-1.7,0.8-3.1,2.4-4
		C21.5,43.9,22.2,43.7,23.1,43.7z M9.4,48.6c0,1.3,0.6,2.2,1.7,2.8c0.4,0.3,1,0.4,1.4,0.4c1.2,0,2.2-0.6,2.8-1.6
		c0.3-0.5,0.4-1,0.4-1.6c0-1.1-0.5-2-1.4-2.6c-0.5-0.4-1.1-0.6-1.8-0.6c-1.3,0-2.3,0.7-2.9,1.9C9.5,47.7,9.4,48.1,9.4,48.6z
		 M15.8,45v-3.4c0-0.4,0.3-0.8,0.7-0.8h0.2c0.5,0,0.7,0.4,0.7,0.8v7.2c0,1.7-0.8,3.1-2.4,4c-0.7,0.4-1.5,0.6-2.3,0.6h-0.3
		c-1.7,0-3.1-0.8-4-2.4c-0.4-0.7-0.6-1.5-0.6-2.3v-0.3c0-1.7,0.8-3.1,2.4-4c0.7-0.4,1.5-0.6,2.3-0.6h0.3C14,43.7,15,44.2,15.8,45z"
		/>
	<path id="path6" display="inline" fill="#394D54" d="M38.5,18.2h4.8v4.9h2.4c1.1,0,2.3-0.2,3.3-0.6c0.5-0.2,1.1-0.4,1.6-0.7
		c-0.7-0.9-1-2-1.1-3.1c-0.2-1.5,0.2-3.4,1.2-4.6l0.5-0.6l0.6,0.5c1.5,1.2,2.8,2.9,3,4.8c1.8-0.5,3.9-0.4,5.5,0.5l0.6,0.4l-0.4,0.7
		c-1.3,2.6-4.2,3.4-6.9,3.3c-4.1,10.3-13.1,15.2-24,15.2c-5.6,0-10.8-2.1-13.7-7.1l0.2-0.1l-0.4-0.8c-1-2.2-1.3-4.6-1.1-7l0.1-0.7
		h4.1v-4.9h4.8v-4.8h9.5V8.7h5.7L38.5,18.2L38.5,18.2z"/>
	<path id="path8" display="inline" fill="#00AADA" d="M29.6,38.1c-6,0-10.6-2.5-12.9-6.5L16.4,31c-1.1-2.1-1.5-4.5-1.3-7.1h30.5
		c2.5,0,4.9-1,6.1-2c-2.1-1.7-1.9-5.7-0.5-7.3c1.2,0.9,3,2.9,2.7,5.4c1.4-0.7,4-1.1,5.9,0.1c-1.2,2.4-3.9,3.1-6.7,2.8
		C49.2,33.4,40.2,38.1,29.6,38.1"/>
	<path id="path10" display="inline" fill="#24B8EB" d="M17,23.9h28.7c2.5,0,4.9-1,6.1-2c-2.1-1.7-1.9-5.7-0.5-7.3
		c1.2,0.9,3,2.9,2.7,5.4c0.1-0.1,0.1-0.1,0.2-0.1C49.8,25.6,43.6,30.4,36.9,33C25.3,37.5,16.6,33.3,17,23.9"/>
	<path id="path12" display="inline" fill="#008BB8" d="M29.6,38.1c-6,0-10.6-2.5-12.9-6.5L16.4,31c-0.6-1.2-1-2.5-1.2-3.9h35.9
		C46.5,34.7,38.7,38.1,29.6,38.1"/>
	<path id="path14" display="inline" fill="#039BC6" d="M17.2,27.1H47c-3.1,2.5-6.6,4.6-10.2,5.9C26.7,36.9,18.8,34.2,17.2,27.1"/>
	<path id="path16" display="inline" fill="#BFDBE0" d="M29.6,38.1c-5.9,0-9.1-2-11.6-4.5l4.7-0.2l2.9-0.6c0.8,2,2.4,3.9,5.3,5.2
		C30.5,38.1,30.1,38.1,29.6,38.1"/>
	<path id="path18" display="inline" fill="#D4EDF1" d="M22.7,33.8L22.7,33.8l3-1c0.3,0.7,0.6,1.3,1.1,2
		C25.3,34.6,23.9,34.3,22.7,33.8"/>
	<path id="path20" display="inline" fill="#00ACD3" d="M22.7,19.4H23v3.4h-0.3V19.4z M22.1,19.4h0.3v3.4h-0.3V19.4z M21.5,19.4h0.3
		v3.4h-0.3V19.4z M20.9,19.4h0.3v3.4h-0.3V19.4z M20.2,19.4h0.3v3.4h-0.3V19.4z M19.6,19.4h0.3v3.4h-0.3V19.4z M19.3,19h4.1v4.1
		h-4.1V19z"/>
	<path id="path22" display="inline" fill="#00ACD3" d="M27.5,14.6h0.3V18h-0.3V14.6z M26.9,14.6h0.3V18h-0.3V14.6z M26.2,14.6h0.3
		V18h-0.3V14.6z M25.7,14.6H26V18h-0.3V14.6z M25,14.6h0.3V18H25V14.6z M24.4,14.6h0.3V18h-0.3V14.6z M24.1,14.3h4.1v4.1h-4.1V14.3z
		"/>
	<path id="path24" display="inline" fill="#20C2EF" d="M27.5,19.4h0.3v3.4h-0.3V19.4z M26.9,19.4h0.3v3.4h-0.3V19.4z M26.2,19.4h0.3
		v3.4h-0.3V19.4z M25.7,19.4H26v3.4h-0.3V19.4z M25,19.4h0.3v3.4H25V19.4z M24.4,19.4h0.3v3.4h-0.3V19.4z M24.1,19h4.1v4.1h-4.1V19z
		"/>
	<path id="path26" display="inline" fill="#00ACD3" d="M32.3,19.4h0.3v3.4h-0.3V19.4z M31.6,19.4H32v3.4h-0.3v-3.4H31.6z M31,19.4
		h0.3v3.4H31V19.4z M30.4,19.4h0.3v3.4h-0.3V19.4z M29.8,19.4h0.3v3.4h-0.3V19.4z M29.1,19.4h0.3v3.4h-0.3V19.4z M28.8,19H33v4.1
		h-4.1V19H28.8z"/>
	<path id="path28" display="inline" fill="#20C2EF" d="M32.3,14.6h0.3V18h-0.3V14.6z M31.6,14.6H32V18h-0.3v-3.4H31.6z M31,14.6h0.3
		V18H31V14.6z M30.4,14.6h0.3V18h-0.3V14.6z M29.8,14.6h0.3V18h-0.3V14.6z M29.1,14.6h0.3V18h-0.3V14.6z M28.8,14.3H33v4.1h-4.1
		v-4.1C28.9,14.3,28.8,14.3,28.8,14.3z"/>
	<path id="path30" display="inline" fill="#20C2EF" d="M37,19.4h0.3v3.4H37V19.4z M36.4,19.4h0.3v3.4h-0.3V19.4z M35.8,19.4h0.3v3.4
		h-0.3V19.4z M35.2,19.4h0.3v3.4h-0.3V19.4z M34.6,19.4h0.3v3.4h-0.3V19.4z M33.9,19.4h0.3v3.4h-0.3V19.4z M33.6,19h4.1v4.1h-4.1
		C33.6,23.2,33.6,19,33.6,19z"/>
	<path id="path32" display="inline" fill="#00ACD3" d="M37,14.6h0.3V18H37V14.6z M36.4,14.6h0.3V18h-0.3V14.6z M35.8,14.6h0.3V18
		h-0.3V14.6z M35.2,14.6h0.3V18h-0.3V14.6z M34.6,14.6h0.3V18h-0.3V14.6z M33.9,14.6h0.3V18h-0.3V14.6z M33.6,14.3h4.1v4.1h-4.1
		V14.3z"/>
	<path id="path34" display="inline" fill="#20C2EF" d="M37,9.9h0.3v3.4H37V9.9z M36.4,9.9h0.3v3.4h-0.3V9.9z M35.8,9.9h0.3v3.4h-0.3
		V9.9z M35.2,9.9h0.3v3.4h-0.3V9.9z M34.6,9.9h0.3v3.4h-0.3V9.9z M33.9,9.9h0.3v3.4h-0.3V9.9z M33.6,9.5h4.1v4.1h-4.1V9.5z"/>
	<path id="path36" display="inline" fill="#00ACD3" d="M41.8,19.4h0.3v3.4h-0.3V19.4z M41.2,19.4h0.3v3.4h-0.3V19.4z M40.5,19.4h0.3
		v3.4h-0.3V19.4z M39.9,19.4h0.4v3.4H40L39.9,19.4L39.9,19.4z M39.3,19.4h0.3v3.4h-0.3V19.4z M38.7,19.4H39v3.4h-0.3V19.4z M38.4,19
		h4.1v4.1h-4.1V19z"/>
	<path id="path38" display="inline" fill="#D4EDF1" d="M27.9,29.8c0.6,0,1.1,0.5,1.1,1.1S28.5,32,27.9,32s-1.1-0.5-1.1-1.1
		C26.8,30.4,27.3,29.8,27.9,29.8"/>
	<path id="path40" display="inline" fill="#394D54" d="M27.9,30.2c0.1,0,0.2,0,0.3,0.1c-0.1,0.1-0.2,0.2-0.2,0.3
		c0,0.2,0.2,0.3,0.3,0.3c0.1,0,0.2-0.1,0.3-0.2c0.1,0.1,0.1,0.2,0.1,0.3c0,0.4-0.4,0.8-0.8,0.8s-0.8-0.4-0.8-0.8
		C27.1,30.5,27.5,30.2,27.9,30.2"/>
	<path id="path42" display="inline" fill="#394D54" d="M7.8,27.5h25h3.1h25c-1.2-0.3-3.7-0.7-3.2-2.2c-2.1,2.4-7.2,1.7-8.4,0.5
		c-1.4,2.1-9.7,1.3-10.3-0.3c-1.8,2.1-7.3,2.1-9.1,0c-0.6,1.6-8.9,2.4-10.3,0.3c-1.3,1.2-6.4,1.9-8.4-0.5
		C11.4,26.8,8.9,27.2,7.8,27.5"/>
	
		<path id="path44" display="inline" fill="none" stroke="#394D54" stroke-width="6.5739" stroke-linecap="round" stroke-linejoin="round" stroke-miterlimit="2.6131" d="
		M17.3,33.2c3,0.2,6.9,0.2,9-0.8"/>
</g>
<g id="g46" display="none">
	<path id="path48" display="inline" fill="#394D54" d="M12.5,31.6c0.6,0,1.2,0,1.7-0.1c0.1,0,0.1,0,0.2,0l0,0
		c1.4-0.1,2.6-0.3,3.6-0.6l0,0c0.2-0.1,0.4-0.1,0.5-0.2c0.2-0.1,0.3-0.3,0.2-0.5c-0.1-0.2-0.3-0.3-0.5-0.2c-1.3,0.4-3,0.7-5.1,0.7
		l0,0c-1.1,0-2.2,0-3.4-0.1l0,0c-0.1,0-0.1,0-0.2,0c-0.2,0-0.4,0.2-0.4,0.4c0,0.2,0.2,0.4,0.4,0.4c0.3,0,0.5,0.1,0.7,0.1
		c0.1,0,0.1,0,0.1,0l0,0C11.1,31.6,11.8,31.6,12.5,31.6z"/>
</g>
<g id="g51">
	<path id="path53" fill="#9CDAF1" d="M36.7,34c0,2-4.6,3.6-10.4,3.6C20.6,37.6,16,36,16,34s4.6-3.6,10.4-3.6
		C32.1,30.4,36.7,32,36.7,34z"/>
	<path id="path55" fill="#7DBBE6" d="M23.5,37.5v-2.6c0-0.3-0.1-0.6-0.2-0.8c0.7,0.5,0.7,1.8,0.7,1.8v1.7c0.6,0,1.2,0.1,1.9,0.1V36
		c-0.1-2.3-2-2.5-2-2.5c-0.7-0.2-0.7,0.2-0.6,0.4c-0.7-1.2-2.6-1-2.6-1c-0.6,0.2,0,0.6,0,0.6c1,0.4,1.1,1.5,1.1,1.5v2.3
		C22.3,37.4,22.9,37.4,23.5,37.5L23.5,37.5z"/>
	<path id="path57" fill="#7DBBE6" d="M31.7,32.8c0,0-1.9-0.2-2.6,1c0.1-0.2,0.1-0.6-0.6-0.4c0,0-1.9,0.3-2,2.5v1.7
		c0.6,0,1.3,0,1.9-0.1v-1.7c0,0,0-1.3,0.7-1.8c-0.1,0.2-0.2,0.5-0.2,0.8v2.6c0.6-0.1,1.2-0.1,1.8-0.2V35c0,0,0.1-1.1,1.1-1.5
		C31.7,33.5,32.3,33.1,31.7,32.8L31.7,32.8z"/>
	<path id="path59" d="M44.6,19v-0.1c-3-0.6-6.2-0.6-8.1-0.5c0.3-1.1,0.4-2.4,0.4-3.8c0-2.1-0.8-3.7-2-5c0.2-0.7,0.5-2.3-0.3-4.3
		c0,0-1.4-0.5-4.6,1.7c-1.3-0.3-2.6-0.5-3.9-0.5c-1.5,0-3,0.2-4.4,0.6C18.5,4.8,17,5.2,17,5.2c-1,2.4-0.4,4.2-0.2,4.6
		C15.7,11,15,12.6,15,14.5c0,1.4,0.2,2.7,0.6,3.8c-1.9-0.1-4.9,0-7.8,0.5v0.1c3-0.6,6-0.6,7.9-0.5c0.1,0.2,0.2,0.5,0.3,0.7
		c-1.9,0.1-5.1,0.3-8.1,1.2v0.1c3.1-0.9,6.3-1.1,8.2-1.2c1.1,2.1,3.3,3.4,7.2,3.9c-0.6,0.4-1.1,1-1.4,2.1c-0.8,0.4-3.2,1.2-4.6-1.2
		c0,0-0.8-1.5-2.4-1.6c0,0-1.5,0-0.1,0.9c0,0,1,0.5,1.7,2.2c0,0,0.9,3,5.3,2.1v3.1c0,0-0.1,1.1-1.1,1.5c0,0-0.6,0.4,0,0.6
		c0,0,2.8,0.2,2.8-2.1v-3.4c0,0-0.1-1.4,0.6-1.8v5.6c0,0,0,1.3-0.7,1.8c0,0-0.5,0.8,0.6,0.6c0,0,1.9-0.3,2-2.5v-5.7h0.5V31
		c0.1,2.3,2,2.5,2,2.5c1,0.2,0.6-0.6,0.6-0.6c-0.7-0.5-0.7-1.8-0.7-1.8v-5.6c0.7,0.5,0.6,1.8,0.6,1.8v3.4c0,2.3,2.8,2.1,2.8,2.1
		c0.6-0.2,0-0.6,0-0.6c-1-0.4-1.1-1.5-1.1-1.5v-4.5c0-1.7-0.7-2.7-1.5-3.2c4.2-0.4,6.2-1.8,7.1-3.9c1.8,0.1,5.1,0.3,8.3,1.2v-0.1
		c-3.1-0.9-6.4-1.1-8.3-1.2c0.1-0.2,0.2-0.4,0.2-0.7C38.4,18.4,41.6,18.4,44.6,19L44.6,19z"/>
	<path id="path61" fill="#F4CBB2" d="M32.9,14.4c0.9,0.8,1.4,1.8,1.4,2.9c0,5-3.7,5.1-8.3,5.1s-8.3-0.7-8.3-5.1c0-1.1,0.5-2,1.4-2.8
		c1.5-1.4,4-0.6,6.8-0.6C28.9,13.7,31.4,13,32.9,14.4L32.9,14.4z"/>
	<path id="path63" fill="#FFFFFF" d="M23.3,17.5c0,1.4-0.8,2.5-1.7,2.5c-0.9,0-1.7-1.1-1.7-2.5s0.8-2.5,1.7-2.5
		C22.6,15,23.3,16.1,23.3,17.5z M32.6,17.5c0,1.4-0.8,2.5-1.7,2.5c-0.9,0-1.7-1.1-1.7-2.5S30,15,30.9,15S32.6,16.1,32.6,17.5z"/>
	<path id="path65" fill="#AD5C51" d="M22.8,17.5c0,0.9-0.5,1.6-1.1,1.6s-1.1-0.7-1.1-1.6s0.5-1.6,1.1-1.6S22.8,16.6,22.8,17.5
		L22.8,17.5z M32,17.5c0,0.9-0.5,1.6-1.1,1.6s-1.1-0.7-1.1-1.6s0.5-1.6,1.1-1.6S32,16.6,32,17.5L32,17.5z"/>
	<circle id="circle67" fill="#AD5C51" cx="26.1" cy="19.7" r="0.4"/>
	<path id="path69" fill="#AD5C51" d="M25.1,20.8c0-0.1,0-0.2,0.1-0.2s0.2,0,0.2,0.1c0.1,0.3,0.4,0.5,0.7,0.5c0.3,0,0.6-0.2,0.7-0.5
		c0-0.1,0.1-0.1,0.2-0.1s0.1,0.1,0.1,0.2c-0.1,0.4-0.6,0.7-1,0.7C25.7,21.5,25.3,21.2,25.1,20.8L25.1,20.8z"/>
	<path id="path71" fill="#C3E4D8" d="M15.6,22.7c0,0.1-0.1,0.2-0.3,0.2S15,22.8,15,22.7s0.1-0.2,0.3-0.2S15.6,22.6,15.6,22.7
		L15.6,22.7z M16.4,23.2c0,0.1-0.1,0.2-0.3,0.2c-0.2,0-0.3-0.1-0.3-0.2s0.1-0.2,0.3-0.2C16.3,23,16.4,23.1,16.4,23.2L16.4,23.2z
		 M16.9,23.8c0,0.1-0.1,0.2-0.3,0.2c-0.2,0-0.3-0.1-0.3-0.2s0.1-0.2,0.3-0.2C16.8,23.6,16.9,23.7,16.9,23.8L16.9,23.8z M17.4,24.5
		c0,0.1-0.1,0.2-0.3,0.2c-0.2,0-0.3-0.1-0.3-0.2s0.1-0.2,0.3-0.2S17.4,24.4,17.4,24.5L17.4,24.5z M17.9,25.1c0,0.1-0.1,0.2-0.3,0.2
		c-0.2,0-0.3-0.1-0.3-0.2s0.1-0.2,0.3-0.2S17.9,25,17.9,25.1L17.9,25.1z M18.6,25.7c0,0.1-0.1,0.2-0.3,0.2c-0.2,0-0.3-0.1-0.3-0.2
		s0.1-0.2,0.3-0.2S18.6,25.6,18.6,25.7L18.6,25.7z M19.6,26c0,0.1-0.1,0.2-0.3,0.2c-0.2,0-0.3-0.1-0.3-0.2s0.1-0.2,0.3-0.2
		C19.4,25.8,19.6,25.9,19.6,26L19.6,26z M20.5,26c0,0.1-0.1,0.2-0.3,0.2c-0.2,0-0.3-0.1-0.3-0.2s0.1-0.2,0.3-0.2S20.5,25.9,20.5,26
		L20.5,26z M21.5,25.9c0,0.1-0.1,0.2-0.3,0.2c-0.2,0-0.3-0.1-0.3-0.2s0.1-0.2,0.3-0.2C21.4,25.7,21.5,25.8,21.5,25.9L21.5,25.9z"/>
	<path id="path73" fill="#9CDAF1" d="M14.5,23.3l-0.3,1c0,0-0.1,0.4,0.3,0.4c0.4,0,0.3-0.4,0.3-0.5L14.5,23.3z"/>
</g>
<g>
	<path fill="#0F0D0E" d="M13.9,45.8h-3.4c-0.1,0-0.2,0.1-0.2,0.2v1.6c0,0.1,0.1,0.2,0.2,0.2h1.3v2c0,0-0.3,0.1-1.1,0.1
		c-1,0-2.3-0.4-2.3-3.3c0-3,1.4-3.3,2.7-3.3c1.1,0,1.6,0.2,1.9,0.3c0.1,0,0.2-0.1,0.2-0.2l0.4-1.6c0,0,0-0.1-0.1-0.1
		c-0.1-0.1-0.9-0.5-2.8-0.5c-2.2,0-4.5,1-4.5,5.5c0,4.6,2.6,5.3,4.9,5.3c1.8,0,3-0.8,3-0.8c0,0,0.1-0.1,0.1-0.1V46
		C14.1,45.9,14,45.8,13.9,45.8z"/>
	<path fill="#0F0D0E" d="M31.2,41.8c0-0.1-0.1-0.2-0.2-0.2h-1.9c-0.1,0-0.2,0.1-0.2,0.2c0,0,0,3.7,0,3.7h-3v-3.7
		c0-0.1-0.1-0.2-0.2-0.2H24c-0.1,0-0.2,0.1-0.2,0.2v9.9c0,0.1,0.1,0.2,0.2,0.2h1.9c0.1,0,0.2-0.1,0.2-0.2v-4.2h3c0,0,0,4.2,0,4.2
		c0,0.1,0.1,0.2,0.2,0.2h1.9c0.1,0,0.2-0.1,0.2-0.2V41.8z"/>
	<g>
		<g>
			<ellipse fill="#0F0D0E" cx="16.3" cy="43.1" rx="1.2" ry="1.2"/>
			<path fill="#0F0D0E" d="M17.3,49.6c0-0.3,0-4.6,0-4.6c0-0.1-0.1-0.2-0.2-0.2h-1.9c-0.1,0-0.2,0.1-0.2,0.2c0,0,0,5.5,0,6.5
				c0,0.2,0.1,0.2,0.3,0.2c0,0,0.8,0,1.7,0c0.2,0,0.2-0.1,0.2-0.3C17.3,51.2,17.3,49.9,17.3,49.6z"/>
		</g>
	</g>
	<path fill="#0F0D0E" d="M38.4,44.9h-1.9c-0.1,0-0.2,0.1-0.2,0.2v4.9c0,0-0.5,0.3-1.2,0.3c-0.7,0-0.9-0.3-0.9-1c0-0.7,0-4.2,0-4.2
		c0-0.1-0.1-0.2-0.2-0.2h-1.9c-0.1,0-0.2,0.1-0.2,0.2c0,0,0,2.6,0,4.6c0,2,1.1,2.5,2.6,2.5c1.2,0,2.2-0.7,2.2-0.7s0,0.4,0.1,0.4
		c0,0,0.1,0.1,0.1,0.1l1.2,0c0.1,0,0.2-0.1,0.2-0.2l0-6.6C38.6,44.9,38.5,44.9,38.4,44.9z"/>
	<path fill="#0F0D0E" d="M43.6,44.6c-1.1,0-1.8,0.5-1.8,0.5v-3.4c0-0.1-0.1-0.2-0.2-0.2h-1.9c-0.1,0-0.2,0.1-0.2,0.2v9.9
		c0,0.1,0.1,0.2,0.2,0.2c0,0,1.3,0,1.3,0c0.1,0,0.1,0,0.1-0.1c0-0.1,0.1-0.5,0.1-0.5S42,52,43.5,52c1.7,0,2.7-0.9,2.7-3.9
		C46.2,45,44.6,44.6,43.6,44.6z M42.8,50.2c-0.7,0-1.1-0.3-1.1-0.3v-3.1c0,0,0.4-0.3,1-0.3c0.7-0.1,1.3,0.1,1.3,1.8
		C44,49.9,43.7,50.3,42.8,50.2z"/>
	<path fill="#0F0D0E" d="M22.8,44.9h-1.4c0,0,0-1.9,0-1.9c0-0.1,0-0.1-0.1-0.1h-1.9c-0.1,0-0.1,0-0.1,0.1v1.9c0,0-1,0.2-1,0.3
		c-0.1,0-0.1,0.1-0.1,0.2v1.2c0,0.1,0.1,0.2,0.2,0.2h1c0,0,0,1.3,0,2.9c0,2.2,1.5,2.4,2.6,2.4c0.5,0,1-0.2,1.1-0.2
		c0.1,0,0.1-0.1,0.1-0.1l0-1.3c0-0.1-0.1-0.2-0.2-0.2c-0.1,0-0.3,0-0.5,0c-0.7,0-0.9-0.3-0.9-0.7c0-0.4,0-2.8,0-2.8h1.4
		c0.1,0,0.2-0.1,0.2-0.2V45C22.9,44.9,22.9,44.9,22.8,44.9z"/>
</g>
</svg>
