<?xml version="1.0" encoding="utf-8"?>
<!-- Generator: Adobe Illustrator 19.1.0, SVG Export Plug-In . SVG Version: 6.00 Build 0)  -->
<svg version="1.1" id="Layer_1" xmlns="http://www.w3.org/2000/svg" xmlns:xlink="http://www.w3.org/1999/xlink" x="0px" y="0px"
	 viewBox="-349 251 100 100" style="enable-background:new -349 251 100 100;" xml:space="preserve">
<style type="text/css">
	.st0{fill:#DFEFF9;stroke:#3498DB;stroke-width:1.3888;stroke-miterlimit:10;}
	.st1{fill:#666666;}
</style>
<g>
	<path class="st0" d="M-299,261c-17,0-30.8,13.7-30.8,30.8c0,13.6,8.8,25.1,21,29.2c1.5,0.3,2.1-0.7,2.1-1.5s0-2.6-0.1-5.2
		c-8.5,1.8-10.3-4.2-10.3-4.2c-1.4-3.5-3.4-4.5-3.4-4.5c-2.8-1.9,0.2-1.9,0.2-1.9c3.1,0.2,4.7,3.2,4.7,3.2c2.8,4.7,7.2,3.3,9,2.6
		c0.3-2,1-3.3,1.9-4.1c-6.8-0.8-14-3.4-14-15.2c0-3.3,1.2-6.1,3.2-8.3c-0.3-0.8-1.4-3.9,0.3-8.1c0,0,2.6-0.8,8.5,3.1
		c2.4-0.7,5.1-1,7.7-1s5.3,0.3,7.7,1c5.9-4,8.5-3.1,8.5-3.1c1.7,4.2,0.6,7.4,0.3,8.1c1.9,2.2,3.2,4.9,3.2,8.3
		c0,11.8-7.2,14.4-14,15.2c1.1,1,2.1,2.8,2.1,5.7c-0.1,4.1-0.1,7.4-0.1,8.4c0,0.8,0.6,1.8,2.1,1.5c12.2-4.1,21-15.6,21-29.2
		C-268.2,274.8-282,261-299,261z"/>
</g>
<g>
	<path class="st1" d="M-318.1,335.3v4.1c-0.5,0.4-1.1,0.7-1.6,0.8s-1.2,0.3-1.9,0.3c-0.8,0-1.6-0.1-2.2-0.4
		c-0.7-0.3-1.2-0.6-1.7-1.1c-0.5-0.5-0.8-1-1.1-1.6c-0.3-0.6-0.4-1.3-0.4-2.1c0-0.8,0.1-1.5,0.4-2.1c0.2-0.6,0.6-1.2,1.1-1.6
		c0.5-0.5,1-0.8,1.7-1.1c0.6-0.3,1.4-0.4,2.2-0.4c0.4,0,0.8,0,1.2,0.1c0.4,0.1,0.7,0.2,1,0.3c0.3,0.1,0.6,0.3,0.8,0.4
		s0.5,0.3,0.7,0.5l-0.5,0.9c-0.1,0.1-0.2,0.2-0.3,0.2c-0.1,0-0.3,0-0.4-0.1c-0.2-0.1-0.3-0.2-0.5-0.3c-0.2-0.1-0.3-0.2-0.5-0.2
		c-0.2-0.1-0.4-0.1-0.6-0.2c-0.2,0-0.5-0.1-0.8-0.1c-0.5,0-1,0.1-1.4,0.3c-0.4,0.2-0.7,0.4-1,0.7s-0.5,0.7-0.7,1.1
		c-0.2,0.4-0.2,0.9-0.2,1.5c0,0.6,0.1,1.1,0.2,1.5c0.2,0.5,0.4,0.8,0.7,1.2c0.3,0.3,0.7,0.6,1.1,0.7c0.4,0.2,0.9,0.2,1.4,0.2
		c0.4,0,0.7,0,1-0.1s0.6-0.2,0.9-0.3v-1.8h-1.3c-0.1,0-0.2,0-0.3-0.1c-0.1-0.1-0.1-0.2-0.1-0.2v-1.1H-318.1z"/>
	<path class="st1" d="M-314.4,340.4h-1.9v-10.1h1.9V340.4z"/>
	<path class="st1" d="M-305.1,331.8h-3.1v8.6h-1.9v-8.6h-3.1v-1.5h8V331.8z"/>
	<path class="st1" d="M-295.2,330.3v10.1h-1.9V336h-4.8v4.4h-1.9v-10.1h1.9v4.4h4.8v-4.4H-295.2z"/>
	<path class="st1" d="M-288.9,338.9c0.4,0,0.7-0.1,1-0.2c0.3-0.1,0.5-0.3,0.7-0.5c0.2-0.2,0.3-0.5,0.5-0.8c0.1-0.3,0.2-0.7,0.2-1
		v-6.1h1.9v6.1c0,0.6-0.1,1.2-0.3,1.7c-0.2,0.5-0.5,1-0.8,1.3c-0.4,0.4-0.8,0.7-1.3,0.9c-0.5,0.2-1.1,0.3-1.8,0.3
		c-0.7,0-1.2-0.1-1.8-0.3c-0.5-0.2-1-0.5-1.3-0.9c-0.4-0.4-0.6-0.8-0.8-1.3s-0.3-1.1-0.3-1.7v-6.1h1.9v6.1c0,0.4,0.1,0.7,0.2,1.1
		c0.1,0.3,0.3,0.6,0.5,0.8s0.4,0.4,0.7,0.5S-289.3,338.9-288.9,338.9z"/>
	<path class="st1" d="M-279.1,330.3c0.7,0,1.2,0.1,1.7,0.2c0.5,0.1,0.9,0.3,1.2,0.5c0.3,0.2,0.5,0.5,0.7,0.8
		c0.1,0.3,0.2,0.7,0.2,1.1c0,0.2,0,0.5-0.1,0.7c-0.1,0.2-0.2,0.4-0.3,0.6c-0.1,0.2-0.3,0.4-0.6,0.5s-0.5,0.3-0.8,0.4
		c1.4,0.3,2.1,1.1,2.1,2.3c0,0.4-0.1,0.8-0.2,1.2c-0.2,0.4-0.4,0.7-0.7,0.9s-0.7,0.5-1.2,0.6c-0.5,0.1-1,0.2-1.6,0.2h-3.8v-10.1
		H-279.1z M-280.7,331.7v2.9h1.5c0.6,0,1.1-0.1,1.5-0.3s0.5-0.6,0.5-1.1c0-0.5-0.1-0.9-0.4-1.1c-0.3-0.2-0.8-0.3-1.4-0.3H-280.7z
		 M-278.8,338.9c0.4,0,0.6,0,0.9-0.1c0.2-0.1,0.4-0.2,0.6-0.3c0.1-0.1,0.2-0.3,0.3-0.5c0.1-0.2,0.1-0.4,0.1-0.6c0-0.2,0-0.4-0.1-0.6
		c-0.1-0.2-0.2-0.3-0.3-0.4c-0.1-0.1-0.3-0.2-0.6-0.3s-0.5-0.1-0.9-0.1h-1.9v3H-278.8z"/>
</g>
</svg>
