<?xml version="1.0" encoding="utf-8"?>
<!-- Generator: Adobe Illustrator 22.1.0, SVG Export Plug-In . SVG Version: 6.00 Build 0)  -->
<svg version="1.1" id="Layer_1" xmlns="http://www.w3.org/2000/svg" xmlns:xlink="http://www.w3.org/1999/xlink" x="0px" y="0px"
	 viewBox="0 0 100 100" style="enable-background:new 0 0 100 100;" xml:space="preserve">
<style type="text/css">
	.st0{fill:#181616;}
</style>
<path class="st0" d="M50,25c-14.0999985-0.1000004-25.6000004,11.4000015-25.7000008,25.5
	c0,11.0999985,7.1000004,21,17.6000023,24.4000015c0.7000008,0.3000031,1.4000015-0.0999985,1.7000008-0.6999969
	c0.0999985-0.1999969,0.0999985-0.3000031,0.0999985-0.5v-4.4000015c-7.0999985,1.5999985-8.6000023-3.4000015-8.6000023-3.4000015
	c-1.2000008-3-2.7999992-3.7000008-2.7999992-3.7000008C29.8999996,60.6000023,32.5,60.6000023,32.5,60.6000023
	c1.5999985,0.2000008,3.0999985,1.2000008,3.9000015,2.5999985c2.2999992,3.8999977,6,2.7999992,7.4000015,2.1000023
	c0.0999985-1.3000031,0.7000008-2.5,1.5999985-3.4000015c-5.7000008-0.5999985-11.7000008-2.7999992-11.7000008-12.5999985
	c0-2.5,0.9000015-5,2.5999985-6.9000015C35.5,40.2000008,35.5999985,37.8000031,36.5,35.6000023
	c0,0,2.0999985-0.7000008,7.0999985,2.5999985c4.2000008-1.0999985,8.5999985-1.0999985,12.7999992,0
	c4.9000015-3.2999992,7-2.5999985,7-2.5999985c0.8999977,2.0999985,0.9999962,4.5999985,0.2000008,6.7999992
	c1.6999969,1.9000015,2.6999969,4.2999992,2.5999985,6.9000015c0,9.7999992-6,12-11.7000008,12.5999985
	c1.2000008,1.2000008,1.9000015,3,1.7000008,4.6999969v7c0,0.6999969,0.5,1.3000031,1.2000008,1.3000031
	c0.2000008,0,0.2999992,0,0.5-0.0999985c13.3999977-4.5,20.6000023-19,16.1000023-32.4000015C70.8000031,32,61,25,50,25z"/>
</svg>
