<?xml version="1.0" encoding="utf-8"?>
<!-- Generator: Adobe Illustrator 19.2.1, SVG Export Plug-In . SVG Version: 6.00 Build 0)  -->
<svg version="1.1" id="Layer_1" xmlns="http://www.w3.org/2000/svg" xmlns:xlink="http://www.w3.org/1999/xlink" x="0px" y="0px"
	 viewBox="0 0 100 100" style="enable-background:new 0 0 100 100;" xml:space="preserve">
<style type="text/css">
	.st0{fill:#6E5494;}
</style>
<g>
	<path class="st0" d="M50,1.3c-27.6,0-50,22.2-50,50C0,73.3,14.3,92,34.1,98.7c2.4,0.5,3.4-1.1,3.4-2.4s0-4.2-0.2-8.4
		C23.5,90.7,20.6,81,20.6,81c-2.3-5.7-5.5-7.3-5.5-7.3c-4.5-3.1,0.3-3.1,0.3-3.1c5,0.3,7.6,5.2,7.6,5.2c4.5,7.6,11.7,5.4,14.6,4.2
		c0.5-3.2,1.6-5.4,3.1-6.7C29.7,72,18,67.8,18,48.7c0-5.4,1.9-9.9,5.2-13.5c-0.5-1.3-2.3-6.3,0.5-13.1c0,0,4.2-1.3,13.8,5
		c3.9-1.1,8.3-1.6,12.5-1.6s8.6,0.5,12.5,1.6c9.6-6.5,13.8-5,13.8-5c2.8,6.8,1,12,0.5,13.1c3.1,3.6,5.2,8,5.2,13.5
		C82,67.8,70.3,72,59.3,73.3c1.8,1.6,3.4,4.5,3.4,9.3c-0.2,6.7-0.2,12-0.2,13.6c0,1.3,1,2.9,3.4,2.4C85.7,92,100,73.3,100,51.3
		C100,23.7,77.6,1.3,50,1.3z"/>
</g>
</svg>
