<?xml version="1.0" encoding="utf-8"?>
<!-- Generator: Adobe Illustrator 22.1.0, SVG Export Plug-In . SVG Version: 6.00 Build 0)  -->
<svg version="1.1" id="Layer_1" xmlns="http://www.w3.org/2000/svg" xmlns:xlink="http://www.w3.org/1999/xlink" x="0px" y="0px"
	 viewBox="0 0 100 100" style="enable-background:new 0 0 100 100;" xml:space="preserve">
<style type="text/css">
	.st0{fill:none;stroke:#3780B3;stroke-miterlimit:10;}
	.st1{fill:#E24329;}
	.st2{fill:#FC6D26;}
	.st3{fill:#FCA326;}
</style>
<path class="st0" d="M255.2165222,824.0476074L255.2165222,824.0476074L255.2165222,824.0476074"/>
<g id="logo">
	<path id="Fill-14" class="st1" d="M50.0518456,75L50.0518456,75l9.9687843-30.6806946H40.0830574L50.0518456,75L50.0518456,75z"/>
	<path id="Fill-15" class="st1" d="M22.8776703,25"/>
	<path id="Fill-16" class="st2" d="M50.0518456,74.999939l-9.9687881-30.6805496H26.1119823L50.0518456,74.999939z"/>
	<path id="Fill-17" class="st2" d="M22.8776703,25"/>
	<path id="Fill-18" class="st3" d="M26.1119823,44.3193474L26.1119823,44.3193474l-3.0294933,9.3235779
		c-0.2762871,0.8504105,0.0263844,1.7820206,0.7498627,2.3074799l26.2194939,19.0494957L26.1119823,44.3193474z"/>
	<path id="Fill-19" class="st3" d="M22.8776703,25"/>
	<path id="Fill-20" class="st1" d="M26.1119823,44.3193779h13.9710751l-6.0041656-18.4787445
		c-0.3089752-0.9508114-1.6540642-0.9508114-1.9628906,0L26.1119823,44.3193779z"/>
	<path id="Fill-21" class="st2" d="M50.0518456,74.999939l9.9687843-30.6805496h13.971077L50.0518456,74.999939z"/>
	<path id="Fill-22" class="st3" d="M73.9916916,44.3193474L73.9916916,44.3193474l3.0294876,9.3235779
		c0.2762909,0.8504105-0.0263824,1.7820206-0.749855,2.3074799L50.0518303,74.9999008L73.9916916,44.3193474z"/>
	<path id="Fill-23" class="st1" d="M73.9916916,44.3193779h-13.971077l6.0041656-18.4787445
		c0.3089752-0.9508114,1.654068-0.9508114,1.9628906,0L73.9916916,44.3193779z"/>
</g>
</svg>
