<?xml version="1.0" encoding="utf-8"?>
<!-- Generator: Adobe Illustrator 17.0.0, SVG Export Plug-In . SVG Version: 6.00 Build 0)  -->
<!DOCTYPE svg PUBLIC "-//W3C//DTD SVG 1.1//EN" "http://www.w3.org/Graphics/SVG/1.1/DTD/svg11.dtd">
<svg version="1.1" id="Layer_1" xmlns="http://www.w3.org/2000/svg" xmlns:xlink="http://www.w3.org/1999/xlink" x="0px" y="0px" viewBox="100 100 412 600" style="enable-background:new 100 100 412 600;" xml:space="preserve">
<style type="text/css">
	.st0{fill:#666666;}
	.st1{fill:none;stroke:#3780B3;stroke-miterlimit:10;}
	.st2{fill:#ADDFF7;}
	.st3{fill:#C6E7F7;}
	.st4{fill:#DFEFF9;}
	.st5{fill:#3498DB;}
</style>
<g>
	<path class="st0" d="M308.495,577.641h-8.075l0.026,60.067h32.667v-7.428h-24.592L308.495,577.641L308.495,577.641z
		 M364.219,627.161c-2.019,2.109-5.414,4.219-10.002,4.219c-6.148,0-8.625-3.027-8.625-6.971c0-5.96,4.129-8.803,12.939-8.803
		c1.652,0,4.313,0.183,5.689,0.458L364.219,627.161L364.219,627.161z M355.869,590.754c-6.521,0-12.502,2.31-17.169,6.156
		l2.854,4.942c3.303-1.926,7.34-3.852,13.121-3.852c6.607,0,9.543,3.393,9.543,9.079v2.935c-1.285-0.276-3.945-0.46-5.598-0.46
		c-14.131,0-21.289,4.952-21.289,15.315c0,9.262,5.689,13.939,14.314,13.939c5.811,0,11.379-2.66,13.306-6.969l1.468,5.868h5.69
		v-30.72C372.11,597.266,367.889,590.755,355.869,590.754L355.869,590.754z M398.165,631.654c-3.029,0-5.69-0.367-7.708-1.284
		v-27.786c2.753-2.293,6.149-3.944,10.461-3.944c7.799,0,10.827,5.502,10.827,14.398
		C411.746,625.693,406.882,631.654,398.165,631.654 M401.559,590.754c-7.217,0-11.102,4.907-11.102,4.907v-7.749l-0.026-10.27
		h-7.891l0.026,58.598c3.945,1.65,9.359,2.567,15.232,2.567c15.049,0,22.298-9.628,22.298-26.227
		C420.096,599.466,413.396,590.754,401.559,590.754 M220.717,584.152c7.157,0,11.746,2.384,14.774,4.769l3.47-6.008
		c-4.73-4.145-11.091-6.373-17.877-6.373c-17.159,0-29.179,10.454-29.179,31.546c0,22.101,12.968,30.721,27.803,30.721
		c7.433,0,13.765-1.742,17.894-3.484l-0.169-23.614v-7.427H215.41v7.428h14.039l0.17,17.928c-1.835,0.917-5.046,1.651-9.359,1.651
		c-11.929,0-19.912-7.5-19.912-23.293C200.346,591.947,208.605,584.151,220.717,584.152 M277.506,577.641h-7.892l0.026,10.088
		v34.847c0,9.72,4.221,16.231,16.241,16.231c1.661,0,3.286-0.151,4.864-0.437v-7.082c-1.142,0.175-2.361,0.274-3.67,0.274
		c-6.607,0-9.543-3.393-9.543-9.078v-24.026h13.214v-6.603h-13.214C277.532,591.854,277.506,577.641,277.506,577.641z
		 M249.59,637.707h7.892v-45.853h-7.892v45.852V637.707z M249.59,585.528h7.892v-7.887h-7.892V585.528z"/>
</g>
<path class="st1" d="M605.241,256.971L605.241,256.971L605.241,256.971"/>
<g>
	<path class="st2" d="M306,520.103l72.946-226.464H233.059l72.943,226.464H306z"/>
	<path class="st3" d="M306,520.103l-72.946-226.464H130.82l175.182,226.462L306,520.103z"/>
	<path class="st4" d="M130.821,293.639l-22.169,68.819c-2.021,6.278,0.193,13.156,5.488,17.033L306,520.103L130.821,293.638V293.639
		z"/>
	<path class="st2" d="M130.821,293.639h102.234l-43.937-136.398c-2.26-7.018-12.102-7.018-14.361,0L130.821,293.639L130.821,293.639
		z"/>
	<path class="st3" d="M306,520.103l72.946-226.464H481.18L306.002,520.101L306,520.103z"/>
	<path class="st4" d="M481.179,293.639l22.169,68.819c2.021,6.278-0.193,13.156-5.488,17.033L306,520.103L481.179,293.639
		L481.179,293.639L481.179,293.639z"/>
	<path class="st2" d="M481.179,293.639H378.945l43.937-136.398c2.261-7.018,12.104-7.018,14.363,0L481.179,293.639L481.179,293.639z
		"/>
</g>
<g>
	<path class="st5" d="M430.063,151.978c3.026,0,6.051,1.754,7.181,5.263l43.934,136.398h0h0.002l22.169,68.819
		c2.021,6.278-0.193,13.156-5.488,17.033L306,520.103L114.14,379.491c-5.295-3.877-7.509-10.755-5.488-17.033l22.169-68.819v-0.001
		l-0.001,0.001l43.937-136.398c1.13-3.509,4.155-5.263,7.18-5.263s6.051,1.754,7.181,5.263l43.937,136.398h145.889l43.937-136.398
		C424.011,153.732,427.037,151.978,430.063,151.978 M430.063,143.978c-6.873,0-12.681,4.243-14.797,10.81l-42.15,130.851H238.883
		l-42.15-130.851c-2.115-6.567-7.922-10.811-14.796-10.811c-6.874,0-12.681,4.244-14.795,10.812l-43.937,136.396
		c-0.011,0.034-0.021,0.067-0.032,0.1l-22.136,68.718c-3.087,9.588,0.28,20.012,8.377,25.941l191.857,140.61
		c1.408,1.032,3.068,1.547,4.729,1.547s3.322-0.516,4.729-1.547l191.86-140.612c8.094-5.926,11.46-16.35,8.374-25.937l-22.169-68.82
		c-0.016-0.049-0.032-0.098-0.049-0.147l-43.887-136.251C442.745,148.222,436.937,143.978,430.063,143.978L430.063,143.978z"/>
</g>
</svg>