<svg id="Layer_1" data-name="Layer 1" xmlns="http://www.w3.org/2000/svg" xmlns:xlink="http://www.w3.org/1999/xlink" viewBox="0 0 293 67.6"><defs><style>.cls-1{fill:#4285f4;}.cls-2{fill:#ea4335;}.cls-3{fill:#fbbc05;}.cls-4{fill:#34a853;}.cls-5{fill:none;}.cls-6{fill:#757575;}.cls-7{fill:#4489f2;}.cls-8{fill:#407fdd;}.cls-9{fill:#fff;}</style><symbol id="logo_color" data-name="logo_color" viewBox="0 0 416 136"><path class="cls-1" d="M.7,52.6C.7,23.6,25,.1,54,.1A50.12,50.12,0,0,1,90,14.6L79.8,24.7A36.19,36.19,0,0,0,54,14.4c-21.1,0-37.6,17-37.6,38.1S32.9,90.6,54,90.6c13.7,0,21.5-5.5,26.5-10.5,4.1-4.1,6.8-10,7.8-18H54V47.8h48.3a47.76,47.76,0,0,1,.8,9c0,10.8-2.9,24.1-12.4,33.5C81.4,99.9,69.6,105,54,105,25,105,.7,81.5.7,52.6Z"/><path class="cls-2" d="M142,37.5c-18.7,0-33.9,14.2-33.9,33.8s15.2,33.8,33.9,33.8,33.9-14.3,33.9-33.8S160.7,37.5,142,37.5Zm0,54.2c-10.2,0-19.1-8.4-19.1-20.5s8.8-20.5,19.1-20.5,19.1,8.3,19.1,20.5S152.2,91.7,142,91.7Z"/><path class="cls-3" d="M216,37.5c-18.7,0-33.9,14.2-33.9,33.8s15.2,33.8,33.9,33.8,33.9-14.3,33.9-33.8S234.7,37.5,216,37.5Zm0,54.2c-10.2,0-19.1-8.4-19.1-20.5s8.8-20.5,19.1-20.5,19.1,8.3,19.1,20.5S226.2,91.7,216,91.7Z"/><path class="cls-1" d="M306.8,39.5V45h-.5c-3.3-4-9.7-7.6-17.8-7.6-16.9,0-32.4,14.8-32.4,33.9,0,18.9,15.5,33.7,32.4,33.7,8.1,0,14.5-3.6,17.8-7.7h.5v4.9c0,12.9-6.9,19.8-18,19.8-9.1,0-14.7-6.5-17-12l-12.9,5.4a32.21,32.21,0,0,0,30,20c17.4,0,32.1-10.2,32.1-35.2V39.5Zm-17,52.2c-10.2,0-18.8-8.6-18.8-20.4s8.6-20.6,18.8-20.6,18,8.7,18,20.6S299.9,91.7,289.8,91.7Z"/><path class="cls-4" d="M331.2,103H346V3.7H331.2Z"/><path class="cls-2" d="M386.7,91.7c-7.6,0-12.9-3.5-16.4-10.2l45.2-18.7L414,59c-2.8-7.6-11.4-21.5-28.9-21.5s-31.9,13.7-31.9,33.8c0,18.9,14.3,33.8,33.5,33.8a33.84,33.84,0,0,0,28.2-15l-11.5-7.7c-3.9,5.6-9.1,9.3-16.7,9.3Zm-1.1-41.2c5.9,0,10.9,2.9,12.5,7.2L367.9,70.2C367.5,57.2,378,50.5,385.6,50.5Z"/><path class="cls-5" d="M0,136H416V0H0Z"/></symbol></defs><title>gce</title><path class="cls-6" d="M110,55.52a9.46,9.46,0,0,1-9.62-9.68A9.46,9.46,0,0,1,110,36.16a8.56,8.56,0,0,1,6.8,3l-1.66,1.6A6.25,6.25,0,0,0,110,38.44a7,7,0,0,0-5.11,2,7.17,7.17,0,0,0-2.08,5.36,7.17,7.17,0,0,0,2.08,5.36,7,7,0,0,0,5.11,2,7.3,7.3,0,0,0,5.69-2.69l1.66,1.66a9,9,0,0,1-3.18,2.42A9.73,9.73,0,0,1,110,55.52Z"/><path class="cls-6" d="M120.29,43.94a6.65,6.65,0,0,1,9.37,0,7.26,7.26,0,0,1,0,9.65,6.65,6.65,0,0,1-9.37,0,7.25,7.25,0,0,1,0-9.65Zm1.77,8.15a4,4,0,0,0,5.82,0,5.11,5.11,0,0,0,0-6.65,4,4,0,0,0-5.82,0,5.11,5.11,0,0,0,0,6.65Z"/><path class="cls-6" d="M135.68,42.42v1.76h.1a4.21,4.21,0,0,1,1.63-1.54,4.72,4.72,0,0,1,2.38-.63,4.48,4.48,0,0,1,3.6,1.45,5.76,5.76,0,0,1,1.24,3.88V55.1h-2.38V47.7q0-3.52-3.13-3.52a2.93,2.93,0,0,0-2.41,1.18,4.28,4.28,0,0,0-.93,2.73v7H133.4V42.42Z"/><path class="cls-6" d="M152.26,55.31a3.68,3.68,0,0,1-4.09-4.06V44.6h-2.23V42.42h2.23V38.54h2.38v3.88h3.1V44.6h-3.1v6.47q0,2.07,1.71,2.07a2.54,2.54,0,0,0,1.09-.21l.83,2A4.83,4.83,0,0,1,152.26,55.31Z"/><path class="cls-6" d="M159.69,55.52a5,5,0,0,1-3.38-1.16A3.86,3.86,0,0,1,155,51.27a3.81,3.81,0,0,1,1.6-3.25,6.51,6.51,0,0,1,4-1.18,6.82,6.82,0,0,1,3.44.78v-.36A2.83,2.83,0,0,0,163,45a3.44,3.44,0,0,0-2.35-.84,3.64,3.64,0,0,0-1.88.49A2.53,2.53,0,0,0,157.62,46l-2.17-.93A4.93,4.93,0,0,1,157.18,43a5.55,5.55,0,0,1,3.41-1,5.86,5.86,0,0,1,4,1.42,5.08,5.08,0,0,1,1.6,4V55.1H164V53.34h-.1A4.67,4.67,0,0,1,159.69,55.52Zm.39-2.17a3.87,3.87,0,0,0,2.68-1.1,3.41,3.41,0,0,0,1.2-2.6,4.7,4.7,0,0,0-3-.83,3.94,3.94,0,0,0-2.61.75,2.25,2.25,0,0,0-.88,1.76,1.69,1.69,0,0,0,.8,1.47A3.2,3.2,0,0,0,160.08,53.34Z"/><path class="cls-6" d="M171.51,39.24a1.69,1.69,0,1,1,.49-1.19A1.62,1.62,0,0,1,171.51,39.24Zm0,15.86h-2.38V42.42h2.38Z"/><path class="cls-6" d="M176.89,42.42v1.76h.1a4.22,4.22,0,0,1,1.63-1.54A4.73,4.73,0,0,1,181,42a4.48,4.48,0,0,1,3.6,1.45,5.76,5.76,0,0,1,1.24,3.88V55.1h-2.38V47.7q0-3.52-3.13-3.52a2.93,2.93,0,0,0-2.41,1.18,4.28,4.28,0,0,0-.93,2.73v7h-2.38V42.42Z"/><path class="cls-6" d="M194.38,55.52a6.11,6.11,0,0,1-4.67-1.91,6.79,6.79,0,0,1-1.8-4.84A7,7,0,0,1,189.66,44a5.67,5.67,0,0,1,4.46-2,5.85,5.85,0,0,1,4.52,1.84,7,7,0,0,1,1.69,4.92l0,.44h-10a4.3,4.3,0,0,0,1.28,3,3.88,3.88,0,0,0,2.76,1.11,3.42,3.42,0,0,0,3.47-2.17l2.12.88a5.68,5.68,0,0,1-2,2.47A5.94,5.94,0,0,1,194.38,55.52Zm3.42-8.28a3.38,3.38,0,0,0-1-2.07,3.56,3.56,0,0,0-2.73-1,3.42,3.42,0,0,0-2.29.83,4.22,4.22,0,0,0-1.33,2.23Z"/><path class="cls-6" d="M204.88,55.1H202.5V42.42h2.28v2.07h.1a3.24,3.24,0,0,1,1.49-1.71,4.26,4.26,0,0,1,2.19-.67,4.54,4.54,0,0,1,1.79.31l-.91,2.23a3.6,3.6,0,0,0-1.27-.18,3.11,3.11,0,0,0-2.29,1,3.67,3.67,0,0,0-1,2.68Z"/><path class="cls-6" d="M228.81,38.85h-8.43v5.87H228V47h-7.61v5.87h8.43V55.1H218V36.58h10.81Z"/><path class="cls-6" d="M233.63,42.42v1.76h.1a4.21,4.21,0,0,1,1.63-1.54,4.73,4.73,0,0,1,2.38-.63,4.48,4.48,0,0,1,3.6,1.45,5.76,5.76,0,0,1,1.24,3.88V55.1H240.2V47.7q0-3.52-3.13-3.52a2.93,2.93,0,0,0-2.41,1.18,4.28,4.28,0,0,0-.93,2.73v7h-2.38V42.42Z"/><path class="cls-6" d="M250.75,61.1A5.74,5.74,0,0,1,247.08,60a6.6,6.6,0,0,1-2-2.57l2.17-.91a3.55,3.55,0,0,0,1.33,1.73,3.69,3.69,0,0,0,2.21.7,4.07,4.07,0,0,0,3.09-1.18A4.43,4.43,0,0,0,255,54.56V53.34h-.1a4.85,4.85,0,0,1-1.76,1.55,5.26,5.26,0,0,1-2.56.62,5.58,5.58,0,0,1-4.24-1.94,7.38,7.38,0,0,1,0-9.62A5.57,5.57,0,0,1,250.55,42a5.26,5.26,0,0,1,2.56.62,4.85,4.85,0,0,1,1.76,1.55h.1V42.42h2.28v12a6.31,6.31,0,0,1-1.89,5A6.65,6.65,0,0,1,250.75,61.1Zm.18-7.76a3.79,3.79,0,0,0,2.86-1.24,5.32,5.32,0,0,0,0-6.67,3.88,3.88,0,0,0-5.7,0,5.24,5.24,0,0,0,0,6.65A3.78,3.78,0,0,0,250.93,53.34Z"/><path class="cls-6" d="M262.73,39.24a1.69,1.69,0,1,1,.49-1.19A1.62,1.62,0,0,1,262.73,39.24Zm0,15.86h-2.38V42.42h2.38Z"/><path class="cls-6" d="M268.11,42.42v1.76h.1a4.21,4.21,0,0,1,1.63-1.54,4.73,4.73,0,0,1,2.38-.63,4.48,4.48,0,0,1,3.6,1.45,5.76,5.76,0,0,1,1.24,3.88V55.1h-2.38V47.7q0-3.52-3.13-3.52a2.93,2.93,0,0,0-2.41,1.18,4.28,4.28,0,0,0-.93,2.73v7h-2.38V42.42Z"/><path class="cls-6" d="M285.6,55.52a6.11,6.11,0,0,1-4.67-1.91,6.79,6.79,0,0,1-1.8-4.84A7,7,0,0,1,280.88,44a5.67,5.67,0,0,1,4.46-2,5.85,5.85,0,0,1,4.52,1.84,7,7,0,0,1,1.69,4.92l0,.44h-10a4.3,4.3,0,0,0,1.28,3,3.88,3.88,0,0,0,2.76,1.11A3.42,3.42,0,0,0,289,51.17l2.12.88a5.68,5.68,0,0,1-2,2.47A5.94,5.94,0,0,1,285.6,55.52ZM289,47.24a3.38,3.38,0,0,0-1-2.07,3.56,3.56,0,0,0-2.73-1A3.42,3.42,0,0,0,283,45a4.22,4.22,0,0,0-1.33,2.23Z"/><use width="416" height="136" transform="translate(100 8.7) scale(0.2)" xlink:href="#logo_color"/><path class="cls-7" d="M29.86,25.09l15.89-9.17,14.72,8.5,19,18.83L83.2,36.7a6.44,6.44,0,0,0,0-5.81L67,2.81a6.44,6.44,0,0,0-5-2.9H29.53a6.44,6.44,0,0,0-5,2.9L8.29,30.9a6.44,6.44,0,0,0,0,5.81L24.5,64.79a6.44,6.44,0,0,0,5,2.9H54.72L29.86,42.94Z"/><path class="cls-8" d="M67,64.79,79.42,43.25l-19-18.83-14.72-8.5L29.86,25.09V42.94L54.72,67.69H62A6.44,6.44,0,0,0,67,64.79Z"/><path class="cls-9" d="M60.12,24.22,47.25,16.79a3,3,0,0,0-3,0L31.36,24.22a3,3,0,0,0-1.51,2.61V41.69a3,3,0,0,0,1.51,2.61l12.87,7.43a3,3,0,0,0,3,0L60.12,44.3a3,3,0,0,0,1.51-2.61V26.83A3,3,0,0,0,60.12,24.22ZM45.74,49.12,33.36,42l4.74-2.89,7,3.67v-8l-7.55-3.94v7l-4.64,2.83V26.83l12.2-7v6l-7,3.84,7.66,4.2,7.66-4.2-7-3.82v-6l12.2,7V40.62l-4.67-2.85V30.84L46.4,34.78v8l7-3.71,4.75,2.9Z"/></svg>