<?xml version="1.0" encoding="utf-8"?>
<!-- Generator: Adobe Illustrator 21.1.0, SVG Export Plug-In . SVG Version: 6.00 Build 0)  -->
<svg version="1.1" id="Layer_1" xmlns="http://www.w3.org/2000/svg" xmlns:xlink="http://www.w3.org/1999/xlink" x="0px" y="0px"
	 viewBox="0 0 100 100" style="enable-background:new 0 0 100 100;" xml:space="preserve">
<style type="text/css">
	.st0{fill:#4285F4;}
	.st1{fill:#EA4335;}
	.st2{fill:#FBBC05;}
	.st3{fill:#34A853;}
	.st4{fill:none;}
	.st5{fill:#0D5075;}
	.st6{fill:#0080FF;}
	.st7{fill:#F58536;}
	.st8{fill:#9D5025;}
	.st9{fill:#00AAF2;}
	.st10{fill:#F8982A;}
	.st11{fill:#FFFFFF;}
	.st12{fill:#3497DA;}
	.st13{fill:#D10019;}
	.st14{fill:#1A171B;}
	.st15{fill:#181616;}
	.st16{fill:#326CE5;}
	.st17{fill:#326DE5;}
	.st18{fill:#181F7A;}
	.st19{fill:#D9F6FE;}
	.st20{fill:#F3FCFE;}
	.st21{fill:#7484FE;}
	.st22{fill:#D7E0FF;}
	.st23{fill:#D4DDFF;}
	.st24{fill:#E6ECFE;}
	.st25{fill:#030328;}
	.st26{fill:#99B0FE;}
	.st27{fill:#73ABFF;}
	.st28{fill:#D9E2FE;}
	.st29{fill:#7382FE;}
	.st30{fill:#F3F6FE;}
	.st31{fill:#D4D9FE;}
	.st32{fill:#F7F9FE;}
	.st33{fill:#73ABFE;}
	.st34{fill:#0E0C43;}
	.st35{fill:#0E1749;}
	.st36{fill:#1A214E;}
	.st37{fill:#040404;}
	.st38{fill:#D1E3FE;}
	.st39{fill:#030348;}
	.st40{fill:#9EA6A9;}
	.st41{fill:#050505;}
	.st42{fill:#798082;}
	.st43{fill:#474F52;}
	.st44{fill:#2C3336;}
	.st45{fill:#039AD9;}
	.st46{fill:#C9E7EA;}
	.st47{fill:#293132;}
	.st48{fill:#7D8689;}
	.st49{fill:#4D535C;}
	.st50{fill:#4B515A;}
	.st51{fill:#7A8386;}
	.st52{fill:#040A0B;}
	.st53{fill:#1F2426;}
	.st54{fill:#090D0E;}
	.st55{fill:#FEFEFE;}
	.st56{fill:#616B70;}
	.st57{fill:#35393F;}
	.st58{fill:#4A5059;}
	.st59{fill:#61808B;}
	.st60{fill:#454D50;}
	.st61{fill:#AADCE0;}
	.st62{fill:#667384;}
	.st63{fill:#0D1213;}
	.st64{fill:#9FA5AC;}
	.st65{fill:#91BDC0;}
	.st66{fill:#3E4344;}
	.st67{fill:#474D4F;}
	.st68{fill:#030407;}
	.st69{fill:#495155;}
	.st70{fill:#9BA8B8;}
	.st71{fill:#677485;}
	.st72{fill:#030303;}
	.st73{fill:#F3E7C0;}
	.st74{fill:#C1D4EA;}
	.st75{fill:#CA514B;}
	.st76{fill:#9F4A45;}
	.st77{fill:#838079;}
	.st78{fill:#4F5967;}
	.st79{fill:#626C71;}
	.st80{fill:#BAB09B;}
	.st81{fill:#717377;}
	.st82{fill:#CDD3D7;}
	.st83{fill:#D72F30;}
	.st84{fill:#85827B;}
	.st85{fill:#CED3D9;}
	.st86{fill:#BE524D;}
	.st87{fill:#4C555E;}
	.st88{fill:#687486;}
	.st89{fill:#353C46;}
	.st90{fill:#4E5762;}
	.st91{fill:#9CA9B9;}
	.st92{fill:#808995;}
	.st93{fill:#23272B;}
	.st94{fill:#6B6C6E;}
	.st95{fill:#343B45;}
	.st96{fill:#818B97;}
	.st97{fill:#7E8894;}
	.st98{fill:#DFE3E8;}
	.st99{fill:#4F5863;}
	.st100{fill:#B6B8B9;}
	.st101{fill:#7F8995;}
	.st102{fill:#929EAF;}
	.st103{fill:#3C444E;}
	.st104{fill:#D0D5DE;}
	.st105{fill:#808A96;}
	.st106{fill:#505964;}
	.st107{fill:#D2D7DF;}
	.st108{fill:#828C98;}
	.st109{fill:#0E0F11;}
	.st110{fill:#4E5054;}
	.st111{fill:#D7DBE2;}
	.st112{fill:#6F7175;}
	.st113{fill:#03030E;}
	.st114{fill:#0C0D0F;}
	.st115{fill:#515A64;}
	.st116{fill:#00435A;}
	.st117{fill:#00AEDE;}
	.st118{fill:#004561;}
	.st119{fill:#1F1A17;}
	.st120{fill:#925470;}
	.st121{fill:#7CC639;}
	.st122{fill:#4E4540;}
	.st123{opacity:0.98;}
	.st124{fill:#EC1944;}
	.st125{fill:#E34D59;}
	.st126{fill:#003764;}
	.st127{fill:#40B4E5;}
	.st128{fill:#231F20;}
	.st129{fill:#E11A2C;}
	.st130{fill:#70A9FF;}
	.st131{fill:#CFE1FF;}
	.st132{fill:none;stroke:#000000;stroke-width:0.5;stroke-miterlimit:10;}
	.st133{fill:#00C8FA;}
	.st134{fill:#00A9D2;}
	.st135{opacity:0.5;fill:#0EB7ED;enable-background:new    ;}
	.st136{fill:#8C929D;}
	.st137{fill:#E24329;}
	.st138{fill:#FC6D26;}
	.st139{fill:#FCA326;}
	.st140{fill:#3882FA;}
	.st141{fill:#4052D7;}
	.st142{fill:#387EFA;}
	.st143{fill:#0079D6;}
	.st144{fill:#757575;}
	.st145{fill:#4489F2;}
	.st146{fill:#407FDD;}
</style>
<symbol  id="logo_color" viewBox="-208 -68 416 136">
	<path class="st0" d="M-207.3-15.4c0-29,24.3-52.5,53.3-52.5c13.5-0.2,26.4,5,36,14.5l-10.2,10.1c-6.9-6.7-16.2-10.4-25.8-10.3
		c-21.1,0-37.6,17-37.6,38.1s16.5,38.1,37.6,38.1c13.7,0,21.5-5.5,26.5-10.5c4.1-4.1,6.8-10,7.8-18H-154v-14.3h48.3
		c0.6,3,0.8,6,0.8,9c0,10.8-2.9,24.1-12.4,33.5C-126.6,31.9-138.4,37-154,37C-183,37-207.3,13.5-207.3-15.4z"/>
	<path class="st1" d="M-66-30.5c-18.7,0-33.9,14.2-33.9,33.8S-84.7,37.1-66,37.1s33.9-14.3,33.9-33.8S-47.3-30.5-66-30.5z M-66,23.7
		c-10.2,0-19.1-8.4-19.1-20.5s8.8-20.5,19.1-20.5S-46.9-9-46.9,3.2S-55.8,23.7-66,23.7z"/>
	<path class="st2" d="M8-30.5c-18.7,0-33.9,14.2-33.9,33.8S-10.7,37.1,8,37.1S41.9,22.8,41.9,3.3S26.7-30.5,8-30.5z M8,23.7
		c-10.2,0-19.1-8.4-19.1-20.5S-2.3-17.3,8-17.3S27.1-9,27.1,3.2S18.2,23.7,8,23.7z"/>
	<path class="st0" d="M98.8-28.5v5.5h-0.5c-3.3-4-9.7-7.6-17.8-7.6c-16.9,0-32.4,14.8-32.4,33.9C48.1,22.2,63.6,37,80.5,37
		c8.1,0,14.5-3.6,17.8-7.7h0.5v4.9c0,12.9-6.9,19.8-18,19.8c-9.1,0-14.7-6.5-17-12l-12.9,5.4c5,12.2,16.9,20.1,30,20
		c17.4,0,32.1-10.2,32.1-35.2v-60.7H98.8z M81.8,23.7C71.6,23.7,63,15.1,63,3.3s8.6-20.6,18.8-20.6s18,8.7,18,20.6
		S91.9,23.7,81.8,23.7z"/>
	<path class="st3" d="M123.2,35H138v-99.3h-14.8V35z"/>
	<path class="st1" d="M178.7,23.7c-7.6,0-12.9-3.5-16.4-10.2l45.2-18.7L206-9c-2.8-7.6-11.4-21.5-28.9-21.5s-31.9,13.7-31.9,33.8
		c0,18.9,14.3,33.8,33.5,33.8c11.3,0,21.9-5.6,28.2-15l-11.5-7.7C191.5,20,186.3,23.7,178.7,23.7L178.7,23.7z M177.6-17.5
		c5.9,0,10.9,2.9,12.5,7.2L159.9,2.2C159.5-10.8,170-17.5,177.6-17.5z"/>
	<path class="st4" d="M-208,68h416V-68h-416V68z"/>
</symbol>
<path class="st144" d="M8.9,85.2c-2.5,0-4.6-1.9-4.6-4.4c0-0.1,0-0.1,0-0.2c-0.1-2.5,1.9-4.6,4.4-4.6c0.1,0,0.1,0,0.2,0
	c1.2,0,2.4,0.5,3.3,1.4l-0.8,0.8C10.8,77.4,9.9,77,8.9,77c-0.9,0-1.8,0.3-2.4,1c-0.7,0.7-1,1.6-1,2.6c0,1,0.3,1.9,1,2.6
	c0.7,0.6,1.5,1,2.4,1c1.1,0,2.1-0.5,2.7-1.3l0.8,0.8c-0.4,0.5-0.9,0.9-1.5,1.2C10.3,85,9.6,85.2,8.9,85.2z"/>
<path class="st144" d="M13.9,79.7c1.2-1.2,3.2-1.2,4.5,0c1.2,1.3,1.2,3.3,0,4.6c-1.2,1.2-3.2,1.2-4.5,0C12.7,83,12.7,81,13.9,79.7z
	 M14.7,83.6c0.7,0.8,1.9,0.8,2.7,0.1c0,0,0.1-0.1,0.1-0.1c0.8-0.9,0.8-2.3,0-3.2c-0.7-0.8-1.9-0.8-2.7-0.1c0,0-0.1,0.1-0.1,0.1
	C13.9,81.3,13.9,82.6,14.7,83.6z"/>
<path class="st144" d="M21.2,78.9v0.8h0c0.2-0.3,0.5-0.6,0.8-0.7c0.3-0.2,0.7-0.3,1.1-0.3c0.6,0,1.3,0.2,1.7,0.7
	c0.4,0.5,0.6,1.2,0.6,1.9V85h-1.1v-3.5c0-1.1-0.5-1.7-1.5-1.7c-0.5,0-0.9,0.2-1.2,0.6c-0.3,0.4-0.5,0.8-0.4,1.3V85h-1.1v-6.1H21.2z"
	/>
<path class="st144" d="M29.2,85.1c-1,0.1-1.8-0.6-2-1.5c0-0.1,0-0.3,0-0.4V80h-1.1v-1h1.1v-1.9h1.1v1.9h1.5v1h-1.5v3.1
	c0,0.7,0.3,1,0.8,1c0.2,0,0.4,0,0.5-0.1l0.4,1C29.8,85,29.5,85.1,29.2,85.1z"/>
<path class="st144" d="M32.7,85.2c-0.6,0-1.2-0.2-1.6-0.6c-0.4-0.4-0.7-0.9-0.6-1.5c0-0.6,0.3-1.2,0.8-1.6c0.6-0.4,1.2-0.6,1.9-0.6
	c0.6,0,1.1,0.1,1.6,0.4v-0.2c0-0.4-0.2-0.8-0.5-1.1c-0.3-0.3-0.7-0.4-1.1-0.4c-0.3,0-0.6,0.1-0.9,0.2c-0.3,0.1-0.5,0.4-0.6,0.6
	l-1-0.4c0.2-0.4,0.5-0.7,0.8-1c0.5-0.3,1.1-0.5,1.6-0.5c0.7,0,1.4,0.2,1.9,0.7c0.5,0.5,0.8,1.2,0.8,1.9V85h-1v-0.8h0
	C34.3,84.8,33.5,85.2,32.7,85.2z M32.9,84.2c0.5,0,0.9-0.2,1.3-0.5c0.4-0.3,0.6-0.8,0.6-1.2c-0.4-0.3-0.9-0.4-1.4-0.4
	c-0.4,0-0.9,0.1-1.2,0.4c-0.3,0.2-0.4,0.5-0.4,0.8c0,0.3,0.1,0.6,0.4,0.7C32.3,84.1,32.6,84.2,32.9,84.2L32.9,84.2z"/>
<path class="st144" d="M38.4,77.4c-0.3,0.3-0.8,0.3-1.1,0s-0.3-0.8,0-1.1c0.3-0.3,0.8-0.3,1.1,0c0.2,0.2,0.2,0.4,0.2,0.6
	C38.6,77.1,38.5,77.3,38.4,77.4z M38.4,85h-1.1v-6.1h1.1V85z"/>
<path class="st144" d="M41,78.9v0.8h0c0.2-0.3,0.5-0.6,0.8-0.7c0.3-0.2,0.7-0.3,1.1-0.3c0.6,0,1.3,0.2,1.7,0.7
	c0.4,0.5,0.6,1.2,0.6,1.9V85h-1.1v-3.5c0-1.1-0.5-1.7-1.5-1.7c-0.5,0-0.9,0.2-1.2,0.6c-0.3,0.4-0.5,0.8-0.4,1.3V85h-1.1v-6.1H41z"/>
<path class="st144" d="M49.3,85.2c-0.8,0-1.7-0.3-2.2-0.9c-0.6-0.6-0.9-1.5-0.9-2.3c0-0.8,0.3-1.7,0.8-2.3c0.5-0.6,1.3-1,2.1-1
	c0.8,0,1.6,0.3,2.2,0.9c0.6,0.7,0.9,1.5,0.8,2.4v0.2h-4.8c0,0.5,0.2,1.1,0.6,1.4c0.4,0.3,0.8,0.5,1.3,0.5c0.7,0.1,1.4-0.4,1.7-1
	l1,0.4c-0.2,0.5-0.5,0.9-1,1.2C50.5,85,49.9,85.2,49.3,85.2z M51,81.2c0-0.4-0.2-0.7-0.5-1c-0.3-0.3-0.8-0.5-1.3-0.5
	c-0.4,0-0.8,0.1-1.1,0.4c-0.3,0.3-0.5,0.7-0.6,1.1L51,81.2z"/>
<path class="st144" d="M54.4,85h-1.1v-6.1h1.1v1h0c0.1-0.3,0.4-0.6,0.7-0.8c0.3-0.2,0.7-0.3,1-0.3c0.3,0,0.6,0,0.9,0.1L56.5,80
	c-0.2-0.1-0.4-0.1-0.6-0.1c-0.4,0-0.8,0.2-1.1,0.5c-0.3,0.3-0.5,0.8-0.5,1.3V85z"/>
<path class="st144" d="M65.8,77.2h-4V80h3.6v1.1h-3.6v2.8h4V85h-5.2v-8.9h5.2V77.2z"/>
<path class="st144" d="M68.1,78.9v0.8h0c0.2-0.3,0.5-0.6,0.8-0.7c0.3-0.2,0.7-0.3,1.1-0.3c0.6,0,1.3,0.2,1.7,0.7
	c0.4,0.5,0.6,1.2,0.6,1.9V85h-1.1v-3.5c0-1.1-0.5-1.7-1.5-1.7c-0.5,0-0.9,0.2-1.2,0.6c-0.3,0.4-0.5,0.8-0.4,1.3V85H67v-6.1H68.1z"/>
<path class="st144" d="M76.3,87.9c-0.6,0-1.2-0.2-1.8-0.5c-0.4-0.3-0.7-0.7-1-1.2l1-0.4c0.1,0.3,0.3,0.6,0.6,0.8
	c0.3,0.2,0.7,0.3,1.1,0.3c0.6,0,1.1-0.2,1.5-0.6c0.4-0.4,0.6-1,0.5-1.5v-0.6h0c-0.2,0.3-0.5,0.6-0.8,0.7c-0.4,0.2-0.8,0.3-1.2,0.3
	c-0.8,0-1.5-0.3-2-0.9c-1.1-1.3-1.1-3.3,0-4.6c0.5-0.6,1.2-0.9,2-0.9c0.4,0,0.8,0.1,1.2,0.3c0.3,0.2,0.6,0.4,0.8,0.7h0v-0.8h1.1v5.7
	c0.1,0.9-0.3,1.8-0.9,2.4C77.9,87.6,77.1,87.9,76.3,87.9z M76.4,84.2c0.5,0,1-0.2,1.4-0.6c0.7-0.9,0.7-2.3,0-3.2
	c-0.7-0.8-1.9-0.8-2.6-0.1c0,0-0.1,0.1-0.1,0.1c-0.8,0.9-0.8,2.3,0,3.2C75.4,83.9,75.9,84.2,76.4,84.2z"/>
<path class="st144" d="M82,77.4c-0.3,0.3-0.8,0.3-1.1,0c-0.3-0.3-0.3-0.8,0-1.1c0.3-0.3,0.8-0.3,1.1,0c0.2,0.2,0.2,0.4,0.2,0.6
	C82.3,77.1,82.2,77.3,82,77.4z M82,85h-1.1v-6.1H82V85z"/>
<path class="st144" d="M84.6,78.9v0.8h0c0.2-0.3,0.5-0.6,0.8-0.7c0.3-0.2,0.7-0.3,1.1-0.3c0.6,0,1.3,0.2,1.7,0.7
	c0.4,0.5,0.6,1.2,0.6,1.9V85h-1.1v-3.5c0-1.1-0.5-1.7-1.5-1.7c-0.5,0-0.9,0.2-1.2,0.6c-0.3,0.4-0.5,0.8-0.4,1.3V85h-1.1v-6.1H84.6z"
	/>
<path class="st144" d="M93,85.2c-0.8,0-1.7-0.3-2.2-0.9c-0.6-0.6-0.9-1.5-0.9-2.3c0-0.8,0.3-1.7,0.8-2.3c0.5-0.6,1.3-1,2.1-1
	c0.8,0,1.6,0.3,2.2,0.9c0.6,0.7,0.9,1.5,0.8,2.4v0.2H91c0,0.5,0.2,1.1,0.6,1.4c0.4,0.3,0.8,0.5,1.3,0.5c0.7,0,1.4-0.4,1.6-1l1,0.4
	c-0.2,0.5-0.5,0.9-1,1.2C94.2,85.1,93.6,85.2,93,85.2z M94.6,81.2c0-0.4-0.2-0.7-0.5-1c-0.3-0.3-0.8-0.5-1.3-0.5
	c-0.4,0-0.8,0.1-1.1,0.4c-0.3,0.3-0.5,0.7-0.6,1.1L94.6,81.2z"/>
<use xlink:href="#logo_color"  width="416" height="136" x="-208" y="-68" transform="matrix(9.571274e-02 0 0 9.571274e-02 24.0717 69.3001)" style="overflow:visible;"/>
<g>
	<path class="st145" d="M38.3,29.1l10.4-6l9.6,5.6L70.8,41l2.4-4.3c0.6-1.2,0.6-2.6,0-3.8L62.7,14.5c-0.7-1.1-1.9-1.8-3.3-1.9H38.1
		c-1.3,0.1-2.5,0.8-3.3,1.9L24.2,32.9c-0.6,1.2-0.6,2.6,0,3.8l10.6,18.4c0.7,1.1,1.9,1.8,3.3,1.9h16.5L38.3,40.8V29.1z"/>
	<path class="st146" d="M62.7,55.1L70.8,41L58.4,28.6l-9.6-5.6l-10.4,6v11.7L54.6,57h4.8C60.7,56.9,61.9,56.2,62.7,55.1z"/>
	<path class="st11" d="M58.2,28.5l-8.4-4.9c-0.6-0.4-1.4-0.4-2,0l-8.4,4.9c-0.6,0.4-1,1-1,1.7V40c0,0.7,0.4,1.4,1,1.7l8.4,4.9
		c0.6,0.4,1.4,0.4,2,0l8.4-4.9c0.6-0.4,1-1,1-1.7v-9.7C59.2,29.5,58.8,28.9,58.2,28.5z M48.7,44.8l-8.1-4.7l3.1-1.9l4.6,2.4v-5.2
		l-4.9-2.6v4.6l-3,1.9v-9.1l8-4.6v3.9l-4.6,2.5l5,2.8l5-2.8l-4.6-2.5v-3.9l8,4.6v9l-3.1-1.9v-4.5l-5,2.6v5.2l4.6-2.4l3.1,1.9
		L48.7,44.8z"/>
</g>
</svg>
