<?xml version="1.0" encoding="utf-8"?>
<!-- Generator: Adobe Illustrator 22.1.0, SVG Export Plug-In . SVG Version: 6.00 Build 0)  -->
<svg version="1.1" id="Layer_1" xmlns="http://www.w3.org/2000/svg" xmlns:xlink="http://www.w3.org/1999/xlink" x="0px" y="0px"
	 viewBox="0 0 100 100" style="enable-background:new 0 0 100 100;" xml:space="preserve">
<style type="text/css">
	.st0{fill:#4489F2;}
	.st1{fill:#407FDD;}
	.st2{fill:#FFFFFF;}
</style>
<g>
	<path class="st0" d="M38.3,43.6L50,36.8l10.8,6.3L74.9,57l2.7-4.8c0.7-1.4,0.7-2.9,0-4.3L65.8,27.1c-0.8-1.2-2.1-2-3.7-2.1h-24
		c-1.5,0.1-2.8,0.9-3.7,2.1L22.4,47.9c-0.7,1.4-0.7,2.9,0,4.3l11.9,20.7c0.8,1.2,2.1,2,3.7,2.1h18.6L38.3,56.8V43.6z"/>
	<path class="st1" d="M65.8,72.9L74.9,57l-14-14l-10.8-6.3l-11.7,6.8v13.2L56.6,75H62C63.5,74.9,64.9,74.1,65.8,72.9z"/>
	<path class="st2" d="M60.7,42.9l-9.5-5.5c-0.7-0.5-1.6-0.5-2.3,0l-9.5,5.5c-0.7,0.5-1.1,1.1-1.1,1.9v11c0,0.8,0.5,1.6,1.1,1.9
		l9.5,5.5c0.7,0.5,1.6,0.5,2.3,0l9.5-5.5c0.7-0.5,1.1-1.1,1.1-1.9V44.9C61.8,44,61.4,43.4,60.7,42.9z M50,61.3L40.9,56l3.5-2.1
		l5.2,2.7v-5.9L44,47.7v5.2l-3.4,2.1V44.8l9-5.2V44l-5.2,2.8l5.6,3.2l5.6-3.2L50.6,44v-4.4l9,5.2V55l-3.5-2.1v-5.1l-5.6,2.9v5.9
		l5.2-2.7l3.5,2.1L50,61.3z"/>
</g>
</svg>
