<svg id="Layer_1" data-name="Layer 1" xmlns="http://www.w3.org/2000/svg" viewBox="0 0 194.25619 159.08912"><defs><style>.cls-1{fill:#00a383;}.cls-2{fill:#fff;}</style></defs><rect class="cls-1" width="194.25619" height="159.08912" rx="20.56068"/><path class="cls-2" d="M180.4487,81.46673a4.97417,4.97417,0,0,0,.25287-.81463c.01635-.07209.0296-.14435.04284-.21759a4.98972,4.98972,0,0,0,0-1.78c-.01324-.07324-.02649-.14551-.04284-.21759a4.97458,4.97458,0,0,0-.25287-.81464c-.01587-.03815-.03748-.07269-.05432-.11035a4.9932,4.9932,0,0,0-.23017-.46741l-19.7666-34.2373a4.96949,4.96949,0,0,0-.28741-.42926c-.02527-.03491-.04535-.07251-.07154-.10681a4.97881,4.97881,0,0,0-.57611-.62305c-.05584-.05176-.11346-.10089-.17206-.15033a5.00763,5.00763,0,0,0-.71991-.51843l-.00305-.0022-.00274-.00122a5.00234,5.00234,0,0,0-.80945-.36469c-.07269-.02624-.14459-.05175-.2179-.0744a4.97937,4.97937,0,0,0-.82483-.18683c-.04693-.0061-.0935-.00457-.14044-.00927a4.98006,4.98006,0,0,0-.50464-.03351H116.53335a4.96842,4.96842,0,0,0-.504.03345c-.0476.00482-.09478.00329-.14233.00946a4.97566,4.97566,0,0,0-.82226.18627c-.07447.023-.14753.049-.22138.07563a5.00058,5.00058,0,0,0-.80719.36383l-.00281.00128-.00305.0022a5.00874,5.00874,0,0,0-.71991.51843c-.05859.04944-.11615.09845-.172.15027a4.97536,4.97536,0,0,0-.57635.62335c-.026.034-.04584.07123-.07086.10584a4.98409,4.98409,0,0,0-.2879.43L93.88046,74.54449H79.278l13.99317-24.2373h6.4956a5,5,0,0,0,0-10H90.38443a5.0003,5.0003,0,0,0-4.33008,2.5L67.73111,74.54449h-14.602l13.99316-24.2373h6.49561a5,5,0,0,0,0-10H64.2355a5.00031,5.00031,0,0,0-4.33008,2.5L41.58218,74.54449H26.9797l13.99359-24.2373H47.4689a5,5,0,0,0,0-10H38.08658a5.00029,5.00029,0,0,0-4.33008,2.5L13.98941,77.04449a4.98206,4.98206,0,0,0-.22925.46594c-.01715.0384-.03912.07349-.05536.11243a4.974,4.974,0,0,0-.25183.81128c-.01691.07422-.03058.1485-.04413.22388a4.99817,4.99817,0,0,0-.089.88305l-.00036.00342.00036.00342a4.99828,4.99828,0,0,0,.089.88306c.01355.07538.02722.14966.04413.22387a4.97371,4.97371,0,0,0,.25183.81128c.01624.03894.03821.074.05536.11243a4.98084,4.98084,0,0,0,.22925.46594L33.7565,116.28131a5.00031,5.00031,0,0,0,4.33008,2.5H47.4689a5,5,0,1,0,0-10H40.97329L26.97976,84.54449H41.58218l18.32324,31.73682a5.00033,5.00033,0,0,0,4.33008,2.5h9.38233a5,5,0,0,0,0-10H67.12222L53.12912,84.54449h14.602l18.32324,31.73682a5.00032,5.00032,0,0,0,4.33008,2.5h9.38232a5,5,0,0,0,0-10h-6.4956L79.278,84.54449H93.88052l18.32276,31.73682a4.97193,4.97193,0,0,0,.28759.42944c.02521.03479.04517.07233.07135.10657a4.98039,4.98039,0,0,0,.57605.62311c.05591.05188.11371.10095.17237.15051a5.00138,5.00138,0,0,0,.71966.51825l.00305.0022c.02063.0119.04254.01953.0633.03112a4.99593,4.99593,0,0,0,.52386.25788c.15222.06329.30756.11084.46283.15808.051.0155.09961.037.15119.0509a4.96725,4.96725,0,0,0,1.29394.17292l.01508-.001h39.51379l.01508.001a4.96725,4.96725,0,0,0,1.29394-.17292c.05158-.01391.10016-.0354.15119-.0509.15527-.04724.3106-.09479.46282-.15808a4.99511,4.99511,0,0,0,.52387-.25788c.02075-.01159.04266-.01922.06329-.03112l.00312-.0022a5.00713,5.00713,0,0,0,.71856-.51733c.05939-.05011.11774-.09986.17432-.15229a4.97862,4.97862,0,0,0,.57458-.6214c.027-.03546.04773-.07415.0738-.11023a4.98327,4.98327,0,0,0,.2857-.42663l19.7666-34.23682a4.99182,4.99182,0,0,0,.23017-.4674C180.41122,81.53943,180.43283,81.50488,180.4487,81.46673Zm-24.38111,22.31452L150.2941,93.78094l5.33294-9.23645h11.54688ZM105.42776,84.54449h11.54706l5.33289,9.23633-5.77417,10.00061ZM116.5336,55.307l5.77411,10.00031-5.33295,9.23718H105.4277Zm14.43432,33.47382-5.333-9.23633,5.333-9.2373h10.666l5.333,9.2373-5.333,9.23633Zm10.666-28.47363H130.9678l-5.77392-10h22.2135ZM130.96786,98.78082h10.666l5.77362,10.00049H125.19375ZM155.6271,74.54449l-5.333-9.2373,5.77343-10L167.174,74.54449Z"/></svg>