<svg  xmlns="http://www.w3.org/2000/svg"
     viewBox="-4.9599999999999795 -5.162890000000004 354.92 356.92"
     x="0px" y="0px"
     style="enable-background:new 0 0 100 100;" xml:space="preserve"
>
 <defs>
  <clipPath id="clipPath3356" clipPathUnits="userSpaceOnUse">
   <path id="path3358" d="m-21.53203,549.14116l368.5,0l0,-521.57l-368.5,0l0,521.57z"/>
  </clipPath>
  <radialGradient id="radialGradient3572" spreadMethod="pad" gradientTransform="matrix(30.668899,0,0,-30.668899,54.739258,480.55713)" gradientUnits="userSpaceOnUse" r="1" cy="0" cx="0" fy="0" fx="0">
   <stop id="stop3574" offset="0" stop-color="#f9ab95"/>
   <stop id="stop3576" offset="0.420086" stop-color="#ed1c24"/>
   <stop id="stop3578" offset="0.426971" stop-color="#ed1c24"/>
   <stop id="stop3580" offset="0.872563" stop-color="#ed1c24"/>
   <stop id="stop3582" offset="1" stop-color="#981015"/>
  </radialGradient>
  <radialGradient id="radialGradient3546" spreadMethod="pad" gradientTransform="matrix(30.666946,0,0,-30.666946,54.740234,480.55811)" gradientUnits="userSpaceOnUse" r="1" cy="0" cx="0" fy="0" fx="0">
   <stop id="stop3548" offset="0" stop-color="#f9ab95"/>
   <stop id="stop3550" offset="0.420086" stop-color="#ed1c24"/>
   <stop id="stop3552" offset="0.426971" stop-color="#ed1c24"/>
   <stop id="stop3554" offset="0.872563" stop-color="#ed1c24"/>
   <stop id="stop3556" offset="1" stop-color="#981015"/>
  </radialGradient>
  <radialGradient id="radialGradient3520" spreadMethod="pad" gradientTransform="matrix(30.662826,0,0,-30.662826,54.738281,480.55322)" gradientUnits="userSpaceOnUse" r="1" cy="0" cx="0" fy="0" fx="0">
   <stop id="stop3522" offset="0" stop-color="#f9ab95"/>
   <stop id="stop3524" offset="0.420086" stop-color="#ed1c24"/>
   <stop id="stop3526" offset="0.426971" stop-color="#ed1c24"/>
   <stop id="stop3528" offset="0.872563" stop-color="#ed1c24"/>
   <stop id="stop3530" offset="1" stop-color="#981015"/>
  </radialGradient>
  <radialGradient id="radialGradient3494" spreadMethod="pad" gradientTransform="matrix(30.668426,0,0,-30.668426,54.737793,480.55615)" gradientUnits="userSpaceOnUse" r="1" cy="0" cx="0" fy="0" fx="0">
   <stop id="stop3496" offset="0" stop-color="#f9ab95"/>
   <stop id="stop3498" offset="0.420086" stop-color="#ed1c24"/>
   <stop id="stop3500" offset="0.426971" stop-color="#ed1c24"/>
   <stop id="stop3502" offset="0.872563" stop-color="#ed1c24"/>
   <stop id="stop3504" offset="1" stop-color="#981015"/>
  </radialGradient>
  <radialGradient id="radialGradient3468" spreadMethod="pad" gradientTransform="matrix(30.633362,0,0,-30.633347,54.729981,480.55664)" gradientUnits="userSpaceOnUse" r="1" cy="0" cx="0" fy="0" fx="0">
   <stop id="stop3470" offset="0" stop-color="#f9ab95"/>
   <stop id="stop3472" offset="0.420086" stop-color="#ed1c24"/>
   <stop id="stop3474" offset="0.426971" stop-color="#ed1c24"/>
   <stop id="stop3476" offset="0.872563" stop-color="#ed1c24"/>
   <stop id="stop3478" offset="1" stop-color="#981015"/>
  </radialGradient>
  <radialGradient id="radialGradient3442" spreadMethod="pad" gradientTransform="matrix(30.633118,0,0,-30.633118,54.732422,480.55762)" gradientUnits="userSpaceOnUse" r="1" cy="0" cx="0" fy="0" fx="0">
   <stop id="stop3444" offset="0" stop-color="#f9ab95"/>
   <stop id="stop3446" offset="0.420086" stop-color="#ed1c24"/>
   <stop id="stop3448" offset="0.426971" stop-color="#ed1c24"/>
   <stop id="stop3450" offset="0.872563" stop-color="#ed1c24"/>
   <stop id="stop3452" offset="1" stop-color="#981015"/>
  </radialGradient>
  <radialGradient id="radialGradient3416" spreadMethod="pad" gradientTransform="matrix(30.641281,0,0,-30.641281,54.736328,480.56445)" gradientUnits="userSpaceOnUse" r="1" cy="0" cx="0" fy="0" fx="0">
   <stop id="stop3418" offset="0" stop-color="#f9ab95"/>
   <stop id="stop3420" offset="0.420086" stop-color="#ed1c24"/>
   <stop id="stop3422" offset="0.426971" stop-color="#ed1c24"/>
   <stop id="stop3424" offset="0.872563" stop-color="#ed1c24"/>
   <stop id="stop3426" offset="1" stop-color="#981015"/>
  </radialGradient>
  <radialGradient id="radialGradient3390" spreadMethod="pad" gradientTransform="matrix(30.638077,0,0,-30.638077,54.730957,480.56006)" gradientUnits="userSpaceOnUse" r="1" cy="0" cx="0" fy="0" fx="0">
   <stop id="stop3392" offset="0" stop-color="#f9ab95"/>
   <stop id="stop3394" offset="0.420086" stop-color="#ed1c24"/>
   <stop id="stop3396" offset="0.426971" stop-color="#ed1c24"/>
   <stop id="stop3398" offset="0.872563" stop-color="#ed1c24"/>
   <stop id="stop3400" offset="1" stop-color="#981015"/>
  </radialGradient>
 </defs>
 <metadata id="metadata3756">image/svg+xml</metadata>
 <g>
  <title>background</title>
  <rect x="-1" y="-1" width="356.92" height="358.92" id="canvas_background" fill="none"/>
 </g>
 <g>
  <title>Layer 1</title>
  <g id="layer1" stroke="null">
   <g id="g3378" transform="matrix(6.872161207830313,0,0,-6.919294886852669,-15.172182215103419,3574.0745142828305) " stroke="null">
    <g id="g3380" stroke="null">
     <g id="g3386" stroke="null">
      <g id="g3388" stroke="null">
       <path id="path3402" d="m9.336456,494.592891c0.14,-2.671 2.151,-4.255 2.151,-4.255l0,0c3.24,-3.157 11.084,-7.141 12.904,-8.049l0,0c0.024,-0.002 0.119,-0.036 0.174,0.035l0,0c0,0 0.075,0.059 0.037,0.155l0,0c-4.991,10.904 -11.816,19.172 -11.816,19.172l0,0c0,0 -3.715,-3.527 -3.45,-7.058" fill="url(#radialGradient3390)"/>
      </g>
     </g>
    </g>
   </g>
   <g id="g3404" transform="matrix(6.872161207830313,0,0,-6.919294886852669,-15.172182215103419,3574.0745142828305) " stroke="null">
    <g id="g3406" stroke="null">
     <g id="g3412" stroke="null">
      <g id="g3414" stroke="null">
       <path id="path3428" d="m10.131456,479.289891c1.415,-2.523 3.801,-4.486 6.285,-3.883l0,0c1.717,0.429 5.596,3.137 6.875,4.054l0,0l-0.004,0.001c0.1,0.087 0.071,0.161 0.071,0.161l0,0c-0.038,0.117 -0.172,0.117 -0.172,0.117l0,0l0,0.005l-13.055,-0.455z" fill="url(#radialGradient3416)"/>
      </g>
     </g>
    </g>
   </g>
   <g id="g3430" transform="matrix(6.872161207830313,0,0,-6.919294886852669,-15.172182215103419,3574.0745142828305) " stroke="null">
    <g id="g3432" stroke="null">
     <g id="g3438" stroke="null">
      <g id="g3440" stroke="null">
       <path id="path3454" d="m7.007456,485.150891c1.416,-2.994 4.121,-3.902 4.121,-3.902l0,0c1.247,-0.513 2.496,-0.546 2.496,-0.546l0,0c0.195,-0.035 7.765,-0.004 9.792,0.004l0,0c0.088,0 0.135,0.088 0.135,0.088l0,0c0.063,0.102 -0.047,0.198 -0.047,0.198l0,0l0,0.001c-5.734,3.866 -16.849,9.805 -16.849,9.805l0,0c-1.011,-3.127 0.352,-5.648 0.352,-5.648" fill="url(#radialGradient3442)"/>
      </g>
     </g>
    </g>
   </g>
   <g id="g3456" transform="matrix(6.872161207830313,0,0,-6.919294886852669,-15.172182215103419,3574.0745142828305) " stroke="null">
    <g id="g3458" stroke="null">
     <g id="g3464" stroke="null">
      <g id="g3466" stroke="null">
       <path id="path3480" d="m22.315456,506.887891c-3.457,-0.894 -4.274,-4.03 -4.274,-4.03l0,0c-0.63,-1.974 0.018,-4.14 0.018,-4.14l0,0c1.15,-5.121 6.83,-13.531 8.052,-15.298l0,0c0.088,-0.087 0.153,-0.054 0.153,-0.054l0,0c0.122,0.033 0.125,0.144 0.125,0.161l0,0c1.875,18.782 -1.974,23.761 -1.974,23.761l0,0c-0.567,-0.053 -2.1,-0.4 -2.1,-0.4" fill="url(#radialGradient3468)"/>
      </g>
     </g>
    </g>
   </g>
   <g id="g3482" transform="matrix(6.872161207830313,0,0,-6.919294886852669,-15.172182215103419,3574.0745142828305) " stroke="null">
    <g id="g3484" stroke="null">
     <g id="g3490" stroke="null">
      <g id="g3492" stroke="null">
       <path id="path3506" d="m28.635456,483.659421l0.006,0c0.01,-0.121 0.1,-0.14601 0.1,-0.14601l0,0c0.124,-0.048 0.187,0.073 0.187,0.073l0,0l0,-0.003c1.256,1.80901 6.897,10.181 8.052,15.279l0,0c0,0 0.616,2.47001 0.015,4.14l0,0c0,0 -0.85,3.185 -4.313,4.025l0,0c0,0 -0.998,0.257 -2.055,0.405l0,0c0,0 -3.869,-4.982 -1.992,-23.773" fill="url(#radialGradient3494)"/>
      </g>
     </g>
    </g>
   </g>
   <g id="g3508" transform="matrix(6.872161207830313,0,0,-6.919294886852669,-15.172182215103419,3574.0745142828305) " stroke="null">
    <g id="g3510" stroke="null">
     <g id="g3516" stroke="null">
      <g id="g3518" stroke="null">
       <path id="path3532" d="m31.831456,479.732891c0,0 -0.116,-0.016 -0.147,-0.102l0,0c0,0 -0.03,-0.114 0.052,-0.172l0,0l0,-0.002c1.245,-0.898 5.032,-3.546 6.86,-4.061l0,0c0,0 3.375,-1.15 6.304,3.884l0,0l-13.069,0.457l0,-0.004z" fill="url(#radialGradient3520)"/>
      </g>
     </g>
    </g>
   </g>
   <g id="g3534" transform="matrix(6.872161207830313,0,0,-6.919294886852669,-15.172182215103419,3574.0745142828305) " stroke="null">
    <g id="g3536" stroke="null">
     <g id="g3542" stroke="null">
      <g id="g3544" stroke="null">
       <path id="path3558" d="m31.541456,480.999891l0,-0.001c0,0 -0.097,-0.066 -0.064,-0.19l0,0c0,0 0.055,-0.097 0.132,-0.097l0,0l0,-0.005c2.053,0 9.831,-0.008 10.03,0.026l0,0c0,0 1.004,0.039 2.246,0.516l0,0c0,0 2.766,0.882 4.2,4.023l0,0c0,0 1.282,2.563 0.292,5.555l0,0c0,0 -11.1,-5.953 -16.836,-9.827" fill="url(#radialGradient3546)"/>
      </g>
     </g>
    </g>
   </g>
   <g id="g3560" transform="matrix(6.872161207830313,0,0,-6.919294886852669,-15.172182215103419,3574.0745142828305) " stroke="null">
    <g id="g3562" stroke="null">
     <g id="g3568" stroke="null">
      <g id="g3570" stroke="null">
       <path id="path3584" d="m30.455456,482.532891l0.006,0c0,0 -0.064,-0.127 0.033,-0.209l0,0c0,0 0.09,-0.068 0.176,-0.015l0,0c1.872,0.93 9.652,4.887 12.875,8.029l0,0c0,0 2.041,1.639 2.15,4.27l0,0c0.235,3.658 -3.441,7.043 -3.441,7.043l0,0c0,0 -6.813,-8.244 -11.799,-19.118" fill="url(#radialGradient3572)"/>
      </g>
     </g>
    </g>
   </g>
   <text fill="#000000" stroke-width="0" stroke-opacity="null" x="211.960022" y="325.959991" id="svg_2" font-size="24" font-family="Helvetica, Arial, sans-serif" text-anchor="start" xml:space="preserve" stroke="null"/>
  </g>
 </g>
</svg>
