<?xml version="1.0" encoding="utf-8"?>
<!-- Generator: Adobe Illustrator 22.1.0, SVG Export Plug-In . SVG Version: 6.00 Build 0)  -->
<svg version="1.1"
	 id="svg3074" inkscape:version="0.48.4 r9939" sodipodi:docname="kafka-ar21.svg" xmlns:cc="http://creativecommons.org/ns#" xmlns:dc="http://purl.org/dc/elements/1.1/" xmlns:inkscape="http://www.inkscape.org/namespaces/inkscape" xmlns:rdf="http://www.w3.org/1999/02/22-rdf-syntax-ns#" xmlns:sodipodi="http://sodipodi.sourceforge.net/DTD/sodipodi-0.dtd" xmlns:svg="http://www.w3.org/2000/svg"
	 xmlns="http://www.w3.org/2000/svg" xmlns:xlink="http://www.w3.org/1999/xlink" x="0px" y="0px" viewBox="0 0 100 100"
	 style="enable-background:new 0 0 100 100;" xml:space="preserve">
<style type="text/css">
	.st0{fill:#231F20;}
</style>
<sodipodi:namedview  bordercolor="#666666" borderopacity="1" gridtolerance="10" guidetolerance="10" id="namedview3080" inkscape:current-layer="svg3074" inkscape:cx="105.80545" inkscape:cy="23.346305" inkscape:pageopacity="0" inkscape:pageshadow="2" inkscape:window-height="953" inkscape:window-maximized="0" inkscape:window-width="1418" inkscape:window-x="65" inkscape:window-y="24" inkscape:zoom="4.3913796" objecttolerance="10" pagecolor="#ffffff" showgrid="false">
	</sodipodi:namedview>
<path id="path3139" inkscape:connector-curvature="0" class="st0" d="M45.2078743,29.3809528L45.2078743,29.3809528
	c-0.5714264-0.5714302-1.3333359-0.8571434-2.1904755-0.8571434c-0.8571434,0-1.6190491,0.3809528-2.0952377,0.8571434l0,0
	c-0.5714264,0.5714283-0.8571434,1.3333321-0.8571434,2.1904755c0,0.8571453,0.3809509,1.6190472,0.8571434,2.1904774l0,0
	c0.5714264,0.5714264,1.3333359,0.8571434,2.0952377,0.8571434c0.8571434,0,1.6190491-0.3809547,2.1904755-0.8571434l0,0
	c0.5714264-0.5714302,0.8571434-1.3333321,0.8571434-2.1904774C46.0650177,30.7142849,45.6840668,29.9523811,45.2078743,29.3809528
	L45.2078743,29.3809528z M43.0173988,71.6666641L43.0173988,71.6666641c0.8571434,0,1.6190491-0.3809509,2.1904755-0.8571472l0,0
	c0.5714264-0.5714264,0.8571434-1.3333359,0.8571434-2.1904755s-0.3809509-1.6190491-0.8571434-2.1904755l0,0
	c-0.5714264-0.5714264-1.3333359-0.8571396-2.1904755-0.8571396c-0.8571434,0-1.6190491,0.3809509-2.0952377,0.8571396l0,0
	c-0.5714264,0.5714264-0.8571434,1.3333359-0.8571434,2.1904755c0,0.8571472,0.3809509,1.6190491,0.8571434,2.1904755l0,0
	C41.3983498,71.2857132,42.1602554,71.6666641,43.0173988,71.6666641L43.0173988,71.6666641z M59.5888252,62.3333321
	L59.5888252,62.3333321c0.7619019-0.1904793,1.4285698-0.6666679,1.8095245-1.4285736l0.0952377-0.0952339l0,0
	c0.3809509-0.6666679,0.4761887-1.5238075,0.2857132-2.1904755c-0.1904793-0.7619057-0.6666679-1.4285736-1.4285736-1.9047623l0,0
	c-0.6666641-0.3809547-1.5238075-0.4761925-2.2857132-0.2857132c-0.7619057,0.1904755-1.4285736,0.6666679-1.8095245,1.4285698
	c-0.3809547,0.7619057-0.4761925,1.5238075-0.2857132,2.3809547C56.1602516,61,56.6364403,61.6666679,57.3983459,62.1428566l0,0
	C57.96978,62.4285698,58.8269196,62.5238075,59.5888252,62.3333321L59.5888252,62.3333321L59.5888252,62.3333321z
	 M46.1602554,46.9047585L46.1602554,46.9047585c-0.7619057-0.7619019-1.9047623-1.3333321-3.1428566-1.3333321
	s-2.2857132,0.4761925-3.1428566,1.3333321c-0.7619019,0.7619057-1.2380943,1.9047623-1.2380943,3.1428566
	s0.4761925,2.3809547,1.2380943,3.1428566c0.7619057,0.7619057,1.9047623,1.3333359,3.1428566,1.3333359
	s2.285717-0.4761925,3.1428566-1.3333359c0.7619057-0.8571434,1.2380943-1.9047623,1.2380943-3.1428566
	S46.9221611,47.7619057,46.1602554,46.9047585L46.1602554,46.9047585z M44.3507309,41.6666641L44.3507309,41.6666641
	c1.8095245,0.2857132,3.3333321,1.1428604,4.5714264,2.3809547l0,0c0.1904793,0.1904755,0.3809547,0.3809509,0.5714264,0.6666679
	l3.0476227-1.8095245c-0.3809547-1.2380943-0.3809547-2.5714302-0.0952377-3.8095245
	c0.4761887-1.6190491,1.5238075-3.1428566,3.0476189-4h0.0952377c1.5238075-0.8571396,3.3333321-1.0476189,4.9523811-0.6666641
	c1.6190491,0.4761887,3.0476151,1.5238075,3.9999924,3.1428566l0,0C65.3983459,39.1904755,65.5888214,41,65.2078629,42.6190453
	c-0.4761887,1.6190491-1.5238037,3.1428566-3.0476151,4l-0.3809547,0.2857132l0,0
	c-1.4285736,0.6666679-3.0476189,0.8571472-4.4761925,0.3809547c-1.2380943-0.2857132-2.2857132-1.0476189-3.1428566-2
	l-3.0476189,1.8095245C51.4935799,48.0476189,51.6840515,49,51.6840515,50.1428566
	c0,1.0476189-0.1904755,2.0952377-0.5714264,3.0476189L54.160244,55c0.8571472-0.9523811,2-1.6190453,3.1428566-1.9999962
	c1.6190491-0.4761925,3.4285698-0.2857132,4.9523811,0.6666679h0.0952377l0,0c1.5238113,0.9523811,2.4761925,2.3809509,2.9523811,4
	s0.2857208,3.4285698-0.6666641,5.0476189l-0.0952377,0.0952339l0,0l0,0
	c-0.9523773,1.5238113-2.2857132,2.5714264-3.9047585,3.0476227c-1.6190453,0.4761887-3.4285698,0.2857132-4.9523811-0.6666718l0,0
	c-1.5238075-0.9523773-2.5714264-2.3809509-3.0476189-4c-0.2857132-1.2380943-0.2857132-2.5714264,0.0952377-3.8095207
	l-3.2380905-1.9047661c-0.1904755,0.1904755-0.3809509,0.3809547-0.5714264,0.5714264l0,0
	c-1.2380943,1.2380943-2.7619057,2.0952377-4.5714264,2.3809509v3.5238113
	c1.2380943,0.2857132,2.3809509,0.9523811,3.2380943,1.8095245l0,0l0,0C48.7316895,65,49.4935913,66.6190491,49.4935913,68.4285736
	s-0.7619019,3.5238037-1.9047623,4.6666641l0,0l0,0C46.3507347,74.3333359,44.7316895,75,42.9221611,75
	c-1.8095245,0-3.4285698-0.7619019-4.6666679-1.9047623l0,0l0,0c-1.1428566-1.2380905-1.9047585-2.8571396-1.9047585-4.6666641
	s0.7619019-3.5238113,1.9047585-4.6666718l0,0l0,0c0.8571472-0.8571434,2-1.5238075,3.2380981-1.8095245V58.428566
	c-1.8095245-0.2857132-3.3333321-1.1428566-4.5714264-2.3809509l0,0c-1.5238075-1.5238075-2.4761887-3.7142868-2.4761887-6
	c0-2.3809509,0.9523811-4.4761887,2.4761887-5.9999962l0,0c1.2380943-1.2380943,2.7619057-2.0952415,4.5714264-2.3809547v-3.5238075
	c-1.2380943-0.2857132-2.3809509-0.9523811-3.2380981-1.8095245l0,0l0,0
	c-1.1428566-1.2380943-1.9047585-2.8571434-1.9047585-4.666666S37.1126366,28.1428566,38.2554932,27l0,0l0,0
	c1.1428604-1.2380943,2.8571434-2,4.6666679-2c1.8095284,0,3.4285698,0.7619057,4.6666679,2l0,0l0,0
	c1.1428604,1.2380962,1.9047623,2.8571434,1.9047623,4.666666s-0.7619019,3.5238094-1.9047623,4.666666l0,0
	c-0.8571434,0.8571434-1.9999962,1.5238113-3.2380943,1.8095245C44.3507309,38.1428566,44.3507309,41.6666641,44.3507309,41.6666641
	z M61.3983498,39.2857132L61.3983498,39.2857132c-0.4761887-0.7619057-1.1428566-1.2380943-1.8095245-1.4285698
	c-0.7619057-0.1904793-1.6190491-0.0952415-2.285717,0.2857132l0,0c-0.7619019,0.3809509-1.2380943,1.1428566-1.4285698,1.9047623
	c-0.1904793,0.7619019-0.0952377,1.6190453,0.2857132,2.3809509l0,0c0.3809547,0.7619019,1.0476189,1.2380943,1.8095245,1.4285698
	c0.7619057,0.1904793,1.6190491,0.0952377,2.285717-0.2857132l0,0c0.6666679-0.4761887,1.1428566-1.1428566,1.3333321-1.8095207
	C61.8745384,40.9047623,61.7793045,40.0476189,61.3983498,39.2857132L61.3983498,39.2857132"/>
</svg>
