<?xml version="1.0" encoding="utf-8"?>
<!-- Generator: Adobe Illustrator 22.0.1, SVG Export Plug-In . SVG Version: 6.00 Build 0)  -->
<svg version="1.1"
	 id="svg3074" inkscape:version="0.48.4 r9939" sodipodi:docname="kafka-ar21.svg" xmlns:cc="http://creativecommons.org/ns#" xmlns:dc="http://purl.org/dc/elements/1.1/" xmlns:inkscape="http://www.inkscape.org/namespaces/inkscape" xmlns:rdf="http://www.w3.org/1999/02/22-rdf-syntax-ns#" xmlns:sodipodi="http://sodipodi.sourceforge.net/DTD/sodipodi-0.dtd" xmlns:svg="http://www.w3.org/2000/svg"
	 xmlns="http://www.w3.org/2000/svg" xmlns:xlink="http://www.w3.org/1999/xlink" x="0px" y="0px" viewBox="0 0 100 100"
	 style="enable-background:new 0 0 100 100;" xml:space="preserve">
<style type="text/css">
	.st0{fill:#231F20;}
</style>
<sodipodi:namedview  bordercolor="#666666" borderopacity="1" gridtolerance="10" guidetolerance="10" id="namedview3080" inkscape:current-layer="svg3074" inkscape:cx="105.80545" inkscape:cy="23.346305" inkscape:pageopacity="0" inkscape:pageshadow="2" inkscape:window-height="953" inkscape:window-maximized="0" inkscape:window-width="1418" inkscape:window-x="65" inkscape:window-y="24" inkscape:zoom="4.3913796" objecttolerance="10" pagecolor="#ffffff" showgrid="false">
	</sodipodi:namedview>
<path id="path3139" inkscape:connector-curvature="0" class="st0" d="M45,13.6L45,13.6c-0.6-0.6-1.4-0.9-2.3-0.9
	c-0.9,0-1.7,0.4-2.2,0.9h0c-0.6,0.6-0.9,1.4-0.9,2.3c0,0.9,0.4,1.7,0.9,2.3l0,0c0.6,0.6,1.4,0.9,2.2,0.9c0.9,0,1.7-0.4,2.3-0.9l0,0
	c0.6-0.6,0.9-1.4,0.9-2.3C45.9,15,45.5,14.2,45,13.6C45,13.6,45,13.6,45,13.6z M42.7,58L42.7,58c0.9,0,1.7-0.4,2.3-0.9l0,0
	c0.6-0.6,0.9-1.4,0.9-2.3c0-0.9-0.4-1.7-0.9-2.3h0c-0.6-0.6-1.4-0.9-2.3-0.9c-0.9,0-1.7,0.4-2.2,0.9h0c-0.6,0.6-0.9,1.4-0.9,2.3
	c0,0.9,0.4,1.7,0.9,2.3l0,0C41,57.6,41.8,58,42.7,58L42.7,58z M60.1,48.2L60.1,48.2c0.8-0.2,1.5-0.7,1.9-1.5l0.1-0.1l0,0
	c0.4-0.7,0.5-1.6,0.3-2.3c-0.2-0.8-0.7-1.5-1.5-2l0,0c-0.7-0.4-1.6-0.5-2.4-0.3c-0.8,0.2-1.5,0.7-1.9,1.5c-0.4,0.8-0.5,1.6-0.3,2.5
	c0.2,0.8,0.7,1.5,1.5,2h0C58.4,48.3,59.3,48.4,60.1,48.2L60.1,48.2L60.1,48.2z M46,32L46,32c-0.8-0.8-2-1.4-3.3-1.4
	c-1.3,0-2.4,0.5-3.3,1.4c-0.8,0.8-1.3,2-1.3,3.3c0,1.3,0.5,2.5,1.3,3.3c0.8,0.8,2,1.4,3.3,1.4c1.3,0,2.4-0.5,3.3-1.4
	c0.8-0.9,1.3-2,1.3-3.3C47.3,34,46.8,32.9,46,32C46,32,46,32,46,32z M44.1,26.5L44.1,26.5c1.9,0.3,3.5,1.2,4.8,2.5h0
	c0.2,0.2,0.4,0.4,0.6,0.7l3.2-1.9c-0.4-1.3-0.4-2.7-0.1-4c0.5-1.7,1.6-3.3,3.2-4.2l0.1,0c1.6-0.9,3.5-1.1,5.2-0.7
	c1.7,0.5,3.2,1.6,4.2,3.3v0c0.9,1.7,1.1,3.6,0.7,5.3c-0.5,1.7-1.6,3.3-3.2,4.2l-0.4,0.3h0c-1.5,0.7-3.2,0.9-4.7,0.4
	c-1.3-0.3-2.4-1.1-3.3-2.1l-3.2,1.9c0.4,1,0.6,2,0.6,3.2c0,1.1-0.2,2.2-0.6,3.2l3.2,1.9c0.9-1,2.1-1.7,3.3-2.1
	c1.7-0.5,3.6-0.3,5.2,0.7l0.1,0v0c1.6,1,2.6,2.5,3.1,4.2c0.5,1.7,0.3,3.6-0.7,5.3l-0.1,0.1l0,0l0,0c-1,1.6-2.4,2.7-4.1,3.2
	c-1.7,0.5-3.6,0.3-5.2-0.7v0c-1.6-1-2.7-2.5-3.2-4.2c-0.3-1.3-0.3-2.7,0.1-4L49.5,41c-0.2,0.2-0.4,0.4-0.6,0.6l0,0
	c-1.3,1.3-2.9,2.2-4.8,2.5v3.7c1.3,0.3,2.5,1,3.4,1.9l0,0l0,0c1.2,1.3,2,3,2,4.9c0,1.9-0.8,3.7-2,4.9l0,0l0,0c-1.3,1.3-3,2-4.9,2
	c-1.9,0-3.6-0.8-4.9-2h0v0c-1.2-1.3-2-3-2-4.9c0-1.9,0.8-3.7,2-4.9v0h0c0.9-0.9,2.1-1.6,3.4-1.9v-3.7c-1.9-0.3-3.5-1.2-4.8-2.5l0,0
	c-1.6-1.6-2.6-3.9-2.6-6.3c0-2.5,1-4.7,2.6-6.3h0c1.3-1.3,2.9-2.2,4.8-2.5v-3.7c-1.3-0.3-2.5-1-3.4-1.9h0v0c-1.2-1.3-2-3-2-4.9
	c0-1.9,0.8-3.7,2-4.9l0,0l0,0c1.2-1.3,3-2.1,4.9-2.1c1.9,0,3.6,0.8,4.9,2.1v0h0c1.2,1.3,2,3,2,4.9c0,1.9-0.8,3.7-2,4.9l0,0
	c-0.9,0.9-2.1,1.6-3.4,1.9C44.1,22.8,44.1,26.5,44.1,26.5z M62,24L62,24c-0.5-0.8-1.2-1.3-1.9-1.5c-0.8-0.2-1.7-0.1-2.4,0.3h0
	c-0.8,0.4-1.3,1.2-1.5,2c-0.2,0.8-0.1,1.7,0.3,2.5l0,0c0.4,0.8,1.1,1.3,1.9,1.5c0.8,0.2,1.7,0.1,2.4-0.3l0,0
	c0.7-0.5,1.2-1.2,1.4-1.9C62.5,25.7,62.4,24.8,62,24L62,24"/>
<g>
	<path id="path3141" inkscape:connector-curvature="0" class="st0" d="M31.5,74.2h1.8v5.7l2.6-3h2.2L35,80.4l3.2,4.4h-2.1l-2.8-3.9
		v3.9h-1.8V74.2"/>
	<path id="path3143" inkscape:connector-curvature="0" class="st0" d="M40.3,80.9c0,1,0.7,2.4,2.3,2.4c1,0,1.7-0.5,2-1.3
		c0.2-0.3,0.3-0.7,0.3-1.1c0-0.4-0.1-0.8-0.2-1.1c-0.3-0.7-1-1.4-2.1-1.4C41.1,78.4,40.3,79.6,40.3,80.9
		C40.3,80.9,40.3,80.9,40.3,80.9z M46.8,84.8H45v-1.1c-0.5,0.9-1.5,1.4-2.6,1.4c-2.5,0-3.9-2-3.9-4.2c0-2.5,1.8-4.2,3.9-4.2
		c1.4,0,2.3,0.8,2.6,1.4v-1.1h1.8V84.8"/>
	<path id="path3145" inkscape:connector-curvature="0" class="st0" d="M48.9,78.4h-1v-1.4h1v-0.4c0-2.3,1.7-2.5,3.1-2.5v1.4
		c-0.5,0-1.2,0-1.2,1.1v0.4h1.2v1.4h-1.2v6.4h-1.8V78.4"/>
	<path id="path3147" inkscape:connector-curvature="0" class="st0" d="M53.2,74.2H55v5.7l2.6-3h2.2l-3.2,3.5l3.2,4.4h-2.1L55,80.8
		v3.9h-1.8L53.2,74.2"/>
	<path id="path3149" inkscape:connector-curvature="0" class="st0" d="M62,80.9c0,1,0.7,2.4,2.3,2.4c1,0,1.7-0.5,2-1.3
		c0.2-0.3,0.3-0.7,0.3-1.1c0-0.4-0.1-0.8-0.2-1.1c-0.3-0.7-1-1.4-2.1-1.4C62.9,78.4,62,79.6,62,80.9C62,80.9,62,80.9,62,80.9z
		 M68.5,84.8h-1.8v-1.1c-0.5,0.9-1.5,1.4-2.6,1.4c-2.5,0-3.9-2-3.9-4.2c0-2.5,1.8-4.2,3.9-4.2c1.4,0,2.3,0.8,2.6,1.4v-1.1h1.8V84.8"
		/>
</g>
<rect y="-112" width="100" height="100"/>
</svg>
