<?xml version="1.0" encoding="utf-8"?>
<!-- Generator: Adobe Illustrator 22.1.0, SVG Export Plug-In . SVG Version: 6.00 Build 0)  -->
<svg version="1.1" id="Layer_1" xmlns="http://www.w3.org/2000/svg" xmlns:xlink="http://www.w3.org/1999/xlink" x="0px" y="0px"
	 viewBox="0 0 100 100" style="enable-background:new 0 0 100 100;" xml:space="preserve">
<style type="text/css">
	.st0{fill:#4D4D4D;}
	.st1{fill:#D3D3D3;}
	.st2{fill:#25C6EB;}
	.st3{fill:#00B7E5;}
	.st4{fill:#008AAC;}
</style>
<g>
	<polygon class="st0" points="71,37.1 63.8,25 34.9,25 27.7,37.1 20.5,50 27.7,62.9 34.9,75 63.8,75 71,62.9 78.2,50 	"/>
	<path class="st1" d="M77.2,37.1h-6.4h-43L20.2,50l7.5,12.9h43h6.4c1.3,0,2.6-1.3,2.6-2.6V39.7C79.8,38.4,78.7,37.1,77.2,37.1z"/>
	<polygon class="st2" points="40.3,66.5 45.2,66.5 47.3,62.9 47.3,62.9 47.3,62.9 47.3,62.9 39.8,50 47.3,37.1 47.3,37.1 47.3,37.1 
		47.3,37.1 45.2,33.5 40.3,33.5 30.8,50 30.8,50 30.8,50 	"/>
	<polygon class="st2" points="58.4,66.5 53.5,66.5 51.4,62.9 51.4,62.9 51.4,62.9 51.4,62.9 58.9,50 51.4,37.1 51.4,37.1 51.4,37.1 
		51.4,37.1 53.5,33.5 58.4,33.5 67.9,50 67.9,50 67.9,50 	"/>
	<g>
		<polygon class="st3" points="65.6,45.6 53.5,66.5 58.4,66.5 67.9,50 67.9,50 67.9,50 		"/>
	</g>
	<g>
		<polygon class="st4" points="33.1,54.4 45.2,33.5 40.3,33.5 30.8,50 30.8,50 30.8,50 		"/>
	</g>
	<polygon class="st3" points="39.8,50 35.7,50 45.2,33.5 47.3,37.1 	"/>
	<polygon class="st4" points="58.9,50 63,50 53.5,66.5 51.4,62.9 	"/>
	<polygon class="st3" points="40.3,66.5 45.2,66.5 35.7,50 33.1,54.4 	"/>
	<polygon class="st3" points="63,50 53.5,33.5 51.4,37.1 58.9,50 	"/>
</g>
</svg>
