<?xml version="1.0" encoding="utf-8"?>
<!-- Generator: Adobe Illustrator 22.1.0, SVG Export Plug-In . SVG Version: 6.00 Build 0)  -->
<svg version="1.1" id="Layer_1" xmlns="http://www.w3.org/2000/svg" xmlns:xlink="http://www.w3.org/1999/xlink" x="0px" y="0px"
	 viewBox="0 0 100 100" style="enable-background:new 0 0 100 100;" xml:space="preserve">
<style type="text/css">
	.st0{fill:#78C9CF;}
	.st1{fill:#FFFFFF;}
	.st2{fill:#D3D3D3;}
	.st3{fill:#4D4D4D;}
	.st4{fill:#25C6EB;}
	.st5{fill:#00B7E5;}
	.st6{fill:#008AAC;}
</style>
<path class="st0" d="M62.4,85.4H35.7c-0.4,0-0.8-0.4-0.8-0.8v-8.4c0-0.4,0.4-0.8,0.8-0.8h26.7c0.4,0,0.8,0.4,0.8,0.8v8.4
	C63.2,85.1,62.9,85.4,62.4,85.4z"/>
<g>
	<path class="st1" d="M38.3,83.1v-0.4c0.5,0.2,1,0.3,1.6,0.3c1.1,0,1.5-0.4,1.5-1.1s-0.5-1-1.5-1.4s-1.5-0.8-1.5-1.6
		c0-0.8,0.7-1.4,1.8-1.4c0.6,0,1,0.1,1.5,0.3v0.4c-0.5-0.2-0.9-0.3-1.4-0.3c-0.9,0-1.4,0.4-1.4,1s0.4,0.9,1.4,1.3s1.6,0.7,1.6,1.7
		c0,0.9-0.7,1.5-1.9,1.5C39.3,83.4,38.6,83.3,38.3,83.1z"/>
	<path class="st1" d="M45.2,77.6h0.4l2.2,5.6h-0.4l-0.6-1.6H44l-0.6,1.6H43L45.2,77.6z M46.6,81.3l-1.2-3.1l-1.2,3.1H46.6z"/>
	<path class="st1" d="M49.3,77.6h0.5l2.3,5l2.3-5h0.5v5.6h-0.4v-4.8l-2.2,4.8h-0.2l-2.2-4.8v4.8h-0.4v-5.6H49.3z"/>
	<path class="st1" d="M56.5,77.6h0.4v5.3H60v0.4h-3.5V77.6z"/>
</g>
<g>
	<path class="st2" d="M26.8,43.6v-9.9h2.7v3.7l3-3.7h3.1L32,38.2l3.8,5.4h-3.1L30.3,40l-0.8,0.8v2.8H26.8z"/>
	<path class="st2" d="M43.2,41.3v2.4h-7v-9.9h6.9v2.4h-4.2v1.4h3.6v2.2h-3.6v1.6H43.2z"/>
	<path class="st2" d="M46.4,33.8l1.8,4.3l1.8-4.3H53l-3.4,6.6v3.3h-2.7v-3.3l-3.3-6.6H46.4z"/>
	<path class="st2" d="M51.7,38.6c0-0.6,0.1-1.2,0.3-1.8c0.2-0.6,0.6-1.1,1-1.6c0.4-0.5,1-0.8,1.6-1.1s1.3-0.4,2.1-0.4
		c1,0,1.8,0.2,2.5,0.6c0.7,0.4,1.2,0.9,1.6,1.6l-2.1,1.5c-0.1-0.2-0.2-0.4-0.4-0.6c-0.2-0.2-0.3-0.3-0.5-0.4
		c-0.2-0.1-0.4-0.2-0.6-0.2c-0.2,0-0.4-0.1-0.6-0.1c-0.4,0-0.7,0.1-1,0.2c-0.3,0.2-0.5,0.4-0.7,0.6c-0.2,0.2-0.3,0.5-0.4,0.8
		c-0.1,0.3-0.1,0.6-0.1,0.9c0,0.3,0.1,0.7,0.2,1c0.1,0.3,0.2,0.6,0.4,0.8c0.2,0.2,0.4,0.4,0.7,0.6c0.3,0.1,0.6,0.2,1,0.2
		c0.2,0,0.4,0,0.6-0.1c0.2,0,0.4-0.1,0.6-0.2s0.3-0.2,0.5-0.4c0.1-0.2,0.3-0.3,0.3-0.6l2.2,1.3c-0.1,0.4-0.4,0.7-0.7,1
		c-0.3,0.3-0.6,0.5-1,0.7s-0.8,0.3-1.2,0.4s-0.9,0.2-1.3,0.2c-0.7,0-1.4-0.1-2-0.4c-0.6-0.3-1.1-0.7-1.6-1.2c-0.4-0.5-0.8-1-1-1.6
		C51.8,39.9,51.7,39.2,51.7,38.6z"/>
	<path class="st2" d="M61.5,43.6v-9.9h2.7v7.5h3.4v2.4H61.5z"/>
	<path class="st2" d="M72.6,43.7c-0.8,0-1.4-0.1-2-0.4C70,43,69.4,42.6,69,42.1c-0.4-0.5-0.8-1-1-1.6c-0.2-0.6-0.4-1.2-0.4-1.9
		c0-0.6,0.1-1.3,0.4-1.9c0.2-0.6,0.6-1.1,1-1.6c0.4-0.5,1-0.8,1.6-1.1c0.6-0.3,1.3-0.4,2-0.4c0.7,0,1.4,0.1,2,0.4
		c0.6,0.3,1.1,0.7,1.6,1.1s0.8,1,1,1.6c0.2,0.6,0.4,1.2,0.4,1.8c0,0.6-0.1,1.3-0.4,1.9c-0.2,0.6-0.6,1.1-1,1.6
		c-0.4,0.5-1,0.8-1.6,1.1C74,43.6,73.4,43.7,72.6,43.7z M70.4,38.7c0,0.3,0,0.7,0.1,1c0.1,0.3,0.2,0.6,0.4,0.8s0.4,0.4,0.7,0.6
		c0.3,0.1,0.6,0.2,1,0.2c0.4,0,0.7-0.1,1-0.2s0.5-0.4,0.7-0.6s0.3-0.5,0.4-0.8c0.1-0.3,0.1-0.6,0.1-1c0-0.3,0-0.7-0.1-1
		c-0.1-0.3-0.2-0.6-0.4-0.8c-0.2-0.2-0.4-0.4-0.7-0.6c-0.3-0.1-0.6-0.2-1-0.2c-0.4,0-0.7,0.1-1,0.2c-0.3,0.1-0.5,0.3-0.7,0.6
		c-0.2,0.2-0.3,0.5-0.4,0.8C70.4,38.1,70.4,38.4,70.4,38.7z"/>
	<path class="st2" d="M80.6,33.8h2.5l3.4,9.9h-2.7l-0.6-1.9h-2.6l-0.6,1.9h-2.8L80.6,33.8z M82.7,39.9l-0.9-3.1l-0.9,3.1H82.7z"/>
	<path class="st2" d="M87.6,43.6v-9.9h2.7v3.7l3-3.7h3.1l-3.6,4.4l3.8,5.4h-3.1L91.1,40l-0.7,0.8v2.8H87.6z"/>
</g>
<g>
	<polygon class="st3" points="22.4,33.7 19.6,29 8.4,29 5.6,33.7 2.8,38.7 5.6,43.7 8.4,48.4 19.6,48.4 22.4,43.7 25.2,38.7 	"/>
	<path class="st2" d="M24.8,33.7h-2.5H5.6l-2.9,5l2.9,5h16.7h2.5c0.5,0,1-0.5,1-1v-8C25.8,34.2,25.4,33.7,24.8,33.7z"/>
	<polygon class="st4" points="10.5,45.1 12.4,45.1 13.2,43.7 13.2,43.7 13.2,43.7 13.2,43.7 10.3,38.7 13.2,33.7 13.2,33.7 
		13.2,33.7 13.2,33.7 12.4,32.3 10.5,32.3 6.8,38.7 6.8,38.7 6.8,38.7 	"/>
	<polygon class="st4" points="17.5,45.1 15.6,45.1 14.8,43.7 14.8,43.7 14.8,43.7 14.8,43.7 17.7,38.7 14.8,33.7 14.8,33.7 
		14.8,33.7 14.8,33.7 15.6,32.3 17.5,32.3 21.2,38.7 21.2,38.7 21.2,38.7 	"/>
	<g>
		<polygon class="st5" points="20.3,37 15.6,45.1 17.5,45.1 21.2,38.7 21.2,38.7 21.2,38.7 		"/>
	</g>
	<g>
		<polygon class="st6" points="7.7,40.4 12.4,32.3 10.5,32.3 6.8,38.7 6.8,38.7 6.8,38.7 		"/>
	</g>
	<polygon class="st5" points="10.3,38.7 8.7,38.7 12.4,32.3 13.2,33.7 	"/>
	<polygon class="st6" points="17.7,38.7 19.3,38.7 15.6,45.1 14.8,43.7 	"/>
	<polygon class="st5" points="10.5,45.1 12.4,45.1 8.7,38.7 7.7,40.4 	"/>
	<polygon class="st5" points="19.3,38.7 15.6,32.3 14.8,33.7 17.7,38.7 	"/>
</g>
</svg>
