<svg id="Layer_1" data-name="Layer 1" xmlns="http://www.w3.org/2000/svg" viewBox="0 0 100 100"><defs><style>.cls-1{fill:#fff;}.cls-2{fill:#326ce5;}.cls-3{fill:#326de5;}</style></defs><path class="cls-1" d="M50,16.51l18.66,8.91,4.61,20L60.36,61.52H39.64L26.73,45.46l4.61-20Z"/><path class="cls-1" d="M39.64,64a2.5,2.5,0,0,1-1.95-.93L24.78,47a2.5,2.5,0,0,1-.49-2.12l4.61-20a2.5,2.5,0,0,1,1.36-1.69l18.66-8.92a2.5,2.5,0,0,1,2.15,0l18.66,8.91a2.5,2.5,0,0,1,1.36,1.69l4.61,20A2.5,2.5,0,0,1,75.22,47L62.3,63.08a2.5,2.5,0,0,1-1.95.93H39.64ZM29.43,44.84L40.84,59H59.16L70.57,44.84,66.5,27.16,50,19.28,33.5,27.16Z"/><path class="cls-2" d="M49.82,14.35a3.4,3.4,0,0,0-1.3.33L30.85,23.13A3.36,3.36,0,0,0,29,25.4l-4.36,19a3.33,3.33,0,0,0,.46,2.57l0.19,0.27L37.55,62.43a3.39,3.39,0,0,0,2.64,1.26H59.81a3.39,3.39,0,0,0,2.64-1.26L74.69,47.21a3.33,3.33,0,0,0,.65-2.84L71,25.4a3.36,3.36,0,0,0-1.83-2.27L51.46,14.68a3.4,3.4,0,0,0-1.64-.33h0Z"/><path class="cls-1" d="M50,20.81A1.12,1.12,0,0,0,48.94,22v0c0,0.09,0,.19,0,0.27a8.83,8.83,0,0,0,.14,1,9.88,9.88,0,0,1,.12,1.92,1.15,1.15,0,0,1-.34.55l0,0.45a13.77,13.77,0,0,0-1.91.29A13.61,13.61,0,0,0,40,30.45l-0.38-.27A0.84,0.84,0,0,1,39,30.12a9.88,9.88,0,0,1-1.43-1.29,8.82,8.82,0,0,0-.7-0.74l-0.24-.19a1.26,1.26,0,0,0-.74-0.28,1,1,0,0,0-.84.37,1.12,1.12,0,0,0,.26,1.56h0l0.22,0.18a8.82,8.82,0,0,0,.88.51A9.88,9.88,0,0,1,38,31.36a1.18,1.18,0,0,1,.21.61l0.34,0.3a13.69,13.69,0,0,0-2.16,9.55L36,42a1.47,1.47,0,0,1-.45.46,9.88,9.88,0,0,1-1.9.31,8.85,8.85,0,0,0-1,.08l-0.28.07h0a1.06,1.06,0,1,0,.47,2.06h0l0.27-.06A8.84,8.84,0,0,0,34,44.5,9.89,9.89,0,0,1,35.85,44a1.17,1.17,0,0,1,.61.21l0.46-.08A13.77,13.77,0,0,0,43,51.72l-0.19.46a1,1,0,0,1,.09.6,10.34,10.34,0,0,1-1,1.72,8.86,8.86,0,0,0-.57.85l-0.14.28a1.06,1.06,0,1,0,1.91.91h0l0.13-.27a8.83,8.83,0,0,0,.31-1,7.4,7.4,0,0,1,.82-1.9,0.86,0.86,0,0,1,.46-0.22l0.24-.43a13.69,13.69,0,0,0,9.76,0l0.23,0.41a0.84,0.84,0,0,1,.54.33,9.87,9.87,0,0,1,.73,1.78,8.85,8.85,0,0,0,.31,1l0.13,0.27a1.06,1.06,0,1,0,1.91-.9l-0.14-.28A8.82,8.82,0,0,0,58,54.48a9.89,9.89,0,0,1-.94-1.68,0.83,0.83,0,0,1,.08-0.62A3.64,3.64,0,0,1,57,51.75a13.77,13.77,0,0,0,6.1-7.67l0.45,0.08a0.84,0.84,0,0,1,.59-0.22,9.89,9.89,0,0,1,1.84.54,8.85,8.85,0,0,0,.95.37l0.27,0.06h0a1.06,1.06,0,1,0,.47-2.06l-0.31-.07a8.85,8.85,0,0,0-1-.08,9.88,9.88,0,0,1-1.9-.31A1.19,1.19,0,0,1,64,41.93l-0.43-.12a13.75,13.75,0,0,0-2.2-9.52l0.38-.34a0.84,0.84,0,0,1,.2-0.6,9.88,9.88,0,0,1,1.57-1.11,8.85,8.85,0,0,0,.88-0.51l0.23-.19a1.06,1.06,0,1,0-1.32-1.65l-0.24.19a8.85,8.85,0,0,0-.7.74A9.91,9.91,0,0,1,61,30.1a1.18,1.18,0,0,1-.64.07l-0.4.29a13.87,13.87,0,0,0-8.78-4.24c0-.14,0-0.4,0-0.47a0.84,0.84,0,0,1-.35-0.53,9.9,9.9,0,0,1,.12-1.92,8.83,8.83,0,0,0,.14-1c0-.09,0-0.21,0-0.3A1.12,1.12,0,0,0,50,20.81h0ZM48.67,29l-0.31,5.55h0a0.93,0.93,0,0,1-1.48.71h0L42.3,32.07a10.9,10.9,0,0,1,5.25-2.86A11.15,11.15,0,0,1,48.67,29Zm2.65,0a11,11,0,0,1,6.34,3.06l-4.52,3.21h0a0.93,0.93,0,0,1-1.48-.71h0ZM40.65,34.14l4.16,3.72v0a0.93,0.93,0,0,1-.37,1.6v0L39.1,41a10.9,10.9,0,0,1,1.55-6.9h0Zm18.68,0A11.1,11.1,0,0,1,60.92,41l-5.35-1.54v0a0.93,0.93,0,0,1-.37-1.6h0l4.13-3.7h0Zm-10.18,4h1.7l1.06,1.32-0.38,1.65L50,41.86l-1.53-.74-0.38-1.65Zm5.46,4.53,0.21,0h0l5.51,0.93a10.91,10.91,0,0,1-4.41,5.54L53.79,44h0a0.94,0.94,0,0,1,.81-1.3h0Zm-9.25,0a0.93,0.93,0,0,1,.84,1.3l0,0-2.12,5.11a11,11,0,0,1-4.4-5.5l5.46-.93h0l0.18,0h0ZM50,44.94a0.94,0.94,0,0,1,.85.49h0l2.69,4.87a11.16,11.16,0,0,1-1.08.3,10.94,10.94,0,0,1-6-.31l2.69-4.86h0A0.93,0.93,0,0,1,50,44.94Z"/><path class="cls-1" d="M42.14,57.23a1,1,0,0,1-.42-0.1,1.13,1.13,0,0,1-.45-1.52l0-.1,0.09-.18a4.45,4.45,0,0,1,.37-0.57l0.2-.28a10.27,10.27,0,0,0,1-1.72,1,1,0,0,0-.09-0.59h0L43,51.72a13.78,13.78,0,0,1-6.1-7.61l-0.46.08h0l0,0A1.12,1.12,0,0,0,35.89,44h0A9.76,9.76,0,0,0,34,44.5h0l-0.31.13a4.48,4.48,0,0,1-.64.23l-0.19,0-0.08,0h0a1.07,1.07,0,1,1-.47-2.08h0l0.09,0,0.2,0a4.32,4.32,0,0,1,.67-0.06l0.35,0h0a9.81,9.81,0,0,0,1.87-.31A1.27,1.27,0,0,0,35.9,42l0-.06h0l0.44-.13a13.7,13.7,0,0,1,2.16-9.54L38.21,32h0v0a1.05,1.05,0,0,0-.2-0.56,9.94,9.94,0,0,0-1.57-1.1l-0.3-.17a4.33,4.33,0,0,1-.58-0.35l-0.16-.12-0.06-.05h0A1.13,1.13,0,0,1,35.05,28a1,1,0,0,1,.81-0.38h0a1.27,1.27,0,0,1,.74.28l0.06,0,0.17,0.14a4.42,4.42,0,0,1,.47.49l0.23,0.25,0,0A9.79,9.79,0,0,0,39,30.11a0.73,0.73,0,0,0,.55.07h0.08L40,30.44a13.62,13.62,0,0,1,6.91-3.95,13.83,13.83,0,0,1,1.91-.29l0-.44h0a1.15,1.15,0,0,0,.34-0.54,9.86,9.86,0,0,0-.12-1.9v0c0-.12,0-0.23-0.06-0.34a4.4,4.4,0,0,1-.09-0.67c0-.05,0-0.12,0-0.18V22h0v0A1.13,1.13,0,0,1,50,20.8a1,1,0,0,1,.75.35,1.25,1.25,0,0,1,.31.84s0,0.07,0,.11,0,0.14,0,.19A4.39,4.39,0,0,1,51,23c0,0.11,0,.22-0.06.34v0.06a9.63,9.63,0,0,0-.11,1.86,0.73,0.73,0,0,0,.29.47l0.06,0.05h0c0,0.08,0,.32,0,0.46A13.72,13.72,0,0,1,56,27.54a13.87,13.87,0,0,1,4,2.91l0.4-.28h0.06A1,1,0,0,0,61,30.09a9.66,9.66,0,0,0,1.39-1.25l0,0,0.22-.25a4.54,4.54,0,0,1,.48-0.49l0.17-.14,0.07-.05a1.13,1.13,0,0,1,1.59.1,1,1,0,0,1,.2.81,1.25,1.25,0,0,1-.46.77l-0.08.06-0.16.13a4.28,4.28,0,0,1-.58.35l-0.3.17A10,10,0,0,0,62,31.35a0.73,0.73,0,0,0-.19.52v0.08h0l-0.16.15-0.21.19a13.75,13.75,0,0,1,2.2,9.52L64,41.92h0l0,0a1.06,1.06,0,0,0,.42.41,9.82,9.82,0,0,0,1.87.31h0l0.35,0a4.32,4.32,0,0,1,.67.06l0.19,0,0.11,0a1.07,1.07,0,1,1-.47,2.08h0l-0.1,0-0.17,0a4.35,4.35,0,0,1-.63-0.23L66,44.49h0a9.75,9.75,0,0,0-1.81-.53,0.73,0.73,0,0,0-.52.17l-0.07,0h0l-0.44-.08a13.77,13.77,0,0,1-2.33,4.38A13.63,13.63,0,0,1,57,51.75l0.05,0.14a1.59,1.59,0,0,0,.12.28h0l0,0.07a0.72,0.72,0,0,0-.05.54A9.93,9.93,0,0,0,58,54.48l0.2,0.28a4.35,4.35,0,0,1,.37.56l0.1,0.2,0,0.08a1.13,1.13,0,0,1-.45,1.52,1,1,0,0,1-.83,0,1.24,1.24,0,0,1-.64-0.62l0-.08-0.09-.19a4.46,4.46,0,0,1-.21-0.64c0-.11-0.06-0.21-0.09-0.33v0a9.76,9.76,0,0,0-.72-1.75,0.73,0.73,0,0,0-.46-0.3l-0.07,0h0L55,53l-0.12-.21a13.7,13.7,0,0,1-9.76,0l-0.24.43h0a0.85,0.85,0,0,0-.45.22,4,4,0,0,0-.59,1.27c-0.07.21-.14,0.42-0.23,0.63s-0.07.22-.09,0.33a4.33,4.33,0,0,1-.21.64l-0.09.18,0,0.09h0A1.2,1.2,0,0,1,42.14,57.23Zm0.71-5.06a1.05,1.05,0,0,1,.09.6,10.28,10.28,0,0,1-1,1.72l-0.2.28a4.43,4.43,0,0,0-.37.57l-0.09.18,0,0.1a1.05,1.05,0,1,0,1.89.9h0l0-.09,0.09-.18a4.32,4.32,0,0,0,.21-0.64c0-.11.06-0.22,0.1-0.33s0.16-.42.23-0.63a4,4,0,0,1,.6-1.28,0.87,0.87,0,0,1,.46-0.22l0.24-.44h0a13.69,13.69,0,0,0,9.76,0h0L55,53l0.1,0.18,0.07,0a0.75,0.75,0,0,1,.47.31,9.78,9.78,0,0,1,.72,1.75v0c0,0.11.07,0.22,0.09,0.33a4.45,4.45,0,0,0,.21.64l0.09,0.19,0,0.08a1.23,1.23,0,0,0,.63.61,1,1,0,0,0,.82,0,1.11,1.11,0,0,0,.45-1.49l0-.08-0.1-.2a4.34,4.34,0,0,0-.37-0.56L58,54.49a9.93,9.93,0,0,1-.94-1.68,0.74,0.74,0,0,1,.05-0.56l0-.07A1.7,1.7,0,0,1,57,51.9L57,51.75h0a13.76,13.76,0,0,0,6.1-7.67h0l0.45,0.08,0.06,0a0.75,0.75,0,0,1,.53-0.18,9.77,9.77,0,0,1,1.81.53h0l0.32,0.13a4.33,4.33,0,0,0,.63.23l0.17,0,0.1,0h0a1.05,1.05,0,1,0,.47-2l-0.11,0-0.19,0a4.3,4.3,0,0,0-.67-0.06l-0.35,0h0a9.82,9.82,0,0,1-1.88-.31A1.07,1.07,0,0,1,64.07,42l0,0-0.43-.13h0a13.74,13.74,0,0,0-2.2-9.52h0l0.21-.19,0.16-.14V31.86a0.75,0.75,0,0,1,.2-0.53,10,10,0,0,1,1.57-1.11l0.31-.17a4.26,4.26,0,0,0,.57-0.34l0.16-.12,0.08-.06a1.23,1.23,0,0,0,.45-0.75,1,1,0,0,0-.2-0.79,1.11,1.11,0,0,0-1.57-.09l-0.07.05-0.17.14a4.52,4.52,0,0,0-.47.49l-0.22.25,0,0A9.67,9.67,0,0,1,61,30.11a1.06,1.06,0,0,1-.59.08H60.35l-0.41.29h0a13.85,13.85,0,0,0-4-2.91,13.71,13.71,0,0,0-4.79-1.33h0c0-.14,0-0.39,0-0.47l-0.06-.05a0.74,0.74,0,0,1-.29-0.48,9.65,9.65,0,0,1,.11-1.87V23.29c0-.12,0-0.23.06-0.34a4.37,4.37,0,0,0,.09-0.67c0-.05,0-0.13,0-0.19S51,22,51,22a1.23,1.23,0,0,0-.31-0.83A1,1,0,0,0,50,20.82h0a1.11,1.11,0,0,0-1,1.17h0V22.1c0,0.06,0,.13,0,0.18A4.37,4.37,0,0,0,49,23c0,0.11,0,.22.06,0.34v0a9.87,9.87,0,0,1,.12,1.91,1.16,1.16,0,0,1-.34.55l0,0.45h0a13.81,13.81,0,0,0-1.91.29A13.6,13.6,0,0,0,40,30.46h0l-0.38-.27H39.55A0.75,0.75,0,0,1,39,30.13a9.79,9.79,0,0,1-1.41-1.27l0,0-0.23-.25a4.4,4.4,0,0,0-.47-0.48L36.7,28l-0.06,0a1.25,1.25,0,0,0-.73-0.28,1,1,0,0,0-.84.37,1.11,1.11,0,0,0,.26,1.55h0l0.06,0.05,0.15,0.12a4.31,4.31,0,0,0,.57.35l0.3,0.17A10,10,0,0,1,38,31.36a1.07,1.07,0,0,1,.21.57v0l0.34,0.31h0a13.68,13.68,0,0,0-2.16,9.54h0L36,42l0,0.05a1.25,1.25,0,0,1-.42.41,9.82,9.82,0,0,1-1.88.31h0l-0.35,0a4.3,4.3,0,0,0-.67.06l-0.2,0-0.09,0h0a1.05,1.05,0,1,0,.47,2h0l0.08,0,0.19,0a4.44,4.44,0,0,0,.63-0.23L34,44.5h0A9.78,9.78,0,0,1,35.85,44a1.07,1.07,0,0,1,.57.19l0,0,0.47-.08h0A13.77,13.77,0,0,0,43,51.71h0ZM50,50.88a10.92,10.92,0,0,1-3.53-.58h0l2.69-4.86h0A1,1,0,0,1,50,44.93a1,1,0,0,1,.86.49h0l2.7,4.87h0c-0.35.12-.71,0.22-1.08,0.3A11.07,11.07,0,0,1,50,50.88Zm-3.51-.6a11,11,0,0,0,6,.3c0.36-.08.72-0.18,1.07-0.3l-2.68-4.85h0A0.93,0.93,0,0,0,50,44.95h0a0.93,0.93,0,0,0-.78.49h0Zm9.42-1.12h0L53.78,44h0a0.95,0.95,0,0,1,.82-1.31h0.23l5.52,0.93h0a10.92,10.92,0,0,1-4.41,5.55h0ZM53.8,44l2.13,5.15a10.9,10.9,0,0,0,4.39-5.52l-5.49-.93h0l-0.21,0h0A0.93,0.93,0,0,0,53.8,44h0Zm-9.7,5.16h0a11,11,0,0,1-4.4-5.51h0l5.47-.93h0.19A0.94,0.94,0,0,1,46.2,44l0,0h0Zm-4.39-5.51a10.95,10.95,0,0,0,4.38,5.48L46.2,44l0,0h0a0.92,0.92,0,0,0-.84-1.29l-0.18,0h0ZM50,41.87h0l-1.54-.74h0l-0.38-1.65h0l1.06-1.32h1.71l1.06,1.33-0.38,1.66h0Zm-1.53-.75L50,41.85l1.52-.73,0.38-1.64-1.05-1.32H49.15L48.1,39.47Zm-9.38-.06h0a10.91,10.91,0,0,1,1.55-6.9h0l4.16,3.72v0a0.94,0.94,0,0,1-.37,1.61v0h0Zm1.56-6.9A10.89,10.89,0,0,0,39.11,41l5.31-1.53v0h0a0.92,0.92,0,0,0,.36-1.59h0v0ZM60.92,41h0l-5.36-1.54v0a0.94,0.94,0,0,1-.37-1.61h0l4.14-3.71h0A11.11,11.11,0,0,1,60.93,41h0Zm-5.35-1.56L60.91,41a11.09,11.09,0,0,0-1.59-6.85L55.2,37.85h0a0.92,0.92,0,0,0,.36,1.59h0v0Zm-8.17-4a0.93,0.93,0,0,1-.55-0.18h0l-4.56-3.23h0a10.94,10.94,0,0,1,5.25-2.86A11.24,11.24,0,0,1,48.67,29h0l-0.31,5.56h0A0.94,0.94,0,0,1,47.41,35.48Zm-0.55-.2h0a0.92,0.92,0,0,0,1.47-.71h0L48.66,29a11.19,11.19,0,0,0-1.12.19,10.92,10.92,0,0,0-5.24,2.85l4.54,3.22h0Zm5.72,0.18a0.95,0.95,0,0,1-.94-0.9h0L51.32,29h0a11,11,0,0,1,6.34,3.06h0l-4.53,3.21h0A0.94,0.94,0,0,1,52.58,35.46Zm-0.93-.91h0a0.93,0.93,0,0,0,1.47.71h0l4.51-3.2a11,11,0,0,0-6.32-3Z"/><g id="layer1-4-7"><g id="text4373-4"><g id="path2985-1"><path class="cls-3" d="M8.65,80.22l0.74-.82,0.76-.84,0.67-.81,0.56-.66H14.3q-0.87,1-1.71,1.93T10.78,80.9a10.79,10.79,0,0,1,1,1.07q0.53,0.61,1,1.27t0.91,1.32q0.41,0.66.69,1.2H11.6q-0.26-.43-0.61-0.94t-0.71-1a12,12,0,0,0-.81-1A6.27,6.27,0,0,0,8.65,82v3.78H6.2V73.38L8.65,73v7.24"/></g><g id="path2987-3"><path class="cls-3" d="M22.94,85.46a12.81,12.81,0,0,1-1.61.33,12.6,12.6,0,0,1-2.07.16,5,5,0,0,1-1.84-.3,2.83,2.83,0,0,1-1.15-.82,3.32,3.32,0,0,1-.61-1.28,6.86,6.86,0,0,1-.18-1.63V77.1h2.45v4.53a3.51,3.51,0,0,0,.31,1.71,1.24,1.24,0,0,0,1.17.53l0.56,0,0.53-.07V77.1h2.45v8.36"/></g><g id="path2989-2"><path class="cls-3" d="M30.81,81.36q0-2.37-1.74-2.37a3,3,0,0,0-.76.1,2.14,2.14,0,0,0-.59.25v4.46l0.46,0.07,0.61,0a1.76,1.76,0,0,0,1.51-.69,3,3,0,0,0,.51-1.83m2.5,0.07A5.34,5.34,0,0,1,33,83.3a3.87,3.87,0,0,1-.87,1.43,4,4,0,0,1-1.42.92A5.44,5.44,0,0,1,28.8,86q-0.44,0-.94,0t-1-.1L26,85.67l-0.76-.2V73.38L27.71,73v4.31A4.59,4.59,0,0,1,28.57,77a4.4,4.4,0,0,1,1-.1,3.82,3.82,0,0,1,1.63.33,3.11,3.11,0,0,1,1.18.91,4.09,4.09,0,0,1,.72,1.43,6.41,6.41,0,0,1,.25,1.84"/></g><g id="path2991-8"><path class="cls-3" d="M34.78,81.49a5.34,5.34,0,0,1,.35-2A4.41,4.41,0,0,1,36.06,78a3.89,3.89,0,0,1,1.32-.87,4.21,4.21,0,0,1,1.55-.3A3.81,3.81,0,0,1,41.84,78a4.61,4.61,0,0,1,1.07,3.31q0,0.21,0,.48t0,0.44H37.3a1.63,1.63,0,0,0,.71,1.2,2.84,2.84,0,0,0,1.68.44A7.44,7.44,0,0,0,41,83.76a5.28,5.28,0,0,0,1.07-.31l0.33,2a3.39,3.39,0,0,1-.53.2,5.75,5.75,0,0,1-.74.16q-0.39.08-.86,0.13a8.64,8.64,0,0,1-.92,0,5.52,5.52,0,0,1-2-.35,4.11,4.11,0,0,1-1.43-.94A4,4,0,0,1,35,83.27a5.8,5.8,0,0,1-.26-1.78m5.76-.94a2.3,2.3,0,0,0-.12-0.61,1.36,1.36,0,0,0-.28-0.53A1.38,1.38,0,0,0,39.67,79,1.5,1.5,0,0,0,39,78.89a1.57,1.57,0,0,0-.71.15,1.37,1.37,0,0,0-.49.36,1.76,1.76,0,0,0-.31.54,3.79,3.79,0,0,0-.15.61h3.24"/></g><g id="path2993-1"><path class="cls-3" d="M50,79.27l-0.77-.16a4.4,4.4,0,0,0-1-.1,3.87,3.87,0,0,0-.56,0,2.78,2.78,0,0,0-.48.08v6.62H44.8V77.56a13.78,13.78,0,0,1,1.55-.43,8.74,8.74,0,0,1,2-.21l0.48,0a4.86,4.86,0,0,1,.56.07,5,5,0,0,1,.56.1,2.28,2.28,0,0,1,.48.13l-0.41,2"/></g><g id="path2995-5"><path class="cls-3" d="M51.74,77.39a12.82,12.82,0,0,1,1.61-.33,12.6,12.6,0,0,1,2.07-.16,4.86,4.86,0,0,1,1.83.3,2.69,2.69,0,0,1,1.17.81A3.17,3.17,0,0,1,59,79.25a6.65,6.65,0,0,1,.18,1.61v4.89H56.76V81.16a3.31,3.31,0,0,0-.31-1.68A1.28,1.28,0,0,0,55.28,79a5.08,5.08,0,0,0-.56,0l-0.53,0v6.68H51.74V77.39"/></g><g id="path2997-7"><path class="cls-3" d="M61,81.49a5.34,5.34,0,0,1,.35-2A4.41,4.41,0,0,1,62.32,78a3.89,3.89,0,0,1,1.32-.87,4.21,4.21,0,0,1,1.55-.3A3.81,3.81,0,0,1,68.1,78a4.61,4.61,0,0,1,1.07,3.31q0,0.21,0,.48t0,0.44H63.56a1.63,1.63,0,0,0,.71,1.2,2.84,2.84,0,0,0,1.68.44,7.44,7.44,0,0,0,1.32-.12,5.29,5.29,0,0,0,1.07-.31l0.33,2a3.39,3.39,0,0,1-.53.2,5.75,5.75,0,0,1-.74.16q-0.39.08-.86,0.13a8.64,8.64,0,0,1-.92,0,5.52,5.52,0,0,1-2-.35,4.11,4.11,0,0,1-1.43-.94,4,4,0,0,1-.84-1.43A5.8,5.8,0,0,1,61,81.49m5.76-.94a2.3,2.3,0,0,0-.12-0.61,1.36,1.36,0,0,0-.28-0.53A1.38,1.38,0,0,0,65.93,79a1.5,1.5,0,0,0-.71-0.15,1.57,1.57,0,0,0-.71.15,1.37,1.37,0,0,0-.49.36,1.76,1.76,0,0,0-.31.54,3.79,3.79,0,0,0-.15.61H66.8"/></g><g id="path2999-1"><path class="cls-3" d="M71,74.94l2.45-.39V77.1h2.95v2H73.43v3a2.48,2.48,0,0,0,.26,1.23,1.19,1.19,0,0,0,1.1.46,5.1,5.1,0,0,0,.81-0.07,4.63,4.63,0,0,0,.77-0.21l0.35,1.91a7,7,0,0,1-1,.31,5.75,5.75,0,0,1-1.33.13,4.51,4.51,0,0,1-1.66-.26,2.71,2.71,0,0,1-1.05-.76,3,3,0,0,1-.56-1.18A7.32,7.32,0,0,1,71,82.21V74.94"/></g><g id="path3001-2"><path class="cls-3" d="M77.62,81.49a5.34,5.34,0,0,1,.35-2A4.41,4.41,0,0,1,78.91,78a3.89,3.89,0,0,1,1.32-.87,4.21,4.21,0,0,1,1.55-.3A3.81,3.81,0,0,1,84.68,78a4.61,4.61,0,0,1,1.07,3.31q0,0.21,0,.48t0,0.44H80.14a1.63,1.63,0,0,0,.71,1.2,2.84,2.84,0,0,0,1.68.44,7.44,7.44,0,0,0,1.32-.12,5.29,5.29,0,0,0,1.07-.31l0.33,2a3.39,3.39,0,0,1-.53.2,5.75,5.75,0,0,1-.74.16q-0.39.08-.86,0.13a8.64,8.64,0,0,1-.92,0,5.52,5.52,0,0,1-2-.35,4.11,4.11,0,0,1-1.43-.94,4,4,0,0,1-.84-1.43,5.8,5.8,0,0,1-.26-1.78m5.76-.94a2.3,2.3,0,0,0-.12-0.61A1.36,1.36,0,0,0,83,79.42,1.38,1.38,0,0,0,82.51,79a1.5,1.5,0,0,0-.71-0.15,1.57,1.57,0,0,0-.71.15,1.37,1.37,0,0,0-.49.36,1.76,1.76,0,0,0-.31.54,3.79,3.79,0,0,0-.15.61h3.24"/></g><g id="path3003-2"><path class="cls-3" d="M90.13,84a2.45,2.45,0,0,0,1-.13,0.51,0.51,0,0,0,.28-0.51A0.61,0.61,0,0,0,91,82.84a6.34,6.34,0,0,0-1.1-.51q-0.58-.21-1.05-0.44a3.24,3.24,0,0,1-.79-0.54,2.32,2.32,0,0,1-.51-0.77,2.83,2.83,0,0,1-.18-1.07,2.31,2.31,0,0,1,.91-1.93,3.94,3.94,0,0,1,2.48-.71,7.54,7.54,0,0,1,1.51.15,6.62,6.62,0,0,1,1.15.3L93,79.22A8.8,8.8,0,0,0,92.05,79a4.94,4.94,0,0,0-1.12-.12q-1.15,0-1.15.64a0.66,0.66,0,0,0,0,.26A0.62,0.62,0,0,0,90,80l0.39,0.23,0.66,0.26a9.31,9.31,0,0,1,1.33.59,2.8,2.8,0,0,1,.82.63,1.75,1.75,0,0,1,.43.74,3.14,3.14,0,0,1,.13,1,2.19,2.19,0,0,1-1,1.94,4.75,4.75,0,0,1-2.72.66,7.93,7.93,0,0,1-1.93-.2,7.82,7.82,0,0,1-1.05-.33l0.41-2a8.68,8.68,0,0,0,1.28.39,6.62,6.62,0,0,0,1.3.13"/></g></g></g></svg>