<?xml version="1.0" encoding="utf-8"?>
<!-- Generator: Adobe Illustrator 19.2.1, SVG Export Plug-In . SVG Version: 6.00 Build 0)  -->
<svg version="1.1" id="Layer_1" xmlns="http://www.w3.org/2000/svg" xmlns:xlink="http://www.w3.org/1999/xlink" x="0px" y="0px"
	 viewBox="0 0 100 100" style="enable-background:new 0 0 100 100;" xml:space="preserve">
<style type="text/css">
	.st0{fill:#326CE5;}
	.st1{fill:#FFFFFF;stroke:#FFFFFF;stroke-width:0.25;}
</style>
<g id="Layer_2">
</g>
<g>
	<g id="Layer_1_1_">
		<g id="layer1">
			<g id="g3052">
				<path id="path3055" class="st0" d="M49.5,0.7c-0.9,0-1.8,0.3-2.5,0.6L12.2,18c-1.8,0.9-3.1,2.5-3.6,4.4L0.1,59.8
					c-0.4,1.8-0.1,3.6,0.9,5c0.1,0.1,0.3,0.3,0.4,0.6l24.1,29.9c1.3,1.6,3.1,2.5,5.2,2.5h38.6c2.1,0,4-0.9,5.2-2.5l24.1-29.9
					c1.3-1.6,1.8-3.7,1.3-5.6l-8.6-37.3c-0.4-1.9-1.8-3.6-3.6-4.4L52.8,1.3C51.7,0.9,50.7,0.7,49.5,0.7z"/>
				<path id="path3059" class="st1" d="M49.8,13.5c-1.2,0-2.1,1-2.1,2.4l0,0c0,0.1,0,0.4,0,0.6c0,0.7,0.1,1.3,0.3,1.9
					c0.1,1.5,0.3,2.7,0.3,3.8c-0.1,0.4-0.4,0.7-0.7,1v0.9c-1.2,0.1-2.5,0.3-3.7,0.6c-5.5,1.2-10.1,4-13.6,7.8
					c-0.3-0.1-0.6-0.4-0.7-0.6c-0.4,0-0.7,0.1-1.2-0.1c-0.9-0.6-1.8-1.5-2.8-2.5c-0.4-0.4-0.7-1-1.3-1.5c-0.1-0.1-0.3-0.3-0.4-0.3
					c-0.4-0.3-0.9-0.6-1.5-0.6s-1.2,0.3-1.6,0.7c-0.7,0.9-0.4,2.2,0.4,3.1l0,0c0.1,0.1,0.3,0.3,0.4,0.3c0.6,0.4,1.2,0.6,1.8,1
					c1.2,0.7,2.2,1.5,3.1,2.2c0.3,0.3,0.4,0.9,0.4,1.2l0.7,0.6c-3.6,5.3-5.2,12-4.3,18.8l-0.9,0.3c-0.3,0.3-0.6,0.7-0.9,0.9
					c-1,0.3-2.2,0.4-3.7,0.6c-0.7,0-1.3,0-2.1,0.1c-0.1,0-0.4,0.1-0.6,0.1l0,0l0,0c-1.2,0.3-2.1,1.5-1.8,2.5
					c0.3,1.2,1.5,1.8,2.7,1.5l0,0l0,0c0.1,0,0.4-0.1,0.6-0.1c0.7-0.1,1.2-0.4,1.9-0.7c1.3-0.4,2.5-0.9,3.7-1c0.4,0,0.9,0.3,1.2,0.4
					l0.9-0.1c2.1,6.5,6.5,11.7,12,15l-0.4,0.9c0.1,0.3,0.3,0.9,0.1,1.2c-0.4,1-1,2.2-1.9,3.4c-0.4,0.6-0.7,1-1.2,1.6
					c-0.1,0.1-0.1,0.4-0.3,0.6c-0.6,1.2-0.1,2.5,0.9,3c1,0.4,2.4,0,2.8-1.2l0,0l0,0c0.1-0.1,0.1-0.4,0.3-0.6
					c0.3-0.7,0.4-1.2,0.6-1.9c0.6-1.3,0.9-2.8,1.6-3.7c0.1-0.3,0.6-0.3,0.9-0.4l0.4-0.9c4.9,1.9,10.2,2.4,15.7,1.2
					c1.2-0.3,2.4-0.6,3.6-1c0.1,0.3,0.4,0.7,0.4,0.7c0.3,0.1,0.7,0.1,1,0.6c0.6,1,0.9,2.1,1.5,3.6c0.1,0.6,0.3,1.2,0.6,1.9
					c0,0.1,0.1,0.4,0.3,0.6c0.6,1.2,1.8,1.6,2.8,1.2c1-0.4,1.5-1.8,0.9-3c-0.1-0.1-0.1-0.4-0.3-0.6c-0.3-0.6-0.7-1-1.2-1.6
					c-0.7-1.2-1.5-2.2-1.8-3.3c-0.1-0.6,0-0.9,0.1-1.2c-0.1-0.1-0.3-0.6-0.3-0.9c5.8-3.4,10.1-8.9,12-15.1c0.3,0,0.7,0.1,0.9,0.1
					c0.3-0.1,0.6-0.4,1.2-0.4c1.2,0.1,2.2,0.6,3.7,1c0.6,0.3,1.2,0.6,1.9,0.7c0.1,0,0.3,0.1,0.6,0.1l0,0l0,0
					c1.2,0.3,2.4-0.4,2.7-1.5c0.3-1.2-0.6-2.2-1.8-2.5c-0.1,0-0.4-0.1-0.6-0.1c-0.7-0.1-1.3-0.1-2.1-0.1c-1.5-0.1-2.7-0.3-3.7-0.6
					c-0.4-0.1-0.7-0.7-0.9-0.9l-0.9-0.3c0.4-3.1,0.3-6.5-0.4-9.8c-0.7-3.3-2.1-6.4-3.8-9c0.1-0.1,0.6-0.6,0.7-0.6
					c0-0.4,0-0.7,0.4-1.2c0.9-0.7,1.9-1.5,3.1-2.2c0.6-0.3,1.2-0.6,1.8-1c0.1-0.1,0.3-0.3,0.4-0.3c1-0.7,1.2-2.2,0.4-3.1
					c-0.7-0.9-2.1-1-3.1-0.3c-0.1,0.1-0.3,0.3-0.4,0.3c-0.6,0.4-0.9,0.9-1.3,1.5c-1,1-1.9,1.9-2.8,2.5c-0.4,0.3-1,0.1-1.3,0.1
					l-0.7,0.6c-4.6-4.7-10.7-7.7-17.3-8.3c0-0.3,0-0.7,0-0.9c-0.3-0.3-0.6-0.4-0.7-1c-0.1-1.2,0-2.4,0.3-3.8
					c0.1-0.7,0.3-1.2,0.3-1.9c0-0.1,0-0.4,0-0.6C51.9,14.5,51,13.5,49.8,13.5L49.8,13.5z M47.3,29.6l-0.6,11l0,0
					c0,1-0.9,1.8-1.8,1.8c-0.4,0-0.7-0.1-1-0.3l0,0l-9.2-6.4c2.8-2.7,6.2-4.7,10.4-5.6C45.8,29.9,46.5,29.7,47.3,29.6z M52.5,29.6
					c4.7,0.6,9.2,2.7,12.4,6.1L56,42l0,0c-0.7,0.6-1.9,0.4-2.5-0.3c-0.3-0.3-0.4-0.7-0.4-1l0,0L52.5,29.6z M31.4,39.7l8.1,7.3l0,0
					c0.7,0.6,0.9,1.8,0.3,2.5C39.6,49.7,39.3,50,39,50l0,0l-10.5,3C27.9,48.4,29.1,43.7,31.4,39.7z M68.2,39.7
					c1.2,1.9,2.1,4.1,2.7,6.5c0.6,2.4,0.7,4.7,0.4,7L60.8,50l0,0c-0.9-0.3-1.5-1.2-1.3-2.2c0.1-0.4,0.3-0.7,0.6-1l0,0L68.2,39.7
					L68.2,39.7z M48.2,47.7h3.4l2.1,2.7l-0.7,3.3l-3,1.5l-3-1.5l-0.7-3.3L48.2,47.7z M59,56.5c0.1,0,0.3,0,0.4,0l0,0l10.8,1.8
					c-1.6,4.4-4.6,8.3-8.7,11l-4.1-10.2l0,0c-0.4-0.9,0-1.9,0.9-2.4C58.4,56.5,58.7,56.5,59,56.5L59,56.5z M40.6,56.5
					c0.9,0,1.6,0.6,1.8,1.5c0.1,0.4,0,0.7-0.1,1.2l0,0l-4.1,10.1c-3.8-2.5-7-6.2-8.6-10.8l10.8-1.8l0,0
					C40.5,56.5,40.6,56.5,40.6,56.5L40.6,56.5z M49.8,61c0.3,0,0.6,0,0.9,0.1c0.3,0.1,0.6,0.4,0.9,0.7l0,0l5.3,9.6
					c-0.7,0.3-1.3,0.4-2.1,0.6c-4,0.9-8.1,0.6-11.7-0.6l5.3-9.6l0,0C48.6,61.3,49.2,61,49.8,61z"/>
			</g>
		</g>
	</g>
	<g id="Layer_3">
	</g>
</g>
</svg>
