<?xml version="1.0" encoding="utf-8"?>
<!-- Generator: Adobe Illustrator 19.1.0, SVG Export Plug-In . SVG Version: 6.00 Build 0)  -->
<svg version="1.1" xmlns="http://www.w3.org/2000/svg" xmlns:xlink="http://www.w3.org/1999/xlink" x="0px" y="0px"
	 viewBox="0 0 100 100" style="enable-background:new 0 0 100 100;" xml:space="preserve">
<style type="text/css">
	.st0{fill:#95A5A6;}
	.st1{fill:#0075A8;}
	.st2{fill:#0EB7ED;}
	.st3{fill:#D3EDF1;}
	.st4{fill:none;stroke:#000000;stroke-width:0.5;stroke-miterlimit:10;}
	.st5{fill:#394D54;}
	.st6{fill:#39B7E1;}
	.st7{fill:#FFFFFF;}
	.st8{fill:#336EE5;}
	.st9{fill:none;stroke:#FFFFFF;stroke-width:0.2744;}
	.st10{fill:#373535;}
	.st11{fill:#0074AA;}
	.st12{fill:#00C8FA;}
	.st13{fill:#00A9D2;}
	.st14{fill:#326CE5;}
	.st15{fill:#FFFFFF;stroke:#FFFFFF;stroke-width:0.25;}
	.st16{opacity:0.5;fill:#0EB7ED;}
</style>
<g id="Layer_2">
</g>
<g id="Layer_1">
	<g>
		<path id="path254_1_" class="st10" d="M7.1,85c0.2-0.3,0.4-0.5,0.7-0.8c0.2-0.3,0.5-0.6,0.7-0.9c0.2-0.3,0.4-0.6,0.6-0.9
			c0.2-0.3,0.4-0.6,0.5-0.8h2.7c-0.2,0.3-0.5,0.6-0.8,0.9c-0.3,0.3-0.6,0.7-0.9,1c-0.3,0.3-0.6,0.7-0.9,1c-0.3,0.3-0.6,0.6-0.8,0.9
			c0.3,0.3,0.6,0.7,1,1.1c0.4,0.4,0.7,0.8,1.1,1.3c0.3,0.4,0.7,0.9,1,1.3c0.3,0.4,0.5,0.8,0.7,1.2h-2.6c-0.1-0.3-0.3-0.7-0.6-1
			c-0.2-0.4-0.5-0.8-0.8-1.2c-0.3-0.4-0.5-0.7-0.8-1.1c-0.3-0.3-0.5-0.6-0.8-0.8v4.1H4.8V77.8l2.3-0.4V85L7.1,85z"/>
		<path id="path256_1_" class="st10" d="M21.1,90c-0.4,0.1-0.9,0.2-1.5,0.3c-0.6,0.1-1.3,0.2-2,0.2c-0.7,0-1.3-0.1-1.8-0.3
			c-0.5-0.2-0.8-0.5-1.1-0.8c-0.3-0.4-0.4-0.8-0.5-1.3c-0.1-0.5-0.1-1-0.1-1.6v-4.9h2.3v4.6c0,0.8,0.1,1.4,0.3,1.8
			c0.2,0.4,0.6,0.6,1.1,0.6c0.3,0,0.7,0,1-0.1v-6.8h2.3L21.1,90L21.1,90z"/>
		<path id="path258_1_" class="st10" d="M28.6,85.8c0-0.8-0.1-1.4-0.4-1.9c-0.3-0.4-0.7-0.6-1.2-0.6c-0.2,0-0.5,0-0.7,0.1
			c-0.2,0.1-0.4,0.2-0.6,0.3v4.7c0.2,0,0.4,0.1,0.5,0.1c0.2,0,0.4,0,0.5,0c0.6,0,1.1-0.2,1.4-0.6C28.5,87.5,28.6,86.8,28.6,85.8
			L28.6,85.8z M30.9,85.9c0,0.7-0.1,1.3-0.3,1.9c-0.2,0.6-0.5,1-0.8,1.4c-0.4,0.4-0.8,0.7-1.3,0.9c-0.5,0.2-1.1,0.3-1.8,0.3
			c-0.6,0-1.2,0-1.8-0.1c-0.6-0.1-1.1-0.2-1.6-0.3V77.8l2.3-0.4v4.4c0.3-0.1,0.6-0.3,0.9-0.3c0.3-0.1,0.6-0.1,0.9-0.1
			c0.6,0,1.1,0.1,1.5,0.3c0.4,0.2,0.8,0.5,1.1,0.9c0.3,0.4,0.5,0.9,0.7,1.4C30.9,84.6,30.9,85.2,30.9,85.9"/>
		<path id="path260_1_" class="st10" d="M32.1,86c0-0.8,0.1-1.4,0.4-2c0.2-0.6,0.5-1.1,0.9-1.5c0.4-0.4,0.8-0.7,1.3-0.9
			c0.5-0.2,1-0.3,1.5-0.3c1.3,0,2.3,0.4,2.9,1.1c0.7,0.8,1,1.9,1,3.3c0,0.1,0,0.3,0,0.5c0,0.2,0,0.3,0,0.4h-5.7c0,0.6,0.2,1,0.7,1.3
			c0.5,0.3,1.1,0.5,1.8,0.5c0.5,0,0.9,0,1.3-0.1c0.4-0.1,0.8-0.2,1-0.3l0.3,1.9c-0.4,0.1-0.8,0.3-1.3,0.3c-0.4,0.1-0.9,0.1-1.5,0.1
			c-0.7,0-1.4-0.1-2-0.3c-0.6-0.2-1.1-0.5-1.5-0.9c-0.4-0.4-0.7-0.8-1-1.4C32.2,87.4,32.1,86.7,32.1,86L32.1,86z M37.9,85.1
			c0-0.2,0-0.5-0.1-0.7c-0.1-0.2-0.2-0.4-0.3-0.6c-0.1-0.2-0.3-0.3-0.5-0.4c-0.2-0.1-0.5-0.2-0.8-0.2c-0.3,0-0.6,0-0.8,0.1
			c-0.2,0.1-0.4,0.2-0.5,0.4c-0.1,0.2-0.3,0.4-0.3,0.6c-0.1,0.2-0.1,0.5-0.2,0.7H37.9L37.9,85.1z"/>
		<path id="path262_1_" class="st10" d="M48.9,83.9c-0.1,0-0.3-0.1-0.5-0.1c-0.2,0-0.4-0.1-0.6-0.1c-0.2,0-0.4-0.1-0.6-0.1
			c-0.2,0-0.4,0-0.5,0c-0.3,0-0.6,0-0.9,0c-0.3,0-0.6,0.1-0.9,0.2v6.5h-2.3v-8.1c0.6-0.2,1.2-0.4,1.9-0.5c0.6-0.1,1.4-0.2,2.2-0.2
			c0.1,0,0.3,0,0.5,0c0.2,0,0.5,0,0.7,0.1c0.3,0,0.5,0.1,0.8,0.1c0.3,0,0.5,0.1,0.7,0.2L48.9,83.9L48.9,83.9z"/>
		<path id="path264_1_" class="st10" d="M51.2,81.8c0.4-0.1,0.9-0.2,1.5-0.3c0.6-0.1,1.3-0.1,2-0.1c0.7,0,1.3,0.1,1.7,0.3
			c0.5,0.2,0.8,0.5,1.1,0.8c0.3,0.4,0.5,0.8,0.6,1.3c0.1,0.5,0.2,1,0.2,1.6v4.9H56v-4.6c0-0.8-0.1-1.4-0.3-1.8
			c-0.2-0.4-0.6-0.5-1.1-0.5c-0.2,0-0.3,0-0.5,0c-0.2,0-0.3,0-0.5,0.1v6.8h-2.3V81.8z"/>
		<path id="path266_1_" class="st10" d="M59.9,86c0-0.8,0.1-1.4,0.4-2c0.2-0.6,0.5-1.1,0.9-1.5c0.4-0.4,0.8-0.7,1.3-0.9
			c0.5-0.2,1-0.3,1.5-0.3c1.3,0,2.3,0.4,2.9,1.1c0.7,0.8,1,1.9,1,3.3c0,0.1,0,0.3,0,0.5c0,0.2,0,0.3,0,0.4h-5.7c0,0.6,0.2,1,0.7,1.3
			c0.5,0.3,1.1,0.5,1.8,0.5c0.5,0,0.9,0,1.3-0.1c0.4-0.1,0.8-0.2,1-0.3l0.3,1.9c-0.4,0.1-0.8,0.3-1.3,0.3c-0.4,0.1-0.9,0.1-1.5,0.1
			c-0.7,0-1.4-0.1-2-0.3c-0.6-0.2-1.1-0.5-1.5-0.9c-0.4-0.4-0.7-0.8-1-1.4C60,87.4,59.9,86.7,59.9,86L59.9,86z M65.8,85.1
			c0-0.2,0-0.5-0.1-0.7c-0.1-0.2-0.2-0.4-0.3-0.6c-0.1-0.2-0.3-0.3-0.5-0.4c-0.2-0.1-0.5-0.2-0.8-0.2c-0.3,0-0.6,0-0.8,0.1
			c-0.2,0.1-0.4,0.2-0.5,0.4c-0.1,0.2-0.3,0.4-0.3,0.6c-0.1,0.2-0.1,0.5-0.2,0.7H65.8z"/>
		<path id="path268_1_" class="st10" d="M71.3,83.4h-2v-1.9h2v-2.2l2.3-0.4v2.6h3.7v1.9h-3.7V87c0,0.3,0,0.6,0.1,0.8
			c0.1,0.2,0.1,0.4,0.3,0.5c0.1,0.1,0.2,0.2,0.4,0.2c0.2,0,0.3,0.1,0.5,0.1c0.2,0,0.4,0,0.6,0c0.2,0,0.4,0,0.5-0.1
			c0.2,0,0.3-0.1,0.5-0.1c0.2-0.1,0.4-0.1,0.6-0.2l0.3,2c-0.4,0.2-0.9,0.3-1.4,0.4c-0.5,0.1-1,0.1-1.4,0.1c-0.5,0-1,0-1.4-0.1
			c-0.4-0.1-0.8-0.3-1-0.5c-0.3-0.2-0.5-0.6-0.6-1c-0.1-0.5-0.2-1-0.2-1.8L71.3,83.4L71.3,83.4z"/>
		<path id="path270_1_" class="st10" d="M78.5,86c0-0.8,0.1-1.4,0.4-2c0.2-0.6,0.5-1.1,0.9-1.5c0.4-0.4,0.8-0.7,1.3-0.9
			c0.5-0.2,1-0.3,1.5-0.3c1.3,0,2.3,0.4,2.9,1.1c0.7,0.8,1,1.9,1,3.3c0,0.1,0,0.3,0,0.5c0,0.2,0,0.3,0,0.4h-5.7c0,0.6,0.2,1,0.7,1.3
			c0.5,0.3,1.1,0.5,1.8,0.5c0.5,0,0.9,0,1.3-0.1c0.4-0.1,0.8-0.2,1-0.3L86,90c-0.4,0.1-0.8,0.3-1.3,0.3c-0.4,0.1-0.9,0.1-1.5,0.1
			c-0.7,0-1.4-0.1-2-0.3c-0.6-0.2-1.1-0.5-1.5-0.9c-0.4-0.4-0.7-0.8-1-1.4C78.6,87.4,78.5,86.7,78.5,86L78.5,86z M84.3,85.1
			c0-0.2,0-0.5-0.1-0.7c-0.1-0.2-0.2-0.4-0.3-0.6c-0.1-0.2-0.3-0.3-0.5-0.4c-0.2-0.1-0.5-0.2-0.8-0.2c-0.3,0-0.6,0-0.8,0.1
			c-0.2,0.1-0.4,0.2-0.5,0.4c-0.1,0.2-0.3,0.4-0.3,0.6c-0.1,0.2-0.1,0.5-0.2,0.7H84.3L84.3,85.1z"/>
		<path id="path272_1_" class="st10" d="M91.4,88.5c0.6,0,1,0,1.3-0.1c0.3-0.1,0.4-0.2,0.4-0.5c0-0.2,0-0.3-0.1-0.4
			c-0.1-0.1-0.2-0.2-0.4-0.3c-0.2-0.1-0.4-0.2-0.6-0.2c-0.2-0.1-0.4-0.1-0.7-0.2c-0.3-0.1-0.7-0.2-1-0.3c-0.3-0.1-0.7-0.3-0.9-0.5
			c-0.3-0.2-0.5-0.4-0.7-0.8s-0.3-0.7-0.3-1.1c0-0.4,0.1-0.7,0.2-1c0.1-0.3,0.4-0.6,0.7-0.9s0.7-0.5,1.2-0.6c0.5-0.1,1-0.2,1.7-0.2
			c0.6,0,1.1,0,1.6,0.1c0.5,0.1,0.9,0.2,1.3,0.4l-0.4,1.9c-0.2-0.1-0.5-0.2-1-0.3c-0.4-0.1-0.9-0.2-1.5-0.2c-0.6,0-1,0.1-1.2,0.2
			c-0.2,0.1-0.3,0.3-0.3,0.5c0,0.1,0,0.3,0.1,0.4c0.1,0.1,0.2,0.2,0.4,0.3c0.2,0.1,0.3,0.2,0.5,0.3c0.2,0.1,0.4,0.2,0.7,0.2
			c0.3,0.1,0.7,0.2,1,0.4c0.4,0.1,0.7,0.3,1,0.5c0.3,0.2,0.5,0.5,0.7,0.8c0.2,0.3,0.3,0.7,0.3,1.2c0,0.4-0.1,0.7-0.2,1
			c-0.1,0.3-0.4,0.6-0.7,0.8c-0.3,0.2-0.7,0.4-1.2,0.6c-0.5,0.1-1.1,0.2-1.9,0.2c-0.8,0-1.4-0.1-1.9-0.3c-0.5-0.2-1-0.3-1.3-0.5
			l0.4-1.9c0.4,0.2,0.9,0.3,1.4,0.5C90.4,88.5,90.9,88.5,91.4,88.5"/>
	</g>
	<g id="layer1">
		<g id="g3052">
			<path id="path3055" class="st14" d="M51,10c-0.6,0-1.2,0.2-1.7,0.4L25.8,21.7c-1.2,0.6-2.1,1.7-2.4,3l-5.8,25.2
				c-0.3,1.2-0.1,2.4,0.6,3.4c0.1,0.1,0.2,0.2,0.3,0.4l16.3,20.2c0.9,1.1,2.1,1.7,3.5,1.7l26.1,0c1.4,0,2.7-0.6,3.5-1.7l16.3-20.2
				c0.9-1.1,1.2-2.5,0.9-3.8l-5.8-25.2c-0.3-1.3-1.2-2.4-2.4-3L53.2,10.4C52.5,10.1,51.8,10,51,10z"/>
			<path id="path3059" class="st15" d="M51.2,18.6c-0.8,0-1.4,0.7-1.4,1.6c0,0,0,0,0,0c0,0.1,0,0.3,0,0.4c0,0.5,0.1,0.9,0.2,1.3
				c0.1,1,0.2,1.8,0.2,2.6c-0.1,0.3-0.3,0.5-0.5,0.7l0,0.6c-0.8,0.1-1.7,0.2-2.5,0.4c-3.7,0.8-6.8,2.7-9.2,5.3
				c-0.2-0.1-0.4-0.3-0.5-0.4c-0.3,0-0.5,0.1-0.8-0.1c-0.6-0.4-1.2-1-1.9-1.7c-0.3-0.3-0.5-0.7-0.9-1c-0.1-0.1-0.2-0.2-0.3-0.2
				c-0.3-0.2-0.6-0.4-1-0.4c-0.4,0-0.8,0.2-1.1,0.5c-0.5,0.6-0.3,1.5,0.3,2.1c0,0,0,0,0,0c0.1,0.1,0.2,0.2,0.3,0.2
				c0.4,0.3,0.8,0.4,1.2,0.7c0.8,0.5,1.5,1,2.1,1.5c0.2,0.2,0.3,0.6,0.3,0.8l0.5,0.4c-2.4,3.6-3.5,8.1-2.9,12.7l-0.6,0.2
				c-0.2,0.2-0.4,0.5-0.6,0.6c-0.7,0.2-1.5,0.3-2.5,0.4c-0.5,0-0.9,0-1.4,0.1c-0.1,0-0.3,0.1-0.4,0.1c0,0,0,0,0,0c0,0,0,0,0,0
				c-0.8,0.2-1.4,1-1.2,1.7c0.2,0.8,1,1.2,1.8,1c0,0,0,0,0,0c0,0,0,0,0,0c0.1,0,0.3-0.1,0.4-0.1c0.5-0.1,0.8-0.3,1.3-0.5
				c0.9-0.3,1.7-0.6,2.5-0.7c0.3,0,0.6,0.2,0.8,0.3l0.6-0.1c1.4,4.4,4.4,7.9,8.1,10.1l-0.3,0.6c0.1,0.2,0.2,0.6,0.1,0.8
				c-0.3,0.7-0.7,1.5-1.3,2.3c-0.3,0.4-0.5,0.7-0.8,1.1c-0.1,0.1-0.1,0.3-0.2,0.4c-0.4,0.8-0.1,1.7,0.6,2c0.7,0.3,1.6,0,1.9-0.8
				c0,0,0,0,0,0c0,0,0,0,0,0c0.1-0.1,0.1-0.3,0.2-0.4c0.2-0.5,0.3-0.8,0.4-1.3c0.4-0.9,0.6-1.9,1.1-2.5c0.1-0.2,0.4-0.2,0.6-0.3
				l0.3-0.6c3.3,1.3,6.9,1.6,10.6,0.8c0.8-0.2,1.6-0.4,2.4-0.7c0.1,0.2,0.3,0.5,0.3,0.5c0.2,0.1,0.5,0.1,0.7,0.4
				c0.4,0.7,0.6,1.4,1,2.4c0.1,0.4,0.2,0.8,0.4,1.3c0,0.1,0.1,0.3,0.2,0.4c0.4,0.8,1.2,1.1,1.9,0.8c0.7-0.3,1-1.2,0.6-2
				c-0.1-0.1-0.1-0.3-0.2-0.4c-0.2-0.4-0.5-0.7-0.8-1.1c-0.5-0.8-1-1.5-1.2-2.2c-0.1-0.4,0-0.6,0.1-0.8c-0.1-0.1-0.2-0.4-0.2-0.6
				c3.9-2.3,6.8-6,8.1-10.2c0.2,0,0.5,0.1,0.6,0.1c0.2-0.1,0.4-0.3,0.8-0.3c0.8,0.1,1.5,0.4,2.5,0.7c0.4,0.2,0.8,0.4,1.3,0.5
				c0.1,0,0.2,0.1,0.4,0.1c0,0,0,0,0,0c0,0,0,0,0,0c0.8,0.2,1.6-0.3,1.8-1c0.2-0.8-0.4-1.5-1.2-1.7c-0.1,0-0.3-0.1-0.4-0.1
				c-0.5-0.1-0.9-0.1-1.4-0.1c-1-0.1-1.8-0.2-2.5-0.4c-0.3-0.1-0.5-0.5-0.6-0.6l-0.6-0.2c0.3-2.1,0.2-4.4-0.3-6.6
				c-0.5-2.2-1.4-4.3-2.6-6.1c0.1-0.1,0.4-0.4,0.5-0.4c0-0.3,0-0.5,0.3-0.8c0.6-0.5,1.3-1,2.1-1.5c0.4-0.2,0.8-0.4,1.2-0.7
				c0.1-0.1,0.2-0.2,0.3-0.2c0.7-0.5,0.8-1.5,0.3-2.1S69.7,27.5,69,28c-0.1,0.1-0.2,0.2-0.3,0.2c-0.4,0.3-0.6,0.6-0.9,1
				c-0.7,0.7-1.3,1.3-1.9,1.7c-0.3,0.2-0.7,0.1-0.9,0.1l-0.5,0.4c-3.1-3.2-7.2-5.2-11.7-5.6c0-0.2,0-0.5,0-0.6
				c-0.2-0.2-0.4-0.3-0.5-0.7c-0.1-0.8,0-1.6,0.2-2.6c0.1-0.5,0.2-0.8,0.2-1.3c0-0.1,0-0.3,0-0.4C52.6,19.3,52,18.6,51.2,18.6
				L51.2,18.6z M49.5,29.5l-0.4,7.4l0,0c0,0.7-0.6,1.2-1.2,1.2c-0.3,0-0.5-0.1-0.7-0.2l0,0L41,33.6c1.9-1.8,4.2-3.2,7-3.8
				C48.5,29.7,49,29.6,49.5,29.5z M53,29.5c3.2,0.4,6.2,1.8,8.4,4.1l-6,4.3l0,0c-0.5,0.4-1.3,0.3-1.7-0.2c-0.2-0.2-0.3-0.5-0.3-0.7
				l0,0L53,29.5z M38.8,36.3l5.5,4.9l0,0c0.5,0.4,0.6,1.2,0.2,1.7c-0.2,0.2-0.4,0.4-0.6,0.4l0,0l-7.1,2C36.4,42.2,37.2,39,38.8,36.3
				z M63.6,36.3c0.8,1.3,1.4,2.8,1.8,4.4c0.4,1.6,0.5,3.2,0.3,4.7l-7.1-2.1l0,0c-0.6-0.2-1-0.8-0.9-1.5c0.1-0.3,0.2-0.5,0.4-0.7l0,0
				L63.6,36.3L63.6,36.3z M50.1,41.7h2.3l1.4,1.8l-0.5,2.2l-2,1l-2-1l-0.5-2.2L50.1,41.7z M57.4,47.7c0.1,0,0.2,0,0.3,0l0,0l7.3,1.2
				c-1.1,3-3.1,5.6-5.9,7.4l-2.8-6.9l0,0c-0.3-0.6,0-1.3,0.6-1.6C57,47.7,57.2,47.7,57.4,47.7L57.4,47.7z M45,47.7
				c0.6,0,1.1,0.4,1.2,1c0.1,0.3,0,0.5-0.1,0.8l0,0l-2.8,6.8c-2.6-1.7-4.7-4.2-5.8-7.3l7.3-1.2l0,0C44.9,47.7,45,47.7,45,47.7
				L45,47.7z M51.2,50.7c0.2,0,0.4,0,0.6,0.1c0.2,0.1,0.4,0.3,0.6,0.5h0l3.6,6.5c-0.5,0.2-0.9,0.3-1.4,0.4c-2.7,0.6-5.5,0.4-7.9-0.4
				l3.6-6.5h0C50.4,50.9,50.8,50.7,51.2,50.7z"/>
		</g>
	</g>
</g>
<g id="Layer_3">
</g>
</svg>
