<?xml version="1.0" encoding="utf-8"?>
<!-- Generator: Adobe Illustrator 19.1.0, SVG Export Plug-In . SVG Version: 6.00 Build 0)  -->
<svg version="1.1" id="Layer_1" xmlns="http://www.w3.org/2000/svg" xmlns:xlink="http://www.w3.org/1999/xlink" x="0px" y="0px"
	 viewBox="-1650 659.3 100 100" style="enable-background:new -1650 659.3 100 100;" xml:space="preserve">
<style type="text/css">
	.st0{fill:#EAF2F8;}
	.st1{fill:#2980B9;}
	.st2{fill:#D6EFF1;stroke:#78C9CF;stroke-width:2;stroke-miterlimit:10;}
	.st3{fill:#F9F5CD;stroke:#EADF5A;stroke-width:2;stroke-miterlimit:10;}
	.st4{fill:#F9F5CD;}
	.st5{fill:#EADF5A;}
	.st6{fill:none;stroke:#2980B9;stroke-width:2;stroke-miterlimit:10;}
	.st7{fill:none;stroke:#2980B9;stroke-miterlimit:10;}
	.st8{fill:none;stroke:#334851;stroke-width:2;stroke-miterlimit:10;}
</style>
<g>
	<path class="st0" d="M-1599.8,697.3c-9.9,0-15.7-1.7-16.1-2.7l0.1-6.5c0,0,0,0,0,0c0,0,0.2-0.3,1.2-0.7l2.3-0.9l-2.3-0.9
		c-1.2-0.5-1.3-0.8-1.3-0.8l0.1-6.5c0,0,0,0,0,0c0,0,0.2-0.3,1.1-0.7l2.1-0.9l-2.1-0.9c-1-0.4-1.2-0.8-1.2-0.8l0-6.5
		c0.4-0.9,6.2-2.6,16.1-2.6c9.9,0,15.6,1.7,16,2.7l0,6.6c0,0,0,0,0,0c0,0-0.2,0.3-1.1,0.7l-2.1,0.9l2.1,0.9c1,0.4,1.1,0.7,1.1,0.7
		l0,6.6c0,0,0,0,0,0c0,0-0.2,0.3-1.2,0.7l-2.2,0.9l2.2,0.9c1.1,0.5,1.2,0.8,1.3,0.8l0,6.6C-1584.2,695.6-1589.9,697.3-1599.8,697.3z
		"/>
	<path class="st1" d="M-1599.8,666.7c8.6,0,13.8,1.3,15,2.1v5.6c-0.1,0.1-0.3,0.2-0.5,0.3l-4.2,1.8l4.2,1.8c0.2,0.1,0.4,0.2,0.5,0.3
		v5.6c-0.1,0.1-0.3,0.2-0.6,0.3l-4.4,1.8l4.5,1.8c0.3,0.1,0.5,0.2,0.6,0.3v5.6c-1.3,0.8-6.4,2.1-15,2.1c-8.6,0-13.8-1.3-15.1-2.1
		l0.1-5.6c0.1-0.1,0.3-0.2,0.6-0.3l4.5-1.9l-4.5-1.8c-0.3-0.1-0.5-0.2-0.7-0.3l0.1-5.6c0.1-0.1,0.3-0.2,0.5-0.2l4.2-1.9l-4.3-1.8
		c-0.3-0.1-0.4-0.2-0.6-0.3l0-5.6C-1613.6,668-1608.4,666.7-1599.8,666.7 M-1599.8,664.7c-9.6,0-17.1,1.6-17.1,3.6l0,6.6
		c0,0.6,0.6,1.1,1.8,1.6c-1.1,0.5-1.7,1-1.7,1.6l-0.1,6.6c0,0.6,0.7,1.2,1.9,1.7c-1.2,0.5-1.9,1.1-1.9,1.6l-0.1,6.6
		c0,2,7.5,3.6,17.1,3.6c9.6,0,17-1.6,17-3.6v-6.6c0-0.6-0.7-1.2-1.9-1.7c1.2-0.5,1.9-1.1,1.9-1.6v-6.6c0-0.6-0.6-1.1-1.7-1.6
		c1.1-0.5,1.7-1,1.7-1.6v-6.6C-1582.8,666.4-1590.3,664.7-1599.8,664.7L-1599.8,664.7z"/>
</g>
<path class="st2" d="M-1567.1,741c3.9,0,7,3.2,7,7v5.8h-22.4V748c0-3.9,3.1-7,7-7"/>
<path class="st2" d="M-1567.6,739.6c0.6,0.7,0.9,1.7,0.9,2.7c0,2.5-2,4.5-4.5,4.5s-4.5-2-4.5-4.5c0-1,0.3-1.9,0.9-2.7"/>
<path class="st2" d="M-1595.8,741c3.9,0,7,3.2,7,7v5.8h-22.4V748c0-3.9,3.1-7,7-7"/>
<path class="st2" d="M-1596.3,739.6c0.6,0.7,0.9,1.7,0.9,2.7c0,2.5-2,4.5-4.5,4.5s-4.5-2-4.5-4.5c0-1,0.3-1.9,0.9-2.7"/>
<path class="st2" d="M-1624.5,741c3.9,0,7,3.2,7,7v5.8h-22.4V748c0-3.9,3.1-7,7-7"/>
<path class="st2" d="M-1625.1,739.6c0.6,0.7,0.9,1.7,0.9,2.7c0,2.5-2,4.5-4.5,4.5c-2.5,0-4.5-2-4.5-4.5c0-1,0.3-1.9,0.9-2.7"/>
<path class="st3" d="M-1626.9,740.1v2.6c0,0.9-0.8,1.6-1.7,1.6h0c-0.9,0-1.6-0.7-1.6-1.6v-2.6"/>
<g>
	<path class="st4" d="M-1628.6,739.6c-5.1,0-9.2-4.1-9.2-9.2s4.1-9.2,9.2-9.2c5.1,0,9.2,4.1,9.2,9.2S-1623.6,739.6-1628.6,739.6z"/>
	<g>
		<path class="st5" d="M-1628.6,722.2c4.5,0,8.2,3.7,8.2,8.2c0,4.5-3.7,8.2-8.2,8.2s-8.2-3.7-8.2-8.2
			C-1636.8,725.9-1633.1,722.2-1628.6,722.2 M-1628.6,720.2c-5.6,0-10.2,4.6-10.2,10.2c0,5.6,4.6,10.2,10.2,10.2s10.2-4.6,10.2-10.2
			C-1618.4,724.8-1623,720.2-1628.6,720.2L-1628.6,720.2z"/>
	</g>
</g>
<path class="st3" d="M-1598.2,740.1v2.6c0,0.9-0.8,1.6-1.7,1.6h0c-0.9,0-1.6-0.7-1.6-1.6v-2.6"/>
<g>
	<path class="st4" d="M-1599.9,739.6c-5.1,0-9.2-4.1-9.2-9.2s4.1-9.2,9.2-9.2c5.1,0,9.2,4.1,9.2,9.2S-1594.9,739.6-1599.9,739.6z"/>
	<g>
		<path class="st5" d="M-1599.9,722.2c4.5,0,8.2,3.7,8.2,8.2c0,4.5-3.7,8.2-8.2,8.2c-4.5,0-8.2-3.7-8.2-8.2
			C-1608.1,725.9-1604.4,722.2-1599.9,722.2 M-1599.9,720.2c-5.6,0-10.2,4.6-10.2,10.2c0,5.6,4.6,10.2,10.2,10.2
			c5.6,0,10.2-4.6,10.2-10.2C-1589.7,724.8-1594.3,720.2-1599.9,720.2L-1599.9,720.2z"/>
	</g>
</g>
<path class="st3" d="M-1569.5,740.1v2.6c0,0.9-0.8,1.6-1.7,1.6h0c-0.9,0-1.6-0.7-1.6-1.6v-2.6"/>
<g>
	<path class="st4" d="M-1571.2,739.6c-5.1,0-9.2-4.1-9.2-9.2s4.1-9.2,9.2-9.2c5.1,0,9.2,4.1,9.2,9.2S-1566.1,739.6-1571.2,739.6z"/>
	<g>
		<path class="st5" d="M-1571.2,722.2c4.5,0,8.2,3.7,8.2,8.2c0,4.5-3.7,8.2-8.2,8.2c-4.5,0-8.2-3.7-8.2-8.2
			C-1579.4,725.9-1575.7,722.2-1571.2,722.2 M-1571.2,720.2c-5.6,0-10.2,4.6-10.2,10.2c0,5.6,4.6,10.2,10.2,10.2s10.2-4.6,10.2-10.2
			C-1561,724.8-1565.6,720.2-1571.2,720.2L-1571.2,720.2z"/>
	</g>
</g>
<path class="st6" d="M-1614.4,686c3.5,1.3,7.5,1.5,11.2,1.7c3.9,0.2,7.8,0.1,11.6-0.4c2.1-0.2,4.3-0.6,6.3-1.2"/>
<path class="st6" d="M-1614.4,676.1c3.5,1.3,7.5,1.5,11.2,1.7c3.9,0.2,7.8,0.1,11.6-0.4c2.1-0.2,4.3-0.6,6.3-1.2"/>
<path class="st7" d="M-1585.7,689.5c-3.2,0.8-8.1,1.4-13.6,1.4c-5.8,0-10.9-0.6-14.1-1.5"/>
<path class="st7" d="M-1585.7,679.5c-3.2,0.8-8.1,1.4-13.6,1.4c-5.8,0-10.9-0.6-14.1-1.5"/>
<path class="st7" d="M-1585.7,669.2c-3.2,0.8-8.1,1.4-13.6,1.4c-5.8,0-10.9-0.6-14.1-1.5"/>
<circle class="st1" cx="-1588.7" cy="673.2" r="1.3"/>
<circle class="st1" cx="-1588.7" cy="683.1" r="1.3"/>
<circle class="st1" cx="-1588.7" cy="693.1" r="1.3"/>
<path class="st8" d="M-1571.2,717.4v-8.8c0-0.5-0.4-0.7-0.9-0.7h-55.8c-0.5,0-0.8,0.2-0.8,0.7v8.8"/>
<line class="st8" x1="-1600.4" y1="717.4" x2="-1600.4" y2="700.6"/>
</svg>
