<?xml version="1.0" encoding="utf-8"?>
<!-- Generator: Adobe Illustrator 19.1.0, SVG Export Plug-In . SVG Version: 6.00 Build 0)  -->
<svg version="1.1" id="Layer_1" xmlns="http://www.w3.org/2000/svg" xmlns:xlink="http://www.w3.org/1999/xlink" x="0px" y="0px"
	 viewBox="0 0 100 100" style="enable-background:new 0 0 100 100;" xml:space="preserve">
<style type="text/css">
	.st0{fill:#ECF0F1;stroke:#99A3A8;stroke-width:5;stroke-miterlimit:10;}
	.st1{fill:#ECF0F1;}
	.st2{fill:#99A3A8;}
	.st3{fill:none;stroke:#000000;stroke-width:5;stroke-miterlimit:10;}
	.st4{fill:none;stroke:#000000;stroke-width:3;stroke-miterlimit:10;}
	.st5{fill:none;stroke:#99A3A8;stroke-width:5;stroke-miterlimit:10;}
	.st6{fill:#EAF2F8;}
	.st7{fill:#2980B9;}
	.st8{fill:#D6EFF1;stroke:#78C9CF;stroke-width:5;stroke-miterlimit:10;}
	.st9{fill:#F9F5CD;stroke:#EADF5A;stroke-width:5;stroke-miterlimit:10;}
	.st10{fill:#F9F5CD;}
	.st11{fill:#EADF5A;}
	.st12{fill:none;stroke:#2980B9;stroke-width:5;stroke-miterlimit:10;}
	.st13{fill:none;stroke:#2980B9;stroke-width:3;stroke-miterlimit:10;}
	.st14{fill:none;stroke:#334851;stroke-width:5;stroke-miterlimit:10;}
	.st15{fill:#D6EFF1;}
	.st16{fill:#78C9CF;}
	.st17{fill:#CCD1D3;}
	.st18{fill:#A3ABAF;}
	.st19{fill:#3498DB;}
	.st20{fill:#E67E22;}
	.st21{fill:#D35401;}
	.st22{fill:#F1C40F;}
	.st23{fill:#E49701;}
	.st24{fill:#D7C320;}
	.st25{fill:#34495E;}
	.st26{fill:#2C3E50;}
	.st27{fill:#2B2B2B;}
	.st28{fill:#262626;}
	.st29{fill:#3A6F81;}
	.st30{fill:#356272;}
	.st31{fill:#0075A8;}
	.st32{fill:#00558B;}
	.st33{fill:#2ECC71;}
	.st34{fill:#27AE60;}
	.st35{fill:#A5C63B;}
	.st36{fill:#8EB021;}
	.st37{fill:#BDC3C7;}
	.st38{fill:#95A5A6;}
	.st39{fill:#7F8C8D;}
	.st40{fill:#E74C3C;}
	.st41{fill:#C0392B;}
	.st42{fill:#F15354;}
	.st43{fill:#EA3738;}
	.st44{fill:#389EA8;}
	.st45{fill:#2D8490;}
	.st46{fill:#1A6470;}
	.st47{fill:#21364A;}
	.st48{fill:#040B15;}
	.st49{fill:#66767C;}
	.st50{fill:#334851;}
	.st51{fill:#5C686F;}
	.st52{fill:#29373C;}
	.st53{fill:#0A141A;}
	.st54{fill:#E95E50;}
	.st55{fill:#EC7063;}
	.st56{fill:#EE8277;}
	.st57{fill:#F1948A;}
	.st58{fill:#F3A69E;}
	.st59{fill:#F5B7B1;}
	.st60{fill:#F8C9C4;}
	.st61{fill:#FADBD8;}
	.st62{fill:#FDEDEB;}
	.st63{fill:#F26465;}
	.st64{fill:#F47576;}
	.st65{fill:#F58787;}
	.st66{fill:#F79898;}
	.st67{fill:#F8A9A9;}
	.st68{fill:#F9BABB;}
	.st69{fill:#FBCBCC;}
	.st70{fill:#FCDDDD;}
	.st71{fill:#FEEEEE;}
	.st72{fill:#E98B38;}
	.st73{fill:#EB984E;}
	.st74{fill:#EEA564;}
	.st75{fill:#F0B27A;}
	.st76{fill:#F3BE90;}
	.st77{fill:#F5CBA7;}
	.st78{fill:#F7D8BD;}
	.st79{fill:#FAE5D3;}
	.st80{fill:#FCF2E9;}
	.st81{fill:#F2CA27;}
	.st82{fill:#F4D03F;}
	.st83{fill:#F5D657;}
	.st84{fill:#F7DC6F;}
	.st85{fill:#F8E187;}
	.st86{fill:#F9E79F;}
	.st87{fill:#FBEDB7;}
	.st88{fill:#FCF3CF;}
	.st89{fill:#FEF9E7;}
	.st90{fill:#ECE26B;}
	.st91{fill:#EEE57B;}
	.st92{fill:#F0E98B;}
	.st93{fill:#F2EC9C;}
	.st94{fill:#F5EFAC;}
	.st95{fill:#F7F2BD;}
	.st96{fill:#FBF9DE;}
	.st97{fill:#FDFCEE;}
	.st98{fill:#43D17F;}
	.st99{fill:#58D68D;}
	.st100{fill:#6DDB9C;}
	.st101{fill:#82E0AA;}
	.st102{fill:#96E5B8;}
	.st103{fill:#ABEBC6;}
	.st104{fill:#C0F0D4;}
	.st105{fill:#D5F5E3;}
	.st106{fill:#EAFAF1;}
	.st107{fill:#AECC4F;}
	.st108{fill:#B7D162;}
	.st109{fill:#C0D776;}
	.st110{fill:#C9DD89;}
	.st111{fill:#D2E39D;}
	.st112{fill:#DBE8B1;}
	.st113{fill:#E4EEC4;}
	.st114{fill:#EDF4D8;}
	.st115{fill:#F6F9EB;}
	.st116{fill:#374A5C;}
	.st117{fill:#4D5E6E;}
	.st118{fill:#647280;}
	.st119{fill:#7A8692;}
	.st120{fill:#909AA4;}
	.st121{fill:#A6AFB7;}
	.st122{fill:#BCC3C9;}
	.st123{fill:#D3D7DB;}
	.st124{fill:#E9EBED;}
	.st125{fill:#485B6E;}
	.st126{fill:#5D6D7E;}
	.st127{fill:#71808E;}
	.st128{fill:#85929E;}
	.st129{fill:#99A4AE;}
	.st130{fill:#AEB6BF;}
	.st131{fill:#C2C8CF;}
	.st132{fill:#D6DBDF;}
	.st133{fill:#EBEDEF;}
	.st134{fill:#1A83B1;}
	.st135{fill:#3391B9;}
	.st136{fill:#4D9EC2;}
	.st137{fill:#66ACCB;}
	.st138{fill:#80BAD3;}
	.st139{fill:#99C8DC;}
	.st140{fill:#B2D6E5;}
	.st141{fill:#CCE3EE;}
	.st142{fill:#E5F1F6;}
	.st143{fill:#4E7D8E;}
	.st144{fill:#618C9A;}
	.st145{fill:#759AA7;}
	.st146{fill:#89A9B3;}
	.st147{fill:#9CB7C0;}
	.st148{fill:#B0C5CD;}
	.st149{fill:#C4D4D9;}
	.st150{fill:#D8E2E6;}
	.st151{fill:#EBF1F2;}
	.st152{fill:#42909B;}
	.st153{fill:#579DA6;}
	.st154{fill:#6CA9B1;}
	.st155{fill:#81B5BC;}
	.st156{fill:#96C1C7;}
	.st157{fill:#ABCED3;}
	.st158{fill:#C0DADE;}
	.st159{fill:#D5E6E9;}
	.st160{fill:#EAF3F4;}
	.st161{fill:#48A2DF;}
	.st162{fill:#5DADE2;}
	.st163{fill:#71B7E6;}
	.st164{fill:#85C1E9;}
	.st165{fill:#99CBED;}
	.st166{fill:#AED6F1;}
	.st167{fill:#C2E0F4;}
	.st168{fill:#D6EAF8;}
	.st169{fill:#EBF5FB;}
	.st170{fill:#85CED4;}
	.st171{fill:#93D4D9;}
	.st172{fill:#A0D9DD;}
	.st173{fill:#AEDFE2;}
	.st174{fill:#BBE4E7;}
	.st175{fill:#C9E9EC;}
	.st176{fill:#E4F4F5;}
	.st177{fill:#F1FAFA;}
	.st178{fill:#404040;}
	.st179{fill:#555555;}
	.st180{fill:#6B6B6B;}
	.st181{fill:#808080;}
	.st182{fill:#959595;}
	.st183{fill:#AAAAAA;}
	.st184{fill:#BFBFBF;}
	.st185{fill:#D5D5D5;}
	.st186{fill:#EAEAEA;}
	.st187{fill:#475A62;}
	.st188{fill:#5C6D74;}
	.st189{fill:#707F85;}
	.st190{fill:#859197;}
	.st191{fill:#ADB6B9;}
	.st192{fill:#C2C8CB;}
	.st193{fill:#D6DADC;}
	.st194{fill:#EBEDEE;}
	.st195{fill:#758489;}
	.st196{fill:#859196;}
	.st197{fill:#949FA3;}
	.st198{fill:#A3ADB0;}
	.st199{fill:#B2BABD;}
	.st200{fill:#D1D6D8;}
	.st201{fill:#E0E4E5;}
	.st202{fill:#F0F1F2;}
	.st203{fill:#A3ACB1;}
	.st204{fill:#ADB5B9;}
	.st205{fill:#B8BFC2;}
	.st206{fill:#E0E3E5;}
	.st207{fill:#F5F6F6;}
	.st208{fill:#D1D6D7;}
	.st209{fill:#DBDFE0;}
	.st210{fill:#E5E8E9;}
	.st211{fill:#EBEDED;}
	.st212{fill:#FAFAFB;}
	.st213{fill:#A0AEAF;}
	.st214{fill:#AAB7B8;}
	.st215{fill:#B5C0C1;}
	.st216{fill:#BFC9CA;}
	.st217{fill:#CAD2D3;}
	.st218{fill:#D5DBDB;}
	.st219{fill:#DFE4E4;}
	.st220{fill:#EAEDED;}
	.st221{fill:#F4F6F6;}
	.st222{fill:#EEF2F2;}
	.st223{fill:#F0F3F4;}
	.st224{fill:#F2F5F5;}
	.st225{fill:#F4F6F7;}
	.st226{fill:#F5F7F8;}
	.st227{fill:#F7F9F9;}
	.st228{fill:#F9FAFB;}
	.st229{fill:#FBFCFC;}
	.st230{fill:#FDFDFE;}
	.st231{fill:#212020;}
	.st232{fill:#95D2ED;}
	.st233{fill:#9CD9EF;}
	.st234{fill:#232222;}
	.st235{fill:#7CB9E5;}
	.st236{fill:#9BD3E7;}
	.st237{fill:#030303;}
	.st238{fill:#F3C9B0;}
	.st239{fill:#C29A85;}
	.st240{fill:#9BD8EE;}
	.st241{fill:#96D1E6;}
	.st242{fill:#FDFCFC;}
	.st243{fill:#AC5E53;}
	.st244{fill-rule:evenodd;clip-rule:evenodd;fill:#C2E0F4;}
	.st245{fill-rule:evenodd;clip-rule:evenodd;fill:#DFEFF9;stroke:#3498DB;stroke-width:2;stroke-miterlimit:10;}
	.st246{fill:#414042;}
	.st247{fill:#DDEBF4;}
</style>
<g>
	<g>
		<path class="st6" d="M67.3,15.1V8.4c0-2-7.5-3.7-17.2-3.7c-9.6,0-17.2,1.6-17.2,3.7l0,6.7c0,0.6,0.7,1.1,1.8,1.6
			c-1.1,0.5-1.7,1-1.7,1.6L32.9,25c0,0.6,0.7,1.2,1.9,1.7c-1.2,0.5-1.9,1.1-1.9,1.7L32.9,35c0,2,7.6,3.7,17.2,3.7
			c9.6,0,17.2-1.6,17.2-3.7v-6.7c0-0.6-0.7-1.2-1.9-1.7c1.2-0.5,1.9-1.1,1.9-1.7v-6.7c0-0.6-0.6-1.1-1.7-1.6
			C66.7,16.2,67.3,15.7,67.3,15.1z"/>
		<path class="st7" d="M50.2,6.2c4.1,0,8,0.3,11,0.9c3.2,0.6,4.4,1.3,4.7,1.6v6.3c-0.1,0.1-0.3,0.3-0.9,0.5l-2.9,1.3l2.9,1.3
			c0.5,0.2,0.8,0.4,0.9,0.5v6.3c-0.1,0.1-0.4,0.3-1,0.6l-3.1,1.3l3.1,1.3c0.6,0.3,0.9,0.5,1,0.6v6.3c-0.3,0.3-1.6,1-4.7,1.6
			c-3,0.6-6.9,0.9-11,0.9c-4.1,0-8-0.3-11.1-0.9c-3.2-0.6-4.4-1.3-4.8-1.6l0.1-6.3c0.1-0.1,0.4-0.3,1-0.6l3.1-1.3l-3.1-1.3
			c-0.7-0.3-1-0.5-1.1-0.6l0.1-6.3c0.1-0.1,0.3-0.3,0.9-0.5l2.9-1.3l-3-1.3c-0.6-0.2-0.8-0.4-1-0.5l0-6.3c0.3-0.3,1.6-1,4.8-1.6
			C42.1,6.5,46.1,6.2,50.2,6.2 M50.2,4.8c-9.6,0-17.2,1.6-17.2,3.7l0,6.7c0,0.6,0.7,1.1,1.8,1.6c-1.1,0.5-1.7,1-1.7,1.6L32.9,25
			c0,0.6,0.7,1.2,1.9,1.7c-1.2,0.5-1.9,1.1-1.9,1.7L32.9,35c0,2,7.6,3.7,17.2,3.7c9.6,0,17.2-1.6,17.2-3.7v-6.7
			c0-0.6-0.7-1.2-1.9-1.7c1.2-0.5,1.9-1.1,1.9-1.7v-6.7c0-0.6-0.6-1.1-1.7-1.6c1.1-0.5,1.7-1,1.7-1.6V8.4
			C67.3,6.4,59.8,4.8,50.2,4.8L50.2,4.8z"/>
	</g>
	<g>
		<path class="st15" d="M83.2,81.7c3.9,0,7.1,3.2,7.1,7.1v5.8H67.6v-5.8c0-3.9,3.2-7.1,7.1-7.1"/>
		<path class="st16" d="M91,95.2H66.9v-6.5c0-4.3,3.5-7.8,7.8-7.8v1.4c-3.5,0-6.4,2.9-6.4,6.4v5.1h21.3v-5.1c0-3.5-2.9-6.4-6.4-6.4
			V81c4.3,0,7.8,3.5,7.8,7.8V95.2z"/>
	</g>
	<g>
		<path class="st15" d="M82.6,80.3c0.6,0.7,0.9,1.7,0.9,2.7c0,2.5-2,4.5-4.5,4.5s-4.5-2-4.5-4.5c0-1,0.3-1.9,0.9-2.7"/>
		<path class="st16" d="M79,88.2c-2.9,0-5.2-2.3-5.2-5.2c0-1.1,0.4-2.2,1-3.1l1.1,0.8c-0.5,0.7-0.8,1.4-0.8,2.3
			c0,2.1,1.7,3.8,3.8,3.8s3.8-1.7,3.8-3.8c0-0.8-0.3-1.6-0.7-2.3l1.1-0.8c0.7,0.9,1,2,1,3.1C84.2,85.8,81.9,88.2,79,88.2z"/>
	</g>
	<g>
		<path class="st15" d="M54.2,81.7c3.9,0,7.1,3.2,7.1,7.1v5.8H38.6v-5.8c0-3.9,3.2-7.1,7.1-7.1"/>
		<path class="st16" d="M62,95.2H37.9v-6.5c0-4.3,3.5-7.8,7.8-7.8v1.4c-3.5,0-6.4,2.9-6.4,6.4v5.1h21.3v-5.1c0-3.5-2.9-6.4-6.4-6.4
			V81c4.3,0,7.8,3.5,7.8,7.8V95.2z"/>
	</g>
	<g>
		<path class="st15" d="M53.7,80.3c0.6,0.7,0.9,1.7,0.9,2.7c0,2.5-2,4.5-4.5,4.5s-4.5-2-4.5-4.5c0-1,0.3-1.9,0.9-2.7"/>
		<path class="st16" d="M50.1,88.2c-2.9,0-5.2-2.3-5.2-5.2c0-1.1,0.4-2.2,1-3.1l1.1,0.8c-0.5,0.7-0.8,1.4-0.8,2.3
			c0,2.1,1.7,3.8,3.8,3.8c2.1,0,3.8-1.7,3.8-3.8c0-0.8-0.3-1.6-0.7-2.3l1.1-0.8c0.7,0.9,1,2,1,3.1C55.2,85.8,52.9,88.2,50.1,88.2z"
			/>
	</g>
	<g>
		<path class="st15" d="M25.3,81.7c3.9,0,7.1,3.2,7.1,7.1v5.8H9.7v-5.8c0-3.9,3.2-7.1,7.1-7.1"/>
		<path class="st16" d="M33,95.2H9v-6.5c0-4.3,3.5-7.8,7.8-7.8v1.4c-3.5,0-6.4,2.9-6.4,6.4v5.1h21.3v-5.1c0-3.5-2.9-6.4-6.4-6.4V81
			c4.3,0,7.8,3.5,7.8,7.8V95.2z"/>
	</g>
	<g>
		<path class="st15" d="M24.7,80.3c0.6,0.7,0.9,1.7,0.9,2.7c0,2.5-2,4.5-4.5,4.5s-4.5-2-4.5-4.5c0-1,0.3-1.9,0.9-2.7"/>
		<path class="st16" d="M21.1,88.2c-2.9,0-5.2-2.3-5.2-5.2c0-1.1,0.4-2.2,1-3.1l1.1,0.8c-0.5,0.7-0.8,1.4-0.8,2.3
			c0,2.1,1.7,3.8,3.8,3.8s3.8-1.7,3.8-3.8c0-0.8-0.3-1.6-0.7-2.3l1.1-0.8c0.7,0.9,1,2,1,3.1C26.3,85.8,24,88.2,21.1,88.2z"/>
	</g>
	<g>
		<path class="st10" d="M22.7,80.7v2.6c0,0.9-0.7,1.6-1.6,1.6h0c-0.9,0-1.6-0.7-1.6-1.6v-2.6"/>
		<path class="st11" d="M21.1,85.7c-1.3,0-2.3-1-2.3-2.3v-2.6h1.4v2.6c0,0.5,0.4,0.9,0.9,0.9s0.9-0.4,0.9-0.9v-2.6h1.4v2.6
			C23.4,84.7,22.4,85.7,21.1,85.7z"/>
	</g>
	<g>
		<circle class="st10" cx="21.1" cy="71" r="10.3"/>
		<path class="st11" d="M21.1,62.1c4.9,0,8.9,4,8.9,8.9c0,4.9-4,8.9-8.9,8.9s-8.9-4-8.9-8.9C12.2,66.1,16.2,62.1,21.1,62.1
			 M21.1,60.8c-5.7,0-10.3,4.6-10.3,10.3c0,5.7,4.6,10.3,10.3,10.3S31.4,76.7,31.4,71C31.4,65.4,26.8,60.8,21.1,60.8L21.1,60.8z"/>
	</g>
	<g>
		<path class="st10" d="M51.7,80.7v2.6c0,0.9-0.7,1.6-1.6,1.6h0c-0.9,0-1.6-0.7-1.6-1.6v-2.6"/>
		<path class="st11" d="M50.1,85.7c-1.3,0-2.3-1-2.3-2.3v-2.6h1.4v2.6c0,0.5,0.4,0.9,0.9,0.9c0.5,0,0.9-0.4,0.9-0.9v-2.6h1.4v2.6
			C52.4,84.7,51.3,85.7,50.1,85.7z"/>
	</g>
	<g>
		<circle class="st10" cx="50.1" cy="71" r="10.3"/>
		<path class="st11" d="M50.1,62.1c4.9,0,8.9,4,8.9,8.9c0,4.9-4,8.9-8.9,8.9s-8.9-4-8.9-8.9C41.2,66.1,45.2,62.1,50.1,62.1
			 M50.1,60.8c-5.7,0-10.3,4.6-10.3,10.3c0,5.7,4.6,10.3,10.3,10.3S60.3,76.7,60.3,71C60.3,65.4,55.7,60.8,50.1,60.8L50.1,60.8z"/>
	</g>
	<g>
		<path class="st10" d="M80.6,80.7v2.6c0,0.9-0.7,1.6-1.6,1.6h0c-0.9,0-1.6-0.7-1.6-1.6v-2.6"/>
		<path class="st11" d="M79,85.7c-1.3,0-2.3-1-2.3-2.3v-2.6h1.4v2.6c0,0.5,0.4,0.9,0.9,0.9s0.9-0.4,0.9-0.9v-2.6h1.4v2.6
			C81.3,84.7,80.3,85.7,79,85.7z"/>
	</g>
	<g>
		<circle class="st10" cx="79" cy="71" r="10.3"/>
		<path class="st11" d="M79,62.1c4.9,0,8.9,4,8.9,8.9c0,4.9-4,8.9-8.9,8.9s-8.9-4-8.9-8.9C70.1,66.1,74.1,62.1,79,62.1 M79,60.8
			c-5.7,0-10.3,4.6-10.3,10.3c0,5.7,4.6,10.3,10.3,10.3S89.3,76.7,89.3,71C89.3,65.4,84.7,60.8,79,60.8L79,60.8z"/>
	</g>
	<path class="st7" d="M50.2,28.8c-1.2,0-2.4,0-3.5-0.1c-3.9-0.2-7.9-0.5-11.5-1.8l0.5-1.3c3.4,1.2,7.3,1.5,11.1,1.7
		c3.8,0.2,7.7,0.1,11.6-0.4c1.8-0.2,4.1-0.5,6.2-1.2l0.4,1.3c-2.3,0.7-4.7,1.1-6.5,1.3C55.8,28.6,53,28.8,50.2,28.8z"/>
	<path class="st7" d="M50.2,18.7c-1.2,0-2.4,0-3.5-0.1c-3.9-0.2-7.9-0.5-11.5-1.8l0.5-1.3c3.4,1.2,7.3,1.5,11.1,1.7
		c3.8,0.2,7.7,0.1,11.6-0.4c1.8-0.2,4.1-0.5,6.2-1.2l0.4,1.3c-2.3,0.7-4.7,1.1-6.5,1.3C55.8,18.6,53,18.7,50.2,18.7z"/>
	<path class="st7" d="M50.7,31.5c-5.7,0-11-0.6-14.3-1.5l0.2-0.8c3.2,0.9,8.5,1.5,14.1,1.5c5.3,0,10.3-0.5,13.6-1.4l0.2,0.8
		C61.1,31,56.1,31.5,50.7,31.5z"/>
	<path class="st7" d="M50.7,21.5c-5.7,0-11-0.6-14.3-1.5l0.2-0.8c3.2,0.9,8.5,1.5,14.1,1.5c5.3,0,10.3-0.5,13.6-1.4l0.2,0.8
		C61.1,21,56.1,21.5,50.7,21.5z"/>
	<path class="st7" d="M50.7,11c-5.7,0-11-0.6-14.3-1.5l0.2-0.8c3.2,0.9,8.5,1.5,14.1,1.5c5.3,0,10.3-0.5,13.6-1.4l0.2,0.8
		C61.1,10.5,56.1,11,50.7,11z"/>
	<circle class="st7" cx="61.4" cy="13.3" r="1.3"/>
	<circle class="st7" cx="61.4" cy="23.3" r="1.3"/>
	<circle class="st7" cx="61.4" cy="33.3" r="1.3"/>
	<path class="st17" d="M79.7,57.8h-1.4V49c0-0.1-0.1-0.1-0.1-0.1H21.9c-0.1,0-0.1,0.1-0.1,0.1v8.8h-1.4V49c0-0.8,0.7-1.5,1.5-1.5
		h56.3c0.8,0,1.5,0.7,1.5,1.5V57.8z"/>
	<rect x="48.9" y="40.9" class="st17" width="1.4" height="17"/>
</g>
</svg>
