<?xml version="1.0" encoding="utf-8"?>
<!-- Generator: Adobe Illustrator 19.1.0, SVG Export Plug-In . SVG Version: 6.00 Build 0)  -->
<svg version="1.1" id="Layer_1" xmlns="http://www.w3.org/2000/svg" xmlns:xlink="http://www.w3.org/1999/xlink" x="0px" y="0px"
	 viewBox="-349 251 100 100" style="enable-background:new -349 251 100 100;" xml:space="preserve">
<style type="text/css">
	.st0{fill:#EAF2F8;}
	.st1{fill:#2980B9;}
	.st2{fill:#D6EFF1;stroke:#78C9CF;stroke-width:1.4198;stroke-miterlimit:10;}
	.st3{fill:#F9F5CD;stroke:#EADF5A;stroke-width:1.4198;stroke-miterlimit:10;}
	.st4{fill:#F9F5CD;}
	.st5{fill:#EADF5A;}
	.st6{fill:none;stroke:#2980B9;stroke-width:1.4198;stroke-miterlimit:10;}
	.st7{fill:none;stroke:#2980B9;stroke-width:0.7099;stroke-miterlimit:10;}
	.st8{fill:none;stroke:#334851;stroke-width:1.4198;stroke-miterlimit:10;}
	.st9{fill:#666666;}
</style>
<g>
	<path class="st0" d="M-300.9,282.6c-7,0-11.1-1.2-11.4-1.9l0.1-4.6c0,0,0.1-0.2,0.9-0.5l1.6-0.6l-1.6-0.6c-0.9-0.4-0.9-0.6-0.9-0.6
		l0.1-4.6l0,0c0,0,0.1-0.2,0.8-0.5l1.5-0.6l-1.5-0.6c-0.7-0.3-0.9-0.6-0.9-0.6v-4.6c0.3-0.6,4.4-1.8,11.4-1.8s11.1,1.2,11.4,1.9v4.7
		l0,0c0,0-0.1,0.2-0.8,0.5l-1.4,0.4l1.5,0.6c0.7,0.3,0.8,0.5,0.8,0.5v4.7l0,0c0,0-0.1,0.2-0.9,0.5l-1.6,0.6l1.6,0.7
		c0.8,0.4,0.9,0.6,0.9,0.6v4.7C-289.8,281.4-293.9,282.6-300.9,282.6z"/>
	<path class="st1" d="M-300.9,260.9c6.1,0,9.8,0.9,10.6,1.5v4c-0.1,0.1-0.2,0.1-0.4,0.2l-3,1.3l3,1.3c0.1,0.1,0.3,0.1,0.4,0.2v4
		c-0.1,0.1-0.2,0.1-0.4,0.2l-3.1,1.3l3.2,1.3c0.2,0.1,0.4,0.1,0.4,0.2v4c-0.9,0.6-4.5,1.5-10.6,1.5c-6.1,0-9.8-0.9-10.7-1.5l0.1-4
		c0.1-0.1,0.2-0.1,0.4-0.2l3.2-1.3l-3.2-1.3c-0.2-0.1-0.4-0.1-0.5-0.2l0.1-4c0.1-0.1,0.2-0.1,0.4-0.1l3-1.3l-3.1-1.3
		c-0.2-0.1-0.3-0.1-0.4-0.2v-4C-310.7,261.8-307,260.9-300.9,260.9 M-300.9,259.4c-6.8,0-12.1,1.1-12.1,2.6v4.7
		c0,0.4,0.4,0.8,1.3,1.1c-0.8,0.4-1.2,0.7-1.2,1.1l-0.1,4.7c0,0.4,0.5,0.9,1.3,1.2c-0.9,0.4-1.3,0.8-1.3,1.1l-0.1,4.7
		c0,1.4,5.3,2.6,12.1,2.6s12.1-1.1,12.1-2.6V276c0-0.4-0.5-0.9-1.3-1.2c0.9-0.4,1.3-0.8,1.3-1.1V269c0-0.4-0.4-0.8-1.2-1.1
		c0.8-0.4,1.2-0.7,1.2-1.1V262C-288.8,260.6-294.2,259.4-300.9,259.4L-300.9,259.4z"/>
</g>
<path class="st2" d="M-277.7,313.6c2.8,0,5,2.3,5,5v4.1h-15.9v-4.1c0-2.8,2.2-5,5-5"/>
<path class="st2" d="M-278.1,312.6c0.4,0.5,0.6,1.2,0.6,1.9c0,1.8-1.4,3.2-3.2,3.2c-1.8,0-3.2-1.4-3.2-3.2c0-0.7,0.2-1.3,0.6-1.9"/>
<path class="st2" d="M-298.1,313.6c2.8,0,5,2.3,5,5v4.1H-309v-4.1c0-2.8,2.2-5,5-5"/>
<path class="st2" d="M-298.4,312.6c0.4,0.5,0.6,1.2,0.6,1.9c0,1.8-1.4,3.2-3.2,3.2s-3.2-1.4-3.2-3.2c0-0.7,0.2-1.3,0.6-1.9"/>
<path class="st2" d="M-318.5,313.6c2.8,0,5,2.3,5,5v4.1h-15.9v-4.1c0-2.8,2.2-5,5-5"/>
<path class="st2" d="M-318.9,312.6c0.4,0.5,0.6,1.2,0.6,1.9c0,1.8-1.4,3.2-3.2,3.2c-1.8,0-3.2-1.4-3.2-3.2c0-0.7,0.2-1.3,0.6-1.9"/>
<path class="st3" d="M-320.2,313v1.8c0,0.6-0.6,1.1-1.2,1.1l0,0c-0.6,0-1.1-0.5-1.1-1.1V313"/>
<g>
	<path class="st4" d="M-321.4,312.6c-3.6,0-6.5-2.9-6.5-6.5c0-3.6,2.9-6.5,6.5-6.5c3.6,0,6.5,2.9,6.5,6.5
		C-314.8,309.7-317.8,312.6-321.4,312.6z"/>
	<g>
		<path class="st5" d="M-321.4,300.3c3.2,0,5.8,2.6,5.8,5.8c0,3.2-2.6,5.8-5.8,5.8c-3.2,0-5.8-2.6-5.8-5.8
			C-327.2,302.9-324.6,300.3-321.4,300.3 M-321.4,298.8c-4,0-7.2,3.3-7.2,7.2c0,4,3.3,7.2,7.2,7.2s7.2-3.3,7.2-7.2
			C-314.1,302.1-317.4,298.8-321.4,298.8L-321.4,298.8z"/>
	</g>
</g>
<path class="st3" d="M-299.8,313v1.8c0,0.6-0.6,1.1-1.2,1.1l0,0c-0.6,0-1.1-0.5-1.1-1.1V313"/>
<g>
	<path class="st4" d="M-301,312.6c-3.6,0-6.5-2.9-6.5-6.5c0-3.6,2.9-6.5,6.5-6.5s6.5,2.9,6.5,6.5
		C-294.5,309.7-297.4,312.6-301,312.6z"/>
	<g>
		<path class="st5" d="M-301,300.3c3.2,0,5.8,2.6,5.8,5.8c0,3.2-2.6,5.8-5.8,5.8s-5.8-2.6-5.8-5.8
			C-306.8,302.9-304.2,300.3-301,300.3 M-301,298.8c-4,0-7.2,3.3-7.2,7.2c0,4,3.3,7.2,7.2,7.2s7.2-3.3,7.2-7.2
			C-293.7,302.1-297,298.8-301,298.8L-301,298.8z"/>
	</g>
</g>
<path class="st3" d="M-279.4,313v1.8c0,0.6-0.6,1.1-1.2,1.1l0,0c-0.6,0-1.1-0.5-1.1-1.1V313"/>
<g>
	<path class="st4" d="M-280.6,312.6c-3.6,0-6.5-2.9-6.5-6.5c0-3.6,2.9-6.5,6.5-6.5c3.6,0,6.5,2.9,6.5,6.5
		C-274.1,309.7-277,312.6-280.6,312.6z"/>
	<g>
		<path class="st5" d="M-280.6,300.3c3.2,0,5.8,2.6,5.8,5.8c0,3.2-2.6,5.8-5.8,5.8c-3.2,0-5.8-2.6-5.8-5.8
			C-286.4,302.9-283.8,300.3-280.6,300.3 M-280.6,298.8c-4,0-7.2,3.3-7.2,7.2c0,4,3.3,7.2,7.2,7.2c4,0,7.2-3.3,7.2-7.2
			C-273.4,302.1-276.6,298.8-280.6,298.8L-280.6,298.8z"/>
	</g>
</g>
<path class="st6" d="M-311.3,274.6c2.5,0.9,5.3,1.1,8,1.2c2.8,0.1,5.5,0.1,8.2-0.3c1.5-0.1,3.1-0.4,4.5-0.9"/>
<path class="st6" d="M-311.3,267.5c2.5,0.9,5.3,1.1,8,1.2c2.8,0.1,5.5,0.1,8.2-0.3c1.5-0.1,3.1-0.4,4.5-0.9"/>
<path class="st7" d="M-290.9,277c-2.3,0.6-5.8,1-9.7,1c-4.1,0-7.7-0.4-10-1.1"/>
<path class="st7" d="M-290.9,270c-2.3,0.6-5.8,1-9.7,1c-4.1,0-7.7-0.4-10-1.1"/>
<path class="st7" d="M-290.9,262.6c-2.3,0.6-5.8,1-9.7,1c-4.1,0-7.7-0.4-10-1.1"/>
<circle class="st1" cx="-293" cy="265.5" r="0.9"/>
<circle class="st1" cx="-293" cy="272.5" r="0.9"/>
<circle class="st1" cx="-293" cy="279.6" r="0.9"/>
<path class="st8" d="M-280.6,296.9v-6.2c0-0.4-0.3-0.5-0.6-0.5h-39.5c-0.4,0-0.6,0.1-0.6,0.5v6.2"/>
<line class="st8" x1="-301.3" y1="296.9" x2="-301.3" y2="284.9"/>
<g>
	<path class="st9" d="M-311.8,338.8v1.6h-5.9v-10.1h1.9v8.6H-311.8z"/>
	<path class="st9" d="M-301.5,335.3c0,0.7-0.1,1.4-0.4,2c-0.2,0.6-0.6,1.2-1,1.6c-0.4,0.4-1,0.8-1.6,1s-1.3,0.4-2.1,0.4h-3.9v-10.1
		h3.9c0.8,0,1.5,0.1,2.1,0.4c0.6,0.2,1.2,0.6,1.6,1c0.4,0.4,0.8,1,1,1.6C-301.6,333.9-301.5,334.6-301.5,335.3z M-303.4,335.3
		c0-0.6-0.1-1.1-0.2-1.5c-0.1-0.4-0.4-0.8-0.6-1.1c-0.3-0.3-0.6-0.5-1-0.7c-0.4-0.2-0.8-0.2-1.3-0.2h-2v7.1h2c0.5,0,0.9-0.1,1.3-0.2
		s0.7-0.4,1-0.7c0.3-0.3,0.5-0.7,0.6-1.1C-303.5,336.4-303.4,335.9-303.4,335.3z"/>
	<path class="st9" d="M-291.5,340.4h-1.5c-0.2,0-0.3,0-0.4-0.1c-0.1-0.1-0.2-0.2-0.2-0.3l-0.8-2.1h-4.2l-0.8,2.1
		c0,0.1-0.1,0.2-0.2,0.3s-0.2,0.1-0.4,0.1h-1.5l4-10.1h1.9L-291.5,340.4z M-294.8,336.6l-1.2-3.4c-0.1-0.1-0.1-0.3-0.2-0.5
		c-0.1-0.2-0.1-0.4-0.2-0.7c-0.1,0.2-0.1,0.5-0.2,0.7c-0.1,0.2-0.1,0.4-0.2,0.5l-1.2,3.4H-294.8z"/>
	<path class="st9" d="M-287.1,330.3c0.7,0,1.3,0.1,1.8,0.2c0.5,0.2,0.9,0.4,1.2,0.7c0.3,0.3,0.6,0.6,0.7,1s0.2,0.8,0.2,1.3
		c0,0.5-0.1,0.9-0.2,1.3c-0.2,0.4-0.4,0.8-0.7,1.1c-0.3,0.3-0.7,0.5-1.2,0.7c-0.5,0.2-1.1,0.2-1.7,0.2h-1.4v3.6h-1.9v-10.1H-287.1z
		 M-287.1,335.4c0.3,0,0.6,0,0.9-0.1c0.3-0.1,0.5-0.2,0.6-0.4c0.2-0.2,0.3-0.4,0.4-0.6c0.1-0.2,0.1-0.5,0.1-0.8c0-0.3,0-0.5-0.1-0.7
		s-0.2-0.4-0.4-0.6c-0.2-0.2-0.4-0.3-0.6-0.4c-0.3-0.1-0.6-0.1-0.9-0.1h-1.4v3.6H-287.1z"/>
</g>
</svg>
