<svg x="0px" y="0px" viewBox="0 0 100 100" 
   style="enable-background:new 0 0 100 100;" xml:space="preserve" xmlns="http://www.w3.org/2000/svg">
  <desc>The Linode Logo consists of the 5 shaded green cubes arranged in the shape of the letter "L".</desc>
  <title>Linode Logo with linode.com domain name</title>
  <g id="g10" transform="matrix(0.362276, 0, 0, -0.362276, 0, 100)">
    <g id="g12" transform="matrix(0.08, 0, 0, 0.08, 46.629513, 27.603458)">
      <path id="path14" d="M 802.992,179.172 828.527,213.648 957.73,59.75 C 971.902,42.8594 985.398,37.0117 998.156,42.1914 1001.08,28.6992 996.574,16.8906 984.66,6.87891 970.176,-5.28125 954.473,-1.30859 937.586,18.7813 L 802.992,179.172" style="fill:#100f0d;fill-opacity:1;fill-rule:nonzero;stroke:none"></path>
      <path id="path16" d="M 1041.05,58.6211 948.117,169.32 930.594,154.602 908.566,180.852 958.457,222.711 1073.43,85.7383 Z M 898.074,262.461 c 5.094,4.277 10.969,6.078 17.66,5.57 6.668,-0.601 12.141,-3.453 16.434,-8.543 4.316,-5.129 6.152,-11.008 5.555,-17.718 -0.575,-6.622 -3.403,-12.129 -8.543,-16.411 -5.098,-4.269 -10.996,-6.109 -17.668,-5.531 -6.672,0.543 -12.149,3.371 -16.442,8.481 -4.273,5.14 -6.136,11.043 -5.55,17.679 0.601,6.711 3.421,12.172 8.554,16.473" style="fill:#100f0d;fill-opacity:1;fill-rule:nonzero;stroke:none"></path>
      <path id="path18" d="m 1198.72,190.941 -66.47,79.137 c -9.79,11.684 -19.21,18.293 -28.13,19.934 -9.01,1.617 -18.56,-1.813 -28.74,-10.364 -4.69,-3.878 -8.57,-9.48 -11.7,-16.546 -3.08,-7.153 -4.5,-13.872 -4.18,-20.301 l 83.06,-98.981 -31.96,-26.851 -114.967,136.98 23.047,19.301 16.61,-7.859 c 0.11,17.539 8.65,33.41 25.62,47.648 16.27,13.68 33.2,19.563 50.84,17.75 17.6,-1.91 33.73,-11.551 48.39,-29.039 l 70.53,-83.961 -31.95,-26.848" style="fill:#100f0d;fill-opacity:1;fill-rule:nonzero;stroke:none"></path>
      <path id="path20" d="m 1231.74,335.91 c 25.35,-30.172 48.89,-36.121 70.63,-17.84 9.9,8.399 14.51,18.871 13.81,31.649 -0.75,12.722 -7.23,26.332 -19.36,40.832 -25,29.75 -48.3,35.551 -69.96,17.39 -9.96,-8.402 -14.59,-18.98 -13.91,-31.761 0.69,-12.758 6.96,-26.192 18.79,-40.27 z m -33.24,-27.859 c -17.56,20.82 -25.8,42.937 -24.75,66.187 1.06,23.211 11.45,43.184 31.22,59.801 20.8,17.43 42.26,24.691 64.35,21.723 22.09,-2.942 42.36,-15.383 60.76,-37.301 18.3,-21.82 26.99,-44.102 26.1,-66.813 -0.92,-22.679 -11.59,-42.597 -31.96,-59.707 -20.8,-17.421 -42.4,-24.531 -64.86,-21.203 -22.46,3.274 -42.77,15.703 -60.86,37.313" style="fill:#100f0d;fill-opacity:1;fill-rule:nonzero;stroke:none"></path>
      <path id="path22" d="m 1413.95,549.352 c -11.35,-0.282 -20.76,-3.563 -28.16,-9.793 -12.82,-10.758 -19.36,-22.868 -19.71,-36.469 -0.41,-13.539 5.57,-27.711 17.79,-42.238 23.91,-28.5 49.55,-31.211 76.97,-8.161 3.11,2.528 6.12,6.649 9.07,12.219 2.93,5.621 4.25,9.899 4.06,12.969 z m 87.5,-104.25 -6.99,8.347 c -0.18,-5.148 -2.52,-11.437 -7.01,-18.89 -4.5,-7.469 -10.1,-14.059 -16.84,-19.7 -19.08,-16.039 -39.18,-22.57 -60.29,-19.699 -21.12,2.918 -40.78,15.25 -58.95,36.86 -18.18,21.601 -26.68,44.539 -25.51,68.75 1.16,24.089 11.2,44.14 30.12,60.011 10.41,8.75 21.6,14.547 33.75,17.438 l -46.03,54.859 25.5,34.481 164.26,-195.61 -32.01,-26.847" style="fill:#100f0d;fill-opacity:1;fill-rule:nonzero;stroke:none"></path>
      <path id="path24" d="m 1521.53,602.961 67.24,56.5 c -18.96,18.129 -38.47,18.859 -58.45,2.148 -18.25,-15.359 -21.19,-34.839 -8.79,-58.648 z m 116.83,57.129 -97.83,-82.102 c 9.79,-10.429 20.65,-15.75 32.64,-15.988 11.99,-0.281 23.81,4.48 35.51,14.309 14.57,12.203 22.42,25.32 23.65,39.25 l 32.93,-13.989 c -3.61,-18.558 -16.58,-37.242 -38.91,-55.929 -20.9,-17.571 -42.52,-25.313 -64.96,-23.25 -22.4,2 -42.85,14 -61.19,35.91 -18.13,21.57 -26.11,44.629 -24,69.23 2.11,24.578 12.46,44.641 31.15,60.41 19.86,16.649 40.8,24.059 62.77,22.258 21.95,-1.719 40.59,-11.777 56.02,-30.109 3.26,-3.91 7.32,-10.539 12.22,-20" style="fill:#100f0d;fill-opacity:1;fill-rule:nonzero;stroke:none"></path>
      <path id="path26" d="m 1706.78,646.059 c -5.33,6.382 -7.67,13.711 -6.93,21.941 0.66,8.238 4.24,15.039 10.64,20.391 6.39,5.371 13.67,7.699 21.94,6.988 8.2,-0.719 15.05,-4.301 20.41,-10.66 5.31,-6.399 7.69,-13.758 7.03,-22 -0.72,-8.278 -4.26,-15.129 -10.63,-20.5 -6.38,-5.36 -13.75,-7.617 -21.99,-6.91 -8.24,0.8 -15.1,4.39 -20.47,10.75" style="fill:#100f0d;fill-opacity:1;fill-rule:nonzero;stroke:none"></path>
      <path id="path28" d="m 1813.54,922.078 6.41,-35.406 c -13.42,0.816 -26.49,-4.141 -39.11,-14.711 -12.11,-10.152 -18.26,-22.223 -18.49,-36.152 -0.33,-14 5.55,-28.059 17.48,-42.297 24.18,-28.711 49.86,-31.641 77.21,-8.684 11.89,9.992 19.02,22.684 21.48,38.082 l 32.91,-15.32 c -4.41,-13.61 -9.51,-24.078 -15.12,-31.442 -5.66,-7.398 -13.24,-15.007 -22.71,-23.019 -21.1,-17.688 -42.99,-25.52 -65.57,-23.488 -22.56,2.058 -43.03,14.019 -61.46,35.929 -18.09,21.551 -26,44.668 -23.75,69.129 2.15,24.563 14.82,46.531 37.97,65.922 15.87,13.359 33.51,20.527 52.75,21.457" style="fill:#100f0d;fill-opacity:1;fill-rule:nonzero;stroke:none"></path>
      <path id="path30" d="m 1912.54,907.512 c 25.34,-30.192 48.89,-36.114 70.63,-17.883 9.94,8.371 14.61,18.941 13.83,31.633 -0.77,12.808 -7.23,26.398 -19.34,40.847 -24.98,29.77 -48.36,35.551 -69.98,17.391 -9.96,-8.34 -14.59,-18.949 -13.89,-31.73 0.71,-12.782 7,-26.18 18.75,-40.258 z m -33.26,-27.91 c -17.5,20.886 -25.72,42.968 -24.69,66.16 1.04,23.316 11.39,43.226 31.2,59.838 20.82,17.48 42.24,24.69 64.39,21.76 22.03,-2.97 42.29,-15.4 60.74,-37.282 18.26,-21.816 26.96,-44.137 26.04,-66.789 -0.92,-22.699 -11.56,-42.668 -31.98,-59.75 -20.74,-17.461 -42.36,-24.5 -64.82,-21.199 -22.48,3.269 -42.77,15.691 -60.88,37.262" style="fill:#100f0d;fill-opacity:1;fill-rule:nonzero;stroke:none"></path>
      <path id="path32" d="m 2252.7,1075.83 -71.97,85.77 c -15.12,18.03 -30.73,20.23 -46.84,6.74 -4.8,-4.04 -8.18,-9.3 -10.27,-15.84 -2.05,-6.54 -2.5,-12.36 -1.15,-17.52 l 82.96,-98.85 -31.95,-26.81 -76.21,90.74 c -5.68,6.72 -12.3,10.33 -19.75,10.78 -7.52,0.47 -15.05,-2.5 -22.63,-8.86 -4.01,-3.35 -7.17,-8.52 -9.36,-15.47 -2.22,-6.95 -2.87,-13.13 -2.05,-18.55 l 82.64,-98.358 -31.92,-26.883 -115,136.951 22.02,18.45 16.6,-6.56 c 0.74,17.21 8.12,31.68 22.18,43.46 18.17,15.3 35.96,21.82 53.44,19.64 0.28,7.89 2.81,16.19 7.72,24.89 4.88,8.68 10.95,16.06 18.08,22.06 15.3,12.81 30.78,18.39 46.64,16.74 15.77,-1.59 30.1,-10 42.93,-25.27 l 75.86,-90.42 -31.97,-26.83" style="fill:#100f0d;fill-opacity:1;fill-rule:nonzero;stroke:none"></path>
      <path id="path34" d="m 521.434,1635.2 h 0.004 L 426.477,2283.52 36.6797,2525.89 163.285,1914.36 Z M 364.297,944.172 432,617.16 714.285,317.531 665.953,647.488 Z m 769.953,251.848 1.1,-25.8 c 0.22,-5.21 -2.28,-10.16 -6.61,-13.08 l -108.8,-73.29 118.31,-96.569 c 0.08,-0.07 0.14,-0.16 0.22,-0.23 0.33,-0.281 0.59,-0.621 0.9,-0.93 0.58,-0.582 1.13,-1.18 1.6,-1.851 0.28,-0.399 0.5,-0.809 0.74,-1.231 0.38,-0.668 0.72,-1.359 1,-2.078 0.17,-0.461 0.32,-0.922 0.45,-1.391 0.21,-0.769 0.33,-1.55 0.42,-2.351 0.03,-0.309 0.15,-0.598 0.16,-0.918 l 4.84,-113.02 132.71,-111.711 -2.79,334.34 z m 322.41,440.85 -2.92,-145.68 201.04,-132.79 c 0.6,-0.39 1.09,-0.91 1.62,-1.38 0.3,-0.27 0.64,-0.49 0.91,-0.78 1.82,-1.9 3.1,-4.23 3.73,-6.78 0.1,-0.4 0.11,-0.82 0.17,-1.23 0.11,-0.69 0.28,-1.36 0.3,-2.07 0,-0.23 -0.07,-0.45 -0.07,-0.68 -0.01,-0.17 0.05,-0.33 0.04,-0.5 l -10.11,-166.3 93.45,-65.04 28.22,326.12 z M 629.871,893.84 312.813,1192.49 221.035,1635.9 562.969,1350.99 629.871,893.84" style="fill:#123d10;fill-opacity:1;fill-rule:nonzero;stroke:none"></path>
      <path id="path36" d="m 1074.4,1894.51 -26.32,615.55 v 0 L 456.895,2282.88 v 0 0 l 96.589,-659.45 z m 30.62,-717.17 -19.36,453.77 v 0 L 593.309,1350.87 662.352,879.129 Z m 9.94,-230 -418.722,-299.57 h -0.004 v 0 l 50.86,-347.219 h 0.004 l 382.482,304.75 z m 193.55,138.38 2.8,-335.669 298.42,238.019 19.89,327.3 z m 744.29,532.42 -41.98,-310.54 -235.34,-187.59 27.64,319.44 249.68,178.69" style="fill:#33b652;fill-opacity:1;fill-rule:nonzero;stroke:none"></path>
      <path id="path38" d="m 2010.82,1307.6 -235.34,-187.59 27.64,319.44 249.68,178.69 z m -266,-193.96 -93.45,65.04 10.11,166.3 c 0.01,0.17 -0.05,0.33 -0.04,0.5 0,0.23 0.07,0.45 0.07,0.68 -0.02,0.71 -0.19,1.38 -0.3,2.07 -0.06,0.41 -0.07,0.83 -0.17,1.23 -0.63,2.55 -1.91,4.88 -3.73,6.78 -0.27,0.29 -0.61,0.52 -0.91,0.78 -0.53,0.47 -1.02,0.99 -1.62,1.38 l -201.04,132.79 2.92,145.68 316.38,-197.11 z m -135.09,-125.57 -298.42,-238.019 -2.8,335.669 321.11,229.65 z m -461.15,-124.789 -4.84,113.02 c -0.01,0.32 -0.13,0.609 -0.16,0.918 -0.09,0.801 -0.22,1.582 -0.42,2.351 -0.13,0.469 -0.28,0.93 -0.45,1.391 -0.28,0.719 -0.62,1.41 -1,2.078 -0.24,0.41 -0.46,0.84 -0.74,1.231 -0.47,0.671 -1.03,1.269 -1.6,1.851 -0.3,0.309 -0.57,0.649 -0.9,0.93 -0.08,0.07 -0.14,0.16 -0.22,0.23 l -118.31,96.569 108.8,73.29 c 4.33,2.92 6.83,7.87 6.61,13.08 l -1.1,25.8 144.25,-110.11 2.79,-334.34 z M 747.098,300.551 h -0.004 l -50.86,347.219 v 0 h 0.004 l 418.722,299.57 14.62,-342.039 z M 432,617.16 364.297,944.172 665.953,647.488 714.285,317.531 Z M 312.813,1192.49 221.035,1635.9 562.969,1350.99 629.871,893.84 Z M 163.285,1914.36 36.6797,2525.89 426.477,2283.52 521.438,1635.2 h -0.004 z m 293.61,368.52 591.185,227.18 v 0 l 26.32,-615.55 -520.916,-271.08 -96.589,659.45 v 0 z m 628.765,-651.77 v 0 l 19.36,-453.77 -442.668,-298.211 -69.043,471.741 z m 1001.62,20.31 c -0.02,0.28 -0.12,0.54 -0.15,0.82 -0.07,0.56 -0.18,1.1 -0.31,1.64 -0.18,0.79 -0.42,1.57 -0.73,2.33 -0.2,0.49 -0.42,0.98 -0.68,1.45 -0.4,0.74 -0.88,1.42 -1.4,2.08 -0.31,0.41 -0.61,0.83 -0.97,1.2 -0.65,0.66 -1.39,1.23 -2.16,1.78 -0.3,0.21 -0.52,0.49 -0.84,0.68 -0.07,0.05 -0.16,0.06 -0.23,0.1 -0.09,0.05 -0.15,0.12 -0.24,0.17 L 1737.88,1853 c -4.71,2.61 -10.49,2.5 -15.09,-0.32 l -288.42,-176.32 c -0.5,-0.31 -0.89,-0.72 -1.34,-1.08 -0.47,-0.37 -0.98,-0.71 -1.41,-1.13 -0.49,-0.5 -0.89,-1.07 -1.31,-1.63 -0.35,-0.47 -0.74,-0.9 -1.04,-1.39 -0.36,-0.62 -0.6,-1.31 -0.87,-1.97 -0.21,-0.52 -0.48,-1.02 -0.63,-1.56 -0.21,-0.72 -0.26,-1.49 -0.35,-2.25 -0.06,-0.5 -0.22,-0.98 -0.23,-1.49 l -3.07,-153.11 -117.33,77.5 c -4.86,3.21 -11.13,3.32 -16.09,0.29 l -168.8,-103.18 -7.32,171.58 c -0.01,0.44 -0.16,0.85 -0.22,1.29 -0.08,0.64 -0.16,1.29 -0.33,1.91 -0.16,0.61 -0.4,1.19 -0.63,1.77 -0.24,0.59 -0.48,1.17 -0.78,1.71 -0.31,0.55 -0.69,1.05 -1.06,1.56 -0.38,0.51 -0.75,1.01 -1.19,1.47 -0.44,0.45 -0.93,0.85 -1.43,1.25 -0.34,0.27 -0.61,0.61 -0.98,0.85 l -175.659,117.99 164.419,85.56 c 5.16,2.7 8.31,8.13 8.06,13.95 l -27.62,645.94 c -0.03,0.79 -0.22,1.54 -0.37,2.31 -0.07,0.32 -0.08,0.65 -0.16,0.97 -0.35,1.28 -0.86,2.51 -1.53,3.65 -0.15,0.25 -0.35,0.46 -0.52,0.7 -0.57,0.86 -1.2,1.66 -1.94,2.39 -0.33,0.32 -0.7,0.59 -1.05,0.88 -0.4,0.33 -0.75,0.71 -1.19,1 -0.33,0.22 -0.72,0.34 -1.07,0.54 -0.23,0.12 -0.4,0.32 -0.63,0.43 l -443.048,213.78 c -3.429,1.65 -7.347,1.95 -10.98,0.81 L 10.4375,2571.42 c -0.0312,-0.01 -0.0586,-0.03 -0.0898,-0.04 -0.51567,-0.17 -0.94926,-0.47 -1.43754,-0.69 -0.84375,-0.37 -1.69922,-0.7 -2.47266,-1.23 -0.03906,-0.03 -0.08203,-0.03 -0.12109,-0.06 -0.39844,-0.28 -0.67188,-0.67 -1.03907,-0.98 -0.70312,-0.6 -1.42578,-1.18 -1.99609,-1.88 -0.40234,-0.5 -0.67578,-1.09 -1.01172,-1.63 -0.41015,-0.67 -0.86719,-1.31 -1.16797,-2.03 -0.273435,-0.65 -0.390622,-1.36 -0.57031,-2.05 -0.160156,-0.61 -0.425781,-1.19 -0.5078125,-1.83 -0.0117187,-0.09 0.015625,-0.18 0.0039063,-0.27 -0.0703126,-0.68 0.015625,-1.33 0.0351562,-2 0.015625,-0.78 -0.0117187,-1.57 0.132813,-2.36 0.019531,-0.1 -0.003907,-0.21 0.019531,-0.31 L 135.027,1902.87 c 0.723,-3.48 2.657,-6.6 5.465,-8.79 L 323.48,1751.45 191.191,1688.46 c -0.257,-0.12 -0.457,-0.31 -0.707,-0.45 -0.179,-0.1 -0.379,-0.12 -0.558,-0.23 -0.266,-0.15 -0.438,-0.4 -0.692,-0.57 -0.804,-0.56 -1.543,-1.17 -2.211,-1.85 -0.343,-0.35 -0.691,-0.69 -0.996,-1.07 -0.644,-0.81 -1.175,-1.68 -1.64,-2.59 -0.176,-0.34 -0.399,-0.64 -0.547,-0.99 -0.52,-1.24 -0.91,-2.55 -1.082,-3.92 -0.004,-0.05 0.004,-0.1 0,-0.14 -0.028,-0.25 0.015,-0.5 0,-0.75 -0.078,-1.17 -0.035,-2.36 0.172,-3.54 0.027,-0.17 -0.008,-0.32 0.023,-0.48 l 101.442,-490.11 c 0.625,-3.02 2.164,-5.77 4.402,-7.88 l 127.367,-119.97 -84.402,-51.61 c -1.102,-0.67 -2.071,-1.5 -2.946,-2.412 -0.218,-0.226 -0.39,-0.488 -0.593,-0.726 -0.731,-0.863 -1.356,-1.801 -1.871,-2.793 -0.176,-0.348 -0.36,-0.688 -0.512,-1.051 -0.524,-1.238 -0.922,-2.527 -1.102,-3.867 -0.008,-0.07 -0.035,-0.133 -0.043,-0.191 0,-0.02 -0.007,-0.032 -0.007,-0.04 -0.168,-1.449 -0.051,-2.871 0.195,-4.269 0.027,-0.16 -0.016,-0.32 0.019,-0.481 l 78.582,-379.55 c 0.563,-2.731 1.868,-5.231 3.77,-7.25 L 725.117,262.281 c 0.43,-0.461 0.926,-0.82 1.399,-1.211 0.254,-0.211 0.484,-0.449 0.746,-0.64 0.949,-0.692 1.984,-1.27 3.097,-1.731 0.059,-0.019 0.102,-0.07 0.164,-0.09 0.106,-0.039 0.223,-0.019 0.332,-0.058 1.68,-0.621 3.426,-0.981 5.172,-0.992 0.004,0 0.004,0 0.008,0 v 0 h 0.004 c 1.465,0 2.918,0.3 4.348,0.742 0.359,0.097 0.711,0.23 1.062,0.371 0.371,0.137 0.754,0.207 1.117,0.387 0.575,0.281 1.004,0.722 1.528,1.07 0.414,0.262 0.894,0.391 1.285,0.711 l 408.861,325.75 c 3.75,2.98 5.84,7.582 5.64,12.371 l -9.56,223.641 136.59,-114.973 c 0.19,-0.16 0.45,-0.219 0.65,-0.367 0.81,-0.621 1.61,-1.25 2.55,-1.703 0.31,-0.137 0.64,-0.2 0.95,-0.321 0.32,-0.129 0.65,-0.238 0.98,-0.34 1.47,-0.468 2.99,-0.789 4.53,-0.789 1.48,0 2.93,0.301 4.35,0.731 0.34,0.101 0.68,0.219 1.02,0.351 0.34,0.129 0.68,0.188 1.01,0.34 0.72,0.34 1.3,0.848 1.95,1.278 0.32,0.222 0.71,0.32 1.02,0.57 l 327.74,261.391 c 3.32,2.648 5.36,6.589 5.61,10.82 l 9.97,164.02 99.72,-69.41 c 0.23,-0.16 0.5,-0.21 0.74,-0.36 0.26,-0.16 0.46,-0.4 0.73,-0.54 0.58,-0.31 1.2,-0.47 1.8,-0.7 0.41,-0.15 0.8,-0.34 1.21,-0.46 1.34,-0.38 2.7,-0.62 4.08,-0.62 1.48,0 2.93,0.3 4.34,0.73 0.35,0.1 0.69,0.21 1.03,0.35 0.33,0.12 0.68,0.18 1,0.33 0.86,0.41 1.6,0.97 2.35,1.51 0.2,0.15 0.44,0.2 0.63,0.35 l 267.36,213.11 c 3.03,2.41 5,5.88 5.52,9.71 l 47.42,350.94 c 0.05,0.37 -0.03,0.73 -0.01,1.1 0.03,0.59 0.15,1.17 0.12,1.77" style="fill:#231f20;fill-opacity:1;fill-rule:nonzero;stroke:none"></path>
    </g>
  </g>
</svg>