<?xml version="1.0" encoding="utf-8"?>
<!-- Generator: Adobe Illustrator 18.1.1, SVG Export Plug-In . SVG Version: 6.00 Build 0)  -->
<svg version="1.1" id="Layer_1" xmlns="http://www.w3.org/2000/svg" xmlns:xlink="http://www.w3.org/1999/xlink" x="0px" y="0px"
	 viewBox="0 0 100 100" enable-background="new 0 0 100 100" xml:space="preserve">
<g>
	<rect x="0.1" y="76" fill="none" width="100" height="24"/>
	<path fill="#394D54" d="M27.6,77h2.5v11.9h6v2.2h-8.5V77z"/>
	<path fill="#394D54" d="M36.8,86.3c0-0.8,0.1-1.5,0.4-2.1c0.3-0.6,0.6-1.1,1.1-1.6s1-0.8,1.7-1c0.6-0.2,1.3-0.4,2-0.4
		c0.7,0,1.4,0.1,2,0.4c0.6,0.2,1.2,0.6,1.7,1s0.8,1,1.1,1.6c0.3,0.6,0.4,1.3,0.4,2.1s-0.1,1.5-0.4,2.1c-0.3,0.6-0.6,1.2-1.1,1.6
		c-0.5,0.4-1,0.8-1.7,1.1c-0.6,0.3-1.3,0.4-2,0.4c-0.7,0-1.4-0.1-2-0.4c-0.6-0.3-1.2-0.6-1.7-1.1c-0.5-0.4-0.8-1-1.1-1.6
		C36.9,87.7,36.8,87,36.8,86.3z M39.2,86.3c0,0.4,0.1,0.7,0.2,1.1c0.1,0.4,0.3,0.7,0.5,1c0.2,0.3,0.5,0.5,0.9,0.7s0.8,0.3,1.2,0.3
		s0.9-0.1,1.2-0.3s0.6-0.4,0.9-0.7c0.2-0.3,0.4-0.6,0.5-1s0.2-0.7,0.2-1.1s-0.1-0.7-0.2-1.1c-0.1-0.4-0.3-0.7-0.5-1
		c-0.2-0.3-0.5-0.5-0.9-0.7c-0.3-0.2-0.8-0.3-1.2-0.3s-0.9,0.1-1.2,0.3c-0.3,0.2-0.6,0.4-0.9,0.7c-0.2,0.3-0.4,0.6-0.5,1
		C39.3,85.5,39.2,85.9,39.2,86.3z"/>
	<path fill="#394D54" d="M56.1,84.2c-0.2-0.3-0.5-0.5-0.8-0.7c-0.4-0.2-0.8-0.3-1.1-0.3c-0.4,0-0.8,0.1-1.2,0.3
		c-0.3,0.2-0.6,0.4-0.8,0.7c-0.2,0.3-0.4,0.6-0.5,1c-0.1,0.4-0.2,0.7-0.2,1.1s0.1,0.7,0.2,1.1c0.1,0.4,0.3,0.7,0.5,1
		c0.2,0.3,0.5,0.5,0.9,0.7c0.3,0.2,0.7,0.3,1.2,0.3c0.4,0,0.7-0.1,1.1-0.2c0.4-0.1,0.7-0.4,0.9-0.6l1.5,1.5c-0.4,0.4-0.9,0.8-1.5,1
		c-0.6,0.2-1.3,0.4-2,0.4c-0.7,0-1.4-0.1-2-0.3c-0.6-0.2-1.2-0.6-1.7-1c-0.5-0.4-0.8-1-1.1-1.6c-0.3-0.6-0.4-1.3-0.4-2.1
		c0-0.8,0.1-1.5,0.4-2.1c0.3-0.6,0.6-1.2,1.1-1.6s1-0.8,1.6-1c0.6-0.2,1.3-0.4,2-0.4s1.4,0.1,2.1,0.4c0.7,0.3,1.2,0.6,1.6,1.1
		L56.1,84.2z"/>
	<path fill="#394D54" d="M65.2,89.9L65.2,89.9c-0.3,0.4-0.7,0.8-1.2,1s-1.1,0.4-1.8,0.4c-0.4,0-0.8,0-1.2-0.2
		c-0.4-0.1-0.8-0.3-1.2-0.5c-0.4-0.2-0.6-0.5-0.9-0.9c-0.2-0.4-0.4-0.8-0.4-1.4c0-0.7,0.2-1.3,0.6-1.7c0.4-0.4,0.9-0.8,1.6-1
		c0.6-0.2,1.3-0.4,2.1-0.4c0.8-0.1,1.5-0.1,2.3-0.1v-0.2c0-0.6-0.2-1-0.7-1.3c-0.4-0.3-1-0.4-1.5-0.4c-0.5,0-1,0.1-1.5,0.3
		c-0.5,0.2-0.9,0.5-1.2,0.8l-1.2-1.5c0.5-0.5,1.2-0.9,1.9-1.1c0.7-0.3,1.4-0.4,2.2-0.4c0.9,0,1.6,0.1,2.1,0.4c0.6,0.2,1,0.6,1.3,0.9
		c0.3,0.4,0.5,0.8,0.7,1.3c0.1,0.5,0.2,1,0.2,1.4v5.8h-2.2V89.9z M65.2,86.7h-0.5c-0.4,0-0.8,0-1.2,0s-0.8,0.1-1.2,0.2
		c-0.4,0.1-0.7,0.3-0.9,0.5C61.1,87.7,61,88,61,88.3c0,0.2,0,0.4,0.1,0.6c0.1,0.2,0.2,0.3,0.4,0.4s0.3,0.2,0.5,0.2s0.4,0.1,0.6,0.1
		c0.8,0,1.5-0.2,1.9-0.7c0.4-0.4,0.6-1,0.6-1.8V86.7z"/>
	<path fill="#394D54" d="M70.3,76h2.4v15.1h-2.4V76z"/>
</g>
<g>
	<g>
		<g>
			<path fill="#39B7E1" d="M50.6,56.5c0.2,0,0.7-1.3,1.1-2.9l4.1-15.1c0.4-1.6,0.6-2.9,0.5-2.9s-0.7,1.3-1.1,2.9L51,53.6
				C50.6,55.2,50.4,56.5,50.6,56.5z"/>
		</g>
		<g>
			<path fill="#39B7E1" d="M51.5,56.5c0.2,0,1-1.2,1.9-2.6l9-15.7c0.8-1.4,1.3-2.6,1.1-2.6s-1,1.2-1.9,2.6l-9,15.7
				C51.8,55.3,51.3,56.5,51.5,56.5z"/>
		</g>
		<g>
			<path fill="#39B7E1" d="M49.5,56.5c0.2,0,0-1.3-0.5-2.9L45,38.5c-0.4-1.6-0.9-2.9-1.1-2.9s0,1.3,0.5,2.9l4.1,15.1
				C48.8,55.2,49.3,56.5,49.5,56.5z"/>
		</g>
		<g>
			<path fill="#39B7E1" d="M48.5,56.5c0.2,0-0.3-1.2-1.1-2.6l-9-15.7c-0.8-1.4-1.7-2.6-1.9-2.6c-0.2,0,0.3,1.2,1.1,2.6l9,15.7
				C47.5,55.3,48.3,56.5,48.5,56.5z"/>
		</g>
	</g>
</g>
<g>
	<g>
		<path fill="#39B7E1" d="M63.3,58.5L63,56.8c-0.1-0.6-0.3-1-0.5-1c-0.2,0-0.3,0.5-0.3,1v0.4c0,0.6-0.5,1-1,1h-0.4c0,0-0.1,0-0.1,0
			v1.2c0,0,0.1,0,0.1,0h1.7C63,59.5,63.4,59,63.3,58.5z"/>
		<path fill="#39B7E1" d="M60.3,58.3c-0.3,0.1-0.5,0.3-0.5,0.5s0.2,0.4,0.5,0.5V58.3z"/>
	</g>
</g>
<path fill="#39B7E1" d="M64.8,19.3c-0.9,0-1.7,0.1-2.5,0.4c-0.5-5.4-5-9.6-10.5-9.6c-4.3,0-8,2.6-9.6,6.2c-0.7-0.3-1.6-0.4-2.4-0.4
	c-3.9,0-7,3.1-7,7c0,0.9,0.2,1.8,0.5,2.6c-0.3,0-0.5-0.1-0.8-0.1c-2.6,0-4.7,2.1-4.7,4.7s2.1,4.7,4.7,4.7h32.4
	c4.3,0,7.8-3.5,7.8-7.8C72.6,22.8,69.1,19.3,64.8,19.3z"/>
<path fill="#39B7E1" d="M59.3,57h-2.7c0,0,0,0-0.1,0h-2.8c0,0-0.1,0-0.1,0v-0.3c0-0.6-0.1-1-0.3-1c-0.2,0-0.4,0.4-0.5,1l-0.3,1.7
	c-0.1,0.6,0.3,1,0.9,1H55c0.2,0,0.3,0,0.5-0.1c-0.1,0.3-0.3,0.5-0.6,0.5h-2.4c-0.4,0-0.7-0.3-0.6-0.7l0.2-1.4
	c0.1-0.4-0.2-0.7-0.6-0.7H39.8c-0.3,0-0.5,0.1-0.6,0.4L37,60.8c0,0.1,0,0.1,0,0.2l0.4,0.5c0.1,0.1,0.1,0.1,0.2,0l1.5-1.2v7.2
	c0,0.3,0.3,0.6,0.6,0.6h3.3c0.3,0,0.6-0.3,0.6-0.6V65c0-0.3,0.3-0.6,0.6-0.6h8.4c0.3,0,0.6,0.3,0.6,0.6v2.5c0,0.3,0.3,0.6,0.6,0.6
	h3.3c0.3,0,0.6-0.3,0.6-0.6v-2.7h-1.8c-0.6,0-1-0.5-1-1v-1.7c0-0.3,0.2-0.6,0.4-0.8v2.1c0,0.6,0.5,1,1,1h2.7c0.6,0,1-0.5,1-1V58
	C60.3,57.5,59.8,57,59.3,57z"/>
<g>
</g>
<g>
</g>
<g>
</g>
<g>
</g>
<g>
</g>
<g>
</g>
<g>
</g>
<g>
</g>
<g>
</g>
<g>
</g>
<g>
</g>
<g>
</g>
<g>
</g>
<g>
</g>
<g>
</g>
</svg>
