<?xml version="1.0" encoding="utf-8"?>
<!-- Generator: Adobe Illustrator 18.1.1, SVG Export Plug-In . SVG Version: 6.00 Build 0)  -->
<svg version="1.1" id="Layer_1" xmlns="http://www.w3.org/2000/svg" xmlns:xlink="http://www.w3.org/1999/xlink" x="0px" y="0px"
	 viewBox="0 0 100 100" enable-background="new 0 0 100 100" xml:space="preserve">
<g>
	<rect x="0.1" y="76" fill="none" width="100" height="24"/>
	<path fill="#394D54" d="M23.9,84c0-1.1,0.2-2.2,0.6-3.1c0.4-0.9,0.9-1.7,1.6-2.3c0.7-0.6,1.5-1.1,2.4-1.5c0.9-0.3,1.9-0.5,3-0.5
		c1.1,0,2.1,0.2,3.1,0.5c0.9,0.3,1.7,0.8,2.4,1.5c0.7,0.6,1.2,1.4,1.6,2.3c0.4,0.9,0.6,1.9,0.6,3.1c0,1.1-0.2,2.1-0.6,3
		c-0.4,0.9-0.9,1.7-1.6,2.4c-0.7,0.7-1.5,1.2-2.4,1.5c-0.9,0.4-2,0.6-3.1,0.6c-1.1,0-2.1-0.2-3-0.6c-0.9-0.4-1.7-0.9-2.4-1.5
		c-0.7-0.7-1.2-1.4-1.6-2.4C24.1,86.1,23.9,85.1,23.9,84z M26.6,84c0,0.8,0.1,1.5,0.4,2.1c0.2,0.6,0.6,1.2,1,1.7
		c0.4,0.5,0.9,0.8,1.5,1.1s1.2,0.4,2,0.4s1.4-0.1,2-0.4s1.1-0.6,1.5-1.1c0.4-0.5,0.8-1,1-1.7c0.2-0.6,0.4-1.3,0.4-2.1
		c0-0.7-0.1-1.4-0.4-2c-0.2-0.6-0.6-1.2-1-1.6s-0.9-0.8-1.5-1.1c-0.6-0.3-1.3-0.4-2-0.4c-0.7,0-1.4,0.1-2,0.4
		c-0.6,0.3-1.1,0.6-1.5,1.1s-0.8,1-1,1.6C26.7,82.6,26.6,83.3,26.6,84z"/>
	<path fill="#394D54" d="M40,83.4v-1.9h1.7v-2.8h2.4v2.8h2.4v1.9h-2.4v4.5c0,0.4,0.1,0.8,0.2,1.1c0.2,0.3,0.5,0.4,1,0.4
		c0.2,0,0.3,0,0.5,0s0.4-0.1,0.5-0.2l0.1,1.9c-0.2,0.1-0.5,0.1-0.8,0.2c-0.3,0-0.6,0.1-0.8,0.1c-0.6,0-1.2-0.1-1.6-0.3
		c-0.4-0.2-0.7-0.4-0.9-0.7c-0.2-0.3-0.4-0.7-0.5-1.1c-0.1-0.4-0.1-0.8-0.1-1.3v-4.5H40z"/>
	<path fill="#394D54" d="M53.6,81.2c0.6,0,1.2,0.1,1.6,0.3c0.4,0.2,0.8,0.5,1.1,0.9c0.3,0.4,0.5,0.8,0.6,1.2
		c0.1,0.5,0.2,0.9,0.2,1.4v6h-2.4v-5.3c0-0.3,0-0.6-0.1-0.9c0-0.3-0.1-0.6-0.2-0.8c-0.1-0.2-0.3-0.5-0.5-0.6s-0.5-0.2-0.9-0.2
		c-0.4,0-0.7,0.1-1,0.2c-0.3,0.1-0.5,0.3-0.7,0.6c-0.2,0.2-0.3,0.5-0.4,0.8s-0.1,0.6-0.1,0.9v5.2h-2.4V76h2.4v6.9h0
		c0.1-0.2,0.2-0.4,0.4-0.6c0.2-0.2,0.4-0.4,0.6-0.5c0.2-0.2,0.5-0.3,0.8-0.4C52.9,81.3,53.2,81.2,53.6,81.2z"/>
	<path fill="#394D54" d="M69.1,86.4c0,0.1,0,0.2,0,0.3c0,0.1,0,0.2,0,0.3h-7.3c0,0.3,0.1,0.7,0.3,1s0.4,0.5,0.6,0.7
		c0.3,0.2,0.5,0.4,0.9,0.5c0.3,0.1,0.7,0.2,1,0.2c0.6,0,1.1-0.1,1.5-0.3c0.4-0.2,0.8-0.5,1-0.9l1.6,1.3c-0.9,1.3-2.3,1.9-4.1,1.9
		c-0.7,0-1.4-0.1-2.1-0.4c-0.6-0.2-1.2-0.6-1.6-1s-0.8-1-1.1-1.6c-0.3-0.6-0.4-1.3-0.4-2.1c0-0.8,0.1-1.5,0.4-2.1
		c0.3-0.6,0.6-1.2,1.1-1.6c0.5-0.4,1-0.8,1.6-1s1.3-0.4,2-0.4c0.7,0,1.3,0.1,1.8,0.3c0.6,0.2,1.1,0.5,1.5,1c0.4,0.4,0.7,1,1,1.6
		C68.9,84.8,69.1,85.6,69.1,86.4z M66.7,85.4c0-0.3,0-0.6-0.1-0.9c-0.1-0.3-0.2-0.5-0.4-0.7c-0.2-0.2-0.4-0.4-0.7-0.5
		c-0.3-0.1-0.6-0.2-1-0.2c-0.7,0-1.3,0.2-1.8,0.7s-0.8,1-0.8,1.7H66.7z"/>
	<path fill="#394D54" d="M71.4,81.5h2.3v1.6h0c0.3-0.6,0.6-1,1.1-1.4c0.5-0.3,1-0.5,1.7-0.5c0.1,0,0.2,0,0.3,0s0.2,0,0.3,0v2.2
		c-0.2,0-0.3-0.1-0.4-0.1c-0.1,0-0.2,0-0.3,0c-0.5,0-1,0.1-1.3,0.3c-0.3,0.2-0.6,0.4-0.8,0.7c-0.2,0.3-0.3,0.6-0.4,0.9
		c-0.1,0.3-0.1,0.5-0.1,0.7v5.1h-2.4V81.5z"/>
</g>
<g>
	<path fill="#181F7A" d="M43.4,2.9c3.7-1.4,7.8-1.7,11.6-0.8C58.6,3,61.9,5,64.4,7.6c4.5,4.6,6.3,11.6,4.7,17.8c0,0,0,0,0,0
		c-0.8,3.3-2.5,6.5-5,8.9c-0.2-0.3-0.4-0.4-0.7-0.4c2.9-2.8,4.8-6.6,5.4-10.6c0.6-3.8-0.2-7.8-2-11.2c-2.5-4.6-7-8.2-12.2-9.3
		C51.1,1.9,47.4,2.3,44,3.5c-4.3,1.6-7.9,5-9.9,9.1c-3,5.9-2.4,13.5,1.6,18.9c0.9,1.4,2.2,2.5,3.3,3.6c-0.7-0.2-1.3-0.3-2-0.5
		c-0.1-0.2-0.2-0.4-0.4-0.6c-5.3-5.2-6.7-13.7-3.9-20.5C34.7,8.7,38.6,4.8,43.4,2.9z"/>
	<path fill="#D9F6FE" d="M44,3.5c3.4-1.3,7.1-1.6,10.7-0.7c5.2,1.1,9.7,4.7,12.2,9.3c1.8,3.4,2.6,7.4,2,11.2
		c-0.5,4-2.5,7.8-5.4,10.6c-0.7,0.4-1.5,0.7-2.3,0.9c2-1.7,3.9-3.7,5-6.1c2.6-5.1,2.5-11.5-0.4-16.4c-0.7-1.2-2.2-0.8-3.3-0.9
		c0-1-0.2-2-0.9-2.7c-0.3-0.3-0.7-0.2-1,0c-1,0.6-1.6,1.7-1.8,2.8c-0.6-0.6-1.2-1.2-2-1.3C55.9,10,54.6,10,54.3,11
		c-0.6,0.2-1.3,0.3-1.9,0.3c-0.3-0.3-0.5-0.9-1-1c-0.4,0.2-0.6,0.6-0.9,0.9c-0.3-0.7-0.2-2.1-1.3-2c-0.6,0-0.7,0.6-0.9,1.1
		c-0.6-0.7-1.6-1.7-2.6-1.1c-0.6,0.4-0.2,1.2-0.1,1.7c-1.3,0.1-2.5-0.2-3.8-0.5c0.9-0.2,1.4-1,2.1-1.6c0.6-0.6,1.5-1.3,1.3-2.3
		c-0.1-0.7-0.8-0.9-1.3-0.9c-1.1-0.1-2.2,0.5-3,1.2c-1.3,1.1-2.3,2.5-3.2,3.9c-0.2,0.1-0.4,0.1-0.6,0.2c-0.6,0.3-1.2,0.6-1.6,1.2
		c-1.6,2.7-2.5,5.9-2.4,9.1c0,4.5,1.9,9,5.1,12.2c0.9,0.9,1.9,1.7,2.9,2.5c-0.7-0.1-1.4-0.3-2.1-0.6c-1.2-1.2-2.4-2.3-3.3-3.6
		c-4-5.4-4.6-12.9-1.6-18.9C36.1,8.5,39.7,5.2,44,3.5z"/>
	<path fill="#F3FCFE" d="M40.8,6.7c0.9-0.7,1.9-1.3,3-1.2c0.6,0,1.3,0.3,1.3,0.9c0.2,1-0.7,1.7-1.3,2.3c-0.7,0.6-1.2,1.4-2.1,1.6
		c-1.4-0.1-2.8,0-4.2,0.3C38.5,9.2,39.5,7.8,40.8,6.7z"/>
	<path fill="#7484FE" d="M48.6,7.6c-0.3-0.4-0.4-1,0.1-1.2c0.6-0.1,1,0.3,1.4,0.7c0.5,0.7,0.8,1.5,0.9,2.3
		C50.2,8.9,49.2,8.4,48.6,7.6z"/>
	<path fill="#D7E0FF" d="M48.7,6.6c1.1,0,1.7,1.2,1.9,2.2C49.8,8.3,48.7,7.7,48.7,6.6z"/>
	<path fill="#D4DDFF" d="M52.6,8.2c0.1-0.7,0.7-1.4,1.5-1.2c0.1,0.7-0.2,1.6-1,1.8C52.7,9,52.4,8.6,52.6,8.2z"/>
	<path fill="#7484FE" d="M53.6,10.6c0.6-1.4,1.6-2.8,3.1-3.4c0.4-0.1,0.6,0.1,0.5,0.5C56.8,8.6,55.8,9,55,9.4
		C54.4,9.6,54,10.2,53.6,10.6z"/>
	<path fill="#E6ECFE" d="M54.8,9.1c0.5-0.8,1.3-1.5,2.3-1.6C56.7,8.5,55.6,8.8,54.8,9.1z"/>
	<path fill="#030328" d="M58.7,11.5c0.1-1.1,0.7-2.3,1.8-2.8c0.3-0.2,0.7-0.3,1,0c0.7,0.7,0.9,1.7,0.9,2.7c0,0.1,0,0.3,0,0.5
		c-0.1,0.4-0.2,0.7-0.4,1c-0.2-0.1-0.4-0.2-0.6-0.3c0.4-1,0.5-2.2-0.1-3.2c-0.2-0.5-0.8-0.3-1.1,0c-0.6,0.7-1.2,1.7-1.1,2.7
		c-1-1.1-2.5-1.5-4-1.4c-0.6,0.8,0,1.7,0.5,2.5c-0.7-0.2-1-1-1.2-1.6c0-0.1,0-0.4,0-0.6c0.3-1,1.6-1,2.4-0.8
		C57.6,10.4,58.2,11,58.7,11.5z"/>
	<path fill="#99B0FE" d="M45.7,9.1c1-0.6,2,0.4,2.6,1.1c0.2-0.4,0.3-1.1,0.9-1.1c1.1-0.1,1,1.3,1.3,2c0.3-0.3,0.5-0.7,0.9-0.9
		c0.5,0,0.7,0.6,1,1c0.7,0,1.3-0.1,1.9-0.3c0,0.1,0,0.4,0,0.6c-0.6,0.2-1.4,0.5-2,0.2c-0.4-0.3-0.6-0.7-0.9-1.1
		c-0.3,0.4-0.7,1.3-1.3,0.9c-0.5-0.6-0.1-1.9-1.2-1.9c0,0.6,0.1,1.2,0.1,1.8c-0.7-0.4-1.3-1.1-1.9-1.6c-0.4-0.4-1-0.6-1.4-0.2
		c-0.1,0.5,0.2,0.9,0.3,1.3c-0.4,0.2-0.8,0.5-1.3,0.4c-1.1-0.1-2.2-0.2-3.3-0.2c0.1-0.3,0.2-0.5,0.3-0.8c1.2,0.3,2.5,0.7,3.8,0.5
		C45.4,10.3,45,9.5,45.7,9.1z"/>
	<path fill="#73ABFF" d="M60.1,9.4c0.3-0.3,0.9-0.5,1.1,0c0.6,1,0.6,2.2,0.1,3.2c0.2,0.1,0.4,0.2,0.6,0.3L62,13
		c-2-1-4.4-0.8-6.4,0.2c-0.4-0.7-1-1.6-0.5-2.5c1.4-0.1,3,0.3,4,1.4C58.9,11.1,59.5,10.1,60.1,9.4z"/>
	<path fill="#D9E2FE" d="M45.7,9.6c0.4-0.4,1.1-0.2,1.4,0.2c0.6,0.6,1.2,1.2,1.9,1.6c0-0.6,0-1.2-0.1-1.8c1,0,0.7,1.3,1.2,1.9
		c0.7,0.3,1-0.5,1.3-0.9c0.3,0.4,0.5,0.9,0.9,1.1c0.7,0.3,1.4,0.1,2-0.2c0.3,0.6,0.5,1.4,1.2,1.6c2-1,4.4-1.2,6.4-0.2l0.1-0.1
		c0.1-0.3,0.3-0.7,0.4-1c0.9,0,1.9,0,2.8,0.3c0.2,0.1,0.5,0.3,0.4,0.6c-0.2,0.8-1,1.1-1.7,1.2c-2.3,0.2-4.5-1.6-6.8-0.8
		c-1.5,0.5-2.9,1.2-4.5,1c-1.6-0.1-2.9-1.3-4.3-2c-1-0.5-2.1-0.8-3.3-0.7c-1.6,0-3.1,0.7-4.7,1.1c0.4-0.5,0.7-1,0.9-1.5
		c-1.2-0.1-2.5,0-3.7,0.2c-0.1-0.3-0.2-0.5-0.5-0.5c0.2-0.1,0.4-0.1,0.6-0.2c1.4-0.3,2.8-0.4,4.2-0.3c-0.1,0.3-0.2,0.5-0.3,0.8
		c1.1,0,2.2,0.2,3.3,0.2c0.5,0,0.9-0.2,1.3-0.4C45.9,10.5,45.6,10,45.7,9.6z"/>
	<path fill="#7382FE" d="M35.4,12c0.3-0.6,1-0.9,1.6-1.2c0.3,0,0.5,0.2,0.5,0.5c-0.1,0-0.4,0.1-0.6,0.1c-0.4,0.1-0.7,0.2-1,0.4
		c0.1,0.5,1.1,0.8,0.5,1.4c-0.2-0.2-0.5-0.4-0.7-0.6c-2.1,3.8-2.7,8.5-1.4,12.7c1.4,4.8,5,8.9,9.6,10.9c-0.9-0.1-1.9-0.3-2.8-0.5
		c-1-0.8-2-1.5-2.9-2.5C34.9,30,33,25.6,33,21.1C32.9,17.9,33.8,14.7,35.4,12z"/>
	<path fill="#F3F6FE" d="M37.5,11.3c1.2-0.2,2.5-0.3,3.7-0.2c-0.3,0.5-0.6,1.1-0.9,1.5c-0.1,0.1-0.2,0.2-0.2,0.2
		c-1.1,0-2.2,0.1-3.3-0.3c0.1-0.4,0.1-0.8,0.2-1.2C37.1,11.4,37.4,11.3,37.5,11.3z"/>
	<path fill="#D4D9FE" d="M35.9,11.8c0.3-0.2,0.7-0.3,1-0.4c-0.1,0.4-0.1,0.8-0.2,1.2c1.1,0.4,2.2,0.2,3.3,0.3
		c-0.1,0.2-0.1,0.5-0.1,0.7c-0.1,0-0.2,0.1-0.2,0.2c-1.1-0.1-2.2,0-3.2-0.5c0,0-0.1-0.1-0.1-0.1C37,12.6,35.9,12.3,35.9,11.8z"/>
	<path fill="#7484FE" d="M40.3,12.6c1.5-0.4,3-1.1,4.7-1.1c1.1-0.1,2.3,0.1,3.3,0.7c1.4,0.7,2.6,1.9,4.3,2c1.6,0.2,3.1-0.4,4.5-1
		c2.3-0.8,4.5,1,6.8,0.8c0.7-0.1,1.6-0.4,1.7-1.2c0.1-0.3-0.2-0.6-0.4-0.6c-0.9-0.3-1.8-0.3-2.8-0.3c0-0.1,0-0.3,0-0.5
		c1.1,0.1,2.7-0.3,3.3,0.9c2.9,4.9,3,11.3,0.4,16.4c-1.2,2.4-3,4.4-5,6.1c-0.8,0.2-1.6,0.4-2.4,0.6c3-1.7,5.5-4.3,6.9-7.5
		c2.1-4.4,2.2-9.8,0.1-14.2c-1.1,1.3-3.1,1-4.6,0.5c-0.1,0-0.4-0.1-0.5-0.2c-1.1-0.4-2.4-0.7-3.5-0.1c-0.1,0-0.3,0.1-0.4,0.1
		c-2,0.9-4.4,1.1-6.3,0c-1.4-0.8-2.7-1.8-4.3-1.9c-2.2-0.2-4.1,0.9-6.1,1.4c0-0.2,0.1-0.5,0.1-0.7C40.1,12.8,40.2,12.7,40.3,12.6z"
		/>
	<path fill="#E6ECFE" d="M39.9,13.6c2-0.5,4-1.6,6.1-1.4c1.6,0.1,3,1.2,4.3,1.9c1.9,1.1,4.3,0.8,6.3,0c0.6,0.6,1.1,1.2,1.4,2
		c-0.8,0.6-1.8,0.6-2.7,0.7c-2.9,0.3-5.8-0.2-8.6-0.3c-2.1,0-4.3,0-6.3,0.5c-1.1,0.3-2.4,0.6-3.1,1.6c-0.9,1.4-1.1,3-1,4.6
		c0.3,3.8,2.1,7.6,5.2,9.9c2.6,1.8,5.7,2.5,8.8,2.4c1.7,0.1,3.4-0.3,5.1-0.8c3.1-1.1,6-3.2,7.5-6.2c1-2.1,1.2-4.5,0.9-6.8
		c-0.2-1.7-0.8-3.4-1.9-4.7c-0.3-0.4-0.7-0.8-1-1.2c0-0.5,0.2-0.9,0.2-1.4c1.5,0.4,3.5,0.8,4.6-0.5c2.2,4.4,2,9.8-0.1,14.2
		c-1.5,3.1-4,5.7-6.9,7.5c-4.9,0.9-9.9,1.4-14.8,0.8c-4.6-2-8.2-6.1-9.6-10.9c-1.2-4.2-0.6-8.9,1.4-12.7c0.2,0.2,0.5,0.4,0.7,0.6
		c0,0,0.1,0.1,0.1,0.1c0,0.6-0.1,1.3,0.1,1.9c0.2,0.6,1.1,0.7,1.5,0.4c0.6-0.5,1-1.2,1.6-1.8C39.7,13.7,39.9,13.6,39.9,13.6z"/>
	<path fill="#F7F9FE" d="M36.5,13.3c1,0.4,2.1,0.4,3.2,0.5c-0.5,0.6-0.9,1.3-1.6,1.8c-0.5,0.4-1.3,0.2-1.5-0.4
		C36.4,14.6,36.5,13.9,36.5,13.3z"/>
	<path fill="#73ABFE" d="M57,13.9c1.1-0.6,2.4-0.2,3.5,0.1c-0.2,0.6-0.6,1.2-0.3,1.9c0.6,0.8,1.5,1.5,1.9,2.4c0.6,1.5,1,3.1,1.1,4.7
		c-0.1,2.9-1.5,5.7-3.7,7.7c-1.1,1.2-2.6,1.8-4,2.6c0,0,0,0,0,0c-0.2,0-0.5,0.1-0.6,0.2c-1.5-0.1-3.2-0.3-4.4-1.4
		c-1.3-1.2-1.6-3.1-1.8-4.8c0-0.1,0-0.2,0-0.3c-3.3,1.3-7.1,1.8-10.5,0.6c-1.4-2.4-1.9-5.4-1.2-8.1c0.3-1.3,1.7-1.8,2.9-2
		c2.1-0.3,4.2-0.3,6.3-0.2c2.5,0,4.9,0.3,7.3,0.4c1.4-0.1,2.8-0.2,4-0.8c0.6-0.3,0.9-0.9,0.7-1.5C57.9,14.8,57.5,14.4,57,13.9z"/>
	<path fill="#0E0C43" d="M56.7,14.1c0.1,0,0.3-0.1,0.4-0.1c0.4,0.4,0.9,0.9,1.1,1.4c0.2,0.6-0.2,1.3-0.7,1.5c-1.2,0.7-2.7,0.7-4,0.8
		c-2.4-0.1-4.9-0.4-7.3-0.4c-2.1-0.1-4.2-0.1-6.3,0.2c-1.2,0.2-2.6,0.7-2.9,2c-0.7,2.7-0.2,5.7,1.2,8.1c3.4,1.2,7.2,0.7,10.5-0.6
		c0,0.1,0,0.2,0,0.3c-3.3,1.3-7.1,1.9-10.5,0.4c1.4,2.9,4.3,4.9,7.4,5.9c3,0.9,6.3,1,9.3-0.1c0.2,0,0.5-0.1,0.6-0.2
		c-0.1,0.1-0.2,0.4-0.3,0.6c-1.2,0.6-2.6,0.6-4,0.8c-1,0.1-1.9,0.1-2.9-0.1c-0.5-0.1-1-0.2-1.4,0c1,0.2,2.1,0.3,3.1,0.4
		c0.1,0.1,0.2,0.3,0.3,0.4c-3.1,0.1-6.3-0.7-8.8-2.4c-3.1-2.3-4.9-6.1-5.2-9.9c-0.1-1.6,0.1-3.3,1-4.6c0.8-0.9,2-1.3,3.1-1.6
		c2.1-0.4,4.2-0.5,6.3-0.5c2.9,0,5.8,0.6,8.6,0.3c0.9-0.1,1.9-0.1,2.7-0.7C57.8,15.2,57.3,14.6,56.7,14.1z"/>
	<path fill="#0E1749" d="M60.5,14.1c0.1,0,0.4,0.1,0.5,0.2c-0.1,0.5-0.2,0.9-0.2,1.4c0.3,0.4,0.7,0.8,1,1.2c1.1,1.3,1.7,3,1.9,4.7
		c0.3,2.3,0.1,4.7-0.9,6.8c-1.5,3-4.4,5.1-7.5,6.2c0-0.1-0.1-0.2-0.1-0.3c0.3-0.2,0.6-0.3,1-0.5c-0.3-0.1-0.5-0.3-0.8-0.4
		c1.4-0.8,2.9-1.4,4-2.6c2.2-1.9,3.6-4.7,3.7-7.7c-0.1-1.6-0.5-3.2-1.1-4.7c-0.4-1-1.2-1.6-1.9-2.4C59.9,15.3,60.3,14.7,60.5,14.1z"
		/>
	<path fill="#1A214E" d="M47.4,17c0.8-0.1,1.6-0.1,2.5,0C49,17,48.2,17.1,47.4,17z"/>
	<path fill="#040404" d="M51.9,22.2c1.9-0.5,4,1.7,2.9,3.5c-0.7,1.9-3.7,2.5-4.9,0.7C49,24.8,50.1,22.5,51.9,22.2z"/>
	<path fill="#FFFFFF" d="M50.9,22.9c1.2-0.8,3-0.6,3.7,0.8c0.5,0.7,0.2,1.6-0.3,2.3c-0.8,1.3-3,1.5-4,0.3c0.2,0,0.5,0,0.7,0
		c0.8-0.3,1.3-1,1.4-1.8C52.3,23.6,51.7,23,50.9,22.9z"/>
	<path fill="#0E1749" d="M69.1,25.4C69.1,25.4,69.1,25.4,69.1,25.4C69.1,25.4,69.1,25.4,69.1,25.4z"/>
	<path fill="#D1E3FE" d="M38.1,27.7c3.4,1.4,7.2,0.9,10.5-0.4c0.1,1.7,0.5,3.5,1.8,4.8c1.2,1.1,2.9,1.3,4.4,1.4
		c-3,1.1-6.3,1-9.3,0.1C42.4,32.6,39.6,30.6,38.1,27.7z"/>
	<path fill="#030348" d="M55.4,33.3C55.4,33.3,55.4,33.3,55.4,33.3c0.3,0.1,0.5,0.3,0.8,0.4c-0.3,0.2-0.6,0.3-1,0.5
		c0,0.1,0.1,0.2,0.1,0.3c-1.7,0.5-3.4,0.9-5.1,0.8C50.2,35.3,50,35.1,50,35c-1-0.1-2.1-0.2-3.1-0.4c0.5-0.2,0.9-0.1,1.4,0
		c1,0.1,1.9,0.1,2.9,0.1c1.3-0.1,2.7-0.2,4-0.8C55.2,33.8,55.4,33.5,55.4,33.3z"/>
	<path fill="#9EA6A9" d="M36.6,34c0.1,0.2,0.3,0.4,0.4,0.6v0.1c0,0.1,0.1,0.2,0.1,0.3c2.3,1,4.7,1.7,7.1,1.9
		C44,37.6,44,38.2,44,38.8c-1-0.1-1.9-0.4-2.9-0.2l-0.1,0c0,0,0-0.1,0-0.2c-0.6-0.1-1.2-0.2-1.8-0.3c-0.2-0.1-0.5,0-0.7,0.2
		c-0.5,0.6-0.9,1.7-0.2,2.3c0.9,0.9,2.4,0.7,3.5,1.4c0.4,0.2,0.4,0.7,0.5,1c-2.3-0.4-5.1-0.6-6.7-2.6c-0.4-1.2-0.1-2.5,0.1-3.8
		c0.2-0.7,0.2-1.5,0.9-1.8c-0.1-0.1-0.2-0.2-0.4-0.3l0,0C36.3,34.3,36.5,34.2,36.6,34z"/>
	<path fill="#050505" d="M61.1,34.8c0.8-0.2,1.6-0.5,2.3-0.9c0.3,0,0.5,0.1,0.7,0.4c0.1,0.3,0.2,0.6,0.3,1c0.9,0,1.9-0.1,2.7,0.5
		c0.8,0.9,0.8,2.4,0.1,3.4c-0.5,0.6-1.4,0.6-1.8,1.4c-0.1,0.7,0.2,1.4-0.1,2.1c-0.2,0.6-0.8,0.9-1.2,1.2l0.2,0.3
		c0.2,0.1,0.4,0.2,0.7,0.3c-0.1,0-0.3,0.1-0.4,0.1c0.2,0.4,0.4,0.8,0.6,1.2c0.4-0.1,0.7-0.2,1.1-0.3c-0.3,0.1-0.7,0.3-1,0.4
		c0.2,0.3,0.3,0.6,0.5,0.9c0.3-0.1,0.7-0.1,1-0.2c-0.3,0.1-0.5,0.2-0.8,0.2c-0.2,0.5-0.4,1-0.7,1.4c0.3,0.5,0.5,1,0.8,1.4
		c1-0.7,1.5-2,1.2-3.2c0-0.8-0.8-1.1-1.1-1.7c0.6,0.2,1,0.7,1.3,1.2c0.3,1.3,0.3,2.8-0.8,3.7c0.2,0.4,0.4,0.8,0.6,1.1
		c-1.2,1.7-3.5,1.4-5.2,1.9c-0.7,0.1-0.9,0.9-0.8,1.5c0.2,0.8-0.1,1.5-0.1,2.3c0.4,0,0.5-0.5,0.7-0.7c0,0.3-0.1,0.6-0.1,0.8
		c-0.3,0-0.6,0-0.9,0c-0.6,1.3-2.1,1.8-3.5,1.7c-0.8-0.5-0.5-1.7,0-2.3c-0.5,0.1-1.1,0.2-1.6,0.3l0.1,0.2c-0.7-0.1-1.4,0-2.1,0.1
		c0.2,0,0.3,0.1,0.5,0.1c0,0.2,0,0.6,0,0.8c0.5,0.1,1,0.2,1.4,0.3c0.1,0,0.4,0.1,0.5,0.2c0.3,0.9,0.2,1.9,0.5,2.8
		c1.3,0.5,2.8,0.3,3.9-0.4c0.6-0.7,0.3-1.8,0.4-2.7c-0.1-0.7,0.9-0.7,1.2-1.3c0.2-0.4,0.2-0.8,0.3-1.3c-0.3,0-0.6,0-1,0.1
		c0.6-0.6,0-1.9,1-2.2c2.1-0.5,4.2-0.8,6.3-1c-0.2-0.6-0.9-0.5-1.4-0.7c0.3-0.1,0.7-0.2,1-0.2c0.9,0.1,0.6,1.2,0.4,1.8
		c1.9,0.7,2.7,2.8,3.2,4.6c0.7,2.6-0.2,5.5-2.2,7.2c-0.6,0.5-1.4,0.6-2.1,0.9c-6,1.5-12,3-18,4.2c-0.6,0-1.2,0-1.8-0.1
		c-1.7-0.5-3.6-0.5-5.3-0.9c-1.3-0.3-2.8-0.1-3.8-1.2c-0.8,0-1.6,0.4-2.4,0.1c-1.6-0.2-3.2-0.6-4.8-0.8c-0.9-0.2-1.8-0.1-2.6-0.6
		c0.5-0.1,0.9-0.2,1.4-0.3c1.8-0.1,3.6,0.6,5.4,0.5c-0.2-0.4-0.4-0.7-0.5-1.1c-0.1-0.5-0.2-1-0.3-1.5c-0.2-1-0.1-2,0.1-2.9
		c0-0.1,0.1-0.4,0.2-0.6c0-0.2,0.1-0.5,0.2-0.6c0.1-0.4,0.3-0.8,0.5-1.2c0-0.1,0.1-0.2,0.2-0.3c0.3-0.5,0.6-0.9,0.9-1.3
		c0.2-0.3,0.5-0.5,0.7-0.7c0.3-0.2,0.5-0.5,0.8-0.7c0.1,0,0.3-0.1,0.4-0.2c-0.6,0.8-1.4,1.2-1.9,2c-0.8,1.3-1.4,2.8-1.4,4.3
		c-0.1,1.6,0,3.3,0.9,4.6c0.3,0.6,1,0.4,1.6,0.5c-0.2,0.1-0.3,0.2-0.5,0.4c0.4,0,0.8,0,1.3,0c-1.1-0.5-1.6-1.7-1.8-2.8
		c-0.6-2.7,0.4-5.6,2.2-7.7c0.4-0.5,0.8-0.8,1.3-1.1l-0.1,0.3c-0.2,0.2-0.3,0.3-0.5,0.4c-0.3,0.3-0.5,0.5-0.8,0.8
		c-0.2,0.3-0.4,0.7-0.6,1.1c-0.1,0.1-0.2,0.4-0.3,0.5c-0.2,0.4-0.3,0.8-0.4,1.2c-0.1,0.2-0.1,0.5-0.1,0.7c0,0.4-0.1,0.7-0.1,1.1
		c0,0.4,0,0.7,0,1.1c0,0.5,0.1,1.1,0.2,1.6l0.1,0.3c0.2,0.6,0.5,1.2,0.9,1.7c0.2,0.2,0.4,0.5,0.6,0.7c1.1,1.1,2.9,0.7,4.3,1.3
		c0.8-0.1,1.5,0.2,2.2,0.4c-0.4-0.6-0.7-1.3-1-1.9l0-0.1c-0.1-0.3-0.2-0.7-0.3-1c0-0.3,0-0.6-0.1-0.9c0-1.1,0.1-2.2,0.3-3.3
		c0-0.1,0.1-0.3,0.1-0.5c0.2-0.5,0.5-1.1,0.8-1.6c0.1-0.2,0.2-0.4,0.4-0.5c0.3-0.3,0.5-0.7,0.8-1c0.3-0.2,0.5-0.4,0.8-0.6
		c0.5-0.3,0.9-0.7,1.4-0.9c0.1-0.1,0.4-0.2,0.5-0.2c0,0.1-0.1,0.2-0.1,0.3c-2.2,0.9-3.9,3.1-4.1,5.5c-0.1,1.4-0.1,2.8,0.2,4.1
		c0.2,0.7,0.7,1.4,0.6,2.2c0.1,0,0.3-0.1,0.4-0.2c0.7,0.5,1.4,1.1,2.2,1.2c0.7,0.2,1.5-0.1,2.2-0.2c1.5-0.4,2.9-0.7,4.4-1
		c3.4-0.7,6.8-1.7,10.2-2.4c0.8-0.2,1.6-0.3,2.4-0.7c1.5-0.8,2.5-2.3,3-3.9c0.7-2.1,0-4.4-1-6.4c-0.3-0.7-1-1.2-1.7-1.6
		c0-0.2,0-0.4,0-0.5c-2,0.3-3.9,0.6-5.9,0.9c-0.3,0-0.5,0.3-0.7,0.5c1.9-0.1,3.8-0.7,5.7-0.8c-1.8,0.7-3.8,0.9-5.7,1
		c0,0.2,0,0.5,0,0.7c2.1-0.3,4.3-0.8,6.4-0.7c1.3,0.7,2,2.4,2.2,3.8c0.2,2.2-0.3,4.9-2.3,6c0.6-0.8,1.5-1.4,1.7-2.4
		c-0.7,0.6-1.1,1.4-1.9,1.9c-0.6,0.4-1.1,1-1.8,1.1c-1.5,0.4-3,0.7-4.5,1.1c-2.4,0.6-4.7,1.4-7.1,1.8c-1.8,0.3-3.5,1-5.3,0.9
		c-0.7-0.6-1.3-1.2-1.9-1.9l0.4-0.1c1,1.2,2.6,1.7,4.1,1.1c2.4-0.9,4-3.6,3.8-6.1c-0.1-1.5-0.7-3.1-2.1-3.8c-2-1-4.7,0.1-5.7,2
		c-0.7,1.2-1,2.5-0.9,3.9c0,0.3,0,0.7,0,1c-0.1-0.1-0.4-0.2-0.6-0.3c-0.1-1.8,0.3-3.6,1.2-5.1c0.1,0,0.3-0.1,0.4-0.1
		c0-0.2,0-0.3,0-0.5c0.5-0.5,1.1-1,1.8-1.3c2.8-1.2,5.9-1.4,8.9-2.1c0-0.2,0-0.5,0.1-0.7c-0.7,0.1-1.4,0.2-2.1,0.3
		c0.3-0.2,0.5-0.3,0.8-0.4c0.4-0.1,0.9-0.2,1.3-0.2c0-1.4-0.3-3.1,0.7-4.3c1.5-1.8,4.5-0.9,6-2.7c-0.7-1.8-1.7-3.4-2.4-5.1
		c-0.9,0.2-1.8,0.4-2.7,0.6c-0.1,0.8,0,1.7-0.6,2.3c0,0.1,0.1,0.2,0.1,0.3c-1.1,1.5-3,1.8-4.7,1.9c0.1,0.8-0.1,1.7,0.2,2.4
		c0.8,0.5,1.8,0.8,2.3,1.7c0.3,0.9-0.1,1.9-1,2.4c0,0.1,0,0.3-0.1,0.4c0,0.8-1,1.2-1.7,1c-0.6-0.1-1-0.6-1.4-1
		c-0.4-0.7-0.6-1.6-0.1-2.3c-0.2-0.2-0.4-0.4-0.6-0.5c-0.1,0.7-0.1,1.4-0.1,2.1l-0.2,0c-0.1-0.9-0.1-1.9,0.5-2.6
		c0.6-0.7,1.4-1.2,2.2-1.4c0-0.7-0.1-1.5-0.1-2.2c-0.4,0-0.9,0-1.3-0.1c-1.2,1.8-2.2,3.8-3.3,5.7c-0.5,0.8-0.7,1.9-0.2,2.7
		c0.7,0.2,1.4-0.1,2.1-0.2c0.3,0,0.7,0,1,0l0,0.3c-1.1,0.1-2.3,0.5-3.4,0.3c-1.7-0.2-3.4-0.2-5.1-0.4c-1.2,0-2.5-0.4-3.7-0.1l0,0
		c-0.6-0.2-1.2-0.3-1.8-0.3c-2.5-0.1-5-0.5-7.6-0.8c0,0-0.1-0.1-0.1-0.1l-0.2-0.3c0-0.7-0.5-1.8,0.3-2.2c-0.1-1.3,0.5-2.7,1.6-3.5
		c0.2-0.2,0.6-0.2,0.8-0.2c0.2-0.8,0.8-1.5,1-2.3c-0.5-0.6-1-1.4-1-2.2c-0.1-1.2,0.3-2.3,0.9-3.3c-0.1-1.5-0.2-3.1,0.3-4.6
		c0.1-0.2,0.1-0.4,0.2-0.7c0.2-0.2,0.4-0.4,0.6-0.6c0.1,0.1,0.2,0.2,0.4,0.3c-0.8,0.3-0.8,1.2-0.9,1.8c-0.2,1.2-0.4,2.6-0.1,3.8
		c1.6,2,4.4,2.2,6.7,2.6c-0.1-0.3-0.1-0.8-0.5-1c-1.1-0.6-2.6-0.5-3.5-1.4c-0.7-0.7-0.2-1.7,0.2-2.3l0.2,0.1c-0.2,0.6-0.6,1.5,0,2
		c1.1,0.6,2.4,0.5,3.4,1.2c0.4,0.4,0.4,1,0.6,1.5c0.2-0.2,0.4-0.4,0.5-0.6c-0.1-0.5-0.3-1-0.6-1.4c0.1,0,0.3,0.1,0.4,0.2
		c0.2,0.5,0.6,1.3,0.1,1.8c-0.5,0.2-1,0.3-1.5,0.6c-0.1-0.1-0.3-0.2-0.3-0.3c-0.6,0.6-1.4,1.1-1.6,2c-0.1,0.8,0,1.7,0,2.6
		c-0.6,0.2-1.3,0.2-1.9,0.1c0.1-0.2,0.3-0.5,0.4-0.6l0.1,0.3c0.3,0,0.6-0.1,0.9-0.2c0-0.8-0.1-1.7,0.1-2.5c0.2-0.8,1-1.2,1.5-1.8
		c-0.4-0.1-0.9-0.1-1.3-0.2c-0.5,0.5-1,1.2-1.2,1.9c0-0.4,0.1-0.9,0.2-1.3c-0.5-0.2-1.1-0.4-1.6-0.6c-0.7,0.7-1.2,1.6-1.1,2.7
		c0.7,0.3,1.4,0.4,2.2,0.5c0.1,0.1,0.2,0.2,0.2,0.3l-0.4,0c-0.8,0-1.7-0.2-2.4-0.5c-0.3,0.7-0.6,1.4-0.9,2.1c0.6-0.1,1.2-0.3,1.8,0
		c0.6,0.2,1.1,0.5,1.6,0.8c-1,1.5-1.4,3.2-2.7,4.5c-1,0.5-2.2,0.3-3.2,0c0-0.3-0.1-0.7-0.1-1c-0.7,0.3-0.2,1.1-0.2,1.6
		c5.1,0.8,10.2,0.9,15.3,1.4c0.9,0.1,1.8,0.1,2.8,0.2c-0.1-0.7-0.3-1.4-0.1-2c0.7-2.2,2.3-4.1,3.4-6.1c-0.5,0-0.9,0-1.4,0
		c-0.2,0.4-0.5,0.6-0.9,0.7c-1.3,0.3-2.7,0.7-4,0.7c-0.5,0-0.4-0.6-0.4-1c0.2-0.9,0-1.9,0.3-2.8c0.2-0.7,0.8-1.1,1.3-1.5
		c-0.8,0-1.5,0-2.3-0.3c0.1-0.1,0.4-0.2,0.5-0.3c3.1,0.2,6.1-0.2,9.1-0.9c0-0.7-0.1-1.6,0.5-2.2c0.8-0.9,2-1.1,3.2-1.4
		c0-0.5,0-1-0.1-1.4c-0.3-0.4-0.6-0.7-1-1c-1-0.1-2,0.2-3,0.4c-2,0.3-4,0.6-6.1,0.5c-1.4,0.1-2.8-0.1-4.2-0.1
		c-0.4,0.5-0.3,1.1-0.2,1.7c2.3,0.3,4.6,0.2,7,0.1c0.1,0.4-0.1,0.8-0.2,1.2c-0.1,0-0.2-0.1-0.2-0.2c0-0.2-0.1-0.7-0.1-0.9
		c-0.1,0.2-0.2,0.4-0.4,0.6c-0.1-0.1-0.2-0.2-0.3-0.3c-3,0.2-6,0.2-8.9-0.6l0-0.1c1-0.2,1.9,0.1,2.9,0.2c0-0.6,0-1.3,0.2-1.9
		c-2.5-0.2-4.9-0.9-7.1-1.9c0-0.1-0.1-0.2-0.1-0.3v-0.1c0.7,0.2,1.3,0.3,2,0.5c0.7,0.3,1.4,0.5,2.1,0.6c0.9,0.2,1.9,0.4,2.8,0.5
		c4.9,0.6,9.9,0.1,14.8-0.8C59.5,35.2,60.3,35.1,61.1,34.8z"/>
	<path fill="#9EA6A9" d="M57.8,36c2-0.3,4-1.1,5.9-1.8c0.9,2,0.6,4.7-1.1,6.2c0.1-0.7-0.4-1.3-1-1.6c-0.8-0.5-1.7-0.3-2.6-0.2
		C59.3,37.5,58.7,36.5,57.8,36z"/>
	<path fill="#FFFFFF" d="M64.4,35.7c1.1-0.2,2.7-0.1,3,1.2c0.3,0.9-0.1,2.4-1.2,2.6c-0.4,0.2-0.8,0.4-1.1,0.7
		c-0.1,0.1-0.2,0.4-0.3,0.5c0.5,0.6,0.3,1.6,0,2.2c-0.2,0.3-0.5,0.9-0.9,0.4c0.1-0.1,0.2-0.3,0.3-0.3l0.1-0.1
		c0.8-0.7,0.1-1.9,0.4-2.8c0.6-0.6,1.5-0.8,2.1-1.3c0.1-0.2,0.2-0.4,0.3-0.7c0-0.5-0.1-0.9-0.3-1.4c-0.2-0.2-0.4-0.3-0.6-0.5
		C65.5,35.9,64.9,36,64.4,35.7z"/>
	<path fill="#9EA6A9" d="M54.8,36.6c1-0.1,2-0.5,3-0.4c0.4,0.3,0.7,0.6,1,1c0.1,0.5,0.1,1,0.1,1.4c-1.1,0.3-2.4,0.5-3.2,1.4
		c-0.5,0.6-0.5,1.4-0.5,2.2c-3,0.6-6,1-9.1,0.9c0.1-0.2,0.2-0.5,0.3-0.7c0.8-0.2,1.6-0.3,2.5-0.2c1.1,0.1,2.4-0.2,3-1.2
		c0.4-0.7,0.1-1.4-0.2-2c-0.1,0-0.3,0-0.5,0c-2.3,0.1-4.6,0.2-7-0.1c-0.1-0.6-0.2-1.2,0.2-1.7c1.4-0.1,2.8,0.1,4.2,0.1
		C50.8,37.2,52.8,36.9,54.8,36.6z"/>
	<path fill="#FFFFFF" d="M64.6,36.2c0.6,0.1,1.3,0.1,1.7,0.6c0.3,0.5,0.3,1.1,0.1,1.7c-0.7,0.6-1.6,0.8-2.1,1.5
		c-0.2,0.6,0,1.2,0,1.7c-0.1,0.4-0.1,0.8,0,1.1c-0.1-0.1-0.2-0.2-0.3-0.2l-0.2,0.3c-0.5-0.4-0.6-1.1-0.6-1.7c-0.1,0-0.4,0-0.6-0.1
		c0-0.1,0.1-0.4,0.1-0.5C64.2,39.8,64.8,37.9,64.6,36.2z"/>
	<path fill="#798082" d="M59.4,37.3c-0.2-0.4,0.2-0.8,0.6-0.8c0.4,0.2,0.2,0.7,0.2,1C59.9,37.5,59.5,37.6,59.4,37.3z"/>
	<path fill="#798082" d="M42.9,37.2c0.2,0.1,0.5,0.2,0.7,0.3c0.1,0.5-0.5,1.1-0.9,0.6C42.4,37.9,42.8,37.5,42.9,37.2z"/>
	<path fill="#798082" d="M45,37.6c0.3-0.2,0.9,0.1,0.7,0.5c-0.1,0.4-0.6,0.3-1,0.3C44.8,38.1,44.7,37.7,45,37.6z"/>
	<path fill="#474F52" d="M38.5,38.3c0.2-0.2,0.4-0.2,0.7-0.2c0.2,0.7-0.3,1.6,0.4,2.1c0.7,0.4,1.4,0.5,2.2,0.5
		c0.3,0.2,0.6,0.3,0.9,0.4c0.2,0.5,0.4,0.9,0.6,1.4c-0.1,0.2-0.3,0.4-0.5,0.6c-0.2-0.5-0.2-1.2-0.6-1.5c-1-0.7-2.4-0.6-3.4-1.2
		c-0.6-0.5-0.2-1.4,0-2L38.5,38.3z"/>
	<path fill="#050505" d="M39.2,38.1c0.6,0.1,1.2,0.2,1.8,0.3c0,0,0,0.1,0,0.2c-0.1,0-0.4,0-0.5,0.1c-0.3,0-0.6-0.1-1-0.1
		c0,0.4-0.1,0.9,0.1,1.3c0.4,0.3,0.9,0.3,1.4,0.4c0.2,0.2,0.5,0.3,0.7,0.5c-0.7,0-1.5-0.2-2.2-0.5C38.9,39.7,39.4,38.8,39.2,38.1z"
		/>
	<path fill="#2C3336" d="M39.6,38.6c0.3,0,0.6,0.1,1,0.1c0.1,0.5,0.3,1,0.5,1.5c-0.5-0.1-1-0.1-1.4-0.4C39.4,39.5,39.6,39,39.6,38.6
		z"/>
	<path fill="#039AD9" d="M40.5,38.7c0.1,0,0.4,0,0.5-0.1l0.1,0l0,0.1c-0.1,0.1-0.2,0.2-0.3,0.3c0.5,0.6,1,1.2,1.7,1.5
		c1.6,0.6,3.4,0.5,5.1,0.4c1-0.2,2.2-0.4,2.7-1.3c0.1-0.2,0.2-0.4,0.4-0.6c0,0.2,0.1,0.7,0.1,0.9c-0.6,0.9-1.7,1.3-2.7,1.6
		c-0.4,0.1-0.9,0.2-1.4,0.2c-0.3,0-0.6,0-1,0c-0.9,0-1.9-0.1-2.8-0.3c-0.1,0-0.3-0.1-0.4-0.2c-0.3-0.1-0.6-0.3-0.9-0.4
		c-0.2-0.2-0.5-0.3-0.7-0.5C40.8,39.7,40.6,39.2,40.5,38.7z"/>
	<path fill="#C9E7EA" d="M40.8,39.1c0.1-0.1,0.2-0.2,0.3-0.3c2.9,0.7,6,0.7,8.9,0.6c0.1,0.1,0.2,0.2,0.3,0.3
		c-0.6,0.9-1.8,1.1-2.7,1.3c-1.7,0.1-3.5,0.2-5.1-0.4C41.8,40.3,41.3,39.7,40.8,39.1z"/>
	<path fill="#293132" d="M51.2,38.9c0.1,0,0.3,0,0.5,0c-0.1,0.7,0,1.6-0.6,2.1c-0.7,0.8-2,0.8-2.9,0.5c1-0.3,2-0.7,2.7-1.6
		c0.1,0,0.2,0.1,0.2,0.2C51.2,39.7,51.3,39.3,51.2,38.9z"/>
	<path fill="#7D8689" d="M56.3,40c1.4-0.8,3-1.2,4.6-1.1c0.5,0.1,0.9,0.5,1.2,0.9c0.3,0.6,0.1,1.4,0.7,1.8c0,0.1,0.1,0.3,0.1,0.4
		c-0.9,0.2-1.9,0.5-2.8,0.8c-0.2-0.5,0.2-0.7,0.5-0.9c-0.1,0-0.4,0-0.6,0c0,0,0-0.1,0-0.2c0.5-0.1,0.9-0.2,1.4-0.2c0-0.5,0-1,0-1.5
		c-0.7-0.6-1.6-0.4-2.4-0.3c-1.1,0.2-2.3,0.5-3,1.5c-0.1,0.5,0,1,0.1,1.5c-0.1,0.7-0.8,1-1.5,1.1c0-0.2,0-0.5,0-0.7
		c0.3-0.2,0.6-0.3,0.8-0.5C55.6,41.7,55.4,40.6,56.3,40z"/>
	<path fill="#050505" d="M51.7,38.9c0.4,0.6,0.6,1.4,0.2,2c-0.6,1-1.9,1.4-3,1.2c-0.8-0.1-1.7,0-2.5,0.2l-0.2,0.1
		c0.2-0.3,0.4-0.5,0.6-0.8c0.5,0,0.9-0.1,1.4-0.2c1,0.4,2.2,0.3,2.9-0.5C51.7,40.5,51.6,39.6,51.7,38.9z"/>
	<path fill="#4D535C" d="M56.4,41.9c-0.4-1.1,1-1.8,1.9-1.7c0.6-0.1,0.8,0.5,1.1,1c-0.6,0-1.2-0.1-1.8,0.1
		C57.1,41.4,56.7,41.7,56.4,41.9z"/>
	<path fill="#4B515A" d="M34.5,43c0.1-0.9,0.4-1.7,0.8-2.4c0.3,0.4,0.7,0.8,1.1,1.1c0,0.2-0.1,0.6-0.1,0.9
		C35.7,42.5,35.1,42.7,34.5,43z"/>
	<path fill="#7A8386" d="M43.1,41.3c0.9,0.2,1.8,0.3,2.8,0.3c-0.3,0.5-0.5,1.1-0.2,1.7c0.7,0.3,1.5,0.2,2.3,0.3
		c-0.5,0.4-1.1,0.8-1.3,1.5c-0.3,0.9-0.2,1.9-0.3,2.8c0,0.4-0.2,1,0.4,1c1.4,0,2.7-0.4,4-0.7c0.4,0,0.7-0.3,0.9-0.7
		c0.5,0,0.9,0,1.4,0c-1.1,2.1-2.6,3.9-3.4,6.1c-0.2,0.7,0,1.4,0.1,2c-0.9-0.1-1.8-0.1-2.8-0.2c-5.1-0.5-10.2-0.6-15.3-1.4
		c0-0.5-0.5-1.4,0.2-1.6c0,0.3,0.1,0.7,0.1,1c1,0.2,2.2,0.5,3.2,0c1.2-1.2,1.7-3,2.7-4.5c-0.5-0.3-1.1-0.6-1.6-0.8
		c-0.6-0.2-1.2,0-1.8,0c0.3-0.7,0.6-1.4,0.9-2.1c0.8,0.3,1.6,0.5,2.4,0.5c0,0.5,0,0.9,0.1,1.4c0.6,0.1,1.3,0,1.9-0.1
		c0-0.9-0.1-1.7,0-2.6c0.2-0.9,1-1.4,1.6-2c0.1,0.1,0.2,0.2,0.3,0.3c0.5-0.2,1-0.4,1.5-0.6C43.7,42.6,43.3,41.8,43.1,41.3z"/>
	<path fill="#4B515A" d="M56.5,41.9c0.7-0.6,1.7-1,2.7-0.7c0.7,0.7,0.5,1.8,0.4,2.7c-0.2,1.6-1.8,2.5-3.3,2.7
		c-0.8-0.6-0.9-1.6-1-2.5c0.6-0.3,1.1-0.7,1.4-1.4c0.2,0,0.5-0.1,0.7-0.1c-0.2,0-0.6,0-0.8,0C56.6,42.5,56.5,42.2,56.5,41.9z"/>
	<path fill="#040A0B" d="M61.2,41.6C61.4,41.7,61.4,41.7,61.2,41.6z"/>
	<path fill="#1F2426" d="M45.8,41.6c0.3,0,0.6,0,1,0c-0.2,0.3-0.4,0.5-0.6,0.8l0.2-0.1c-0.1,0.2-0.2,0.5-0.3,0.7
		c-0.1,0.1-0.4,0.2-0.5,0.3C45.3,42.8,45.5,42.1,45.8,41.6z"/>
	<path fill="#090D0E" d="M60.7,41.8C60.9,41.9,60.9,41.9,60.7,41.8z"/>
	<path fill="#FEFEFE" d="M36.5,42c0.4,0,0.7,0.2,1.1,0.4c-0.1,0.1-0.3,0.3-0.4,0.4C36.9,42.6,36.7,42.3,36.5,42z"/>
	<path fill="#616B70" d="M60.2,42.9c0.9-0.2,1.8-0.4,2.7-0.6c0.8,1.7,1.7,3.4,2.4,5.1c-1.5,1.8-4.5,0.9-6,2.7
		c-1,1.2-0.7,2.8-0.7,4.3c-0.4,0.1-0.8,0.2-1.3,0.2c-0.3,0.1-0.6,0-0.9-0.2c0-0.1,0-0.3,0.1-0.4c0.8-0.5,1.2-1.5,1-2.4
		c-0.4-0.9-1.4-1.3-2.3-1.7c-0.3-0.7-0.2-1.6-0.2-2.4c1.7-0.1,3.6-0.5,4.7-1.9c0-0.1-0.1-0.2-0.1-0.3C60.2,44.6,60.1,43.7,60.2,42.9
		z"/>
	<path fill="#35393F" d="M57.6,42.6c0.7,0.1,1.5,0.4,1.7,1.1C58.7,43.4,58,43.1,57.6,42.6z"/>
	<path fill="#4B515A" d="M34.5,43.9c-0.3-1.2,1.7-1.7,2.4-0.9c-0.8,0.6-1.3,1.5-1.2,2.5C35,45.4,34.7,44.6,34.5,43.9z"/>
	<path fill="#4A5059" d="M36.9,43.1c0.6,0.2,1.1,0.4,1.6,0.6c-0.1,0.4-0.2,0.8-0.2,1.3c0,0.1,0,0.2,0,0.3c-0.4-0.4-0.5,0.6-0.1,0.7
		c0,0.5,0,1,0,1.5c-0.1,0.2-0.3,0.5-0.4,0.6c0-0.5-0.1-0.9-0.1-1.4l0.4,0c-0.1-0.1-0.2-0.3-0.2-0.3c-0.7-0.2-1.5-0.2-2.2-0.5
		C35.7,44.7,36.2,43.8,36.9,43.1z"/>
	<path fill="#61808B" d="M38.4,45c0.2-0.7,0.7-1.3,1.2-1.9c0.4,0.1,0.9,0.1,1.3,0.2c-0.5,0.6-1.3,1-1.5,1.8
		c-0.2,0.8-0.1,1.7-0.1,2.5c-0.3,0.1-0.6,0.1-0.9,0.2l-0.1-0.3c0-0.5,0-1,0-1.5c0-0.2,0.1-0.5,0.1-0.7C38.4,45.2,38.4,45,38.4,45z"
		/>
	<path fill="#454D50" d="M49.6,43.5c0.4-0.1,0.8-0.1,1.2-0.2c0,0.4,0,0.7,0.1,1.1c-0.1,0-0.2,0-0.3,0c-1.4,0-1.9,2.1-0.9,3
		c0.5,0.1,1.1,0.1,1.6,0.1c-0.1,0.1-0.2,0.2-0.2,0.3c-1,0.2-1.9,0.4-2.9,0.6c0-1-0.2-2,0.1-2.9c0.3-0.8,1-1.3,1.7-1.4
		c-0.1-0.1-0.3-0.2-0.3-0.3C49.6,43.7,49.6,43.6,49.6,43.5z"/>
	<path fill="#61808B" d="M47.6,44.2c0.5-0.6,1.3-0.6,2-0.7c0,0.1,0,0.2,0,0.3c-0.6,0.3-1.2,0.7-1.5,1.3c-0.6,1.1-0.1,2.3-0.3,3.4
		c-0.4,0-0.8,0-1.2,0.1C47,47.1,46.4,45.3,47.6,44.2z"/>
	<path fill="#050505" d="M39.9,46.2c-0.1-1.1,0.6-2,1.5-2.6l0.3,0c-0.4,0.5-0.9,0.8-1.2,1.4c-0.4,0.7-0.3,1.5-0.3,2.3
		C39.7,47.2,40,46.5,39.9,46.2z"/>
	<path fill="#050505" d="M42.4,43.8c1.4-0.5,3,0.6,3,2.1c-0.1,1.4-1.6,2.4-2.9,2c-1-0.3-2.1-1.3-1.8-2.4
		C41,44.7,41.6,44.1,42.4,43.8z"/>
	<path fill="#4B515A" d="M53.2,45c0-0.6,0.5-0.8,0.9-1c0.3,0.1,0.7,0.1,1.1,0.1c-0.1,0.9,0.3,1.7,0.8,2.5c-0.8,0.1-1.6,0.3-2.4,0.2
		C53,46.5,53.2,45.7,53.2,45z"/>
	<path fill="#AADCE0" d="M42.1,44.2c1.3-0.8,3.3,0.6,2.8,2.1c-0.2,0.6-0.7,1-1.2,1.3c0-0.2,0-0.6,0-0.8c-0.7-0.1-1.3,0-1.7,0.6
		c-0.4-0.4-1-0.8-0.9-1.4C40.9,45.2,41.5,44.6,42.1,44.2z"/>
	<path fill="#050505" d="M57.2,44.2c0.4,0.4,0.7,0.9,0.8,1.5C57.8,45.2,57.5,44.7,57.2,44.2z"/>
	<path fill="#667384" d="M64.3,44.2c0.4,0.1,0.8,0.2,1.2,0.3c-0.8,0.1,0.2,0.7,0.5,0.3l0,0c0.4,0.6,1.1,1,1.1,1.7
		c0.3,1.2-0.2,2.4-1.2,3.2c-0.3-0.5-0.6-0.9-0.8-1.4c0.3-0.4,0.6-0.9,0.7-1.4c0.3-0.1,0.5-0.2,0.8-0.2c-0.3,0.1-0.7,0.1-1,0.2
		c-0.2-0.3-0.3-0.6-0.5-0.9c0.3-0.1,0.7-0.3,1-0.4c-0.4,0.1-0.7,0.2-1.1,0.3c-0.2-0.4-0.4-0.8-0.6-1.2c0.1,0,0.3-0.1,0.4-0.1
		C64.8,44.4,64.5,44.3,64.3,44.2z"/>
	<path fill="#040404" d="M42.3,44.5c0.1,0,0.2-0.1,0.3-0.1c0.1,0.4,0.3,0.9,0.5,1.3c0.3-0.3,0.7-0.6,1.1-0.8c-0.1,0.6-0.7,1-1.2,1.2
		C42.7,45.6,42.5,45,42.3,44.5z"/>
	<path fill="#4B515A" d="M50.6,44.4c0.1,0,0.2,0,0.3,0c0.8,0,1.6-0.1,2.4-0.1c-0.2,0.8-0.5,1.8,0,2.6c-0.9,0.1-1.8,0.1-2.7,0.2
		c-0.2-0.9,0-1.7,0.5-2.5c-0.6,0.7-0.9,1.7-0.5,2.6c-0.6,0.1-1.1-0.5-1.1-1.1C49.4,45.4,49.9,44.8,50.6,44.4z"/>
	<path fill="#050505" d="M61.5,44.7c0.5-0.2,1.1-0.1,1.7-0.1c-0.3,0.1-0.5,0.2-0.8,0.3c-0.5,0.7-0.6,1.6-0.4,2.5
		c0.4,0,0.8,0.2,1.1-0.1c0.7-0.4,0.5-1.3,0.4-2l0-0.3c0.4,0.7,0.4,1.8-0.2,2.4c-0.5,0.4-1.2,0.3-1.8,0.2
		C60.2,47.2,60.5,45.3,61.5,44.7z"/>
	<path fill="#050505" d="M66,44.9c-0.3,0.3-1.4-0.3-0.5-0.3C65.6,44.6,65.9,44.8,66,44.9z"/>
	<path fill="#7D8689" d="M61,46.6c0-0.8,0.3-2,1.3-1.7c-0.7,0.7-0.8,1.8-0.3,2.7C61.5,47.3,61,47.1,61,46.6z"/>
	<path fill="#0D1213" d="M38.3,45.9c-0.4-0.1-0.3-1.1,0.1-0.7C38.3,45.4,38.3,45.7,38.3,45.9z"/>
	<path fill="#9FA5AC" d="M62,47.4c-0.2-0.8-0.1-1.7,0.4-2.5c0.4,0,0.8,0.2,1.1,0.3c0,0.7,0.2,1.5-0.4,2C62.8,47.5,62.3,47.4,62,47.4
		z"/>
	<path fill="#91BDC0" d="M41.9,47.3c0.4-0.6,1.1-0.7,1.7-0.6c0,0.2,0,0.6,0,0.8C43,47.7,42.4,47.6,41.9,47.3L41.9,47.3z"/>
	<path fill="#3E4344" d="M35.2,47.1c0.3-0.1,0.4,0,0.3,0.3C35.2,47.5,35.1,47.4,35.2,47.1z"/>
	<path fill="#474D4F" d="M36.5,47.3c0.3-0.1,0.4,0.1,0.4,0.4C36.6,47.7,36.4,47.6,36.5,47.3z"/>
	<path fill="#030407" d="M40,47.5C40.2,47.6,40.2,47.6,40,47.5z"/>
	<path fill="#616B70" d="M50.3,53.1c1.1-1.9,2.1-3.8,3.3-5.7c0.4,0,0.9,0,1.3,0.1c0.1,0.7,0.1,1.5,0.1,2.2c-0.9,0.2-1.7,0.7-2.2,1.4
		c-0.5,0.8-0.6,1.7-0.5,2.6c0.2,0.7,0.9,1.1,1.3,1.7l-0.2,0c-0.4,0.1-0.8,0.1-1.2,0.2c-0.7,0.1-1.4,0.3-2.1,0.2
		C49.6,55,49.8,53.9,50.3,53.1z"/>
	<path fill="#495155" d="M55.9,48c0.6,0,0.3,1.2-0.2,1C55.2,48.7,55.4,48.1,55.9,48z"/>
	<path fill="#9BA8B8" d="M34.8,48.3c1-0.1,1.9,0.3,2.8,0.7c-0.5,1-1,2-1.6,3l-0.3,0.2C35.8,50.9,35.6,49.4,34.8,48.3z"/>
	<path fill="#677485" d="M63.9,49c0.4-0.2,0.8-0.4,1.2-0.7c0.2,0.4,0.5,0.9,0.7,1.4c-1,0.5-2.1,0.8-3.2,0.9c0-0.3,0-0.6-0.1-0.9
		c0,0.3,0,0.7,0,1c-0.8,0.1-1.5,0.5-1.9,1.2c-0.4,0-0.8-0.1-1.2-0.3c0.3,0.4,0.8,0.4,1.2,0.4c-0.1,0.3-0.1,0.6-0.2,0.9
		C60,53,59.5,53,59,52.9c-0.1-1.3,0.5-2.7,1.7-3.1C61.7,49.4,62.8,49.2,63.9,49c0,0.3,0.1,0.6,0.3,0.9C64.1,49.6,64,49.3,63.9,49z"
		/>
	<path fill="#030303" d="M39,48.9c2.5,0,4.9,0.3,7.4,0.4c0.1,0.8-0.2,1.6-0.5,2.4c-0.4,1-0.6,2.1-1.2,3.1c-1.9-0.1-3.9-0.3-5.8-0.4
		c-0.8-0.1-1.7,0.1-2.3-0.5C37.5,52.3,37.9,50.4,39,48.9z"/>
	<path fill="#F3E7C0" d="M33.3,49.4c0.5-0.1,1.1-0.5,1.6-0.3c0.2,0.2,0.2,0.5,0.3,0.8c-0.3,0.1-0.4,0.4-0.5,0.7
		c-0.1,0.8-0.1,1.6-0.1,2.4c0.1-1-0.1-2,0.3-3l0.3-0.2c0.1,1.1,0.2,2.4-0.3,3.5c-0.2,0-0.5,0.1-0.7,0.2c-0.7-1.2-0.3-2.8,0.2-4
		c-0.7,1.2-0.8,2.7-0.5,4.1c-0.3,0-0.8-0.1-1.1-0.1c-0.4-0.8-0.4-1.8-0.2-2.6c0.3-0.4,0.4-1,0.9-1.1c-0.2,1.1-0.4,2.3-0.3,3.4
		c0-1.1,0-2.2,0.4-3.3c0,0-0.1-0.1-0.2-0.1L33.3,49.4z"/>
	<path fill="#030303" d="M48.8,49.8c-0.2-0.6,0.6-0.8,1-0.7c0.8,0,0.8,1.1,0.3,1.5c-0.4,0.5-1,0.3-1.5,0.2l0.2-0.2
		c0.4-0.1,0.9-0.4,0.8-0.9C49.7,48.9,48.9,49.5,48.8,49.8z"/>
	<path fill="#C1D4EA" d="M39,49.3c2.4-0.1,4.8,0.4,7.3,0.2c-0.3,1.7-1.1,3.2-1.5,4.8c-0.4,0-0.7,0-1.1,0c0.3-1.2,0.6-2.8-0.4-3.7
		c-0.8-1-2.2-0.7-3.1-0.2c-1.3,0.6-1.9,2.1-2.2,3.5c-0.3-0.1-0.6-0.1-1-0.2C37.8,52.4,38.2,50.8,39,49.3z"/>
	<path fill="#CA514B" d="M48.8,49.8c0.1-0.3,0.9-0.9,0.8-0.2c0.1,0.5-0.4,0.8-0.8,0.9C48.8,50.3,48.8,50.1,48.8,49.8z"/>
	<path fill="#9F4A45" d="M49.8,49.3c1,0.2,0.2,1.4-0.4,1.5C49.5,50.3,49.6,49.8,49.8,49.3z"/>
	<path fill="#050505" d="M33.5,49.7c0,0,0.1,0.1,0.2,0.1c-0.5,1-0.4,2.2-0.4,3.3C33.1,51.9,33.3,50.8,33.5,49.7z"/>
	<path fill="#0E1749" d="M48.6,50.6c-0.3-0.2-0.1-0.8,0.2-0.7c0,0.3,0,0.5-0.1,0.8L48.6,50.6z"/>
	<path fill="#838079" d="M52.8,51.2c0.7-0.6,1.7-1.7,2.7-1c-1,0.2-1.5,1-2.4,1.4C53,51.5,52.9,51.3,52.8,51.2z"/>
	<path fill="#4F5967" d="M60.8,50.2c0.3-0.2,0.7,0.2,0.5,0.5C61,50.8,60.6,50.5,60.8,50.2z"/>
	<path fill="#626C71" d="M62.2,51.2c1.4-0.3,2.9-0.4,4.1-1.2c0.4,0.5,0.3,1.3-0.3,1.6c-1.1,0.2-2.2,0.5-3.3,0.6
		c-0.7,0.1-1.2,0.5-1.7,0.9C60.8,52.2,61.3,51.4,62.2,51.2z"/>
	<path fill="#D1E3FE" d="M40.4,50.5c0.6-0.4,1.4-0.3,2.1-0.3c0.4,0.4,0.9,0.8,1.2,1.2c0.1,1,0.1,2-0.3,2.9c-0.3,0-0.5-0.1-0.8-0.1
		c0.3-0.6,0.6-1.4,0.5-2.1c-0.1-0.5-0.5-0.9-0.8-1.2c-0.8-0.1-1.6,0.1-2.3,0.5c-0.1,0.1-0.2,0.2-0.3,0.3c-0.1,0.1-0.2,0.2-0.2,0.2
		c-0.5,0.6-0.5,1.4-0.8,2.1c-0.2,0-0.5,0-0.7,0.1C38.4,52.6,39.1,51.1,40.4,50.5z"/>
	<path fill="#181F7A" d="M40.1,51.5c0.7-0.5,1.5-0.6,2.3-0.5c0.3,0.4,0.7,0.7,0.8,1.2c0.1,0.7-0.2,1.4-0.5,2.1c0,0,0,0.1-0.1,0.1
		c0.2-0.9,0.8-2,0.1-2.9c-0.6-0.7-1.5-0.3-2.3-0.2c0,0.1,0,0.4-0.1,0.6C40.3,51.7,40.2,51.6,40.1,51.5z"/>
	<path fill="#BAB09B" d="M54,51.5c0.5-0.6,1.2-1,2-0.8c0.6,0.3,1.1,0.7,1.3,1.3c0,0.6,0,1.2-0.4,1.6C56,52.8,55,52.1,54,51.5z"/>
	<path fill="#717377" d="M67.3,50.9c0,0.1,0.1,0.3,0.1,0.4c0.3,0,0.6,0.1,0.9,0.1c-0.3,0-0.7,0.1-1,0.2c0.5,0.1,1.2,0.1,1.4,0.7
		c-2.1,0.2-4.2,0.5-6.3,1c-1,0.3-0.4,1.5-1,2.2c-0.1-0.4-0.1-0.7-0.2-1.1c-0.1-0.6,0.1-1.4,0.8-1.5C63.8,52.3,66.1,52.6,67.3,50.9z"
		/>
	<path fill="#CDD3D7" d="M40.5,51.3c0.7-0.1,1.7-0.5,2.3,0.2c0.7,0.9,0.1,2-0.1,2.9c-0.6-0.1-1.2-0.1-1.8-0.2
		c-0.1-0.8-0.3-1.5-0.4-2.3C40.4,51.7,40.5,51.4,40.5,51.3z"/>
	<path fill="#D72F30" d="M40.1,51.5c0.1,0.1,0.2,0.3,0.3,0.4c0.1,0.8,0.3,1.5,0.4,2.3c-0.1,0-0.4,0.1-0.5,0.1l0-0.1
		c-0.1-0.7-0.3-1.4-0.4-2.1c0-0.1,0-0.2,0-0.2C39.9,51.7,40,51.5,40.1,51.5z"/>
	<path fill="#BAB09B" d="M53.1,51.7c0.1-0.1,0.4-0.2,0.5-0.2c1.1,0.5,2.1,1.3,3.1,2c-0.1,0.2-0.3,0.5-0.4,0.7
		c-0.8-0.5-1.4-1.1-2.2-1.5c0.6,0.6,1.4,1.1,2.1,1.6c0.2,0.6-0.6,0.9-1.1,0.8c-1.2,0-2.2-1.3-1.9-2.4c0.1-0.1,0.3-0.3,0.4-0.4
		C53.5,52,53.3,51.8,53.1,51.7z"/>
	<path fill="#85827B" d="M52.6,51.6c0.2,0.2,0.4,0.4,0.6,0.5c-0.4,0.7-0.3,1.6,0.1,2.3l0.1,0.3c-0.4-0.3-0.7-0.7-0.9-1.1
		C52.5,53,52.6,52.3,52.6,51.6z"/>
	<path fill="#030303" d="M47.7,52c0.4-0.3,0.9-0.1,1.3,0.1c0.4,0.3,0.2,0.9,0,1.2c-0.3,0.7-1.6,0.7-1.8-0.1
		C47.1,52.8,47.2,52.3,47.7,52z"/>
	<path fill="#CED3D9" d="M39,54.1c0.2-0.7,0.2-1.6,0.9-2.1c0.2,0.7,0.3,1.4,0.4,2.1C39.9,54.1,39.4,54.1,39,54.1z"/>
	<path fill="#BE524D" d="M47.4,53.5c-0.1-0.6,0.2-1.2,0.6-1.6c0.3,0.2,0.6,0.3,1,0.5c0,0.6-0.3,1.2-0.9,1.3c0.2-0.4,0.4-0.7,0.5-1.1
		C48.2,52.9,48,53.5,47.4,53.5z"/>
	<path fill="#4C555E" d="M62.6,53.6c1.9-0.4,3.9-0.7,5.9-0.9c0,0.2,0,0.4,0,0.5c-0.3,0-0.6,0.1-0.8,0.1c-1.9,0.1-3.8,0.7-5.7,0.8
		C62.1,53.9,62.3,53.7,62.6,53.6z"/>
	<path fill="#687486" d="M59,53c0.5,0.1,1.1,0.1,1.6,0.1c0,0.4,0.1,0.8,0.1,1.2c-0.4,0-0.9,0-1.3,0.1c0.5,0,1,0,1.4,0
		c0,0.5,0,1-0.2,1.4c-0.5,0-1.1-0.1-1.6-0.2C59,54.7,59,53.8,59,53z"/>
	<path fill="#353C46" d="M67.7,53.3c0.3,0,0.6-0.1,0.8-0.1c0.7,0.4,1.3,0.9,1.7,1.6c1,1.9,1.7,4.2,1,6.4c-0.5,1.6-1.5,3.1-3,3.9
		c-0.8,0.3-1.6,0.5-2.4,0.7c-3.4,0.7-6.8,1.8-10.2,2.4c-1.5,0.3-2.9,0.6-4.4,1c-0.7,0.2-1.5,0.4-2.2,0.2c-0.9-0.1-1.6-0.7-2.2-1.2
		c-0.1,0-0.3,0.1-0.4,0.2c0.1-0.8-0.4-1.5-0.6-2.2c-0.4-1.3-0.3-2.7-0.2-4.1c0.2-2.4,1.9-4.5,4.1-5.5c0-0.1,0.1-0.2,0.1-0.3
		c0-0.1,0.1-0.2,0.1-0.3c1.1,0.2,2.3-0.1,3.4-0.3l0-0.3c-0.3,0-0.7,0-1,0c0.4-0.1,0.8-0.1,1.2-0.2c0.1,0.5,0.7,0.4,1,0.1
		c-0.3-0.1-0.5-0.1-0.8-0.2c-0.4-0.6-1.1-1-1.3-1.7l0.2,0c0.3,0.4,0.6,0.8,0.9,1.1l-0.1-0.3c0.4,0.4,0.8,0.9,1.4,1
		c0.7,0.2,1.6-0.2,1.7-1c0.3,0.2,0.6,0.3,0.9,0.2c-0.3,0.1-0.6,0.3-0.8,0.4c0.7,0,1.4-0.2,2.1-0.3c0,0.2,0,0.5-0.1,0.7
		c-3,0.7-6.1,0.9-8.9,2.1c-0.7,0.3-1.2,0.7-1.8,1.3c0,0.2,0,0.3,0,0.5c-0.1,0-0.3,0.1-0.4,0.1c-0.9,1.6-1.3,3.4-1.2,5.1
		c0.1,0.1,0.4,0.2,0.6,0.3c0-0.3,0-0.7,0-1c0,0.4,0.1,0.7,0.1,1.1c-0.2,0-0.6,0-0.8,0c0.1,1.2,0.5,2.7,1.8,3.1
		c-0.5-0.7-1-1.3-1.3-2.1c0.2,0.2,0.4,0.4,0.6,0.6l0-0.4c0.1,0.2,0.3,0.4,0.4,0.6l-0.4,0.1c0.6,0.6,1.2,1.3,1.9,1.9
		c1.8,0.1,3.6-0.6,5.3-0.9c2.4-0.4,4.7-1.2,7.1-1.8c1.5-0.4,3-0.7,4.5-1.1c0.7-0.2,1.2-0.8,1.8-1.1c0.8-0.5,1.2-1.3,1.9-1.9
		c-0.1,1-1,1.7-1.7,2.4c2.1-1.2,2.5-3.8,2.3-6c-0.2-1.4-0.8-3.1-2.2-3.8c-2.2-0.2-4.3,0.4-6.4,0.7c0-0.2,0-0.5,0-0.7
		C63.9,54.2,65.8,54,67.7,53.3z"/>
	<path fill="#4E5762" d="M31.5,54.4c0,0,0.1,0.1,0.1,0.1c-0.1,0.1-0.2,0.4-0.3,0.5c2.4,0.4,4.8,0.5,7.2,0.8
		c-0.3,0.2-0.6,0.5-0.8,0.7c-2.5-0.1-5-0.4-7.4-1c0.3-0.2,0.5-0.4,0.8-0.6c0-0.1-0.1-0.2-0.1-0.3C31.1,54.6,31.4,54.5,31.5,54.4z"/>
	<path fill="#9CA9B9" d="M61.2,54.3c0,0.4,0.1,0.7,0.2,1.1c0.3,0,0.6-0.1,1-0.1c-0.1,0.4-0.2,0.9-0.3,1.3c-0.3,0.6-1.3,0.6-1.2,1.3
		c-0.1,0.9,0.3,1.9-0.4,2.7c-1.2,0.7-2.7,0.8-3.9,0.4c-0.3-0.9-0.2-1.9-0.5-2.8c-0.1,0-0.4-0.1-0.5-0.2c0-0.1,0-0.2,0-0.3
		c0.3-0.3,0.4-0.6,0.2-0.9l-0.1-0.2c0.5-0.1,1.1-0.2,1.6-0.3c-0.5,0.6-0.8,1.8,0,2.3c1.3,0.1,2.9-0.4,3.5-1.7c0.3,0,0.6,0,0.9,0
		c0-0.3,0.1-0.6,0.1-0.8c-0.2,0.3-0.3,0.7-0.7,0.7C61.1,55.8,61.4,55.1,61.2,54.3z"/>
	<path fill="#030303" d="M27.1,60.8c0.3-2.5,1.7-5,3.9-6.2c0,0.1,0.1,0.2,0.1,0.3c-0.3,0.2-0.5,0.4-0.8,0.6
		c-0.2,0.2-0.4,0.4-0.7,0.6c-0.2,0.3-0.4,0.6-0.6,0.9c-0.1,0.1-0.2,0.4-0.3,0.5c-0.3,0.6-0.5,1.3-0.6,2c-0.1-0.3-0.2-0.6-0.3-0.8
		c-0.3,1.2-0.6,2.4-0.6,3.7c0,0.9,0.5,1.8,0.4,2.8C27,63.9,27,62.3,27.1,60.8z"/>
	<path fill="#808995" d="M31.6,54.5c2.5,0.3,5,0.7,7.6,0.8c-0.1,0.1-0.2,0.2-0.2,0.3c-0.1,0-0.3,0.1-0.4,0.2
		c-2.4-0.2-4.8-0.4-7.2-0.8C31.4,54.9,31.6,54.7,31.6,54.5z"/>
	<path fill="#23272B" d="M67.9,54.6c0.2-0.2,0.8,0,0.7,0.3C68.4,55.1,67.8,54.9,67.9,54.6z"/>
	<path fill="#6B6C6E" d="M65,55c1.1-0.1,2.3-0.3,3.2,0.3c1.2,0.7,1.8,2.2,1.7,3.5c0.2,2.7-2.1,5.4-4.8,5.6c-1.6,0.1-3.3-1-3.7-2.5
		C60.6,59.2,62.1,55.6,65,55z"/>
	<path fill="#343B45" d="M39.2,55.3c0.6,0,1.2,0.1,1.8,0.3c-0.2,0.1-0.3,0.3-0.5,0.5l0.1-0.3c-0.5,0.3-1,0.6-1.3,1.1
		c-1.8,2.1-2.7,5-2.2,7.7c0.2,1.1,0.8,2.3,1.8,2.8c-0.4,0-0.8,0-1.3,0c0.2-0.1,0.3-0.2,0.5-0.4c-0.5-0.1-1.3,0.1-1.6-0.5
		c-0.9-1.4-1-3-0.9-4.6c0-1.5,0.6-3,1.4-4.3c0.5-0.8,1.3-1.3,1.9-2C39,55.5,39.1,55.4,39.2,55.3z"/>
	<path fill="#818B97" d="M29.7,56.1c0.2-0.2,0.4-0.4,0.7-0.6c2.4,0.7,4.9,0.9,7.4,1c-0.3,0.2-0.5,0.5-0.7,0.7
		C34.6,56.7,32.1,56.6,29.7,56.1z"/>
	<path fill="#7E8894" d="M41,55.7c1.2-0.3,2.5,0.1,3.7,0.1c1.7,0.2,3.4,0.2,5.1,0.4c0,0.1-0.1,0.2-0.1,0.3c-0.1,0.1-0.4,0.2-0.5,0.2
		c-1.8-0.1-3.6-0.4-5.4-0.5C42.9,56,41.9,56.1,41,55.7z"/>
	<path fill="#030303" d="M53.5,55.5l0.2,0c0.3,0,0.5,0.1,0.8,0.2C54.2,55.8,53.5,55.9,53.5,55.5z"/>
	<path fill="#DFE3E8" d="M72,56.1c0.6-0.5,1.3-0.6,2.1-0.6C73.5,56,72.7,56.2,72,56.1z"/>
	<path fill="#4E5762" d="M41,55.7L41,55.7c0.9,0.5,1.9,0.4,2.8,0.5c1.8,0.1,3.6,0.4,5.4,0.5c-0.5,0.2-1,0.5-1.4,0.9
		c-0.9-0.5-2-0.4-3-0.5c-1.6-0.2-3.1-0.2-4.7-0.5c0.2-0.1,0.3-0.3,0.5-0.4C40.7,56,40.8,55.8,41,55.7z"/>
	<path fill="#667384" d="M58.4,56.2c0.2-0.2,0.4-0.4,0.5-0.6c0.6,0.2,1.2,0.2,1.7,0.2c-0.3,0.5-0.4,1-0.8,1.4
		c-0.3,0-0.6-0.1-0.9-0.1c0.2,0.1,0.5,0.2,0.7,0.3c-0.5,0.3-0.9,0.5-1.4,0.8c-0.6,0-1.4-0.2-1.2-0.9C57,56.5,57.8,56.3,58.4,56.2z"
		/>
	<path fill="#030303" d="M65.5,56.1c0.9-0.4,2.1,0.1,2.6,0.9c1,1.5,0.7,3.7-0.4,5c-0.9,1.1-2.6,1.6-3.8,0.8
		c-0.9-0.7-1.1-1.8-1.1-2.9C62.7,58.2,63.9,56.6,65.5,56.1z"/>
	<path fill="#4F5863" d="M29.1,57c0.2-0.3,0.4-0.6,0.6-0.9c2.4,0.5,4.9,0.6,7.3,1.1c-0.3,0.4-0.6,0.9-0.9,1.3c0-0.1,0-0.3,0-0.4
		C33.8,57.7,31.4,57.6,29.1,57z"/>
	<path fill="#B6B8B9" d="M64.3,57.2c0.7-1.1,2.6-1.5,3.4-0.3c1.1,1.5,0.6,3.5-0.3,5c-0.4-0.3-0.4-0.8-0.6-1.1
		C66.1,59.5,65.3,58.2,64.3,57.2z"/>
	<path fill="#7F8995" d="M39.2,57.4c0.2-0.3,0.5-0.5,0.8-0.8c1.5,0.2,3.1,0.3,4.7,0.5c1,0.1,2.1,0,3,0.5c-0.3,0.2-0.5,0.4-0.8,0.6
		C44.4,57.9,41.8,57.9,39.2,57.4z"/>
	<path fill="#929EAF" d="M53.6,56.8c0.7-0.1,1.4-0.1,2.1-0.1c0.3,0.4,0.1,0.7-0.2,0.9c0,0.1,0,0.2,0,0.3c-0.5-0.1-1-0.2-1.4-0.3
		c0-0.2,0-0.6,0-0.8C53.9,56.9,53.7,56.8,53.6,56.8z"/>
	<path fill="#3C444E" d="M58.5,56.7C58.7,56.8,58.7,56.8,58.5,56.7z"/>
	<path fill="#D0D5DE" d="M73.6,57.3c0.8-0.2,1.7-0.6,2.5-0.5c-1.1,0.6-2.4,1-3.7,1.1C72.7,57.5,73.1,57.4,73.6,57.3z"/>
	<path fill="#808A96" d="M29.1,57c2.3,0.6,4.7,0.7,7,1.1c0,0.1,0,0.3,0,0.4c0,0.1-0.1,0.2-0.2,0.3c-2.1-0.3-4.3-0.5-6.4-0.9
		c-0.3,0-0.6-0.2-0.7-0.5C28.9,57.4,29,57.1,29.1,57z"/>
	<path fill="#4F5863" d="M38.6,58.4c0.2-0.4,0.4-0.7,0.6-1.1c2.5,0.6,5.1,0.5,7.7,0.8c-0.3,0.3-0.6,0.6-0.8,1
		C43.6,59,41.1,58.9,38.6,58.4z"/>
	<path fill="#505964" d="M28.2,59.5c0.1-0.7,0.3-1.4,0.6-2c0.1,0.3,0.4,0.5,0.7,0.5c2.1,0.3,4.3,0.5,6.4,0.9
		c-0.2,0.4-0.3,0.8-0.5,1.2c-0.8-0.4-1.8-0.4-2.7-0.5c-1.3-0.1-2.5-0.4-3.8-0.6C28.6,58.9,28.4,59.3,28.2,59.5z"/>
	<path fill="#6B6C6E" d="M47.9,60c1-1.9,3.7-3,5.7-2c1.4,0.7,2,2.3,2.1,3.8c0.2,2.6-1.3,5.2-3.8,6.1c-1.4,0.5-3.1,0.1-4.1-1.1
		c-0.1-0.2-0.3-0.4-0.4-0.6c-0.1-0.4-0.3-0.8-0.4-1.1C47,64.6,47,64.2,47,63.9C46.9,62.5,47.2,61.1,47.9,60z"/>
	<path fill="#B6B8B9" d="M63,59.9c0-1,0.4-1.9,1-2.7c1.2,1.5,2.4,3.1,3,4.9c-0.8,0.6-1.9,0.8-2.8,0.5C63.3,62.1,63.1,60.9,63,59.9z"
		/>
	<path fill="#D2D7DF" d="M74.2,58c1.5,0.2,3,0.5,4.5,0.8c0.8,0.2,1.7,0.2,2.4,0.6c-1,0.1-2-0.1-3-0.3c-1.3-0.3-2.6-0.5-3.8-0.9
		C74.3,58.2,74.2,58.1,74.2,58z"/>
	<path fill="#050505" d="M36.7,60.1c0.2-0.6,0.5-1.3,1-1.8c-0.4,1.1-0.9,2.1-1.1,3.2c-0.2,1-0.1,2.1-0.1,3.1
		C35.9,63.1,36.2,61.5,36.7,60.1z"/>
	<path fill="#828C98" d="M38.6,58.4c2.5,0.5,5,0.6,7.5,0.7c-0.1,0.2-0.2,0.4-0.4,0.5c-2.1-0.1-4.1-0.3-6.2-0.5
		c-0.4,0-0.8-0.1-1.2-0.3C38.5,58.8,38.6,58.5,38.6,58.4z"/>
	<path fill="#0E0F11" d="M27.9,58.7c0.1,0.3,0.3,0.6,0.3,0.8l0,0.2c0,0.3,0,0.6-0.1,0.9c0,0.4,0,0.7,0,1.1c0,0.4,0,0.7,0,1.1
		c0,0.1,0.1,0.3,0.1,0.4c0.1,0.6,0.3,1.2,0.6,1.7c0.3,0.7,1,0.9,1.6,1.3c-0.5,0.1-0.9,0.2-1.4,0.3c-0.6-0.2-0.9-0.8-1.3-1.2l0-0.1
		c0.1-1-0.4-1.8-0.4-2.8C27.3,61.1,27.6,59.9,27.9,58.7z"/>
	<path fill="#4F5863" d="M38,60.1c0.1-0.4,0.2-0.8,0.4-1.2c0.4,0.1,0.8,0.3,1.2,0.3c2.1,0.2,4.1,0.3,6.2,0.5c-0.3,0.5-0.5,1-0.8,1.6
		c0-0.1,0-0.4,0-0.5C42.7,60.4,40.3,60.5,38,60.1z"/>
	<path fill="#7F8995" d="M28.2,59.5c0.2-0.2,0.3-0.6,0.7-0.5c1.3,0.1,2.5,0.5,3.8,0.6c0.9,0.1,1.9,0,2.7,0.5c0,0.2-0.1,0.5-0.2,0.6
		c-2.3-0.2-4.7-0.5-7-0.9L28.2,59.5z"/>
	<path fill="#050505" d="M51.4,59.1c1.2-0.3,2.3,0.6,2.7,1.7c0.6,1.7,0.2,3.9-1.3,5c-0.8,0.7-2,1-3,0.5c-1.3-0.5-1.6-2.1-1.5-3.3
		C48.4,61.2,49.7,59.5,51.4,59.1z"/>
	<path fill="#9CA9B9" d="M72.5,59.1c1.4,0.2,2.8,0.6,4.2,0.9c1,0.2,2.1,0.3,3.1,0.5C77.3,60.6,74.8,59.8,72.5,59.1z"/>
	<path fill="#B6B8B9" d="M50,60.1c0.7-0.6,1.8-1.1,2.7-0.5c-0.5,2.3-1.5,4.5-3.2,6.3C48.1,64.3,48.3,61.4,50,60.1z"/>
	<path fill="#4F5863" d="M28.2,59.7c2.3,0.4,4.7,0.7,7,0.9c0,0.1-0.1,0.4-0.2,0.6c0,0.1-0.1,0.2-0.1,0.3c-2.3-0.1-4.6-0.4-6.8-1
		C28.2,60.3,28.2,60,28.2,59.7z"/>
	<path fill="#B6B8B9" d="M52.9,59.7c0.9,0.5,1.2,1.5,1.2,2.5c0.1,1.6-0.7,3.3-2.3,3.9c-0.6,0.3-1.3,0.1-1.9,0
		C51.3,64.2,52.6,62.1,52.9,59.7z"/>
	<path fill="#7F8995" d="M38,60.1c2.3,0.3,4.7,0.3,7,0.6c0,0.1,0,0.4,0,0.5c0,0.1-0.1,0.3-0.1,0.5c-2.3-0.5-4.7-0.5-7-0.9
		C37.9,60.6,37.9,60.4,38,60.1z"/>
	<path fill="#7F8995" d="M28.2,60.6c2.2,0.6,4.5,0.8,6.8,1c0-0.1,0.1-0.2,0.1-0.3c-0.2,1-0.3,1.9-0.1,2.9c0,0.1,0,0.3,0,0.4
		c-2.1-0.1-4.2-0.6-6.3-0.8c-0.1-0.2-0.2-0.4-0.3-0.6c0-0.1-0.1-0.3-0.1-0.4c2.2,0.3,4.4,0.7,6.6,0.9c0-0.4,0-0.7,0-1.1
		c-2.2-0.4-4.4-0.5-6.6-0.9C28.1,61.3,28.1,61,28.2,60.6z"/>
	<path fill="#D2D7DF" d="M72.6,60.5c1,0,2,0.3,3,0.5c0.5,0.1,1,0.2,1.4,0.6c-1.4-0.1-2.8-0.4-4.1-0.8C72.8,60.8,72.7,60.6,72.6,60.5
		z"/>
	<path fill="#505964" d="M37.8,60.9c2.3,0.4,4.7,0.4,7,0.9c-0.2,1.1-0.3,2.2-0.3,3.3c-2.2-0.2-4.3-0.6-6.5-0.8
		c0,0.1-0.1,0.3-0.1,0.4c-0.1-0.5-0.2-1.1-0.2-1.6c2.3,0.3,4.5,0.6,6.8,0.9c0-0.5,0-0.9,0.1-1.4c-2.3-0.2-4.6-0.5-6.8-0.6
		C37.8,61.6,37.8,61.2,37.8,60.9z"/>
	<path fill="#4E5054" d="M60.3,61.2c0.2-0.1,0.3-0.2,0.5-0.4c0.1,0.4,0.2,0.8,0.3,1.2l-0.4-0.4c0,0.1,0.1,0.4,0.1,0.6
		c0.8,0.7,0.7,2,0,2.8c-0.9,1.1-2.8,1.7-3.9,0.6c-0.9-1.1-0.5-2.7,0.3-3.7c-0.3,0.2-0.6,0.5-0.9,0.7c0-0.4,0-0.9,0-1.3
		c0.4,0.2,0.8,0.3,1.1,0.5c0.9,0,1.7-0.3,2.6-0.2l0.3,0.3c0.1-0.1,0.3-0.3,0.4-0.4L60.3,61.2z"/>
	<path fill="#9CA9B9" d="M77.6,62c1.4-0.3,2.8-0.9,4.2-1.1c-3.4,1.1-6.9,2.2-10.4,3C73.3,63,75.5,62.6,77.6,62z"/>
	<path fill="#4F5863" d="M28.1,61.7c2.2,0.3,4.4,0.5,6.6,0.9c0,0.4,0,0.7,0,1.1c-2.2-0.1-4.4-0.6-6.6-0.9
		C28.2,62.4,28.2,62.1,28.1,61.7z"/>
	<path fill="#7E8894" d="M37.7,61.9c2.3,0.2,4.6,0.5,6.8,0.6c0,0.5,0,0.9-0.1,1.4c-2.3-0.3-4.5-0.6-6.8-0.9
		C37.7,62.6,37.7,62.3,37.7,61.9z"/>
	<path fill="#D7DBE2" d="M71.9,61.8c0.8,0.1,1.8,0.1,2.4,0.7C73.6,62.4,72.5,62.5,71.9,61.8z"/>
	<path fill="#0E0F11" d="M57.5,65c-1-0.8-0.3-2.5,0.8-2.8l-0.1,0.1c-0.7,0.5-1.3,1.4-0.8,2.3c0.7,1.2,2.6,0.4,2.7-0.9
		c0.1-0.6-0.2-1.1-0.6-1.5l-0.1-0.1c0.6,0.2,0.9,0.8,0.8,1.3C60.4,64.8,58.5,65.9,57.5,65z"/>
	<path fill="#6F7175" d="M58.1,62.3c0.5-0.1,0.9-0.1,1.4,0c0.4,0.4,0.7,0.9,0.6,1.5c-0.1,1.2-2,2-2.7,0.9
		C56.9,63.7,57.4,62.8,58.1,62.3z"/>
	<path fill="#505964" d="M28.3,63.2c0.1,0.2,0.2,0.4,0.3,0.6c2.1,0.2,4.2,0.6,6.3,0.8c0-0.1,0-0.3,0-0.4c0.1,0.5,0.2,1,0.3,1.5
		c-1.1-0.1-2.2-0.2-3.2-0.4c-1.1-0.1-2.1-0.4-3.2-0.3C28.6,64.4,28.4,63.8,28.3,63.2z"/>
	<path fill="#7F8995" d="M38.1,64.2c2.2,0.2,4.3,0.6,6.5,0.8c0,0.3,0,0.6,0.1,0.9c-1.2-0.2-2.5-0.4-3.7-0.6c-1-0.2-2-0.2-2.9-0.5
		L38,64.6C38,64.5,38,64.3,38.1,64.2z"/>
	<path fill="#03030E" d="M67.9,64.2C68,64.3,68,64.3,67.9,64.2z"/>
	<path fill="#4E5762" d="M60.8,65.7c0.2-0.4,0.5-0.8,0.7-1.2c0.8,0.1,1.6,0.2,2.5,0.2c-0.1,0.2-0.2,0.4-0.5,0.4
		c-0.7,0.1-1.3,0.1-2,0c0.1,0.1,0.4,0.2,0.5,0.2C61.7,65.5,61.3,65.6,60.8,65.7z"/>
	<path fill="#7F8995" d="M28.8,64.9c1.1-0.1,2.2,0.2,3.2,0.3c1.1,0.1,2.2,0.3,3.2,0.4c0.2,0.4,0.3,0.8,0.5,1.1
		c-1.8,0.1-3.6-0.6-5.4-0.5C29.8,65.9,29.1,65.6,28.8,64.9z"/>
	<path fill="#505964" d="M38,64.9c0.9,0.4,1.9,0.4,2.9,0.5c1.2,0.2,2.4,0.4,3.7,0.6c0.1,0.3,0.2,0.7,0.3,1c-2-0.2-4-0.5-6-0.8
		c0,0.1,0,0.3,0,0.4C38.5,66,38.3,65.5,38,64.9z"/>
	<path fill="#0C0D0F" d="M46.3,64.9c0.2,0,0.6,0,0.8,0c0.1,0.4,0.2,0.8,0.4,1.1l0,0.4c-0.2-0.2-0.4-0.4-0.6-0.6
		c0.2,0.8,0.8,1.4,1.3,2.1C46.8,67.6,46.5,66.1,46.3,64.9z"/>
	<path fill="#7F8995" d="M38.9,66.1c2,0.3,4,0.6,6,0.8l0,0.1c0,0.2,0.1,0.5,0.1,0.7c-1.8-0.1-3.7-0.5-5.5-0.5
		c-0.2-0.2-0.4-0.4-0.6-0.7C38.9,66.5,38.9,66.2,38.9,66.1z"/>
	<path fill="#4C555E" d="M53.6,67.5c0.5-0.5,0.9-0.9,1.3-1.4c0.8,0.1,1.7,0.2,2.5,0.4c-0.1,0.2-0.3,0.3-0.5,0.3
		C55.8,67,54.7,67.3,53.6,67.5z"/>
	<path fill="#515A64" d="M44.9,67.1c0.3,0.7,0.6,1.3,1,1.9c-0.7-0.2-1.4-0.5-2.2-0.4c-1.4-0.7-3.1-0.2-4.3-1.3
		c1.9,0,3.7,0.4,5.5,0.5C45,67.6,45,67.3,44.9,67.1z"/>
</g>
<g>
</g>
<g>
</g>
<g>
</g>
<g>
</g>
<g>
</g>
<g>
</g>
<g>
</g>
<g>
</g>
<g>
</g>
<g>
</g>
<g>
</g>
<g>
</g>
<g>
</g>
<g>
</g>
<g>
</g>
</svg>
