<?xml version="1.0" encoding="utf-8"?>
<!-- Generator: Adobe Illustrator 19.2.1, SVG Export Plug-In . SVG Version: 6.00 Build 0)  -->
<svg version="1.1" id="Layer_1" xmlns="http://www.w3.org/2000/svg" xmlns:xlink="http://www.w3.org/1999/xlink" x="0px" y="0px"
	 viewBox="0 0 100 100" style="enable-background:new 0 0 100 100;" xml:space="preserve">
<style type="text/css">
	.st0{fill:none;}
	.st1{fill:#181F7A;}
	.st2{fill:#D9F6FE;}
	.st3{fill:#F3FCFE;}
	.st4{fill:#7484FE;}
	.st5{fill:#D7E0FF;}
	.st6{fill:#D4DDFF;}
	.st7{fill:#E6ECFE;}
	.st8{fill:#030328;}
	.st9{fill:#99B0FE;}
	.st10{fill:#73ABFF;}
	.st11{fill:#D9E2FE;}
	.st12{fill:#7382FE;}
	.st13{fill:#F3F6FE;}
	.st14{fill:#D4D9FE;}
	.st15{fill:#F7F9FE;}
	.st16{fill:#73ABFE;}
	.st17{fill:#0E0C43;}
	.st18{fill:#0E1749;}
	.st19{fill:#1A214E;}
	.st20{fill:#040404;}
	.st21{fill:#FFFFFF;}
	.st22{fill:#D1E3FE;}
	.st23{fill:#030348;}
	.st24{fill:#9EA6A9;}
	.st25{fill:#050505;}
	.st26{fill:#798082;}
	.st27{fill:#474F52;}
	.st28{fill:#2C3336;}
	.st29{fill:#039AD9;}
	.st30{fill:#C9E7EA;}
	.st31{fill:#293132;}
	.st32{fill:#7D8689;}
	.st33{fill:#4D535C;}
	.st34{fill:#4B515A;}
	.st35{fill:#7A8386;}
	.st36{fill:#040A0B;}
	.st37{fill:#1F2426;}
	.st38{fill:#090D0E;}
	.st39{fill:#FEFEFE;}
	.st40{fill:#616B70;}
	.st41{fill:#35393F;}
	.st42{fill:#4A5059;}
	.st43{fill:#61808B;}
	.st44{fill:#454D50;}
	.st45{fill:#AADCE0;}
	.st46{fill:#667384;}
	.st47{fill:#0D1213;}
	.st48{fill:#9FA5AC;}
	.st49{fill:#91BDC0;}
	.st50{fill:#3E4344;}
	.st51{fill:#474D4F;}
	.st52{fill:#030407;}
	.st53{fill:#495155;}
	.st54{fill:#9BA8B8;}
	.st55{fill:#677485;}
	.st56{fill:#030303;}
	.st57{fill:#F3E7C0;}
	.st58{fill:#C1D4EA;}
	.st59{fill:#CA514B;}
	.st60{fill:#9F4A45;}
	.st61{fill:#838079;}
	.st62{fill:#4F5967;}
	.st63{fill:#626C71;}
	.st64{fill:#BAB09B;}
	.st65{fill:#717377;}
	.st66{fill:#CDD3D7;}
	.st67{fill:#D72F30;}
	.st68{fill:#85827B;}
	.st69{fill:#CED3D9;}
	.st70{fill:#BE524D;}
	.st71{fill:#4C555E;}
	.st72{fill:#687486;}
	.st73{fill:#353C46;}
	.st74{fill:#4E5762;}
	.st75{fill:#9CA9B9;}
	.st76{fill:#808995;}
	.st77{fill:#23272B;}
	.st78{fill:#6B6C6E;}
	.st79{fill:#343B45;}
	.st80{fill:#818B97;}
	.st81{fill:#7E8894;}
	.st82{fill:#DFE3E8;}
	.st83{fill:#4F5863;}
	.st84{fill:#B6B8B9;}
	.st85{fill:#7F8995;}
	.st86{fill:#929EAF;}
	.st87{fill:#3C444E;}
	.st88{fill:#D0D5DE;}
	.st89{fill:#808A96;}
	.st90{fill:#505964;}
	.st91{fill:#D2D7DF;}
	.st92{fill:#828C98;}
	.st93{fill:#0E0F11;}
	.st94{fill:#4E5054;}
	.st95{fill:#D7DBE2;}
	.st96{fill:#6F7175;}
	.st97{fill:#03030E;}
	.st98{fill:#0C0D0F;}
	.st99{fill:#515A64;}
</style>
<g>
	<line class="st0" x1="0.1" y1="100" x2="0.1" y2="76"/>
	<line class="st0" x1="100.1" y1="76" x2="100.1" y2="100"/>
</g>
<g>
	<path class="st1" d="M34.4,3.4c5.2-2,11-2.4,16.4-1.1c5.1,1.3,9.8,4.1,13.3,7.8c6.4,6.5,8.9,16.4,6.7,25.2l0,0
		c-1.1,4.7-3.5,9.2-7.1,12.6c-0.3-0.4-0.6-0.6-1-0.6c4.1-4,6.8-9.3,7.6-15c0.8-5.4-0.3-11-2.8-15.9C64,10,57.6,4.9,50.2,3.3
		c-5-1.3-10.2-0.7-15,1c-6.1,2.3-11.2,7.1-14,12.9c-4.2,8.4-3.4,19.1,2.3,26.8c1.3,2,3.1,3.5,4.7,5.1c-1-0.3-1.8-0.4-2.8-0.7
		c-0.1-0.3-0.3-0.6-0.6-0.8c-7.5-7.4-9.5-19.4-5.5-29C22.1,11.7,27.6,6.1,34.4,3.4z"/>
	<path class="st2" d="M35.2,4.3c4.8-1.8,10.1-2.3,15.1-1c7.4,1.6,13.7,6.7,17.3,13.2c2.5,4.8,3.7,10.5,2.8,15.9
		c-0.7,5.7-3.5,11-7.6,15c-1,0.6-2.1,1-3.3,1.3c2.8-2.4,5.5-5.2,7.1-8.6c3.7-7.2,3.5-16.3-0.6-23.2c-1-1.7-3.1-1.1-4.7-1.3
		c0-1.4-0.3-2.8-1.3-3.8c-0.4-0.4-1-0.3-1.4,0c-1.4,0.8-2.3,2.4-2.5,4c-0.8-0.8-1.7-1.7-2.8-1.8c-1.3-0.3-3.1-0.3-3.5,1.1
		c-0.8,0.3-1.8,0.4-2.7,0.4c-0.4-0.4-0.7-1.3-1.4-1.4c-0.6,0.3-0.8,0.8-1.3,1.3c-0.4-1-0.3-3-1.8-2.8c-0.8,0-1,0.8-1.3,1.6
		c-0.8-1-2.3-2.4-3.7-1.6c-0.8,0.6-0.3,1.7-0.1,2.4c-1.8,0.1-3.5-0.3-5.4-0.7c1.3-0.3,2-1.4,3-2.3c0.8-0.8,2.1-1.8,1.8-3.3
		c-0.1-1-1.1-1.3-1.8-1.3C33.5,7.1,32,8,30.9,9c-1.8,1.6-3.3,3.5-4.5,5.5c-0.3,0.1-0.6,0.1-0.8,0.3c-0.8,0.4-1.7,0.8-2.3,1.7
		c-2.3,3.8-3.5,8.4-3.4,12.9c0,6.4,2.7,12.7,7.2,17.3c1.3,1.3,2.7,2.4,4.1,3.5c-1-0.1-2-0.4-3-0.8c-1.7-1.7-3.4-3.3-4.7-5.1
		C17.8,36.6,17,26,21.2,17.5C24.1,11.4,29.2,6.7,35.2,4.3z"/>
	<path class="st3" d="M30.7,8.8C32,7.8,33.4,7,35,7.1c0.8,0,1.8,0.4,1.8,1.3c0.3,1.4-1,2.4-1.8,3.3c-1,0.8-1.7,2-3,2.3
		c-2-0.1-4,0-5.9,0.4C27.5,12.4,28.9,10.4,30.7,8.8z"/>
	<path class="st4" d="M41.8,10.1c-0.4-0.6-0.6-1.4,0.1-1.7c0.8-0.1,1.4,0.4,2,1c0.7,1,1.1,2.1,1.3,3.3C44,11.9,42.6,11.2,41.8,10.1z
		"/>
	<path class="st5" d="M41.9,8.7c1.6,0,2.4,1.7,2.7,3.1C43.5,11.1,41.9,10.2,41.9,8.7z"/>
	<path class="st6" d="M47.4,10.9c0.1-1,1-2,2.1-1.7c0.1,1-0.3,2.3-1.4,2.5C47.6,12.1,47.1,11.5,47.4,10.9z"/>
	<path class="st4" d="M48.8,14.3c0.8-2,2.3-4,4.4-4.8c0.6-0.1,0.8,0.1,0.7,0.7c-0.6,1.3-2,1.8-3.1,2.4C50,12.9,49.4,13.8,48.8,14.3z
		"/>
	<path class="st7" d="M50.5,12.2c0.7-1.1,1.8-2.1,3.3-2.3C53.2,11.4,51.7,11.8,50.5,12.2z"/>
	<path class="st8" d="M56.1,15.6c0.1-1.6,1-3.3,2.5-4c0.4-0.3,1-0.4,1.4,0c1,1,1.3,2.4,1.3,3.8c0,0.1,0,0.4,0,0.7
		c-0.1,0.6-0.3,1-0.6,1.4c-0.3-0.1-0.6-0.3-0.8-0.4c0.6-1.4,0.7-3.1-0.1-4.5c-0.3-0.7-1.1-0.4-1.6,0c-0.8,1-1.7,2.4-1.6,3.8
		c-1.4-1.6-3.5-2.1-5.7-2c-0.8,1.1,0,2.4,0.7,3.5c-1-0.3-1.4-1.4-1.7-2.3c0-0.1,0-0.6,0-0.8c0.4-1.4,2.3-1.4,3.4-1.1
		C54.5,14.1,55.3,14.9,56.1,15.6z"/>
	<path class="st9" d="M37.6,12.2c1.4-0.8,2.8,0.6,3.7,1.6c0.3-0.6,0.4-1.6,1.3-1.6c1.6-0.1,1.4,1.8,1.8,2.8c0.4-0.4,0.7-1,1.3-1.3
		c0.7,0,1,0.8,1.4,1.4c1,0,1.8-0.1,2.7-0.4c0,0.1,0,0.6,0,0.8c-0.8,0.3-2,0.7-2.8,0.3c-0.6-0.4-0.8-1-1.3-1.6
		c-0.4,0.6-1,1.8-1.8,1.3c-0.7-0.8-0.1-2.7-1.7-2.7c0,0.8,0.1,1.7,0.1,2.5c-1-0.6-1.8-1.6-2.7-2.3c-0.6-0.6-1.4-0.8-2-0.3
		c-0.1,0.7,0.3,1.3,0.4,1.8c-0.6,0.3-1.1,0.7-1.8,0.6c-1.6-0.1-3.1-0.3-4.7-0.3c0.1-0.4,0.3-0.7,0.4-1.1c1.7,0.4,3.5,1,5.4,0.7
		C37.2,13.9,36.7,12.8,37.6,12.2z"/>
	<path class="st10" d="M58,12.6c0.4-0.4,1.3-0.7,1.6,0c0.8,1.4,0.8,3.1,0.1,4.5c0.3,0.1,0.6,0.3,0.8,0.4l0.1,0.1
		c-2.8-1.4-6.2-1.1-9.1,0.3c-0.6-1-1.4-2.3-0.7-3.5c2-0.1,4.2,0.4,5.7,2C56.3,15.1,57.2,13.6,58,12.6z"/>
	<path class="st11" d="M37.6,12.9c0.6-0.6,1.6-0.3,2,0.3c0.8,0.8,1.7,1.7,2.7,2.3c0-0.8,0-1.7-0.1-2.5c1.4,0,1,1.8,1.7,2.7
		c1,0.4,1.4-0.7,1.8-1.3c0.4,0.6,0.7,1.3,1.3,1.6c1,0.4,2,0.1,2.8-0.3c0.4,0.8,0.7,2,1.7,2.3c2.8-1.4,6.2-1.7,9.1-0.3l0.1-0.1
		c0.1-0.4,0.4-1,0.6-1.4c1.3,0,2.7,0,4,0.4c0.3,0.1,0.7,0.4,0.6,0.8c-0.3,1.1-1.4,1.6-2.4,1.7c-3.3,0.3-6.4-2.3-9.6-1.1
		c-2.1,0.7-4.1,1.7-6.4,1.4c-2.3-0.1-4.1-1.8-6.1-2.8c-1.4-0.7-3-1.1-4.7-1c-2.3,0-4.4,1-6.7,1.6c0.6-0.7,1-1.4,1.3-2.1
		c-1.7-0.1-3.5,0-5.2,0.3c-0.1-0.4-0.3-0.7-0.7-0.7c0.3-0.1,0.6-0.1,0.8-0.3c2-0.4,4-0.6,5.9-0.4c-0.1,0.4-0.3,0.7-0.4,1.1
		c1.6,0,3.1,0.3,4.7,0.3c0.7,0,1.3-0.3,1.8-0.6C37.9,14.2,37.5,13.5,37.6,12.9z"/>
	<path class="st12" d="M23.1,16.3c0.4-0.8,1.4-1.3,2.3-1.7c0.4,0,0.7,0.3,0.7,0.7c-0.1,0-0.6,0.1-0.8,0.1c-0.6,0.1-1,0.3-1.4,0.6
		c0.1,0.7,1.6,1.1,0.7,2c-0.3-0.3-0.7-0.6-1-0.8c-3,5.4-3.8,12-2,18c2,6.8,7.1,12.6,13.6,15.4c-1.3-0.1-2.7-0.4-4-0.7
		c-1.4-1.1-2.8-2.1-4.1-3.5c-4.7-4.5-7.4-10.8-7.4-17.1C19.5,24.7,20.8,20.1,23.1,16.3z"/>
	<path class="st13" d="M26,15.3c1.7-0.3,3.5-0.4,5.2-0.3c-0.4,0.7-0.8,1.6-1.3,2.1c-0.1,0.1-0.3,0.3-0.3,0.3c-1.6,0-3.1,0.1-4.7-0.4
		c0.1-0.6,0.1-1.1,0.3-1.7C25.5,15.5,25.9,15.3,26,15.3z"/>
	<path class="st14" d="M23.8,16c0.4-0.3,1-0.4,1.4-0.6c-0.1,0.6-0.1,1.1-0.3,1.7c1.6,0.6,3.1,0.3,4.7,0.4c-0.1,0.3-0.1,0.7-0.1,1
		c-0.1,0-0.3,0.1-0.3,0.3c-1.6-0.1-3.1,0-4.5-0.7L24.5,18C25.3,17.2,23.8,16.8,23.8,16z"/>
	<path class="st4" d="M30,17.2c2.1-0.6,4.2-1.6,6.7-1.6c1.6-0.1,3.3,0.1,4.7,1c2,1,3.7,2.7,6.1,2.8c2.3,0.3,4.4-0.6,6.4-1.4
		c3.3-1.1,6.4,1.4,9.6,1.1c1-0.1,2.3-0.6,2.4-1.7c0.1-0.4-0.3-0.8-0.6-0.8c-1.3-0.4-2.5-0.4-4-0.4c0-0.1,0-0.4,0-0.7
		c1.6,0.1,3.8-0.4,4.7,1.3c4.1,6.9,4.2,16,0.6,23.2c-1.7,3.4-4.2,6.2-7.1,8.6c-1.1,0.3-2.3,0.6-3.4,0.8c4.2-2.4,7.8-6.1,9.8-10.6
		c3-6.2,3.1-13.9,0.1-20.1c-1.6,1.8-4.4,1.4-6.5,0.7c-0.1,0-0.6-0.1-0.7-0.3c-1.6-0.6-3.4-1-5-0.1c-0.1,0-0.4,0.1-0.6,0.1
		c-2.8,1.3-6.2,1.6-8.9,0c-2-1.1-3.8-2.5-6.1-2.7c-3.1-0.3-5.8,1.3-8.6,2c0-0.3,0.1-0.7,0.1-1C29.7,17.5,29.9,17.3,30,17.2z"/>
	<path class="st7" d="M29.4,18.6c2.8-0.7,5.7-2.3,8.6-2c2.3,0.1,4.2,1.7,6.1,2.7c2.7,1.6,6.1,1.1,8.9,0c0.8,0.8,1.6,1.7,2,2.8
		c-1.1,0.8-2.5,0.8-3.8,1c-4.1,0.4-8.2-0.3-12.2-0.4c-3,0-6.1,0-8.9,0.7c-1.6,0.4-3.4,0.8-4.4,2.3c-1.3,2-1.6,4.2-1.4,6.5
		c0.4,5.4,3,10.8,7.4,14c3.7,2.5,8.1,3.5,12.5,3.4c2.4,0.1,4.8-0.4,7.2-1.1c4.4-1.6,8.5-4.5,10.6-8.8c1.4-3,1.7-6.4,1.3-9.6
		c-0.3-2.4-1.1-4.8-2.7-6.7c-0.4-0.6-1-1.1-1.4-1.7c0-0.7,0.3-1.3,0.3-2c2.1,0.6,5,1.1,6.5-0.7c3.1,6.2,2.8,13.9-0.1,20.1
		c-2.1,4.4-5.7,8.1-9.8,10.6c-6.9,1.3-14,2-20.9,1.1c-6.5-2.8-11.6-8.6-13.6-15.4c-1.7-5.9-0.8-12.6,2-18c0.3,0.3,0.7,0.6,1,0.8
		l0.1,0.1c0,0.8-0.1,1.8,0.1,2.7c0.3,0.8,1.6,1,2.1,0.6c0.8-0.7,1.4-1.7,2.3-2.5C29.2,18.7,29.4,18.6,29.4,18.6z"/>
	<path class="st15" d="M24.6,18.2c1.4,0.6,3,0.6,4.5,0.7c-0.7,0.8-1.3,1.8-2.3,2.5c-0.7,0.6-1.8,0.3-2.1-0.6S24.6,19,24.6,18.2z"/>
	<path class="st16" d="M53.6,19c1.6-0.8,3.4-0.3,5,0.1c-0.3,0.8-0.8,1.7-0.4,2.7c0.8,1.1,2.1,2.1,2.7,3.4c0.8,2.1,1.4,4.4,1.6,6.7
		c-0.1,4.1-2.1,8.1-5.2,10.9c-1.6,1.7-3.7,2.5-5.7,3.7l0,0c-0.3,0-0.7,0.1-0.8,0.3c-2.1-0.1-4.5-0.4-6.2-2c-1.8-1.7-2.3-4.4-2.5-6.8
		c0-0.1,0-0.3,0-0.4c-4.7,1.8-10.1,2.5-14.9,0.8c-2-3.4-2.7-7.6-1.7-11.5c0.4-1.8,2.4-2.5,4.1-2.8c3-0.4,5.9-0.4,8.9-0.3
		c3.5,0,6.9,0.4,10.3,0.6c2-0.1,4-0.3,5.7-1.1c0.8-0.4,1.3-1.3,1-2.1C54.9,20.3,54.4,19.7,53.6,19z"/>
	<path class="st17" d="M53.2,19.3c0.1,0,0.4-0.1,0.6-0.1c0.6,0.6,1.3,1.3,1.6,2c0.3,0.8-0.3,1.8-1,2.1c-1.7,1-3.8,1-5.7,1.1
		c-3.4-0.1-6.9-0.6-10.3-0.6c-3-0.1-5.9-0.1-8.9,0.3c-1.7,0.3-3.7,1-4.1,2.8c-1,3.8-0.3,8.1,1.7,11.5c4.8,1.7,10.2,1,14.9-0.8
		c0,0.1,0,0.3,0,0.4c-4.7,1.8-10.1,2.7-14.9,0.6c2,4.1,6.1,6.9,10.5,8.4c4.2,1.3,8.9,1.4,13.2-0.1c0.3,0,0.7-0.1,0.8-0.3
		c-0.1,0.1-0.3,0.6-0.4,0.8c-1.7,0.8-3.7,0.8-5.7,1.1c-1.4,0.1-2.7,0.1-4.1-0.1c-0.7-0.1-1.4-0.3-2,0c1.4,0.3,3,0.4,4.4,0.6
		c0.1,0.1,0.3,0.4,0.4,0.6c-4.4,0.1-8.9-1-12.5-3.4c-4.4-3.3-6.9-8.6-7.4-14c-0.1-2.3,0.1-4.7,1.4-6.5c1.1-1.3,2.8-1.8,4.4-2.3
		c3-0.6,5.9-0.7,8.9-0.7c4.1,0,8.2,0.8,12.2,0.4c1.3-0.1,2.7-0.1,3.8-1C54.8,20.9,54.1,20,53.2,19.3z"/>
	<path class="st18" d="M58.6,19.3c0.1,0,0.6,0.1,0.7,0.3c-0.1,0.7-0.3,1.3-0.3,2c0.4,0.6,1,1.1,1.4,1.7c1.6,1.8,2.4,4.2,2.7,6.7
		c0.4,3.3,0.1,6.7-1.3,9.6c-2.1,4.2-6.2,7.2-10.6,8.8c0-0.1-0.1-0.3-0.1-0.4c0.4-0.3,0.8-0.4,1.4-0.7c-0.4-0.1-0.7-0.4-1.1-0.6
		c2-1.1,4.1-2,5.7-3.7c3.1-2.7,5.1-6.7,5.2-10.9c-0.1-2.3-0.7-4.5-1.6-6.7C60.2,24,59,23.1,58,22C57.7,21,58.3,20.1,58.6,19.3z"/>
	<path class="st19" d="M40.1,23.4c1.1-0.1,2.3-0.1,3.5,0C42.3,23.4,41.2,23.5,40.1,23.4z"/>
	<path class="st20" d="M46.4,30.8c2.7-0.7,5.7,2.4,4.1,5c-1,2.7-5.2,3.5-6.9,1C42.3,34.4,43.9,31.2,46.4,30.8z"/>
	<path class="st21" d="M45,31.8c1.7-1.1,4.2-0.8,5.2,1.1c0.7,1,0.3,2.3-0.4,3.3c-1.1,1.8-4.2,2.1-5.7,0.4c0.3,0,0.7,0,1,0
		c1.1-0.4,1.8-1.4,2-2.5C47,32.7,46.1,31.9,45,31.8z"/>
	<path class="st18" d="M70.8,35.3L70.8,35.3L70.8,35.3z"/>
	<path class="st22" d="M26.9,38.5c4.8,2,10.2,1.3,14.9-0.6c0.1,2.4,0.7,5,2.5,6.8c1.7,1.6,4.1,1.8,6.2,2c-4.2,1.6-8.9,1.4-13.2,0.1
		C33,45.5,29,42.7,26.9,38.5z"/>
	<path class="st23" d="M51.4,46.5L51.4,46.5c0.4,0.1,0.7,0.4,1.1,0.6c-0.4,0.3-0.8,0.4-1.4,0.7c0,0.1,0.1,0.3,0.1,0.4
		c-2.4,0.7-4.8,1.3-7.2,1.1c0,0-0.3-0.3-0.3-0.4c-1.4-0.1-3-0.3-4.4-0.6c0.7-0.3,1.3-0.1,2,0c1.4,0.1,2.7,0.1,4.1,0.1
		c1.8-0.1,3.8-0.3,5.7-1.1C51.1,47.2,51.4,46.8,51.4,46.5z"/>
	<path class="st24" d="M24.8,47.5c0.1,0.3,0.4,0.6,0.6,0.8v0.1c0,0.1,0.1,0.3,0.1,0.4c3.3,1.4,6.7,2.4,10.1,2.7
		c-0.3,1-0.3,1.8-0.3,2.7c-1.4-0.1-2.7-0.6-4.1-0.3H31c0,0,0-0.1,0-0.3c-0.8-0.1-1.7-0.3-2.5-0.4c-0.3-0.1-0.7,0-1,0.3
		c-0.7,0.8-1.3,2.4-0.3,3.3c1.3,1.3,3.4,1,5,2c0.6,0.3,0.6,1,0.7,1.4c-3.3-0.6-7.2-0.8-9.5-3.7c-0.6-1.7-0.1-3.5,0.1-5.4
		c0.3-1,0.3-2.1,1.3-2.5c-0.1-0.1-0.3-0.3-0.6-0.4l0,0C24.3,47.9,24.6,47.7,24.8,47.5z"/>
	<path class="st25" d="M59.4,48.6c1.1-0.3,2.3-0.7,3.3-1.3c0.4,0,0.7,0.1,1,0.6c0.1,0.4,0.3,0.8,0.4,1.4c1.3,0,2.7-0.1,3.8,0.7
		c1.1,1.3,1.1,3.4,0.1,4.8c-0.7,0.8-2,0.8-2.5,2c-0.1,1,0.3,2-0.1,3c-0.3,0.8-1.1,1.3-1.7,1.7l0.3,0.4c0.3,0.1,0.6,0.3,1,0.4
		c-0.1,0-0.4,0.1-0.6,0.1c0.3,0.6,0.6,1.1,0.8,1.7c0.6-0.1,1-0.3,1.6-0.4c-0.4,0.1-1,0.4-1.4,0.6c0.3,0.4,0.4,0.8,0.7,1.3
		c0.4-0.1,1-0.1,1.4-0.3c-0.4,0.1-0.7,0.3-1.1,0.3c-0.3,0.7-0.6,1.4-1,2c0.4,0.7,0.7,1.4,1.1,2c1.4-1,2.1-2.8,1.7-4.5
		c0-1.1-1.1-1.6-1.6-2.4c0.8,0.3,1.4,1,1.8,1.7c0.4,1.8,0.4,4-1.1,5.2c0.3,0.6,0.6,1.1,0.8,1.6c-1.7,2.4-5,2-7.4,2.7
		c-1,0.1-1.3,1.3-1.1,2.1c0.3,1.1-0.1,2.1-0.1,3.3c0.6,0,0.7-0.7,1-1c0,0.4-0.1,0.8-0.1,1.1c-0.4,0-0.8,0-1.3,0
		c-0.8,1.8-3,2.5-5,2.4c-1.1-0.7-0.7-2.4,0-3.3c-0.7,0.1-1.6,0.3-2.3,0.4l0.1,0.3c-1-0.1-2,0-3,0.1c0.3,0,0.4,0.1,0.7,0.1
		c0,0.3,0,0.8,0,1.1c0.7,0.1,1.4,0.3,2,0.4c0.1,0,0.6,0.1,0.7,0.3c0.4,1.3,0.3,2.7,0.7,4c1.8,0.7,4,0.4,5.5-0.6
		c0.8-1,0.4-2.5,0.6-3.8c-0.1-1,1.3-1,1.7-1.8c0.3-0.6,0.3-1.1,0.4-1.8c-0.4,0-0.8,0-1.4,0.1c0.8-0.8,0-2.7,1.4-3.1
		c3-0.7,5.9-1.1,8.9-1.4c-0.3-0.8-1.3-0.7-2-1c0.4-0.1,1-0.3,1.4-0.3c1.3,0.1,0.8,1.7,0.6,2.5c2.7,1,3.8,4,4.5,6.5
		c1,3.7-0.3,7.8-3.1,10.2c-0.8,0.7-2,0.8-3,1.3c-8.5,2.1-17,4.2-25.5,5.9c-0.8,0-1.7,0-2.5-0.1c-2.4-0.7-5.1-0.7-7.5-1.3
		c-1.8-0.4-4-0.1-5.4-1.7c-1.1,0-2.3,0.6-3.4,0.1c-2.3-0.3-4.5-0.8-6.8-1.1c-1.3-0.3-2.5-0.1-3.7-0.8c0.7-0.1,1.3-0.3,2-0.4
		c2.5-0.1,5.1,0.8,7.6,0.7c-0.3-0.6-0.6-1-0.7-1.6c-0.1-0.7-0.3-1.4-0.4-2.1c-0.3-1.4-0.1-2.8,0.1-4.1c0-0.1,0.1-0.6,0.3-0.8
		c0-0.3,0.1-0.7,0.3-0.8c0.1-0.6,0.4-1.1,0.7-1.7c0-0.1,0.1-0.3,0.3-0.4c0.4-0.7,0.8-1.3,1.3-1.8c0.3-0.4,0.7-0.7,1-1
		c0.4-0.3,0.7-0.7,1.1-1c0.1,0,0.4-0.1,0.6-0.3c-0.8,1.1-2,1.7-2.7,2.8c-1.1,1.8-2,4-2,6.1c-0.1,2.3,0,4.7,1.3,6.5
		c0.4,0.8,1.4,0.6,2.3,0.7c-0.3,0.1-0.4,0.3-0.7,0.6c0.6,0,1.1,0,1.8,0c-1.6-0.7-2.3-2.4-2.5-4c-0.8-3.8,0.6-7.9,3.1-10.9
		c0.6-0.7,1.1-1.1,1.8-1.6l-0.1,0.4c-0.3,0.3-0.4,0.4-0.7,0.6c-0.4,0.4-0.7,0.7-1.1,1.1c-0.3,0.4-0.6,1-0.8,1.6
		c-0.1,0.1-0.3,0.6-0.4,0.7c-0.3,0.6-0.4,1.1-0.6,1.7c-0.1,0.3-0.1,0.7-0.1,1c0,0.6-0.1,1-0.1,1.6c0,0.6,0,1,0,1.6
		c0,0.7,0.1,1.6,0.3,2.3l0.1,0.4c0.3,0.8,0.7,1.7,1.3,2.4c0.3,0.3,0.6,0.7,0.8,1c1.6,1.6,4.1,1,6.1,1.8c1.1-0.1,2.1,0.3,3.1,0.6
		c-0.6-0.8-1-1.8-1.4-2.7v-0.1c-0.1-0.4-0.3-1-0.4-1.4c0-0.4,0-0.8-0.1-1.3c0-1.6,0.1-3.1,0.4-4.7c0-0.1,0.1-0.4,0.1-0.7
		c0.3-0.7,0.7-1.6,1.1-2.3c0.1-0.3,0.3-0.6,0.6-0.7c0.4-0.4,0.7-1,1.1-1.4c0.4-0.3,0.7-0.6,1.1-0.8c0.7-0.4,1.3-1,2-1.3
		c0.1-0.1,0.6-0.3,0.7-0.3c0,0.1-0.1,0.3-0.1,0.4c-3.1,1.3-5.5,4.4-5.8,7.8c-0.1,2-0.1,4,0.3,5.8c0.3,1,1,2,0.8,3.1
		c0.1,0,0.4-0.1,0.6-0.3c1,0.7,2,1.6,3.1,1.7c1,0.3,2.1-0.1,3.1-0.3c2.1-0.6,4.1-1,6.2-1.4c4.8-1,9.6-2.4,14.4-3.4
		c1.1-0.3,2.3-0.4,3.4-1c2.1-1.1,3.5-3.3,4.2-5.5c1-3,0-6.2-1.4-9.1c-0.4-1-1.4-1.7-2.4-2.3c0-0.3,0-0.6,0-0.7
		c-2.8,0.4-5.5,0.8-8.4,1.3c-0.4,0-0.7,0.4-1,0.7c2.7-0.1,5.4-1,8.1-1.1c-2.5,1-5.4,1.3-8.1,1.4c0,0.3,0,0.7,0,1
		c3-0.4,6.1-1.1,9.1-1c1.8,1,2.8,3.4,3.1,5.4c0.3,3.1-0.4,6.9-3.3,8.5c0.8-1.1,2.1-2,2.4-3.4c-1,0.8-1.6,2-2.7,2.7
		c-0.8,0.6-1.6,1.4-2.5,1.6c-2.1,0.6-4.2,1-6.4,1.6c-3.4,0.8-6.7,2-10.1,2.5c-2.5,0.4-5,1.4-7.5,1.3c-1-0.8-1.8-1.7-2.7-2.7l0.6-0.1
		c1.4,1.7,3.7,2.4,5.8,1.6c3.4-1.3,5.7-5.1,5.4-8.6c-0.1-2.1-1-4.4-3-5.4c-2.8-1.4-6.7,0.1-8.1,2.8c-1,1.7-1.4,3.5-1.3,5.5
		c0,0.4,0,1,0,1.4c-0.1-0.1-0.6-0.3-0.8-0.4c-0.1-2.5,0.4-5.1,1.7-7.2c0.1,0,0.4-0.1,0.6-0.1c0-0.3,0-0.4,0-0.7
		c0.7-0.7,1.6-1.4,2.5-1.8c4-1.7,8.4-2,12.6-3c0-0.3,0-0.7,0.1-1c-1,0.1-2,0.3-3,0.4c0.4-0.3,0.7-0.4,1.1-0.6
		c0.6-0.1,1.3-0.3,1.8-0.3c0-2-0.4-4.4,1-6.1c2.1-2.5,6.4-1.3,8.5-3.8c-1-2.5-2.4-4.8-3.4-7.2c-1.3,0.3-2.5,0.6-3.8,0.8
		c-0.1,1.1,0,2.4-0.8,3.3c0,0.1,0.1,0.3,0.1,0.4c-1.6,2.1-4.2,2.5-6.7,2.7c0.1,1.1-0.1,2.4,0.3,3.4c1.1,0.7,2.5,1.1,3.3,2.4
		c0.4,1.3-0.1,2.7-1.4,3.4c0,0.1,0,0.4-0.1,0.6c0,1.1-1.4,1.7-2.4,1.4c-0.8-0.1-1.4-0.8-2-1.4c-0.6-1-0.8-2.3-0.1-3.3
		c-0.3-0.3-0.6-0.6-0.8-0.7c-0.1,1-0.1,2-0.1,3h-0.3c-0.1-1.3-0.1-2.7,0.7-3.7c0.8-1,2-1.7,3.1-2c0-1-0.1-2.1-0.1-3.1
		c-0.6,0-1.3,0-1.8-0.1c-1.7,2.5-3.1,5.4-4.7,8.1c-0.7,1.1-1,2.7-0.3,3.8c1,0.3,2-0.1,3-0.3c0.4,0,1,0,1.4,0v0.4
		c-1.6,0.1-3.3,0.7-4.8,0.4c-2.4-0.3-4.8-0.3-7.2-0.6c-1.7,0-3.5-0.6-5.2-0.1l0,0c-0.8-0.3-1.7-0.4-2.5-0.4
		c-3.5-0.1-7.1-0.7-10.8-1.1l-0.1-0.1l-0.3-0.4c0-1-0.7-2.5,0.4-3.1c-0.1-1.8,0.7-3.8,2.3-5c0.3-0.3,0.8-0.3,1.1-0.3
		c0.3-1.1,1.1-2.1,1.4-3.3c-0.7-0.8-1.4-2-1.4-3.1c-0.1-1.7,0.4-3.3,1.3-4.7c-0.1-2.1-0.3-4.4,0.4-6.5c0.1-0.3,0.1-0.6,0.3-1
		c0.3-0.3,0.6-0.6,0.8-0.8c0.1,0.1,0.3,0.3,0.6,0.4c-1.1,0.4-1.1,1.7-1.3,2.5c-0.3,1.7-0.6,3.7-0.1,5.4c2.3,2.8,6.2,3.1,9.5,3.7
		c-0.1-0.4-0.1-1.1-0.7-1.4c-1.6-0.8-3.7-0.7-5-2c-1-1-0.3-2.4,0.3-3.3l0.3,0.1c-0.3,0.8-0.8,2.1,0,2.8c1.6,0.8,3.4,0.7,4.8,1.7
		c0.6,0.6,0.6,1.4,0.8,2.1c0.3-0.3,0.6-0.6,0.7-0.8c-0.1-0.7-0.4-1.4-0.8-2c0.1,0,0.4,0.1,0.6,0.3c0.3,0.7,0.8,1.8,0.1,2.5
		c-0.7,0.3-1.4,0.4-2.1,0.8c-0.1-0.1-0.4-0.3-0.4-0.4c-0.8,0.8-2,1.6-2.3,2.8c-0.1,1.1,0,2.4,0,3.7c-0.8,0.3-1.8,0.3-2.7,0.1
		c0.1-0.3,0.4-0.7,0.6-0.8l0.1,0.4c0.4,0,0.8-0.1,1.3-0.3c0-1.1-0.1-2.4,0.1-3.5c0.3-1.1,1.4-1.7,2.1-2.5c-0.6-0.1-1.3-0.1-1.8-0.3
		c-0.7,0.7-1.4,1.7-1.7,2.7c0-0.6,0.1-1.3,0.3-1.8c-0.7-0.3-1.6-0.6-2.3-0.8c-1,1-1.7,2.3-1.6,3.8c1,0.4,2,0.6,3.1,0.7
		c0.1,0.1,0.3,0.3,0.3,0.4h-0.6c-1.1,0-2.4-0.3-3.4-0.7c-0.4,1-0.8,2-1.3,3c0.8-0.1,1.7-0.4,2.5,0c0.8,0.3,1.6,0.7,2.3,1.1
		c-1.4,2.1-2,4.5-3.8,6.4c-1.4,0.7-3.1,0.4-4.5,0c0-0.4-0.1-1-0.1-1.4c-1,0.4-0.3,1.6-0.3,2.3c7.2,1.1,14.4,1.3,21.7,2
		c1.3,0.1,2.5,0.1,4,0.3c-0.1-1-0.4-2-0.1-2.8c1-3.1,3.3-5.8,4.8-8.6c-0.7,0-1.3,0-2,0c-0.3,0.6-0.7,0.8-1.3,1c-1.8,0.4-3.8,1-5.7,1
		c-0.7,0-0.6-0.8-0.6-1.4c0.3-1.3,0-2.7,0.4-4c0.3-1,1.1-1.6,1.8-2.1c-1.1,0-2.1,0-3.3-0.4c0.1-0.1,0.6-0.3,0.7-0.4
		c4.4,0.3,8.6-0.3,12.9-1.3c0-1-0.1-2.3,0.7-3.1c1.1-1.3,2.8-1.6,4.5-2c0-0.7,0-1.4-0.1-2c-0.4-0.6-0.8-1-1.4-1.4
		c-1.4-0.1-2.8,0.3-4.2,0.6c-2.8,0.4-5.7,0.8-8.6,0.7c-2,0.1-4-0.1-5.9-0.1c-0.6,0.7-0.4,1.6-0.3,2.4c3.3,0.4,6.5,0.3,9.9,0.1
		c0.1,0.6-0.1,1.1-0.3,1.7c-0.1,0-0.3-0.1-0.3-0.3c0-0.3-0.1-1-0.1-1.3c-0.1,0.3-0.3,0.6-0.6,0.8c-0.1-0.1-0.3-0.3-0.4-0.4
		c-4.2,0.3-8.5,0.3-12.6-0.8v-0.1c1.4-0.3,2.7,0.1,4.1,0.3c0-0.8,0-1.8,0.3-2.7c-3.5-0.3-6.9-1.3-10.1-2.7c0-0.1-0.1-0.3-0.1-0.4
		v-0.1c1,0.3,1.8,0.4,2.8,0.7c1,0.4,2,0.7,3,0.8c1.3,0.3,2.7,0.6,4,0.7c6.9,0.8,14,0.1,20.9-1.1C57.2,49.2,58.3,49,59.4,48.6z"/>
	<path class="st24" d="M54.8,50.3c2.8-0.4,5.7-1.6,8.4-2.5c1.3,2.8,0.8,6.7-1.6,8.8c0.1-1-0.6-1.8-1.4-2.3c-1.1-0.7-2.4-0.4-3.7-0.3
		C56.9,52.4,56.1,51,54.8,50.3z"/>
	<path class="st21" d="M64.1,49.9c1.6-0.3,3.8-0.1,4.2,1.7c0.4,1.3-0.1,3.4-1.7,3.7c-0.6,0.3-1.1,0.6-1.6,1
		c-0.1,0.1-0.3,0.6-0.4,0.7c0.7,0.8,0.4,2.3,0,3.1c-0.3,0.4-0.7,1.3-1.3,0.6c0.1-0.1,0.3-0.4,0.4-0.4l0.1-0.1c1.1-1,0.1-2.7,0.6-4
		c0.8-0.8,2.1-1.1,3-1.8c0.1-0.3,0.3-0.6,0.4-1c0-0.7-0.1-1.3-0.4-2c-0.3-0.3-0.6-0.4-0.8-0.7C65.7,50.2,64.8,50.3,64.1,49.9z"/>
	<path class="st24" d="M50.5,51.1c1.4-0.1,2.8-0.7,4.2-0.6c0.6,0.4,1,0.8,1.4,1.4c0.1,0.7,0.1,1.4,0.1,2c-1.6,0.4-3.4,0.7-4.5,2
		c-0.7,0.8-0.7,2-0.7,3.1c-4.2,0.8-8.5,1.4-12.9,1.3c0.1-0.3,0.3-0.7,0.4-1c1.1-0.3,2.3-0.4,3.5-0.3c1.6,0.1,3.4-0.3,4.2-1.7
		c0.6-1,0.1-2-0.3-2.8c-0.1,0-0.4,0-0.7,0c-3.3,0.1-6.5,0.3-9.9-0.1c-0.1-0.8-0.3-1.7,0.3-2.4c2-0.1,4,0.1,5.9,0.1
		C44.9,52,47.7,51.6,50.5,51.1z"/>
	<path class="st21" d="M64.4,50.6c0.8,0.1,1.8,0.1,2.4,0.8c0.4,0.7,0.4,1.6,0.1,2.4c-1,0.8-2.3,1.1-3,2.1c-0.3,0.8,0,1.7,0,2.4
		c-0.1,0.6-0.1,1.1,0,1.6c-0.1-0.1-0.3-0.3-0.4-0.3l-0.3,0.4c-0.7-0.6-0.8-1.6-0.8-2.4c-0.1,0-0.6,0-0.8-0.1c0-0.1,0.1-0.6,0.1-0.7
		C63.8,55.7,64.7,53,64.4,50.6z"/>
	<path class="st26" d="M57,52.1c-0.3-0.6,0.3-1.1,0.8-1.1c0.6,0.3,0.3,1,0.3,1.4C57.7,52.4,57.2,52.6,57,52.1z"/>
	<path class="st26" d="M33.7,52c0.3,0.1,0.7,0.3,1,0.4c0.1,0.7-0.7,1.6-1.3,0.8C33,53,33.5,52.4,33.7,52z"/>
	<path class="st26" d="M36.7,52.6c0.4-0.3,1.3,0.1,1,0.7c-0.1,0.6-0.8,0.4-1.4,0.4C36.4,53.3,36.2,52.7,36.7,52.6z"/>
	<path class="st27" d="M27.5,53.6c0.3-0.3,0.6-0.3,1-0.3c0.3,1-0.4,2.3,0.6,3c1,0.6,2,0.7,3.1,0.7c0.4,0.3,0.8,0.4,1.3,0.6
		c0.3,0.7,0.6,1.3,0.8,2c-0.1,0.3-0.4,0.6-0.7,0.8c-0.3-0.7-0.3-1.7-0.8-2.1c-1.4-1-3.4-0.8-4.8-1.7c-0.8-0.7-0.3-2,0-2.8L27.5,53.6
		z"/>
	<path class="st25" d="M28.4,53.3c0.8,0.1,1.7,0.3,2.5,0.4c0,0,0,0.1,0,0.3c-0.1,0-0.6,0-0.7,0.1c-0.4,0-0.8-0.1-1.4-0.1
		c0,0.6-0.1,1.3,0.1,1.8c0.6,0.4,1.3,0.4,2,0.6c0.3,0.3,0.7,0.4,1,0.7c-1,0-2.1-0.3-3.1-0.7C28,55.5,28.7,54.3,28.4,53.3z"/>
	<path class="st28" d="M29,54c0.4,0,0.8,0.1,1.4,0.1c0.1,0.7,0.4,1.4,0.7,2.1c-0.7-0.1-1.4-0.1-2-0.6C28.7,55.3,29,54.5,29,54z"/>
	<path class="st29" d="M30.3,54.1c0.1,0,0.6,0,0.7-0.1h0.1v0.1c-0.1,0.1-0.3,0.3-0.4,0.4c0.7,0.8,1.4,1.7,2.4,2.1
		c2.3,0.8,4.8,0.7,7.2,0.6c1.4-0.3,3.1-0.6,3.8-1.8c0.1-0.3,0.3-0.6,0.6-0.8c0,0.3,0.1,1,0.1,1.3c-0.8,1.3-2.4,1.8-3.8,2.3
		c-0.6,0.1-1.3,0.3-2,0.3c-0.4,0-0.8,0-1.4,0c-1.3,0-2.7-0.1-4-0.4c-0.1,0-0.4-0.1-0.6-0.3c-0.4-0.1-0.8-0.4-1.3-0.6
		c-0.3-0.3-0.7-0.4-1-0.7C30.7,55.5,30.4,54.8,30.3,54.1z"/>
	<path class="st30" d="M30.7,54.7c0.1-0.1,0.3-0.3,0.4-0.4c4.1,1,8.5,1,12.6,0.8c0.1,0.1,0.3,0.3,0.4,0.4c-0.8,1.3-2.5,1.6-3.8,1.8
		c-2.4,0.1-5,0.3-7.2-0.6C32.1,56.4,31.4,55.5,30.7,54.7z"/>
	<path class="st31" d="M45.4,54.4c0.1,0,0.4,0,0.7,0c-0.1,1,0,2.3-0.8,3c-1,1.1-2.8,1.1-4.1,0.7c1.4-0.4,2.8-1,3.8-2.3
		c0.1,0,0.3,0.1,0.3,0.3C45.4,55.5,45.6,55,45.4,54.4z"/>
	<path class="st32" d="M52.7,56c2-1.1,4.2-1.7,6.5-1.6c0.7,0.1,1.3,0.7,1.7,1.3c0.4,0.8,0.1,2,1,2.5c0,0.1,0.1,0.4,0.1,0.6
		c-1.3,0.3-2.7,0.7-4,1.1c-0.3-0.7,0.3-1,0.7-1.3c-0.1,0-0.6,0-0.8,0c0,0,0-0.1,0-0.3c0.7-0.1,1.3-0.3,2-0.3c0-0.7,0-1.4,0-2.1
		c-1-0.8-2.3-0.6-3.4-0.4c-1.6,0.3-3.3,0.7-4.2,2.1c-0.1,0.7,0,1.4,0.1,2.1c-0.1,1-1.1,1.4-2.1,1.6c0-0.3,0-0.7,0-1
		c0.4-0.3,0.8-0.4,1.1-0.7C51.7,58.4,51.4,56.8,52.7,56z"/>
	<path class="st25" d="M46.1,54.4c0.6,0.8,0.8,2,0.3,2.8c-0.8,1.4-2.7,2-4.2,1.7c-1.1-0.1-2.4,0-3.5,0.3l-0.3,0.1
		c0.3-0.4,0.6-0.7,0.8-1.1c0.7,0,1.3-0.1,2-0.3c1.4,0.6,3.1,0.4,4.1-0.7C46.1,56.7,46,55.4,46.1,54.4z"/>
	<path class="st33" d="M52.8,58.6c-0.6-1.6,1.4-2.5,2.7-2.4c0.8-0.1,1.1,0.7,1.6,1.4c-0.8,0-1.7-0.1-2.5,0.1
		C53.8,57.9,53.2,58.4,52.8,58.6z"/>
	<path class="st34" d="M21.8,60.2c0.1-1.3,0.6-2.4,1.1-3.4c0.4,0.6,1,1.1,1.6,1.6c0,0.3-0.1,0.8-0.1,1.3
		C23.5,59.5,22.6,59.8,21.8,60.2z"/>
	<path class="st35" d="M34,57.8c1.3,0.3,2.5,0.4,4,0.4c-0.4,0.7-0.7,1.6-0.3,2.4c1,0.4,2.1,0.3,3.3,0.4c-0.7,0.6-1.6,1.1-1.8,2.1
		c-0.4,1.3-0.3,2.7-0.4,4c0,0.6-0.3,1.4,0.6,1.4c2,0,3.8-0.6,5.7-1c0.6,0,1-0.4,1.3-1c0.7,0,1.3,0,2,0c-1.6,3-3.7,5.5-4.8,8.6
		c-0.3,1,0,2,0.1,2.8c-1.3-0.1-2.5-0.1-4-0.3c-7.2-0.7-14.4-0.8-21.7-2c0-0.7-0.7-2,0.3-2.3c0,0.4,0.1,1,0.1,1.4
		c1.4,0.3,3.1,0.7,4.5,0c1.7-1.7,2.4-4.2,3.8-6.4c-0.7-0.4-1.6-0.8-2.3-1.1c-0.8-0.3-1.7,0-2.5,0c0.4-1,0.8-2,1.3-3
		c1.1,0.4,2.3,0.7,3.4,0.7c0,0.7,0,1.3,0.1,2c0.8,0.1,1.8,0,2.7-0.1c0-1.3-0.1-2.4,0-3.7c0.3-1.3,1.4-2,2.3-2.8
		c0.1,0.1,0.3,0.3,0.4,0.4c0.7-0.3,1.4-0.6,2.1-0.8C34.8,59.6,34.3,58.5,34,57.8z"/>
	<path class="st34" d="M52.9,58.6c1-0.8,2.4-1.4,3.8-1c1,1,0.7,2.5,0.6,3.8c-0.3,2.3-2.5,3.5-4.7,3.8c-1.1-0.8-1.3-2.3-1.4-3.5
		c0.8-0.4,1.6-1,2-2c0.3,0,0.7-0.1,1-0.1c-0.3,0-0.8,0-1.1,0C53.1,59.5,52.9,59.1,52.9,58.6z"/>
	<path class="st36" d="M59.6,58.2C59.9,58.4,59.9,58.4,59.6,58.2z"/>
	<path class="st37" d="M37.8,58.2c0.4,0,0.8,0,1.4,0c-0.3,0.4-0.6,0.7-0.8,1.1l0.3-0.1c-0.1,0.3-0.3,0.7-0.4,1
		c-0.1,0.1-0.6,0.3-0.7,0.4C37.1,59.9,37.4,58.9,37.8,58.2z"/>
	<path class="st38" d="M58.9,58.5C59.2,58.6,59.2,58.6,58.9,58.5z"/>
	<path class="st39" d="M24.6,58.8c0.6,0,1,0.3,1.6,0.6c-0.1,0.1-0.4,0.4-0.6,0.6C25.2,59.6,24.9,59.2,24.6,58.8z"/>
	<path class="st40" d="M58.2,60.1c1.3-0.3,2.5-0.6,3.8-0.8c1.1,2.4,2.4,4.8,3.4,7.2c-2.1,2.5-6.4,1.3-8.5,3.8c-1.4,1.7-1,4-1,6.1
		c-0.6,0.1-1.1,0.3-1.8,0.3c-0.4,0.1-0.8,0-1.3-0.3c0-0.1,0-0.4,0.1-0.6c1.1-0.7,1.7-2.1,1.4-3.4c-0.6-1.3-2-1.8-3.3-2.4
		c-0.4-1-0.3-2.3-0.3-3.4c2.4-0.1,5.1-0.7,6.7-2.7c0-0.1-0.1-0.3-0.1-0.4C58.2,62.5,58,61.2,58.2,60.1z"/>
	<path class="st41" d="M54.5,59.6c1,0.1,2.1,0.6,2.4,1.6C56.1,60.8,55.1,60.3,54.5,59.6z"/>
	<path class="st34" d="M21.8,61.5c-0.4-1.7,2.4-2.4,3.4-1.3c-1.1,0.8-1.8,2.1-1.7,3.5C22.5,63.6,22.1,62.5,21.8,61.5z"/>
	<path class="st42" d="M25.2,60.3c0.8,0.3,1.6,0.6,2.3,0.8c-0.1,0.6-0.3,1.1-0.3,1.8c0,0.1,0,0.3,0,0.4c-0.6-0.6-0.7,0.8-0.1,1
		c0,0.7,0,1.4,0,2.1c-0.1,0.3-0.4,0.7-0.6,0.8c0-0.7-0.1-1.3-0.1-2h0.6c-0.1-0.1-0.3-0.4-0.3-0.4c-1-0.3-2.1-0.3-3.1-0.7
		C23.5,62.6,24.2,61.3,25.2,60.3z"/>
	<path class="st43" d="M27.3,63c0.3-1,1-1.8,1.7-2.7c0.6,0.1,1.3,0.1,1.8,0.3c-0.7,0.8-1.8,1.4-2.1,2.5c-0.3,1.1-0.1,2.4-0.1,3.5
		c-0.4,0.1-0.8,0.1-1.3,0.3l-0.1-0.4c0-0.7,0-1.4,0-2.1c0-0.3,0.1-0.7,0.1-1C27.3,63.3,27.3,63,27.3,63z"/>
	<path class="st44" d="M43.2,60.9c0.6-0.1,1.1-0.1,1.7-0.3c0,0.6,0,1,0.1,1.6c-0.1,0-0.3,0-0.4,0c-2,0-2.7,3-1.3,4.2
		c0.7,0.1,1.6,0.1,2.3,0.1c-0.1,0.1-0.3,0.3-0.3,0.4c-1.4,0.3-2.7,0.6-4.1,0.8c0-1.4-0.3-2.8,0.1-4.1c0.4-1.1,1.4-1.8,2.4-2
		c-0.1-0.1-0.4-0.3-0.4-0.4C43.2,61.2,43.2,61.1,43.2,60.9z"/>
	<path class="st43" d="M40.3,61.9c0.7-0.8,1.8-0.8,2.8-1c0,0.1,0,0.3,0,0.4c-0.8,0.4-1.7,1-2.1,1.8c-0.8,1.6-0.1,3.3-0.4,4.8
		c-0.6,0-1.1,0-1.7,0.1C39.5,66,38.6,63.5,40.3,61.9z"/>
	<path class="st25" d="M29.4,64.7c-0.1-1.6,0.8-2.8,2.1-3.7H32c-0.6,0.7-1.3,1.1-1.7,2c-0.6,1-0.4,2.1-0.4,3.3
		C29.2,66.2,29.6,65.2,29.4,64.7z"/>
	<path class="st25" d="M33,61.3c2-0.7,4.2,0.8,4.2,3c-0.1,2-2.3,3.4-4.1,2.8c-1.4-0.4-3-1.8-2.5-3.4C31,62.6,31.8,61.8,33,61.3z"/>
	<path class="st34" d="M48.3,63c0-0.8,0.7-1.1,1.3-1.4c0.4,0.1,1,0.1,1.6,0.1c-0.1,1.3,0.4,2.4,1.1,3.5c-1.1,0.1-2.3,0.4-3.4,0.3
		C48,65.2,48.3,64,48.3,63z"/>
	<path class="st45" d="M32.6,61.9c1.8-1.1,4.7,0.8,4,3c-0.3,0.8-1,1.4-1.7,1.8c0-0.3,0-0.8,0-1.1c-1-0.1-1.8,0-2.4,0.8
		c-0.6-0.6-1.4-1.1-1.3-2C30.9,63.3,31.7,62.5,32.6,61.9z"/>
	<path class="st25" d="M53.9,61.9c0.6,0.6,1,1.3,1.1,2.1C54.8,63.3,54.4,62.6,53.9,61.9z"/>
	<path class="st46" d="M64,61.9c0.6,0.1,1.1,0.3,1.7,0.4c-1.1,0.1,0.3,1,0.7,0.4l0,0c0.6,0.8,1.6,1.4,1.6,2.4
		c0.4,1.7-0.3,3.4-1.7,4.5c-0.4-0.7-0.8-1.3-1.1-2c0.4-0.6,0.8-1.3,1-2c0.4-0.1,0.7-0.3,1.1-0.3c-0.4,0.1-1,0.1-1.4,0.3
		c-0.3-0.4-0.4-0.8-0.7-1.3c0.4-0.1,1-0.4,1.4-0.6c-0.6,0.1-1,0.3-1.6,0.4c-0.3-0.6-0.6-1.1-0.8-1.7c0.1,0,0.4-0.1,0.6-0.1
		C64.7,62.2,64.3,62,64,61.9z"/>
	<path class="st20" d="M32.8,62.3c0.1,0,0.3-0.1,0.4-0.1c0.1,0.6,0.4,1.3,0.7,1.8c0.4-0.4,1-0.8,1.6-1.1c-0.1,0.8-1,1.4-1.7,1.7
		C33.4,63.9,33.1,63,32.8,62.3z"/>
	<path class="st34" d="M44.6,62.2c0.1,0,0.3,0,0.4,0c1.1,0,2.3-0.1,3.4-0.1c-0.3,1.1-0.7,2.5,0,3.7c-1.3,0.1-2.5,0.1-3.8,0.3
		c-0.3-1.3,0-2.4,0.7-3.5c-0.8,1-1.3,2.4-0.7,3.7c-0.8,0.1-1.6-0.7-1.6-1.6C42.9,63.6,43.6,62.8,44.6,62.2z"/>
	<path class="st25" d="M60,62.6c0.7-0.3,1.6-0.1,2.4-0.1c-0.4,0.1-0.7,0.3-1.1,0.4c-0.7,1-0.8,2.3-0.6,3.5c0.6,0,1.1,0.3,1.6-0.1
		c1-0.6,0.7-1.8,0.6-2.8V63c0.6,1,0.6,2.5-0.3,3.4c-0.7,0.6-1.7,0.4-2.5,0.3C58.2,66.2,58.6,63.5,60,62.6z"/>
	<path class="st25" d="M66.4,62.9c-0.4,0.4-2-0.4-0.7-0.4C65.8,62.5,66.2,62.8,66.4,62.9z"/>
	<path class="st32" d="M59.3,65.3c0-1.1,0.4-2.8,1.8-2.4c-1,1-1.1,2.5-0.4,3.8C60,66.3,59.3,66,59.3,65.3z"/>
	<path class="st47" d="M27.2,64.3c-0.6-0.1-0.4-1.6,0.1-1C27.2,63.6,27.2,64,27.2,64.3z"/>
	<path class="st48" d="M60.7,66.4c-0.3-1.1-0.1-2.4,0.6-3.5c0.6,0,1.1,0.3,1.6,0.4c0,1,0.3,2.1-0.6,2.8
		C61.9,66.6,61.1,66.4,60.7,66.4z"/>
	<path class="st49" d="M32.3,66.3c0.6-0.8,1.6-1,2.4-0.8c0,0.3,0,0.8,0,1.1C33.8,66.9,33,66.7,32.3,66.3L32.3,66.3z"/>
	<path class="st50" d="M22.8,66c0.4-0.1,0.6,0,0.4,0.4C22.8,66.6,22.6,66.4,22.8,66z"/>
	<path class="st51" d="M24.6,66.3c0.4-0.1,0.6,0.1,0.6,0.6C24.8,66.9,24.5,66.7,24.6,66.3z"/>
	<path class="st52" d="M29.6,66.6C29.9,66.7,29.9,66.7,29.6,66.6z"/>
	<path class="st40" d="M44.2,74.5c1.6-2.7,3-5.4,4.7-8.1c0.6,0,1.3,0,1.8,0.1c0.1,1,0.1,2.1,0.1,3.1c-1.3,0.3-2.4,1-3.1,2
		c-0.7,1.1-0.8,2.4-0.7,3.7c0.3,1,1.3,1.6,1.8,2.4h-0.3c-0.6,0.1-1.1,0.1-1.7,0.3c-1,0.1-2,0.4-3,0.3C43.2,77.2,43.5,75.6,44.2,74.5
		z"/>
	<path class="st53" d="M52.1,67.3c0.8,0,0.4,1.7-0.3,1.4C51.1,68.3,51.4,67.4,52.1,67.3z"/>
	<path class="st54" d="M22.2,67.7c1.4-0.1,2.7,0.4,4,1c-0.7,1.4-1.4,2.8-2.3,4.2l-0.4,0.3C23.6,71.4,23.4,69.3,22.2,67.7z"/>
	<path class="st55" d="M63.4,68.7c0.6-0.3,1.1-0.6,1.7-1c0.3,0.6,0.7,1.3,1,2c-1.4,0.7-3,1.1-4.5,1.3c0-0.4,0-0.8-0.1-1.3
		c0,0.4,0,1,0,1.4c-1.1,0.1-2.1,0.7-2.7,1.7c-0.6,0-1.1-0.1-1.7-0.4c0.4,0.6,1.1,0.6,1.7,0.6c-0.1,0.4-0.1,0.8-0.3,1.3
		c-0.6,0.1-1.3,0.1-2,0c-0.1-1.8,0.7-3.8,2.4-4.4C60.3,69.3,61.9,69,63.4,68.7c0,0.4,0.1,0.8,0.4,1.3C63.7,69.5,63.6,69.1,63.4,68.7
		z"/>
	<path class="st56" d="M28.2,68.6c3.5,0,6.9,0.4,10.5,0.6c0.1,1.1-0.3,2.3-0.7,3.4c-0.6,1.4-0.8,3-1.7,4.4c-2.7-0.1-5.5-0.4-8.2-0.6
		c-1.1-0.1-2.4,0.1-3.3-0.7C26,73.4,26.6,70.7,28.2,68.6z"/>
	<path class="st57" d="M20.1,69.3c0.7-0.1,1.6-0.7,2.3-0.4c0.3,0.3,0.3,0.7,0.4,1.1c-0.4,0.1-0.6,0.6-0.7,1
		c-0.1,1.1-0.1,2.3-0.1,3.4c0.1-1.4-0.1-2.8,0.4-4.2l0.4-0.3c0.1,1.6,0.3,3.4-0.4,5c-0.3,0-0.7,0.1-1,0.3c-1-1.7-0.4-4,0.3-5.7
		c-1,1.7-1.1,3.8-0.7,5.8c-0.4,0-1.1-0.1-1.6-0.1c-0.6-1.1-0.6-2.5-0.3-3.7c0.4-0.6,0.6-1.4,1.3-1.6c-0.3,1.6-0.6,3.3-0.4,4.8
		c0-1.6,0-3.1,0.6-4.7c0,0-0.1-0.1-0.3-0.1L20.1,69.3z"/>
	<path class="st56" d="M42,69.8c-0.3-0.8,0.8-1.1,1.4-1c1.1,0,1.1,1.6,0.4,2.1c-0.6,0.7-1.4,0.4-2.1,0.3L42,71
		c0.6-0.1,1.3-0.6,1.1-1.3C43.3,68.6,42.2,69.4,42,69.8z"/>
	<path class="st58" d="M28.2,69.1c3.4-0.1,6.8,0.6,10.3,0.3c-0.4,2.4-1.6,4.5-2.1,6.8c-0.6,0-1,0-1.6,0c0.4-1.7,0.8-4-0.6-5.2
		c-1.1-1.4-3.1-1-4.4-0.3c-1.8,0.8-2.7,3-3.1,5c-0.4-0.1-0.8-0.1-1.4-0.3C26.5,73.5,27,71.2,28.2,69.1z"/>
	<path class="st59" d="M42,69.8c0.1-0.4,1.3-1.3,1.1-0.3c0.1,0.7-0.6,1.1-1.1,1.3C42,70.5,42,70.3,42,69.8z"/>
	<path class="st60" d="M43.5,69.1c1.4,0.3,0.3,2-0.6,2.1C43,70.5,43.2,69.8,43.5,69.1z"/>
	<path class="st25" d="M20.4,69.7c0,0,0.1,0.1,0.3,0.1c-0.7,1.4-0.6,3.1-0.6,4.7C19.8,72.8,20.1,71.2,20.4,69.7z"/>
	<path class="st18" d="M41.8,71c-0.4-0.3-0.1-1.1,0.3-1c0,0.4,0,0.7-0.1,1.1L41.8,71z"/>
	<path class="st61" d="M47.7,71.8c1-0.8,2.4-2.4,3.8-1.4c-1.4,0.3-2.1,1.4-3.4,2C48,72.2,47.8,72,47.7,71.8z"/>
	<path class="st62" d="M59,70.4c0.4-0.3,1,0.3,0.7,0.7C59.3,71.2,58.7,70.8,59,70.4z"/>
	<path class="st63" d="M61,71.8c2-0.4,4.1-0.6,5.8-1.7c0.6,0.7,0.4,1.8-0.4,2.3c-1.6,0.3-3.1,0.7-4.7,0.8c-1,0.1-1.7,0.7-2.4,1.3
		C59,73.2,59.7,72.1,61,71.8z"/>
	<path class="st22" d="M30.1,70.8c0.8-0.6,2-0.4,3-0.4c0.6,0.6,1.3,1.1,1.7,1.7c0.1,1.4,0.1,2.8-0.4,4.1c-0.4,0-0.7-0.1-1.1-0.1
		c0.4-0.8,0.8-2,0.7-3c-0.1-0.7-0.7-1.3-1.1-1.7c-1.1-0.1-2.3,0.1-3.3,0.7c-0.1,0.1-0.3,0.3-0.4,0.4c-0.1,0.1-0.3,0.3-0.3,0.3
		c-0.7,0.8-0.7,2-1.1,3c-0.3,0-0.7,0-1,0.1C27.3,73.8,28.3,71.7,30.1,70.8z"/>
	<path class="st1" d="M29.7,72.2c1-0.7,2.1-0.8,3.3-0.7c0.4,0.6,1,1,1.1,1.7c0.1,1-0.3,2-0.7,3c0,0,0,0.1-0.1,0.1
		c0.3-1.3,1.1-2.8,0.1-4.1c-0.8-1-2.1-0.4-3.3-0.3c0,0.1,0,0.6-0.1,0.8C30,72.5,29.9,72.4,29.7,72.2z"/>
	<path class="st64" d="M49.4,72.2c0.7-0.8,1.7-1.4,2.8-1.1c0.8,0.4,1.6,1,1.8,1.8c0,0.8,0,1.7-0.6,2.3
		C52.2,74.1,50.8,73.1,49.4,72.2z"/>
	<path class="st65" d="M68.2,71.4c0,0.1,0.1,0.4,0.1,0.6c0.4,0,0.8,0.1,1.3,0.1c-0.4,0-1,0.1-1.4,0.3c0.7,0.1,1.7,0.1,2,1
		c-3,0.3-5.9,0.7-8.9,1.4c-1.4,0.4-0.6,2.1-1.4,3.1c-0.1-0.6-0.1-1-0.3-1.6c-0.1-0.8,0.1-2,1.1-2.1C63.3,73.4,66.5,73.8,68.2,71.4z"
		/>
	<path class="st66" d="M30.3,72c1-0.1,2.4-0.7,3.3,0.3c1,1.3,0.1,2.8-0.1,4.1c-0.8-0.1-1.7-0.1-2.5-0.3c-0.1-1.1-0.4-2.1-0.6-3.3
		C30.1,72.5,30.3,72.1,30.3,72z"/>
	<path class="st67" d="M29.7,72.2c0.1,0.1,0.3,0.4,0.4,0.6c0.1,1.1,0.4,2.1,0.6,3.3c-0.1,0-0.6,0.1-0.7,0.1v-0.1c-0.1-1-0.4-2-0.6-3
		c0-0.1,0-0.3,0-0.3C29.4,72.5,29.6,72.2,29.7,72.2z"/>
	<path class="st64" d="M48.1,72.5c0.1-0.1,0.6-0.3,0.7-0.3c1.6,0.7,3,1.8,4.4,2.8c-0.1,0.3-0.4,0.7-0.6,1c-1.1-0.7-2-1.6-3.1-2.1
		c0.8,0.8,2,1.6,3,2.3c0.3,0.8-0.8,1.3-1.6,1.1c-1.7,0-3.1-1.8-2.7-3.4c0.1-0.1,0.4-0.4,0.6-0.6C48.7,72.9,48.4,72.7,48.1,72.5z"/>
	<path class="st68" d="M47.4,72.4c0.3,0.3,0.6,0.6,0.8,0.7c-0.6,1-0.4,2.3,0.1,3.3l0.1,0.4c-0.6-0.4-1-1-1.3-1.6
		C47.3,74.4,47.4,73.4,47.4,72.4z"/>
	<path class="st56" d="M40.5,72.9c0.6-0.4,1.3-0.1,1.8,0.1c0.6,0.4,0.3,1.3,0,1.7c-0.4,1-2.3,1-2.5-0.1
		C39.6,74.1,39.8,73.4,40.5,72.9z"/>
	<path class="st69" d="M28.2,75.9c0.3-1,0.3-2.3,1.3-3c0.3,1,0.4,2,0.6,3C29.4,75.9,28.7,75.9,28.2,75.9z"/>
	<path class="st70" d="M40.1,75.1c-0.1-0.8,0.3-1.7,0.8-2.3c0.4,0.3,0.8,0.4,1.4,0.7c0,0.8-0.4,1.7-1.3,1.8c0.3-0.6,0.6-1,0.7-1.6
		C41.2,74.2,40.9,75.1,40.1,75.1z"/>
	<path class="st71" d="M61.6,75.2c2.7-0.6,5.5-1,8.4-1.3c0,0.3,0,0.6,0,0.7c-0.4,0-0.8,0.1-1.1,0.1c-2.7,0.1-5.4,1-8.1,1.1
		C60.9,75.6,61.1,75.4,61.6,75.2z"/>
	<path class="st72" d="M56.5,74.4c0.7,0.1,1.6,0.1,2.3,0.1c0,0.6,0.1,1.1,0.1,1.7c-0.6,0-1.3,0-1.8,0.1c0.7,0,1.4,0,2,0
		c0,0.7,0,1.4-0.3,2c-0.7,0-1.6-0.1-2.3-0.3C56.5,76.8,56.5,75.5,56.5,74.4z"/>
	<path class="st73" d="M68.8,74.8c0.4,0,0.8-0.1,1.1-0.1c1,0.6,1.8,1.3,2.4,2.3c1.4,2.7,2.4,5.9,1.4,9.1c-0.7,2.3-2.1,4.4-4.2,5.5
		c-1.1,0.4-2.3,0.7-3.4,1c-4.8,1-9.6,2.5-14.4,3.4c-2.1,0.4-4.1,0.8-6.2,1.4c-1,0.3-2.1,0.6-3.1,0.3c-1.3-0.1-2.3-1-3.1-1.7
		c-0.1,0-0.4,0.1-0.6,0.3c0.1-1.1-0.6-2.1-0.8-3.1c-0.6-1.8-0.4-3.8-0.3-5.8c0.3-3.4,2.7-6.4,5.8-7.8c0-0.1,0.1-0.3,0.1-0.4
		s0.1-0.3,0.1-0.4c1.6,0.3,3.3-0.1,4.8-0.4v-0.4c-0.4,0-1,0-1.4,0c0.6-0.1,1.1-0.1,1.7-0.3c0.1,0.7,1,0.6,1.4,0.1
		c-0.4-0.1-0.7-0.1-1.1-0.3c-0.6-0.8-1.6-1.4-1.8-2.4h0.3c0.4,0.6,0.8,1.1,1.3,1.6l-0.1-0.4c0.6,0.6,1.1,1.3,2,1.4
		c1,0.3,2.3-0.3,2.4-1.4c0.4,0.3,0.8,0.4,1.3,0.3c-0.4,0.1-0.8,0.4-1.1,0.6c1,0,2-0.3,3-0.4c0,0.3,0,0.7-0.1,1
		c-4.2,1-8.6,1.3-12.6,3c-1,0.4-1.7,1-2.5,1.8c0,0.3,0,0.4,0,0.7c-0.1,0-0.4,0.1-0.6,0.1c-1.3,2.3-1.8,4.8-1.7,7.2
		c0.1,0.1,0.6,0.3,0.8,0.4c0-0.4,0-1,0-1.4c0,0.6,0.1,1,0.1,1.6c-0.3,0-0.8,0-1.1,0c0.1,1.7,0.7,3.8,2.5,4.4c-0.7-1-1.4-1.8-1.8-3
		c0.3,0.3,0.6,0.6,0.8,0.8v-0.6c0.1,0.3,0.4,0.6,0.6,0.8l-0.6,0.1c0.8,0.8,1.7,1.8,2.7,2.7c2.5,0.1,5.1-0.8,7.5-1.3
		c3.4-0.6,6.7-1.7,10.1-2.5c2.1-0.6,4.2-1,6.4-1.6c1-0.3,1.7-1.1,2.5-1.6c1.1-0.7,1.7-1.8,2.7-2.7c-0.1,1.4-1.4,2.4-2.4,3.4
		c3-1.7,3.5-5.4,3.3-8.5c-0.3-2-1.1-4.4-3.1-5.4c-3.1-0.3-6.1,0.6-9.1,1c0-0.3,0-0.7,0-1C63.4,76.1,66.1,75.8,68.8,74.8z"/>
	<path class="st74" d="M17.5,76.3l0.1,0.1c-0.1,0.1-0.3,0.6-0.4,0.7c3.4,0.6,6.8,0.7,10.2,1.1c-0.4,0.3-0.8,0.7-1.1,1
		c-3.5-0.1-7.1-0.6-10.5-1.4c0.4-0.3,0.7-0.6,1.1-0.8c0-0.1-0.1-0.3-0.1-0.4C17,76.6,17.4,76.5,17.5,76.3z"/>
	<path class="st75" d="M59.6,76.2c0,0.6,0.1,1,0.3,1.6c0.4,0,0.8-0.1,1.4-0.1c-0.1,0.6-0.3,1.3-0.4,1.8c-0.4,0.8-1.8,0.8-1.7,1.8
		c-0.1,1.3,0.4,2.7-0.6,3.8c-1.7,1-3.8,1.1-5.5,0.6c-0.4-1.3-0.3-2.7-0.7-4c-0.1,0-0.6-0.1-0.7-0.3c0-0.1,0-0.3,0-0.4
		c0.4-0.4,0.6-0.8,0.3-1.3l-0.1-0.3c0.7-0.1,1.6-0.3,2.3-0.4c-0.7,0.8-1.1,2.5,0,3.3c1.8,0.1,4.1-0.6,5-2.4c0.4,0,0.8,0,1.3,0
		c0-0.4,0.1-0.8,0.1-1.1c-0.3,0.4-0.4,1-1,1C59.4,78.3,59.9,77.3,59.6,76.2z"/>
	<path class="st56" d="M11.3,85.4c0.4-3.5,2.4-7.1,5.5-8.8c0,0.1,0.1,0.3,0.1,0.4c-0.4,0.3-0.7,0.6-1.1,0.8c-0.3,0.3-0.6,0.6-1,0.8
		c-0.3,0.4-0.6,0.8-0.8,1.3c-0.1,0.1-0.3,0.6-0.4,0.7c-0.4,0.8-0.7,1.8-0.8,2.8c-0.1-0.4-0.3-0.8-0.4-1.1c-0.4,1.7-0.8,3.4-0.8,5.2
		c0,1.3,0.7,2.5,0.6,4C11.2,89.8,11.2,87.5,11.3,85.4z"/>
	<path class="st76" d="M17.7,76.5c3.5,0.4,7.1,1,10.8,1.1c-0.1,0.1-0.3,0.3-0.3,0.4c-0.1,0-0.4,0.1-0.6,0.3
		c-3.4-0.3-6.8-0.6-10.2-1.1C17.4,77.1,17.7,76.8,17.7,76.5z"/>
	<path class="st77" d="M69.1,76.6c0.3-0.3,1.1,0,1,0.4C69.8,77.3,68.9,77.1,69.1,76.6z"/>
	<path class="st78" d="M65,77.2c1.6-0.1,3.3-0.4,4.5,0.4c1.7,1,2.5,3.1,2.4,5c0.3,3.8-3,7.6-6.8,7.9c-2.3,0.1-4.7-1.4-5.2-3.5
		C58.7,83.1,60.9,78,65,77.2z"/>
	<path class="st79" d="M28.4,77.6c0.8,0,1.7,0.1,2.5,0.4c-0.3,0.1-0.4,0.4-0.7,0.7l0.1-0.4c-0.7,0.4-1.4,0.8-1.8,1.6
		c-2.5,3-3.8,7.1-3.1,10.9c0.3,1.6,1.1,3.3,2.5,4c-0.6,0-1.1,0-1.8,0c0.3-0.1,0.4-0.3,0.7-0.6c-0.7-0.1-1.8,0.1-2.3-0.7
		c-1.3-2-1.4-4.2-1.3-6.5c0-2.1,0.8-4.2,2-6.1C26,79.7,27.2,79,28,78C28.2,77.9,28.3,77.8,28.4,77.6z"/>
	<path class="st80" d="M15,78.7c0.3-0.3,0.6-0.6,1-0.8c3.4,1,6.9,1.3,10.5,1.4c-0.4,0.3-0.7,0.7-1,1C21.9,79.6,18.4,79.5,15,78.7z"
		/>
	<path class="st81" d="M31,78.2c1.7-0.4,3.5,0.1,5.2,0.1c2.4,0.3,4.8,0.3,7.2,0.6c0,0.1-0.1,0.3-0.1,0.4c-0.1,0.1-0.6,0.3-0.7,0.3
		c-2.5-0.1-5.1-0.6-7.6-0.7C33.7,78.6,32.3,78.7,31,78.2z"/>
	<path class="st56" d="M48.7,77.9H49c0.4,0,0.7,0.1,1.1,0.3C49.7,78.3,48.7,78.5,48.7,77.9z"/>
	<path class="st82" d="M74.9,78.7c0.8-0.7,1.8-0.8,3-0.8C77,78.6,75.9,78.9,74.9,78.7z"/>
	<path class="st74" d="M31,78.2L31,78.2c1.3,0.7,2.7,0.6,4,0.7c2.5,0.1,5.1,0.6,7.6,0.7c-0.7,0.3-1.4,0.7-2,1.3
		c-1.3-0.7-2.8-0.6-4.2-0.7c-2.3-0.3-4.4-0.3-6.7-0.7c0.3-0.1,0.4-0.4,0.7-0.6C30.6,78.6,30.7,78.3,31,78.2z"/>
	<path class="st46" d="M55.6,78.9c0.3-0.3,0.6-0.6,0.7-0.8c0.8,0.3,1.7,0.3,2.4,0.3c-0.4,0.7-0.6,1.4-1.1,2c-0.4,0-0.8-0.1-1.3-0.1
		c0.3,0.1,0.7,0.3,1,0.4c-0.7,0.4-1.3,0.7-2,1.1c-0.8,0-2-0.3-1.7-1.3C53.6,79.3,54.8,79,55.6,78.9z"/>
	<path class="st56" d="M65.7,78.7c1.3-0.6,3,0.1,3.7,1.3c1.4,2.1,1,5.2-0.6,7.1c-1.3,1.6-3.7,2.3-5.4,1.1c-1.3-1-1.6-2.5-1.6-4.1
		C61.7,81.7,63.4,79.5,65.7,78.7z"/>
	<path class="st83" d="M14.2,80c0.3-0.4,0.6-0.8,0.8-1.3c3.4,0.7,6.9,0.8,10.3,1.6c-0.4,0.6-0.8,1.3-1.3,1.8c0-0.1,0-0.4,0-0.6
		C20.8,81,17.4,80.9,14.2,80z"/>
	<path class="st84" d="M64,80.3c1-1.6,3.7-2.1,4.8-0.4c1.6,2.1,0.8,5-0.4,7.1c-0.6-0.4-0.6-1.1-0.8-1.6C66.5,83.6,65.4,81.7,64,80.3
		z"/>
	<path class="st85" d="M28.4,80.6c0.3-0.4,0.7-0.7,1.1-1.1c2.1,0.3,4.4,0.4,6.7,0.7c1.4,0.1,3,0,4.2,0.7c-0.4,0.3-0.7,0.6-1.1,0.8
		C35.8,81.3,32.1,81.3,28.4,80.6z"/>
	<path class="st86" d="M48.8,79.7c1-0.1,2-0.1,3-0.1c0.4,0.6,0.1,1-0.3,1.3c0,0.1,0,0.3,0,0.4c-0.7-0.1-1.4-0.3-2-0.4
		c0-0.3,0-0.8,0-1.1C49.3,79.9,49,79.7,48.8,79.7z"/>
	<path class="st87" d="M55.8,79.6C56.1,79.7,56.1,79.7,55.8,79.6z"/>
	<path class="st88" d="M77.1,80.4c1.1-0.3,2.4-0.8,3.5-0.7c-1.6,0.8-3.4,1.4-5.2,1.6C75.9,80.7,76.4,80.6,77.1,80.4z"/>
	<path class="st89" d="M14.2,80c3.3,0.8,6.7,1,9.9,1.6c0,0.1,0,0.4,0,0.6c0,0.1-0.1,0.3-0.3,0.4c-3-0.4-6.1-0.7-9.1-1.3
		c-0.4,0-0.8-0.3-1-0.7C13.9,80.6,14,80.2,14.2,80z"/>
	<path class="st83" d="M27.6,82c0.3-0.6,0.6-1,0.8-1.6c3.5,0.8,7.2,0.7,10.9,1.1c-0.4,0.4-0.8,0.8-1.1,1.4
		C34.7,82.9,31.1,82.7,27.6,82z"/>
	<path class="st90" d="M12.9,83.6c0.1-1,0.4-2,0.8-2.8c0.1,0.4,0.6,0.7,1,0.7c3,0.4,6.1,0.7,9.1,1.3c-0.3,0.6-0.4,1.1-0.7,1.7
		c-1.1-0.6-2.5-0.6-3.8-0.7c-1.8-0.1-3.5-0.6-5.4-0.8C13.4,82.7,13.2,83.3,12.9,83.6z"/>
	<path class="st78" d="M40.8,84.3c1.4-2.7,5.2-4.2,8.1-2.8c2,1,2.8,3.3,3,5.4c0.3,3.7-1.8,7.4-5.4,8.6c-2,0.7-4.4,0.1-5.8-1.6
		c-0.1-0.3-0.4-0.6-0.6-0.8c-0.1-0.6-0.4-1.1-0.6-1.6c0-0.7,0-1.3,0-1.7C39.3,87.8,39.8,85.8,40.8,84.3z"/>
	<path class="st84" d="M62.1,84.1c0-1.4,0.6-2.7,1.4-3.8c1.7,2.1,3.4,4.4,4.2,6.9c-1.1,0.8-2.7,1.1-4,0.7
		C62.6,87.2,62.3,85.5,62.1,84.1z"/>
	<path class="st91" d="M78,81.4c2.1,0.3,4.2,0.7,6.4,1.1c1.1,0.3,2.4,0.3,3.4,0.8c-1.4,0.1-2.8-0.1-4.2-0.4
		c-1.8-0.4-3.7-0.7-5.4-1.3C78.1,81.7,78,81.6,78,81.4z"/>
	<path class="st25" d="M24.9,84.4c0.3-0.8,0.7-1.8,1.4-2.5c-0.6,1.6-1.3,3-1.6,4.5c-0.3,1.4-0.1,3-0.1,4.4
		C23.8,88.7,24.2,86.4,24.9,84.4z"/>
	<path class="st92" d="M27.6,82c3.5,0.7,7.1,0.8,10.6,1c-0.1,0.3-0.3,0.6-0.6,0.7c-3-0.1-5.8-0.4-8.8-0.7c-0.6,0-1.1-0.1-1.7-0.4
		C27.5,82.6,27.6,82.1,27.6,82z"/>
	<path class="st93" d="M12.5,82.4c0.1,0.4,0.4,0.8,0.4,1.1v0.3c0,0.4,0,0.8-0.1,1.3c0,0.6,0,1,0,1.6s0,1,0,1.6
		c0,0.1,0.1,0.4,0.1,0.6c0.1,0.8,0.4,1.7,0.8,2.4c0.4,1,1.4,1.3,2.3,1.8c-0.7,0.1-1.3,0.3-2,0.4c-0.8-0.3-1.3-1.1-1.8-1.7v-0.1
		c0.1-1.4-0.6-2.5-0.6-4C11.6,85.8,12,84.1,12.5,82.4z"/>
	<path class="st83" d="M26.8,84.4c0.1-0.6,0.3-1.1,0.6-1.7c0.6,0.1,1.1,0.4,1.7,0.4c3,0.3,5.8,0.4,8.8,0.7c-0.4,0.7-0.7,1.4-1.1,2.3
		c0-0.1,0-0.6,0-0.7C33.4,84.8,30,85,26.8,84.4z"/>
	<path class="st85" d="M12.9,83.6c0.3-0.3,0.4-0.8,1-0.7c1.8,0.1,3.5,0.7,5.4,0.8c1.3,0.1,2.7,0,3.8,0.7c0,0.3-0.1,0.7-0.3,0.8
		c-3.3-0.3-6.7-0.7-9.9-1.3V83.6z"/>
	<path class="st25" d="M45.7,83c1.7-0.4,3.3,0.8,3.8,2.4c0.8,2.4,0.3,5.5-1.8,7.1c-1.1,1-2.8,1.4-4.2,0.7c-1.8-0.7-2.3-3-2.1-4.7
		C41.5,86,43.3,83.6,45.7,83z"/>
	<path class="st75" d="M75.6,83c2,0.3,4,0.8,5.9,1.3c1.4,0.3,3,0.4,4.4,0.7C82.4,85.1,78.8,84,75.6,83z"/>
	<path class="st84" d="M43.7,84.4c1-0.8,2.5-1.6,3.8-0.7c-0.7,3.3-2.1,6.4-4.5,8.9C41,90.4,41.3,86.3,43.7,84.4z"/>
	<path class="st83" d="M12.9,83.8c3.3,0.6,6.7,1,9.9,1.3c0,0.1-0.1,0.6-0.3,0.8c0,0.1-0.1,0.3-0.1,0.4c-3.3-0.1-6.5-0.6-9.6-1.4
		C12.9,84.7,12.9,84.3,12.9,83.8z"/>
	<path class="st84" d="M47.8,83.8c1.3,0.7,1.7,2.1,1.7,3.5c0.1,2.3-1,4.7-3.3,5.5c-0.8,0.4-1.8,0.1-2.7,0
		C45.6,90.2,47.4,87.2,47.8,83.8z"/>
	<path class="st85" d="M26.8,84.4c3.3,0.4,6.7,0.4,9.9,0.8c0,0.1,0,0.6,0,0.7s-0.1,0.4-0.1,0.7c-3.3-0.7-6.7-0.7-9.9-1.3
		C26.6,85.1,26.6,84.8,26.8,84.4z"/>
	<path class="st85" d="M12.9,85.1c3.1,0.8,6.4,1.1,9.6,1.4c0-0.1,0.1-0.3,0.1-0.4c-0.3,1.4-0.4,2.7-0.1,4.1c0,0.1,0,0.4,0,0.6
		c-3-0.1-5.9-0.8-8.9-1.1c-0.1-0.3-0.3-0.6-0.4-0.8c0-0.1-0.1-0.4-0.1-0.6c3.1,0.4,6.2,1,9.3,1.3c0-0.6,0-1,0-1.6
		c-3.1-0.6-6.2-0.7-9.3-1.3C12.7,86.1,12.7,85.7,12.9,85.1z"/>
	<path class="st91" d="M75.7,85c1.4,0,2.8,0.4,4.2,0.7c0.7,0.1,1.4,0.3,2,0.8c-2-0.1-4-0.6-5.8-1.1C76,85.4,75.9,85.1,75.7,85z"/>
	<path class="st90" d="M26.5,85.5c3.3,0.6,6.7,0.6,9.9,1.3c-0.3,1.6-0.4,3.1-0.4,4.7c-3.1-0.3-6.1-0.8-9.2-1.1
		c0,0.1-0.1,0.4-0.1,0.6c-0.1-0.7-0.3-1.6-0.3-2.3c3.3,0.4,6.4,0.8,9.6,1.3c0-0.7,0-1.3,0.1-2c-3.3-0.3-6.5-0.7-9.6-0.8
		C26.5,86.5,26.5,86,26.5,85.5z"/>
	<path class="st94" d="M58.3,86c0.3-0.1,0.4-0.3,0.7-0.6c0.1,0.6,0.3,1.1,0.4,1.7l-0.6-0.6c0,0.1,0.1,0.6,0.1,0.8c1.1,1,1,2.8,0,4
		c-1.3,1.6-4,2.4-5.5,0.8c-1.3-1.6-0.7-3.8,0.4-5.2c-0.4,0.3-0.8,0.7-1.3,1c0-0.6,0-1.3,0-1.8c0.6,0.3,1.1,0.4,1.6,0.7
		c1.3,0,2.4-0.4,3.7-0.3l0.4,0.4c0.1-0.1,0.4-0.4,0.6-0.6L58.3,86z"/>
	<path class="st75" d="M82.8,87.1c2-0.4,4-1.3,5.9-1.6c-4.8,1.6-9.8,3.1-14.7,4.2C76.7,88.5,79.8,88,82.8,87.1z"/>
	<path class="st83" d="M12.7,86.7c3.1,0.4,6.2,0.7,9.3,1.3c0,0.6,0,1,0,1.6c-3.1-0.1-6.2-0.8-9.3-1.3C12.9,87.7,12.9,87.2,12.7,86.7
		z"/>
	<path class="st81" d="M26.3,87c3.3,0.3,6.5,0.7,9.6,0.8c0,0.7,0,1.3-0.1,2c-3.3-0.4-6.4-0.8-9.6-1.3C26.3,88,26.3,87.5,26.3,87z"/>
	<path class="st95" d="M74.7,86.8c1.1,0.1,2.5,0.1,3.4,1C77.1,87.7,75.6,87.8,74.7,86.8z"/>
	<path class="st93" d="M54.4,91.3c-1.4-1.1-0.4-3.5,1.1-4l-0.1,0.1c-1,0.7-1.8,2-1.1,3.3c1,1.7,3.7,0.6,3.8-1.3
		c0.1-0.8-0.3-1.6-0.8-2.1L57,87.2c0.8,0.3,1.3,1.1,1.1,1.8C58.5,91.1,55.8,92.6,54.4,91.3z"/>
	<path class="st96" d="M55.2,87.5c0.7-0.1,1.3-0.1,2,0c0.6,0.6,1,1.3,0.8,2.1c-0.1,1.7-2.8,2.8-3.8,1.3
		C53.5,89.5,54.2,88.2,55.2,87.5z"/>
	<path class="st90" d="M13,88.8c0.1,0.3,0.3,0.6,0.4,0.8c3,0.3,5.9,0.8,8.9,1.1c0-0.1,0-0.4,0-0.6c0.1,0.7,0.3,1.4,0.4,2.1
		c-1.6-0.1-3.1-0.3-4.5-0.6c-1.6-0.1-3-0.6-4.5-0.4C13.4,90.5,13.2,89.6,13,88.8z"/>
	<path class="st85" d="M26.9,90.2c3.1,0.3,6.1,0.8,9.2,1.1c0,0.4,0,0.8,0.1,1.3c-1.7-0.3-3.5-0.6-5.2-0.8c-1.4-0.3-2.8-0.3-4.1-0.7
		l-0.1-0.3C26.8,90.6,26.8,90.4,26.9,90.2z"/>
	<path class="st97" d="M69.1,90.2C69.2,90.4,69.2,90.4,69.1,90.2z"/>
	<path class="st74" d="M59,92.3c0.3-0.6,0.7-1.1,1-1.7c1.1,0.1,2.3,0.3,3.5,0.3c-0.1,0.3-0.3,0.6-0.7,0.6c-1,0.1-1.8,0.1-2.8,0
		c0.1,0.1,0.6,0.3,0.7,0.3C60.3,92.1,59.7,92.2,59,92.3z"/>
	<path class="st85" d="M13.7,91.2c1.6-0.1,3.1,0.3,4.5,0.4c1.6,0.1,3.1,0.4,4.5,0.6c0.3,0.6,0.4,1.1,0.7,1.6
		c-2.5,0.1-5.1-0.8-7.6-0.7C15.1,92.6,14.2,92.2,13.7,91.2z"/>
	<path class="st90" d="M26.8,91.2c1.3,0.6,2.7,0.6,4.1,0.7c1.7,0.3,3.4,0.6,5.2,0.8c0.1,0.4,0.3,1,0.4,1.4c-2.8-0.3-5.7-0.7-8.5-1.1
		c0,0.1,0,0.4,0,0.6C27.5,92.8,27.2,92.1,26.8,91.2z"/>
	<path class="st98" d="M38.5,91.2c0.3,0,0.8,0,1.1,0c0.1,0.6,0.3,1.1,0.6,1.6v0.6c-0.3-0.3-0.6-0.6-0.8-0.8c0.3,1.1,1.1,2,1.8,3
		C39.2,95,38.8,92.9,38.5,91.2z"/>
	<path class="st85" d="M28,92.9c2.8,0.4,5.7,0.8,8.5,1.1v0.1c0,0.3,0.1,0.7,0.1,1c-2.5-0.1-5.2-0.7-7.8-0.7c-0.3-0.3-0.6-0.6-0.8-1
		C28,93.5,28,93,28,92.9z"/>
	<path class="st71" d="M48.8,94.9c0.7-0.7,1.3-1.3,1.8-2c1.1,0.1,2.4,0.3,3.5,0.6c-0.1,0.3-0.4,0.4-0.7,0.4
		C51.9,94.2,50.4,94.6,48.8,94.9z"/>
	<path class="st99" d="M36.5,94.3c0.4,1,0.8,1.8,1.4,2.7c-1-0.3-2-0.7-3.1-0.6c-2-1-4.4-0.3-6.1-1.8c2.7,0,5.2,0.6,7.8,0.7
		C36.7,95,36.7,94.6,36.5,94.3z"/>
</g>
</svg>
