<svg id="Layer_1" data-name="Layer 1" xmlns="http://www.w3.org/2000/svg" viewBox="0 0 100 100"><defs><style>.cls-1{fill:#181f7a;}.cls-2{fill:#d9f6fe;}.cls-3{fill:#f3fcfe;}.cls-4{fill:#7484fe;}.cls-5{fill:#d7e0ff;}.cls-6{fill:#d4ddff;}.cls-7{fill:#e6ecfe;}.cls-8{fill:#030328;}.cls-9{fill:#99b0fe;}.cls-10{fill:#73abff;}.cls-11{fill:#d9e2fe;}.cls-12{fill:#7382fe;}.cls-13{fill:#f3f6fe;}.cls-14{fill:#d4d9fe;}.cls-15{fill:#f7f9fe;}.cls-16{fill:#73abfe;}.cls-17{fill:#0e0c43;}.cls-18{fill:#0e1749;}.cls-19{fill:#1a214e;}.cls-20{fill:#040404;}.cls-21{fill:#fff;}.cls-22{fill:#d1e3fe;}.cls-23{fill:#030348;}.cls-24{fill:#9ea6a9;}.cls-25{fill:#050505;}.cls-26{fill:#798082;}.cls-27{fill:#474f52;}.cls-28{fill:#2c3336;}.cls-29{fill:#039ad9;}.cls-30{fill:#c9e7ea;}.cls-31{fill:#293132;}.cls-32{fill:#7d8689;}.cls-33{fill:#4d535c;}.cls-34{fill:#4b515a;}.cls-35{fill:#7a8386;}.cls-36{fill:#1f2426;}.cls-37{fill:#fefefe;}.cls-38{fill:#616b70;}.cls-39{fill:#35393f;}.cls-40{fill:#4a5059;}.cls-41{fill:#61808b;}.cls-42{fill:#454d50;}.cls-43{fill:#aadce0;}.cls-44{fill:#667384;}.cls-45{fill:#0d1213;}.cls-46{fill:#9fa5ac;}.cls-47{fill:#91bdc0;}.cls-48{fill:#3e4344;}.cls-49{fill:#474d4f;}.cls-50{fill:#495155;}.cls-51{fill:#9ba8b8;}.cls-52{fill:#677485;}.cls-53{fill:#030303;}.cls-54{fill:#f3e7c0;}.cls-55{fill:#c1d4ea;}.cls-56{fill:#ca514b;}.cls-57{fill:#9f4a45;}.cls-58{fill:#838079;}.cls-59{fill:#4f5967;}.cls-60{fill:#626c71;}.cls-61{fill:#bab09b;}.cls-62{fill:#717377;}.cls-63{fill:#cdd3d7;}.cls-64{fill:#d72f30;}.cls-65{fill:#85827b;}.cls-66{fill:#ced3d9;}.cls-67{fill:#be524d;}.cls-68{fill:#4c555e;}.cls-69{fill:#687486;}.cls-70{fill:#353c46;}.cls-71{fill:#4e5762;}.cls-72{fill:#9ca9b9;}.cls-73{fill:#808995;}.cls-74{fill:#23272b;}.cls-75{fill:#6b6c6e;}.cls-76{fill:#343b45;}.cls-77{fill:#818b97;}.cls-78{fill:#7e8894;}.cls-79{fill:#dfe3e8;}.cls-80{fill:#4f5863;}.cls-81{fill:#b6b8b9;}.cls-82{fill:#7f8995;}.cls-83{fill:#929eaf;}.cls-84{fill:#d0d5de;}.cls-85{fill:#808a96;}.cls-86{fill:#505964;}.cls-87{fill:#d2d7df;}.cls-88{fill:#828c98;}.cls-89{fill:#0e0f11;}.cls-90{fill:#4e5054;}.cls-91{fill:#d7dbe2;}.cls-92{fill:#6f7175;}.cls-93{fill:#0c0d0f;}.cls-94{fill:#515a64;}</style></defs><path class="cls-1" d="M46.24,16.33a14,14,0,0,1,15.41,3.48,14.08,14.08,0,0,1,3.48,13.08h0a13.12,13.12,0,0,1-3.68,6.54,0.63,0.63,0,0,0-.52-0.31,13.54,13.54,0,0,0,3.94-7.78,13.45,13.45,0,0,0-10.43-15,13.29,13.29,0,0,0-7.78.52,13.58,13.58,0,0,0-6.07,20.6A17,17,0,0,0,43,40c-0.52-.16-0.93-0.21-1.45-0.36a0.81,0.81,0,0,0-.31-0.42,14,14,0,0,1-2.85-15A14.26,14.26,0,0,1,46.24,16.33Z"/><path class="cls-2" d="M46.66,16.8a13.05,13.05,0,0,1,7.84-.52,13.81,13.81,0,0,1,9,6.85,13.39,13.39,0,0,1,1.45,8.25A13.24,13.24,0,0,1,61,39.16a6.21,6.21,0,0,1-1.71.67A13.92,13.92,0,0,0,63,35.37a12.7,12.7,0,0,0-.31-12c-0.52-.88-1.61-0.57-2.44-0.67a2.7,2.7,0,0,0-.67-2,0.55,0.55,0,0,0-.73,0,2.81,2.81,0,0,0-1.3,2.08,2.62,2.62,0,0,0-1.45-.93c-0.67-.16-1.61-0.16-1.82.57a4.17,4.17,0,0,1-1.4.21,1.64,1.64,0,0,0-.73-0.73,2.77,2.77,0,0,0-.67.67C51.23,22,51.28,21,50.5,21.1a0.9,0.9,0,0,0-.67.83c-0.42-.52-1.19-1.25-1.92-0.83a1.09,1.09,0,0,0-.05,1.25,10.66,10.66,0,0,1-2.8-.36,3.81,3.81,0,0,0,1.56-1.19,2,2,0,0,0,.93-1.71,0.85,0.85,0,0,0-.93-0.67,2.64,2.64,0,0,0-2.18.83,12.24,12.24,0,0,0-2.34,2.85,1,1,0,0,0-.42.16,2.76,2.76,0,0,0-1.19.88,12.56,12.56,0,0,0-1.76,6.69,13,13,0,0,0,3.74,9,23.18,23.18,0,0,0,2.13,1.82A5.78,5.78,0,0,1,43,40.2a23,23,0,0,1-2.44-2.65,13.57,13.57,0,0,1-1.19-13.91A13.76,13.76,0,0,1,46.66,16.8Z"/><path class="cls-3" d="M44.32,19.13a3.37,3.37,0,0,1,2.23-.88,0.83,0.83,0,0,1,.93.67c0.16,0.73-.52,1.25-0.93,1.71A4.32,4.32,0,0,1,45,21.83a12,12,0,0,0-3.06.21A16.19,16.19,0,0,1,44.32,19.13Z"/><path class="cls-4" d="M50.08,19.81c-0.21-.31-0.31-0.73.05-0.88a1.28,1.28,0,0,1,1,.52,4.09,4.09,0,0,1,.67,1.71A6.63,6.63,0,0,1,50.08,19.81Z"/><path class="cls-5" d="M50.14,19.08a1.72,1.72,0,0,1,1.4,1.61C51,20.33,50.14,19.86,50.14,19.08Z"/><path class="cls-6" d="M53,20.22a0.93,0.93,0,0,1,1.09-.88,1.13,1.13,0,0,1-.73,1.3C53.09,20.84,52.84,20.53,53,20.22Z"/><path class="cls-4" d="M53.72,22A4.32,4.32,0,0,1,56,19.5c0.31-.05.42,0.05,0.36,0.36a3.18,3.18,0,0,1-1.61,1.25A4.25,4.25,0,0,0,53.72,22Z"/><path class="cls-7" d="M54.6,20.9a2.46,2.46,0,0,1,1.71-1.19A2.37,2.37,0,0,1,54.6,20.9Z"/><path class="cls-8" d="M57.51,22.66a2.47,2.47,0,0,1,1.3-2.08,0.55,0.55,0,0,1,.73,0,2.7,2.7,0,0,1,.67,2v0.36a1.55,1.55,0,0,1-.31.73,3.08,3.08,0,0,1-.42-0.21,2.64,2.64,0,0,0-.05-2.34c-0.16-.36-0.57-0.21-0.83,0a3.08,3.08,0,0,0-.83,2,3.56,3.56,0,0,0-3-1,1.64,1.64,0,0,0,.36,1.82,1.63,1.63,0,0,1-.88-1.19V22.25c0.21-.73,1.19-0.73,1.76-0.57A4.23,4.23,0,0,1,57.51,22.66Z"/><path class="cls-9" d="M47.91,20.9c0.73-.42,1.45.31,1.92,0.83a1,1,0,0,1,.67-0.83c0.83-.05.73,0.93,0.93,1.45a2.77,2.77,0,0,1,.67-0.67,1.12,1.12,0,0,1,.73.73,4.17,4.17,0,0,0,1.4-.21v0.42a2,2,0,0,1-1.45.16,3.62,3.62,0,0,1-.67-0.83c-0.21.31-.52,0.93-0.93,0.67-0.36-.42-0.05-1.4-0.88-1.4,0,0.42.05,0.88,0.05,1.3a15.45,15.45,0,0,1-1.4-1.19,0.75,0.75,0,0,0-1-.16,2.48,2.48,0,0,0,.21.93,1.55,1.55,0,0,1-.93.31c-0.83-.05-1.61-0.16-2.44-0.16,0.05-.21.16-0.36,0.21-0.57a7.19,7.19,0,0,0,2.8.36A1,1,0,0,1,47.91,20.9Z"/><path class="cls-10" d="M58.49,21.1c0.21-.21.67-0.36,0.83,0a2.48,2.48,0,0,1,.05,2.34,3.08,3.08,0,0,1,.42.21l0.05,0.05a5.4,5.4,0,0,0-4.72.16A1.8,1.8,0,0,1,54.76,22a3.74,3.74,0,0,1,3,1A2.88,2.88,0,0,1,58.49,21.1Z"/><path class="cls-11" d="M47.91,21.26a0.7,0.7,0,0,1,1,.16,7.75,7.75,0,0,0,1.4,1.19,10.85,10.85,0,0,0-.05-1.3c0.73,0,.52.93,0.88,1.4,0.52,0.21.73-.36,0.93-0.67a2.17,2.17,0,0,0,.67.83,1.76,1.76,0,0,0,1.45-.16,1.89,1.89,0,0,0,.88,1.19,5.39,5.39,0,0,1,4.72-.16l0.05-.05A4.37,4.37,0,0,1,60.2,23a7.06,7.06,0,0,1,2.08.21,0.39,0.39,0,0,1,.31.42,1.34,1.34,0,0,1-1.25.88c-1.71.16-3.32-1.19-5-.57a7.38,7.38,0,0,1-3.32.73c-1.19-.05-2.13-0.93-3.17-1.45a4.81,4.81,0,0,0-2.44-.52,14.12,14.12,0,0,0-3.48.83,4.15,4.15,0,0,0,.67-1.09,11.79,11.79,0,0,0-2.7.16,0.39,0.39,0,0,0-.36-0.36A1,1,0,0,0,42,22a10.27,10.27,0,0,1,3.06-.21C45,22,44.9,22.19,44.84,22.4c0.83,0,1.61.16,2.44,0.16a1.82,1.82,0,0,0,.93-0.31A1.83,1.83,0,0,1,47.91,21.26Z"/><path class="cls-12" d="M40.38,23a2.34,2.34,0,0,1,1.19-.88,0.35,0.35,0,0,1,.36.36c-0.05,0-.31.05-0.42,0.05a1.55,1.55,0,0,0-.73.31c0.05,0.36.83,0.57,0.36,1a3.64,3.64,0,0,0-.52-0.42,12.2,12.2,0,0,0-1,9.34,12.71,12.71,0,0,0,7.06,8,14.5,14.5,0,0,1-2.08-.36,17.17,17.17,0,0,1-2.13-1.82,12.43,12.43,0,0,1-3.84-8.87A12.17,12.17,0,0,1,40.38,23Z"/><path class="cls-13" d="M41.89,22.51a11.79,11.79,0,0,1,2.7-.16,5.56,5.56,0,0,1-.67,1.09l-0.16.16a7.77,7.77,0,0,1-2.44-.21,5.24,5.24,0,0,1,.16-0.88A0.55,0.55,0,0,0,41.89,22.51Z"/><path class="cls-14" d="M40.74,22.87a4.37,4.37,0,0,1,.73-0.31,5.24,5.24,0,0,1-.16.88,7.77,7.77,0,0,0,2.44.21,1.77,1.77,0,0,0-.05.52,0.17,0.17,0,0,0-.16.16A5.81,5.81,0,0,1,41.21,24l-0.1-.05C41.52,23.49,40.74,23.28,40.74,22.87Z"/><path class="cls-4" d="M44,23.49a12.19,12.19,0,0,1,3.48-.83,4,4,0,0,1,2.44.52c1,0.52,1.92,1.4,3.17,1.45a6.63,6.63,0,0,0,3.32-.73c1.71-.57,3.32.73,5,0.57a1.25,1.25,0,0,0,1.25-.88,0.36,0.36,0,0,0-.31-0.42A6.72,6.72,0,0,0,60.2,23V22.61c0.83,0.05,2-.21,2.44.67a12.84,12.84,0,0,1,.31,12,13.92,13.92,0,0,1-3.68,4.46c-0.57.16-1.19,0.31-1.76,0.42a12.4,12.4,0,0,0,5.14-15.93c-0.83.93-2.28,0.73-3.37,0.36a0.56,0.56,0,0,1-.36-0.16,3,3,0,0,0-2.59-.05c-0.05,0-.21.05-0.31,0.05a5,5,0,0,1-4.62,0,8.24,8.24,0,0,0-3.17-1.4c-1.61-.16-3,0.67-4.46,1,0-.16.05-0.36,0.05-0.52C43.81,23.65,43.91,23.54,44,23.49Z"/><path class="cls-7" d="M43.65,24.22c1.45-.36,3-1.19,4.46-1,1.19,0.05,2.18.88,3.17,1.4a5.34,5.34,0,0,0,4.62,0,4.15,4.15,0,0,1,1,1.45,4.29,4.29,0,0,1-2,.52,51.29,51.29,0,0,1-6.33-.21,19.39,19.39,0,0,0-4.62.36,3.53,3.53,0,0,0-2.28,1.19A5.15,5.15,0,0,0,41,31.28a10,10,0,0,0,3.84,7.27,11,11,0,0,0,6.49,1.76,11.68,11.68,0,0,0,3.74-.57,9.6,9.6,0,0,0,5.5-4.57,9.14,9.14,0,0,0,.67-5,6.62,6.62,0,0,0-1.4-3.48c-0.21-.31-0.52-0.57-0.73-0.88,0-.36.16-0.67,0.16-1,1.09,0.31,2.59.57,3.37-.36a12.23,12.23,0,0,1-.05,10.43,13.34,13.34,0,0,1-5.09,5.5,34.7,34.7,0,0,1-10.85.57,12.71,12.71,0,0,1-7.06-8,13,13,0,0,1,1-9.34,3.64,3.64,0,0,0,.52.42l0.05,0.05a6.45,6.45,0,0,0,.05,1.4,0.8,0.8,0,0,0,1.09.31c0.42-.36.73-0.88,1.19-1.3A0.27,0.27,0,0,1,43.65,24.22Z"/><path class="cls-15" d="M41.16,24a7.09,7.09,0,0,0,2.34.36,6.94,6.94,0,0,1-1.19,1.3,0.68,0.68,0,0,1-1.09-.31A4,4,0,0,1,41.16,24Z"/><path class="cls-16" d="M56.21,24.43a3.72,3.72,0,0,1,2.59.05,1.85,1.85,0,0,0-.21,1.4A11.63,11.63,0,0,1,60,27.64a13.09,13.09,0,0,1,.83,3.48,8,8,0,0,1-2.7,5.66,12.6,12.6,0,0,1-3,1.92h0a0.51,0.51,0,0,0-.42.16,4.89,4.89,0,0,1-3.22-1,5.38,5.38,0,0,1-1.3-3.53V34.08a11.34,11.34,0,0,1-7.73.42,8,8,0,0,1-.88-6c0.21-.93,1.25-1.3,2.13-1.45a27.5,27.5,0,0,1,4.62-.16c1.82,0,3.58.21,5.35,0.31a7.9,7.9,0,0,0,3-.57,0.92,0.92,0,0,0,.52-1.09A5.21,5.21,0,0,0,56.21,24.43Z"/><path class="cls-17" d="M56,24.58c0.05,0,.21-0.05.31-0.05a3.85,3.85,0,0,1,.83,1,1,1,0,0,1-.52,1.09,6.41,6.41,0,0,1-3,.57c-1.76-.05-3.58-0.31-5.35-0.31a27.5,27.5,0,0,0-4.62.16c-0.88.16-1.92,0.52-2.13,1.45a8,8,0,0,0,.88,6,11.34,11.34,0,0,0,7.73-.42v0.21c-2.44.93-5.24,1.4-7.73,0.31A9.2,9.2,0,0,0,47.91,39a11,11,0,0,0,6.85-.05,0.51,0.51,0,0,0,.42-0.16,3.08,3.08,0,0,0-.21.42,10.69,10.69,0,0,1-3,.57,9.73,9.73,0,0,1-2.13-.05,1.77,1.77,0,0,0-1,0c0.73,0.16,1.56.21,2.28,0.31a1.62,1.62,0,0,1,.21.31,11.32,11.32,0,0,1-6.49-1.76A10.22,10.22,0,0,1,41,31.28a5.33,5.33,0,0,1,.73-3.37A4.62,4.62,0,0,1,44,26.71a23.11,23.11,0,0,1,4.62-.36c2.13,0,4.26.42,6.33,0.21a3.32,3.32,0,0,0,2-.52A2.31,2.31,0,0,0,56,24.58Z"/><path class="cls-18" d="M58.8,24.58a0.56,0.56,0,0,1,.36.16,7.16,7.16,0,0,0-.16,1c0.21,0.31.52,0.57,0.73,0.88a6.29,6.29,0,0,1,1.4,3.48,9,9,0,0,1-.67,5A9.8,9.8,0,0,1,55,39.68c0-.05-0.05-0.16-0.05-0.21a4.71,4.71,0,0,1,.73-0.36,3.1,3.1,0,0,1-.57-0.31,11.15,11.15,0,0,0,3-1.92,7.85,7.85,0,0,0,2.7-5.66,10.32,10.32,0,0,0-.83-3.48A5.7,5.7,0,0,0,58.49,26,2.16,2.16,0,0,1,58.8,24.58Z"/><path class="cls-19" d="M49.2,26.71a10.61,10.61,0,0,1,1.82,0C50.34,26.71,49.77,26.76,49.2,26.71Z"/><path class="cls-20" d="M52.47,30.55c1.4-.36,3,1.25,2.13,2.59a2.11,2.11,0,0,1-3.58.52A2.18,2.18,0,0,1,52.47,30.55Z"/><path class="cls-21" d="M51.75,31.07a1.89,1.89,0,0,1,2.7.57,1.51,1.51,0,0,1-.21,1.71,2,2,0,0,1-3,.21H51.8a1.67,1.67,0,0,0,1-1.3A1.19,1.19,0,0,0,51.75,31.07Z"/><path class="cls-22" d="M42.35,34.54a10.24,10.24,0,0,0,7.73-.31,5.21,5.21,0,0,0,1.3,3.53,5.19,5.19,0,0,0,3.22,1,10.67,10.67,0,0,1-6.85.05A8.77,8.77,0,0,1,42.35,34.54Z"/><path class="cls-23" d="M55.07,38.7h0a3.1,3.1,0,0,1,.57.31,4.71,4.71,0,0,1-.73.36c0,0.05.05,0.16,0.05,0.21a10.4,10.4,0,0,1-3.74.57,0.72,0.72,0,0,1-.16-0.21,17.23,17.23,0,0,1-2.28-.31,1.77,1.77,0,0,1,1,0c0.73,0.05,1.4.05,2.13,0.05a8.78,8.78,0,0,0,3-.57A1.76,1.76,0,0,0,55.07,38.7Z"/><path class="cls-24" d="M41.26,39.21a1.25,1.25,0,0,0,.31.42v0.05c0,0.05.05,0.16,0.05,0.21a17.47,17.47,0,0,0,5.24,1.4,4.47,4.47,0,0,0-.16,1.4,7.37,7.37,0,0,0-2.13-.16h-0.1V42.38c-0.42-.05-0.88-0.16-1.3-0.21a0.53,0.53,0,0,0-.52.16A1.28,1.28,0,0,0,42.51,44c0.67,0.67,1.76.52,2.59,1a0.91,0.91,0,0,1,.36.73c-1.71-.31-3.74-0.42-4.93-1.92a6.41,6.41,0,0,1,.05-2.8,1.61,1.61,0,0,1,.67-1.3A0.8,0.8,0,0,0,41,39.58h0A1.06,1.06,0,0,1,41.26,39.21Z"/><path class="cls-25" d="M59.22,39.79a6.92,6.92,0,0,0,1.71-.67,0.53,0.53,0,0,1,.52.31,6.61,6.61,0,0,1,.21.73,3.22,3.22,0,0,1,2,.36A2.1,2.1,0,0,1,63.68,43c-0.36.42-1,.42-1.3,1a5.23,5.23,0,0,1-.05,1.56,2.07,2.07,0,0,1-.88.88l0.16,0.21a5.38,5.38,0,0,0,.52.21c-0.05,0-.21.05-0.31,0.05a6.76,6.76,0,0,1,.42.88c0.31-.05.52-0.16,0.83-0.21a4.37,4.37,0,0,0-.73.31c0.16,0.21.21,0.42,0.36,0.67a3.64,3.64,0,0,0,.73-0.16,2.34,2.34,0,0,1-.57.16,6.46,6.46,0,0,1-.52,1c0.21,0.36.36,0.73,0.57,1a2.26,2.26,0,0,0,.88-2.34A2.53,2.53,0,0,0,63,47.1a1.93,1.93,0,0,1,.93.88,2.66,2.66,0,0,1-.57,2.7c0.16,0.31.31,0.57,0.42,0.83-0.88,1.25-2.59,1-3.84,1.4A0.84,0.84,0,0,0,59.32,54a6.38,6.38,0,0,1-.05,1.71,0.86,0.86,0,0,0,.52-0.52c0,0.21-.05.42-0.05,0.57H59.06A2.6,2.6,0,0,1,56.47,57a1.22,1.22,0,0,1,0-1.71c-0.36.05-.83,0.16-1.19,0.21l0.05,0.16a7.82,7.82,0,0,0-1.56.05c0.16,0,.21.05,0.36,0.05v0.57c0.36,0.05.73,0.16,1,.21a0.56,0.56,0,0,1,.36.16c0.21,0.67.16,1.4,0.36,2.08a3.24,3.24,0,0,0,2.85-.31c0.42-.52.21-1.3,0.31-2C59,56,59.74,56,59.94,55.56a2.73,2.73,0,0,0,.21-0.93,4,4,0,0,0-.73.05c0.42-.42,0-1.4.73-1.61a35.57,35.57,0,0,1,4.62-.73,1.44,1.44,0,0,0-1-.52,3.64,3.64,0,0,1,.73-0.16c0.67,0.05.42,0.88,0.31,1.3,1.4,0.52,2,2.08,2.34,3.37a5.29,5.29,0,0,1-1.61,5.29,7.05,7.05,0,0,1-1.56.67c-4.41,1.09-8.82,2.18-13.23,3.06a10.85,10.85,0,0,1-1.3-.05C48.16,65,46.76,65,45.52,64.64c-0.93-.21-2.08-0.05-2.8-0.88a4.05,4.05,0,0,1-1.76.05c-1.19-.16-2.34-0.42-3.53-0.57a6.06,6.06,0,0,1-1.92-.42c0.36-.05.67-0.16,1-0.21,1.3-.05,2.65.42,3.94,0.36a2.89,2.89,0,0,1-.36-0.83c-0.05-.36-0.16-0.73-0.21-1.09A5.84,5.84,0,0,1,40,58.93a0.83,0.83,0,0,1,.16-0.42,0.51,0.51,0,0,1,.16-0.42,3.18,3.18,0,0,1,.36-0.88A0.28,0.28,0,0,1,40.8,57a4.32,4.32,0,0,1,.67-0.93A4.89,4.89,0,0,1,42,55.56c0.21-.16.36-0.36,0.57-0.52a0.57,0.57,0,0,0,.31-0.16c-0.42.57-1,.88-1.4,1.45a6.37,6.37,0,0,0-1,3.17,5.31,5.31,0,0,0,.67,3.37,1.3,1.3,0,0,0,1.19.36,1,1,0,0,0-.36.31h0.93a2.47,2.47,0,0,1-1.3-2.08,6.88,6.88,0,0,1,1.61-5.66A4.67,4.67,0,0,1,44.12,55l-0.05.21a1.94,1.94,0,0,1-.36.31l-0.57.57a3.1,3.1,0,0,0-.42.83c-0.05.05-.16,0.31-0.21,0.36a6,6,0,0,0-.31.88,1.77,1.77,0,0,0-.05.52c0,0.31-.05.52-0.05,0.83v0.83a4.71,4.71,0,0,0,.16,1.19l0.05,0.21A4.17,4.17,0,0,0,43,63a3.64,3.64,0,0,1,.42.52c0.83,0.83,2.13.52,3.17,0.93a4.23,4.23,0,0,1,1.61.31,7.18,7.18,0,0,1-.73-1.4V63.29c-0.05-.21-0.16-0.52-0.21-0.73a3.19,3.19,0,0,0-.05-0.67,12.9,12.9,0,0,1,.21-2.44,2.93,2.93,0,0,0,.05-0.36A12.47,12.47,0,0,1,48,57.9a0.55,0.55,0,0,1,.31-0.36c0.21-.21.36-0.52,0.57-0.73a4,4,0,0,1,.57-0.42,11.74,11.74,0,0,1,1-.67,1.1,1.1,0,0,1,.36-0.16c0,0.05-.05.16-0.05,0.21a5,5,0,0,0-3,4,11.49,11.49,0,0,0,.16,3,3.53,3.53,0,0,1,.42,1.61,0.57,0.57,0,0,0,.31-0.16,3.82,3.82,0,0,0,1.61.88A3.42,3.42,0,0,0,51.9,65c1.09-.31,2.13-0.52,3.22-0.73,2.49-.52,5-1.25,7.47-1.76A7.57,7.57,0,0,0,64.36,62a4.83,4.83,0,0,0,2.18-2.85,6.37,6.37,0,0,0-.73-4.72,2.78,2.78,0,0,0-1.25-1.19V52.86c-1.45.21-2.85,0.42-4.36,0.67a0.88,0.88,0,0,0-.52.36c1.4-.05,2.8-0.52,4.2-0.57a12.78,12.78,0,0,1-4.2.73v0.52a29.22,29.22,0,0,1,4.72-.52A3.9,3.9,0,0,1,66,56.86c0.16,1.61-.21,3.58-1.71,4.41a5.21,5.21,0,0,0,1.25-1.76,17.85,17.85,0,0,1-1.4,1.4,3.93,3.93,0,0,1-1.3.83c-1.09.31-2.18,0.52-3.32,0.83-1.76.42-3.48,1-5.24,1.3a20.39,20.39,0,0,1-3.89.67,11.91,11.91,0,0,1-1.4-1.4l0.31-.05a2.66,2.66,0,0,0,3,.83,4.56,4.56,0,0,0,2.8-4.46,3.22,3.22,0,0,0-1.56-2.8,3.35,3.35,0,0,0-4.2,1.45A5,5,0,0,0,48.68,61v0.73a3.08,3.08,0,0,0-.42-0.21,6.65,6.65,0,0,1,.88-3.74c0.05,0,.21-0.05.31-0.05V57.33a4.59,4.59,0,0,1,1.3-.93c2.08-.88,4.36-1,6.54-1.56a1.77,1.77,0,0,1,.05-0.52c-0.52.05-1,.16-1.56,0.21a3.1,3.1,0,0,1,.57-0.31,7,7,0,0,1,.93-0.16c0-1-.21-2.28.52-3.17,1.09-1.3,3.32-.67,4.41-2-0.52-1.3-1.25-2.49-1.76-3.74-0.67.16-1.3,0.31-2,.42a2.81,2.81,0,0,1-.42,1.71c0,0.05.05,0.16,0.05,0.21a4.5,4.5,0,0,1-3.48,1.4,6.58,6.58,0,0,0,.16,1.76,4.42,4.42,0,0,1,1.71,1.25,1.47,1.47,0,0,1-.73,1.76,0.77,0.77,0,0,1-.05.31,1,1,0,0,1-1.25.73,2,2,0,0,1-1-.73,1.58,1.58,0,0,1-.05-1.71A2.27,2.27,0,0,0,53,51.93c-0.05.52-.05,1-0.05,1.56H52.78a2.7,2.7,0,0,1,.36-1.92,3.21,3.21,0,0,1,1.61-1c0-.52-0.05-1.09-0.05-1.61a5.34,5.34,0,0,1-.93-0.05c-0.88,1.3-1.61,2.8-2.44,4.2a1.94,1.94,0,0,0-.16,2,3.21,3.21,0,0,0,1.56-.16h0.73v0.21A10.32,10.32,0,0,1,51,55.3c-1.25-.16-2.49-0.16-3.74-0.31a9.41,9.41,0,0,0-2.7-.05h0a3.77,3.77,0,0,0-1.3-.21c-1.82-.05-3.68-0.36-5.6-0.57l-0.05-.05-0.16-.21c0-.52-0.36-1.3.21-1.61a3.09,3.09,0,0,1,1.19-2.59,0.8,0.8,0,0,1,.57-0.16c0.16-.57.57-1.09,0.73-1.71a2.7,2.7,0,0,1-.73-1.61,4,4,0,0,1,.67-2.44,9.26,9.26,0,0,1,.21-3.37,2.8,2.8,0,0,1,.16-0.52l0.42-.42a0.8,0.8,0,0,0,.31.21,1.49,1.49,0,0,0-.67,1.3,6.39,6.39,0,0,0-.05,2.8c1.19,1.45,3.22,1.61,4.93,1.92A0.91,0.91,0,0,0,45,45c-0.83-.42-1.92-0.36-2.59-1a1.34,1.34,0,0,1,.16-1.71l0.16,0.05a1.34,1.34,0,0,0,0,1.45c0.83,0.42,1.76.36,2.49,0.88a2.17,2.17,0,0,1,.42,1.09A2.27,2.27,0,0,0,46,45.29a2.57,2.57,0,0,0-.42-1,0.57,0.57,0,0,1,.31.16,1.18,1.18,0,0,1,.05,1.3,9.36,9.36,0,0,0-1.09.42,0.78,0.78,0,0,1-.21-0.21,3.61,3.61,0,0,0-1.19,1.45c-0.05.57,0,1.25,0,1.92a2.56,2.56,0,0,1-1.4.05,0.88,0.88,0,0,1,.31-0.42l0.05,0.21A1.79,1.79,0,0,0,43.08,49a10.63,10.63,0,0,1,.05-1.82,3.74,3.74,0,0,1,1.09-1.3,5,5,0,0,1-.93-0.16,3.58,3.58,0,0,0-.88,1.4,2.71,2.71,0,0,1,.16-0.93,10.87,10.87,0,0,0-1.19-.42,2.55,2.55,0,0,0-.83,2,5.58,5.58,0,0,0,1.61.36,0.54,0.54,0,0,1,.16.21H42a5.1,5.1,0,0,1-1.76-.36c-0.21.52-.42,1-0.67,1.56a2.21,2.21,0,0,1,1.3,0,8.44,8.44,0,0,1,1.19.57c-0.73,1.09-1,2.34-2,3.32a3.29,3.29,0,0,1-2.34,0c0-.21-0.05-0.52-0.05-0.73-0.52.21-.16,0.83-0.16,1.19,3.74,0.57,7.47.67,11.26,1,0.67,0.05,1.3.05,2.08,0.16a3.49,3.49,0,0,1-.05-1.45c0.52-1.61,1.71-3,2.49-4.46h-1a1,1,0,0,1-.67.52,14.13,14.13,0,0,1-3,.52c-0.36,0-.31-0.42-0.31-0.73,0.16-.67,0-1.4.21-2.08a2.16,2.16,0,0,1,.93-1.09,5,5,0,0,1-1.71-.21c0.05-.05.31-0.16,0.36-0.21a22.43,22.43,0,0,0,6.69-.67,2.2,2.2,0,0,1,.36-1.61,4,4,0,0,1,2.34-1,6.62,6.62,0,0,0-.05-1,2.42,2.42,0,0,0-.73-0.73,7.9,7.9,0,0,0-2.18.31,25.48,25.48,0,0,1-4.46.36C49,41.5,48,41.39,47,41.39a1.5,1.5,0,0,0-.16,1.25,28.27,28.27,0,0,0,5.14.05,1.77,1.77,0,0,1-.16.88,0.17,0.17,0,0,1-.16-0.16c0-.16-0.05-0.52-0.05-0.67a0.81,0.81,0,0,1-.31.42L51.12,43a19.78,19.78,0,0,1-6.54-.42V42.48a5.91,5.91,0,0,1,2.13.16,4.47,4.47,0,0,1,.16-1.4,16.69,16.69,0,0,1-5.24-1.4c0-.05-0.05-0.16-0.05-0.21V39.58c0.52,0.16.93,0.21,1.45,0.36a5.78,5.78,0,0,0,1.56.42,14.5,14.5,0,0,0,2.08.36,38.13,38.13,0,0,0,10.85-.57A6.73,6.73,0,0,0,59.22,39.79Z"/><path class="cls-24" d="M56.83,40.67a26.22,26.22,0,0,0,4.36-1.3,4,4,0,0,1-.83,4.57,1.32,1.32,0,0,0-.73-1.19,3,3,0,0,0-1.92-.16A1.68,1.68,0,0,0,56.83,40.67Z"/><path class="cls-21" d="M61.66,40.46c0.83-.16,2-0.05,2.18.88A1.5,1.5,0,0,1,63,43.26a4.48,4.48,0,0,0-.83.52c-0.05.05-.16,0.31-0.21,0.36a1.62,1.62,0,0,1,0,1.61c-0.16.21-.36,0.67-0.67,0.31a0.78,0.78,0,0,1,.21-0.21l0.05-.05c0.57-.52.05-1.4,0.31-2.08a15.44,15.44,0,0,1,1.56-.93,5.38,5.38,0,0,0,.21-0.52,2.47,2.47,0,0,0-.21-1A3,3,0,0,1,63,40.88C62.49,40.62,62,40.67,61.66,40.46Z"/><path class="cls-24" d="M54.6,41.08a15.74,15.74,0,0,1,2.18-.31,2.42,2.42,0,0,1,.73.73,7.31,7.31,0,0,1,.05,1,4.19,4.19,0,0,0-2.34,1,2.4,2.4,0,0,0-.36,1.61,31.85,31.85,0,0,1-6.69.67c0.05-.16.16-0.36,0.21-0.52a5.28,5.28,0,0,1,1.82-.16,2.26,2.26,0,0,0,2.18-.88,1.45,1.45,0,0,0-.16-1.45H51.85a34,34,0,0,1-5.14-.05,1.5,1.5,0,0,1,.16-1.25c1-.05,2.08.05,3.06,0.05A30.56,30.56,0,0,0,54.6,41.08Z"/><path class="cls-21" d="M61.81,40.82a1.81,1.81,0,0,1,1.25.42,1.49,1.49,0,0,1,.05,1.25,6.93,6.93,0,0,0-1.56,1.09,3.35,3.35,0,0,0,0,1.25,2.23,2.23,0,0,0,0,.83,0.54,0.54,0,0,0-.21-0.16l-0.16.21a1.59,1.59,0,0,1-.42-1.25,1.29,1.29,0,0,1-.42-0.05c0-.05.05-0.31,0.05-0.36A3.17,3.17,0,0,0,61.81,40.82Z"/><path class="cls-26" d="M58,41.6A0.42,0.42,0,0,1,58.39,41a0.64,0.64,0,0,1,.16.73C58.34,41.76,58.08,41.86,58,41.6Z"/><path class="cls-26" d="M45.88,41.55c0.16,0.05.36,0.16,0.52,0.21,0.05,0.36-.36.83-0.67,0.42C45.52,42.07,45.78,41.76,45.88,41.55Z"/><path class="cls-26" d="M47.44,41.86c0.21-.16.67,0.05,0.52,0.36s-0.42.21-.73,0.21C47.28,42.22,47.18,41.91,47.44,41.86Z"/><path class="cls-27" d="M42.66,42.38a0.63,0.63,0,0,1,.52-0.16c0.16,0.52-.21,1.19.31,1.56a2.94,2.94,0,0,0,1.61.36,2.68,2.68,0,0,0,.67.31,8.65,8.65,0,0,1,.42,1,0.92,0.92,0,0,1-.36.42,3,3,0,0,0-.42-1.09c-0.73-.52-1.76-0.42-2.49-0.88a1.34,1.34,0,0,1,0-1.45Z"/><path class="cls-25" d="M43.13,42.22c0.42,0.05.88,0.16,1.3,0.21v0.16a0.88,0.88,0,0,0-.36.05c-0.21,0-.42-0.05-0.73-0.05a2.76,2.76,0,0,0,.05.93,3.44,3.44,0,0,0,1,.31c0.16,0.16.36,0.21,0.52,0.36a4.51,4.51,0,0,1-1.61-.36C42.92,43.37,43.29,42.74,43.13,42.22Z"/><path class="cls-28" d="M43.44,42.59c0.21,0,.42.05,0.73,0.05a4.48,4.48,0,0,0,.36,1.09,1.87,1.87,0,0,1-1-.31A1.11,1.11,0,0,1,43.44,42.59Z"/><path class="cls-29" d="M44.12,42.64a0.88,0.88,0,0,0,.36-0.05h0.05v0.05l-0.21.21a3.58,3.58,0,0,0,1.25,1.09,10.06,10.06,0,0,0,3.74.31,2.85,2.85,0,0,0,2-.93,0.81,0.81,0,0,1,.31-0.42c0,0.16.05,0.52,0.05,0.67a3.53,3.53,0,0,1-2,1.19,6.23,6.23,0,0,1-1,.16H47.91a9.39,9.39,0,0,1-2.08-.21,0.57,0.57,0,0,1-.31-0.16,7.22,7.22,0,0,1-.67-0.31c-0.16-.16-0.36-0.21-0.52-0.36A6.88,6.88,0,0,0,44.12,42.64Z"/><path class="cls-30" d="M44.32,43l0.21-.21a23.14,23.14,0,0,0,6.54.42l0.21,0.21a2.65,2.65,0,0,1-2,.93A9,9,0,0,1,45.57,44,3,3,0,0,1,44.32,43Z"/><path class="cls-31" d="M52,42.8h0.36a2.28,2.28,0,0,1-.42,1.56,2.11,2.11,0,0,1-2.13.36,3.59,3.59,0,0,0,2-1.19,0.17,0.17,0,0,1,.16.16A1.7,1.7,0,0,0,52,42.8Z"/><path class="cls-32" d="M55.74,43.63a6.39,6.39,0,0,1,3.37-.83,1.42,1.42,0,0,1,.88.67c0.21,0.42.05,1,.52,1.3,0,0.05.05,0.21,0.05,0.31-0.67.16-1.4,0.36-2.08,0.57-0.16-.36.16-0.52,0.36-0.67H58.44V44.82a7.16,7.16,0,0,1,1-.16V43.57a2.12,2.12,0,0,0-1.76-.21,3.07,3.07,0,0,0-2.18,1.09,3.85,3.85,0,0,0,.05,1.09,1.13,1.13,0,0,1-1.09.83V45.86a5.47,5.47,0,0,0,.57-0.36C55.22,44.87,55.07,44,55.74,43.63Z"/><path class="cls-25" d="M52.32,42.8a1.36,1.36,0,0,1,.16,1.45,2.11,2.11,0,0,1-2.18.88,5.39,5.39,0,0,0-1.82.16l-0.16.05a4,4,0,0,0,.42-0.57,3.6,3.6,0,0,0,1-.16A1.73,1.73,0,0,0,52.32,42.8Z"/><path class="cls-33" d="M55.79,45c-0.31-.83.73-1.3,1.4-1.25a1,1,0,0,1,.83.73,5.44,5.44,0,0,0-1.3.05A3.86,3.86,0,0,0,55.79,45Z"/><path class="cls-34" d="M39.71,45.81A4.71,4.71,0,0,1,40.28,44a4.19,4.19,0,0,0,.83.83c0,0.16-.05.42-0.05,0.67A2.05,2.05,0,0,0,39.71,45.81Z"/><path class="cls-35" d="M46,44.56a8.8,8.8,0,0,0,2.08.21A1.33,1.33,0,0,0,48,46a6,6,0,0,0,1.71.21,2.13,2.13,0,0,0-.93,1.09,9.39,9.39,0,0,0-.21,2.08c0,0.31-.16.73,0.31,0.73a14.13,14.13,0,0,0,3-.52,0.77,0.77,0,0,0,.67-0.52h1A34.61,34.61,0,0,0,51,53.54,3.37,3.37,0,0,0,51.07,55c-0.67-.05-1.3-0.05-2.08-0.16-3.74-.36-7.47-0.42-11.26-1,0-.36-0.36-1,0.16-1.19,0,0.21.05,0.52,0.05,0.73a3.6,3.6,0,0,0,2.34,0c0.88-.88,1.25-2.18,2-3.32a12.47,12.47,0,0,0-1.19-.57,3.63,3.63,0,0,0-1.3,0c0.21-.52.42-1,0.67-1.56a5.36,5.36,0,0,0,1.76.36,7,7,0,0,0,.05,1,6.45,6.45,0,0,0,1.4-.05c0-.67-0.05-1.25,0-1.92a3,3,0,0,1,1.19-1.45l0.21,0.21a9.36,9.36,0,0,1,1.09-.42C46.45,45.49,46.19,44.92,46,44.56Z"/><path class="cls-34" d="M55.85,45a2.24,2.24,0,0,1,2-.52,2.37,2.37,0,0,1,.31,2,2.56,2.56,0,0,1-2.44,2A2.39,2.39,0,0,1,55,46.58a2,2,0,0,0,1-1c0.16,0,.36-0.05.52-0.05H55.95A2.11,2.11,0,0,1,55.85,45Z"/><path class="cls-36" d="M48,44.77h0.73a4,4,0,0,0-.42.57l0.16-.05c-0.05.16-.16,0.36-0.21,0.52S48,46,47.91,46A1.21,1.21,0,0,1,48,44.77Z"/><path class="cls-37" d="M41.16,45.08a1.82,1.82,0,0,1,.83.31l-0.31.31A5.5,5.5,0,0,1,41.16,45.08Z"/><path class="cls-38" d="M58.6,45.75c0.67-.16,1.3-0.31,2-0.42,0.57,1.25,1.25,2.49,1.76,3.74-1.09,1.3-3.32.67-4.41,2-0.73.88-.52,2.08-0.52,3.17a5,5,0,0,1-.93.16,0.87,0.87,0,0,1-.67-0.16,0.77,0.77,0,0,1,.05-0.31,1.68,1.68,0,0,0,.73-1.76,3,3,0,0,0-1.71-1.25,5,5,0,0,1-.16-1.76,4.58,4.58,0,0,0,3.48-1.4c0-.05-0.05-0.16-0.05-0.21A3.11,3.11,0,0,0,58.6,45.75Z"/><path class="cls-39" d="M56.68,45.49a1.38,1.38,0,0,1,1.25.83A4,4,0,0,1,56.68,45.49Z"/><path class="cls-34" d="M39.71,46.48c-0.21-.88,1.25-1.25,1.76-0.67a2.08,2.08,0,0,0-.88,1.82A1.31,1.31,0,0,1,39.71,46.48Z"/><path class="cls-40" d="M41.47,45.86c0.42,0.16.83,0.31,1.19,0.42a5,5,0,0,0-.16.93v0.21c-0.31-.31-0.36.42-0.05,0.52V49a0.88,0.88,0,0,1-.31.42c0-.36-0.05-0.67-0.05-1H42.4a2.07,2.07,0,0,1-.16-0.21C41.73,48,41.16,48,40.64,47.83A2.55,2.55,0,0,1,41.47,45.86Z"/><path class="cls-41" d="M42.56,47.26a4.53,4.53,0,0,1,.88-1.4,5,5,0,0,1,.93.16,3.74,3.74,0,0,0-1.09,1.3,7.1,7.1,0,0,0-.05,1.82,4.1,4.1,0,0,0-.67.16l-0.05-.21V48c0-.16.05-0.36,0.05-0.52V47.26Z"/><path class="cls-42" d="M50.81,46.17A5.24,5.24,0,0,0,51.69,46a4.46,4.46,0,0,0,.05.83H51.54A1.28,1.28,0,0,0,50.86,49a9.19,9.19,0,0,0,1.19.05,0.54,0.54,0,0,0-.16.21c-0.73.16-1.4,0.31-2.13,0.42a7.27,7.27,0,0,1,.05-2.13,1.67,1.67,0,0,1,1.25-1,0.78,0.78,0,0,1-.21-0.21C50.81,46.32,50.81,46.27,50.81,46.17Z"/><path class="cls-41" d="M49.31,46.69a2.36,2.36,0,0,1,1.45-.52v0.21a2.4,2.4,0,0,0-1.09.93c-0.42.83-.05,1.71-0.21,2.49a5,5,0,0,0-.88.05C48.89,48.82,48.42,47.52,49.31,46.69Z"/><path class="cls-25" d="M43.65,48.14a2.15,2.15,0,0,1,1.09-1.92H45a4.25,4.25,0,0,0-.88,1A3.14,3.14,0,0,0,43.91,49C43.55,48.92,43.75,48.4,43.65,48.14Z"/><path class="cls-25" d="M45.52,46.38a1.65,1.65,0,0,1,2.18,1.56,1.67,1.67,0,0,1-2.13,1.45,1.59,1.59,0,0,1-1.3-1.76A2.11,2.11,0,0,1,45.52,46.38Z"/><path class="cls-34" d="M53.46,47.26a0.89,0.89,0,0,1,.67-0.73,3.94,3.94,0,0,0,.83.05,2.91,2.91,0,0,0,.57,1.82,10.13,10.13,0,0,1-1.76.16C53.3,48.4,53.46,47.78,53.46,47.26Z"/><path class="cls-43" d="M45.31,46.69a1.45,1.45,0,0,1,2.08,1.56,1.93,1.93,0,0,1-.88.93V48.61a1.22,1.22,0,0,0-1.25.42,1.38,1.38,0,0,1-.67-1A1.22,1.22,0,0,1,45.31,46.69Z"/><path class="cls-25" d="M56.36,46.69a1.87,1.87,0,0,1,.57,1.09A3.68,3.68,0,0,0,56.36,46.69Z"/><path class="cls-44" d="M61.61,46.69c0.31,0.05.57,0.16,0.88,0.21-0.57.05,0.16,0.52,0.36,0.21h0a2.41,2.41,0,0,1,.83,1.25,2.3,2.3,0,0,1-.88,2.34,10.29,10.29,0,0,1-.57-1,3.89,3.89,0,0,0,.52-1,2.34,2.34,0,0,1,.57-0.16,3.64,3.64,0,0,0-.73.16c-0.16-.21-0.21-0.42-0.36-0.67A4.37,4.37,0,0,0,63,47.62c-0.31.05-.52,0.16-0.83,0.21a6.76,6.76,0,0,1-.42-0.88c0.05,0,.21-0.05.31-0.05A1.52,1.52,0,0,0,61.61,46.69Z"/><path class="cls-20" d="M45.41,46.9c0.05,0,.16-0.05.21-0.05a2.92,2.92,0,0,0,.36.93,3.35,3.35,0,0,1,.83-0.57,1.36,1.36,0,0,1-.88.88A11.87,11.87,0,0,1,45.41,46.9Z"/><path class="cls-34" d="M51.54,46.84h0.21c0.57,0,1.19-.05,1.76-0.05a2.46,2.46,0,0,0,0,1.92c-0.67.05-1.3,0.05-2,.16a2.26,2.26,0,0,1,.36-1.82A1.85,1.85,0,0,0,51.54,49a0.82,0.82,0,0,1-.83-0.83A1.39,1.39,0,0,1,51.54,46.84Z"/><path class="cls-25" d="M59.53,47.05A3.31,3.31,0,0,1,60.77,47c-0.21.05-.36,0.16-0.57,0.21A2.46,2.46,0,0,0,59.89,49,1.13,1.13,0,0,0,60.72,49,1.33,1.33,0,0,0,61,47.52V47.26A1.49,1.49,0,0,1,60.88,49a1.62,1.62,0,0,1-1.3.16C58.6,48.92,58.8,47.52,59.53,47.05Z"/><path class="cls-25" d="M62.85,47.21c-0.21.21-1-.21-0.36-0.21A3,3,0,0,1,62.85,47.21Z"/><path class="cls-32" d="M59.17,48.45c0-.57.21-1.45,0.93-1.25a1.63,1.63,0,0,0-.21,2A1,1,0,0,1,59.17,48.45Z"/><path class="cls-45" d="M42.51,47.93c-0.31-.05-0.21-0.83.05-0.52A1.77,1.77,0,0,0,42.51,47.93Z"/><path class="cls-46" d="M59.89,49a2.31,2.31,0,0,1,.31-1.82,3.89,3.89,0,0,1,.83.21,1.6,1.6,0,0,1-.31,1.45A1,1,0,0,1,59.89,49Z"/><path class="cls-47" d="M45.15,49a1.19,1.19,0,0,1,1.25-.42v0.57A1.48,1.48,0,0,1,45.15,49h0Z"/><path class="cls-48" d="M40.23,48.82c0.21-.05.31,0,0.21,0.21S40.12,49,40.23,48.82Z"/><path class="cls-49" d="M41.16,49q0.31-.08.31,0.31C41.26,49.28,41.11,49.18,41.16,49Z"/><path class="cls-38" d="M51.33,53.23c0.83-1.4,1.56-2.8,2.44-4.2a5.34,5.34,0,0,1,.93.05c0.05,0.52.05,1.09,0.05,1.61a2.66,2.66,0,0,0-1.61,1,3.06,3.06,0,0,0-.36,1.92,5.59,5.59,0,0,0,.93,1.25H53.56a5.24,5.24,0,0,0-.88.16,7.92,7.92,0,0,1-1.56.16A2.08,2.08,0,0,1,51.33,53.23Z"/><path class="cls-50" d="M55.43,49.49c0.42,0,.21.88-0.16,0.73A0.39,0.39,0,0,1,55.43,49.49Z"/><path class="cls-51" d="M39.91,49.7a4.25,4.25,0,0,1,2.08.52A22.62,22.62,0,0,1,40.8,52.4l-0.21.16A4.34,4.34,0,0,0,39.91,49.7Z"/><path class="cls-52" d="M61.29,50.22a7.81,7.81,0,0,0,.88-0.52c0.16,0.31.36,0.67,0.52,1a7.52,7.52,0,0,1-2.34.67,3.19,3.19,0,0,0-.05-0.67v0.73a1.81,1.81,0,0,0-1.4.88A1.83,1.83,0,0,1,58,52.14a1,1,0,0,0,.88.31,4.1,4.1,0,0,1-.16.67,3.47,3.47,0,0,1-1,0A2.22,2.22,0,0,1,59,50.84a11.92,11.92,0,0,1,2.34-.62,1.26,1.26,0,0,0,.21.67A2.57,2.57,0,0,0,61.29,50.22Z"/><path class="cls-53" d="M43,50.16c1.82,0,3.58.21,5.45,0.31a4.3,4.3,0,0,1-.36,1.76,13.78,13.78,0,0,1-.88,2.28c-1.4-.05-2.85-0.21-4.26-0.31a2.78,2.78,0,0,1-1.71-.36A24,24,0,0,1,43,50.16Z"/><path class="cls-54" d="M38.82,50.53A2.43,2.43,0,0,1,40,50.32a1.09,1.09,0,0,1,.21.57,0.66,0.66,0,0,0-.36.52c-0.05.57-.05,1.19-0.05,1.76A7.77,7.77,0,0,1,40,51l0.21-.16A5.53,5.53,0,0,1,40,53.43a1,1,0,0,0-.52.16,3.48,3.48,0,0,1,.16-3,4.28,4.28,0,0,0-.36,3c-0.21,0-.57-0.05-0.83-0.05a2.72,2.72,0,0,1-.16-1.92A1.56,1.56,0,0,1,39,50.84a8.23,8.23,0,0,0-.21,2.49,6.58,6.58,0,0,1,.31-2.44,0.23,0.23,0,0,0-.16-0.05Z"/><path class="cls-53" d="M50.19,50.79c-0.16-.42.42-0.57,0.73-0.52,0.57,0,.57.83,0.21,1.09a1,1,0,0,1-1.09.16l0.16-.1a0.6,0.6,0,0,0,.57-0.67C50.86,50.16,50.29,50.58,50.19,50.79Z"/><path class="cls-55" d="M43,50.42c1.76-.05,3.53.31,5.35,0.16-0.21,1.25-.83,2.34-1.09,3.53H46.45c0.21-.88.42-2.08-0.31-2.7a1.8,1.8,0,0,0-2.28-.16,3.46,3.46,0,0,0-1.61,2.59,6.27,6.27,0,0,1-.73-0.16C42.15,52.71,42.4,51.51,43,50.42Z"/><path class="cls-56" d="M50.19,50.79c0.05-.21.67-0.67,0.57-0.16a0.72,0.72,0,0,1-.57.67V50.79Z"/><path class="cls-57" d="M51,50.42c0.73,0.16.16,1-.31,1.09A4.31,4.31,0,0,1,51,50.42Z"/><path class="cls-25" d="M39,50.74a0.23,0.23,0,0,0,.16.05,5.46,5.46,0,0,0-.31,2.44A6.6,6.6,0,0,1,39,50.74Z"/><path class="cls-18" d="M50.08,51.41c-0.21-.16-0.05-0.57.16-0.52a2.13,2.13,0,0,1-.05.57Z"/><path class="cls-58" d="M53.15,51.82c0.52-.42,1.25-1.25,2-0.73a8.73,8.73,0,0,0-1.76,1C53.3,52,53.2,51.93,53.15,51.82Z"/><path class="cls-59" d="M59,51.1a0.27,0.27,0,0,1,.36.36C59.17,51.51,58.85,51.31,59,51.1Z"/><path class="cls-60" d="M60,51.82a8.43,8.43,0,0,0,3-.88,0.8,0.8,0,0,1-.21,1.19,20,20,0,0,1-2.44.42,2.27,2.27,0,0,0-1.25.67A1.12,1.12,0,0,1,60,51.82Z"/><path class="cls-22" d="M44,51.31a2.61,2.61,0,0,1,1.56-.21,7.07,7.07,0,0,1,.88.88,4.9,4.9,0,0,1-.21,2.13c-0.21,0-.36-0.05-0.57-0.05A3.13,3.13,0,0,0,46,52.5a1.75,1.75,0,0,0-.57-0.88,2.86,2.86,0,0,0-1.71.36l-0.21.21-0.16.16a5.07,5.07,0,0,0-.57,1.56,1.77,1.77,0,0,0-.52.05A3.83,3.83,0,0,1,44,51.31Z"/><path class="cls-1" d="M43.81,52a2.47,2.47,0,0,1,1.71-.36,2.34,2.34,0,0,1,.57.88,3.42,3.42,0,0,1-.36,1.56,0.05,0.05,0,0,1-.05.05c0.16-.67.57-1.45,0.05-2.13-0.42-.52-1.09-0.21-1.71-0.16a1.29,1.29,0,0,1-.05.42A0.35,0.35,0,0,0,43.81,52Z"/><path class="cls-61" d="M54,52a1.45,1.45,0,0,1,1.45-.57,1.65,1.65,0,0,1,.93.93,1.61,1.61,0,0,1-.31,1.19A15.47,15.47,0,0,0,54,52Z"/><path class="cls-62" d="M63.78,51.62c0,0.05.05,0.21,0.05,0.31,0.21,0,.42.05,0.67,0.05a1.83,1.83,0,0,0-.73.16,1.05,1.05,0,0,1,1,.52,35.57,35.57,0,0,0-4.62.73c-0.73.21-.31,1.09-0.73,1.61a4.67,4.67,0,0,0-.16-0.83,0.87,0.87,0,0,1,.57-1.09C61.24,52.66,62.9,52.86,63.78,51.62Z"/><path class="cls-63" d="M44.12,51.93c0.52-.05,1.25-0.36,1.71.16,0.52,0.67.05,1.45-.05,2.13a11.05,11.05,0,0,1-1.3-.16c-0.05-.57-0.21-1.09-0.31-1.71A0.42,0.42,0,0,1,44.12,51.93Z"/><path class="cls-64" d="M43.81,52a1.61,1.61,0,0,1,.21.31c0.05,0.57.21,1.09,0.31,1.71L44,54.11V54.06c-0.05-.52-0.21-1-0.31-1.56V52.34A0.35,0.35,0,0,1,43.81,52Z"/><path class="cls-61" d="M53.35,52.19A1.1,1.1,0,0,1,53.72,52,13.09,13.09,0,0,1,56,53.49a2.75,2.75,0,0,1-.31.52,14.66,14.66,0,0,0-1.61-1.09,12.31,12.31,0,0,0,1.56,1.19c0.16,0.42-.42.67-0.83,0.57a1.49,1.49,0,0,1-1.4-1.76l0.31-.31A0.72,0.72,0,0,0,53.35,52.19Z"/><path class="cls-65" d="M53,52.14a2.27,2.27,0,0,0,.42.36,1.82,1.82,0,0,0,.05,1.71l0.05,0.21a2.08,2.08,0,0,1-.67-0.83A6.24,6.24,0,0,0,53,52.14Z"/><path class="cls-53" d="M49.41,52.4a1,1,0,0,1,.93.05,0.64,0.64,0,0,1,0,.88,0.72,0.72,0,0,1-1.3-.05A0.77,0.77,0,0,1,49.41,52.4Z"/><path class="cls-66" d="M43,54a2.5,2.5,0,0,1,.67-1.56c0.16,0.52.21,1,.31,1.56H43Z"/><path class="cls-67" d="M49.2,53.54a1.68,1.68,0,0,1,.42-1.19,4.71,4.71,0,0,0,.73.36,0.86,0.86,0,0,1-.67.93A2.89,2.89,0,0,0,50,52.81,1.42,1.42,0,0,1,49.2,53.54Z"/><path class="cls-68" d="M60.36,53.59a38.24,38.24,0,0,1,4.36-.67v0.36c-0.21,0-.42.05-0.57,0.05-1.4.05-2.8,0.52-4.2,0.57A0.71,0.71,0,0,1,60.36,53.59Z"/><path class="cls-69" d="M57.71,53.17a9.19,9.19,0,0,0,1.19.05c0,0.31.05,0.57,0.05,0.88a5.34,5.34,0,0,0-.93.05h1a2.3,2.3,0,0,1-.16,1A4.71,4.71,0,0,1,57.71,55V53.17Z"/><path class="cls-70" d="M64.1,53.38c0.21,0,.42-0.05.57-0.05a3.43,3.43,0,0,1,1.25,1.19,6.23,6.23,0,0,1,.73,4.72,4.68,4.68,0,0,1-2.18,2.85c-0.57.21-1.19,0.36-1.76,0.52-2.49.52-5,1.3-7.47,1.76-1.09.21-2.13,0.42-3.22,0.73a2.93,2.93,0,0,1-3.22-.73,0.57,0.57,0,0,0-.31.16,5.65,5.65,0,0,0-.42-1.61,8.29,8.29,0,0,1-.16-3,5.09,5.09,0,0,1,3-4c0-.05.05-0.16,0.05-0.21s0.05-.16.05-0.21a6.68,6.68,0,0,0,2.49-.21V55H52.78a5.24,5.24,0,0,0,.88-0.16c0.05,0.36.52,0.31,0.73,0.05a2.34,2.34,0,0,1-.57-0.16,3.58,3.58,0,0,1-.93-1.25H53a5.24,5.24,0,0,0,.67.83l-0.05-.21a1.83,1.83,0,0,0,1,.73,1,1,0,0,0,1.25-.73,0.79,0.79,0,0,0,.67.16,2,2,0,0,0-.57.31c0.52,0,1-.16,1.56-0.21a1.77,1.77,0,0,1-.05.52c-2.18.52-4.46,0.67-6.54,1.56a3.76,3.76,0,0,0-1.3.93v0.36c-0.05,0-.21.05-0.31,0.05a7,7,0,0,0-.88,3.74,3.08,3.08,0,0,0,.42.21V61.06c0,0.31.05,0.52,0.05,0.83H48.42a2.39,2.39,0,0,0,1.3,2.28,5.91,5.91,0,0,1-.93-1.56L49.2,63V62.72a1.25,1.25,0,0,0,.31.42l-0.31.05c0.42,0.42.88,0.93,1.4,1.4a16.54,16.54,0,0,0,3.89-.67c1.76-.31,3.48-0.88,5.24-1.3,1.09-.31,2.18-0.52,3.32-0.83a5.54,5.54,0,0,0,1.3-.83,11.91,11.91,0,0,0,1.4-1.4,3.19,3.19,0,0,1-1.25,1.76c1.56-.88,1.82-2.8,1.71-4.41a3.59,3.59,0,0,0-1.61-2.8,20.58,20.58,0,0,0-4.72.52V54.11A13.26,13.26,0,0,0,64.1,53.38Z"/><path class="cls-71" d="M37.47,54.16l0.05,0.05c-0.05.05-.16,0.31-0.21,0.36,1.76,0.31,3.53.36,5.29,0.57a5.68,5.68,0,0,0-.57.52,27.52,27.52,0,0,1-5.45-.73,4,4,0,0,1,.57-0.42c0-.05-0.05-0.16-0.05-0.21A0.47,0.47,0,0,0,37.47,54.16Z"/><path class="cls-72" d="M59.32,54.11a2.35,2.35,0,0,0,.16.83c0.21,0,.42-0.05.73-0.05-0.05.31-.16,0.67-0.21,0.93-0.21.42-.93,0.42-0.88,0.93-0.05.67,0.21,1.4-.31,2a3.69,3.69,0,0,1-2.85.31c-0.21-.67-0.16-1.4-0.36-2.08a0.56,0.56,0,0,1-.36-0.16V56.6a0.51,0.51,0,0,0,.16-0.67l-0.05-.16c0.36-.05.83-0.16,1.19-0.21a1.22,1.22,0,0,0,0,1.71A2.74,2.74,0,0,0,59.11,56h0.67c0-.21.05-0.42,0.05-0.57a0.75,0.75,0,0,1-.52.52C59.22,55.2,59.48,54.68,59.32,54.11Z"/><path class="cls-53" d="M34.26,58.88a6.06,6.06,0,0,1,2.85-4.57c0,0.05.05,0.16,0.05,0.21a4,4,0,0,1-.57.42,2,2,0,0,1-.52.42,2.94,2.94,0,0,0-.42.67c-0.05.05-.16,0.31-0.21,0.36A4.3,4.3,0,0,0,35,57.84c-0.05-.21-0.16-0.42-0.21-0.57a11.7,11.7,0,0,0-.42,2.7c0,0.67.36,1.3,0.31,2.08A5.84,5.84,0,0,1,34.26,58.88Z"/><path class="cls-73" d="M37.58,54.26c1.82,0.21,3.68.52,5.6,0.57A0.54,0.54,0,0,0,43,55a0.57,0.57,0,0,0-.31.16C41,55,39.19,54.89,37.42,54.63A1.24,1.24,0,0,0,37.58,54.26Z"/><path class="cls-74" d="M64.25,54.32c0.16-.16.57,0,0.52,0.21S64.15,54.58,64.25,54.32Z"/><path class="cls-75" d="M62.12,54.63a3.87,3.87,0,0,1,2.34.21,2.84,2.84,0,0,1,1.25,2.59,4,4,0,0,1-3.53,4.1,2.67,2.67,0,0,1-2.7-1.82C58.85,57.69,60,55,62.12,54.63Z"/><path class="cls-76" d="M43.13,54.83a3.77,3.77,0,0,1,1.3.21,1.2,1.2,0,0,0-.36.36l0.05-.21a2.06,2.06,0,0,0-.93.83,7.06,7.06,0,0,0-1.61,5.66,2.87,2.87,0,0,0,1.3,2.08H41.94a1,1,0,0,0,.36-0.31,1.44,1.44,0,0,1-1.19-.36,5.45,5.45,0,0,1-.67-3.37,6,6,0,0,1,1-3.17A20.23,20.23,0,0,1,42.92,55,0.41,0.41,0,0,0,43.13,54.83Z"/><path class="cls-77" d="M36.18,55.41A2,2,0,0,1,36.7,55a21.22,21.22,0,0,0,5.45.73,4.89,4.89,0,0,0-.52.52C39.76,55.87,37.94,55.82,36.18,55.41Z"/><path class="cls-78" d="M44.48,55.15a11.74,11.74,0,0,1,2.7.05c1.25,0.16,2.49.16,3.74,0.31,0,0.05-.05.16-0.05,0.21a1.1,1.1,0,0,1-.36.16c-1.3-.05-2.65-0.31-3.94-0.36A14.5,14.5,0,0,1,44.48,55.15Z"/><path class="cls-53" d="M53.67,55h0.16a1.18,1.18,0,0,1,.57.16C54.18,55.2,53.67,55.3,53.67,55Z"/><path class="cls-79" d="M67.26,55.41A2.21,2.21,0,0,1,68.82,55,2,2,0,0,1,67.26,55.41Z"/><path class="cls-71" d="M44.48,55.15h0a4.88,4.88,0,0,0,2.08.36c1.3,0.05,2.65.31,3.94,0.36a3.24,3.24,0,0,0-1,.67,5.21,5.21,0,0,0-2.18-.36C46.09,56,45,56,43.81,55.82a1.94,1.94,0,0,0,.36-0.31A0.73,0.73,0,0,1,44.48,55.15Z"/><path class="cls-44" d="M57.25,55.51a2.27,2.27,0,0,0,.36-0.42,3.57,3.57,0,0,0,1.25.16,6.65,6.65,0,0,1-.57,1c-0.21,0-.42-0.05-0.67-0.05,0.16,0.05.36,0.16,0.52,0.21l-1,.57c-0.42,0-1-.16-0.88-0.67A1,1,0,0,1,57.25,55.51Z"/><path class="cls-53" d="M62.49,55.41a1.59,1.59,0,0,1,1.92.67,3.21,3.21,0,0,1-.31,3.68,2.13,2.13,0,0,1-2.8.57,2.48,2.48,0,0,1-.83-2.13A2.94,2.94,0,0,1,62.49,55.41Z"/><path class="cls-80" d="M35.76,56.08a2.94,2.94,0,0,0,.42-0.67c1.76,0.36,3.58.42,5.35,0.83a6.12,6.12,0,0,1-.67.93V56.86A43,43,0,0,1,35.76,56.08Z"/><path class="cls-81" d="M61.61,56.24A1.54,1.54,0,0,1,64.1,56c0.83,1.09.42,2.59-.21,3.68a1.41,1.41,0,0,1-.42-0.83A14.21,14.21,0,0,0,61.61,56.24Z"/><path class="cls-82" d="M43.13,56.39a5.92,5.92,0,0,1,.57-0.57C44.79,56,46,56,47.18,56.18a5.08,5.08,0,0,1,2.18.36,4,4,0,0,1-.57.42C47,56.75,45.05,56.75,43.13,56.39Z"/><path class="cls-83" d="M53.72,55.92c0.52-.05,1-0.05,1.56-0.05a0.45,0.45,0,0,1-.16.67v0.21c-0.36-.05-0.73-0.16-1-0.21V56A0.88,0.88,0,0,1,53.72,55.92Z"/><path class="cls-84" d="M68.4,56.29a5.65,5.65,0,0,1,1.82-.36,8.16,8.16,0,0,1-2.7.83A1.47,1.47,0,0,1,68.4,56.29Z"/><path class="cls-85" d="M35.76,56.08c1.71,0.42,3.48.52,5.14,0.83v0.31a0.28,0.28,0,0,1-.16.21c-1.56-.21-3.17-0.36-4.72-0.67a0.62,0.62,0,0,1-.52-0.36A0.82,0.82,0,0,0,35.76,56.08Z"/><path class="cls-80" d="M42.72,57.12a6.2,6.2,0,0,0,.42-0.83,49.69,49.69,0,0,0,5.66.57,2.73,2.73,0,0,0-.57.73A28.13,28.13,0,0,1,42.72,57.12Z"/><path class="cls-86" d="M35.09,57.95a4.3,4.3,0,0,1,.42-1.45,0.56,0.56,0,0,0,.52.36c1.56,0.21,3.17.36,4.72,0.67-0.16.31-.21,0.57-0.36,0.88a4.94,4.94,0,0,0-2-.36c-0.93-.05-1.82-0.31-2.8-0.42C35.35,57.48,35.24,57.79,35.09,57.95Z"/><path class="cls-75" d="M49.57,58.31a3,3,0,0,1,5.76,1.35,4.3,4.3,0,0,1-2.8,4.46,2.77,2.77,0,0,1-3-.83,1.25,1.25,0,0,0-.31-0.42A3.93,3.93,0,0,0,48.89,62V61.17A4.43,4.43,0,0,1,49.57,58.31Z"/><path class="cls-81" d="M60.62,58.21a3.4,3.4,0,0,1,.73-2,11.65,11.65,0,0,1,2.18,3.58,2.46,2.46,0,0,1-2.08.36A2.77,2.77,0,0,1,60.62,58.21Z"/><path class="cls-87" d="M68.87,56.81C70,57,71,57.17,72.19,57.38a9.72,9.72,0,0,1,1.76.42,7.77,7.77,0,0,1-2.18-.21,24.52,24.52,0,0,1-2.8-.67C68.92,57,68.87,56.91,68.87,56.81Z"/><path class="cls-25" d="M41.31,58.36a3.61,3.61,0,0,1,.73-1.3,15.85,15.85,0,0,0-.83,2.34,11.2,11.2,0,0,0-.05,2.28A4.87,4.87,0,0,1,41.31,58.36Z"/><path class="cls-88" d="M42.72,57.12a39.44,39.44,0,0,0,5.5.52,0.55,0.55,0,0,1-.31.36c-1.56-.05-3-0.21-4.57-0.36a1.83,1.83,0,0,1-.88-0.21A0.31,0.31,0,0,0,42.72,57.12Z"/><path class="cls-89" d="M34.88,57.33a3.94,3.94,0,0,1,.21.57v0.16a3.19,3.19,0,0,1-.05.67v1.66c0,0.05.05,0.21,0.05,0.31a3.53,3.53,0,0,0,.42,1.25,2.17,2.17,0,0,0,1.19.93c-0.36.05-.67,0.16-1,0.21a2.54,2.54,0,0,1-.93-0.88V62.15c0.05-.73-0.31-1.3-0.31-2.08A9.55,9.55,0,0,1,34.88,57.33Z"/><path class="cls-80" d="M42.3,58.36a3,3,0,0,1,.31-0.88,5.43,5.43,0,0,0,.88.21c1.56,0.16,3,.21,4.57.36a13,13,0,0,0-.57,1.19V58.88C45.73,58.57,44,58.67,42.3,58.36Z"/><path class="cls-82" d="M35.09,57.95a0.56,0.56,0,0,1,.52-0.36c0.93,0.05,1.82.36,2.8,0.42a4.18,4.18,0,0,1,2,.36,0.51,0.51,0,0,1-.16.42c-1.71-.16-3.48-0.36-5.14-0.67V57.95Z"/><path class="cls-25" d="M52.11,57.64a1.73,1.73,0,0,1,2,1.25,3.38,3.38,0,0,1-.93,3.68,2,2,0,0,1-2.18.36,2.27,2.27,0,0,1-1.09-2.44A3.12,3.12,0,0,1,52.11,57.64Z"/><path class="cls-72" d="M67.62,57.64a29.14,29.14,0,0,1,3.06.67c0.73,0.16,1.56.21,2.28,0.36A16.86,16.86,0,0,1,67.62,57.64Z"/><path class="cls-81" d="M51.07,58.36A1.66,1.66,0,0,1,53,58a9.34,9.34,0,0,1-2.34,4.62A3.09,3.09,0,0,1,51.07,58.36Z"/><path class="cls-80" d="M35.09,58.05c1.71,0.31,3.48.52,5.14,0.67a0.83,0.83,0,0,1-.16.42c0,0.05-.05.16-0.05,0.21a22.63,22.63,0,0,1-5-.73A1.61,1.61,0,0,0,35.09,58.05Z"/><path class="cls-81" d="M53.2,58.05a1.92,1.92,0,0,1,.88,1.82,2.79,2.79,0,0,1-1.71,2.85,2.57,2.57,0,0,1-1.4,0A9.34,9.34,0,0,0,53.2,58.05Z"/><path class="cls-82" d="M42.3,58.36c1.71,0.21,3.48.21,5.14,0.42v0.36a2.93,2.93,0,0,0-.05.36c-1.71-.36-3.48-0.36-5.14-0.67A0.52,0.52,0,0,1,42.3,58.36Z"/><path class="cls-82" d="M35.09,58.73a32,32,0,0,0,5,.73c0-.05.05-0.16,0.05-0.21a4.91,4.91,0,0,0-.05,2.13v0.31c-1.56-.05-3.06-0.42-4.62-0.57a3.08,3.08,0,0,0-.21-0.42c0-.05-0.05-0.21-0.05-0.31,1.61,0.21,3.22.52,4.83,0.67V60.23c-1.61-.31-3.22-0.36-4.83-0.67A0.81,0.81,0,0,1,35.09,58.73Z"/><path class="cls-87" d="M67.68,58.67a10.63,10.63,0,0,1,2.18.36,2,2,0,0,1,1,.42,14,14,0,0,1-3-.57C67.83,58.88,67.78,58.73,67.68,58.67Z"/><path class="cls-86" d="M42.15,58.93c1.71,0.31,3.48.31,5.14,0.67A12.9,12.9,0,0,0,47.08,62c-1.61-.16-3.17-0.42-4.77-0.57,0,0.05-.05.21-0.05,0.31a9.39,9.39,0,0,1-.16-1.19c1.71,0.21,3.32.42,5,.67a7,7,0,0,1,.05-1c-1.71-.16-3.37-0.36-5-0.42V58.93Z"/><path class="cls-90" d="M58.65,59.19A1,1,0,0,0,59,58.88c0.05,0.31.16,0.57,0.21,0.88l-0.31-.31c0,0.05.05,0.31,0.05,0.42a1.52,1.52,0,0,1,0,2.08c-0.67.83-2.08,1.25-2.85,0.42a2.19,2.19,0,0,1,.21-2.7,7.63,7.63,0,0,1-.67.52V59.25c0.31,0.16.57,0.21,0.83,0.36,0.67,0,1.25-.21,1.92-0.16l0.21,0.21,0.31-.31Z"/><path class="cls-72" d="M71.36,59.76c1-.21,2.08-0.67,3.06-0.83-2.49.83-5.09,1.61-7.63,2.18A39.1,39.1,0,0,1,71.36,59.76Z"/><path class="cls-80" d="M35,59.56c1.61,0.21,3.22.36,4.83,0.67v0.83A38.54,38.54,0,0,1,35,60.39,1.14,1.14,0,0,0,35,59.56Z"/><path class="cls-78" d="M42,59.71c1.71,0.16,3.37.36,5,.42a7,7,0,0,1-.05,1c-1.71-.21-3.32-0.42-5-0.67A3.93,3.93,0,0,0,42,59.71Z"/><path class="cls-91" d="M67.16,59.61a2.72,2.72,0,0,1,1.76.52A2.52,2.52,0,0,1,67.16,59.61Z"/><path class="cls-89" d="M56.62,61.94c-0.73-.57-0.21-1.82.57-2.08l-0.05.05a1.34,1.34,0,0,0-.57,1.71c0.52,0.88,1.92.31,2-.67a1.37,1.37,0,0,0-.42-1.09L58,59.82a0.83,0.83,0,0,1,.57.93A1.23,1.23,0,0,1,56.62,61.94Z"/><path class="cls-92" d="M57,60a3.48,3.48,0,0,1,1,0,1.15,1.15,0,0,1,.42,1.09c-0.05.88-1.45,1.45-2,.67A1.36,1.36,0,0,1,57,60Z"/><path class="cls-86" d="M35.14,60.65a3.08,3.08,0,0,0,.21.42c1.56,0.16,3.06.42,4.62,0.57V61.32c0.05,0.36.16,0.73,0.21,1.09a15.88,15.88,0,0,1-2.34-.31,12.2,12.2,0,0,0-2.34-.21A8.73,8.73,0,0,1,35.14,60.65Z"/><path class="cls-82" d="M42.35,61.37c1.61,0.16,3.17.42,4.77,0.57a3.19,3.19,0,0,0,.05.67c-0.88-.16-1.82-0.31-2.7-0.42C43.75,62,43,62,42.35,61.84l-0.05-.16A0.66,0.66,0,0,1,42.35,61.37Z"/><path class="cls-71" d="M59,62.46c0.16-.31.36-0.57,0.52-0.88,0.57,0.05,1.19.16,1.82,0.16A0.39,0.39,0,0,1,61,62a6.8,6.8,0,0,1-1.45,0,1.1,1.1,0,0,0,.36.16A2,2,0,0,1,59,62.46Z"/><path class="cls-82" d="M35.5,61.89a16.28,16.28,0,0,1,2.34.21c0.83,0.05,1.61.21,2.34,0.31,0.16,0.31.21,0.57,0.36,0.83-1.3.05-2.65-.42-3.94-0.36A2.79,2.79,0,0,1,35.5,61.89Z"/><path class="cls-86" d="M42.3,61.89a5.92,5.92,0,0,0,2.13.36c0.88,0.16,1.76.31,2.7,0.42,0.05,0.21.16,0.52,0.21,0.73-1.45-.16-3-0.36-4.41-0.57v0.31A9.29,9.29,0,0,1,42.3,61.89Z"/><path class="cls-93" d="M48.37,61.89h0.57a2.29,2.29,0,0,0,.31.83V63l-0.42-.42a5.4,5.4,0,0,0,.93,1.56C48.74,63.86,48.53,62.77,48.37,61.89Z"/><path class="cls-82" d="M42.92,62.77c1.45,0.21,3,.42,4.41.57V63.4c0,0.16.05,0.36,0.05,0.52-1.3-.05-2.7-0.36-4-0.36A2,2,0,0,1,42.92,63V62.77Z"/><path class="cls-68" d="M53.72,63.81a8.43,8.43,0,0,0,.93-1,11.08,11.08,0,0,1,1.82.31,0.35,0.35,0,0,1-.36.21C55.33,63.45,54.55,63.66,53.72,63.81Z"/><path class="cls-94" d="M47.33,63.5a7.18,7.18,0,0,0,.73,1.4,4.23,4.23,0,0,0-1.61-.31c-1-.52-2.28-0.16-3.17-0.93,1.4,0,2.7.31,4,.36A0.47,0.47,0,0,0,47.33,63.5Z"/><path class="cls-16" d="M1.12,84.35a0.64,0.64,0,0,1-.19-0.47V75.29a0.63,0.63,0,0,1,.19-0.48,0.65,0.65,0,0,1,.47-0.18h2.3a5.07,5.07,0,0,1,2.55.64A4.47,4.47,0,0,1,8.17,77a5.18,5.18,0,0,1,.62,2.56,5.22,5.22,0,0,1-.62,2.56,4.47,4.47,0,0,1-1.74,1.76,5.07,5.07,0,0,1-2.55.63H1.59A0.64,0.64,0,0,1,1.12,84.35Zm2.77-1a3.69,3.69,0,0,0,1.88-.48,3.35,3.35,0,0,0,1.29-1.35,4.1,4.1,0,0,0,.46-2,4.07,4.07,0,0,0-.46-2,3.36,3.36,0,0,0-1.29-1.34,3.69,3.69,0,0,0-1.88-.48H2.25v7.58H3.88Z"/><path class="cls-16" d="M11.43,84.14a3.19,3.19,0,0,1-1.24-1.25,4,4,0,0,1,0-3.64A3.19,3.19,0,0,1,11.43,78a3.63,3.63,0,0,1,1.81-.45A3.57,3.57,0,0,1,15,78a3.24,3.24,0,0,1,1.24,1.25,3.92,3.92,0,0,1,0,3.64,3.19,3.19,0,0,1-1.24,1.25,3.59,3.59,0,0,1-1.81.45A3.63,3.63,0,0,1,11.43,84.14Zm3-1a2.11,2.11,0,0,0,.8-0.84,2.58,2.58,0,0,0,.29-1.22,2.62,2.62,0,0,0-.29-1.23,2.1,2.1,0,0,0-.8-0.85,2.37,2.37,0,0,0-2.32,0,2.14,2.14,0,0,0-.81.85A2.56,2.56,0,0,0,11,81.08a2.52,2.52,0,0,0,.29,1.22,2.14,2.14,0,0,0,.81.84A2.37,2.37,0,0,0,14.41,83.15Z"/><path class="cls-16" d="M19.38,84.14a3.26,3.26,0,0,1-1.25-1.26,3.61,3.61,0,0,1-.45-1.79,3.75,3.75,0,0,1,.44-1.82A3.15,3.15,0,0,1,19.34,78a3.51,3.51,0,0,1,1.78-.45,3.15,3.15,0,0,1,2.49,1.14,0.48,0.48,0,0,1,.13.33,0.56,0.56,0,0,1-.28.47,0.5,0.5,0,0,1-.29.09,0.64,0.64,0,0,1-.49-0.23,2,2,0,0,0-.69-0.5,2.18,2.18,0,0,0-.86-0.16,2.07,2.07,0,0,0-1.59.65,2.44,2.44,0,0,0-.61,1.73,2.57,2.57,0,0,0,.29,1.22,2.1,2.1,0,0,0,.8.84,2.26,2.26,0,0,0,1.17.3,2.11,2.11,0,0,0,1.4-.44A0.8,0.8,0,0,1,23,82.83a0.54,0.54,0,0,1,.33.11,0.59,0.59,0,0,1,.24.46,0.48,0.48,0,0,1-.15.34,3.22,3.22,0,0,1-2.28.85A3.57,3.57,0,0,1,19.38,84.14Z"/><path class="cls-16" d="M30.41,84a0.59,0.59,0,0,1-.23.47,0.64,0.64,0,0,1-.41.15,0.55,0.55,0,0,1-.46-0.23l-2.41-3L26.27,82v1.94a0.62,0.62,0,1,1-1.24,0V75.25a0.62,0.62,0,1,1,1.24,0v5.17l3.08-2.75a0.54,0.54,0,0,1,.39-0.17,0.53,0.53,0,0,1,.43.2,0.54,0.54,0,0,1,.17.39,0.53,0.53,0,0,1-.2.43L27.8,80.61l2.46,3A0.54,0.54,0,0,1,30.41,84Z"/><path class="cls-16" d="M37,81.36a0.58,0.58,0,0,1-.42.16H31.8A2.23,2.23,0,0,0,32.61,83a2.48,2.48,0,0,0,1.63.55A2.45,2.45,0,0,0,35,83.36,2.37,2.37,0,0,0,35.71,83a0.66,0.66,0,0,1,.42-0.14,0.55,0.55,0,0,1,.38.13,0.56,0.56,0,0,1,.23.43,0.46,0.46,0,0,1-.2.38,3.54,3.54,0,0,1-1.07.56,3.88,3.88,0,0,1-3.09-.24,3.27,3.27,0,0,1-1.29-1.25,3.55,3.55,0,0,1-.46-1.81,3.75,3.75,0,0,1,.44-1.82A3.17,3.17,0,0,1,32.28,78,3.48,3.48,0,0,1,34,77.55a3.2,3.2,0,0,1,1.69.43,2.85,2.85,0,0,1,1.09,1.21A4,4,0,0,1,37.21,81,0.53,0.53,0,0,1,37,81.36Zm-4.5-2.21a2.28,2.28,0,0,0-.73,1.36H36a2.25,2.25,0,0,0-.64-1.36A1.86,1.86,0,0,0,34,78.64,2.2,2.2,0,0,0,32.54,79.15Z"/><path class="cls-16" d="M42.68,77.73a0.59,0.59,0,0,1,.38.51,0.45,0.45,0,0,1,0,.13,0.49,0.49,0,0,1-.51.41l-0.19,0a4.94,4.94,0,0,0-.83-0.09,2.4,2.4,0,0,0-1.47.42,1.34,1.34,0,0,0-.56,1.13v3.71a0.66,0.66,0,0,1-.16.47,0.63,0.63,0,0,1-.48.16,0.65,0.65,0,0,1-.47-0.16,0.63,0.63,0,0,1-.17-0.48V78.24a0.57,0.57,0,0,1,.63-0.63,0.56,0.56,0,0,1,.64.63v0.24a2.66,2.66,0,0,1,.94-0.7,2.84,2.84,0,0,1,1.19-.25A2.26,2.26,0,0,1,42.68,77.73Z"/><path class="cls-16" d="M56.7,74.82a0.64,0.64,0,0,1,.19.47v8.59a0.63,0.63,0,0,1-.2.47,0.65,0.65,0,0,1-.46.19,0.65,0.65,0,0,1-.66-0.66V77.58L52.5,83.83a0.66,0.66,0,0,1-.57.33,0.63,0.63,0,0,1-.61-0.39l-3-6.08v6.19a0.66,0.66,0,1,1-1.32,0V75.29a0.66,0.66,0,0,1,1.24-.3L52,82.54,55.65,75A0.66,0.66,0,0,1,56.7,74.82Z"/><path class="cls-16" d="M63.59,78a3.42,3.42,0,0,1,1.26,1.27,3.54,3.54,0,0,1,.46,1.8v2.83a0.65,0.65,0,1,1-1.3,0V83.44a3.2,3.2,0,0,1-4.11.7,3.2,3.2,0,0,1-1.17-1.26,3.78,3.78,0,0,1-.43-1.79,3.58,3.58,0,0,1,.46-1.8A3.34,3.34,0,0,1,60,78a3.51,3.51,0,0,1,1.78-.46A3.45,3.45,0,0,1,63.59,78ZM63,83.14a2.2,2.2,0,0,0,.81-0.85,2.51,2.51,0,0,0,.29-1.21,2.55,2.55,0,0,0-.29-1.22,2.24,2.24,0,0,0-3.1-.86,2.23,2.23,0,0,0-.81.86,2.49,2.49,0,0,0-.3,1.22,2.45,2.45,0,0,0,.3,1.21,2.24,2.24,0,0,0,.81.85A2.28,2.28,0,0,0,63,83.14Z"/><path class="cls-16" d="M67.94,84.14a3.26,3.26,0,0,1-1.25-1.26,3.61,3.61,0,0,1-.45-1.79,3.75,3.75,0,0,1,.44-1.82A3.15,3.15,0,0,1,67.91,78a3.51,3.51,0,0,1,1.78-.45,3.15,3.15,0,0,1,2.49,1.14,0.48,0.48,0,0,1,.13.33,0.56,0.56,0,0,1-.28.47,0.5,0.5,0,0,1-.29.09,0.64,0.64,0,0,1-.49-0.23,2,2,0,0,0-.69-0.5,2.18,2.18,0,0,0-.86-0.16,2.07,2.07,0,0,0-1.59.65,2.44,2.44,0,0,0-.61,1.73,2.57,2.57,0,0,0,.29,1.22,2.1,2.1,0,0,0,.8.84,2.26,2.26,0,0,0,1.17.3,2.11,2.11,0,0,0,1.4-.44,0.8,0.8,0,0,1,.47-0.18,0.54,0.54,0,0,1,.33.11,0.59,0.59,0,0,1,.24.46,0.48,0.48,0,0,1-.15.34,3.22,3.22,0,0,1-2.28.85A3.57,3.57,0,0,1,67.94,84.14Z"/><path class="cls-16" d="M78.62,77.92A2.69,2.69,0,0,1,79.71,79a3.66,3.66,0,0,1,.39,1.76v3.12a0.65,0.65,0,1,1-1.3,0V80.79a1.87,1.87,0,0,0-2-2.08,2.16,2.16,0,0,0-1,.22,1.72,1.72,0,0,0-.68.58,1.45,1.45,0,0,0-.25.83v3.58a0.64,0.64,0,0,1-.18.46,0.65,0.65,0,0,1-1.12-.46V75.28a0.62,0.62,0,0,1,.18-0.47,0.7,0.7,0,0,1,.93,0,0.64,0.64,0,0,1,.18.47v3.11a2.82,2.82,0,0,1,1-.63A3.39,3.39,0,0,1,78.62,77.92Z"/><path class="cls-16" d="M81.81,76.22a0.83,0.83,0,1,1,.59.25A0.8,0.8,0,0,1,81.81,76.22Zm0.13,8.13a0.63,0.63,0,0,1-.18-0.46V78.25a0.62,0.62,0,0,1,.18-0.47,0.64,0.64,0,0,1,1.11.47V83.9a0.64,0.64,0,0,1-.18.46A0.68,0.68,0,0,1,81.94,84.36Z"/><path class="cls-16" d="M89.85,77.92A2.69,2.69,0,0,1,90.94,79a3.66,3.66,0,0,1,.39,1.76v3.12a0.65,0.65,0,1,1-1.3,0V80.79a1.87,1.87,0,0,0-2-2.08,2.16,2.16,0,0,0-1,.22,1.72,1.72,0,0,0-.68.58,1.45,1.45,0,0,0-.25.83v3.58a0.64,0.64,0,0,1-.18.46,0.65,0.65,0,0,1-1.12-.46V78.25A0.62,0.62,0,0,1,85,77.78a0.64,0.64,0,0,1,1.11.47v0.14a2.82,2.82,0,0,1,1-.63A3.39,3.39,0,0,1,89.85,77.92Z"/><path class="cls-16" d="M98.91,81.36a0.58,0.58,0,0,1-.42.16H93.67A2.23,2.23,0,0,0,94.47,83a2.48,2.48,0,0,0,1.63.55,2.45,2.45,0,0,0,.79-0.14A2.37,2.37,0,0,0,97.57,83,0.66,0.66,0,0,1,98,82.88a0.55,0.55,0,0,1,.38.13,0.56,0.56,0,0,1,.23.43,0.46,0.46,0,0,1-.2.38,3.54,3.54,0,0,1-1.07.56,3.88,3.88,0,0,1-3.09-.24,3.27,3.27,0,0,1-1.29-1.25,3.55,3.55,0,0,1-.46-1.81,3.75,3.75,0,0,1,.44-1.82A3.17,3.17,0,0,1,94.14,78a3.48,3.48,0,0,1,1.77-.45A3.2,3.2,0,0,1,97.6,78a2.85,2.85,0,0,1,1.09,1.21A4,4,0,0,1,99.07,81,0.53,0.53,0,0,1,98.91,81.36Zm-4.5-2.21a2.28,2.28,0,0,0-.73,1.36h4.23a2.25,2.25,0,0,0-.64-1.36,1.86,1.86,0,0,0-1.36-.51A2.2,2.2,0,0,0,94.41,79.15Z"/></svg>