<svg id="Layer_1" data-name="Layer 1" xmlns="http://www.w3.org/2000/svg" viewBox="0 0 100 100"><defs><style>.cls-1{fill:#00435a;}.cls-2{fill:#00aede;}.cls-3{fill:#004561;}</style></defs><path class="cls-1" d="M60,44.21V33.33l-9.36,5.44L60,44.21"/><path class="cls-2" d="M59.47,32.23l-9.41-5.44V37.67l9.41-5.44"/><path class="cls-2" d="M48.8,37.67V26.79l-9.47,5.44,9.47,5.44"/><path class="cls-2" d="M48.17,25.74l-9.36-5.44v11l9.36-5.54"/><path class="cls-1" d="M59.47,45.25l-9.41-5.44V50.69l9.41-5.44"/><path class="cls-1" d="M48.8,50.74V39.87l-9.47,5.44,9.47,5.44"/><path class="cls-2" d="M70.71,38.77l-9.47-5.44V44.21l9.47-5.44"/><path class="cls-2" d="M37.55,31.18v-11l-9.47,5.49,9.47,5.49"/><path class="cls-1" d="M48.17,51.79l-9.36-5.44V57.23l9.36-5.44"/><path class="cls-2" d="M37.55,57.23V46.35l-9.47,5.44,9.47,5.44"/><path class="cls-1" d="M48.17,38.77l-9.36-5.44V44.21l9.36-5.44"/><path class="cls-2" d="M60,31.18v-11l-9.36,5.49L60,31.18"/><path class="cls-1" d="M50,13.77V24.65l9.36-5.44L50,13.77"/><path class="cls-1" d="M39.33,19.21l9.47,5.44V13.77l-9.47,5.44"/><path class="cls-1" d="M59.47,58.22l-9.41-5.44V63.66l9.41-5.44"/><path class="cls-1" d="M48.8,63.77V52.89l-9.47,5.44,9.47,5.44"/><path class="cls-2" d="M71.29,50.74V39.87l-9.36,5.44,9.36,5.44"/><path class="cls-2" d="M37.55,44.21v-11l-9.47,5.44,9.47,5.54"/><path class="cls-2" d="M36.87,45.25l-9.52-5.44V50.69l9.52-5.44"/><path class="cls-2" d="M71.29,37.67V26.79l-9.36,5.44,9.36,5.44"/><path class="cls-2" d="M70.71,25.74l-9.47-5.44v11l9.47-5.54"/><path class="cls-2" d="M70.71,51.79l-9.47-5.44V57.23l9.47-5.44"/><path class="cls-1" d="M60,57.23V46.35l-9.36,5.44L60,57.23"/><path class="cls-2" d="M36.87,32.23l-9.52-5.44V37.67l9.52-5.44"/><path class="cls-3" d="M18.77,79.84a0.52,0.52,0,0,0-.08-0.35L17.3,77.66c0,0.16,0,.22,0,0.28q0,2.13,0,4.25c0,1.2,0,2.39,0,3.59,0,0.22.05,0.31,0.29,0.29a5.48,5.48,0,0,1,.85,0c0.28,0,.36-0.07.36-0.35C18.77,83.76,18.77,81.8,18.77,79.84Z"/><path class="cls-3" d="M42.78,84.68a0.47,0.47,0,0,0-.42-0.07c-1.82,0-3.65,0-5.47,0-0.33,0-.41-0.1-0.41-0.42,0-1.19,0-2.39,0-3.58h4.32a1.59,1.59,0,0,0,1-.06,1.74,1.74,0,0,0,.09-1c0-.3-0.07-0.4-0.39-0.4-1.67,0-3.34,0-5,0h0V75.2h5.65a0.42,0.42,0,0,0,.41-0.08h0c0-.36,0-0.71,0-1.07s-0.07-.29-0.29-0.29h-7a0.24,0.24,0,0,0-.29.29q0,5.88,0,11.75a0.22,0.22,0,0,0,.27.27h7.32c0.19,0,.26-0.05.25-0.25C42.77,85.44,42.78,85.06,42.78,84.68Zm-2.37-4.11h0Zm1.45-.17c0-.06,0-0.14,0-0.25v0.06A0.56,0.56,0,0,1,41.86,80.39Zm0-.37c0-.13,0-0.25,0-0.38s0-.24,0-0.31A1.85,1.85,0,0,1,41.86,80Zm-0.16-.86H40.94A1.79,1.79,0,0,1,41.69,79.16Zm-1.79,0h0Zm-3.05,0h0Zm5.41-4h0Z"/><path class="cls-3" d="M30.2,85.66q0-6,0-12.07a2,2,0,0,0,0-.29c0-.08-0.07-0.08-0.13,0a1.6,1.6,0,0,1-.11.18c-0.74.95-1.49,1.89-2.23,2.84s-1.35,1.78-2,2.67-1.32,1.68-2,2.53c-0.08-.08-0.17-0.17-0.24-0.26L20.08,76.8,17.4,73.28c-0.08-.09-0.14,0-0.14,0a12.87,12.87,0,0,0,0,2h0c1.25,1.74,2.48,3.48,3.81,5.16,0.83,1,1.62,2.12,2.43,3.18,0.14,0.18.18,0.18,0.31,0,1-1.29,2-2.58,3-3.87,0.58-.75,1.13-1.52,1.7-2.28a0.45,0.45,0,0,1,.08.41q0,3.84,0,7.69a0.42,0.42,0,0,0,.08.41h1.38A0.42,0.42,0,0,0,30.2,85.66ZM17.3,73.35a0.45,0.45,0,0,0,0,.08v0A0.34,0.34,0,0,1,17.3,73.35ZM28.69,85.72q0-.87,0-1.74,0,0.85,0,1.7s0,0,0,0v0Zm0-7.89V77.66A0.31,0.31,0,0,1,28.7,77.82Zm1.47,3.36q0-1.12,0-2.23Q30.17,80.06,30.17,81.18Zm0,4.74v0q0-.1,0-0.2A1.42,1.42,0,0,1,30.17,85.92Zm0-12.29s0-.09,0-0.14,0-.09,0-0.13A0.54,0.54,0,0,1,30.17,73.63Z"/><path class="cls-3" d="M54.57,82.53a4.18,4.18,0,0,0-.29-1.12,4.13,4.13,0,0,0-2.17-2c-0.76-.34-1.56-0.6-2.32-0.95a1.57,1.57,0,0,1-.91-2,1.76,1.76,0,0,1,1.79-1.41,3.59,3.59,0,0,1,1.72.45,1.07,1.07,0,0,0,.72.41,3.58,3.58,0,0,0,.62-0.71c0.27-.25.12-0.37-0.07-0.52a5,5,0,0,0-2.37-1,2,2,0,0,0-1,0c-0.2,0-.41.06-0.61,0.11a2.82,2.82,0,0,0-1.57.89,3.2,3.2,0,0,0-.73,1.84,1,1,0,0,0,0,.74h0a3,3,0,0,0,1.79,2.52,10.92,10.92,0,0,0,1.67.66,3.41,3.41,0,0,1,1.95,1.26,2,2,0,0,1-1.62,3H50.39a2.07,2.07,0,0,1-.47-0.05,4.19,4.19,0,0,1-1.86-1.16c-0.23-.24-0.39-0.32-0.62,0A3.82,3.82,0,0,1,47,84a0.22,0.22,0,0,0,0,.37c0.1,0.1.15,0.24,0.26,0.34a5.52,5.52,0,0,0,3,1.47,0.58,0.58,0,0,0,.38,0l-0.26,0a0.48,0.48,0,0,1,.26,0h0.5a0.28,0.28,0,0,1,.13,0l-0.13,0a0.73,0.73,0,0,0,.45-0.06,3.41,3.41,0,0,0,3-3.12A0.53,0.53,0,0,0,54.57,82.53Z"/><path class="cls-3" d="M82.68,82.23c0-.18-0.09-0.35-0.15-0.53a3.83,3.83,0,0,0-1.94-2.1,20.78,20.78,0,0,0-2.41-1,1.66,1.66,0,0,1-1.21-2,1.78,1.78,0,0,1,1.9-1.54,3.44,3.44,0,0,1,2.16.8c0.15,0.13.24,0.13,0.35,0A9.27,9.27,0,0,1,82,75.12c0.12-.14.08-0.18,0-0.28a4.87,4.87,0,0,0-2.53-1.14,2,2,0,0,0-1,0,3.12,3.12,0,0,0-2.43,1.39,3.48,3.48,0,0,0-.44,2.19,2.84,2.84,0,0,0,1.21,2.14,9.72,9.72,0,0,0,2.43,1.09,2.71,2.71,0,0,1,2,1.93h0v0.61h0a2,2,0,0,1-1.91,1.7H78.52A3.2,3.2,0,0,1,76.67,84a2.09,2.09,0,0,0-.77-0.61,2.09,2.09,0,0,0-.77.7L75,84.15a0.1,0.1,0,0,0,0,.16,4.88,4.88,0,0,0,.4.46,5.65,5.65,0,0,0,3,1.4,0.57,0.57,0,0,0,.39,0l-0.24,0a0.5,0.5,0,0,1,.24,0h0.55l0.09,0-0.09,0a0.55,0.55,0,0,0,.38-0.05,3.42,3.42,0,0,0,3-2.9A2,2,0,0,0,82.68,82.23Z"/><path class="cls-3" d="M71.36,79.49a6.42,6.42,0,0,0-5.79-5.87,2.21,2.21,0,0,0-1.1,0,6.25,6.25,0,0,0-5.65,5.49,0.58,0.58,0,0,0-.05.38,0.54,0.54,0,0,0,0-.1,0.23,0.23,0,0,1,0,.1v0.86a0.48,0.48,0,0,1,0,.26l0-.26a0.58,0.58,0,0,0,0,.38,5.93,5.93,0,0,0,.93,2.57,6.08,6.08,0,0,0,4.5,2.84,1,1,0,0,0,.52.06l-0.16,0a0.36,0.36,0,0,1,.16,0h0.58a0.36,0.36,0,0,1,.16,0l-0.16,0a1,1,0,0,0,.52-0.06,6.4,6.4,0,0,0,5.5-5.86h0A1.23,1.23,0,0,0,71.36,79.49Zm-6.27,5.31a4.88,4.88,0,1,1,4.81-4.89A4.89,4.89,0,0,1,65.09,84.81Z"/></svg>