<?xml version="1.0" encoding="utf-8"?>
<!-- Generator: Adobe Illustrator 19.2.1, SVG Export Plug-In . SVG Version: 6.00 Build 0)  -->
<svg version="1.1" id="Layer_1" xmlns="http://www.w3.org/2000/svg" xmlns:xlink="http://www.w3.org/1999/xlink" x="0px" y="0px"
	 viewBox="0 0 100 100" style="enable-background:new 0 0 100 100;" xml:space="preserve">
<style type="text/css">
	.st0{fill:#00435A;}
	.st1{fill:#00AEDE;}
</style>
<g>
	<path class="st0" d="M70.4,60.4V39.6L52.5,50L70.4,60.4"/>
	<path class="st1" d="M69.4,37.5L51.4,27.1v20.8L69.4,37.5"/>
	<path class="st1" d="M49,47.9V27.1L30.9,37.5L49,47.9"/>
	<path class="st1" d="M47.8,25.1L29.9,14.7v21L47.8,25.1"/>
	<path class="st0" d="M69.4,62.4L51.4,52v20.8L69.4,62.4"/>
	<path class="st0" d="M49,72.9V52.1L30.9,62.5L49,72.9"/>
	<path class="st1" d="M90.9,50L72.8,39.6v20.8L90.9,50"/>
	<path class="st1" d="M27.5,35.5v-21L9.4,25L27.5,35.5"/>
	<path class="st0" d="M47.8,74.9L29.9,64.5v20.8L47.8,74.9"/>
	<path class="st1" d="M27.5,85.3V64.5L9.4,74.9L27.5,85.3"/>
	<path class="st0" d="M47.8,50L29.9,39.6v20.8L47.8,50"/>
	<path class="st1" d="M70.4,35.5v-21L52.5,25L70.4,35.5"/>
	<path class="st0" d="M51.3,2.2V23l17.9-10.4L51.3,2.2"/>
	<path class="st0" d="M30.9,12.6L49,23V2.2L30.9,12.6"/>
	<path class="st0" d="M69.4,87.2L51.4,76.8v20.8L69.4,87.2"/>
	<path class="st0" d="M49,97.8V77L30.9,87.4L49,97.8"/>
	<path class="st1" d="M92,72.9V52.1L74.1,62.5L92,72.9"/>
	<path class="st1" d="M27.5,60.4v-21L9.4,49.8L27.5,60.4"/>
	<path class="st1" d="M26.2,62.4L8,52v20.8L26.2,62.4"/>
	<path class="st1" d="M92,47.9V27.1L74.1,37.5L92,47.9"/>
	<path class="st1" d="M90.9,25.1L72.8,14.7v21L90.9,25.1"/>
	<path class="st1" d="M90.9,74.9L72.8,64.5v20.8L90.9,74.9"/>
	<path class="st0" d="M70.4,85.3V64.5L52.5,74.9L70.4,85.3"/>
	<path class="st1" d="M26.2,37.5L8,27.1v20.8L26.2,37.5"/>
</g>
</svg>
