<?xml version="1.0" encoding="utf-8"?>
<!-- Generator: Adobe Illustrator 22.1.0, SVG Export Plug-In . SVG Version: 6.00 Build 0)  -->
<svg version="1.1" id="Layer_1" xmlns="http://www.w3.org/2000/svg" xmlns:xlink="http://www.w3.org/1999/xlink" x="0px" y="0px"
	 viewBox="0 0 100 100" style="enable-background:new 0 0 100 100;" xml:space="preserve">
<style type="text/css">
	.st0{fill:#F25022;}
	.st1{fill:#80BA01;}
	.st2{fill:#02A4EF;}
	.st3{fill:#FFB902;}
</style>
<g>
	<g>
		<path class="st0" d="M25,25h23.8c0,7.9,0,15.9,0,23.8c-7.9,0-15.9,0-23.8,0V25L25,25z"/>
		<path class="st1" d="M51.2,25H75c0,7.9,0,15.9,0,23.8c-7.9,0-15.9,0-23.8,0C51.2,40.7,51.2,32.7,51.2,25L51.2,25z"/>
		<path class="st2" d="M25,51.2c7.9,0,15.9,0,23.8,0c0,7.9,0,15.9,0,23.8H25V51.2L25,51.2z"/>
		<path class="st3" d="M51.2,51.2c7.9,0,15.9,0,23.8,0c0,7.9,0,15.9,0,23.8H51.2C51.2,66.8,51.2,58.9,51.2,51.2L51.2,51.2z"/>
	</g>
</g>
</svg>
