<?xml version="1.0" encoding="utf-8"?>
<!-- Generator: Adobe Illustrator 22.1.0, SVG Export Plug-In . SVG Version: 6.00 Build 0)  -->
<svg version="1.1" id="Layer_1" xmlns="http://www.w3.org/2000/svg" xmlns:xlink="http://www.w3.org/1999/xlink" x="0px" y="0px"
	 viewBox="0 0 100 100" style="enable-background:new 0 0 100 100;" xml:space="preserve">
<style type="text/css">
	.st0{fill:#78C9CF;}
	.st1{fill:#FFFFFF;}
	.st2{fill:#F25022;}
	.st3{fill:#80BA01;}
	.st4{fill:#777777;}
	.st5{fill:#02A4EF;}
	.st6{fill:#FFB902;}
</style>
<path class="st0" d="M62.4,85.4H35.7c-0.4,0-0.8-0.4-0.8-0.8v-8.4c0-0.4,0.4-0.8,0.8-0.8h26.7c0.4,0,0.8,0.4,0.8,0.8v8.4
	C63.2,85.1,62.9,85.4,62.4,85.4z"/>
<g>
	<path class="st1" d="M38.3,83.1v-0.4c0.5,0.2,1,0.3,1.6,0.3c1.1,0,1.5-0.4,1.5-1.1s-0.5-1-1.5-1.4s-1.5-0.8-1.5-1.6
		c0-0.8,0.7-1.4,1.8-1.4c0.6,0,1,0.1,1.5,0.3v0.4c-0.5-0.2-0.9-0.3-1.4-0.3c-0.9,0-1.4,0.4-1.4,1s0.4,0.9,1.4,1.3s1.6,0.7,1.6,1.7
		c0,0.9-0.7,1.5-1.9,1.5C39.3,83.4,38.6,83.3,38.3,83.1z"/>
	<path class="st1" d="M45.2,77.6h0.4l2.2,5.6h-0.4l-0.6-1.6H44l-0.6,1.6H43L45.2,77.6z M46.6,81.3l-1.2-3.1l-1.2,3.1H46.6z"/>
	<path class="st1" d="M49.3,77.6h0.5l2.3,5l2.3-5h0.5v5.6h-0.4v-4.8l-2.2,4.8h-0.2l-2.2-4.8v4.8h-0.4v-5.6H49.3z"/>
	<path class="st1" d="M56.5,77.6h0.4v5.3H60v0.4h-3.5V77.6z"/>
</g>
<g>
	<g>
		<path class="st2" d="M0,25h10.2c0,3.4,0,6.8,0,10.2c-3.4,0-6.8,0-10.2,0V25L0,25z"/>
		<path class="st3" d="M11.2,25h10.2c0,3.4,0,6.8,0,10.2c-3.4,0-6.8,0-10.2,0C11.2,31.7,11.2,28.3,11.2,25L11.2,25z"/>
		<path class="st4" d="M91.6,28.8c0.9-0.6,2.1-0.7,3.2-0.4c0,0.6,0,1.3,0,1.9c-0.5-0.2-1.1-0.4-1.6-0.1c-0.4,0.2-0.7,0.6-0.7,1
			c-0.1,0.5,0,1.1,0,1.6c1.1,0,2.1,0,3.2,0c0-0.7,0-1.4,0-2.1c0.7-0.2,1.4-0.4,2.2-0.7c0,0.9,0,1.8,0,2.8c0.7,0,1.4,0,2.2,0v1.8
			c-0.7,0-1.5,0-2.2,0c0,1,0,2.1,0,3.1c0,0.6,0,1.1,0,1.7c0,0.3,0.2,0.7,0.5,0.9c0.5,0.3,1.2,0.2,1.7-0.2v1.8
			c-0.6,0.3-1.3,0.4-2,0.3c-0.6,0-1.3-0.3-1.7-0.8c-0.5-0.6-0.6-1.4-0.6-2.1c0-1.6,0-3.1,0-4.7c-1.1,0-2.1,0-3.2,0
			c0,2.5,0,4.9,0,7.4c-0.7,0-1.5,0-2.2,0c0-2.5,0-4.9,0-7.4c-0.5,0-1,0-1.5,0c0-0.6,0-1.2,0-1.8c0.5,0,1,0,1.5,0
			c0-0.8-0.1-1.6,0.2-2.3C90.6,29.8,91,29.2,91.6,28.8L91.6,28.8z"/>
		<path class="st4" d="M44.6,29c0.4-0.1,0.9,0.1,1.2,0.4c0.3,0.4,0.4,1,0.2,1.4c-0.3,0.5-0.9,0.7-1.5,0.6c-0.6-0.1-1-0.6-1-1.2
			C43.4,29.6,44,29,44.6,29L44.6,29z"/>
		<path class="st4" d="M27.7,29.2c1.1,0,2.1,0,3.2,0c1,2.5,2,5,3,7.6c0.3,0.6,0.5,1.3,0.8,1.9c1.3-3.2,2.6-6.3,3.8-9.5
			c1,0,2,0,3.1,0c0,4.3,0,8.5,0,12.8c-0.7,0-1.5,0-2.2,0c0-3.2,0-6.3,0-9.5c0-0.1,0-0.3,0-0.4c0,0.1-0.1,0.1-0.1,0.2
			c-1.3,3.2-2.6,6.4-3.8,9.7c-0.5,0-1.1,0-1.6,0c-1.3-3.2-2.6-6.5-3.9-9.7c0-0.1-0.1-0.1-0.1-0.2c0,1.4,0,2.8,0,4.1
			c0,1.9,0,3.8,0,5.7c-0.7,0-1.4,0-2.1,0C27.7,37.8,27.7,33.5,27.7,29.2L27.7,29.2z"/>
		<path class="st4" d="M50.6,32.8c1.1-0.3,2.2-0.3,3.3,0c0.2,0.1,0.4,0.1,0.6,0.3c0,0.7,0,1.4,0,2.1c-0.7-0.5-1.6-0.9-2.5-0.8
			c-0.7,0.1-1.4,0.4-1.8,1c-0.5,0.7-0.7,1.7-0.6,2.5c0.1,0.7,0.4,1.4,0.9,1.8c0.6,0.5,1.3,0.7,2.1,0.6c0.7-0.1,1.4-0.4,2-0.8
			c0,0.7,0,1.3,0,2c-0.9,0.5-2,0.7-3,0.6c-1.1-0.1-2.1-0.5-2.9-1.2c-0.8-0.8-1.3-1.9-1.3-3.1c-0.1-1.2,0.2-2.4,0.9-3.4
			C48.7,33.7,49.6,33.1,50.6,32.8L50.6,32.8z"/>
		<path class="st4" d="M74.6,32.7c1-0.2,2.1,0,3,0.3c0,0.7,0,1.3,0,2c-0.7-0.5-1.5-0.7-2.3-0.7c-0.4,0-0.9,0.2-1,0.6
			c-0.1,0.4,0,0.9,0.3,1.1c0.6,0.4,1.4,0.6,2,1c0.5,0.3,1,0.7,1.3,1.2c0.5,1,0.3,2.3-0.6,3.1c-0.8,0.8-2,1-3.1,0.9
			c-0.8,0-1.5-0.2-2.2-0.5c0-0.7,0-1.4,0-2.1c0.6,0.4,1.3,0.7,2,0.9c0.5,0.1,1,0.1,1.5-0.1c0.4-0.2,0.5-0.9,0.3-1.2
			c-0.2-0.3-0.6-0.5-1-0.6c-0.6-0.3-1.3-0.5-1.9-1c-0.4-0.3-0.7-0.8-0.8-1.2c-0.2-0.7-0.1-1.6,0.3-2.2
			C72.9,33.3,73.8,32.9,74.6,32.7L74.6,32.7z"/>
		<path class="st4" d="M59.4,33c0.6-0.4,1.4-0.4,2-0.2c0,0.7,0,1.5,0,2.2c-0.4-0.3-1-0.4-1.5-0.3c-0.6,0.1-1.1,0.5-1.4,1.1
			c-0.3,0.6-0.3,1.2-0.3,1.9c0,1.5,0,2.9,0,4.4c-0.7,0-1.4,0-2.2,0c0-3.1,0-6.1,0-9.2c0.7,0,1.4,0,2.2,0c0,0.5,0,1.1,0,1.6
			C58.5,33.9,58.9,33.3,59.4,33L59.4,33z"/>
		<path class="st4" d="M43.7,32.9c0.7,0,1.5,0,2.2,0c0,3.1,0,6.1,0,9.2c-0.7,0-1.5,0-2.2,0C43.7,39,43.7,35.9,43.7,32.9L43.7,32.9z"
			/>
		<path class="st4" d="M70.6,35c-0.4-0.8-1.1-1.6-1.9-1.9c-1-0.4-2.1-0.5-3.1-0.4c-1.1,0.1-2.2,0.7-2.9,1.5c-0.6,0.8-1,1.8-1,2.8
			c-0.1,1.2,0.1,2.4,0.8,3.4c0.6,0.9,1.5,1.4,2.5,1.7c0.8,0.2,1.7,0.2,2.6,0c1-0.2,1.9-0.7,2.5-1.6c0.6-0.8,0.9-1.7,1-2.7
			C71.1,36.9,71,35.9,70.6,35z M68.4,39.2c-0.2,0.5-0.6,0.9-1.1,1.1c-0.6,0.2-1.2,0.2-1.8,0.1c-0.6-0.2-1.1-0.6-1.4-1.1
			c-0.4-0.7-0.4-1.5-0.3-2.3c0.1-0.7,0.3-1.4,0.8-1.9c0.4-0.4,0.9-0.5,1.4-0.6c0.7,0,1.4,0.1,1.8,0.6c0.5,0.5,0.7,1.2,0.8,1.9
			C68.8,37.7,68.8,38.5,68.4,39.2z"/>
		<path class="st4" d="M88.2,35.3c-0.3-0.9-1-1.7-1.9-2.1c-1-0.5-2.2-0.6-3.3-0.4c-0.9,0.1-1.8,0.4-2.4,1c-0.8,0.7-1.3,1.8-1.4,2.8
			c-0.1,1.1-0.1,2.2,0.3,3.2c0.4,1,1.2,1.8,2.2,2.2c1,0.4,2.1,0.4,3.1,0.3c1.1-0.2,2-0.7,2.7-1.6c0.7-0.9,1-2,1-3.1
			C88.5,36.7,88.4,36,88.2,35.3z M86.2,38.4c-0.1,0.5-0.3,1-0.6,1.3c-0.3,0.4-0.8,0.6-1.3,0.7c-0.5,0.1-1.1,0-1.6-0.2
			c-0.5-0.2-0.9-0.7-1.2-1.2c-0.3-0.6-0.3-1.3-0.3-2c0.1-0.7,0.2-1.3,0.7-1.8c0.4-0.5,1-0.7,1.6-0.8c0.6,0,1.3,0.1,1.8,0.5
			c0.4,0.4,0.7,0.9,0.8,1.5C86.3,37.1,86.3,37.7,86.2,38.4z"/>
		<path class="st5" d="M0,36.2c3.4,0,6.8,0,10.2,0c0,3.4,0,6.8,0,10.2H0V36.2L0,36.2z"/>
		<path class="st6" d="M11.2,36.2c3.4,0,6.8,0,10.2,0c0,3.4,0,6.8,0,10.2H11.2C11.2,42.9,11.2,39.5,11.2,36.2L11.2,36.2z"/>
	</g>
	<g>
		<path class="st4" d="M29,49.5l-0.7,1.9H28l1.9-5.4h0.4l1.9,5.4h-0.4l-0.7-1.9H29z M31,49.2l-0.7-1.8c-0.1-0.4-0.2-0.6-0.3-0.9h0
			c-0.1,0.3-0.2,0.6-0.3,0.9l-0.7,1.8H31z"/>
		<path class="st4" d="M35.6,51.2c-0.2,0.1-0.6,0.2-1.1,0.2c-1.1,0-1.8-0.8-1.8-2c0-1.2,0.8-2.1,2-2.1c0.5,0,0.9,0.1,1,0.2L35.5,48
			c-0.2-0.1-0.5-0.2-0.9-0.2c-1,0-1.6,0.8-1.6,1.7c0,1,0.6,1.7,1.5,1.7c0.5,0,0.8-0.1,1-0.2L35.6,51.2z"/>
		<path class="st4" d="M37.2,46.4v1.1h1.1v0.3h-1.1v2.5c0,0.5,0.2,0.8,0.6,0.8c0.2,0,0.3,0,0.4-0.1l0,0.3c-0.1,0.1-0.3,0.1-0.5,0.1
			c-0.3,0-0.5-0.1-0.7-0.3c-0.2-0.2-0.2-0.5-0.2-0.9v-2.4h-0.6v-0.3h0.6v-1L37.2,46.4z"/>
		<path class="st4" d="M39.6,46.4c0,0.2-0.1,0.3-0.3,0.3c-0.2,0-0.3-0.2-0.3-0.3c0-0.2,0.1-0.3,0.3-0.3
			C39.5,46.1,39.6,46.2,39.6,46.4z M39.1,51.4v-3.8h0.4v3.8H39.1z"/>
		<path class="st4" d="M40.7,47.5l0.9,2.4c0.2,0.4,0.3,0.7,0.4,1h0c0.1-0.3,0.2-0.7,0.4-1l0.9-2.4h0.4l-1.6,3.8h-0.3l-1.5-3.8H40.7z
			"/>
		<path class="st4" d="M44.4,49.4c0,1.2,0.7,1.7,1.5,1.7c0.6,0,0.8-0.1,1.1-0.2l0.1,0.3c-0.1,0.1-0.5,0.2-1.2,0.2
			c-1.1,0-1.8-0.8-1.8-1.9c0-1.3,0.7-2.1,1.7-2.1c1.3,0,1.5,1.2,1.5,1.7c0,0.1,0,0.2,0,0.2H44.4z M46.8,49.1c0-0.5-0.2-1.4-1.1-1.4
			c-0.8,0-1.2,0.8-1.3,1.4H46.8z"/>
		<path class="st4" d="M50,46c0.4-0.1,0.9-0.1,1.4-0.1c1,0,1.7,0.3,2.2,0.7c0.4,0.4,0.7,1.1,0.7,1.9c0,0.8-0.2,1.5-0.7,2
			c-0.5,0.5-1.3,0.8-2.3,0.8c-0.4,0-0.8,0-1.2,0V46z M50.3,51c0.2,0,0.5,0,0.9,0c1.7,0,2.6-1,2.6-2.5c0-1.4-0.7-2.3-2.5-2.3
			c-0.4,0-0.7,0-1,0.1V51z"/>
		<path class="st4" d="M55.6,46.4c0,0.2-0.1,0.3-0.3,0.3c-0.2,0-0.3-0.2-0.3-0.3c0-0.2,0.1-0.3,0.3-0.3
			C55.5,46.1,55.6,46.2,55.6,46.4z M55.1,51.4v-3.8h0.4v3.8H55.1z"/>
		<path class="st4" d="M56.8,48.7c0-0.4,0-0.8,0-1.2h0.4l0,0.8h0c0.2-0.5,0.6-0.9,1.1-0.9c0.1,0,0.1,0,0.2,0v0.4c-0.1,0-0.1,0-0.2,0
			c-0.5,0-0.9,0.5-1,1.1c0,0.1,0,0.2,0,0.4v2.1h-0.4V48.7z"/>
		<path class="st4" d="M59.1,49.4c0,1.2,0.7,1.7,1.5,1.7c0.6,0,0.8-0.1,1.1-0.2l0.1,0.3c-0.1,0.1-0.5,0.2-1.2,0.2
			c-1.1,0-1.8-0.8-1.8-1.9c0-1.3,0.7-2.1,1.7-2.1c1.3,0,1.5,1.2,1.5,1.7c0,0.1,0,0.2,0,0.2H59.1z M61.6,49.1c0-0.5-0.2-1.4-1.1-1.4
			c-0.8,0-1.2,0.8-1.3,1.4H61.6z"/>
		<path class="st4" d="M65.6,51.2c-0.2,0.1-0.6,0.2-1.1,0.2c-1.1,0-1.8-0.8-1.8-2c0-1.2,0.8-2.1,2-2.1c0.5,0,0.9,0.1,1,0.2L65.5,48
			c-0.2-0.1-0.5-0.2-0.9-0.2c-1,0-1.6,0.8-1.6,1.7c0,1,0.6,1.7,1.5,1.7c0.5,0,0.8-0.1,1-0.2L65.6,51.2z"/>
		<path class="st4" d="M67.1,46.4v1.1h1.1v0.3h-1.1v2.5c0,0.5,0.2,0.8,0.6,0.8c0.2,0,0.3,0,0.4-0.1l0,0.3c-0.1,0.1-0.3,0.1-0.5,0.1
			c-0.3,0-0.5-0.1-0.7-0.3c-0.2-0.2-0.2-0.5-0.2-0.9v-2.4h-0.6v-0.3h0.6v-1L67.1,46.4z"/>
		<path class="st4" d="M72.3,49.4c0,1.4-1,2-1.8,2c-1,0-1.8-0.8-1.8-2c0-1.3,0.9-2,1.8-2C71.6,47.4,72.3,48.2,72.3,49.4z M69.1,49.5
			c0,1,0.6,1.7,1.4,1.7c0.8,0,1.4-0.7,1.4-1.7c0-0.7-0.4-1.7-1.4-1.7C69.6,47.7,69.1,48.6,69.1,49.5z"/>
		<path class="st4" d="M73.3,48.7c0-0.4,0-0.8,0-1.2h0.4l0,0.8h0c0.2-0.5,0.6-0.9,1.1-0.9c0.1,0,0.1,0,0.2,0v0.4c-0.1,0-0.1,0-0.2,0
			c-0.5,0-0.9,0.5-1,1.1c0,0.1,0,0.2,0,0.4v2.1h-0.4V48.7z"/>
		<path class="st4" d="M75.7,47.5l1,2.5c0.1,0.3,0.2,0.6,0.3,0.8h0c0.1-0.2,0.2-0.5,0.3-0.9l0.9-2.5h0.4l-1.2,2.9
			c-0.5,1.2-0.8,1.9-1.3,2.3c-0.3,0.3-0.6,0.4-0.7,0.4l-0.1-0.3c0.2-0.1,0.4-0.2,0.7-0.4c0.2-0.2,0.4-0.5,0.6-1c0-0.1,0-0.1,0-0.2
			c0,0,0-0.1,0-0.2l-1.4-3.6H75.7z"/>
		<path class="st4" d="M28.4,55.6H31v0.3h-2.3V58h2.1v0.3h-2.1V61h-0.4V55.6z"/>
		<path class="st4" d="M31.9,59c0,1.2,0.7,1.7,1.5,1.7c0.6,0,0.8-0.1,1.1-0.2l0.1,0.3c-0.1,0.1-0.5,0.2-1.2,0.2
			c-1.1,0-1.8-0.8-1.8-1.9c0-1.3,0.7-2.1,1.7-2.1c1.3,0,1.5,1.2,1.5,1.7c0,0.1,0,0.2,0,0.2H31.9z M34.3,58.7c0-0.5-0.2-1.4-1.1-1.4
			c-0.8,0-1.2,0.8-1.3,1.4H34.3z"/>
		<path class="st4" d="M38.7,55.3v4.8c0,0.3,0,0.6,0,0.9h-0.3l0-0.7h0C38.2,60.7,37.7,61,37,61c-0.9,0-1.7-0.8-1.7-1.9
			c0-1.3,0.8-2.1,1.7-2.1c0.7,0,1.1,0.3,1.3,0.7h0v-2.4H38.7z M38.4,58.6c0-0.1,0-0.2,0-0.3c-0.1-0.5-0.6-0.9-1.2-0.9
			c-0.8,0-1.4,0.7-1.4,1.7c0,0.9,0.4,1.7,1.3,1.7c0.5,0,1.1-0.4,1.2-1c0-0.1,0-0.2,0-0.3V58.6z"/>
		<path class="st4" d="M40.1,59c0,1.2,0.7,1.7,1.5,1.7c0.6,0,0.8-0.1,1.1-0.2l0.1,0.3c-0.1,0.1-0.5,0.2-1.2,0.2
			c-1.1,0-1.8-0.8-1.8-1.9c0-1.3,0.7-2.1,1.7-2.1c1.3,0,1.5,1.2,1.5,1.7c0,0.1,0,0.2,0,0.2H40.1z M42.5,58.7c0-0.5-0.2-1.4-1.1-1.4
			c-0.8,0-1.2,0.8-1.3,1.4H42.5z"/>
		<path class="st4" d="M43.9,58.3c0-0.4,0-0.8,0-1.2h0.4l0,0.8h0c0.2-0.5,0.6-0.9,1.1-0.9c0.1,0,0.1,0,0.2,0v0.4c-0.1,0-0.1,0-0.2,0
			c-0.5,0-0.9,0.5-1,1.1c0,0.1,0,0.2,0,0.4V61h-0.4V58.3z"/>
		<path class="st4" d="M48.3,61l-0.1-0.5h0C48.1,60.7,47.6,61,47,61c-0.8,0-1.1-0.5-1.1-1.1c0-0.9,0.8-1.4,2.3-1.4v-0.1
			c0-0.4-0.1-1.1-1-1.1c-0.3,0-0.7,0.1-1,0.3l-0.1-0.3c0.3-0.2,0.8-0.3,1.1-0.3c1.1,0,1.3,0.8,1.3,1.5V60c0,0.3,0,0.6,0.1,0.9H48.3z
			 M48.2,58.9c-0.8,0-1.9,0.1-1.9,1c0,0.6,0.4,0.8,0.8,0.8c0.6,0,1-0.4,1.1-0.8c0-0.1,0-0.2,0-0.2V58.9z"/>
		<path class="st4" d="M50.4,56v1.1h1.1v0.3h-1.1v2.5c0,0.5,0.2,0.8,0.6,0.8c0.2,0,0.3,0,0.4-0.1l0,0.3C51.3,61,51.1,61,50.9,61
			c-0.3,0-0.5-0.1-0.7-0.3c-0.2-0.2-0.2-0.5-0.2-0.9v-2.4h-0.6v-0.3H50v-1L50.4,56z"/>
		<path class="st4" d="M52.8,56c0,0.2-0.1,0.3-0.3,0.3c-0.2,0-0.3-0.2-0.3-0.3c0-0.2,0.1-0.3,0.3-0.3C52.7,55.7,52.8,55.8,52.8,56z
			 M52.3,61v-3.8h0.4V61H52.3z"/>
		<path class="st4" d="M57.3,59c0,1.4-1,2-1.8,2c-1,0-1.8-0.8-1.8-2c0-1.3,0.9-2,1.8-2C56.6,57,57.3,57.8,57.3,59z M54.1,59.1
			c0,1,0.6,1.7,1.4,1.7c0.8,0,1.4-0.7,1.4-1.7c0-0.7-0.4-1.7-1.4-1.7C54.5,57.3,54.1,58.2,54.1,59.1z"/>
		<path class="st4" d="M58.3,58c0-0.4,0-0.6,0-0.9h0.4l0,0.7h0c0.2-0.4,0.7-0.8,1.3-0.8c0.4,0,1.3,0.2,1.3,1.6V61h-0.4v-2.3
			c0-0.7-0.3-1.3-1.1-1.3c-0.5,0-1,0.4-1.2,0.9c0,0.1-0.1,0.2-0.1,0.3V61h-0.4V58z"/>
		<path class="st4" d="M64.1,60.4c0.3,0.2,0.7,0.4,1.2,0.4c0.8,0,1.3-0.5,1.3-1.1c0-0.6-0.3-1-1.1-1.3c-0.9-0.3-1.4-0.8-1.4-1.5
			c0-0.8,0.7-1.4,1.6-1.4c0.5,0,0.9,0.1,1.1,0.3l-0.1,0.3c-0.1-0.1-0.5-0.3-1-0.3c-0.9,0-1.2,0.6-1.2,1c0,0.6,0.3,0.9,1.1,1.2
			c0.9,0.4,1.4,0.8,1.4,1.6c0,0.8-0.6,1.5-1.7,1.5c-0.5,0-1-0.2-1.3-0.4L64.1,60.4z"/>
		<path class="st4" d="M68.1,59c0,1.2,0.7,1.7,1.5,1.7c0.6,0,0.8-0.1,1.1-0.2l0.1,0.3c-0.1,0.1-0.5,0.2-1.2,0.2
			c-1.1,0-1.8-0.8-1.8-1.9c0-1.3,0.7-2.1,1.7-2.1c1.3,0,1.5,1.2,1.5,1.7c0,0.1,0,0.2,0,0.2H68.1z M70.6,58.7c0-0.5-0.2-1.4-1.1-1.4
			c-0.8,0-1.2,0.8-1.3,1.4H70.6z"/>
		<path class="st4" d="M71.9,58.3c0-0.4,0-0.8,0-1.2h0.4l0,0.8h0c0.2-0.5,0.6-0.9,1.1-0.9c0.1,0,0.1,0,0.2,0v0.4c-0.1,0-0.1,0-0.2,0
			c-0.5,0-0.9,0.5-1,1.1c0,0.1,0,0.2,0,0.4V61h-0.4V58.3z"/>
		<path class="st4" d="M74.4,57.1l0.9,2.4c0.2,0.4,0.3,0.7,0.4,1h0c0.1-0.3,0.2-0.7,0.4-1l0.9-2.4h0.4L75.8,61h-0.3L74,57.1H74.4z"
			/>
		<path class="st4" d="M78.6,56c0,0.2-0.1,0.3-0.3,0.3c-0.2,0-0.3-0.2-0.3-0.3c0-0.2,0.1-0.3,0.3-0.3C78.5,55.7,78.6,55.8,78.6,56z
			 M78.1,61v-3.8h0.4V61H78.1z"/>
		<path class="st4" d="M82.5,60.8c-0.2,0.1-0.6,0.2-1.1,0.2c-1.1,0-1.8-0.8-1.8-2c0-1.2,0.8-2.1,2-2.1c0.5,0,0.9,0.1,1,0.2l-0.1,0.3
			c-0.2-0.1-0.5-0.2-0.9-0.2c-1,0-1.6,0.8-1.6,1.7c0,1,0.6,1.7,1.5,1.7c0.5,0,0.8-0.1,1-0.2L82.5,60.8z"/>
		<path class="st4" d="M83.4,59c0,1.2,0.7,1.7,1.5,1.7c0.6,0,0.8-0.1,1.1-0.2l0.1,0.3c-0.1,0.1-0.5,0.2-1.2,0.2
			c-1.1,0-1.8-0.8-1.8-1.9c0-1.3,0.7-2.1,1.7-2.1c1.3,0,1.5,1.2,1.5,1.7c0,0.1,0,0.2,0,0.2H83.4z M85.9,58.7c0-0.5-0.2-1.4-1.1-1.4
			c-0.8,0-1.2,0.8-1.3,1.4H85.9z"/>
		<path class="st4" d="M87.1,60.5c0.2,0.1,0.5,0.3,0.9,0.3c0.6,0,0.9-0.3,0.9-0.7c0-0.4-0.3-0.6-0.8-0.9c-0.6-0.2-1-0.6-1-1.1
			c0-0.6,0.4-1,1.2-1c0.4,0,0.7,0.1,0.9,0.2l-0.2,0.3c-0.1-0.1-0.4-0.2-0.8-0.2c-0.5,0-0.7,0.3-0.7,0.7c0,0.4,0.3,0.6,0.8,0.8
			c0.6,0.2,1,0.6,1,1.1c0,0.7-0.5,1.1-1.3,1.1c-0.4,0-0.7-0.1-1-0.3L87.1,60.5z"/>
	</g>
</g>
</svg>
