<?xml version="1.0" encoding="utf-8"?>
<!-- Generator: Adobe Illustrator 22.0.1, SVG Export Plug-In . SVG Version: 6.00 Build 0)  -->
<svg version="1.1" id="Layer_1" xmlns="http://www.w3.org/2000/svg" xmlns:xlink="http://www.w3.org/1999/xlink" x="0px" y="0px"
	 viewBox="0 0 100 100" style="enable-background:new 0 0 100 100;" xml:space="preserve">
<style type="text/css">
	.st0{fill:#F15354;}
</style>
<path class="st0" d="M69.9,65.1C73.1,60.9,75,55.7,75,50c0-13.8-11.2-25-25-25c-8.1,0-15.4,3.9-20,9.9l0,0l0,0c-3.2,4.2-5,9.4-5,15
	c0,13.8,11.2,25,25,25c5.6,0,10.8-1.9,15-5l0.1,0.1l0.4-0.4c1.5-1.2,2.9-2.6,4.1-4.1L69.9,65.1L69.9,65.1z M68,50
	c0,3.7-1.1,7.2-3.1,10L40,35.1c2.9-1.9,6.3-3.1,10-3.1C59.9,32,68,40.1,68,50z M50,68c-9.9,0-18-8.1-18-18c0-3.7,1.1-7.1,3-10
	l24.9,25C57.1,66.9,53.7,68,50,68z"/>
</svg>
