<?xml version="1.0" encoding="utf-8"?>
<!-- Generator: Adobe Illustrator 22.1.0, SVG Export Plug-In . SVG Version: 6.00 Build 0)  -->
<svg version="1.1" id="Layer_1" xmlns="http://www.w3.org/2000/svg" xmlns:xlink="http://www.w3.org/1999/xlink" x="0px" y="0px"
	 viewBox="0 0 100 100" style="enable-background:new 0 0 100 100;" xml:space="preserve">
<style type="text/css">
	.st0{fill:#F15354;}
</style>
<path class="st0" d="M69.9398804,65.1303558c3.2064133-4.2084122,5.1102219-9.4188309,5.1102219-15.1302567
	c0-13.827652-11.2224464-25.0500984-25.0501022-25.0500984c-8.11623,0-15.4308624,3.9078159-20.0400791,9.9198418l0,0l0,0
	c-3.2064133,4.208416-5.0100212,9.4188385-5.0100212,15.0300598c0,13.827652,11.2224445,25.0500946,25.0501003,25.0500946
	c5.6112213,0,10.8216438-1.9038086,15.0300598-5.0100174l0.1001968,0.1001968l0.4008026-0.4008026
	c1.503006-1.2024002,2.9058151-2.6052094,4.1082153-4.1082153L69.9398804,65.1303558L69.9398804,65.1303558z M68.0360718,50.0000992
	c0,3.7074165-1.1022034,7.2144318-3.1062088,10.0200424L39.9799614,35.07024
	C42.8857727,33.1664314,46.2925835,31.9640274,50,31.9640274C59.9198418,31.9640293,68.0360718,40.0802574,68.0360718,50.0000992z
	 M50,68.036171c-9.9198418,0-18.0360718-8.11623-18.0360718-18.0360718c0-3.7074127,1.1022034-7.1142273,3.006012-10.0200386
	L59.9198418,65.030159C57.1142273,66.9339676,53.7074165,68.036171,50,68.036171z"/>
</svg>
