<?xml version="1.0" encoding="utf-8"?>
<!-- Generator: Adobe Illustrator 24.0.3, SVG Export Plug-In . SVG Version: 6.00 Build 0)  -->
<svg version="1.1" id="Layer_1" xmlns="http://www.w3.org/2000/svg" xmlns:xlink="http://www.w3.org/1999/xlink" x="0px" y="0px"
	 viewBox="0 0 100 100" style="enable-background:new 0 0 100 100;" xml:space="preserve">
<style type="text/css">
	.st0{fill:none;}
	.st1{fill:#F80000;}
</style>
<g>
	<rect x="-5.7" y="-7.3" class="st0" width="111.6" height="111.6"/>
	<path class="st1" d="M73.9,33.7c-0.4,0-0.8,0-1.2,0C71,28.3,66,24.4,60,24.4c-1.5,0-3,0.3-4.4,0.7c-2.7-4-7.3-6.5-12.4-6.5
		c-7.1,0-13.1,5-14.7,11.6c-0.1,0-0.3,0-0.4,0c-8.3,0-15,6.6-15.1,14.8c-0.2,8.3,6.7,15.1,15,15.4V71l7.6,0.9l3.2-0.6v5.1L51.3,78
		l8.7-1.6v-2.9l4.2,0.5l6.5-1.2V45.5l-6.5-3.6L60,43.5V40l-8.7-4.8L38.6,40v8.3l-3.2-1.7l-7.6,2.9v7.5c-6.2-0.2-11.3-5.1-11.5-11.3
		c-0.2-6.6,5.1-12,11.6-12c0,0,0.1,0,0.2,0h0.2l1.6,0c0.7,0,1.4-0.5,1.5-1.2l0.3-1.5c1.2-5.2,5.9-8.9,11.3-8.9c3.8,0,7.4,1.9,9.6,5
		l0.9,1.2c0.4,0.6,1.1,0.8,1.8,0.6l1.3-0.5c0.7-0.2,1.4-0.4,2.1-0.5c4.8-0.6,9.3,2.3,10.7,6.8l0.5,1.5c0.2,0.7,0.9,1.2,1.6,1.1
		l1.5-0.2c0.6,0,1.1,0,1.6,0c4.8,0.4,8.8,4.3,9.1,9.1c0.4,5.8-4.1,10.6-9.8,10.6h-0.1v3.5c7.4-0.1,13.6-6.2,13.4-13.6
		C87.1,39.5,81.2,33.7,73.9,33.7z M60,68.9l3.1,0.2v-1L60,68v-3.6l3.1-0.1v-1L60,63.5v-3.6l3.1-0.3v-2.9L60,57.1v-3.6l3.1-0.7v-1
		L60,52.6v-3.6l3.1-0.9v-1L60,48v-3.3l4.2-1.5v29.4L60,72.2V68.9z M40,41.1L51.4,37v39.3L40,75.1C40,75.1,40,41.1,40,41.1z M28.7,50
		l6.7-2.4v23.3l-6.7-0.7V50z M40.8,65.6l9-0.3v0.9l-9,0.2V65.6z M40.8,52.8l9-1.8v4.5l-9,1.4V52.8z M40.8,59.2l9-1v4.5l-9,0.6V59.2z
		 M29.2,52.3l5.3-1.6v0.8L29.2,53V52.3z M40.8,49.6l9-2.2v0.9l-9,2.1V49.6z M40.8,68.8l9,0v0.9l-9-0.2V68.8z M40.8,72l9,0.4v0.9
		l-9-0.5V72z M43,46.6l-2.2,0.6v-0.9l2.2-0.6V46.6z M46.3,43.5v3.6l-2.5,0.6v-3.5L46.3,43.5z M29.2,59.1l5.3-0.8v2.3l-5.3,0.5V59.1z
		 M29.2,55.7l5.3-1.2v0.8l-5.3,1.1V55.7z M29.2,63.8l5.3-0.2v0.8l-5.3,0.2V63.8z M47.3,44.5l2.6-0.7v0.9l-2.6,0.7V44.5z M29.2,67.2
		l5.3,0.2v0.8l-5.3-0.3V67.2z M40.8,43.2l9-2.9v0.9l-9,2.8V43.2z"/>
</g>
</svg>

