<svg id="Layer_1" data-name="Layer 1" xmlns="http://www.w3.org/2000/svg" viewBox="0 0 100 100"><defs><style>.cls-1{fill:#4e4540;}.cls-2{opacity:0.98;}.cls-3{fill:#ec1944;}</style></defs><path class="cls-1" d="M25.22,80.83V80.69a3.65,3.65,0,1,0-7.27,0v0.13A3.65,3.65,0,1,0,25.22,80.83Zm-5.58,0V80.71c0-1.47.76-2.56,1.94-2.56s2,1.1,2,2.58v0.09c0,1.47-.76,2.58-1.94,2.58S19.64,82.27,19.64,80.8Z"/><path class="cls-1" d="M33.23,80.86V80.65c0-2.67-1.49-4-3.07-4a2.67,2.67,0,0,0-2.31,1.41V76.81H26.17V86.95h1.68V83.51a2.69,2.69,0,0,0,2.31,1.34C31.76,84.85,33.23,83.51,33.23,80.86Zm-5.41,0V80.68c0-1.55.86-2.53,1.88-2.53s1.83,1,1.83,2.55v0.13c0,1.58-.8,2.53-1.83,2.53S27.83,82.38,27.83,80.83Z"/><path class="cls-1" d="M40.52,83.64l-0.88-1a2.51,2.51,0,0,1-1.82.83,2,2,0,0,1-2-2h4.94c0-.24,0-0.48,0-0.58,0-2.37-1.13-4.15-3.28-4.15-1.94,0-3.37,1.7-3.37,4.07v0.12c0,2.47,1.58,4,3.6,4A3.63,3.63,0,0,0,40.52,83.64Zm-3-5.57c1,0,1.55.91,1.64,2.16H35.82C35.94,78.89,36.59,78.07,37.51,78.07Z"/><path class="cls-1" d="M45.73,76.66A2.47,2.47,0,0,0,43.57,78V76.81H41.89V84.7h1.68V79.92a1.53,1.53,0,0,1,1.49-1.74,1.44,1.44,0,0,1,1.41,1.71V84.7h1.68V79.41C48.16,77.73,47.25,76.66,45.73,76.66Z"/><path class="cls-1" d="M54.94,82.45h0c0-1.24-.92-1.8-2.14-2.35-0.92-.42-1.55-0.68-1.55-1.21v0a0.86,0.86,0,0,1,1-.77,3.52,3.52,0,0,1,1.88.7l0.71-1.24a4.51,4.51,0,0,0-2.56-.85A2.36,2.36,0,0,0,49.67,79v0c0,1.3,1,1.83,2.16,2.34,0.94,0.4,1.55.66,1.55,1.22h0a0.94,0.94,0,0,1-1.1.86,3.6,3.6,0,0,1-2.17-.92l-0.79,1.21a4.66,4.66,0,0,0,2.93,1.1A2.41,2.41,0,0,0,54.94,82.45Z"/><path class="cls-1" d="M60.15,84.47V83.09a1.91,1.91,0,0,1-.91.22,0.75,0.75,0,0,1-.85-0.86v-4.2h1.77V76.81H58.4V74.68H56.71v2.13H55.85l0.28,1.44h0.59v4.54a1.8,1.8,0,0,0,2,2A2.86,2.86,0,0,0,60.15,84.47Z"/><path class="cls-1" d="M66.6,77.52a3.14,3.14,0,0,0-2.32-.8,5.61,5.61,0,0,0-2.61.63l0.48,1.34a4.49,4.49,0,0,1,1.91-.48,1.49,1.49,0,0,1,1.7,1.61v0.33a5.37,5.37,0,0,0-1.82-.31c-1.67,0-2.8.83-2.8,2.53v0.07a2.3,2.3,0,0,0,2.41,2.41,2.51,2.51,0,0,0,2.19-1.12v1h1.65V79.8A3.11,3.11,0,0,0,66.6,77.52ZM65.77,82a1.58,1.58,0,0,1-1.71,1.53,1.2,1.2,0,0,1-1.28-1.25v0A1.32,1.32,0,0,1,64.31,81a3.8,3.8,0,0,1,1.46.28V82Z"/><path class="cls-1" d="M74.54,83.67l-0.91-1.12a2.2,2.2,0,0,1-1.61.8c-1.15,0-2-1-2-2.56V80.72c0-1.49.8-2.55,1.91-2.55a2.13,2.13,0,0,1,1.59.79l0.94-1.24A3.33,3.33,0,0,0,72,76.66c-2.07,0-3.6,1.7-3.6,4.05v0.15c0,2.35,1.49,4,3.54,4A3.3,3.3,0,0,0,74.54,83.67Z"/><polygon class="cls-1" points="79.69 80.6 78.51 81.87 80.09 84.7 82.05 84.7 79.69 80.6"/><polygon class="cls-1" points="79.98 76.81 77.28 80.28 77.28 73.95 75.6 73.95 75.6 84.7 77.28 84.7 77.28 82.42 81.97 76.81 79.98 76.81"/><g class="cls-2"><path class="cls-3" d="M70.8,13.05H29.2a4.76,4.76,0,0,0-4.75,4.75V29H36V27.16a2.57,2.57,0,0,1,2.57-2.57H61.44A2.57,2.57,0,0,1,64,27.16V29H75.54V17.8A4.76,4.76,0,0,0,70.8,13.05Z"/><path class="cls-3" d="M64,48.95a2.57,2.57,0,0,1-2.57,2.57H38.56A2.57,2.57,0,0,1,36,48.95V47.12H24.46V58.31a4.76,4.76,0,0,0,4.75,4.75H70.8a4.76,4.76,0,0,0,4.75-4.75V47.12H64v1.83Z"/><rect class="cls-3" x="24.46" y="32.28" width="11.54" height="11.54"/><rect class="cls-3" x="64.01" y="32.28" width="11.54" height="11.54"/></g></svg>