<?xml version="1.0" encoding="utf-8"?>
<!-- Generator: Adobe Illustrator 19.2.1, SVG Export Plug-In . SVG Version: 6.00 Build 0)  -->
<svg version="1.1" id="Layer_1" xmlns="http://www.w3.org/2000/svg" xmlns:xlink="http://www.w3.org/1999/xlink" x="0px" y="0px"
	 viewBox="0 0 100 100" style="enable-background:new 0 0 100 100;" xml:space="preserve">
<style type="text/css">
	.st0{fill:#82BFBF;}
	.st1{fill:#A5DCE0;}
	.st2{fill:#E5D00E;}
	.st3{fill:#EADF5A;}
	.st4{fill:#1B262A;}
	.st5{fill:#485654;}
	.st6{fill:#858E8D;}
	.st7{fill:#D2D5D4;}
</style>
<path class="st0" d="M83.9,82.8c4.1,0,7.3,3.3,7.3,7.3v6H68.1v-6c0-4.1,3.2-7.3,7.3-7.3"/>
<path class="st1" d="M83.4,81.3c0.6,0.7,0.9,1.7,0.9,2.8c0,2.6-2,4.7-4.7,4.7c-2.6,0-4.7-2-4.7-4.7c0-1,0.3-1.9,0.9-2.8"/>
<path class="st0" d="M54.3,82.8c4.1,0,7.3,3.3,7.3,7.3v6H38.4v-6c0-4.1,3.2-7.3,7.3-7.3"/>
<path class="st1" d="M53.9,81.3c0.6,0.7,0.9,1.7,0.9,2.8c0,2.6-2,4.7-4.7,4.7s-4.7-2-4.7-4.7c0-1,0.3-1.9,0.9-2.8"/>
<path class="st0" d="M24.6,82.8c4.1,0,7.3,3.3,7.3,7.3v6H8.8v-6c0-4.1,3.2-7.3,7.3-7.3"/>
<path class="st1" d="M24.1,81.3C24.7,82,25,83,25,84.1c0,2.6-2,4.7-4.7,4.7c-2.6,0-4.7-2-4.7-4.7c0-1,0.3-1.9,0.9-2.8"/>
<path class="st2" d="M22.2,81.9v2.6c0,0.9-0.9,1.6-1.7,1.6l0,0c-0.9,0-1.6-0.7-1.6-1.6v-2.6"/>
<path class="st3" d="M20.4,82.3c-5.2,0-9.4-4.2-9.4-9.4c0-5.2,4.2-9.4,9.4-9.4s9.4,4.2,9.4,9.4C30,78.1,25.7,82.3,20.4,82.3z"/>
<path class="st2" d="M51.8,81.9v2.6c0,0.9-0.9,1.6-1.7,1.6l0,0c-0.9,0-1.6-0.7-1.6-1.6v-2.6"/>
<path class="st3" d="M50.1,82.3c-5.2,0-9.4-4.2-9.4-9.4c0-5.2,4.2-9.4,9.4-9.4s9.4,4.2,9.4,9.4C59.5,78.1,55.3,82.3,50.1,82.3z"/>
<path class="st2" d="M81.5,81.9v2.6c0,0.9-0.9,1.6-1.7,1.6l0,0c-0.9,0-1.6-0.7-1.6-1.6v-2.6"/>
<path class="st3" d="M79.7,82.3c-5.2,0-9.4-4.2-9.4-9.4c0-5.2,4.2-9.4,9.4-9.4c5.2,0,9.4,4.2,9.4,9.4C89.2,78.1,85,82.3,79.7,82.3z"
	/>
<g>
	<g>
		<circle class="st4" cx="79.6" cy="57" r="0.4"/>
		<path class="st4" d="M79.9,55.5c0,0.2-0.2,0.4-0.4,0.4s-0.4-0.2-0.4-0.4H79.9z"/>
	</g>
	<g>
		<circle class="st4" cx="79.6" cy="54" r="0.4"/>
		<path class="st4" d="M79.9,52.5c0,0.2-0.2,0.4-0.4,0.4s-0.4-0.2-0.4-0.4H79.9z"/>
		<path class="st4" d="M79.2,55.5c0-0.2,0.2-0.4,0.4-0.4s0.4,0.2,0.4,0.4H79.2z"/>
	</g>
	<g>
		<circle class="st4" cx="79.6" cy="51" r="0.4"/>
		<path class="st4" d="M79.9,49.5c0,0.2-0.2,0.4-0.4,0.4s-0.4-0.2-0.4-0.4H79.9z"/>
		<path class="st4" d="M79.2,52.5c0-0.2,0.2-0.4,0.4-0.4s0.4,0.2,0.4,0.4H79.2z"/>
	</g>
	<g>
		<path class="st4" d="M78.2,48.8c0-0.2,0.2-0.4,0.4-0.4c0.2,0,0.4,0.2,0.4,0.4s-0.2,0.4-0.4,0.4C78.3,49.1,78.2,49,78.2,48.8z"/>
		<path class="st4" d="M77,48.4c0.2,0,0.4,0.2,0.4,0.4s-0.2,0.4-0.4,0.4V48.4z"/>
		<path class="st4" d="M79.2,49.5c0-0.1,0.1-0.2,0.3-0.4c0.2-0.1,0.4,0.1,0.4,0.4H79.2z"/>
	</g>
	<g>
		<circle class="st4" cx="75.5" cy="48.8" r="0.4"/>
		<path class="st4" d="M74,48.4c0.2,0,0.4,0.2,0.4,0.4s-0.2,0.4-0.4,0.4V48.4z"/>
		<path class="st4" d="M77,49.1c-0.2,0-0.4-0.2-0.4-0.4s0.2-0.4,0.4-0.4V49.1z"/>
	</g>
	<g>
		<circle class="st4" cx="72.5" cy="48.8" r="0.4"/>
		<path class="st4" d="M71,48.4c0.2,0,0.4,0.2,0.4,0.4s-0.2,0.4-0.4,0.4V48.4z"/>
		<path class="st4" d="M74,49.1c-0.2,0-0.4-0.2-0.4-0.4s0.2-0.4,0.4-0.4V49.1z"/>
	</g>
	<g>
		<circle class="st4" cx="69.5" cy="48.8" r="0.4"/>
		<path class="st4" d="M68,48.4c0.2,0,0.4,0.2,0.4,0.4s-0.2,0.4-0.4,0.4V48.4z"/>
		<path class="st4" d="M71,49.1c-0.2,0-0.4-0.2-0.4-0.4s0.2-0.4,0.4-0.4V49.1z"/>
	</g>
	<g>
		<circle class="st4" cx="66.5" cy="48.8" r="0.4"/>
		<path class="st4" d="M65,48.4c0.2,0,0.4,0.2,0.4,0.4s-0.2,0.4-0.4,0.4V48.4z"/>
		<path class="st4" d="M68,49.1c-0.2,0-0.4-0.2-0.4-0.4s0.2-0.4,0.4-0.4V49.1z"/>
	</g>
	<g>
		<circle class="st4" cx="63.5" cy="48.8" r="0.4"/>
		<path class="st4" d="M62,48.4c0.2,0,0.4,0.2,0.4,0.4s-0.2,0.4-0.4,0.4V48.4z"/>
		<path class="st4" d="M65,49.1c-0.2,0-0.4-0.2-0.4-0.4s0.2-0.4,0.4-0.4V49.1z"/>
	</g>
	<g>
		<circle class="st4" cx="60.5" cy="48.8" r="0.4"/>
		<path class="st4" d="M59,48.4c0.2,0,0.4,0.2,0.4,0.4s-0.2,0.4-0.4,0.4V48.4z"/>
		<path class="st4" d="M62,49.1c-0.2,0-0.4-0.2-0.4-0.4s0.2-0.4,0.4-0.4V49.1z"/>
	</g>
	<g>
		<circle class="st4" cx="57.5" cy="48.8" r="0.4"/>
		<path class="st4" d="M56,48.4c0.2,0,0.4,0.2,0.4,0.4s-0.2,0.4-0.4,0.4V48.4z"/>
		<path class="st4" d="M59,49.1c-0.2,0-0.4-0.2-0.4-0.4s0.2-0.4,0.4-0.4V49.1z"/>
	</g>
	<g>
		<circle class="st4" cx="54.5" cy="48.8" r="0.4"/>
		<path class="st4" d="M53,48.4c0.2,0,0.4,0.2,0.4,0.4s-0.2,0.4-0.4,0.4V48.4z"/>
		<path class="st4" d="M56,49.1c-0.2,0-0.4-0.2-0.4-0.4s0.2-0.4,0.4-0.4V49.1z"/>
	</g>
	<g>
		<circle class="st4" cx="51.5" cy="48.8" r="0.4"/>
		<path class="st4" d="M50,48.4c0.2,0,0.4,0.2,0.4,0.4s-0.2,0.4-0.4,0.4V48.4z"/>
		<path class="st4" d="M53,49.1c-0.2,0-0.4-0.2-0.4-0.4s0.2-0.4,0.4-0.4V49.1z"/>
	</g>
	<g>
		<circle class="st4" cx="48.5" cy="48.8" r="0.4"/>
		<path class="st4" d="M47,48.4c0.2,0,0.4,0.2,0.4,0.4s-0.2,0.4-0.4,0.4V48.4z"/>
		<path class="st4" d="M50,49.1c-0.2,0-0.4-0.2-0.4-0.4s0.2-0.4,0.4-0.4V49.1z"/>
	</g>
	<g>
		<circle class="st4" cx="45.5" cy="48.8" r="0.4"/>
		<path class="st4" d="M44,48.4c0.2,0,0.4,0.2,0.4,0.4s-0.2,0.4-0.4,0.4V48.4z"/>
		<path class="st4" d="M47,49.1c-0.2,0-0.4-0.2-0.4-0.4s0.2-0.4,0.4-0.4V49.1z"/>
	</g>
	<g>
		<circle class="st4" cx="42.5" cy="48.8" r="0.4"/>
		<path class="st4" d="M41,48.4c0.2,0,0.4,0.2,0.4,0.4s-0.2,0.4-0.4,0.4V48.4z"/>
		<path class="st4" d="M44,49.1c-0.2,0-0.4-0.2-0.4-0.4s0.2-0.4,0.4-0.4V49.1z"/>
	</g>
	<g>
		<circle class="st4" cx="39.5" cy="48.8" r="0.4"/>
		<path class="st4" d="M38,48.4c0.2,0,0.4,0.2,0.4,0.4s-0.2,0.4-0.4,0.4V48.4z"/>
		<path class="st4" d="M41,49.1c-0.2,0-0.4-0.2-0.4-0.4s0.2-0.4,0.4-0.4V49.1z"/>
	</g>
	<g>
		<circle class="st4" cx="36.5" cy="48.8" r="0.4"/>
		<path class="st4" d="M35,48.4c0.2,0,0.4,0.2,0.4,0.4s-0.2,0.4-0.4,0.4V48.4z"/>
		<path class="st4" d="M38,49.1c-0.2,0-0.4-0.2-0.4-0.4s0.2-0.4,0.4-0.4V49.1z"/>
	</g>
	<g>
		<circle class="st4" cx="33.5" cy="48.8" r="0.4"/>
		<path class="st4" d="M32,48.4c0.2,0,0.4,0.2,0.4,0.4s-0.2,0.4-0.4,0.4V48.4z"/>
		<path class="st4" d="M35,49.1c-0.2,0-0.4-0.2-0.4-0.4s0.2-0.4,0.4-0.4V49.1z"/>
	</g>
	<g>
		<circle class="st4" cx="30.5" cy="48.8" r="0.4"/>
		<path class="st4" d="M29,48.4c0.2,0,0.4,0.2,0.4,0.4s-0.2,0.4-0.4,0.4V48.4z"/>
		<path class="st4" d="M32,49.1c-0.2,0-0.4-0.2-0.4-0.4s0.2-0.4,0.4-0.4V49.1z"/>
	</g>
	<g>
		<circle class="st4" cx="27.5" cy="48.8" r="0.4"/>
		<path class="st4" d="M26,48.4c0.2,0,0.4,0.2,0.4,0.4s-0.2,0.4-0.4,0.4V48.4z"/>
		<path class="st4" d="M29,49.1c-0.2,0-0.4-0.2-0.4-0.4s0.2-0.4,0.4-0.4V49.1z"/>
	</g>
	<g>
		<circle class="st4" cx="24.5" cy="48.8" r="0.4"/>
		<path class="st4" d="M23,48.4c0.2,0,0.4,0.2,0.4,0.4s-0.2,0.4-0.4,0.4V48.4z"/>
		<path class="st4" d="M26,49.1c-0.2,0-0.4-0.2-0.4-0.4s0.2-0.4,0.4-0.4V49.1z"/>
	</g>
	<g>
		<path class="st4" d="M21.1,48.8c0-0.2,0.2-0.4,0.4-0.4c0.2,0,0.4,0.2,0.4,0.4s-0.2,0.4-0.4,0.4C21.3,49.1,21.1,49,21.1,48.8z"/>
		<path class="st4" d="M20.1,49.5c0-0.3,0.2-0.5,0.4-0.4c0.2,0.1,0.3,0.2,0.3,0.4H20.1z"/>
		<path class="st4" d="M23,49.1c-0.2,0-0.4-0.2-0.4-0.4s0.2-0.4,0.4-0.4V49.1z"/>
	</g>
	<g>
		<circle class="st4" cx="20.4" cy="51" r="0.4"/>
		<path class="st4" d="M20.1,52.5c0-0.2,0.2-0.4,0.4-0.4c0.2,0,0.4,0.2,0.4,0.4H20.1z"/>
		<path class="st4" d="M20.8,49.5c0,0.2-0.2,0.4-0.4,0.4c-0.2,0-0.4-0.2-0.4-0.4H20.8z"/>
	</g>
	<g>
		<circle class="st4" cx="20.4" cy="54" r="0.4"/>
		<path class="st4" d="M20.1,55.5c0-0.2,0.2-0.4,0.4-0.4c0.2,0,0.4,0.2,0.4,0.4H20.1z"/>
		<path class="st4" d="M20.8,52.5c0,0.2-0.2,0.4-0.4,0.4c-0.2,0-0.4-0.2-0.4-0.4H20.8z"/>
	</g>
	<g>
		<circle class="st4" cx="20.4" cy="57" r="0.4"/>
		<path class="st4" d="M20.8,55.5c0,0.2-0.2,0.4-0.4,0.4c-0.2,0-0.4-0.2-0.4-0.4H20.8z"/>
	</g>
</g>
<g>
	<g>
		<ellipse class="st4" cx="50" cy="56.1" rx="0.4" ry="0.4"/>
		<path class="st4" d="M50.4,54.6c0,0.2-0.2,0.4-0.4,0.4s-0.4-0.2-0.4-0.4H50.4z"/>
	</g>
	<g>
		<ellipse class="st4" cx="50" cy="53.2" rx="0.4" ry="0.4"/>
		<path class="st4" d="M50.4,51.7c0,0.2-0.2,0.4-0.4,0.4s-0.4-0.2-0.4-0.4H50.4z"/>
		<path class="st4" d="M49.6,54.6c0-0.2,0.2-0.4,0.4-0.4s0.4,0.2,0.4,0.4H49.6z"/>
	</g>
	<g>
		<ellipse class="st4" cx="50" cy="50.3" rx="0.4" ry="0.4"/>
		<path class="st4" d="M50.4,48.8c0,0.2-0.2,0.4-0.4,0.4s-0.4-0.2-0.4-0.4H50.4z"/>
		<path class="st4" d="M49.6,51.7c0-0.2,0.2-0.4,0.4-0.4s0.4,0.2,0.4,0.4H49.6z"/>
	</g>
	<g>
		<ellipse class="st4" cx="50" cy="47.3" rx="0.4" ry="0.4"/>
		<path class="st4" d="M50.4,45.9c0,0.2-0.2,0.4-0.4,0.4s-0.4-0.2-0.4-0.4H50.4z"/>
		<path class="st4" d="M49.6,48.8c0-0.2,0.2-0.4,0.4-0.4s0.4,0.2,0.4,0.4H49.6z"/>
	</g>
	<g>
		<ellipse class="st4" cx="50" cy="44.4" rx="0.4" ry="0.4"/>
		<path class="st4" d="M50.4,43c0,0.2-0.2,0.4-0.4,0.4s-0.4-0.2-0.4-0.4H50.4z"/>
		<path class="st4" d="M49.6,45.9c0-0.2,0.2-0.4,0.4-0.4s0.4,0.2,0.4,0.4H49.6z"/>
	</g>
	<g>
		<ellipse class="st4" cx="50" cy="41.5" rx="0.4" ry="0.4"/>
		<path class="st4" d="M49.6,43c0-0.2,0.2-0.4,0.4-0.4s0.4,0.2,0.4,0.4H49.6z"/>
	</g>
</g>
<g>
	<g>
		<path class="st5" d="M59.7,17.3c5.4,3.1,5.4,8.2,0.1,11.3c-5.4,3.1-14.1,3.1-19.5,0s-5.4-8.2-0.1-11.3
			C45.6,14.2,54.3,14.2,59.7,17.3z"/>
	</g>
	<g>
		<path class="st5" d="M59.7,11.2c5.4,3.1,5.4,8.2,0.1,11.3c-5.4,3.1-14.1,3.1-19.5,0s-5.4-8.2-0.1-11.3C45.6,8,54.3,8,59.7,11.2z"
			/>
	</g>
	<path class="st6" d="M36.2,15.9c0,2.1,1.4,4,4,5.5c5.4,3.1,14.3,3.1,19.7,0c2.5-1.5,3.9-3.4,3.9-5.4v-5.7H36.2V15.9L36.2,15.9z"/>
	<g>
		<path class="st7" d="M59.7,5c5.4,3.1,5.4,8.2,0.1,11.3c-5.4,3.1-14.1,3.1-19.5,0S34.9,8.1,40.2,5C45.6,1.8,54.3,1.8,59.7,5z"/>
	</g>
	<path class="st6" d="M63.8,16.4c0.2,2.2-1.1,4.3-4,6c-5.4,3.1-14.1,3.1-19.5,0c-2.9-1.6-4.2-3.8-4-6l0,0V22l0,0c0,2.1,1.4,4,4,5.5
		c5.4,3.1,14.3,3.1,19.7,0c2.5-1.5,3.9-3.4,3.9-5.4L63.8,16.4L63.8,16.4z"/>
	<path class="st6" d="M63.8,22.6c0.2,2.2-1.1,4.3-4,6c-5.4,3.1-14.1,3.1-19.5,0c-2.9-1.6-4.2-3.8-4-6l0,0v5.6l0,0c0,2.1,1.4,4,4,5.5
		c5.4,3.1,14.3,3.1,19.7,0c2.5-1.5,3.9-3.4,3.9-5.4L63.8,22.6L63.8,22.6z"/>
</g>
</svg>
