<?xml version="1.0" encoding="utf-8"?>
<!-- Generator: Adobe Illustrator 23.0.1, SVG Export Plug-In . SVG Version: 6.00 Build 0)  -->
<svg version="1.1" id="Layer_1" xmlns="http://www.w3.org/2000/svg" xmlns:xlink="http://www.w3.org/1999/xlink" x="0px" y="0px"
	 viewBox="0 0 100 100" style="enable-background:new 0 0 100 100;" xml:space="preserve">
<style type="text/css">
	.st0{opacity:0.98;}
	.st1{fill:#EC1944;}
</style>
<g class="st0">
	<path class="st1" d="M70.8,25H29.2c-2.6,0-4.7,2.1-4.8,4.8v11.2H36v-1.8c0-1.4,1.2-2.6,2.6-2.6h22.9c1.4,0,2.6,1.2,2.6,2.6v1.8
		h11.5V29.7C75.5,27.1,73.4,25,70.8,25z"/>
	<path class="st1" d="M64,60.9c0,1.4-1.2,2.6-2.6,2.6H38.6c-1.4,0-2.6-1.2-2.6-2.6v-1.8H24.5v11.2c0,2.6,2.1,4.7,4.8,4.8h41.6
		c2.6,0,4.7-2.1,4.8-4.8V59.1H64V60.9z"/>
	<rect x="24.5" y="44.2" class="st1" width="11.5" height="11.5"/>
	<rect x="64" y="44.2" class="st1" width="11.5" height="11.5"/>
</g>
</svg>
