<?xml version="1.0" encoding="utf-8"?>
<!-- Generator: Adobe Illustrator 19.1.0, SVG Export Plug-In . SVG Version: 6.00 Build 0)  -->
<svg version="1.1" id="Layer_1" xmlns="http://www.w3.org/2000/svg" xmlns:xlink="http://www.w3.org/1999/xlink" x="0px" y="0px"
	 viewBox="-349 251 100 100" style="enable-background:new -349 251 100 100;" xml:space="preserve">
<style type="text/css">
	.st0{fill:#474747;}
	.st1{fill:none;}
	.st2{fill:#666666;}
	.st3{font-family:'Lato-Heavy';}
	.st4{font-size:14px;}
	.st5{fill:#EAF2F8;}
	.st6{fill:#2980B9;}
	.st7{fill:#D6EFF1;stroke:#78C9CF;stroke-width:1.4198;stroke-miterlimit:10;}
	.st8{fill:#F9F5CD;stroke:#EADF5A;stroke-width:1.4198;stroke-miterlimit:10;}
	.st9{fill:#F9F5CD;}
	.st10{fill:#EADF5A;}
	.st11{fill:none;stroke:#2980B9;stroke-width:1.4198;stroke-miterlimit:10;}
	.st12{fill:none;stroke:#2980B9;stroke-width:0.7099;stroke-miterlimit:10;}
	.st13{fill:none;stroke:#334851;stroke-width:1.4198;stroke-miterlimit:10;}
	.st14{fill:#C3EAB2;stroke:#69CA3F;stroke-width:1.42;stroke-miterlimit:10;}
	.st15{fill:#69CA3F;}
	.st16{fill:#FFFFFF;}
	.st17{fill:#7FC65F;}
	.st18{fill:none;stroke:#474747;stroke-width:2;stroke-miterlimit:10;}
</style>
<rect x="-465" y="341.3" transform="matrix(0.9965 8.300507e-02 -8.300507e-02 0.9965 27.288 39.7182)" class="st0" width="2" height="13.5"/>
<rect x="-349" y="331.6" class="st1" width="100" height="67"/>
<text transform="matrix(1 0 0 1 -334.6787 342.0787)" class="st2 st3 st4">OpenLDAP</text>
<rect x="-347.8" y="404.6" class="st1" width="100" height="67"/>
<text transform="matrix(1 0 0 1 -333.4287 415.0787)" class="st2 st3 st4">OpenLDAP</text>
<g>
	<path class="st5" d="M-298.9,283.7c-7,0-11.1-1.2-11.4-1.9l0.1-4.6c0,0,0.1-0.2,0.9-0.5l1.6-0.6l-1.6-0.6c-0.9-0.4-0.9-0.6-0.9-0.6
		l0.1-4.6l0,0c0,0,0.1-0.2,0.8-0.5l1.5-0.6l-1.5-0.6c-0.7-0.3-0.9-0.6-0.9-0.6v-4.6c0.3-0.6,4.4-1.8,11.4-1.8s11.1,1.2,11.4,1.9v4.7
		l0,0c0,0-0.1,0.2-0.8,0.5l-1.4,0.4l1.5,0.6c0.7,0.3,0.8,0.5,0.8,0.5v4.7l0,0c0,0-0.1,0.2-0.9,0.5l-1.6,0.6l1.6,0.7
		c0.8,0.4,0.9,0.6,0.9,0.6v4.7C-287.8,282.5-291.9,283.7-298.9,283.7z"/>
	<path class="st6" d="M-298.9,262c6.1,0,9.8,0.9,10.6,1.5v4c-0.1,0.1-0.2,0.1-0.4,0.2l-3,1.3l3,1.3c0.1,0.1,0.3,0.1,0.4,0.2v4
		c-0.1,0.1-0.2,0.1-0.4,0.2l-3.1,1.3l3.2,1.3c0.2,0.1,0.4,0.1,0.4,0.2v4c-0.9,0.6-4.5,1.5-10.6,1.5s-9.8-0.9-10.7-1.5l0.1-4
		c0.1-0.1,0.2-0.1,0.4-0.2l3.2-1.3l-3.2-1.3c-0.2-0.1-0.4-0.1-0.5-0.2l0.1-4c0.1-0.1,0.2-0.1,0.4-0.1l3-1.3l-3.1-1.3
		c-0.2-0.1-0.3-0.1-0.4-0.2v-4C-308.7,262.9-305,262-298.9,262 M-298.9,260.5c-6.8,0-12.1,1.1-12.1,2.6v4.7c0,0.4,0.4,0.8,1.3,1.1
		c-0.8,0.4-1.2,0.7-1.2,1.1l-0.1,4.7c0,0.4,0.5,0.9,1.3,1.2c-0.9,0.4-1.3,0.8-1.3,1.1l-0.1,4.7c0,1.4,5.3,2.6,12.1,2.6
		s12.1-1.1,12.1-2.6v-4.6c0-0.4-0.5-0.9-1.3-1.2c0.9-0.4,1.3-0.8,1.3-1.1v-4.7c0-0.4-0.4-0.8-1.2-1.1c0.8-0.4,1.2-0.7,1.2-1.1v-4.8
		C-286.8,261.7-292.2,260.5-298.9,260.5L-298.9,260.5z"/>
</g>
<path class="st7" d="M-275.7,314.7c2.8,0,5,2.3,5,5v4.1h-15.9v-4.1c0-2.8,2.2-5,5-5"/>
<path class="st7" d="M-276.1,313.7c0.4,0.5,0.6,1.2,0.6,1.9c0,1.8-1.4,3.2-3.2,3.2c-1.8,0-3.2-1.4-3.2-3.2c0-0.7,0.2-1.3,0.6-1.9"/>
<path class="st7" d="M-296.1,314.7c2.8,0,5,2.3,5,5v4.1H-307v-4.1c0-2.8,2.2-5,5-5"/>
<path class="st7" d="M-296.4,313.7c0.4,0.5,0.6,1.2,0.6,1.9c0,1.8-1.4,3.2-3.2,3.2s-3.2-1.4-3.2-3.2c0-0.7,0.2-1.3,0.6-1.9"/>
<path class="st7" d="M-316.5,314.7c2.8,0,5,2.3,5,5v4.1h-15.9v-4.1c0-2.8,2.2-5,5-5"/>
<path class="st7" d="M-316.9,313.7c0.4,0.5,0.6,1.2,0.6,1.9c0,1.8-1.4,3.2-3.2,3.2c-1.8,0-3.2-1.4-3.2-3.2c0-0.7,0.2-1.3,0.6-1.9"/>
<path class="st8" d="M-318.2,314.1v1.8c0,0.6-0.6,1.1-1.2,1.1l0,0c-0.6,0-1.1-0.5-1.1-1.1v-1.8"/>
<g>
	<path class="st9" d="M-319.4,313.7c-3.6,0-6.5-2.9-6.5-6.5c0-3.6,2.9-6.5,6.5-6.5s6.5,2.9,6.5,6.5
		C-312.8,310.8-315.8,313.7-319.4,313.7z"/>
	<g>
		<path class="st10" d="M-319.4,301.4c3.2,0,5.8,2.6,5.8,5.8c0,3.2-2.6,5.8-5.8,5.8c-3.2,0-5.8-2.6-5.8-5.8
			C-325.2,304-322.6,301.4-319.4,301.4 M-319.4,299.9c-4,0-7.2,3.3-7.2,7.2c0,4,3.3,7.2,7.2,7.2s7.2-3.3,7.2-7.2
			C-312.1,303.2-315.4,299.9-319.4,299.9L-319.4,299.9z"/>
	</g>
</g>
<path class="st8" d="M-297.8,314.1v1.8c0,0.6-0.6,1.1-1.2,1.1l0,0c-0.6,0-1.1-0.5-1.1-1.1v-1.8"/>
<g>
	<path class="st9" d="M-299,313.7c-3.6,0-6.5-2.9-6.5-6.5c0-3.6,2.9-6.5,6.5-6.5s6.5,2.9,6.5,6.5
		C-292.5,310.8-295.4,313.7-299,313.7z"/>
	<g>
		<path class="st10" d="M-299,301.4c3.2,0,5.8,2.6,5.8,5.8c0,3.2-2.6,5.8-5.8,5.8s-5.8-2.6-5.8-5.8
			C-304.8,304-302.2,301.4-299,301.4 M-299,299.9c-4,0-7.2,3.3-7.2,7.2c0,4,3.3,7.2,7.2,7.2s7.2-3.3,7.2-7.2
			C-291.7,303.2-295,299.9-299,299.9L-299,299.9z"/>
	</g>
</g>
<path class="st8" d="M-277.4,314.1v1.8c0,0.6-0.6,1.1-1.2,1.1l0,0c-0.6,0-1.1-0.5-1.1-1.1v-1.8"/>
<g>
	<path class="st9" d="M-278.6,313.7c-3.6,0-6.5-2.9-6.5-6.5c0-3.6,2.9-6.5,6.5-6.5s6.5,2.9,6.5,6.5
		C-272.1,310.8-275,313.7-278.6,313.7z"/>
	<g>
		<path class="st10" d="M-278.6,301.4c3.2,0,5.8,2.6,5.8,5.8c0,3.2-2.6,5.8-5.8,5.8c-3.2,0-5.8-2.6-5.8-5.8
			C-284.4,304-281.8,301.4-278.6,301.4 M-278.6,299.9c-4,0-7.2,3.3-7.2,7.2c0,4,3.3,7.2,7.2,7.2c4,0,7.2-3.3,7.2-7.2
			C-271.4,303.2-274.6,299.9-278.6,299.9L-278.6,299.9z"/>
	</g>
</g>
<path class="st11" d="M-309.2,275.7c2.5,0.9,5.3,1.1,8,1.2c2.8,0.1,5.5,0.1,8.2-0.3c1.5-0.1,3.1-0.4,4.5-0.9"/>
<path class="st11" d="M-309.2,268.6c2.5,0.9,5.3,1.1,8,1.2c2.8,0.1,5.5,0.1,8.2-0.3c1.5-0.1,3.1-0.4,4.5-0.9"/>
<path class="st12" d="M-288.9,278.1c-2.3,0.6-5.8,1-9.7,1c-4.1,0-7.7-0.4-10-1.1"/>
<path class="st12" d="M-288.9,271.1c-2.3,0.6-5.8,1-9.7,1c-4.1,0-7.7-0.4-10-1.1"/>
<path class="st12" d="M-288.9,263.7c-2.3,0.6-5.8,1-9.7,1c-4.1,0-7.7-0.4-10-1.1"/>
<circle class="st6" cx="-291" cy="266.6" r="0.9"/>
<circle class="st6" cx="-291" cy="273.6" r="0.9"/>
<circle class="st6" cx="-291" cy="280.7" r="0.9"/>
<path class="st13" d="M-278.6,298v-6.2c0-0.4-0.3-0.5-0.6-0.5h-39.5c-0.4,0-0.6,0.1-0.6,0.5v6.2"/>
<line class="st13" x1="-299.2" y1="298" x2="-299.2" y2="286"/>
<g>
	<path class="st2" d="M-163,340v1.6h-5.9v-10.1h1.9v8.6h4V340z"/>
	<path class="st2" d="M-152.7,336.5c0,0.7-0.1,1.4-0.4,2c-0.2,0.6-0.6,1.2-1,1.6s-1,0.8-1.6,1s-1.3,0.4-2.1,0.4h-3.9v-10.1h3.9
		c0.8,0,1.5,0.1,2.1,0.4c0.6,0.2,1.2,0.6,1.6,1s0.8,1,1,1.6C-152.8,335.1-152.7,335.8-152.7,336.5z M-154.6,336.5
		c0-0.6-0.1-1.1-0.2-1.5s-0.4-0.8-0.6-1.1c-0.3-0.3-0.6-0.5-1-0.7s-0.8-0.2-1.3-0.2h-2v7.1h2c0.5,0,0.9-0.1,1.3-0.2s0.7-0.4,1-0.7
		c0.3-0.3,0.5-0.7,0.6-1.1C-154.7,337.6-154.6,337.1-154.6,336.5z"/>
	<path class="st2" d="M-142.7,341.6h-1.5c-0.2,0-0.3,0-0.4-0.1s-0.2-0.2-0.2-0.3l-0.8-2.1h-4.2l-0.8,2.1c0,0.1-0.1,0.2-0.2,0.3
		s-0.2,0.1-0.4,0.1h-1.5l4-10.1h1.9L-142.7,341.6z M-146,337.8l-1.2-3.4c-0.1-0.1-0.1-0.3-0.2-0.5s-0.1-0.4-0.2-0.7
		c-0.1,0.2-0.1,0.5-0.2,0.7s-0.1,0.4-0.2,0.5l-1.2,3.4H-146z"/>
	<path class="st2" d="M-138.3,331.5c0.7,0,1.3,0.1,1.8,0.2c0.5,0.2,0.9,0.4,1.2,0.7c0.3,0.3,0.6,0.6,0.7,1s0.2,0.8,0.2,1.3
		s-0.1,0.9-0.2,1.3c-0.2,0.4-0.4,0.8-0.7,1.1c-0.3,0.3-0.7,0.5-1.2,0.7s-1.1,0.2-1.7,0.2h-1.4v3.6h-1.9v-10.1L-138.3,331.5
		L-138.3,331.5z M-138.3,336.6c0.3,0,0.6,0,0.9-0.1s0.5-0.2,0.6-0.4c0.2-0.2,0.3-0.4,0.4-0.6s0.1-0.5,0.1-0.8s0-0.5-0.1-0.7
		s-0.2-0.4-0.4-0.6c-0.2-0.2-0.4-0.3-0.6-0.4c-0.3-0.1-0.6-0.1-0.9-0.1h-1.4v3.6h1.4V336.6z"/>
</g>
<g id="_x32_i4ece.tif">
	
		<image style="overflow:visible;" width="362" height="727" id="Layer_0_1_" xlink:href="64DAC3ED2E88A21C.png"  transform="matrix(0.1961 0 0 0.1961 -579.65 213.0059)">
	</image>
</g>
<path class="st14" d="M-487,493.6c-8,0-14.5-6.5-14.5-14.5s6.5-14.5,14.5-14.5c8.4,0,14.5-1.5,16.3-4.1c4.8-6.8-3.7-30.1-8.7-44
	c-8-22.1-14.9-41.2-5.2-55.1c3.5-4.9,10.4-10.8,23.6-10.8c8,0,14.5,6.5,14.5,14.5c0,7.8-6.1,14.1-13.8,14.5c0.7,6.4,5.3,19,8.2,27
	c8.7,24.1,18.6,51.4,5.2,70.6C-454.6,488.1-468.1,493.6-487,493.6z"/>
<path class="st15" d="M-602.3,503.1c-8,0-14.5-6.5-14.5-14.5s6.5-14.5,14.5-14.5c8.4,0,14.5-1.5,16.3-4.1c4.8-6.8-3.7-30.1-8.7-44
	c-8-22.1-14.9-41.2-5.2-55.1c3.5-4.9,10.4-10.8,23.6-10.8c8,0,14.5,6.5,14.5,14.5c0,7.8-6.1,14.1-13.8,14.5c0.7,6.4,5.3,19,8.2,27
	c8.7,24.1,18.6,51.4,5.2,70.6C-569.9,497.6-583.4,503.1-602.3,503.1z"/>
<g>
	<path class="st16" d="M-466.5,364.9c-3.5,0-6.3-2.8-6.3-6.3s2.8-6.3,6.3-6.3c3.5,0,6.3,2.8,6.3,6.3S-463,364.9-466.5,364.9z"/>
	<path class="st15" d="M-466.4,353.1c3.1,0,5.6,2.5,5.6,5.6s-2.5,5.6-5.6,5.6c-3.1,0-5.6-2.5-5.6-5.6S-469.5,353.1-466.4,353.1
		 M-466.4,351.6c-3.8,0-7,3.1-7,7c0,3.8,3.1,7,7,7c3.8,0,7-3.1,7-7C-459.5,354.8-462.6,351.6-466.4,351.6L-466.4,351.6z"/>
</g>
<path class="st0" d="M-466.5,362.2c-2,0-3.5-1.6-3.5-3.5s1.6-3.5,3.5-3.5s3.6,1.6,3.6,3.5S-464.5,362.2-466.5,362.2z"/>
<g>
	<path class="st16" d="M-453.4,360.8c-3.5,0-6.3-2.8-6.3-6.3s2.8-6.3,6.3-6.3c3.5,0,6.3,2.8,6.3,6.3S-449.9,360.8-453.4,360.8z"/>
	<path class="st15" d="M-453.4,349c3.1,0,5.6,2.5,5.6,5.5c0,3.1-2.5,5.6-5.6,5.6c-3.1,0-5.6-2.5-5.6-5.6
		C-458.9,351.5-456.5,349-453.4,349 M-453.4,347.6c-3.8,0-7,3.1-7,7c0,3.8,3.1,7,7,7c3.8,0,7-3.1,7-7
		C-446.4,350.7-449.6,347.6-453.4,347.6L-453.4,347.6z"/>
</g>
<path class="st0" d="M-453.4,358.1c-2,0-3.6-1.6-3.6-3.5s1.6-3.5,3.6-3.5s3.5,1.6,3.5,3.5S-451.4,358.1-453.4,358.1z"/>
<g>
	<path class="st1" d="M-466.4,475.3c41.2,0-11.2-105.6-7.9-101.9c3.3,3.7,7.9,6.3,13.5,5.6c0.2,0.4,0.4,0.9,0.6,1.3
		c0-0.2-0.1-0.5-0.1-0.7c7.7-0.4,13.8-6.7,13.8-14.5c0-8-6.5-14.5-14.5-14.5c-13.3,0-20.2,5.9-23.6,10.8c-9.7,13.9-2.8,33,5.2,55.1
		c5,13.9,13.5,37.2,8.7,44c-1.8,2.6-7.9,4.1-16.3,4.1c-8,0-14.5,6.5-14.5,14.5s6.6,13.5,14.5,14.5c16.1,2,25.9-3.3,33.9-9.8
		c-3.2,2.6-5.8,3.5-5.8,3.5S-482,487.3-466.4,475.3z"/>
	<path class="st1" d="M-452.4,483.2c2.1-1.8,3.9-3.8,5.5-6c3.2-4.6,5.1-9.6,5.9-14.9C-443.3,473.2-448.3,479.6-452.4,483.2z"/>
	<path class="st17" d="M-458.1,473.2c-0.7,1.2-1.4,2.3-2,3.6c-2.2,4.1-1.9,7.2,3.4,8.1c0.6,0.1,1.2,0.2,1.9,0.2
		c0.5-0.4,1.1-0.8,1.7-1.3c0.3-0.2,0.5-0.4,0.8-0.6c4.2-3.6,9.2-10,11.4-21c2.8-17.1-4.5-37.3-11.2-55.6c-2.8-7.7-7.2-19.7-8.1-26.3
		c-0.2-0.4-0.4-0.9-0.6-1.3c-5.5,0.7-10.2-1.9-13.5-5.6C-477.4,370-433.5,458.5-458.1,473.2z"/>
</g>
<circle class="st0" cx="-463.5" cy="341.3" r="2.3"/>
<circle class="st0" cx="-478.5" cy="342.9" r="2.3"/>
<rect x="-482.5" y="347.7" transform="matrix(0.3546 0.935 -0.935 0.3546 18.7079 670.3582)" class="st0" width="12.5" height="2"/>
<path class="st18" d="M-463.5,368.5c1.3,4.5,12.5,4.7,14-1"/>
</svg>
