<svg id="Layer_1" data-name="Layer 1" xmlns="http://www.w3.org/2000/svg" viewBox="0 0 100 100"><defs><style>.cls-1{fill:#1f1a17;}.cls-2{fill:#925470;}.cls-3{fill:#7cc639;}</style></defs><path class="cls-1" d="M14.88,78.19a5,5,0,0,1,5.2-5.11,5.11,5.11,0,1,1,0,10.21A5,5,0,0,1,14.88,78.19Zm8.59,0a3.4,3.4,0,1,0-3.39,3.49A3.31,3.31,0,0,0,23.47,78.19Z"/><path class="cls-1" d="M26.66,76.35h1.71v0.81a3.61,3.61,0,0,1,2.66-1,3.57,3.57,0,0,1,0,7.14,3.88,3.88,0,0,1-2.61-.87v3.73H26.66V76.35Zm6.12,3.35a2.08,2.08,0,0,0-2.19-2.17A2.25,2.25,0,0,0,28.42,79v1.36A2.24,2.24,0,0,0,30.6,81.9,2.11,2.11,0,0,0,32.78,79.7Z"/><path class="cls-1" d="M35.69,79.73c0-2.16,1.29-3.59,3.73-3.59a3.33,3.33,0,0,1,3.68,3.45V80.4H37.37c0.13,1.06,1.12,1.5,2.61,1.5a7.56,7.56,0,0,0,2.49-.42v1.36a8.08,8.08,0,0,1-2.72.45C37.27,83.29,35.69,82,35.69,79.73Zm5.74-.53c0-1.08-.8-1.67-2-1.67a1.76,1.76,0,0,0-2,1.67h4.06Z"/><path class="cls-1" d="M44.49,76.35H46.2v0.91a3.21,3.21,0,0,1,2.52-1.12,2.45,2.45,0,0,1,2.7,2.69v4.24H49.66V79a1.26,1.26,0,0,0-1.37-1.47,2.36,2.36,0,0,0-2,1.15v4.4H44.49V76.35Z"/><path class="cls-2" d="M53,73.28h1.78V81.6h4.71v1.47H53V73.28Z"/><path class="cls-2" d="M60.64,73.28h3.28c3.21,0,5.21,1.86,5.21,4.85,0,3.32-2.06,4.95-5.37,4.95H60.64V73.28Zm3.15,8.32a3.19,3.19,0,0,0,3.54-3.47A3.16,3.16,0,0,0,64,74.76H62.42V81.6h1.37Z"/><path class="cls-2" d="M73.25,73.28H75l3.91,9.79H77.08l-0.9-2.26H72l-0.88,2.26H69.33Zm2.44,6.07-1.58-4.16-1.58,4.16h3.17Z"/><path class="cls-2" d="M80.28,73.28H84.2c2.12,0,3.56,1.18,3.56,3.19s-1.44,3.15-3.57,3.15H82.06v3.45H80.28V73.28ZM84,78.16c1.08,0,2-.36,2-1.68s-0.92-1.72-2-1.72H82.06v3.4H84Z"/><path class="cls-3" d="M51.42,49.38c-1.69,0-3.34,0-5-.13C41,49,35.29,48.57,30.3,46.75l0.91-2.53c4.66,1.69,10.12,2.09,15.35,2.33A99.73,99.73,0,0,0,62.68,46a42.47,42.47,0,0,0,8.54-1.65L72,47A44.86,44.86,0,0,1,63,48.71a94.92,94.92,0,0,1-11.54.67h0Z"/><path class="cls-3" d="M51.42,34.54c-1.69,0-3.34,0-5-.13-5.43-.27-11.13-0.67-16.13-2.5l0.91-2.53c4.66,1.69,10.12,2.09,15.35,2.33a99.73,99.73,0,0,0,16.13-.51,42.47,42.47,0,0,0,8.54-1.65L72,32.11A44.87,44.87,0,0,1,63,33.86a94.92,94.92,0,0,1-11.54.67h0Z"/><path class="cls-3" d="M51.92,54.07c-8,0-15.45-.81-20.07-2.16l0.67-2.26C36.94,50.94,44.2,51.71,52,51.71c7.32,0,14.31-.71,18.76-1.89l0.61,2.29c-4.72,1.25-11.77,2-19.4,2h0Z"/><path class="cls-3" d="M51.92,39.23c-8,0-15.45-.81-20.07-2.16l0.67-2.26C36.94,36.09,44.2,36.87,52,36.87c7.32,0,14.31-.71,18.76-1.89l0.61,2.29c-4.72,1.25-11.77,2-19.4,2h0Z"/><path class="cls-3" d="M51.92,23.81c-8,0-15.45-.81-20.07-2.16l0.67-2.26C36.94,20.67,44.2,21.45,52,21.45c7.32,0,14.31-.71,18.76-1.89l0.61,2.29c-4.72,1.25-11.77,2-19.4,2h0Z"/><path class="cls-3" d="M68.69,25.67a1.75,1.75,0,1,1-1.75-1.75,1.75,1.75,0,0,1,1.75,1.75h0Z"/><path class="cls-3" d="M68.69,40.51a1.75,1.75,0,1,1-1.75-1.75A1.75,1.75,0,0,1,68.69,40.51Z"/><path class="cls-3" d="M68.69,56a1.75,1.75,0,1,1-1.75-1.75A1.75,1.75,0,0,1,68.69,56Z"/><path class="cls-3" d="M51.25,17.23a90.45,90.45,0,0,1,14.37,1A21.05,21.05,0,0,1,71.76,20v8.13a3.11,3.11,0,0,0-.34.17l-7.05,3.1,7.05,3.1a1.55,1.55,0,0,1,.34.17v8.13L71.25,43l-7.49,3.1,7.52,3.1,0.51,0.24v8.37a23.2,23.2,0,0,1-6.14,1.69,90.44,90.44,0,0,1-14.37,1,91.65,91.65,0,0,1-14.44-1,21.43,21.43,0,0,1-6.17-1.69l0.07-8.33,0.54-.24,7.59-3.17L31.24,43a3.08,3.08,0,0,1-.57-0.27l0.07-8.1a3.11,3.11,0,0,0,.34-0.17l7.15-3.14L31,28.23c-0.17-.07-0.3-0.13-0.44-0.2l0-8.1a23.65,23.65,0,0,1,6.17-1.69,96.2,96.2,0,0,1,14.44-1h0Zm0-3.37c-13.33,0-24,2.26-24,5.06l0,10.19c0,0.81.91,1.55,2.5,2.23-1.52.67-2.36,1.42-2.36,2.19L27.29,43.75c0,0.84,1,1.62,2.7,2.33-1.65.67-2.6,1.48-2.6,2.29L27.29,58.8c0,2.8,10.63,5.06,24,5.06S75.13,61.6,75.13,58.8V48.37c0-.84-0.91-1.62-2.6-2.33,1.65-.67,2.6-1.48,2.6-2.29V33.56c0-.81-0.84-1.55-2.36-2.23,1.52-.67,2.36-1.42,2.36-2.19V18.92c0-2.8-10.53-5.06-23.89-5.06h0Z"/></svg>