<?xml version="1.0" encoding="utf-8"?>
<!-- Generator: Adobe Illustrator 22.1.0, SVG Export Plug-In . SVG Version: 6.00 Build 0)  -->
<svg version="1.1" id="Layer_1" xmlns="http://www.w3.org/2000/svg" xmlns:xlink="http://www.w3.org/1999/xlink" x="0px" y="0px"
	 viewBox="0 0 100 100" style="enable-background:new 0 0 100 100;" xml:space="preserve">
<style type="text/css">
	.st0{fill:#7CC639;}
</style>
<g>
	<path class="st0" d="M50.2,60.5c-1.7,0-3.3,0-5-0.1c-5.4-0.2-11.1-0.7-16.1-2.5l0.9-2.5c4.7,1.7,10.1,2.1,15.3,2.3
		c5.4,0.3,10.8,0.1,16.1-0.6c2.9-0.3,5.8-0.8,8.5-1.7l0.8,2.7c-2.9,0.9-5.9,1.4-9,1.7C58,60.3,54.1,60.5,50.2,60.5L50.2,60.5
		L50.2,60.5z"/>
	<path class="st0" d="M50.2,45.7c-1.7,0-3.3,0-5-0.1c-5.4-0.3-11.1-0.7-16.1-2.5l0.9-2.5c4.7,1.7,10.1,2.1,15.4,2.3
		c5.4,0.3,10.8,0.1,16.1-0.5c2.9-0.3,5.8-0.8,8.5-1.7l0.8,2.6c-2.9,0.9-5.9,1.5-9,1.8C58,45.5,54.1,45.7,50.2,45.7L50.2,45.7
		L50.2,45.7z"/>
	<path class="st0" d="M50.7,65.2c-8,0-15.5-0.8-20.1-2.2l0.7-2.3c4.4,1.3,11.7,2.1,19.5,2.1c7.3,0,14.3-0.7,18.8-1.9l0.6,2.3
		C65.5,64.5,58.4,65.2,50.7,65.2L50.7,65.2L50.7,65.2z"/>
	<path class="st0" d="M50.7,50.4c-8,0-15.5-0.8-20.1-2.2l0.7-2.3C35.8,47.2,43,48,50.8,48c7.3,0,14.3-0.7,18.8-1.9l0.6,2.3
		C65.5,49.7,58.4,50.4,50.7,50.4L50.7,50.4L50.7,50.4z"/>
	<path class="st0" d="M50.7,35c-8,0-15.5-0.8-20.1-2.2l0.7-2.3c4.4,1.3,11.7,2.1,19.5,2.1c7.3,0,14.3-0.7,18.8-1.9l0.6,2.3
		C65.5,34.2,58.4,35,50.7,35L50.7,35L50.7,35z"/>
	<path class="st0" d="M67.5,36.8c0,1-0.8,1.8-1.8,1.8c-1,0-1.8-0.8-1.8-1.8c0-1,0.8-1.8,1.8-1.8C66.7,35.1,67.5,35.8,67.5,36.8
		L67.5,36.8z"/>
	<path class="st0" d="M67.5,51.6c0,1-0.8,1.8-1.8,1.8c-1,0-1.8-0.8-1.8-1.8s0.8-1.8,1.8-1.8C66.7,49.9,67.5,50.7,67.5,51.6z"/>
	<path class="st0" d="M67.5,67.1c0,1-0.8,1.8-1.8,1.8c-1,0-1.8-0.8-1.8-1.8s0.8-1.8,1.8-1.8C66.7,65.4,67.5,66.2,67.5,67.1
		L67.5,67.1z"/>
	<path class="st0" d="M50.1,28.4c4.8,0,9.6,0.3,14.4,1c2.1,0.3,4.2,0.9,6.1,1.8v8.1c-0.1,0-0.2,0.1-0.3,0.2l-7.1,3.1l7.1,3.1
		c0.1,0,0.2,0.1,0.3,0.2v8.1l-0.5,0.2l-7.5,3.1l7.5,3.1l0.5,0.2v8.4c-2,0.8-4,1.4-6.1,1.7c-4.8,0.7-9.6,1-14.4,1
		c-4.8,0-9.7-0.3-14.4-1c-2.1-0.3-4.2-0.8-6.2-1.7l0.1-8.3l0.5-0.2l7.6-3.2l-7.6-3.1c-0.2-0.1-0.4-0.2-0.6-0.3l0.1-8.1
		c0.1,0,0.2-0.1,0.3-0.2l7.1-3.1l-7.2-3.1c-0.2-0.1-0.3-0.1-0.4-0.2v-8.1c2-0.8,4-1.4,6.2-1.7C40.3,28.7,45.1,28.4,50.1,28.4
		L50.1,28.4L50.1,28.4z M50.1,25c-13.3,0-24,2.3-24,5.1v10.2c0,0.8,0.9,1.5,2.5,2.2c-1.5,0.7-2.4,1.4-2.4,2.2l-0.1,10.2
		c0,0.8,1,1.6,2.7,2.3c-1.6,0.7-2.6,1.5-2.6,2.3l-0.1,10.4c0,2.8,10.6,5.1,24,5.1s23.8-2.3,23.8-5.1V59.5c0-0.8-0.9-1.6-2.6-2.3
		c1.7-0.7,2.6-1.5,2.6-2.3V44.7c0-0.8-0.8-1.5-2.4-2.2c1.5-0.7,2.4-1.4,2.4-2.2V30.1C73.9,27.3,63.4,25,50.1,25L50.1,25L50.1,25z"/>
</g>
</svg>
