<?xml version="1.0" encoding="utf-8"?>
<!-- Generator: Adobe Illustrator 19.2.1, SVG Export Plug-In . SVG Version: 6.00 Build 0)  -->
<svg version="1.1" id="Layer_1" xmlns="http://www.w3.org/2000/svg" xmlns:xlink="http://www.w3.org/1999/xlink" x="0px" y="0px"
	 viewBox="0 0 100 100" style="enable-background:new 0 0 100 100;" xml:space="preserve">
<style type="text/css">
	.st0{enable-background:new    ;}
	.st1{clip-path:url(#SVGID_2_);enable-background:new    ;}
	.st2{fill:#BB3727;}
	.st3{fill:#BD3827;}
	.st4{fill:#C23A28;}
	.st5{fill:#B63527;}
	.st6{fill:#B43327;}
	.st7{fill:#B13126;}
	.st8{fill:#AE3125;}
	.st9{fill:#AA3025;}
	.st10{fill:#A72D24;}
	.st11{fill:#A22C23;}
	.st12{fill:#9D2C22;}
	.st13{fill:#9A2C21;}
	.st14{fill:#972920;}
	.st15{fill:#942820;}
	.st16{fill:#90261E;}
	.st17{fill:#8D241D;}
	.st18{fill:#8A241C;}
	.st19{fill:#87241B;}
	.st20{fill:#C33A28;}
	.st21{clip-path:url(#SVGID_4_);enable-background:new    ;}
	.st22{clip-path:url(#SVGID_6_);fill:#87241B;}
	.st23{fill:#D73D27;}
	.st24{fill:#E5574F;}
	.st25{fill:#E1493B;}
	.st26{clip-path:url(#SVGID_8_);enable-background:new    ;}
	.st27{fill:#82211A;}
	.st28{clip-path:url(#SVGID_10_);enable-background:new    ;}
	.st29{fill:#6E6D6E;}
	.st30{fill:#CE3428;}
	.st31{fill:#CECCCB;}
</style>
<g>
	<g>
		<g>
			<g class="st0">
				<g class="st0">
					<g>
						<g>
							<g>
								<g>
									<defs>
										<path id="SVGID_1_" d="M57.8,52.8l-6.3-6.3c0.9-0.1,1.6-0.8,1.6-1.8l6.3,6.3C59.5,51.9,58.8,52.7,57.8,52.8z"/>
									</defs>
									<clipPath id="SVGID_2_">
										<use xlink:href="#SVGID_1_"  style="overflow:visible;"/>
									</clipPath>
									<g class="st1">
										<path class="st2" d="M57.8,52.8l-6.3-6.3h0.1L57.8,52.8L57.8,52.8"/>
										<path class="st3" d="M57.9,52.8l-6.3-6.3c0.1,0,0.2,0,0.2-0.1l6.3,6.3C58.1,52.8,58,52.8,57.9,52.8"/>
										<path class="st4" d="M58.1,52.7l-6.3-6.3c0.1-0.1,0.2-0.1,0.3-0.1l6.3,6.3C58.4,52.6,58.2,52.7,58.1,52.7"/>
										<path class="st3" d="M58.6,52.6l-6.3-6.3c0.1-0.1,0.1-0.1,0.2-0.1l6.3,6.3C58.7,52.5,58.6,52.5,58.6,52.6"/>
										<path class="st2" d="M58.8,52.5l-6.4-6.3c0.1-0.1,0.1-0.1,0.1-0.1L58.8,52.5C58.9,52.4,58.8,52.4,58.8,52.5"/>
										<path class="st5" d="M58.9,52.4l-6.4-6.3c0.1,0,0.1-0.1,0.1-0.1L58.9,52.4C59,52.3,58.9,52.4,58.9,52.4"/>
										<path class="st6" d="M59,52.3L52.7,46l0.1-0.1l6.4,6.3C59,52.1,59,52.1,59,52.3"/>
										<path class="st7" d="M59.1,52.1l-6.4-6.3l0.1-0.1L59.1,52.1L59.1,52.1"/>
										<path class="st8" d="M59.1,52l-6.4-6.3l0.1-0.1L59.1,52L59.1,52"/>
										<path class="st9" d="M59.2,51.9l-6.4-6.3l0.1-0.1L59.2,51.9L59.2,51.9"/>
										<path class="st10" d="M59.2,51.9l-6.3-6.3l0.1-0.1L59.2,51.9C59.3,51.8,59.3,51.9,59.2,51.9"/>
										<path class="st11" d="M59.3,51.8L53,45.5l0.1-0.1L59.3,51.8L59.3,51.8"/>
										<path class="st12" d="M59.3,51.7L53,45.4c0,0,0-0.1,0.1-0.1L59.3,51.7L59.3,51.7"/>
										<path class="st13" d="M59.3,51.6L53,45.3c0,0,0-0.1,0.1-0.1L59.3,51.6C59.4,51.6,59.4,51.6,59.3,51.6"/>
										<path class="st14" d="M59.4,51.6l-6.3-6.3c0-0.1,0-0.1,0.1-0.1L59.4,51.6C59.4,51.5,59.4,51.5,59.4,51.6"/>
										<path class="st15" d="M59.4,51.5L53,45.2v-0.1L59.4,51.5C59.4,51.4,59.4,51.5,59.4,51.5"/>
										<path class="st16" d="M59.4,51.4l-6.3-6.3c0-0.1,0-0.1,0-0.1L59.4,51.4L59.4,51.4"/>
										<path class="st17" d="M59.4,51.3L53.1,45c0-0.1,0-0.1,0-0.1L59.4,51.3C59.5,51.2,59.4,51.2,59.4,51.3"/>
										<path class="st18" d="M59.5,51.2l-6.4-6.3c0-0.1,0-0.1,0-0.1L59.5,51.2C59.5,51.1,59.5,51.1,59.5,51.2"/>
										<path class="st19" d="M59.5,51.1l-6.4-6.3c0,0,0,0,0-0.1L59.5,51.1C59.5,51,59.5,51.1,59.5,51.1"/>
									</g>
								</g>
							</g>
						</g>
					</g>
				</g>
				<g>
					<g>
						<polygon class="st18" points="59.5,48.8 53.1,42.5 62.7,41.7 69,48 						"/>
					</g>
					<g>
						<polygon class="st18" points="59.5,48.8 53.1,42.5 62.7,41.7 69,48 						"/>
					</g>
				</g>
				<g>
					<polygon class="st18" points="59.5,51 53.1,44.7 53.1,42.5 59.5,48.8 					"/>
				</g>
				<g>
					<polygon class="st20" points="34.2,54.9 27.9,48.6 51.5,46.5 57.8,52.8 					"/>
				</g>
				<g class="st0">
					<g>
						<g>
							<g>
								<g>
									<defs>
										<path id="SVGID_3_" d="M33.1,54.5c-0.1-0.1-0.2-0.2-0.3-0.3c-2-2-4-4-6-6c0.3,0.3,0.7,0.4,1.2,0.4l6.3,6.3
											C33.8,54.9,33.4,54.7,33.1,54.5z"/>
									</defs>
									<clipPath id="SVGID_4_">
										<use xlink:href="#SVGID_3_"  style="overflow:visible;"/>
									</clipPath>
									<g class="st21">
										<path class="st15" d="M33.1,54.5l-6.3-6.3l0.1,0.1L33.1,54.5L33.1,54.5"/>
										<path class="st14" d="M33.1,54.5l-6.3-6.3c0.1,0.1,0.1,0.1,0.1,0.1L33.1,54.5C33.2,54.6,33.2,54.6,33.1,54.5"/>
										<path class="st13" d="M33.2,54.6l-6.3-6.3c0.1,0,0.1,0.1,0.1,0.1L33.2,54.6C33.3,54.6,33.3,54.6,33.2,54.6"/>
										<path class="st12" d="M33.4,54.7L27,48.4c0.1,0,0.1,0.1,0.1,0.1L33.4,54.7L33.4,54.7"/>
										<path class="st11" d="M33.4,54.7l-6.3-6.3c0.1,0,0.1,0.1,0.1,0.1l6.3,6.3C33.5,54.7,33.5,54.7,33.4,54.7"/>
										<path class="st10" d="M33.5,54.7l-6.4-6.3c0.1,0,0.1,0,0.1,0.1L33.5,54.7C33.6,54.8,33.5,54.7,33.5,54.7"/>
										<path class="st9" d="M33.6,54.8l-6.3-6.3c0.1,0,0.1,0,0.1,0.1L33.6,54.8L33.6,54.8"/>
										<path class="st8" d="M33.7,54.8l-6.3-6.3c0.1,0,0.1,0,0.1,0L33.7,54.8C33.8,54.9,33.7,54.8,33.7,54.8"/>
										<path class="st7" d="M33.8,54.9l-6.4-6.3c0.1,0,0.1,0,0.1,0L33.8,54.9C33.9,54.9,33.8,54.9,33.8,54.9"/>
										<path class="st6" d="M33.9,54.9l-6.3-6.3c0.1,0,0.1,0,0.1,0l6.3,6.3C34,54.9,33.9,54.9,33.9,54.9"/>
										<path class="st5" d="M34,54.9l-6.3-6.3c0.1,0,0.1,0,0.1,0l6.3,6.3H34"/>
										<path class="st2" d="M34.1,54.9l-6.3-6.3H28L34.1,54.9L34.1,54.9"/>
									</g>
								</g>
							</g>
						</g>
					</g>
				</g>
				<g class="st0">
					<g>
						<g>
							<g>
								<g>
									<defs>
										<path id="SVGID_5_" d="M23.8,64.3L17.5,58c-0.5-0.5-0.8-1.2-0.8-2l6.3,6.3C23,63.2,23.3,63.9,23.8,64.3z"/>
									</defs>
									<clipPath id="SVGID_6_">
										<use xlink:href="#SVGID_5_"  style="overflow:visible;"/>
									</clipPath>
									<path class="st22" d="M23,62.6l-6.3-6.3c0-0.1,0-0.2,0-0.2l6.3,6.3C23,62.4,23,62.5,23,62.6"/>
								</g>
							</g>
						</g>
					</g>
				</g>
				<g>
					<path class="st23" d="M69,48v10.3c0,1.7-1.4,3.1-3,3.2L26.1,65c-1.7,0.1-3-1-3-2.8V51.9l9.6-0.8v2.2c0,0.9,0.7,1.6,1.6,1.5
						l23.6-2c0.9-0.1,1.6-0.8,1.6-1.8v-2.2L69,48z"/>
				</g>
				<g>
					<g>
						<polygon class="st18" points="23,52 16.7,45.8 26.3,44.8 32.7,51.2 						"/>
					</g>
					<g>
						<polygon class="st18" points="23,52 16.7,45.8 26.3,44.8 32.7,51.2 						"/>
					</g>
				</g>
				<path class="st18" d="M23.8,64.3c-0.4-0.4-0.6-1-0.7-1.8V52l-6.3-6.3v10.5l0,0c0,0.7,0.2,1.3,0.7,1.8L23.8,64.3z"/>
			</g>
			<g class="st0">
				<g>
					<g>
						<polygon class="st24" points="69,30.6 69,45.8 59.5,46.6 59.4,31.4 						"/>
					</g>
					<g>
						<polygon class="st25" points="69,30.6 69,45.8 59.5,46.6 59.4,31.4 						"/>
					</g>
				</g>
				<g>
					<polygon class="st18" points="59.5,46.6 53.2,40.3 53.1,25.1 59.4,31.4 					"/>
				</g>
				<g>
					<g>
						<polygon class="st18" points="59.4,31.4 53.1,25.1 62.6,24.3 69,30.6 						"/>
					</g>
					<g>
						<polygon class="st18" points="59.4,31.4 53.1,25.1 62.6,24.3 69,30.6 						"/>
					</g>
				</g>
			</g>
			<g class="st0">
				<g>
					<g>
						<polygon class="st24" points="32.6,33.7 32.7,48.9 23,49.7 22.9,34.5 						"/>
					</g>
					<g>
						<polygon class="st25" points="32.6,33.7 32.7,48.9 23,49.7 22.9,34.5 						"/>
					</g>
				</g>
				<g>
					<polygon class="st18" points="23,49.7 16.7,43.5 16.6,28.3 22.9,34.5 					"/>
				</g>
				<g>
					<polygon class="st18" points="22.9,34.5 16.6,28.3 26.3,27.4 32.6,33.7 					"/>
				</g>
			</g>
			<polygon class="st18" points="59.5,29.1 53.1,22.8 53.1,20.9 59.5,27.2 			"/>
			<g>
				<g>
					<g>
						<g>
							<defs>
								<path id="SVGID_7_" d="M52.7,19.9c2.1,2.1,4.2,4.2,6.3,6.3c0.2,0.2,0.4,0.6,0.4,1l-6.3-6.3C53.1,20.5,53,20.2,52.7,19.9z"/>
							</defs>
							<clipPath id="SVGID_8_">
								<use xlink:href="#SVGID_7_"  style="overflow:visible;"/>
							</clipPath>
							<g class="st26">
								<path class="st19" d="M59.5,27.2l-6.4-6.3c0-0.1,0-0.1,0-0.1L59.5,27.2C59.5,27.1,59.5,27.1,59.5,27.2"/>
								<path class="st27" d="M59.5,27.1l-6.4-6.3c0-0.3-0.2-0.7-0.4-0.9l6.4,6.2C59.3,26.4,59.4,26.7,59.5,27.1"/>
							</g>
						</g>
					</g>
				</g>
			</g>
			<g>
				<g>
					<g>
						<g>
							<defs>
								<path id="SVGID_9_" d="M61.9,9.9c0.4,0.4,0.8,0.8,1.3,1.3c1.7,1.7,3.4,3.4,5,5c-0.5-0.5-1.4-0.8-2.2-0.7l-6.3-6.3
									C60.5,9.2,61.4,9.4,61.9,9.9z"/>
							</defs>
							<clipPath id="SVGID_10_">
								<use xlink:href="#SVGID_9_"  style="overflow:visible;"/>
							</clipPath>
							<g class="st28">
								<path class="st2" d="M66,15.5l-6.3-6.3c0.1,0,0.1,0,0.1,0L66,15.5C66.1,15.5,66.1,15.5,66,15.5"/>
								<path class="st5" d="M66.2,15.5l-6.3-6.3c0.1,0,0.2,0,0.2,0l6.3,6.3C66.3,15.5,66.3,15.5,66.2,15.5"/>
								<path class="st6" d="M66.4,15.5l-6.3-6.3c0.1,0,0.1,0,0.2,0l6.3,6.3C66.6,15.5,66.5,15.5,66.4,15.5"/>
								<path class="st7" d="M66.6,15.5l-6.3-6.3c0.1,0,0.1,0,0.2,0l6.3,6.3C66.7,15.5,66.7,15.5,66.6,15.5"/>
								<path class="st8" d="M66.8,15.5l-6.3-6.3c0.1,0,0.1,0,0.2,0.1l6.3,6.3C67,15.5,66.9,15.5,66.8,15.5"/>
								<path class="st9" d="M67,15.6l-6.4-6.3c0.1,0,0.1,0.1,0.2,0.1l6.3,6.3C67.1,15.6,67.1,15.6,67,15.6"/>
								<path class="st10" d="M67.3,15.7L61,9.4c0.1,0,0.1,0.1,0.2,0.1l6.3,6.3C67.4,15.7,67.3,15.7,67.3,15.7"/>
								<path class="st11" d="M67.5,15.7l-6.3-6.3c0.1,0,0.1,0.1,0.2,0.1l6.3,6.3C67.6,15.8,67.5,15.7,67.5,15.7"/>
								<path class="st12" d="M67.6,15.8l-6.3-6.3c0.1,0.1,0.1,0.1,0.2,0.1l6.3,6.3C67.7,15.8,67.7,15.8,67.6,15.8"/>
								<path class="st13" d="M67.8,15.9l-6.3-6.3c0.1,0.1,0.1,0.1,0.2,0.1L68,16C67.9,15.9,67.9,15.9,67.8,15.9"/>
								<path class="st14" d="M68,16l-6.3-6.3c0.1,0.1,0.1,0.1,0.2,0.2l6.3,6.3C68.1,16.1,68,16.1,68,16"/>
								<path class="st15" d="M68.1,16.1l-6.3-6.3c0.1,0.1,0.1,0.1,0.1,0.1l6.3,6.3C68.3,16.2,68.2,16.2,68.1,16.1"/>
							</g>
						</g>
					</g>
				</g>
			</g>
			<polygon class="st18" points="23,32.2 16.7,26.1 16.7,16 23.1,22.3 			"/>
			<polygon class="st20" points="26.2,18.9 19.7,12.6 59.7,9.2 66,15.5 			"/>
			<g>
				<path class="st24" d="M26.2,18.9L66,15.5c1.7-0.1,3,1,3,2.8l-0.1,10l-9.5,0.8v-1.9c0-0.9-0.7-1.6-1.6-1.5l-23.6,2
					c-0.9,0.1-1.6,0.8-1.6,1.8v1.9l-9.7,0.8v-10C23.1,20.6,24.5,19.1,26.2,18.9z"/>
			</g>
			<g>
				<g>
					<g>
						<g class="st0">
							<path class="st19" d="M23.1,22.3L16.7,16v-0.1L23.1,22.3C23.1,22.2,23.1,22.3,23.1,22.3"/>
						</g>
					</g>
				</g>
			</g>
			<g>
				<path class="st24" d="M26.2,18.9L66,15.5c1.7-0.1,3,1,3,2.8l-0.1,10l-9.5,0.8v-1.9c0-0.9-0.7-1.6-1.6-1.5l-23.6,2
					c-0.9,0.1-1.6,0.8-1.6,1.8v1.9l-9.7,0.8v-10C23.1,20.6,24.5,19.1,26.2,18.9z"/>
			</g>
		</g>
		<g>
			<path class="st29" d="M9.9,77.9c0,5.6-2.5,7.4-4.8,7.4c-2.5,0-4.6-2.3-4.6-7.3c0-5.2,2.3-7.4,4.8-7.4C7.9,70.6,9.9,73,9.9,77.9z
				 M2.9,77.9c0,2.4,0.4,5.7,2.5,5.7c2,0,2.4-3.4,2.4-5.7c0-2.2-0.4-5.6-2.4-5.6C3.3,72.4,2.9,75.7,2.9,77.9z"/>
			<path class="st29" d="M12.5,75.2c0-2.2-0.1-3.5-0.1-4.5h2l0.1,1.9h0.1c0.7-1.5,1.9-2,3-2c2.5,0,4.1,2.6,4.1,7.3
				c0,5.3-2.2,7.4-4.4,7.4c-1.4,0-2.1-0.8-2.5-1.7h-0.1v7.1h-2.3C12.5,90.7,12.5,75.2,12.5,75.2z M14.8,79.9c0,0.4,0,0.8,0.1,1.2
				c0.4,2,1.5,2.4,2.1,2.4c1.9,0,2.5-2.6,2.5-5.4c0-2.9-0.7-5.4-2.5-5.4c-1,0-2,1.3-2.1,2.5c-0.1,0.3-0.1,0.7-0.1,1
				C14.8,76.1,14.8,79.9,14.8,79.9z"/>
			<path class="st29" d="M25.9,78.1c0,4.4,1.8,5.3,3.4,5.3c1,0,1.8-0.2,2.4-0.5l0.3,1.7c-0.7,0.4-2,0.6-3.1,0.6
				c-3.4,0-5.2-2.8-5.2-7.1c0-4.6,2-7.5,4.8-7.5c2.9,0,4.1,3,4.1,6.3c0,0.5,0,0.9-0.1,1.4C32.5,78.1,25.9,78.1,25.9,78.1z
				 M30.4,76.5c0.1-2.8-1-4.1-2.1-4.1c-1.5,0-2.3,2.1-2.3,4.1H30.4z"/>
			<path class="st29" d="M35,74.5c0-1.7-0.1-2.5-0.1-3.7h2l0.1,1.8h0.1c0.6-1.2,1.8-2,3.2-2c2,0,3.5,1.5,3.5,4.9v9.6h-2.2v-9.2
				c0-1.8-0.3-3.4-2-3.4c-0.9,0-1.9,0.7-2.1,2.3c-0.1,0.3-0.1,0.7-0.1,1.4v8.9h-2.3C35,85,35,74.5,35,74.5z"/>
			<path class="st30" d="M46.6,82.7c0.5,0.3,1.4,0.7,2.3,0.7c1.3,0,2.1-0.7,2.1-2.1c0-1-0.3-1.9-1.9-2.8c-1.9-1.2-2.8-2.4-2.8-4.1
				c0-2.3,1.8-4,4-4c1.2,0,2,0.3,2.5,0.7L52.2,73c-0.5-0.3-1.2-0.6-1.9-0.6c-1.2,0-1.9,0.9-1.9,1.9s0.3,1.5,1.8,2.4
				c1.7,1,2.9,2.4,2.9,4.4c0,2.8-2,4.2-4.3,4.2c-1,0-2.2-0.3-2.8-0.8L46.6,82.7z"/>
			<path class="st30" d="M58.2,67.4v3.4H61v1.8h-2.7v8.5c0,1.9,0.6,2.4,1.5,2.4c0.3,0,0.6,0,0.9-0.1l0.1,1.8
				c-0.4,0.1-0.9,0.2-1.7,0.2c-0.9,0-1.8-0.2-2.3-0.8C56.2,84,56,83,56,81v-8.3h-1.8v-1.8H56v-2.4L58.2,67.4z"/>
			<path class="st30" d="M70.6,81.8c0,1,0,2.3,0.1,3.2h-2l-0.2-1.5h-0.1c-0.6,1-1.6,1.8-2.8,1.8c-1.9,0-3.4-1.6-3.4-4.1
				c0-3.6,2.8-5.2,6.1-5.2v-0.4c0-1.9-0.5-3.2-2.3-3.2c-0.9,0-1.7,0.2-2.4,0.7l-0.5-1.6c0.6-0.4,1.9-0.9,3.4-0.9
				c2.8,0,4.1,1.9,4.1,5C70.6,75.6,70.6,81.8,70.6,81.8z M68.4,77.7c-1.2,0-4,0.2-4,3.4c0,1.9,0.9,2.5,1.8,2.5c1,0,1.9-0.7,2.1-2.1
				c0.1-0.2,0.1-0.5,0.1-0.8C68.4,80.6,68.4,77.7,68.4,77.7z"/>
			<path class="st30" d="M80.8,84.7c-0.5,0.3-1.4,0.5-2.4,0.5c-3.1,0-5.2-2.5-5.2-7.2c0-4.1,2.1-7.4,5.7-7.4c0.7,0,1.6,0.2,2,0.4
				l-0.4,1.9c-0.3-0.1-0.9-0.3-1.6-0.3c-2.3,0-3.2,2.7-3.2,5.6c0,3.4,1.3,5.3,3.4,5.3c0.6,0,1.2-0.1,1.6-0.3L80.8,84.7z"/>
			<path class="st30" d="M84.9,77.4L84.9,77.4c0.3-0.5,0.5-1.2,0.8-1.6l2.8-5h2.4l-3.8,6l4.1,8.3h-2.5l-3.1-6.7l-0.8,1.4v5.4h-2.3
				V64.6h2.3L84.9,77.4L84.9,77.4z"/>
		</g>
		<g>
			<g>
				<path class="st31" d="M93.6,71.2h-1.2v-0.4h2.7v0.4H94v3.2h-0.5L93.6,71.2L93.6,71.2z"/>
				<path class="st31" d="M98.7,72.8c0-0.5-0.1-1.2-0.1-1.6l0,0c-0.1,0.4-0.3,0.9-0.5,1.4l-0.6,1.8h-0.3l-0.6-1.8
					c-0.2-0.5-0.3-0.9-0.4-1.5l0,0c0,0.5-0.1,1-0.1,1.6L96,74.3h-0.5l0.2-3.7h0.6l0.6,1.8c0.2,0.5,0.3,0.8,0.3,1.3l0,0
					c0.1-0.3,0.2-0.7,0.4-1.3l0.6-1.8h0.6l0.2,3.7h-0.5L98.7,72.8z"/>
			</g>
		</g>
	</g>
	<path class="st20" d="M50.9,46.5c0,0,2.2-0.1,2.2-1.8l6.3,6.3c0,0,0.2,1.5-1.6,1.8L50.9,46.5z"/>
	<path class="st20" d="M59.7,9.2c0,0,1.4-0.1,2.2,0.7s6.3,6.3,6.3,6.3s-0.8-0.9-2.2-0.7L59.7,9.2z"/>
	<path class="st20" d="M22.9,22.2c0-0.5,0.7-2.8,3.2-3.2l-6.4-6.3c0,0-3,0.4-3,3.4L22.9,22.2z"/>
</g>
</svg>
