<?xml version="1.0" encoding="utf-8"?>
<!-- Generator: Adobe Illustrator 23.0.1, SVG Export Plug-In . SVG Version: 6.00 Build 0)  -->
<svg version="1.1" id="Layer_1" xmlns="http://www.w3.org/2000/svg" xmlns:xlink="http://www.w3.org/1999/xlink" x="0px" y="0px"
	 viewBox="0 0 100 100" style="enable-background:new 0 0 100 100;" xml:space="preserve">
<style type="text/css">
	.st0{fill:#E71682;}
	.st1{fill:#FDF4F9;}
	.st2{fill:#E40975;}
	.st3{fill:#EF9EC5;}
</style>
<g>
	<path class="st0" d="M69,75H31c-3.2999992,0-6-2.6999969-6-6V31c0-3.2999992,2.7000008-6,6-6h38c3.3000031,0,6,2.7000008,6,6v38
		C75,72.3000031,72.3000031,75,69,75z"/>
	<path class="st1" d="M68.6578827,51.3691559c0-3.1803741-2.3117065-5.8144035-5.3451118-6.3305092
		c-0.7176056-5.0611801-5.0556793-8.9575539-10.3150597-8.9575539c-3.5885887,0-6.752697,1.8131065-8.6296082,4.572258
		c-0.7441902-0.361515-1.5763969-0.5700378-2.4593163-0.5700378c-2.9254723,0-5.3304176,2.2262993-5.6143532,5.0769997
		c-2.7530441,0.7270813-4.785677,3.227314-4.785677,6.2088432c0,3.55056,2.8782902,6.4288483,6.4288502,6.4288483h24.6927338
		v-0.0202789C65.992981,57.5695648,68.6578827,54.7842331,68.6578827,51.3691559z"/>
	<polygon class="st2" points="47.0755386,47.3353081 51.1106453,43.3002014 55.145752,47.3353081 	"/>
	<rect x="50.5485725" y="47.3353081" class="st2" width="1.1241493" height="4.9638996"/>
	<path class="st3" d="M62.5220947,64.2216644H38.0872841c-0.5499992,0-1-0.4499969-1-0.9999962v-6.8592377
		c0-0.5499992,0.4500008-1,1-1h24.4348106c0.5500031,0,1,0.4500008,1,1v6.8592377
		C63.5220947,63.7716675,63.0720978,64.2216644,62.5220947,64.2216644z"/>
	<g>
		<g>
			<rect x="39.7862091" y="60.5202713" class="st2" width="1.1513158" height="1.1513158"/>
			<rect x="42.8190117" y="60.5202713" class="st2" width="1.1513158" height="1.1513158"/>
			<rect x="45.8518143" y="60.5202713" class="st2" width="1.1513158" height="1.1513158"/>
			<rect x="48.8846207" y="60.5202713" class="st2" width="1.1513158" height="1.1513158"/>
			<rect x="39.7862091" y="57.9125137" class="st2" width="1.1513158" height="1.1513158"/>
			<rect x="42.8190117" y="57.9125137" class="st2" width="1.1513158" height="1.1513158"/>
			<rect x="45.8518143" y="57.9125137" class="st2" width="1.1513158" height="1.1513158"/>
			<rect x="48.8846207" y="57.9125137" class="st2" width="1.1513158" height="1.1513158"/>
		</g>
		<circle class="st2" cx="59.0796394" cy="59.656044" r="1.7435298"/>
	</g>
</g>
</svg>
