<?xml version="1.0" encoding="utf-8"?>
<!-- Generator: Adobe Illustrator 24.0.3, SVG Export Plug-In . SVG Version: 6.00 Build 0)  -->
<svg version="1.1" id="Layer_1" xmlns="http://www.w3.org/2000/svg" xmlns:xlink="http://www.w3.org/1999/xlink" x="0px" y="0px"
	 viewBox="0 0 225 225" style="enable-background:new 0 0 225 225;" xml:space="preserve">
<style type="text/css">
	.st0{fill:#F80000;}
</style>
<g>
	<path class="st0" d="M159.4,144.9h-1.8c-2.3,0-4.2-1.9-4.2-4.2s1.9-4.2,4.2-4.2h1.8c12.3,0,22.4-10,22.4-22.4
		c0-12.5-10-22.5-22.4-22.5c-0.6,0-1.1,0-1.5,0.1c-2.2,0.6-4.4-0.7-5.1-2.9c-2.8-9.2-11.6-15.5-21.3-15.5c-2.3,0-4.6,0.4-7.4,1.2
		c-1.8,0.6-3.8-0.1-4.7-1.7c-4.7-7-12.7-11.1-21.2-11.1c-11.9,0-22.4,8.3-25.2,19.8c-0.5,1.9-2.2,3.3-4.2,3.3h-0.8
		c-14.3,0-25.8,11.6-25.8,25.8c0,16.5,7.1,25.8,19.5,25.8c2.3,0,4.2,1.9,4.2,4.2c0,2.3-1.9,4.2-4.2,4.2c-17.3,0-28-13.2-28-34.2
		c0-18.1,14.2-33,31.9-34.2c4.7-13.4,17.8-23,32.4-23c10.3,0,20,4.6,26.4,12.3c2.4-0.6,4.7-0.8,7-0.8c12.2,0,23.4,7.4,28.2,18.3
		c16.8,0.2,30.4,14,30.4,31C190.2,131.1,176.4,144.9,159.4,144.9z"/>
	<rect x="72.1" y="108.9" class="st0" width="18" height="10.2"/>
	<polygon class="st0" points="90.1,121.5 72.1,121.5 72.1,135.7 90.1,128.9 	"/>
	<path class="st0" d="M125.2,125.4c-0.1-0.2-0.2-0.4-0.2-0.6c0-0.1-0.1-0.2-0.1-0.4c-0.1-0.4-0.1-0.8,0-1.2l0.4-1.7h-12.1v7.4
		l18,6.8v-2.9l-5.7-7.1C125.3,125.6,125.3,125.5,125.2,125.4z"/>
	<rect x="92.5" y="108.9" class="st0" width="18" height="10.2"/>
	<rect x="92.5" y="96.2" class="st0" width="18" height="10.2"/>
	<polygon class="st0" points="113.1,108.9 113.1,119.2 125.8,119.2 128.1,108.9 	"/>
	<path class="st0" d="M99.5,170.7v-41.3l-32.7,12.8C83.2,170.7,99.5,170.7,99.5,170.7z"/>
	<path class="st0" d="M103.3,170.7c0,0,16.3,0,32.7-28.4l-32.7-12.8V170.7z"/>
	<path class="st0" d="M167.9,123.2L167.9,123.2z"/>
	<path class="st0" d="M149.6,121.1h-0.1c-0.1,0-0.1,0-0.2,0.1c-0.4,0.1-0.5,0.5-0.4,0.8l1.5,3.5c1.5-0.8,2.4-2.2,3-3.8L149.6,121.1z
		 M143.8,121.7c-0.1-0.2-0.4-0.5-0.6-0.5h-0.1l-3.8,0.6c0.6,1.6,1.6,2.9,3,3.8l1.5-3.5C143.8,122,143.8,121.9,143.8,121.7z
		 M146.8,123.1c-0.1-0.4-0.6-0.5-0.8-0.2c-0.1,0-0.2,0.1-0.2,0.2l-1.8,3.4c1.3,0.5,2.8,0.5,4.1,0.2c0.2,0,0.5-0.1,0.7-0.2
		L146.8,123.1z M152.8,115.3l-2.8,2.5c-0.2,0.2-0.2,0.6-0.1,0.8c0.1,0.1,0.2,0.1,0.4,0.2l3.6,1.1C154,118.4,153.6,116.8,152.8,115.3
		z M147.5,115.6c0,0.4,0.4,0.6,0.7,0.6c0.1,0,0.2,0,0.4-0.1l3.1-2.2c-1.2-1.2-2.7-1.9-4.4-2.1L147.5,115.6z M144.2,116.2
		c0.2,0.2,0.7,0.1,0.8-0.1c0.1-0.1,0.1-0.2,0.1-0.4l0.2-3.8c-0.2,0-0.5,0.1-0.7,0.1c-1.3,0.4-2.7,1-3.6,1.9L144.2,116.2z M142.5,119
		c0.4-0.1,0.5-0.5,0.5-0.7c0-0.1-0.1-0.2-0.2-0.4l-2.9-2.5c-0.8,1.5-1.2,3-1.1,4.7L142.5,119z M145.3,120.2l1.1,0.5l1.1-0.5l0.2-1.1
		l-0.7-0.8h-1.2l-0.7,0.8L145.3,120.2z M163.7,122.3l-3-12.9c-0.1-0.7-0.6-1.2-1.2-1.6l-12.1-5.8c-0.6-0.4-1.3-0.4-2.1,0l-12.1,5.8
		c-0.6,0.4-1.1,0.8-1.2,1.6l-3,12.9c-0.1,0.4-0.1,0.7,0,1c0,0.1,0,0.2,0.1,0.2c0,0.1,0.1,0.4,0.2,0.5c0,0.1,0.1,0.1,0.1,0.2
		l8.3,10.4l0.1,0.1c0.1,0.1,0.2,0.2,0.5,0.4s0.5,0.2,0.6,0.2c0.2,0,0.4,0.1,0.6,0.1h0.1H153c0.1,0,0.1,0,0.2,0s0.2,0,0.4-0.1
		c0.1,0,0.1,0,0.2-0.1c0.1,0,0.1,0,0.1-0.1c0.1,0,0.1-0.1,0.2-0.1c0.2-0.1,0.4-0.2,0.6-0.5l0.2-0.4l8.1-10.2
		c0.1-0.2,0.2-0.4,0.4-0.6c0-0.1,0.1-0.2,0.1-0.2C163.8,123.1,163.8,122.7,163.7,122.3z M151.1,127.4c0,0.1,0.1,0.2,0.1,0.2
		c-0.1,0.1-0.1,0.2,0,0.5c0.1,0.4,0.4,0.8,0.6,1.2c0.1,0.2,0.2,0.4,0.4,0.6c0,0,0.1,0.1,0.1,0.2c0.2,0.4,0.1,0.8-0.2,1
		c-0.4,0.2-0.8,0.1-1-0.2c0,0,0-0.1-0.1-0.1c0,0-0.1-0.1-0.1-0.2c-0.1-0.2-0.1-0.5-0.2-0.6c-0.1-0.4-0.2-0.8-0.5-1.2
		c-0.1-0.1-0.2-0.2-0.4-0.2l-0.1-0.2c-2.2,0.8-4.6,0.8-6.7,0l-0.1,0.2c-0.1,0-0.2,0.1-0.4,0.1c-0.2,0.4-0.5,0.8-0.6,1.3
		c0,0.2-0.1,0.5-0.2,0.6c0,0-0.1,0.1-0.1,0.2c-0.1,0.4-0.6,0.6-1,0.5c-0.4-0.1-0.6-0.6-0.5-1c0,0,0-0.1,0.1-0.1c0,0,0.1-0.1,0.1-0.2
		c0.1-0.2,0.2-0.4,0.4-0.6c0.2-0.4,0.5-0.7,0.6-1.2c0-0.1,0-0.2-0.1-0.4l0.1-0.4c-1.9-1.2-3.5-3-4.2-5.2h-0.4
		c-0.1-0.1-0.2-0.1-0.4-0.1c-0.5,0.1-0.8,0.2-1.2,0.4c-0.2,0.1-0.5,0.1-0.6,0.2c0,0-0.1,0-0.2,0c-0.4,0.1-0.8-0.1-1-0.5
		s0.1-0.8,0.5-1h0.1c0.1,0,0.1,0,0.2,0c0.2,0,0.5,0,0.7,0c0.5,0,0.8-0.1,1.3-0.2c0.1-0.1,0.2-0.2,0.4-0.4l0.4-0.1
		c-0.4-2.3,0.2-4.6,1.5-6.5l-0.2-0.2c0-0.1,0-0.2-0.1-0.4c-0.4-0.2-0.7-0.5-1.1-0.7c-0.2-0.1-0.4-0.2-0.6-0.4l-0.1-0.1
		c-0.4-0.2-0.4-0.7-0.1-1.1c0.1-0.1,0.4-0.2,0.6-0.2c0.2,0,0.4,0.1,0.5,0.2l0.1,0.1c0.1,0.1,0.4,0.4,0.5,0.5c0.2,0.4,0.6,0.6,1,0.8
		c0.1,0.1,0.2,0.1,0.5,0c0.1,0.1,0.1,0.1,0.2,0.2c1.3-1.3,2.9-2.3,4.7-2.7c0.5-0.1,0.8-0.1,1.3-0.2v-0.4c0.1-0.1,0.2-0.2,0.2-0.4
		c0-0.5,0-0.8-0.1-1.3c0-0.2-0.1-0.5-0.1-0.7c0,0,0-0.1,0-0.2c0-0.4,0.2-0.7,0.6-0.8c0.4,0,0.7,0.2,0.8,0.6v0.1c0,0.1,0,0.1,0,0.2
		c0,0.2,0,0.5-0.1,0.7c-0.1,0.5-0.1,0.8-0.1,1.3c0,0.1,0.1,0.2,0.2,0.4c0,0,0,0.2,0,0.4c2.3,0.2,4.5,1.2,6,2.9l0.2-0.2
		c0.1,0,0.2,0,0.5,0c0.4-0.2,0.7-0.6,1-0.8c0.1-0.1,0.4-0.4,0.5-0.5l0.1-0.1c0.2-0.2,0.7-0.2,1.1,0c0.2,0.2,0.2,0.7,0,1.1l-0.1,0.1
		l-0.1,0.1c-0.2,0.1-0.4,0.2-0.6,0.4c-0.4,0.2-0.7,0.5-1.1,0.7c-0.1,0.1-0.1,0.2-0.1,0.4c0,0-0.2,0.1-0.2,0.2
		c1.3,1.9,1.8,4.2,1.5,6.5l0.2,0.1c0.1,0.1,0.1,0.2,0.4,0.4c0.5,0.1,0.8,0.2,1.3,0.2c0.2,0,0.5,0,0.7,0c0.1,0,0.1,0,0.2,0
		c0.4,0,0.7,0.4,0.6,0.8c0,0.4-0.4,0.7-0.8,0.6h-0.1c0,0-0.1,0-0.2,0c-0.2-0.1-0.5-0.1-0.6-0.2c-0.4-0.1-0.8-0.2-1.2-0.4
		c-0.1,0-0.2,0-0.4,0.1c-0.1,0-0.2,0-0.4,0C154.6,124.4,153.1,126.2,151.1,127.4z"/>
</g>
</svg>

