<?xml version="1.0" encoding="utf-8"?>
<!-- Generator: Adobe Illustrator 19.2.1, SVG Export Plug-In . SVG Version: 6.00 Build 0)  -->
<svg version="1.1" id="Layer_1" xmlns="http://www.w3.org/2000/svg" xmlns:xlink="http://www.w3.org/1999/xlink" x="0px" y="0px"
	 viewBox="0 0 364.8 366.1" style="enable-background:new 0 0 364.8 366.1;" xml:space="preserve">
<style type="text/css">
	.st0{fill:#DD424E;}
	.st1{fill:#FFFFFF;}
</style>
<g>
	<circle class="st0" cx="182.4" cy="183.1" r="180.7"/>
	<path class="st1" d="M204.9,69.3c-12.9,0-23.9,3.4-33.5,10.3c-5.7,4.1-11.3,11.9-16.2,18.6c-2.9-11.9-6.5-27.2-6.5-27.2h-39.2l0,0
		c-2.1,0-3.6,1.7-3.6,3.6l0,0v13.8l0,0c0,2.1,1.7,3.6,3.6,3.6l0,0h23c1.9,6.7,4.8,17.9,8.1,30.4c-4.3,7.7-8.4,14.3-11.9,21.1
		c-20.1,38.8-29.4,65.7-29.4,95.1c0,35.1,15.5,57.9,38.5,57.9c26.6,0,42.5-23.9,42.5-65.1c0-0.7,0-3.4-0.2-5
		c6.4,3.3,15.3,5.8,23,5.8c29.6,0,54-19.6,59.1-46.4c2.1-11,2.9-21.1,2.9-34.9c0-14.6-1.5-27.3-4.6-37.6
		C252.5,85.4,232.1,69.3,204.9,69.3z M137.9,276.6c-11.3,0-17.2-18.9-17.2-37.5c0-23.7,6.9-49.8,27.5-89.7
		c6,27.7,11.2,61.9,11.2,82.3C159.2,245.1,157.1,276.6,137.9,276.6z M241.5,182c-3.3,17-19.6,29.9-39,29.9c-8.1,0-16.5-2.8-23.7-5.3
		c-3.1-26-9.8-57.8-15.8-82.7c3.8-6.9,6.7-12,13.4-20.1c9.8-11.9,19.4-14.1,28.5-14.1c22.3,0,31.6,16.5,35.6,29.6
		c1.7,5.8,3.8,16,3.8,31.8C244.1,163.6,243.4,172.2,241.5,182z"/>
</g>
</svg>
