<?xml version="1.0" encoding="utf-8"?>
<!-- Generator: Adobe Illustrator 18.1.1, SVG Export Plug-In . SVG Version: 6.00 Build 0)  -->
<svg version="1.1" id="Layer_1" xmlns="http://www.w3.org/2000/svg" xmlns:xlink="http://www.w3.org/1999/xlink" x="0px" y="0px"
	 viewBox="0 0 364.8 366.1" enable-background="new 0 0 364.8 366.1" xml:space="preserve">
<g>
	<path d="M47.7,263.2c-5.8,0-10.8,1.5-15.2,4.7c-2.6,1.9-5.1,5.3-7.3,8.4c-1.3-5.4-2.9-12.3-2.9-12.3H4.6l0,0
		c-0.9,0-1.7,0.7-1.7,1.7l0,0v6.2l0,0c0,0.9,0.7,1.7,1.7,1.7l0,0H15c0.8,3,2.2,8.1,3.6,13.8c-1.9,3.5-3.8,6.5-5.4,9.6
		C4.2,314.5,0,326.6,0,339.9c0,15.9,7,26.2,17.4,26.2c12,0,19.2-10.8,19.2-29.5c0-0.3,0-1.6-0.1-2.3c2.9,1.4,6.9,2.6,10.4,2.6
		c13.3,0,24.4-8.8,26.7-21c1-5,1.4-9.6,1.4-15.7c0-6.6-0.7-12.4-2.1-17.1C69.2,270.5,60,263.2,47.7,263.2z M17.4,356.9
		c-5.1,0-7.8-8.5-7.8-17c0-10.7,3.1-22.6,12.4-40.5c2.7,12.5,5,28,5,37.3C27,342.7,26.1,356.9,17.4,356.9z M64.2,314.2
		c-1.5,7.7-8.9,13.5-17.6,13.5c-3.7,0-7.4-1.3-10.8-2.4c-1.4-11.7-4.4-26.1-7.1-37.4c1.7-3.1,3-5.4,6-9.1c4.4-5.3,8.8-6.4,12.9-6.4
		c10.1,0,14.3,7.4,16.1,13.4c0.8,2.6,1.7,7.3,1.7,14.4C65.4,305.8,65.1,309.7,64.2,314.2z"/>
	<path d="M364.8,323.9c0-0.5-0.2-0.9-0.5-1.2l-4.9-4c-0.3-0.2-0.7-0.4-1.1-0.4c-0.5,0-0.9,0.2-1.2,0.5h0c-1.6,1.9-4.5,5-4.9,5.4
		c-1.7,1.7-3.6,3.1-6.2,3.1c-4.6,0-8.2-1.4-8.2-9.6v-44.1h17.3c0.9,0,1.7-0.7,1.7-1.7v-6.3c0-0.9-0.7-1.7-1.7-1.7h-17.3l0-18
		c0-0.9-0.7-1.6-1.7-1.6h-6.2c-0.9,0-1.7,0.7-1.7,1.7v18c0,0-6.9,0-7,0c-0.9,0-1.7,0.7-1.7,1.7c0,0.3,0,6,0,6.3
		c0,0.9,0.7,1.7,1.7,1.7c0.1,0,7,0,7,0v33c-2.2,2.5-7.9,9-10.8,11.9c-3.8,3.8-7.7,5.9-12.6,7.4c-4.9,1.6-8.4,1.3-14.9,1.3
		c-8.4,0-17-5.7-18.4-13.1c-0.9-4.4-1.1-8.8-1.1-14.4l44,0c0.9,0,1.6-0.7,1.6-1.7l0-3.1c0-0.1,0-3.5-0.4-8.3
		c-0.9-11.7-9.4-23.4-26.4-23.4c-12.8,0-24.4,9.1-27.2,21.2c-0.8,3.6-1.6,8-1.6,15.8c0,6.2,0.4,10.7,1.4,15.7c0.3,1.5,0.8,3,1.4,4.4
		c-1,1.1-2.4,2.6-4.1,4.3c-1.7,1.7-4.4,2-5.6,2h0c-3.5,0-5.4-1.8-8.2-4.7l-0.5-0.5c-1.4-1.4-11.2-14.1-18.5-23.5l23-24.4h7.1
		c0.9,0,1.7-0.7,1.7-1.7v-6.3c0-0.9-0.7-1.7-1.7-1.7h-11.3l-31.4,33.3c0,0,21.7,27.8,24.2,30.7l0.4,0.5c2.9,3.1,7.3,7.7,15.1,7.7
		c0,0,0,0,0,0c4.7,0,8.4-1,11.3-4.2c1.2-1.4,2.5-2.9,3.6-4.2c5.4,5.5,13.5,8.9,21.9,8.9c7.1,0,11.5,0,17.2-1.8
		c6.4-2,10.8-5,15.6-9.8c1.4-1.4,3.2-3.5,5-5.7c0.6,11.5,6.6,17.3,18,17.3c6.5,0,10.1-3.5,12.2-5.5c0.3-0.3,5.9-6.4,5.9-6.4
		C364.6,324.6,364.8,324.3,364.8,323.9z M271.7,286.5c1.7-7.7,9.4-13.7,17.7-13.7c11.6,0,16.1,7.8,16.6,14.6c0.1,1,0.1,2,0.2,2.9
		l-35.1,0C271.4,288.8,271.5,287.6,271.7,286.5z"/>
	<path d="M212.2,244.3h-14.7c-0.9,0-1.6,0.7-1.6,1.6l0,6.3c0,0.9,0.7,1.6,1.6,1.7l6.8,0v53.6c-0.8,0.9-5.2,5.6-8.3,9
		c-2.8,3-6.5,6.7-10.7,8.9c-3.3,1.7-5.2,2.4-13.4,2.4c-8.6,0-16-6-17.5-13.6c-0.8-4.4-1.2-8.3-1.2-13.9c0-6,0.4-10.9,1.3-14.7
		c1.7-7.4,8.9-13.1,17.4-13.1c6.6,0,12.1,2.9,14.7,7.2c0.2,0.3,0.7,0.9,1.1,1c0.5,0.2,0.9,0,1.3-0.1l5.6-3c0.5-0.3,0.8-0.7,0.8-1.4
		c0-0.3-0.1-0.5-0.2-0.7l-0.3-0.7c-4.4-7.2-12.9-11.6-22.9-11.6c-13,0-24.3,8.5-26.9,20.3c-1,4.4-1.5,10.1-1.5,16.8
		c0,6.2,0.4,10.7,1.4,15.7c0.2,1.3,0.6,2.5,1.1,3.8l-3.5,3.9c-1.9,2.1-3.1,3.2-5.3,3.2c-2.8,0-3.5-4.1-3.5-6.1c0,0,0-31.7,0-33.9
		c0-14.3-11.1-24.3-27.1-24.3c-8.4,0-16.5,3.5-21.8,9.4c-0.9,1-1.6,2-2.2,3.2c0,0-0.2,0.5-0.2,0.8c0,0.7,0.4,1.2,1,1.5l0,0l5.4,2.9
		l0,0c0.2,0.1,0.5,0.2,0.8,0.2c0.6,0,1-0.3,1.3-0.7c0,0,0.4-0.6,1.1-1.5c3.5-3.9,9-6.5,14.6-6.5c10.6,0,17.1,6.1,17.1,15
		c0,0.7,0,1.7,0,2.7l-9.2,0c-32.3,0-34.8,20.6-34.8,26.9c0,5,1.7,9.6,4.9,13.3c5.1,5.9,12.3,6.6,18.1,6.6c5.2,0,10.5-1.8,15.2-4.8
		c2.4-1.5,4.6-3.6,6.5-6c1.5,6.6,6.1,10.7,12.3,10.7c3.9,0,6.7-1.4,8.9-3.1c1.2-0.9,3.2-3.3,5.1-5.5c5.1,5.7,12.7,9.2,21.1,9.2
		c8.5,0,12.4-0.4,17.8-3.2c2.6-1.3,5.9-3.6,8.7-6.4c2-2,4.1-4.4,6-6.7l0,12c0,0.9,0.7,1.7,1.7,1.7h6.3c0.9,0,1.7-0.7,1.7-1.7V246
		C213.9,245.1,213.1,244.3,212.2,244.3z M123.5,307.5c0,9.9-10.7,19.6-20.4,19.6c-7.1,0-9.8-1.8-11.2-3.4c-1.8-2-2.6-4.3-2.6-7
		c0-11.2,8.9-17.3,25.2-17.3l9,0V307.5z"/>
</g>
<circle fill="#DD424E" cx="182.4" cy="105.1" r="105.1"/>
<path fill="#FFFFFF" d="M195.5,38.9c-7.5,0-13.9,2-19.5,6c-3.3,2.4-6.6,6.9-9.4,10.8c-1.7-6.9-3.8-15.8-3.8-15.8H140l0,0
	c-1.2,0-2.1,1-2.1,2.1l0,0v8l0,0c0,1.2,1,2.1,2.1,2.1l0,0h13.4c1.1,3.9,2.8,10.4,4.7,17.7c-2.5,4.5-4.9,8.3-6.9,12.3
	c-11.7,22.6-17.1,38.2-17.1,55.3c0,20.4,9,33.7,22.4,33.7c15.5,0,24.7-13.9,24.7-37.9c0-0.4,0-2-0.1-2.9c3.7,1.9,8.9,3.4,13.4,3.4
	c17.2,0,31.4-11.4,34.4-27c1.2-6.4,1.7-12.3,1.7-20.3c0-8.5-0.9-15.9-2.7-21.9C223.2,48.3,211.3,38.9,195.5,38.9z M156.5,159.5
	c-6.6,0-10-11-10-21.8c0-13.8,4-29,16-52.2c3.5,16.1,6.5,36,6.5,47.9C168.9,141.2,167.7,159.5,156.5,159.5z M216.8,104.5
	c-1.9,9.9-11.4,17.4-22.7,17.4c-4.7,0-9.6-1.6-13.8-3.1c-1.8-15.1-5.7-33.6-9.2-48.1c2.2-4,3.9-7,7.8-11.7
	c5.7-6.9,11.3-8.2,16.6-8.2c13,0,18.4,9.6,20.7,17.2c1,3.4,2.2,9.3,2.2,18.5C218.3,93.8,217.9,98.8,216.8,104.5z"/>
</svg>
