<svg id="Layer_1" data-name="Layer 1" xmlns="http://www.w3.org/2000/svg" viewBox="0 0 100 100"><defs><style>.cls-1{fill:#e34d59;}.cls-2{fill:#fff;}</style></defs><circle class="cls-1" cx="50" cy="37.85" r="25"/><path class="cls-2" d="M53.11,22.1a7.68,7.68,0,0,0-4.63,1.43,12.18,12.18,0,0,0-2.24,2.57c-0.4-1.65-.9-3.76-0.9-3.76H39.91a0.5,0.5,0,0,0-.5.5h0v1.91h0a0.5,0.5,0,0,0,.5.5H43.1c0.26,0.93.66,2.48,1.12,4.21-0.59,1.07-1.16,2-1.65,2.92-2.78,5.37-4.07,9.09-4.07,13.16,0,4.86,2.14,8,5.33,8,3.68,0,5.88-3.31,5.88-9a6.92,6.92,0,0,0,0-.69,7.47,7.47,0,0,0,3.18.8A8.13,8.13,0,0,0,61,38.22a24.31,24.31,0,0,0,.4-4.83,18.37,18.37,0,0,0-.64-5.2C59.7,24.33,56.88,22.1,53.11,22.1ZM43.84,50.78c-1.56,0-2.38-2.61-2.38-5.19,0-3.28,1-6.89,3.8-12.41a63.92,63.92,0,0,1,1.55,11.39C46.79,46.42,46.5,50.78,43.84,50.78ZM58.18,37.69a5.38,5.38,0,0,1-5.4,4.14,10.38,10.38,0,0,1-3.28-.73,107.09,107.09,0,0,0-2.19-11.44,15.35,15.35,0,0,1,1.85-2.78,4.69,4.69,0,0,1,3.94-2c3.09,0,4.37,2.28,4.93,4.1a15.68,15.68,0,0,1,.53,4.4A22.89,22.89,0,0,1,58.18,37.69Z"/><path class="cls-1" d="M29.39,74a3.71,3.71,0,0,0-2.25.7A5.7,5.7,0,0,0,26.05,76l-0.44-1.82H23a0.25,0.25,0,0,0-.25.25h0v0.93h0a0.25,0.25,0,0,0,.25.25h1.55c0.13,0.44.33,1.2,0.54,2-0.29.52-.56,1-0.8,1.42-1.36,2.61-2,4.42-2,6.39,0,2.36,1,3.89,2.59,3.89,1.79,0,2.86-1.6,2.86-4.39,0-.06,0-0.24,0-0.34a3.71,3.71,0,0,0,1.55.39,4,4,0,0,0,4-3.13,11.71,11.71,0,0,0,.2-2.34A9.1,9.1,0,0,0,33.15,77,3.78,3.78,0,0,0,29.39,74ZM24.89,88c-0.76,0-1.16-1.27-1.16-2.52a12.93,12.93,0,0,1,1.85-6A30.73,30.73,0,0,1,26.32,85C26.32,85.86,26.18,88,24.89,88Zm7-6.35a2.63,2.63,0,0,1-2.63,2,5.4,5.4,0,0,1-1.6-.35,51.35,51.35,0,0,0-1.06-5.56,7.32,7.32,0,0,1,.9-1.35,2.31,2.31,0,0,1,1.92-1,2.44,2.44,0,0,1,2.39,2A7.77,7.77,0,0,1,32,79.55,9.68,9.68,0,0,1,31.85,81.62Z"/><path class="cls-1" d="M76.56,83.06a0.23,0.23,0,0,0-.08-0.17l-0.72-.59a0.22,0.22,0,0,0-.16-0.06,0.23,0.23,0,0,0-.17.08h0c-0.23.29-.67,0.75-0.73,0.8a1.3,1.3,0,0,1-.92.46c-0.68,0-1.21-.21-1.21-1.42V75.6h2.58a0.25,0.25,0,0,0,.25-0.25V74.42a0.25,0.25,0,0,0-.25-0.25H72.56V71.5a0.25,0.25,0,0,0-.25-0.25H71.39a0.25,0.25,0,0,0-.25.25v2.68h-1a0.25,0.25,0,0,0-.25.25v0.93a0.25,0.25,0,0,0,.25.25h1v4.9c-0.33.36-1.18,1.34-1.61,1.77a4.28,4.28,0,0,1-1.88,1.1,6.63,6.63,0,0,1-2.21.2,2.79,2.79,0,0,1-2.74-1.94,11,11,0,0,1-.16-2.14H69.1a0.25,0.25,0,0,0,.25-0.25V78.77s0-.52-0.06-1.24A3.71,3.71,0,0,0,65.36,74a4.18,4.18,0,0,0-4,3.16,10.11,10.11,0,0,0-.23,2.36,11.71,11.71,0,0,0,.2,2.34,3.15,3.15,0,0,0,.2.66c-0.14.16-.36,0.39-0.61,0.64a1.22,1.22,0,0,1-.84.29h0a1.59,1.59,0,0,1-1.21-.7l-0.07-.07c-0.21-.21-1.67-2.09-2.75-3.5l3.42-3.62h1.05a0.25,0.25,0,0,0,.25-0.25V74.41a0.25,0.25,0,0,0-.25-0.25H58.8l-4.68,5s3.23,4.13,3.59,4.57l0.06,0.07A2.94,2.94,0,0,0,60,84.92h0a2.12,2.12,0,0,0,1.68-.62c0.18-.2.38-0.44,0.53-0.63A4.64,4.64,0,0,0,65.51,85a7.6,7.6,0,0,0,2.55-.27,5.36,5.36,0,0,0,2.32-1.46c0.2-.2.48-0.52,0.75-0.84A2.41,2.41,0,0,0,73.81,85a2.47,2.47,0,0,0,1.82-.82l0.87-1A0.31,0.31,0,0,0,76.56,83.06ZM62.72,77.5a2.74,2.74,0,0,1,2.63-2,2.28,2.28,0,0,1,2.47,2.17c0,0.15,0,.3,0,0.43H62.63C62.67,77.85,62.68,77.67,62.72,77.5Z"/><path class="cls-1" d="M53.87,71.23H51.68a0.24,0.24,0,0,0-.24.24v0.94a0.25,0.25,0,0,0,.25.25h1v8L51.46,82a6.17,6.17,0,0,1-1.59,1.32,3.47,3.47,0,0,1-2,.35,2.62,2.62,0,0,1-2.59-2,12.48,12.48,0,0,1,0-4.25,2.62,2.62,0,0,1,2.59-2,2.52,2.52,0,0,1,2.19,1.08,0.39,0.39,0,0,0,.17.15,0.25,0.25,0,0,0,.19,0l0.82-.44A0.21,0.21,0,0,0,51.36,76a0.18,0.18,0,0,0,0-.11l0-.1A3.88,3.88,0,0,0,47.87,74a4.05,4.05,0,0,0-4,3,11.53,11.53,0,0,0-.22,2.49,11.71,11.71,0,0,0,.2,2.34,4.09,4.09,0,0,0,.16.56L43.48,83a1,1,0,0,1-.79.48c-0.42,0-.52-0.62-0.52-0.9v-5c0-2.13-1.65-3.61-4-3.61a4.37,4.37,0,0,0-3.24,1.4,2.55,2.55,0,0,0-.33.48,0.47,0.47,0,0,0,0,.12,0.24,0.24,0,0,0,.14.22h0l0.8,0.43h0a0.26,0.26,0,0,0,.12,0,0.23,0.23,0,0,0,.2-0.11A1.35,1.35,0,0,1,36,76.31a3,3,0,0,1,2.17-1,2.25,2.25,0,0,1,2.55,2.23V78H39.34c-4.8,0-5.17,3.06-5.17,4a3,3,0,0,0,.74,2,3.36,3.36,0,0,0,2.7,1,4.26,4.26,0,0,0,3.23-1.6,1.86,1.86,0,0,0,1.82,1.59A2.12,2.12,0,0,0,44,84.47a5.9,5.9,0,0,0,.75-0.82A4.2,4.2,0,0,0,47.86,85a5,5,0,0,0,2.66-.48,5.4,5.4,0,0,0,1.28-1c0.29-.3.6-0.66,0.89-1v1.78a0.25,0.25,0,0,0,.25.25h0.93a0.25,0.25,0,0,0,.25-0.25V71.48A0.24,0.24,0,0,0,53.87,71.23ZM40.68,80.62a3.24,3.24,0,0,1-3,2.91A2,2,0,0,1,36,83a1.53,1.53,0,0,1-.39-1c0-1.67,1.33-2.58,3.74-2.58h1.35v1.22Z"/></svg>