<?xml version="1.0" encoding="utf-8"?>
<!-- Generator: Adobe Illustrator 22.1.0, SVG Export Plug-In . SVG Version: 6.00 Build 0)  -->
<svg version="1.1" id="Layer_7" xmlns="http://www.w3.org/2000/svg" xmlns:xlink="http://www.w3.org/1999/xlink" x="0px" y="0px"
	 viewBox="0 0 100 100" style="enable-background:new 0 0 100 100;" xml:space="preserve">
<style type="text/css">
	.st0{fill:#25C151;}
	.st1{fill:#FFFFFF;}
</style>
<g>
	<title>logo-pagerduty</title>
	<path class="st0" d="M71.2957535,75h-42.591507C26.6669102,75,25,73.3330917,25,71.2957535v-42.591507
		C25,26.6669102,26.6669102,25,28.7042446,25h42.591507C73.3330917,25,75,26.6669102,75,28.7042446v42.591507
		C75,73.3330917,73.3330917,75,71.2957535,75z"/>
	<g>
		<g>
			<path class="st1" d="M61.3998909,58.4170914c-0.007164,0-0.0137482-0.0000992-0.0197525-0.0000992H55.77565
				c-1.9968262,0-3.1623878-0.8119965-3.7885513-1.4932632c-1.2490349-1.3587532-1.2583313-3.1140671-1.2360573-3.5824776
				v-6.7389603c0-1.9468613,0.7942772-3.0993462,1.4603386-3.7233772c1.3654366-1.2787666,3.1530914-1.3005562,3.5869331-1.2858353
				h7.0092354v-6.067379h3.5698929v17.9023209c0,1.8325882-0.7526398,2.9554405-1.3840332,3.5746346
				C63.6231308,58.3466873,61.7711754,58.4170914,61.3998909,58.4170914z M54.3158951,53.5326042
				c-0.0048447,0.1853523,0.0400887,0.7027664,0.3079491,0.9844704c0.2595291,0.2727966,0.76968,0.3300285,1.1518059,0.3300285
				h5.6298599c1.4020386-0.0191727,1.4020386-1.0724945,1.4020386-1.4190826v-8.2650528l-7.1554642-0.0027122
				c-0.0025177,0-0.0052299,0-0.0081329,0c-0.1969719,0-0.7169991,0.0575218-1.0013199,0.3328362
				c-0.2134361,0.2067528-0.321701,0.5799713-0.321701,1.1091995L54.3158951,53.5326042z"/>
		</g>
		<g>
			<path class="st1" d="M37.1924515,64.4742966h-3.5698891V46.529953c0-1.835495,0.7537003-2.9598961,1.3859634-3.5800591
				c1.4000092-1.3731804,3.296608-1.419857,3.6196671-1.4164696h5.6167831c2.0000229,0,3.1673279,0.8131599,3.7943611,1.4953003
				c1.2510681,1.3610764,1.2602692,3.1193886,1.2379951,3.5880928v6.7549362c0,1.9498634-0.7953415,3.1039963-1.4624672,3.7289009
				c-1.3670845,1.2805061-3.1560936,1.3023949-3.5925522,1.2877693h-7.0298615V64.4742966z M44.3685417,54.8212471
				c0.1874809-0.0023232,0.7248421-0.0538406,1.0150719-0.334774c0.2148857-0.208107,0.3238297-0.5830688,0.3238297-1.1147194
				l0.00494-6.9462891c0.00494-0.1862259-0.0401878-0.7064438-0.3098869-0.9899902
				c-0.2610779-0.2745399-0.7735519-0.3321609-1.1575203-0.3321609h-5.6432228
				c-1.4093018,0.0191765-1.4093018,1.0782089-1.4093018,1.4266396v8.2885818L44.3685417,54.8212471z"/>
		</g>
	</g>
</g>
</svg>
