<svg id="pnap" xmlns="http://www.w3.org/2000/svg" viewBox="0 0 100 100"><g id="Logo_Globe_Color" data-name="Logo Globe Color"><rect id="bg" width="100" height="100" style="fill:none"/><path id="Path_2569" data-name="Path 2569" d="M73.87,26.76h-.53a49.2,49.2,0,0,0-11.72,1.42,6.49,6.49,0,0,0-1-1.63A48.26,48.26,0,0,1,67,21a27.26,27.26,0,0,1,6.86,5.8M44,63.21a5.59,5.59,0,0,0-3,1.41,47.64,47.64,0,0,1-6.38-8.24,6.41,6.41,0,0,0,1.29-9,6.12,6.12,0,0,0-.72-.8A50.88,50.88,0,0,1,51,34a5.26,5.26,0,0,0,.79,1.08A55.58,55.58,0,0,0,44,63.21m7.75-46.75a28.72,28.72,0,0,1,13.61,3.42,50.35,50.35,0,0,0-6.12,5.47,5.85,5.85,0,0,0-3-.86,6.18,6.18,0,0,0-6.07,6.29,6.55,6.55,0,0,0,.21,1.52,52.57,52.57,0,0,0-16.6,13.28,5.53,5.53,0,0,0-4.29-.38A56.82,56.82,0,0,1,26.8,30.35,29.74,29.74,0,0,1,51.72,16.46m-26.5,16.7a55.91,55.91,0,0,0,2.57,12.75A6.42,6.42,0,0,0,25,51.17a6.32,6.32,0,0,0,2,4.61,51.21,51.21,0,0,0-2.1,4.88,31.75,31.75,0,0,1-3-13.39,32.14,32.14,0,0,1,3.35-14.11M26,62.83a54.7,54.7,0,0,1,2.52-6,6,6,0,0,0,2.62.65A7.05,7.05,0,0,0,33,57.19,50,50,0,0,0,39.78,66a6.4,6.4,0,0,0-1,3.48,6.19,6.19,0,0,0,6.07,6.29c.16,0,.32-.06.47-.06l.47,1.95A30.09,30.09,0,0,1,26,62.83M47.69,77.91c-.27-.87-.47-1.74-.68-2.6a5.87,5.87,0,0,0,2.3-1.63,54.37,54.37,0,0,0,7.86,4,30.61,30.61,0,0,1-5.4.54,32.68,32.68,0,0,1-4.08-.33m12.56-1a48.85,48.85,0,0,1-10-4.78,6.75,6.75,0,0,0,.63-2.76,6.21,6.21,0,0,0-5.19-6.19,53.57,53.57,0,0,1,7.44-27.06,5.62,5.62,0,0,0,3,.86,6.19,6.19,0,0,0,6.08-6.29,5.77,5.77,0,0,0-.11-.92,48.52,48.52,0,0,1,11.26-1.3c.68,0,1.36.05,2,.05a31.54,31.54,0,0,1,6.18,18.72A30.76,30.76,0,0,1,60.25,76.94" style="fill:#006ca8"/><path id="Path_2570" data-name="Path 2570" d="M81.39,33.46a34.87,34.87,0,0,1,3,14.27c0,18.77-14.73,34.09-32.89,34.09S18.6,66.55,18.6,47.72,33.34,13.63,51.5,13.63a25.32,25.32,0,0,1,2.89.16A37.9,37.9,0,0,0,50,13.52C30.61,13.52,14.85,29.9,14.85,50S30.61,86.48,50,86.48,85.14,70.1,85.14,50A36.92,36.92,0,0,0,81.4,33.45" style="fill:#c52127"/></g></svg>