<?xml version="1.0" encoding="utf-8"?>
<!-- Generator: Adobe Illustrator 22.1.0, SVG Export Plug-In . SVG Version: 6.00 Build 0)  -->
<svg version="1.1" id="Layer_1" xmlns="http://www.w3.org/2000/svg" xmlns:xlink="http://www.w3.org/1999/xlink" x="0px" y="0px"
	 viewBox="0 0 100 100" style="enable-background:new 0 0 100 100;" xml:space="preserve">
<style type="text/css">
	.st0{fill:#E1032D;}
	.st1{fill:#FFFFFF;}
</style>
<g id="Grouped_Components">
	<rect id="Square" x="25" y="25" class="st0" width="50" height="50"/>
	<g id="Logotype">
		<path class="st1" d="M56.7,68c-0.4,0-0.8,0.3-0.8,0.7c0,0.4,0.3,0.8,0.7,0.8s0.8-0.3,0.8-0.7l0,0C57.4,68.4,57.1,68,56.7,68
			L56.7,68z M56.7,69.4c-0.3,0-0.7-0.2-0.7-0.6c0-0.3,0.2-0.7,0.6-0.7c0.3,0,0.7,0.2,0.7,0.6c0,0,0,0,0,0.1
			C57.2,69.1,57,69.4,56.7,69.4L56.7,69.4z"/>
		<path class="st1" d="M57,68.6c0-0.1-0.1-0.3-0.2-0.3c0,0,0,0-0.1,0h-0.3v0.9h0.2v-0.4h0.1l0.2,0.4H57l-0.2-0.4
			C56.9,68.8,57,68.8,57,68.6L57,68.6z M56.5,68.7v-0.2h0.1c0.1,0,0.1,0,0.2,0.1l0,0C56.8,68.7,56.7,68.7,56.5,68.7
			C56.6,68.7,56.5,68.7,56.5,68.7z"/>
		<g id="Identity">
			<path id="y" class="st1" d="M54.7,67.7l-0.3,1.1l0,0c0,0-0.1-0.8-0.3-1.3l-1-3.4l-0.8,0.3l1.1,3.3c0.2,0.5,0.4,1.6,0.5,1.9
				c0,0,0,0.2,0.1,0.6c-0.1,0.5-0.5,0.8-0.9,1l0.2,0.6c0.9-0.2,1.2-0.9,1.6-2l1.7-5.5h-0.9L54.7,67.7z"/>
			<path id="t" class="st1" d="M51.8,64.9l0.2-0.6h-1.2v-2H50v2h-0.6v0.6H50v3.6c-0.1,0.4,0.1,0.8,0.5,1.1c0.2,0.1,0.4,0.2,0.6,0.1
				c0.3,0,0.6-0.1,0.9-0.2L51.9,69c-0.1,0.1-0.3,0.1-0.5,0.1c-0.5,0-0.6-0.2-0.6-0.8v-3.4C50.8,64.9,51.8,64.9,51.8,64.9z"/>
			<path id="ti" class="st1" d="M46,64.3v-2h-0.8v2h-0.6v0.6h0.6v3.6c-0.1,0.4,0.1,0.8,0.5,1.1c0.2,0.1,0.4,0.2,0.6,0.1
				c0.3,0,0.6-0.1,0.9-0.2L47.1,69c-0.1,0.1-0.3,0.1-0.5,0.1c-0.5,0-0.6-0.2-0.6-0.8v-3.4h2.2v4.7H49v-5.4l-0.7,0.1L46,64.3L46,64.3
				z"/>
			<path id="n" class="st1" d="M42.8,64.1c-0.6,0-1.2,0.3-1.5,0.8c0-0.3-0.1-0.6-0.2-0.8l-0.7,0.2c0.1,0.4,0.2,0.7,0.2,1.1v4.1h0.7
				v-4c0.3-0.4,0.8-0.7,1.4-0.7c0.2,0,0.4,0.1,0.5,0.2c0.2,0.3,0.2,0.6,0.2,0.9v3.6h0.8v-4c0-0.2,0-0.4-0.1-0.6
				C43.8,64.4,43.3,64.1,42.8,64.1z"/>
			<path id="e" class="st1" d="M39.9,67.1L39.9,67.1c0-1.3-0.1-1.9-0.6-2.3c-0.3-0.4-0.8-0.6-1.3-0.6c-0.6,0-1.1,0.3-1.5,0.7
				c-0.4,0.6-0.6,1.3-0.6,2c0,1.8,0.8,2.8,2.2,2.8c0.6,0,1.2-0.2,1.7-0.7l-0.3-0.5c-0.3,0.3-0.8,0.5-1.2,0.5c-0.5,0-1-0.2-1.2-0.6
				s-0.3-0.8-0.2-1.2V67L39.9,67.1L39.9,67.1z M38,64.8c0.4,0,0.7,0.2,0.9,0.5c0.2,0.4,0.3,0.8,0.2,1.2h-2.2
				C36.9,65.3,37.3,64.8,38,64.8z"/>
			<path id="d" class="st1" d="M35.4,67.9v-5.6h-0.8v1.8c0,0.4,0,0.8,0,0.8c-0.3-0.4-0.8-0.7-1.3-0.7c-0.3,0-0.7,0.1-0.9,0.3
				c-0.7,0.6-1.1,1.5-1,2.5c0,1.7,0.7,2.7,2,2.7c0.5,0,1-0.2,1.3-0.6c0,0.2,0,0.4,0.1,0.5h0.8C35.4,69,35.3,68.4,35.4,67.9z
				 M34.6,68.2c-0.1,0.2-0.2,0.3-0.3,0.4c-0.3,0.2-0.6,0.4-0.9,0.3c-0.4,0-0.8-0.2-1-0.6c-0.2-0.4-0.2-0.9-0.2-1.4s0.1-1.1,0.3-1.5
				c0.2-0.3,0.5-0.6,0.9-0.6c0.5,0,0.9,0.2,1.2,0.6V68.2L34.6,68.2z"/>
			<rect id="I" x="30.1" y="62.2" class="st1" width="0.8" height="7.3"/>
		</g>
		<g id="Ping">
			<path id="P" class="st1" d="M38.8,45.3c-0.9-0.5-1.7-0.8-4.5-0.8h-4.2v17h3.2v-6.2h1.8c1.8,0,2.5-0.2,3.2-0.6
				c1.8-0.9,2.8-2.7,2.8-4.9C41.3,47.9,40.4,46.2,38.8,45.3z M37.2,51.5c-0.4,0.7-0.8,0.9-2.1,0.9h-1.7v-5.2h2.1
				c1.4,0,2.2,1,2.2,2.5C37.7,50.4,37.5,51,37.2,51.5L37.2,51.5z"/>
			<path id="i-2" class="st1" d="M45.7,45.5c-0.1,1.1-1,1.9-2,1.8s-1.9-1-1.8-2c0.1-1,0.9-1.8,1.9-1.8
				C44.9,43.5,45.8,44.4,45.7,45.5L45.7,45.5z M45.3,48.6v12.9h-3.1V49.2L45.3,48.6z"/>
			<path id="n-2" class="st1" d="M49.5,48.6c0.3,0.5,0.4,1,0.4,1.6c0.4-0.3,0.9-0.6,1.4-0.9c0.7-0.3,1.4-0.5,2.1-0.5
				c1.2-0.1,2.4,0.7,2.8,1.8c0.2,0.6,0.3,1.2,0.2,1.8v9.1h-3.1v-8.2c0-1.4-0.2-1.8-1-1.8c-0.8,0.1-1.6,0.5-2.1,1.1v8.9h-3.1v-9.1
				c0-1-0.1-2-0.4-2.9L49.5,48.6z"/>
			<path id="g" class="st1" d="M63.9,58.3h-1.7c-0.3,0-0.5-0.1-0.5-0.3c0-0.3,0.4-0.6,1.2-1c0.2,0,0.3,0,0.5,0
				c2.5,0,4.4-1.6,4.4-3.7c0-0.7-0.2-1.5-0.7-2.1c0.3,0,0.5,0.1,0.8,0.1c0.8,0,1.6-0.3,2.2-0.9l-1.3-2.1c-0.6,0.7-1.5,1-2.4,1.1
				c-0.5,0-1-0.1-1.5-0.3c-0.7-0.2-1.4-0.3-2.1-0.3c-3,0-5,1.7-5,4.2c0,1.9,0.8,3,2.5,3.5c-1.9,0.5-2.2,1.3-2.2,2.1
				c-0.1,0.7,0.3,1.3,0.9,1.6c0.9,0.3,1.9,0.4,2.8,0.4h1.3c1.2,0,2.2,0.4,2.2,1.5c0,0.5-0.3,1-0.8,1.2c-0.6,0.3-1.3,0.5-1.9,0.4
				c-1.4,0-2.2-0.5-2.2-1.5c0-0.3,0-0.6,0.1-0.8h-2.9c-0.2,0.4-0.3,0.8-0.3,1.2c0,0.8,0.3,1.7,1,2.2c1.1,1.1,2.8,1.3,4.5,1.3
				c1.9,0,3.6-0.4,4.7-1.6c0.6-0.7,1-1.6,0.9-2.6c0-1-0.3-1.9-1-2.6C66.6,58.6,65.7,58.3,63.9,58.3z M60.8,53c0-1,0.8-1.9,1.9-1.9
				c1,0,1.9,0.8,1.9,1.9c0,1.1-0.7,1.8-1.9,1.8C61.6,54.8,60.8,54.3,60.8,53z"/>
		</g>
	</g>
</g>
</svg>
