<?xml version="1.0" encoding="utf-8"?>
<!-- Generator: Adobe Illustrator 22.1.0, SVG Export Plug-In . SVG Version: 6.00 Build 0)  -->
<svg version="1.1" id="Layer_1" xmlns="http://www.w3.org/2000/svg" xmlns:xlink="http://www.w3.org/1999/xlink" x="0px" y="0px"
	 viewBox="0 0 100 100" style="enable-background:new 0 0 100 100;" xml:space="preserve">
<style type="text/css">
	.st0{fill:#78BF40;}
	.st1{fill:#00689E;}
</style>
<g>
	<path id="_120401272" class="st0" d="M76.8,74.4C76.8,74.4,76.6,74.4,76.8,74.4C76.6,74.4,76.8,74.4,76.8,74.4z M76.6,74.4
		C76.6,74.4,76.4,74.4,76.6,74.4C76.4,74.4,76.6,74.4,76.6,74.4z M76.4,74.6c0,0-0.2,0-0.2,0.2C76.2,74.6,76.2,74.6,76.4,74.6z
		 M59.6,62.1l-9.1-9.1c0,0,0,0,0-0.2C53.4,55.9,56.6,59.1,59.6,62.1z M50.9,46.5l6.8-6.8l0,0L50.9,46.5L50.9,46.5z M57.4,39.7
		l-8.5-8.5c-1.1-1.1-2.6-0.9-3.4,0l-17,17c-1.1,1.1-0.9,2.6,0,3.4l1.5,1.5l-6.6-6.6l0,0L44,26.3c1.5-1.5,4.5-1.9,6.4-0.2L71.3,47
		c0.6,0.6,1.1,1.7,1.1,2.8c0-1.1-0.4-1.9-1.1-2.8L60.9,36.5L57.4,39.7L57.4,39.7z M45.7,68.7l0.2,0.2c0.9,0.6,2.1,0.6,3-0.4l5.1-5.1
		l3.4,3.4l-6.8,6.8c-2.3,2.3-5.3,1.5-6.8,0L23.6,53.3c-0.9-0.9-1.5-2.1-1.5-3.2c0,1.3,0.6,2.3,1.5,3.2l20.2,20.2
		c1.5,1.5,4.5,2.3,6.8,0C50.6,73.5,45.7,68.7,45.7,68.7z M22.3,49.9v-0.2C22.3,49.9,22.3,49.9,22.3,49.9z M64.3,59.9l7,7l0,0
		C68.9,64.6,66.6,62.3,64.3,59.9L64.3,59.9z M60.9,43.1l5.1,5.1c0.4,0.4,0.6,0.6,0.6,1.1c0-0.4-0.4-0.9-0.6-1.1L60.9,43.1z M63.4,54
		l-0.9,0.9l0,0l0,0L63.4,54z"/>
	<path class="st1" d="M77.9,73.5c-4.5-4.5-8.9-8.9-13.4-13.6l6.8-6.8c1.9-1.9,1.7-4.7,0.2-6.4L61.1,36.3l-3.4,3.4l0,0l-6.8,6.8
		c-1.7,1.7-1.7,4.5-0.4,6.2c6.8,6.8,13.8,13.8,20.6,20.6C73.2,75.7,76.4,75,77.9,73.5L77.9,73.5z M62.6,55c-1.1,1.1-2.6,0.9-3.4,0
		l-3.4-3.4c-0.9-0.9-1.1-2.3,0-3.4l5.1-5.1l5.1,5.1c0.9,0.9,1.1,2.3,0,3.4C64.9,52.7,63.8,53.8,62.6,55C62.6,54.8,62.6,55,62.6,55z"
		/>
	<path id="_120400048" class="st1" d="M50.6,73.5c-2.3,2.3-5.3,1.5-6.8,0L23.6,53.3c-1.9-1.9-1.9-4.7,0-6.8l13.2,13.2l8.7,8.7l0,0
		L50.6,73.5L50.6,73.5z"/>
</g>
</svg>
