<?xml version="1.0" encoding="utf-8"?>
<!-- Generator: Adobe Illustrator 22.1.0, SVG Export Plug-In . SVG Version: 6.00 Build 0)  -->
<svg version="1.1" id="Layer_1" xmlns="http://www.w3.org/2000/svg" xmlns:xlink="http://www.w3.org/1999/xlink" x="0px" y="0px"
	 viewBox="0 0 100 100" style="enable-background:new 0 0 100 100;" xml:space="preserve">
<style type="text/css">
	.st0{fill:#E49701;}
	.st1{fill:#FFFFFF;}
	.st2{fill:#78BF40;}
	.st3{fill:#00689E;}
	.st4{fill:#72706F;}
	.st5{fill:#4D4948;}
</style>
<g>
	<path class="st0" d="M63.4,85.6H36.6c-0.4,0-0.8-0.4-0.8-0.8v-8.4c0-0.4,0.4-0.8,0.8-0.8h26.7c0.4,0,0.8,0.4,0.8,0.8v8.4
		C64.2,85.2,63.8,85.6,63.4,85.6z"/>
	<g>
		<path class="st1" d="M39.5,77.8h0.4v5.3H43v0.4h-3.5V77.8z"/>
		<path class="st1" d="M44.5,77.8h1.7c1.8,0,2.9,1.1,2.9,2.8c0,1.9-1.1,2.8-3.1,2.8h-1.5V77.8z M45.9,83.1c1.9,0,2.7-0.9,2.7-2.5
			c0-1.5-0.9-2.4-2.5-2.4h-1.2v4.9H45.9z"/>
		<path class="st1" d="M52.4,77.8h0.4l2.2,5.6h-0.4L54,81.8h-2.7l-0.6,1.6h-0.4L52.4,77.8z M53.9,81.4l-1.2-3.1l-1.2,3.1H53.9z"/>
		<path class="st1" d="M56.7,77.8h2c1.1,0,1.8,0.5,1.8,1.6s-0.7,1.6-1.8,1.6h-1.6v2.5h-0.4V77.8z M58.7,80.6c0.8,0,1.4-0.2,1.4-1.2
			c0-1-0.6-1.2-1.4-1.2h-1.6v2.4H58.7z"/>
	</g>
</g>
<g>
	<path id="_120401272" class="st2" d="M31.4,49.6C31.4,49.6,31.3,49.6,31.4,49.6C31.3,49.6,31.4,49.6,31.4,49.6z M31.3,49.6
		C31.3,49.6,31.2,49.6,31.3,49.6C31.2,49.6,31.3,49.6,31.3,49.6z M31.2,49.7c0,0-0.1,0-0.1,0.1C31.1,49.7,31.1,49.7,31.2,49.7z
		 M23.3,43.8L19,39.5c0,0,0,0,0-0.1C20.4,40.9,21.9,42.4,23.3,43.8z M19.2,36.5l3.2-3.2h0L19.2,36.5C19.2,36.5,19.2,36.5,19.2,36.5z
		 M22.3,33.3l-4-4c-0.5-0.5-1.2-0.4-1.6,0l-8,8c-0.5,0.5-0.4,1.2,0,1.6l0.7,0.7l-3.1-3.1l0,0L16,27c0.7-0.7,2.1-0.9,3-0.1l9.8,9.8
		c0.3,0.3,0.5,0.8,0.5,1.3c0-0.5-0.2-0.9-0.5-1.3l-4.9-4.9L22.3,33.3L22.3,33.3z M16.8,46.9c0,0,0.1,0.1,0.1,0.1
		c0.4,0.3,1,0.3,1.4-0.2l2.4-2.4l1.6,1.6l-3.2,3.2c-1.1,1.1-2.5,0.7-3.2,0l-9.5-9.5c-0.4-0.4-0.7-1-0.7-1.5c0,0.6,0.3,1.1,0.7,1.5
		l9.5,9.5c0.7,0.7,2.1,1.1,3.2,0C19.1,49.2,16.8,46.9,16.8,46.9z M5.8,38.1c0,0,0-0.1,0-0.1C5.8,38.1,5.8,38.1,5.8,38.1z M25.5,42.8
		l3.3,3.3l0,0C27.7,45,26.6,43.9,25.5,42.8C25.5,42.8,25.5,42.8,25.5,42.8z M23.9,34.9l2.4,2.4c0.2,0.2,0.3,0.3,0.3,0.5
		c0-0.2-0.2-0.4-0.3-0.5L23.9,34.9z M25.1,40l-0.4,0.4l0,0l0,0L25.1,40z"/>
	<path class="st3" d="M31.9,49.2c-2.1-2.1-4.2-4.2-6.3-6.4l3.2-3.2c0.9-0.9,0.8-2.2,0.1-3l-4.9-4.9l-1.6,1.6l0,0l-3.2,3.2
		c-0.8,0.8-0.8,2.1-0.2,2.9c3.2,3.2,6.5,6.5,9.7,9.7C29.7,50.2,31.2,49.9,31.9,49.2L31.9,49.2z M24.7,40.5c-0.5,0.5-1.2,0.4-1.6,0
		l-1.6-1.6c-0.4-0.4-0.5-1.1,0-1.6l2.4-2.4l2.4,2.4c0.4,0.4,0.5,1.1,0,1.6C25.8,39.4,25.3,39.9,24.7,40.5
		C24.7,40.4,24.7,40.5,24.7,40.5z"/>
	<path id="_120400048" class="st3" d="M19.1,49.2c-1.1,1.1-2.5,0.7-3.2,0l-9.5-9.5c-0.9-0.9-0.9-2.2,0-3.2l6.2,6.2l4.1,4.1
		c0,0,0,0,0,0L19.1,49.2L19.1,49.2z"/>
	<path id="_118330592" class="st4" d="M36.8,46.1c0,0.3-0.1,0.6-0.3,0.8c-0.2,0.2-0.4,0.3-0.7,0.3c-0.3,0-0.5-0.1-0.7-0.3
		c-0.2-0.2-0.3-0.5-0.3-0.8c0-0.3,0.1-0.6,0.3-0.8c0.2-0.2,0.4-0.3,0.7-0.3c0.3,0,0.5,0.1,0.7,0.3C36.7,45.5,36.8,45.8,36.8,46.1z
		 M35.1,46.1c0,0.3,0.1,0.5,0.2,0.7c0.1,0.2,0.3,0.2,0.6,0.2c0.3,0,0.5-0.1,0.6-0.2c0.1-0.2,0.2-0.4,0.2-0.7c0-0.3-0.1-0.5-0.2-0.7
		c-0.1-0.2-0.3-0.2-0.6-0.2c-0.3,0-0.4,0.1-0.6,0.2C35.2,45.6,35.1,45.8,35.1,46.1z M38,47.2c-0.2,0-0.4-0.1-0.5-0.3h0l0,0.1
		c0,0.1,0,0.2,0,0.2v0.6h-0.1v-2.3h0.1l0,0.2h0c0.1-0.2,0.3-0.3,0.5-0.3c0.2,0,0.4,0.1,0.5,0.2c0.1,0.1,0.2,0.3,0.2,0.6
		c0,0.3-0.1,0.5-0.2,0.6C38.4,47.2,38.2,47.2,38,47.2L38,47.2z M38,47.1c0.2,0,0.3-0.1,0.4-0.2c0.1-0.1,0.1-0.3,0.1-0.5
		c0-0.5-0.2-0.7-0.5-0.7c-0.2,0-0.3,0.1-0.4,0.2c-0.1,0.1-0.1,0.3-0.1,0.5v0c0,0.2,0,0.4,0.1,0.5C37.7,47.1,37.8,47.1,38,47.1z
		 M39.8,47.2c-0.2,0-0.4-0.1-0.5-0.2c-0.1-0.1-0.2-0.3-0.2-0.6c0-0.3,0.1-0.5,0.2-0.6c0.1-0.2,0.3-0.2,0.5-0.2
		c0.2,0,0.3,0.1,0.4,0.2c0.1,0.1,0.2,0.3,0.2,0.5v0.1h-1.1c0,0.2,0.1,0.4,0.2,0.5c0.1,0.1,0.2,0.2,0.4,0.2c0.1,0,0.2,0,0.2,0
		c0.1,0,0.2,0,0.3-0.1v0.1c-0.1,0-0.2,0.1-0.2,0.1C39.9,47.2,39.9,47.2,39.8,47.2L39.8,47.2z M39.7,45.7c-0.2,0-0.3,0-0.4,0.2
		c-0.1,0.1-0.1,0.2-0.2,0.4h1c0-0.2,0-0.3-0.1-0.4C40,45.8,39.9,45.7,39.7,45.7z M41.9,47.2v-1c0-0.2,0-0.3-0.1-0.3
		c-0.1-0.1-0.2-0.1-0.3-0.1c-0.2,0-0.3,0-0.4,0.1c-0.1,0.1-0.1,0.3-0.1,0.5v0.9h-0.1v-1.6h0.1l0,0.2h0c0.1-0.2,0.3-0.2,0.5-0.2
		c0.4,0,0.5,0.2,0.5,0.6v1C42,47.2,41.9,47.2,41.9,47.2z M44.6,46.7c0,0.2-0.1,0.3-0.2,0.4c-0.1,0.1-0.3,0.2-0.5,0.2
		c-0.3,0-0.5,0-0.6-0.1V47c0.2,0.1,0.3,0.1,0.6,0.1c0.2,0,0.3,0,0.4-0.1c0.1-0.1,0.2-0.2,0.2-0.3c0-0.1,0-0.1-0.1-0.2
		c0-0.1-0.1-0.1-0.2-0.1c-0.1,0-0.2-0.1-0.3-0.1c-0.2-0.1-0.4-0.2-0.5-0.2c-0.1-0.1-0.1-0.2-0.1-0.3c0-0.2,0.1-0.3,0.2-0.4
		c0.1-0.1,0.3-0.2,0.5-0.2c0.2,0,0.4,0,0.6,0.1l-0.1,0.1c-0.2-0.1-0.3-0.1-0.5-0.1c-0.2,0-0.3,0-0.4,0.1c-0.1,0.1-0.1,0.2-0.1,0.3
		c0,0.1,0,0.1,0,0.2c0,0.1,0.1,0.1,0.1,0.1c0.1,0,0.2,0.1,0.3,0.1c0.2,0.1,0.3,0.1,0.4,0.2c0.1,0.1,0.1,0.1,0.2,0.2
		C44.6,46.5,44.6,46.6,44.6,46.7L44.6,46.7z M46.3,46.4c0,0.3-0.1,0.5-0.2,0.6c-0.1,0.1-0.3,0.2-0.5,0.2c-0.1,0-0.3,0-0.4-0.1
		c-0.1-0.1-0.2-0.2-0.2-0.3c-0.1-0.1-0.1-0.3-0.1-0.4c0-0.3,0.1-0.5,0.2-0.6c0.1-0.1,0.3-0.2,0.5-0.2c0.2,0,0.4,0.1,0.5,0.2
		C46.3,46,46.3,46.2,46.3,46.4L46.3,46.4z M45.1,46.4c0,0.2,0,0.4,0.1,0.5c0.1,0.1,0.2,0.2,0.4,0.2c0.2,0,0.3-0.1,0.4-0.2
		c0.1-0.1,0.1-0.3,0.1-0.5c0-0.2,0-0.4-0.1-0.5c-0.1-0.1-0.2-0.2-0.4-0.2s-0.3,0.1-0.4,0.2C45.1,46,45.1,46.2,45.1,46.4L45.1,46.4z
		 M46.9,45.6v1c0,0.2,0,0.3,0.1,0.3c0.1,0.1,0.2,0.1,0.3,0.1c0.2,0,0.3,0,0.4-0.1c0.1-0.1,0.1-0.2,0.1-0.5v-0.9H48v1.6h-0.1l0-0.2h0
		c-0.1,0.2-0.3,0.2-0.5,0.2c-0.4,0-0.5-0.2-0.5-0.6v-1L46.9,45.6L46.9,45.6z M49.2,45.6c0.1,0,0.1,0,0.2,0l0,0.1c-0.1,0-0.1,0-0.2,0
		c-0.1,0-0.2,0.1-0.3,0.2c-0.1,0.1-0.1,0.3-0.1,0.4v0.9h-0.1v-1.6h0.1l0,0.3h0c0.1-0.1,0.1-0.2,0.2-0.2C49,45.6,49.1,45.6,49.2,45.6
		L49.2,45.6z M50.4,47.2c-0.2,0-0.4-0.1-0.5-0.2c-0.1-0.1-0.2-0.3-0.2-0.6c0-0.3,0.1-0.5,0.2-0.6c0.1-0.1,0.3-0.2,0.5-0.2
		c0.1,0,0.3,0,0.4,0.1l0,0.1c-0.1,0-0.3-0.1-0.4-0.1c-0.2,0-0.3,0.1-0.4,0.2c-0.1,0.1-0.1,0.3-0.1,0.5c0,0.2,0.1,0.4,0.1,0.5
		c0.1,0.1,0.2,0.2,0.4,0.2c0.1,0,0.3,0,0.4-0.1v0.1C50.7,47.2,50.5,47.2,50.4,47.2L50.4,47.2z M51.8,47.2c-0.2,0-0.4-0.1-0.5-0.2
		c-0.1-0.1-0.2-0.3-0.2-0.6c0-0.3,0.1-0.5,0.2-0.6c0.1-0.2,0.3-0.2,0.5-0.2c0.2,0,0.3,0.1,0.4,0.2c0.1,0.1,0.2,0.3,0.2,0.5v0.1h-1.1
		c0,0.2,0.1,0.4,0.2,0.5c0.1,0.1,0.2,0.2,0.4,0.2c0.1,0,0.2,0,0.2,0c0.1,0,0.2,0,0.3-0.1v0.1c-0.1,0-0.2,0.1-0.2,0.1
		C52,47.2,51.9,47.2,51.8,47.2L51.8,47.2z M51.8,45.7c-0.2,0-0.3,0-0.4,0.2c-0.1,0.1-0.1,0.2-0.2,0.4h1c0-0.2,0-0.3-0.1-0.4
		C52,45.8,51.9,45.7,51.8,45.7z M53.7,47.2v-2.1h0.1v2.1H53.7z M55,45.6c0.1,0,0.2,0,0.3,0.1c0.1,0,0.2,0.1,0.2,0.2h0
		c0-0.1,0-0.2,0-0.4V45h0.1v2.3h-0.1l0-0.2h0c-0.1,0.2-0.3,0.3-0.5,0.3c-0.2,0-0.4-0.1-0.5-0.2c-0.1-0.1-0.2-0.3-0.2-0.6
		c0-0.3,0.1-0.5,0.2-0.6C54.6,45.7,54.8,45.6,55,45.6L55,45.6z M55,45.7c-0.2,0-0.3,0.1-0.4,0.2c-0.1,0.1-0.1,0.3-0.1,0.5
		c0,0.4,0.2,0.7,0.5,0.7c0.2,0,0.3-0.1,0.4-0.2c0.1-0.1,0.1-0.3,0.1-0.5v0c0-0.2,0-0.4-0.1-0.5C55.3,45.8,55.2,45.7,55,45.7z
		 M56.9,47.2c-0.2,0-0.4-0.1-0.5-0.2c-0.1-0.1-0.2-0.3-0.2-0.6c0-0.3,0.1-0.5,0.2-0.6c0.1-0.2,0.3-0.2,0.5-0.2
		c0.2,0,0.3,0.1,0.4,0.2c0.1,0.1,0.2,0.3,0.2,0.5v0.1h-1.1c0,0.2,0.1,0.4,0.2,0.5c0.1,0.1,0.2,0.2,0.4,0.2c0.1,0,0.2,0,0.2,0
		c0.1,0,0.2,0,0.3-0.1v0.1c-0.1,0-0.2,0.1-0.2,0.1C57,47.2,57,47.2,56.9,47.2L56.9,47.2z M56.8,45.7c-0.2,0-0.3,0-0.4,0.2
		c-0.1,0.1-0.1,0.2-0.2,0.4h1c0-0.2,0-0.3-0.1-0.4C57.1,45.8,57,45.7,56.8,45.7z M59,47.2v-1c0-0.2,0-0.3-0.1-0.3
		c-0.1-0.1-0.2-0.1-0.3-0.1c-0.2,0-0.3,0-0.4,0.1C58.1,46,58,46.1,58,46.3v0.9h-0.1v-1.6H58l0,0.2h0c0.1-0.2,0.3-0.2,0.5-0.2
		c0.4,0,0.5,0.2,0.5,0.6v1L59,47.2L59,47.2z M60.1,47.1c0.1,0,0.2,0,0.2,0v0.1c-0.1,0-0.2,0-0.2,0c-0.1,0-0.2,0-0.3-0.1
		c-0.1-0.1-0.1-0.2-0.1-0.4v-1h-0.2v-0.1l0.2-0.1l0.1-0.4h0.1v0.4h0.5v0.1h-0.5v1c0,0.1,0,0.2,0.1,0.3S60,47.1,60.1,47.1z
		 M60.9,47.2h-0.1v-1.6h0.1V47.2z M60.7,45.2c0-0.1,0-0.1,0.1-0.1c0,0,0.1,0,0.1,0c0,0,0,0.1,0,0.1c0,0,0,0.1,0,0.1c0,0,0,0-0.1,0
		C60.7,45.3,60.7,45.3,60.7,45.2z M61.9,47.1c0.1,0,0.2,0,0.2,0v0.1c-0.1,0-0.2,0-0.2,0c-0.1,0-0.2,0-0.3-0.1
		c-0.1-0.1-0.1-0.2-0.1-0.4v-1h-0.2v-0.1l0.2-0.1l0.1-0.4h0.1v0.4h0.5v0.1h-0.5v1c0,0.1,0,0.2,0.1,0.3S61.8,47.1,61.9,47.1z
		 M62.2,45.6h0.1l0.3,0.9c0.1,0.3,0.2,0.5,0.2,0.6h0c0-0.1,0.1-0.3,0.2-0.6l0.3-0.9h0.1l-0.7,1.8c-0.1,0.1-0.1,0.2-0.1,0.3
		c0,0.1-0.1,0.1-0.1,0.1c-0.1,0-0.1,0-0.2,0c-0.1,0-0.1,0-0.2,0v-0.1c0.1,0,0.1,0,0.2,0c0,0,0.1,0,0.1,0c0,0,0.1-0.1,0.1-0.1
		c0,0,0.1-0.1,0.1-0.2c0-0.1,0.1-0.2,0.1-0.2L62.2,45.6L62.2,45.6z M65.6,47.2l-0.8-2h0c0,0.1,0,0.2,0,0.4v1.6h-0.1v-2.1h0.2
		l0.8,1.9h0l0.8-1.9h0.2v2.1h-0.1v-1.6c0-0.1,0-0.2,0-0.3h0L65.6,47.2L65.6,47.2z M68.2,47.2l0-0.2h0c-0.1,0.1-0.2,0.2-0.2,0.2
		c-0.1,0-0.2,0.1-0.3,0.1c-0.2,0-0.3,0-0.4-0.1c-0.1-0.1-0.1-0.2-0.1-0.3c0-0.2,0.1-0.3,0.2-0.4c0.1-0.1,0.3-0.1,0.6-0.1l0.3,0v-0.1
		c0-0.2,0-0.3-0.1-0.3c-0.1-0.1-0.2-0.1-0.3-0.1c-0.1,0-0.3,0-0.5,0.1l-0.1-0.1c0.2-0.1,0.3-0.1,0.5-0.1c0.2,0,0.3,0,0.4,0.1
		c0.1,0.1,0.1,0.2,0.1,0.4v1H68.2L68.2,47.2z M67.6,47.1c0.2,0,0.3,0,0.4-0.1c0.1-0.1,0.1-0.2,0.1-0.4v-0.2l-0.3,0
		c-0.2,0-0.4,0-0.5,0.1c-0.1,0.1-0.1,0.1-0.1,0.3c0,0.1,0,0.2,0.1,0.2C67.4,47.1,67.5,47.1,67.6,47.1z M70,47.2v-1
		c0-0.2,0-0.3-0.1-0.3c-0.1-0.1-0.2-0.1-0.3-0.1c-0.2,0-0.3,0-0.4,0.1C69.1,46,69,46.1,69,46.3v0.9h-0.1v-1.6H69l0,0.2h0
		c0.1-0.2,0.3-0.2,0.5-0.2c0.4,0,0.5,0.2,0.5,0.6v1H70L70,47.2z M71.6,47.2l0-0.2h0c-0.1,0.1-0.2,0.2-0.2,0.2
		c-0.1,0-0.2,0.1-0.3,0.1c-0.2,0-0.3,0-0.4-0.1c-0.1-0.1-0.1-0.2-0.1-0.3c0-0.2,0.1-0.3,0.2-0.4c0.1-0.1,0.3-0.1,0.6-0.1l0.3,0v-0.1
		c0-0.2,0-0.3-0.1-0.3c-0.1-0.1-0.2-0.1-0.3-0.1c-0.1,0-0.3,0-0.5,0.1l-0.1-0.1c0.2-0.1,0.3-0.1,0.5-0.1c0.2,0,0.3,0,0.4,0.1
		c0.1,0.1,0.1,0.2,0.1,0.4v1H71.6L71.6,47.2z M71,47.1c0.2,0,0.3,0,0.4-0.1c0.1-0.1,0.1-0.2,0.1-0.4v-0.2l-0.3,0
		c-0.2,0-0.4,0-0.5,0.1c-0.1,0.1-0.1,0.1-0.1,0.3c0,0.1,0,0.2,0.1,0.2C70.9,47.1,70.9,47.1,71,47.1L71,47.1z M73.5,45.6v0.1l-0.3,0
		c0.1,0.1,0.1,0.2,0.1,0.4c0,0.2-0.1,0.3-0.2,0.4c-0.1,0.1-0.2,0.1-0.4,0.1c-0.1,0-0.1,0-0.2,0c-0.1,0-0.1,0.1-0.1,0.1
		c0,0,0,0.1,0,0.1c0,0.1,0,0.1,0.1,0.1c0,0,0.1,0,0.2,0H73c0.2,0,0.3,0,0.4,0.1c0.1,0.1,0.1,0.2,0.1,0.3c0,0.2-0.1,0.3-0.2,0.4
		c-0.1,0.1-0.3,0.1-0.6,0.1c-0.2,0-0.4,0-0.5-0.1c-0.1-0.1-0.2-0.2-0.2-0.3c0-0.1,0-0.2,0.1-0.3c0.1-0.1,0.2-0.1,0.3-0.1
		c0,0-0.1,0-0.1-0.1c0,0,0-0.1,0-0.1c0-0.1,0.1-0.2,0.2-0.3c-0.1,0-0.2-0.1-0.2-0.2c-0.1-0.1-0.1-0.2-0.1-0.3c0-0.2,0.1-0.3,0.2-0.4
		c0.1-0.1,0.2-0.1,0.4-0.1c0.1,0,0.2,0,0.2,0L73.5,45.6L73.5,45.6z M72.2,47.5c0,0.2,0.2,0.3,0.5,0.3c0.4,0,0.6-0.1,0.6-0.4
		c0-0.1,0-0.2-0.1-0.2c-0.1,0-0.2-0.1-0.3-0.1h-0.3C72.4,47.1,72.2,47.3,72.2,47.5L72.2,47.5z M72.4,46.1c0,0.1,0,0.2,0.1,0.3
		c0.1,0.1,0.2,0.1,0.3,0.1c0.1,0,0.2,0,0.3-0.1c0.1-0.1,0.1-0.2,0.1-0.3c0-0.1,0-0.2-0.1-0.3c-0.1-0.1-0.2-0.1-0.3-0.1
		c-0.1,0-0.2,0-0.3,0.1C72.4,45.9,72.4,46,72.4,46.1z M74.5,47.2c-0.2,0-0.4-0.1-0.5-0.2c-0.1-0.1-0.2-0.3-0.2-0.6
		c0-0.3,0.1-0.5,0.2-0.6c0.1-0.2,0.3-0.2,0.5-0.2c0.2,0,0.3,0.1,0.4,0.2c0.1,0.1,0.2,0.3,0.2,0.5v0.1h-1.1c0,0.2,0.1,0.4,0.2,0.5
		c0.1,0.1,0.2,0.2,0.4,0.2c0.1,0,0.2,0,0.2,0c0.1,0,0.2,0,0.3-0.1v0.1c-0.1,0-0.2,0.1-0.2,0.1C74.7,47.2,74.6,47.2,74.5,47.2
		L74.5,47.2z M74.5,45.7c-0.2,0-0.3,0-0.4,0.2C74,46,74,46.1,73.9,46.3h1c0-0.2,0-0.3-0.1-0.4C74.7,45.8,74.6,45.7,74.5,45.7z
		 M77.5,47.2v-1c0-0.2,0-0.3-0.1-0.3c-0.1-0.1-0.2-0.1-0.3-0.1c-0.2,0-0.3,0-0.4,0.1c-0.1,0.1-0.1,0.2-0.1,0.4v0.9h-0.1v-1.1
		c0-0.3-0.1-0.4-0.4-0.4c-0.2,0-0.3,0-0.4,0.1c-0.1,0.1-0.1,0.3-0.1,0.5v0.9h-0.1v-1.6h0.1l0,0.2h0c0-0.1,0.1-0.1,0.2-0.2
		c0.1,0,0.2-0.1,0.3-0.1c0.2,0,0.4,0.1,0.5,0.3h0c0.1-0.1,0.1-0.2,0.2-0.2c0.1,0,0.2-0.1,0.3-0.1c0.2,0,0.3,0,0.4,0.1
		c0.1,0.1,0.1,0.2,0.1,0.4v1L77.5,47.2L77.5,47.2z M78.9,47.2c-0.2,0-0.4-0.1-0.5-0.2c-0.1-0.1-0.2-0.3-0.2-0.6
		c0-0.3,0.1-0.5,0.2-0.6c0.1-0.2,0.3-0.2,0.5-0.2c0.2,0,0.3,0.1,0.4,0.2c0.1,0.1,0.2,0.3,0.2,0.5v0.1h-1.1c0,0.2,0.1,0.4,0.2,0.5
		c0.1,0.1,0.2,0.2,0.4,0.2c0.1,0,0.2,0,0.2,0c0.1,0,0.2,0,0.3-0.1v0.1c-0.1,0-0.2,0.1-0.2,0.1C79,47.2,78.9,47.2,78.9,47.2
		L78.9,47.2z M78.8,45.7c-0.2,0-0.3,0-0.4,0.2c-0.1,0.1-0.1,0.2-0.2,0.4h1c0-0.2,0-0.3-0.1-0.4C79.1,45.8,79,45.7,78.8,45.7z
		 M81,47.2v-1c0-0.2,0-0.3-0.1-0.3c-0.1-0.1-0.2-0.1-0.3-0.1c-0.2,0-0.3,0-0.4,0.1C80.1,46,80,46.1,80,46.3v0.9h-0.1v-1.6H80l0,0.2
		h0c0.1-0.2,0.3-0.2,0.5-0.2c0.4,0,0.5,0.2,0.5,0.6v1H81L81,47.2z M82.1,47.1c0.1,0,0.2,0,0.2,0v0.1c-0.1,0-0.2,0-0.2,0
		c-0.1,0-0.2,0-0.3-0.1c-0.1-0.1-0.1-0.2-0.1-0.4v-1h-0.2v-0.1l0.2-0.1l0.1-0.4h0.1v0.4h0.5v0.1h-0.5v1c0,0.1,0,0.2,0.1,0.3
		C81.9,47.1,82,47.1,82.1,47.1L82.1,47.1z M84.7,46.7c0,0.2-0.1,0.3-0.2,0.4c-0.1,0.1-0.3,0.2-0.5,0.2c-0.3,0-0.5,0-0.6-0.1V47
		c0.2,0.1,0.3,0.1,0.6,0.1c0.2,0,0.3,0,0.4-0.1c0.1-0.1,0.2-0.2,0.2-0.3c0-0.1,0-0.1-0.1-0.2c0-0.1-0.1-0.1-0.2-0.1
		c-0.1,0-0.2-0.1-0.3-0.1c-0.2-0.1-0.4-0.2-0.5-0.2c-0.1-0.1-0.1-0.2-0.1-0.3c0-0.2,0.1-0.3,0.2-0.4c0.1-0.1,0.3-0.2,0.5-0.2
		c0.2,0,0.4,0,0.6,0.1l-0.1,0.1c-0.2-0.1-0.3-0.1-0.5-0.1c-0.2,0-0.3,0-0.4,0.1c-0.1,0.1-0.1,0.2-0.1,0.3c0,0.1,0,0.1,0,0.2
		c0,0.1,0.1,0.1,0.1,0.1c0.1,0,0.2,0.1,0.3,0.1c0.2,0.1,0.3,0.1,0.4,0.2c0.1,0.1,0.1,0.1,0.2,0.2C84.7,46.5,84.7,46.6,84.7,46.7z
		 M86.5,46.4c0,0.3-0.1,0.5-0.2,0.6c-0.1,0.1-0.3,0.2-0.5,0.2c-0.1,0-0.3,0-0.4-0.1c-0.1-0.1-0.2-0.2-0.2-0.3
		c-0.1-0.1-0.1-0.3-0.1-0.4c0-0.3,0.1-0.5,0.2-0.6c0.1-0.1,0.3-0.2,0.5-0.2c0.2,0,0.4,0.1,0.5,0.2C86.4,46,86.5,46.2,86.5,46.4
		L86.5,46.4z M85.2,46.4c0,0.2,0,0.4,0.1,0.5c0.1,0.1,0.2,0.2,0.4,0.2c0.2,0,0.3-0.1,0.4-0.2c0.1-0.1,0.1-0.3,0.1-0.5
		c0-0.2,0-0.4-0.1-0.5c-0.1-0.1-0.2-0.2-0.4-0.2s-0.3,0.1-0.4,0.2C85.3,46,85.2,46.2,85.2,46.4L85.2,46.4z M87.1,47.2h-0.1V45h0.1
		V47.2z M87.8,45.6v1c0,0.2,0,0.3,0.1,0.3c0.1,0.1,0.2,0.1,0.3,0.1c0.2,0,0.3,0,0.4-0.1c0.1-0.1,0.1-0.2,0.1-0.5v-0.9h0.1v1.6h-0.1
		l0-0.2h0c-0.1,0.2-0.3,0.2-0.5,0.2c-0.4,0-0.5-0.2-0.5-0.6v-1L87.8,45.6L87.8,45.6z M89.9,47.1c0.1,0,0.2,0,0.2,0v0.1
		c-0.1,0-0.2,0-0.2,0c-0.1,0-0.2,0-0.3-0.1c-0.1-0.1-0.1-0.2-0.1-0.4v-1h-0.2v-0.1l0.2-0.1l0.1-0.4h0.1v0.4h0.5v0.1h-0.5v1
		c0,0.1,0,0.2,0.1,0.3C89.7,47.1,89.8,47.1,89.9,47.1L89.9,47.1z M90.6,47.2h-0.1v-1.6h0.1V47.2z M90.5,45.2c0-0.1,0-0.1,0.1-0.1
		c0,0,0.1,0,0.1,0c0,0,0,0.1,0,0.1c0,0,0,0.1,0,0.1c0,0,0,0-0.1,0C90.5,45.3,90.5,45.3,90.5,45.2z M92.5,46.4c0,0.3-0.1,0.5-0.2,0.6
		c-0.1,0.1-0.3,0.2-0.5,0.2c-0.1,0-0.3,0-0.4-0.1c-0.1-0.1-0.2-0.2-0.2-0.3c-0.1-0.1-0.1-0.3-0.1-0.4c0-0.3,0.1-0.5,0.2-0.6
		c0.1-0.1,0.3-0.2,0.5-0.2c0.2,0,0.4,0.1,0.5,0.2C92.4,46,92.5,46.2,92.5,46.4L92.5,46.4z M91.2,46.4c0,0.2,0,0.4,0.1,0.5
		c0.1,0.1,0.2,0.2,0.4,0.2c0.2,0,0.3-0.1,0.4-0.2c0.1-0.1,0.1-0.3,0.1-0.5c0-0.2,0-0.4-0.1-0.5c-0.1-0.1-0.2-0.2-0.4-0.2
		c-0.2,0-0.3,0.1-0.4,0.2C91.3,46,91.2,46.2,91.2,46.4z M94.1,47.2v-1c0-0.2,0-0.3-0.1-0.3c-0.1-0.1-0.2-0.1-0.3-0.1
		c-0.2,0-0.3,0-0.4,0.1c-0.1,0.1-0.1,0.3-0.1,0.5v0.9H93v-1.6h0.1l0,0.2h0c0.1-0.2,0.3-0.2,0.5-0.2c0.4,0,0.5,0.2,0.5,0.6v1H94.1
		L94.1,47.2z"/>
	<g>
		<polygon id="_117273144" class="st5" points="36.8,31.9 36.8,36.4 41.6,36.4 41.6,38 36.8,38 36.8,42.7 34.9,42.7 34.9,30.4 
			41.9,30.4 41.9,31.9 		"/>
		<path id="_118328912" class="st5" d="M45.7,34c0.6-1.4,2.1-1.8,3.9-1.4l0,1.4c-0.7-0.2-1.4-0.3-2.1,0.1c-0.6,0.3-1,0.7-1.3,1.3
			c-0.5,0.9-0.4,1.9-0.4,2.9v4.3h-1.9V32.6h1.9L45.7,34L45.7,34z"/>
		<path id="_118330064" class="st5" d="M52.2,38.1c0.2,3.5,3.5,3.5,6,2.4l0.3-0.1v1.8l-0.1,0.1c-0.5,0.2-1,0.4-1.5,0.5
			c-0.6,0.1-1.1,0.2-1.7,0.2c-3.1,0-4.8-2.2-4.8-5.1c0-2.7,1.4-5.3,4.5-5.3c2.7,0,4.2,2.1,4.2,4.6v1.1L52.2,38.1L52.2,38.1z
			 M52.3,36.5h4.6c0-1.4-0.7-2.4-2.2-2.4C53.3,34.1,52.5,35.2,52.3,36.5L52.3,36.5z"/>
		<path id="_118328648" class="st5" d="M62.4,38.1c0.2,3.4,3.3,3.6,6,2.4l0.3-0.1v1.8l-0.1,0.1c-1.1,0.5-2.1,0.6-3.2,0.6
			c-3.1,0-4.8-2.2-4.8-5.1c0-2.7,1.4-5.3,4.5-5.3c2.7,0,4.2,2.1,4.2,4.6v1.1L62.4,38.1L62.4,38.1z M62.4,36.5h4.6
			c0-1.4-0.7-2.4-2.2-2.4C63.4,34.1,62.6,35.2,62.4,36.5L62.4,36.5z"/>
		<polygon id="_117271752" class="st4" points="71.8,42.7 71.8,30.4 73.7,30.4 73.7,42.7 		"/>
		<path id="_121423808" class="st4" d="M78,38v4.7h-1.8V30.4h3.3c2.5,0,4.7,0.8,4.7,3.7c0,1.2-0.4,2.2-1.3,2.9c-1,0.8-2.4,1-3.7,1
			L78,38L78,38z M78,36.4c1.8,0,4.4,0.2,4.4-2.3c-0.1-2.4-2.7-2.2-4.4-2.2V36.4L78,36.4z"/>
		<path id="_118330664" class="st4" d="M90.7,38.1h-4.1l-1.8,4.7l-1.8,0l4.9-12.4l1.5,0l4.9,12.4h-1.7L90.7,38.1L90.7,38.1z
			 M90.1,36.6l-1.5-3.8l-1.5,3.8H90.1z"/>
	</g>
</g>
</svg>
