<?xml version="1.0" encoding="utf-8"?>
<!-- Generator: Adobe Illustrator 22.1.0, SVG Export Plug-In . SVG Version: 6.00 Build 0)  -->
<svg version="1.1" id="Layer_1" xmlns="http://www.w3.org/2000/svg" xmlns:xlink="http://www.w3.org/1999/xlink" x="0px" y="0px"
	 viewBox="0 0 100 100" style="enable-background:new 0 0 100 100;" xml:space="preserve">
<style type="text/css">
	.st0{fill:#E1032D;}
	.st1{fill:#FFFFFF;}
	.st2{fill:#78C9CF;}
</style>
<g id="Grouped_Components">
	<rect id="Square" x="25" y="14.5" class="st0" width="50" height="50"/>
	<g id="Logotype">
		<path class="st1" d="M56.7,57.5c-0.4,0-0.8,0.3-0.8,0.7c0,0.4,0.3,0.8,0.7,0.8c0.4,0,0.8-0.3,0.8-0.7c0,0,0,0,0,0
			C57.4,57.9,57.1,57.5,56.7,57.5C56.7,57.5,56.7,57.5,56.7,57.5z M56.7,58.9c-0.3,0-0.7-0.2-0.7-0.6c0-0.3,0.2-0.7,0.6-0.7
			c0.3,0,0.7,0.2,0.7,0.6c0,0,0,0,0,0.1C57.2,58.6,57,58.9,56.7,58.9C56.7,58.9,56.7,58.9,56.7,58.9z"/>
		<path class="st1" d="M57,58.1c0-0.1-0.1-0.3-0.2-0.3c0,0,0,0-0.1,0h-0.3v0.9h0.2v-0.4h0.1l0.2,0.4H57l-0.2-0.4
			C56.9,58.3,57,58.3,57,58.1C57,58.1,57,58.1,57,58.1z M56.5,58.2V58h0.1c0.1,0,0.1,0,0.2,0.1c0,0,0,0,0,0c0,0.1-0.1,0.1-0.2,0.1
			H56.5z"/>
		<g id="Identity">
			<path id="y" class="st1" d="M54.7,57.2l-0.3,1.1l0,0c0,0-0.1-0.8-0.3-1.3l-1-3.4l-0.8,0.3l1.1,3.3c0.2,0.5,0.4,1.6,0.5,1.9
				c0,0,0,0.2,0.1,0.6c-0.1,0.5-0.5,0.8-0.9,1l0.2,0.6c0.9-0.2,1.2-0.9,1.6-2l1.7-5.5h-0.9L54.7,57.2z"/>
			<path id="t" class="st1" d="M51.8,54.4l0.2-0.6h-1.2v-2H50v2h-0.6v0.6H50V58c-0.1,0.4,0.1,0.8,0.5,1.1c0.2,0.1,0.4,0.2,0.6,0.1
				c0.3,0,0.6-0.1,0.9-0.2l-0.1-0.5c-0.1,0.1-0.3,0.1-0.5,0.1c-0.5,0-0.6-0.2-0.6-0.8v-3.4H51.8z"/>
			<path id="ti" class="st1" d="M46,53.8v-2h-0.8v2h-0.6v0.6h0.6V58c-0.1,0.4,0.1,0.8,0.5,1.1c0.2,0.1,0.4,0.2,0.6,0.1
				c0.3,0,0.6-0.1,0.9-0.2l-0.1-0.5c-0.1,0.1-0.3,0.1-0.5,0.1c-0.5,0-0.6-0.2-0.6-0.8v-3.4h2.2v4.7h0.8v-5.4l-0.7,0.1L46,53.8
				L46,53.8z"/>
			<path id="n" class="st1" d="M42.8,53.6c-0.6,0-1.2,0.3-1.5,0.8c0-0.3-0.1-0.6-0.2-0.8l-0.7,0.2c0.1,0.4,0.2,0.7,0.2,1.1v4.1h0.7
				v-4c0.3-0.4,0.8-0.7,1.4-0.7c0.2,0,0.4,0.1,0.5,0.2c0.2,0.3,0.2,0.6,0.2,0.9v3.6h0.8v-4c0-0.2,0-0.4-0.1-0.6
				C43.8,53.9,43.3,53.6,42.8,53.6z"/>
			<path id="e" class="st1" d="M39.9,56.6v-0.1c0-1.2-0.1-1.8-0.6-2.2c-0.3-0.4-0.8-0.6-1.3-0.6c-0.6,0-1.1,0.3-1.5,0.7
				c-0.4,0.6-0.6,1.3-0.6,2c0,1.8,0.8,2.8,2.2,2.8c0.6,0,1.2-0.2,1.7-0.7L39.5,58c-0.3,0.3-0.8,0.5-1.2,0.5c-0.5,0-1-0.2-1.2-0.6
				c-0.2-0.4-0.3-0.8-0.2-1.2v-0.2H39.9L39.9,56.6z M38,54.3c0.4,0,0.7,0.2,0.9,0.5c0.2,0.4,0.3,0.8,0.2,1.2h-2.2
				C36.9,54.8,37.3,54.3,38,54.3z"/>
			<path id="d" class="st1" d="M35.4,57.4v-5.6h-0.8v1.8c0,0.4,0,0.8,0,0.8c-0.3-0.4-0.8-0.7-1.3-0.7c-0.3,0-0.7,0.1-0.9,0.3
				c-0.7,0.6-1.1,1.5-1,2.5c0,1.7,0.7,2.7,2,2.7c0.5,0,1-0.2,1.3-0.6c0,0.2,0,0.4,0.1,0.5h0.8C35.4,58.5,35.3,57.9,35.4,57.4z
				 M34.6,57.7c-0.1,0.2-0.2,0.3-0.3,0.4c-0.3,0.2-0.6,0.4-0.9,0.3c-0.4,0-0.8-0.2-1-0.6c-0.2-0.4-0.2-0.9-0.2-1.4
				c0-0.5,0.1-1.1,0.3-1.5c0.2-0.3,0.5-0.6,0.9-0.6c0.5,0,0.9,0.2,1.2,0.6L34.6,57.7L34.6,57.7z"/>
			<rect id="I" x="30.1" y="51.7" class="st1" width="0.8" height="7.3"/>
		</g>
		<g id="Ping">
			<path id="P" class="st1" d="M38.8,34.8c-0.9-0.5-1.7-0.8-4.5-0.8h-4.2v17h3.2v-6.2h1.8c1.8,0,2.5-0.2,3.2-0.6
				c1.8-0.9,2.8-2.7,2.8-4.9C41.3,37.4,40.4,35.7,38.8,34.8z M37.2,41c-0.4,0.7-0.8,0.9-2.1,0.9h-1.7v-5.2h2.1c1.4,0,2.2,1,2.2,2.5
				C37.7,39.9,37.5,40.5,37.2,41L37.2,41z"/>
			<path id="i-2" class="st1" d="M45.7,35c-0.1,1.1-1,1.9-2,1.8s-1.9-1-1.8-2c0.1-1,0.9-1.8,1.9-1.8C44.9,33,45.8,33.9,45.7,35
				C45.7,35,45.7,35,45.7,35z M45.3,38.1V51h-3.1V38.7L45.3,38.1z"/>
			<path id="n-2" class="st1" d="M49.5,38.1c0.3,0.5,0.4,1,0.4,1.6c0.4-0.3,0.9-0.6,1.4-0.9c0.7-0.3,1.4-0.5,2.1-0.5
				c1.2-0.1,2.4,0.7,2.8,1.8c0.2,0.6,0.3,1.2,0.2,1.8V51h-3.1v-8.2c0-1.4-0.2-1.8-1-1.8c-0.8,0.1-1.6,0.5-2.1,1.1V51h-3.1v-9.1
				c0-1-0.1-2-0.4-2.9L49.5,38.1z"/>
			<path id="g" class="st1" d="M63.9,47.8h-1.7c-0.3,0-0.5-0.1-0.5-0.3c0-0.3,0.4-0.6,1.2-1c0.2,0,0.3,0,0.5,0
				c2.5,0,4.4-1.6,4.4-3.7c0-0.7-0.2-1.5-0.7-2.1c0.3,0,0.5,0.1,0.8,0.1c0.8,0,1.6-0.3,2.2-0.9l-1.3-2.1c-0.6,0.7-1.5,1-2.4,1.1
				c-0.5,0-1-0.1-1.5-0.3c-0.7-0.2-1.4-0.3-2.1-0.3c-3,0-5,1.7-5,4.2c0,1.9,0.8,3,2.5,3.5c-1.9,0.5-2.2,1.3-2.2,2.1
				c-0.1,0.7,0.3,1.3,0.9,1.6c0.9,0.3,1.9,0.4,2.8,0.4h1.3c1.2,0,2.2,0.4,2.2,1.5c0,0.5-0.3,1-0.8,1.2c-0.6,0.3-1.3,0.5-1.9,0.4
				c-1.4,0-2.2-0.5-2.2-1.5c0-0.3,0-0.6,0.1-0.8h-2.9c-0.2,0.4-0.3,0.8-0.3,1.2c0,0.8,0.3,1.7,1,2.2c1.1,1.1,2.8,1.3,4.5,1.3
				c1.9,0,3.6-0.4,4.7-1.6c0.6-0.7,1-1.6,0.9-2.6c0-1-0.3-1.9-1-2.6C66.6,48.1,65.7,47.8,63.9,47.8z M60.8,42.5c0-1,0.8-1.9,1.9-1.9
				c1,0,1.9,0.8,1.9,1.9c0,1.1-0.7,1.8-1.9,1.8C61.6,44.3,60.8,43.8,60.8,42.5z"/>
		</g>
	</g>
</g>
<path class="st2" d="M62.4,85.4H35.7c-0.4,0-0.8-0.4-0.8-0.8v-8.4c0-0.4,0.4-0.8,0.8-0.8h26.7c0.4,0,0.8,0.4,0.8,0.8v8.4
	C63.2,85.1,62.9,85.4,62.4,85.4z"/>
<g>
	<path class="st1" d="M38.3,83.1v-0.4c0.5,0.2,1,0.3,1.6,0.3c1.1,0,1.5-0.4,1.5-1.1c0-0.7-0.5-1-1.5-1.4c-1-0.4-1.5-0.8-1.5-1.6
		c0-0.8,0.7-1.4,1.8-1.4c0.6,0,1,0.1,1.5,0.3v0.4c-0.5-0.2-0.9-0.3-1.4-0.3c-0.9,0-1.4,0.4-1.4,1c0,0.6,0.4,0.9,1.4,1.3
		c1,0.4,1.6,0.7,1.6,1.7c0,0.9-0.7,1.5-1.9,1.5C39.3,83.4,38.6,83.3,38.3,83.1z"/>
	<path class="st1" d="M45.2,77.6h0.4l2.2,5.6h-0.4l-0.6-1.6H44l-0.6,1.6h-0.4L45.2,77.6z M46.6,81.3l-1.2-3.1l-1.2,3.1H46.6z"/>
	<path class="st1" d="M49.3,77.6h0.5l2.3,5l2.3-5h0.5v5.6h-0.4v-4.8l-2.2,4.8h-0.2l-2.2-4.8v4.8h-0.4V77.6z"/>
	<path class="st1" d="M56.5,77.6h0.4v5.3H60v0.4h-3.5V77.6z"/>
</g>
</svg>
