<svg id="Layer_1" data-name="Layer 1" xmlns="http://www.w3.org/2000/svg" viewBox="0 0 100 100"><defs><style>.cls-1{fill:#003764;}.cls-2{fill:#40b4e5;}</style></defs><path class="cls-1" d="M42.69,86.37a3,3,0,0,1-.73.23,5.25,5.25,0,0,1-1,.09A4.76,4.76,0,0,1,38.2,86,4.56,4.56,0,0,1,36.56,84a4.29,4.29,0,0,1-1.46-.59A4,4,0,0,1,34,82.34a5.07,5.07,0,0,1-.71-1.54A7.1,7.1,0,0,1,33,78.87a6.74,6.74,0,0,1,.33-2.2A4.55,4.55,0,0,1,34.29,75a4,4,0,0,1,1.44-1,5.15,5.15,0,0,1,3.72,0,4,4,0,0,1,1.44,1,4.64,4.64,0,0,1,.93,1.63,6.7,6.7,0,0,1,.33,2.18,6,6,0,0,1-.86,3.35A4,4,0,0,1,39,83.94a1.86,1.86,0,0,0,1,.73,3.8,3.8,0,0,0,1.25.21,3.28,3.28,0,0,0,.61-0.05,3.38,3.38,0,0,0,.5-0.13Zm-7.34-7.5a4.47,4.47,0,0,0,.6,2.52,1.94,1.94,0,0,0,3.27,0,4.48,4.48,0,0,0,.6-2.52,4,4,0,0,0-.6-2.36,2,2,0,0,0-3.27,0,4.06,4.06,0,0,0-.59,2.36h0Zm7.83-5h2.28v5.63a3.53,3.53,0,0,0,.45,2.07,1.53,1.53,0,0,0,1.3.59,1.57,1.57,0,0,0,1.31-.59A3.45,3.45,0,0,0,49,79.51V73.88h2.19v5.4a5.55,5.55,0,0,1-1,3.69,3.69,3.69,0,0,1-3,1.15,3.82,3.82,0,0,1-3-1.15,5.43,5.43,0,0,1-1-3.69v-5.4h0Zm14,7.67H54.16l-0.62,2.39H51.22l3.15-10.06H57.1l3.15,10.06H57.84Zm-0.46-1.77-0.23-.93q-0.22-.76-0.42-1.6t-0.4-1.64H55.65l-0.38,1.64q-0.19.84-.41,1.6l-0.25.93h2.14Zm4.91,0.58-3-6.48h2.44L62,76.19l0.41,1.1,0.41,1.11h0.06q0.22-.59.42-1.12l0.42-1.1,0.91-2.32H67l-3,6.49v3.58H61.67V80.36h0Z"/><path class="cls-2" d="M65.38,13.31l11.82,25-11.82,25H55.32l11.82-25-11.82-25H65.38Z"/><path class="cls-1" d="M55.32,63.31l-11.82-25,11.82-25H65.38l-11.82,25,11.82,25H55.32Z"/><path class="cls-2" d="M50,24.56L44.68,13.31H34.62L45,35.2ZM45,41.42L34.62,63.31H44.68L50,52.06,45,41.42h0Z"/><path class="cls-1" d="M34.62,63.31l-11.82-25,11.82-25H44.68l-11.82,25,11.82,25H34.62Z"/></svg>