<?xml version="1.0" encoding="utf-8"?>
<!-- Generator: Adobe Illustrator 18.1.1, SVG Export Plug-In . SVG Version: 6.00 Build 0)  -->
<svg version="1.1" id="Layer_1" xmlns="http://www.w3.org/2000/svg" xmlns:xlink="http://www.w3.org/1999/xlink" x="0px" y="0px"
	 viewBox="103.7 26 100 83.2" enable-background="new 103.7 26 100 83.2" xml:space="preserve">
<path fill="#3D8ECB" d="M148.5,26.9c4.3-2.3,9.5,0.5,11.7,4.4c1.5,2.4,2,5.3,2.5,8c-1.3,0-2.5,0.1-3.8,0.1c-0.6-2.9-1.3-6.2-3.8-8
	c-2-1.7-5.3-1.5-7.1,0.5c-2.2,1.9-2.7,4.9-3.2,7.6c-1.3,0-2.6-0.1-3.8-0.1C141.7,34.4,143.6,29,148.5,26.9z"/>
<path fill="#3D8ECB" d="M135.4,41.6c1.1-0.6,2.7-0.3,3.9-0.3c0.1,9.2,0.1,18.4,0,27.6c-1.3,0-2.6,0-3.9-0.2
	c-0.4-5.5-0.1-11-0.1-16.4C135.3,48.7,135,45.1,135.4,41.6z"/>
<path fill="#3D8ECB" d="M141.3,41.3c1.3,0,2.6,0,3.9,0c0.3,9.2,0.3,18.5-0.1,27.7c-1.3-0.1-2.6-0.1-3.9-0.2
	C141.3,59.5,141.2,50.4,141.3,41.3z"/>
<path fill="#3D8ECB" d="M147.1,41.3c1.3-0.1,2.5-0.1,3.7-0.2c0.1,2.7-0.1,8.3-0.1,8.3l-3.7-0.1C147,49.2,146.7,44,147.1,41.3z"/>
<path fill="#3D8ECB" d="M152.9,41.3c1.3-0.1,2.7-0.1,4.1-0.1c0.1,2.8-0.1,8.5-0.1,8.5l-4-0.4C152.9,49.2,152.9,44,152.9,41.3z"/>
<path fill="#3D8ECB" d="M158.7,41.3c1.3-0.1,2.5-0.1,3.8-0.1c0,9.2-0.1,27.6-0.1,27.6l-4.1-0.1c0,0,0-15.2-0.1-22.8
	C158.4,44.4,158.3,42.8,158.7,41.3z"/>
<path fill="#3D8ECB" d="M164.7,41.3l3.9-0.1v27.6l-3.8-0.1l-0.2-17.1L164.7,41.3z"/>
<path fill="#3D8ECB" d="M124.8,84.2c-0.1-3.8-0.8-8.7-4.6-10.6c-3.6-1.3-7.6-1.2-11.2-0.2c-3,1-4.5,4.3-4.8,7.2
	c-0.6,4.4-0.7,9,0.5,13.3c0.7,2.9,3.3,5,6.2,5.2c3.6,0.3,7.9,0.6,10.9-1.8C125.2,93.9,124.8,88.6,124.8,84.2z M119.8,89
	c-0.1,2.2-0.8,5.1-3.4,5.6c-2.4,0.3-6.1,0.6-7-2.3c-1-3.7-0.8-7.6-0.2-11.3c0.3-1.5,1.1-3,2.6-3.4c2.3-0.3,5.5-0.8,7,1.5
	C120.1,82.2,119.8,85.7,119.8,89z"/>
<path fill="#3D8ECB" d="M127.5,80.2c1.7,0,3.4,0,5,0c0.2,4.8-0.5,9.7,0.3,14.4c1.7,1.9,4.5,0.2,6.4-0.6c0-4.6,0-9.2,0-13.8
	c1.7,0,3.4,0,5,0c0,6.3,0,12.7,0,19c-1.3,0-2.7,0-4.1,0c-0.3-0.6,0.3-2.5-0.8-2c-1.2,0.6-5,2.9-7.8,2.1c-2.4-0.5-3.8-2.9-3.9-5.2
	C127.3,89.5,127.5,84.8,127.5,80.2z"/>
<path fill="#3D8ECB" d="M164.7,80.2c1.7,0,3.6,0,5.3,0c1,3.9,2,7.9,2.9,11.8c0.2,1.3,1.1,2.4,2,3.4c1.5-5,2.7-10.1,4.1-15.2
	c1.7,0,3.5,0,5.2,0c-2,7.7-4.1,15.5-6.1,23.1c-0.6,2.2-2,4-3.2,5.9c-1.2,0-2.4-0.1-3.6-0.1c0.9-3.2,1.7-6.4,2.7-9.6
	c-2.2-0.7-4.6-1.7-5.2-4.1C167.3,90.4,166.2,85.3,164.7,80.2z"/>
<path fill="#3D8ECB" d="M150.6,51.1l3.3,0l0.6,8.1l-5.1,0.1L150.6,51.1z"/>
<path fill="#C0C2C4" d="M189.7,85.3c1,0,2,0.1,2.9,0.1c0,0.6,0,2,0,2.6c-1,0-2,0-2.9,0C189.7,87.4,189.7,86,189.7,85.3z"/>
<path fill="#BDBFC1" d="M189.8,89.1c0.9,0,1.8,0,2.7,0c0,3.4,0,6.7,0,10.1c-0.9,0-1.8,0-2.7,0C189.8,95.9,189.8,92.5,189.8,89.1z"/>
<path fill="#3D8ECB" d="M163.1,85c0-2.1-1.3-4.2-3.4-4.8c-4-1.1-8.2-0.3-12.2,0.6c0,1-0.1,2.2-0.1,3.2c3.1-0.1,6.2-0.6,9.3-0.2
	c1.5,0.2,1,2.3,1.5,3.4c-3.4,0.3-7.8-1-10.4,1.8c-1.9,3.1-1.7,8.4,2.1,9.9c2.9,1.3,7.1-1,8.3-1.6c1.2-0.6,0.6,1.2,0.8,1.8
	c1.4,0,2.7,0,4.1,0C163.1,94.5,163.4,89.7,163.1,85z M158.1,94.1c-2,0.8-4.1,1.3-6.2,1c0-0.6,0-1.3,0.1-2.1c0.2-0.8,0.4-1.3,0.6-1.7
	c0.7-0.3,1.6-0.6,2.7-0.8s2-0.3,2.8-0.2C158.1,91.6,158.1,92.9,158.1,94.1z"/>
<path fill="#C0C2C4" d="M203.4,91.9c-0.9-3.1-5-3.6-7.6-2.3c-2.3,1.3-1.9,4.4-1.6,6.6c0.3,3.2,4.3,3.7,6.9,2.9
	C204,98.1,204,94.3,203.4,91.9z M200.5,96.7c-0.1,0.1-0.8,0.7-1.7,0.6c-1.2-0.1-1.7-1-1.8-1.1c-0.1-0.6-0.3-1.5-0.2-2.7
	c0.1-0.9,0.3-1.6,0.6-2.1c0.2-0.1,2-0.8,2.8,0c0.1,0.1,0.3,0.3,0.4,0.6c0.2,0.5,0.5,1.3,0.5,2.4S200.7,96.3,200.5,96.7z"/>
<path fill="#3D8ECB" d="M146.9,60.5c1.3,0,2.6,0,3.9,0c0.1,2.8,0.1,5.6,0,8.4c-1.3,0-2.5,0-3.8-0.2C146.6,66,146.8,63.2,146.9,60.5z
	"/>
<path fill="#3D8ECB" d="M152.9,60.5l4-0.1v8.4l-4-0.1V60.5z"/>
<path fill="#C2C4C6" d="M185.1,96.7c0.9,0,1.7,0,2.7,0c0,0.7,0.1,2,0.1,2.7c-0.9-0.1-1.8-0.1-2.7-0.1
	C185.1,98.5,185.1,97.3,185.1,96.7z"/>
<path fill="#3D8ECB" d="M112.4,100.5c0.9,0,1.9,0,2.8,0c1.8,1.3,4.1,1.3,6.2,1.1c0,1.3,0,2.7,0,4.1c-2.2-0.1-4.5,0.1-6.4-1.1
	C113.7,103.6,113.1,101.9,112.4,100.5z"/>
<path fill="#FFFFFF" d="M159.3,97.4"/>
<path fill="#FFFFFF" d="M158.8,97.3"/>
<path fill="#FFFFFF" d="M151.3,92.9"/>
</svg>
