<?xml version="1.0" encoding="utf-8"?>
<!-- Generator: Adobe Illustrator 18.1.1, SVG Export Plug-In . SVG Version: 6.00 Build 0)  -->
<svg version="1.1" id="Layer_1" xmlns="http://www.w3.org/2000/svg" xmlns:xlink="http://www.w3.org/1999/xlink" x="0px" y="0px"
	 viewBox="0 0 100 89.4" enable-background="new 0 0 100 89.4" xml:space="preserve">
<path fill="#3D8ECB" d="M44.8,0.4c4.3-2.3,9.5,0.5,11.7,4.4c1.5,2.4,2,5.3,2.5,8c-1.3,0-2.5,0.1-3.8,0.1c-0.6-2.9-1.3-6.2-3.8-8
	c-2-1.7-5.3-1.5-7.1,0.5c-2.2,1.9-2.7,4.9-3.2,7.6c-1.3,0-2.6-0.1-3.8-0.1C38,7.9,39.9,2.5,44.8,0.4z"/>
<path fill="#3D8ECB" d="M31.7,15.1c1.1-0.6,2.7-0.3,3.9-0.3c0.1,9.2,0.1,18.4,0,27.6c-1.3,0-2.6,0-3.9-0.2c-0.4-5.5-0.1-11-0.1-16.4
	C31.6,22.2,31.3,18.6,31.7,15.1z"/>
<path fill="#3D8ECB" d="M37.6,14.8c1.3,0,2.6,0,3.9,0c0.3,9.2,0.3,18.5-0.1,27.7c-1.3-0.1-2.6-0.1-3.9-0.2
	C37.6,33,37.5,23.9,37.6,14.8z"/>
<path fill="#3D8ECB" d="M43.4,14.8c1.3-0.1,2.5-0.1,3.7-0.2c0.1,2.7-0.1,8.3-0.1,8.3l-3.7-0.1C43.3,22.7,43,17.5,43.4,14.8z"/>
<path fill="#3D8ECB" d="M49.2,14.8c1.3-0.1,2.7-0.1,4.1-0.1c0.1,2.8-0.1,8.5-0.1,8.5l-4-0.4C49.2,22.7,49.2,17.5,49.2,14.8z"/>
<path fill="#3D8ECB" d="M55,14.8c1.3-0.1,2.5-0.1,3.8-0.1c0,9.2-0.1,27.6-0.1,27.6l-4.1-0.1c0,0,0-15.2-0.1-22.8
	C54.7,17.9,54.6,16.3,55,14.8z"/>
<path fill="#3D8ECB" d="M61,14.8l3.9-0.1v27.6l-3.8-0.1l-0.2-17.1L61,14.8z"/>
<path fill="#3D8ECB" d="M21.1,64.4c-0.1-3.8-0.8-8.7-4.6-10.6c-3.6-1.3-7.6-1.2-11.2-0.2c-3,1-4.5,4.3-4.8,7.2
	c-0.6,4.4-0.7,9,0.5,13.3c0.7,2.9,3.3,5,6.2,5.2c3.6,0.3,7.9,0.6,10.9-1.8C21.5,74.1,21.1,68.8,21.1,64.4z M16.1,69.2
	c-0.1,2.2-0.8,5.1-3.4,5.6c-2.4,0.3-6.1,0.6-7-2.3c-1-3.7-0.8-7.6-0.2-11.3c0.3-1.5,1.1-3,2.6-3.4c2.3-0.3,5.5-0.8,7,1.5
	C16.4,62.4,16.1,65.9,16.1,69.2z"/>
<path fill="#3D8ECB" d="M23.8,60.4c1.7,0,3.4,0,5,0c0.2,4.8-0.5,9.7,0.3,14.4c1.7,1.9,4.5,0.2,6.4-0.6c0-4.6,0-9.2,0-13.8
	c1.7,0,3.4,0,5,0c0,6.3,0,12.7,0,19c-1.3,0-2.7,0-4.1,0c-0.3-0.6,0.3-2.5-0.8-2c-1.2,0.6-5,2.9-7.8,2.1c-2.4-0.5-3.8-2.9-3.9-5.2
	C23.6,69.7,23.8,65,23.8,60.4z"/>
<path fill="#3D8ECB" d="M61,60.4c1.7,0,3.6,0,5.3,0c1,3.9,2,7.9,2.9,11.8c0.2,1.3,1.1,2.4,2,3.4c1.5-5,2.7-10.1,4.1-15.2
	c1.7,0,3.5,0,5.2,0c-2,7.7-4.1,15.5-6.1,23.1c-0.6,2.2-2,4-3.2,5.9c-1.2,0-2.4-0.1-3.6-0.1c0.9-3.2,1.7-6.4,2.7-9.6
	c-2.2-0.7-4.6-1.7-5.2-4.1C63.6,70.6,62.5,65.5,61,60.4z"/>
<path fill="#3D8ECB" d="M46.9,24.6h3.3l0.6,8.1l-5.1,0.1L46.9,24.6z"/>
<path fill="#C0C2C4" d="M86,65.5c1,0,2,0.1,2.9,0.1c0,0.6,0,2,0,2.6c-1,0-2,0-2.9,0C86,67.6,86,66.2,86,65.5z"/>
<path fill="#BDBFC1" d="M86.1,69.3c0.9,0,1.8,0,2.7,0c0,3.4,0,6.7,0,10.1c-0.9,0-1.8,0-2.7,0C86.1,76.1,86.1,72.7,86.1,69.3z"/>
<path fill="#3D8ECB" d="M59.4,65.2c0-2.1-1.3-4.2-3.4-4.8c-4-1.1-8.2-0.3-12.2,0.6c0,1-0.1,2.2-0.1,3.2c3.1-0.1,6.2-0.6,9.3-0.2
	c1.5,0.2,1,2.3,1.5,3.4c-3.4,0.3-7.8-1-10.4,1.8c-1.9,3.1-1.7,8.4,2.1,9.9c2.9,1.3,7.1-1,8.3-1.6s0.6,1.2,0.8,1.8c1.4,0,2.7,0,4.1,0
	C59.4,74.7,59.7,69.9,59.4,65.2z M54.4,74.3c-2,0.8-4.1,1.3-6.2,1c0-0.6,0-1.3,0.1-2.1c0.2-0.8,0.4-1.3,0.6-1.7
	c0.7-0.3,1.6-0.6,2.7-0.8s2-0.3,2.8-0.2C54.4,71.8,54.4,73.1,54.4,74.3z"/>
<path fill="#C0C2C4" d="M99.7,72.1c-0.9-3.1-5-3.6-7.6-2.3c-2.3,1.3-1.9,4.4-1.6,6.6c0.3,3.2,4.3,3.7,6.9,2.9
	C100.3,78.3,100.3,74.5,99.7,72.1z M96.8,76.9c-0.1,0.1-0.8,0.7-1.7,0.6c-1.2-0.1-1.7-1-1.8-1.1c-0.1-0.6-0.3-1.5-0.2-2.7
	c0.1-0.9,0.3-1.6,0.6-2.1c0.2-0.1,2-0.8,2.8,0c0.1,0.1,0.3,0.3,0.4,0.6c0.2,0.5,0.5,1.3,0.5,2.4S97,76.5,96.8,76.9z"/>
<path fill="#3D8ECB" d="M43.2,34c1.3,0,2.6,0,3.9,0c0.1,2.8,0.1,5.6,0,8.4c-1.3,0-2.5,0-3.8-0.2C42.9,39.5,43.1,36.7,43.2,34z"/>
<path fill="#3D8ECB" d="M49.2,34l4-0.1v8.4l-4-0.1V34z"/>
<path fill="#C2C4C6" d="M81.4,76.9c0.9,0,1.7,0,2.7,0c0,0.7,0.1,2,0.1,2.7c-0.9-0.1-1.8-0.1-2.7-0.1C81.4,78.7,81.4,77.5,81.4,76.9z
	"/>
<path fill="#3D8ECB" d="M8.7,80.7c0.9,0,1.9,0,2.8,0c1.8,1.3,4.1,1.3,6.2,1.1c0,1.3,0,2.7,0,4.1c-2.2-0.1-4.5,0.1-6.4-1.1
	C10,83.8,9.4,82.1,8.7,80.7z"/>
<path fill="#FFFFFF" d="M55.6,77.6"/>
<path fill="#FFFFFF" d="M55.1,77.5"/>
<path fill="#FFFFFF" d="M47.6,73.1"/>
</svg>
