<?xml version="1.0" encoding="utf-8"?>
<!-- Generator: Adobe Illustrator 19.2.1, SVG Export Plug-In . SVG Version: 6.00 Build 0)  -->
<svg version="1.1" id="Layer_1" xmlns="http://www.w3.org/2000/svg" xmlns:xlink="http://www.w3.org/1999/xlink" x="0px" y="0px"
	 viewBox="0 0 100 89.4" style="enable-background:new 0 0 100 89.4;" xml:space="preserve">
<style type="text/css">
	.st0{fill:#3D8ECB;}
</style>
<g>
	<path class="st0" d="M43.3,3.8c8.5-4.6,18.9,1,23.2,8.7c3,4.8,4,10.5,5,15.9c-2.6,0-5,0.2-7.5,0.2c-1.2-5.8-2.6-12.3-7.5-15.9
		c-4-3.4-10.5-3-14.1,1c-4.4,3.8-5.4,9.7-6.4,15.1c-2.6,0-5.2-0.2-7.5-0.2C29.8,18.6,33.5,7.9,43.3,3.8z"/>
	<path class="st0" d="M17.3,32.9c2.2-1.2,5.4-0.6,7.7-0.6c0.2,18.3,0.2,36.5,0,54.8c-2.6,0-5.2,0-7.7-0.4
		c-0.8-10.9-0.2-21.8-0.2-32.5C17.1,47,16.5,39.9,17.3,32.9z"/>
	<path class="st0" d="M29,32.3c2.6,0,5.2,0,7.7,0c0.6,18.3,0.6,36.7-0.2,55c-2.6-0.2-5.2-0.2-7.7-0.4C29,68.4,28.8,50.4,29,32.3z"/>
	<path class="st0" d="M40.5,32.3c2.6-0.2,5-0.2,7.3-0.4c0.2,5.4-0.2,16.5-0.2,16.5l-7.3-0.2C40.3,48,39.7,37.7,40.5,32.3z"/>
	<path class="st0" d="M52,32.3c2.6-0.2,5.4-0.2,8.1-0.2c0.2,5.6-0.2,16.9-0.2,16.9L52,48.2C52,48,52,37.7,52,32.3z"/>
	<path class="st0" d="M63.5,32.3c2.6-0.2,5-0.2,7.5-0.2c0,18.3-0.2,54.8-0.2,54.8l-8.1-0.2c0,0,0-30.2-0.2-45.2
		C62.9,38.5,62.7,35.3,63.5,32.3z"/>
	<path class="st0" d="M75.4,32.3l7.7-0.2v54.8l-7.5-0.2l-0.4-33.9L75.4,32.3z"/>
	<path class="st0" d="M47.4,51.8H54l1.2,16.1L45,68L47.4,51.8z"/>
	<path class="st0" d="M40.1,70.4c2.6,0,5.2,0,7.7,0c0.2,5.6,0.2,11.1,0,16.7c-2.6,0-5,0-7.5-0.4C39.5,81.3,39.9,75.8,40.1,70.4z"/>
	<path class="st0" d="M52,70.4l7.9-0.2v16.7L52,86.7V70.4z"/>
</g>
</svg>
