<?xml version="1.0" encoding="utf-8"?>
<!-- Generator: Adobe Illustrator 18.1.1, SVG Export Plug-In . SVG Version: 6.00 Build 0)  -->
<svg version="1.1" id="Layer_1" xmlns="http://www.w3.org/2000/svg" xmlns:xlink="http://www.w3.org/1999/xlink" x="0px" y="0px"
	 viewBox="0 0 100 100" enable-background="new 0 0 100 100" xml:space="preserve">
<g>
	<path fill="#231F20" d="M49.8,79.4c1.2,0,2.1,0.3,2.5,0.5c0,0,0,0,0,0l-0.4,2.2c0,0,0,0,0,0c0,0,0,0,0,0c-0.5-0.3-1.3-0.6-2.3-0.6
		c-0.8,0-1.3,0.3-1.3,0.9c0,0.4,0.4,0.7,1.2,1.1c1.1,0.5,2.2,1.3,2.2,2.7c0,0.9-0.3,1.7-0.9,2.3c-0.8,0.8-2.1,1.2-3.7,1.2
		c-1.2,0-2.4-0.3-3-0.8c0,0,0,0,0,0l0.4-2.2c0,0,0,0,0,0c0,0,0,0,0,0c0.7,0.4,1.9,0.9,2.9,0.9c0.7,0,1.2-0.3,1.2-0.9
		c0-0.5-0.3-0.8-1.2-1.3c-1.4-0.7-2.1-1.6-2.1-2.6C45.4,80.8,47.1,79.4,49.8,79.4z"/>
	<path fill="#231F20" d="M17.5,79.4c0.2,0,0.4,0,0.5,0c0,0,0,0,0,0c0,0,0,0,0,0l-0.6,2.9c0,0,0,0,0,0c0,0,0,0,0,0
		c-0.1,0-0.3,0-0.5,0c-2,0-2.8,2-3.1,3.6l-0.7,3.8c0,0,0,0,0,0h-2.9c0,0,0,0,0,0c0,0,0,0,0,0l1.9-10c0,0,0,0,0,0l2.6,0c0,0,0,0,0,0
		c0,0,0,0,0,0l-0.3,1.7c0,0,0,0,0,0c0,0,0,0,0,0C15.3,80.1,16.3,79.4,17.5,79.4z"/>
	<path fill="#231F20" d="M21.4,82.2C20.6,83,20,84.5,20,85.7c0,1,0.4,1.7,1.1,1.7c1.1,0,2-1.1,2.3-2.8c0.1-0.4,0.1-0.7,0.2-1.1
		c0.1-0.3,0.1-0.6,0.1-0.8c0-0.7-0.4-1.1-1.1-1.1C22.2,81.6,21.8,81.9,21.4,82.2z M22.5,89.6C22.5,89.6,22.5,89.6,22.5,89.6l0.2-1.3
		c0,0,0,0,0,0c0,0,0,0,0,0c-0.5,0.9-1.6,1.5-2.8,1.5c-2,0-2.9-1.7-2.9-3.5c0-2,0.8-3.9,2.1-5.2c1.1-1.1,2.5-1.7,4.1-1.7
		c1.2,0,2.1,0.4,2.6,1c0.8,1,0.8,2.5,0.6,3.6l-1.1,5.6c0,0,0,0,0,0L22.5,89.6C22.5,89.6,22.5,89.6,22.5,89.6z"/>
	<path fill="#231F20" d="M56.7,87.6c1.6,0,2.7-2.2,2.7-4.1c0-0.5-0.1-1.6-1.2-1.6c-1.1,0-2,1.3-2.4,3.2
		C55.7,85.6,55.3,87.6,56.7,87.6z M59.2,79.4c2,0,3.2,1.5,3.2,3.8c0,2.4-1.2,4.9-3.3,6c-1.9,1-3.6,0.6-4.2-0.2c0,0,0,0,0,0l-0.7,3.8
		c0,0,0,0,0,0h-2.9c0,0,0,0,0,0c0,0,0,0,0,0l2.5-13.2c0,0,0,0,0,0l2.6,0c0,0,0,0,0,0c0,0,0,0,0,0l-0.3,1.3c0,0,0,0,0,0c0,0,0,0,0,0
		l0,0C57,79.9,58.1,79.4,59.2,79.4z"/>
	<path fill="#231F20" d="M37.3,76.1h2.9c0,0,0,0,0,0c0,0,0,0,0,0l-1.5,8c0,0,0,0,0,0c0,0,0,0,0,0l3.9-4.5c0,0,0,0,0,0h3.2
		c0,0,0,0,0,0c0,0,0,0,0,0c0,0,0,0,0,0l-4,4.6l2.5,5.4c0,0,0,0,0,0c0,0,0,0,0,0c0,0,0,0,0,0h-3.1c0,0,0,0,0,0l-2.4-5.3c0,0,0,0,0,0
		c0,0,0,0,0,0l-1,5.3c0,0,0,0,0,0h-2.9c0,0,0,0,0,0c0,0,0,0,0,0L37.3,76.1C37.3,76.1,37.3,76.1,37.3,76.1z"/>
	<path fill="#231F20" d="M87,82.4c0-0.5-0.4-0.8-1.1-0.8c-1.3,0-2.1,1-2.3,2l0,0c0,0,0,0,0,0c0,0,0,0,0,0h0c1.7,0,2.7-0.2,3.1-0.6
		C86.9,82.8,87,82.6,87,82.4z M86.3,79.4c2.1,0,3.5,1.2,3.5,3c0,0.8-0.3,1.5-0.8,2c-1,0.9-2.8,1.4-5.6,1.3l0,0c0,0,0,0,0,0
		c0,0,0,0,0,0l0,0c0,0.3,0.1,0.7,0.3,1c0.4,0.5,1.1,0.7,1.9,0.7c1.2,0,2.3-0.3,3.4-1c0,0,0,0,0,0c0,0,0,0,0,0L88.5,89c0,0,0,0,0,0
		c-1.4,0.7-3.1,0.8-3.7,0.8c-2.7,0-4.3-1.5-4.3-4.2c0-1.5,0.6-3.1,1.6-4.2C83.1,80.1,84.6,79.4,86.3,79.4z"/>
	<path fill="#231F20" d="M67,82.2c-0.8,0.8-1.4,2.3-1.4,3.5c0,1,0.4,1.7,1.1,1.7c1.1,0,2-1.1,2.3-2.8c0.1-0.4,0.1-0.7,0.2-1.1
		c0.1-0.3,0.1-0.6,0.1-0.8c0-0.7-0.4-1.1-1.1-1.1C67.8,81.6,67.4,81.9,67,82.2z M68.1,89.6C68.1,89.6,68.1,89.6,68.1,89.6l0.2-1.3
		c0,0,0,0,0,0c0,0,0,0,0,0c-0.5,0.9-1.6,1.5-2.8,1.5c-2,0-2.9-1.7-2.9-3.5c0-2,0.8-3.9,2.1-5.2c1.1-1.1,2.5-1.7,4.1-1.7
		c1.2,0,2.1,0.4,2.6,1c0.8,1,0.8,2.5,0.5,3.6l-1.1,5.6c0,0,0,0,0,0L68.1,89.6C68.1,89.6,68.1,89.6,68.1,89.6z"/>
	<path fill="#231F20" d="M79,79.4c0.7,0,1.5,0.1,2,0.3c0,0,0,0,0,0l-0.5,2.4c0,0,0,0,0,0c0,0,0,0,0,0c-0.5-0.3-1-0.4-1.6-0.4
		c-2.1,0-3.4,1.8-3.4,3.6c0,1.5,1,2,1.9,2c0.8,0,1.5-0.2,2.4-0.6c0,0,0,0,0,0c0,0,0,0,0,0l-0.5,2.4c0,0,0,0,0,0
		c-0.7,0.3-1.7,0.5-2.8,0.5c-2.6,0-4.2-1.6-4.2-4.1C72.5,82.1,75.3,79.4,79,79.4z"/>
	<path fill="#231F20" d="M33.4,79.4c0.7,0,1.5,0.1,2,0.3c0,0,0,0,0,0L35,82.2c0,0,0,0,0,0c0,0,0,0,0,0c-0.5-0.3-1-0.4-1.6-0.4
		c-2.1,0-3.4,1.8-3.4,3.6c0,1.5,1,2,1.9,2c0.8,0,1.5-0.2,2.4-0.6c0,0,0,0,0,0c0,0,0,0,0,0l-0.5,2.4c0,0,0,0,0,0
		c-0.7,0.3-1.7,0.5-2.8,0.5c-2.6,0-4.2-1.6-4.2-4.1C26.9,82.1,29.7,79.4,33.4,79.4z"/>
</g>
<g>
	<path fill-rule="evenodd" clip-rule="evenodd" fill="#E11A2C" d="M53.5,22.4c-1.2,2.5-0.7,4.5,1.1,4.6c1.8,0,4.2-2,5.3-4.5
		c1.2-2.5,0.7-4.5-1.1-4.6C57.1,17.9,54.7,19.9,53.5,22.4z M67.9,13.4C67.9,13.4,67.9,13.4,67.9,13.4C67.9,13.4,67.9,13.4,67.9,13.4
		c-1,3-2.8,6.4-4.5,9c-3.7,5.4-8.9,8.9-11.7,7.6c-2.8-1.2-2.1-6.6,1.5-12c0.8-1.2,1.7-2.3,2.7-3.3c0,0,0,0,0,0c0,0,0,0,0,0
		c0,0,0,0,0,0c-1.1,0.2-2.3,0.4-3.5,0.7c0,0,0,0,0,0C39.9,30.5,34.7,50.2,35.4,67.7l0,0c0,0,0,0,0,0c0,0,0,0,0,0
		c-7.3-2.9-12.6-10-13.2-18.9l0-0.1c-0.9-15.8,11.7-32.1,28.2-36.3C56.8,10.9,62.8,11.3,67.9,13.4z"/>
	<path fill="#231F20" d="M63.2,56.1c-1.2,0.8-2.5,1.6-3.7,2.3c0,0,0,0,0,0c0,0,0,0,0,0c-0.2-3.8-1.1-7.5-2.5-10.6
		c-3.8-8.2-10.4-8.8-14.7-1.4c-2.7,4.5-3.9,11-3.6,17.3c0,0,0,0,0,0c4.6,1.5,10,1.6,15.7,0.2c16.5-4.2,29.1-20.4,28.2-36.2
		C81.7,13.8,70.7,4.8,56.9,5.6c0,0,0,0,0,0c-1.3,1.4-2.6,2.7-3.8,4.1c0,0,0,0,0,0c0,0,0,0,0,0c0,0,0,0,0,0c8.1-1,14.6,0.6,18.8,4
		c0,0,0,0,0,0c0,0,0,0,0,0C57.3,34.4,59.1,46.2,63.2,56.1C63.2,56.1,63.2,56.1,63.2,56.1C63.2,56.1,63.2,56.1,63.2,56.1z"/>
</g>
<g>
</g>
<g>
</g>
<g>
</g>
<g>
</g>
<g>
</g>
<g>
</g>
<g>
</g>
<g>
</g>
<g>
</g>
<g>
</g>
<g>
</g>
<g>
</g>
<g>
</g>
<g>
</g>
<g>
</g>
</svg>
