<svg id="Layer_1" data-name="Layer 1" xmlns="http://www.w3.org/2000/svg" viewBox="0 0 100 100"><defs><style>.cls-1{fill:#231f20;}.cls-2{fill:#e11a2c;}</style></defs><path class="cls-1" d="M49.86,76.2a4.08,4.08,0,0,1,2,.42h0l-0.28,1.69h0a3.73,3.73,0,0,0-1.76-.49c-0.63,0-1,.21-1,0.7a1.2,1.2,0,0,0,.91.84,2.42,2.42,0,0,1,1.69,2.11,2.23,2.23,0,0,1-.7,1.76,4,4,0,0,1-2.88.91,3.65,3.65,0,0,1-2.32-.63h0l0.28-1.69h0a5.64,5.64,0,0,0,2.25.7,0.74,0.74,0,0,0,.91-0.7c0-.42-0.21-0.63-0.91-1a2.37,2.37,0,0,1-1.62-2C46.42,77.26,47.75,76.2,49.86,76.2Z"/><path class="cls-1" d="M24.7,76.2h0.42l-0.49,2.25H24.21c-1.55,0-2.18,1.55-2.39,2.81l-0.56,3H19l1.48-7.8h2l-0.21,1.34h0A3,3,0,0,1,24.7,76.2Z"/><path class="cls-1" d="M27.72,78.38a4.2,4.2,0,0,0-1.12,2.74c0,0.77.28,1.34,0.84,1.34,0.84,0,1.55-.84,1.76-2.18,0.07-.28.07-0.56,0.14-0.84a2.17,2.17,0,0,0,.07-0.63A0.75,0.75,0,0,0,28.57,78,1.55,1.55,0,0,0,27.72,78.38Zm0.84,5.76h0l0.14-1h0a2.57,2.57,0,0,1-2.18,1.19c-1.55,0-2.25-1.34-2.25-2.74a6.05,6.05,0,0,1,1.62-4.08,4.47,4.47,0,0,1,3.16-1.34,2.59,2.59,0,0,1,2,.77,3.65,3.65,0,0,1,.49,2.81l-0.84,4.36H28.57Z"/><path class="cls-1" d="M55.2,82.6c1.26,0,2.11-1.69,2.11-3.16a1,1,0,0,0-.91-1.26c-0.84,0-1.55,1-1.9,2.46C54.43,81.05,54.15,82.6,55.2,82.6Zm2-6.39c1.55,0,2.46,1.19,2.46,3A5.12,5.12,0,0,1,57,83.79c-1.48.77-2.81,0.49-3.3-.14h0l-0.56,3H50.91l2-10.26h2l-0.21,1h0A3.45,3.45,0,0,1,57.17,76.2Z"/><path class="cls-1" d="M40.09,73.6h2.25l-1.19,6.25h0l3-3.51h2.46l-3.09,3.58,2,4.22H43.11L41.22,80h0l-0.77,4.15H38.19l1.9-10.54h0Z"/><path class="cls-1" d="M78.81,78.52q0-.63-0.84-0.63a1.82,1.82,0,0,0-1.76,1.55h0c1.34,0,2.11-.14,2.39-0.49A0.5,0.5,0,0,0,78.81,78.52ZM78.25,76.2c1.62,0,2.74.91,2.74,2.32a2,2,0,0,1-.63,1.55c-0.77.7-2.18,1.12-4.36,1h0a1.6,1.6,0,0,0,.21.77,1.69,1.69,0,0,0,1.48.56,4.86,4.86,0,0,0,2.67-.77h0l-0.42,2h0a6.85,6.85,0,0,1-2.88.63A3.05,3.05,0,0,1,73.68,81a5.22,5.22,0,0,1,1.26-3.3A4.41,4.41,0,0,1,78.25,76.2Z"/><path class="cls-1" d="M63.21,78.38a4.2,4.2,0,0,0-1.12,2.74c0,0.77.28,1.34,0.84,1.34,0.84,0,1.55-.84,1.76-2.18,0.07-.28.07-0.56,0.14-0.84a2.17,2.17,0,0,0,.07-0.63A0.75,0.75,0,0,0,64.05,78,1.55,1.55,0,0,0,63.21,78.38Zm0.91,5.76h0l0.14-1h0a2.57,2.57,0,0,1-2.18,1.19c-1.55-.07-2.25-1.41-2.25-2.81a6.05,6.05,0,0,1,1.62-4.08,4.47,4.47,0,0,1,3.16-1.34,2.59,2.59,0,0,1,2,.77,3.35,3.35,0,0,1,.42,2.81l-0.91,4.43h-2Z"/><path class="cls-1" d="M72.56,76.2a4.83,4.83,0,0,1,1.55.21h0l-0.42,1.9h0A1.73,1.73,0,0,0,72.49,78a2.74,2.74,0,0,0-2.67,2.81,1.38,1.38,0,0,0,1.48,1.55,4,4,0,0,0,1.9-.49h0l-0.42,1.9h0a6.31,6.31,0,0,1-2.18.42A3,3,0,0,1,67.29,81,5.18,5.18,0,0,1,72.56,76.2Z"/><path class="cls-1" d="M37.07,76.2a4.83,4.83,0,0,1,1.55.21h0l-0.28,2h0a2.57,2.57,0,0,0-1.26-.28,2.74,2.74,0,0,0-2.67,2.81,1.38,1.38,0,0,0,1.48,1.55,4,4,0,0,0,1.9-.49h0l-0.42,1.9h0a6.31,6.31,0,0,1-2.18.42,3,3,0,0,1-3.3-3.16A5.09,5.09,0,0,1,37.07,76.2Z"/><path class="cls-2" d="M53.57,27.34c-1,2.09-.6,3.74.9,3.81s3.51-1.64,4.41-3.74,0.6-3.74-.9-3.81S54.54,25.32,53.57,27.34Zm11.88-7.4h0a34.94,34.94,0,0,1-3.74,7.47c-3.06,4.48-7.4,7.4-9.72,6.28s-1.72-5.46,1.27-9.94A25.92,25.92,0,0,1,55.51,21h0a25.33,25.33,0,0,0-2.91.6h0C42.29,34.07,38,50.36,38.55,64.86h0A17.69,17.69,0,0,1,27.64,49.24V49.16c-0.75-13.08,9.72-26.61,23.32-30A23,23,0,0,1,65.45,19.94Z"/><path class="cls-1" d="M61.57,55.29a33.66,33.66,0,0,1-3.06,1.87h0a23.49,23.49,0,0,0-2.09-8.74c-3.14-6.8-8.59-7.25-12.18-1.2C42,51,41,56.34,41.24,61.57h0a23.17,23.17,0,0,0,13,.15c13.68-3.51,24.07-16.89,23.32-30-0.75-11.51-9.87-19-21.3-18.31h0c-1,1.2-2.17,2.24-3.14,3.36h0c6.73-.82,12.11.52,15.55,3.29h0c-12,17.19-10.46,27-7.1,35.2h0Z"/></svg>