<?xml version="1.0" encoding="utf-8"?>
<!-- Generator: Adobe Illustrator 23.0.1, SVG Export Plug-In . SVG Version: 6.00 Build 0)  -->
<svg version="1.1" id="Layer_1" xmlns="http://www.w3.org/2000/svg" xmlns:xlink="http://www.w3.org/1999/xlink" x="0px" y="0px"
	 viewBox="0 0 100 100" style="enable-background:new 0 0 100 100;" xml:space="preserve">
<style type="text/css">
	.st0{fill:#E11A2C;}
	.st1{fill:#231F20;}
</style>
<g>
	<path class="st0" d="M51,38.2c-1,2.1-0.6,3.7,0.9,3.8s3.5-1.6,4.4-3.7c0.9-2.1,0.6-3.7-0.9-3.8S51.9,36.2,51,38.2z M62.8,30.8
		L62.8,30.8c-0.9,2.6-2.2,5.1-3.7,7.5c-3.1,4.5-7.4,7.4-9.7,6.3s-1.7-5.5,1.3-9.9c0.7-1,1.4-1.9,2.3-2.7l0,0c-1,0.1-2,0.3-2.9,0.6
		l0,0C39.7,45,35.4,61.2,35.9,75.7l0,0C29.6,73.1,25.3,67,25,60.1V60C24.3,47,34.8,33.4,48.4,30C53.1,28.7,58.2,29,62.8,30.8z"/>
	<path class="st1" d="M59,66.2c-1,0.7-2,1.3-3.1,1.9l0,0c-0.1-3-0.8-6-2.1-8.7c-3.1-6.8-8.6-7.2-12.2-1.2c-2.2,3.8-3.2,9.1-3,14.4
		l0,0c4.2,1.3,8.7,1.3,13,0.2c13.7-3.5,24.1-16.9,23.3-30c-0.8-11.5-9.9-19-21.3-18.3l0,0c-1,1.2-2.2,2.2-3.1,3.4l0,0
		c6.7-0.8,12.1,0.5,15.5,3.3l0,0C54.1,48.1,55.6,57.9,59,66.2L59,66.2L59,66.2z"/>
</g>
</svg>
