<?xml version="1.0" encoding="utf-8"?>
<!-- Generator: Adobe Illustrator 19.2.1, SVG Export Plug-In . SVG Version: 6.00 Build 0)  -->
<svg version="1.1" id="Layer_1" xmlns="http://www.w3.org/2000/svg" xmlns:xlink="http://www.w3.org/1999/xlink" x="0px" y="0px"
	 viewBox="0 0 100 100" style="enable-background:new 0 0 100 100;" xml:space="preserve">
<style type="text/css">
	.st0{fill:#231F20;}
	.st1{fill:#E11A2C;}
</style>
<g>
	<g>
		<path class="st0" d="M49.8,83.5c1.3,0,2.3,0.3,2.8,0.6l0,0l-0.4,2.4l0,0l0,0c-0.6-0.3-1.4-0.7-2.5-0.7c-0.9,0-1.4,0.3-1.4,1
			c0,0.4,0.4,0.8,1.3,1.2c1.2,0.6,2.4,1.4,2.4,3c0,1-0.3,1.9-1,2.5c-0.9,0.9-2.3,1.3-4.1,1.3c-1.3,0-2.7-0.3-3.3-0.9l0,0l0.4-2.4
			l0,0l0,0c0.8,0.4,2.1,1,3.2,1c0.8,0,1.3-0.3,1.3-1c0-0.6-0.3-0.9-1.3-1.4c-1.6-0.8-2.3-1.8-2.3-2.9C44.9,85,46.8,83.5,49.8,83.5z"
			/>
		<path class="st0" d="M14,83.5c0.2,0,0.4,0,0.6,0l0,0l0,0l-0.7,3.2l0,0l0,0c-0.1,0-0.3,0-0.6,0c-2.2,0-3.1,2.2-3.4,4l-0.8,4.2l0,0
			H5.9l0,0l0,0L8,83.8l0,0h2.9l0,0l0,0l-0.3,1.9l0,0l0,0C11.6,84.3,12.7,83.5,14,83.5z"/>
		<path class="st0" d="M18.3,86.6c-0.9,0.9-1.6,2.5-1.6,3.9c0,1.1,0.4,1.9,1.2,1.9c1.2,0,2.2-1.2,2.5-3.1c0.1-0.4,0.1-0.8,0.2-1.2
			c0.1-0.3,0.1-0.7,0.1-0.9c0-0.8-0.4-1.2-1.2-1.2C19.2,85.9,18.8,86.3,18.3,86.6z M19.5,94.8L19.5,94.8l0.2-1.4l0,0l0,0
			c-0.6,1-1.8,1.7-3.1,1.7c-2.2,0-3.2-1.9-3.2-3.9c0-2.2,0.9-4.3,2.3-5.8c1.2-1.2,2.8-1.9,4.5-1.9c1.3,0,2.3,0.4,2.9,1.1
			c0.9,1.1,0.9,2.8,0.7,4l-1.2,6.2l0,0H19.5L19.5,94.8z"/>
		<path class="st0" d="M57.4,92.6c1.8,0,3-2.4,3-4.5c0-0.6-0.1-1.8-1.3-1.8c-1.2,0-2.2,1.4-2.7,3.5C56.3,90.4,55.9,92.6,57.4,92.6z
			 M60.2,83.5c2.2,0,3.5,1.7,3.5,4.2c0,2.7-1.3,5.4-3.7,6.6c-2.1,1.1-4,0.7-4.7-0.2l0,0l-0.8,4.2l0,0h-3.2l0,0l0,0l2.8-14.6l0,0h2.9
			l0,0l0,0l-0.3,1.4l0,0l0,0l0,0C57.8,84,59,83.5,60.2,83.5z"/>
		<path class="st0" d="M35.9,79.8h3.2l0,0l0,0l-1.7,8.9l0,0l0,0l4.3-5l0,0h3.5l0,0l0,0l0,0l-4.4,5.1l2.8,6l0,0l0,0l0,0h-3.4l0,0
			l-2.7-5.9l0,0l0,0l-1.1,5.9l0,0h-3.2l0,0l0,0L35.9,79.8L35.9,79.8z"/>
		<path class="st0" d="M91,86.8c0-0.6-0.4-0.9-1.2-0.9c-1.4,0-2.3,1.1-2.5,2.2l0,0l0,0l0,0l0,0c1.9,0,3-0.2,3.4-0.7
			C90.9,87.3,91,87,91,86.8z M90.2,83.5c2.3,0,3.9,1.3,3.9,3.3c0,0.9-0.3,1.7-0.9,2.2c-1.1,1-3.1,1.6-6.2,1.4l0,0l0,0l0,0l0,0
			c0,0.3,0.1,0.8,0.3,1.1c0.4,0.6,1.2,0.8,2.1,0.8c1.3,0,2.5-0.3,3.8-1.1l0,0l0,0l-0.6,2.9l0,0c-1.6,0.8-3.4,0.9-4.1,0.9
			c-3,0-4.8-1.7-4.8-4.7c0-1.7,0.7-3.4,1.8-4.7C86.7,84.3,88.3,83.5,90.2,83.5z"/>
		<path class="st0" d="M68.8,86.6c-0.9,0.9-1.6,2.5-1.6,3.9c0,1.1,0.4,1.9,1.2,1.9c1.2,0,2.2-1.2,2.5-3.1c0.1-0.4,0.1-0.8,0.2-1.2
			c0.1-0.3,0.1-0.7,0.1-0.9c0-0.8-0.4-1.2-1.2-1.2C69.7,85.9,69.3,86.3,68.8,86.6z M70.1,94.8L70.1,94.8l0.2-1.4l0,0l0,0
			c-0.6,1-1.8,1.7-3.1,1.7C65,95,64,93.1,64,91.1c0-2.2,0.9-4.3,2.3-5.8c1.2-1.2,2.8-1.9,4.5-1.9c1.3,0,2.3,0.4,2.9,1.1
			c0.9,1.1,0.9,2.8,0.6,4L73,94.8l0,0H70.1L70.1,94.8z"/>
		<path class="st0" d="M82.1,83.5c0.8,0,1.7,0.1,2.2,0.3l0,0l-0.6,2.7l0,0l0,0C83.2,86.1,82.7,86,82,86c-2.3,0-3.8,2-3.8,4
			c0,1.7,1.1,2.2,2.1,2.2c0.9,0,1.7-0.2,2.7-0.7l0,0l0,0l-0.6,2.7l0,0c-0.8,0.3-1.9,0.6-3.1,0.6c-2.9,0-4.7-1.8-4.7-4.5
			C74.9,86.5,78,83.5,82.1,83.5z"/>
		<path class="st0" d="M31.6,83.5c0.8,0,1.7,0.1,2.2,0.3l0,0l-0.4,2.8l0,0l0,0c-0.6-0.3-1.1-0.4-1.8-0.4c-2.3,0-3.8,2-3.8,4
			c0,1.7,1.1,2.2,2.1,2.2c0.9,0,1.7-0.2,2.7-0.7l0,0l0,0l-0.6,2.7l0,0c-0.8,0.3-1.9,0.6-3.1,0.6c-2.9,0-4.7-1.8-4.7-4.5
			C24.4,86.5,27.5,83.5,31.6,83.5z"/>
	</g>
	<g>
		<path class="st1" d="M53.9,20.3c-1.3,2.8-0.8,5,1.2,5.1c2,0,4.7-2.2,5.9-5c1.3-2.8,0.8-5-1.2-5.1C57.9,15.3,55.2,17.6,53.9,20.3z
			 M69.8,10.4L69.8,10.4L69.8,10.4c-1.1,3.3-3.1,7.1-5,10c-4.1,6-9.9,9.9-13,8.4c-3.1-1.3-2.3-7.3,1.7-13.3c0.9-1.3,1.9-2.5,3-3.7
			l0,0l0,0l0,0c-1.2,0.2-2.5,0.4-3.9,0.8l0,0C38.8,29.3,33,51.1,33.8,70.5l0,0l0,0l0,0c-8.1-3.2-14-11.1-14.6-20.9v-0.1
			c-1-17.5,13-35.6,31.2-40.2C57.5,7.6,64.2,8,69.8,10.4z"/>
		<path class="st0" d="M64.6,57.7c-1.3,0.9-2.8,1.8-4.1,2.5l0,0l0,0c-0.2-4.2-1.2-8.3-2.8-11.7c-4.2-9.1-11.5-9.7-16.3-1.6
			c-3,5-4.3,12.2-4,19.2l0,0c5.1,1.7,11.1,1.8,17.4,0.2c18.3-4.7,32.2-22.6,31.2-40.1c-1-15.4-13.2-25.4-28.5-24.5l0,0
			c-1.4,1.6-2.9,3-4.2,4.5l0,0l0,0l0,0c9-1.1,16.2,0.7,20.8,4.4l0,0l0,0C58.1,33.6,60.1,46.7,64.6,57.7L64.6,57.7L64.6,57.7z"/>
	</g>
</g>
</svg>
