<svg id="Layer_1" data-name="Layer 1" xmlns="http://www.w3.org/2000/svg" viewBox="0 0 320.96 195.53"><defs><style>.cls-1{fill:#99a3a8;}.cls-2{fill:#3498db;}</style></defs><title>containercloud-DO</title><path class="cls-1" d="M-0.08,71.65H21.84c10.42,0,17.4,5.06,17.4,14.79,0,8-5.44,12.72-10.73,14.41a14.37,14.37,0,0,1,3.68,5.06c2.22,4.52,3.68,9.43,8.35,9.43a6.7,6.7,0,0,0,2.15-.38l-1.07,9.43a26.47,26.47,0,0,1-5.29.69c-6.28,0-9.89-2.45-13.64-10.88-1.61-3.76-3.76-10.42-6.67-10.42H13v21H-0.15V71.65h0.08ZM13.1,81.23v13h4.75c3.76,0,8.2-1.15,8.2-6.82,0-4.67-3-6.21-6.59-6.21H13.1Z"/><path class="cls-1" d="M57,71.65H70.35l17.93,53.11H75l-3.3-10H53.88l-3.22,10H39.16ZM57,105H68.44L64.83,93.8A56.6,56.6,0,0,1,63,84.68H62.69a61.42,61.42,0,0,1-2,9Z"/><path class="cls-1" d="M88.75,71.65h14.1L116.79,98c1.15,2.3,2.76,6.28,4,9.43h0.31c-0.15-3-.54-7.2-0.54-10.35V71.65h10.81v53.11H117.56L103.08,98.48a75.45,75.45,0,0,1-3.83-8.66H98.94c0.23,3,.61,6.51.61,9.43v25.52H88.75V71.65Z"/><path class="cls-1" d="M134.19,97.94c0-19.24,9.5-27.13,24.22-27.13,15.48,0,21.69,8.51,20,20l-12.26,1.07c1.3-8.43-2-11.8-8-11.8-5.75,0-10.42,4.22-10.42,17.93,0,14.48,5.06,18.16,10.81,18.16,5.44,0,9.81-3.37,8.89-10.35l11.5,1.15c0.84,10.81-6.9,18.7-21.08,18.7-14.41.08-23.68-8.43-23.68-27.74"/><polygon class="cls-1" points="181.63 71.65 194.81 71.65 194.81 91.73 210.91 91.73 210.91 71.65 224.09 71.65 224.09 124.84 210.91 124.84 210.91 102.31 194.81 102.31 194.81 124.84 181.63 124.84 181.63 71.65"/><polygon class="cls-1" points="229.38 71.65 264.55 71.65 264.55 81.46 242.48 81.46 242.48 92.88 260.95 92.88 260.95 102.61 242.48 102.61 242.48 115.03 265.32 115.03 265.32 124.84 229.38 124.84 229.38 71.65"/><path class="cls-1" d="M267.85,71.65h21.92c10.42,0,17.4,5.06,17.4,14.79,0,8-5.44,12.72-10.73,14.41a14.37,14.37,0,0,1,3.68,5.06c2.22,4.52,3.68,9.43,8.35,9.43a6.7,6.7,0,0,0,2.15-.38l-1.07,9.43a26.47,26.47,0,0,1-5.29.69c-6.28,0-9.89-2.45-13.64-10.88-1.61-3.76-3.76-10.42-6.67-10.42h-3v21H267.77V71.65h0.08ZM281,81.23v13h4.75c3.76,0,8.2-1.15,8.2-6.82,0-4.67-3-6.21-6.59-6.21H281Z"/><path class="cls-1" d="M312.22,75a4.29,4.29,0,1,1,4.29,4.22A4,4,0,0,1,312.22,75Zm7.59,0a3.06,3.06,0,0,0-3.22-3.37,3.11,3.11,0,0,0-3.3,3.37,3.15,3.15,0,0,0,3.3,3.37A3.06,3.06,0,0,0,319.81,75Zm-4.67-2.15h1.53a1.27,1.27,0,0,1,1.53,1.3,1.22,1.22,0,0,1-1,1.15l1,1.76h-0.92l-0.92-1.69H316v1.69h-0.84V72.88Zm1.61,1.92a0.63,0.63,0,0,0,.69-0.61,0.56,0.56,0,0,0-.69-0.54H316v1.15h0.77Z"/><path class="cls-1" d="M-0.15,149.31c0-8.79,6-14.33,14.84-14.33a16.21,16.21,0,0,1,9.5,2.59v5.65c-2.36-2-5.34-2.75-9-2.75-5.73,0-9.27,3.38-9.27,8.83s3.61,8.87,9.27,8.87c3.77,0,6.71-.82,9.3-2.91v5.65c-2.55,1.88-5.89,2.67-9.81,2.67C5.81,163.6-.15,158.1-0.15,149.31Z"/><path class="cls-1" d="M26.07,153.59c0-6,4.44-10,11.35-10s11.31,4,11.31,10-4.44,10-11.31,10S26.07,159.67,26.07,153.59Zm16.57,0c0-3.34-2-5.38-5.22-5.38s-5.26,2-5.26,5.38A5,5,0,0,0,37.42,159C40.64,159,42.64,156.81,42.64,153.59Z"/><path class="cls-1" d="M52.06,144.16h5.73v2.32a9,9,0,0,1,6.83-2.9c5.38,0,7.66,3.22,7.66,7.62V163H66.35V151.86c0-2.24-.94-3.65-3.38-3.65a5.74,5.74,0,0,0-5,2.87V163H52.06V144.16Z"/><path class="cls-1" d="M77.38,156.69v-8.24H74.63v-4.28h2.75v-5.65h5.93v5.65h4.44v4.28H83.31v7.46c0,2.16.67,3.1,2.87,3.1a5.37,5.37,0,0,0,2.47-.63v4.44a10.79,10.79,0,0,1-4.55.79C79.62,163.6,77.38,161,77.38,156.69Z"/><path class="cls-1" d="M90,157.08c0-4.2,2.87-6.63,8-6.63a12.84,12.84,0,0,1,5.93,1.33v-0.47c0-2.36-1.65-3.42-5.1-3.42a16.11,16.11,0,0,0-6.36,1.3v-4.32a20.22,20.22,0,0,1,7.26-1.3c7,0,10.13,3.14,10.13,8V163h-5.57v-1.73a8.73,8.73,0,0,1-6.44,2.32C93.32,163.6,90,161.2,90,157.08Zm13.9,0.51v-1.88a7.75,7.75,0,0,0-4.4-1.33c-2.2,0-3.42.9-3.42,2.71s1.18,2.59,3.34,2.59A5.29,5.29,0,0,0,103.92,157.59Z"/><path class="cls-1" d="M113.77,138.08a3.26,3.26,0,1,1,3.26,3.18A3.16,3.16,0,0,1,113.77,138.08Zm0.27,6.08h6V163h-6V144.16Z"/><path class="cls-1" d="M124.37,144.16h5.73v2.32a9,9,0,0,1,6.83-2.9c5.38,0,7.66,3.22,7.66,7.62V163h-5.93V151.86c0-2.24-.94-3.65-3.38-3.65a5.74,5.74,0,0,0-5,2.87V163h-5.93V144.16Z"/><path class="cls-1" d="M147.73,153.67c0-6.08,3.69-10.09,10.68-10.09s10.52,4.24,10.52,9.74v2.4H153.38c0.43,2.55,2.95,3.61,6.75,3.61a21.83,21.83,0,0,0,7.07-1.18v4.16a22.88,22.88,0,0,1-7.85,1.3C152.21,163.6,147.73,160,147.73,153.67Zm15.59-1.81c-0.16-2.51-2-4-5-4s-4.79,1.57-4.95,4h9.93Z"/><path class="cls-1" d="M172.23,144.16H178v2.71c1.53-1.88,4.44-2.83,7.81-2.83v4.52c-3.42,0-6.52,1-7.62,3.34V163h-5.93V144.16Z"/><path class="cls-1" d="M201.24,149.31c0-8.79,6-14.33,14.84-14.33a16.21,16.21,0,0,1,9.5,2.59v5.65c-2.36-2-5.34-2.75-9-2.75-5.73,0-9.27,3.38-9.27,8.83s3.61,8.87,9.27,8.87c3.77,0,6.71-.82,9.3-2.91v5.65c-2.55,1.88-5.89,2.67-9.81,2.67C207.21,163.6,201.24,158.1,201.24,149.31Z"/><path class="cls-1" d="M229.23,134h5.93v29h-5.93V134Z"/><path class="cls-1" d="M238.49,153.59c0-6,4.44-10,11.35-10s11.31,4,11.31,10-4.44,10-11.31,10S238.49,159.67,238.49,153.59Zm16.57,0c0-3.34-2-5.38-5.22-5.38s-5.26,2-5.26,5.38a5,5,0,0,0,5.26,5.38C253.06,159,255.06,156.81,255.06,153.59Z"/><path class="cls-1" d="M264.29,155.9V144.16h5.93v11.11c0,2.32,1,3.69,3.42,3.69a5.6,5.6,0,0,0,4.95-2.83v-12h5.93V163h-5.73v-2.28A8.94,8.94,0,0,1,272,163.6C266.6,163.6,264.29,160.3,264.29,155.9Z"/><path class="cls-1" d="M287.84,153.63c0-6,4.08-10.05,10-10.05a10.07,10.07,0,0,1,6.87,2.28V134h5.93v29h-5.73v-2a9.53,9.53,0,0,1-7.07,2.63C292,163.6,287.84,159.67,287.84,153.63Zm16.84,1.77v-3.57a5.54,5.54,0,0,0-5.34-3.61,5.15,5.15,0,0,0-5.42,5.42,5.1,5.1,0,0,0,5.42,5.38A5.56,5.56,0,0,0,304.68,155.39Z"/><path class="cls-1" d="M-0.15,172.47h6.9a6.78,6.78,0,0,1,4.58,1.45A5.15,5.15,0,0,1,13,178a5.07,5.07,0,0,1-1.67,4.12,6.93,6.93,0,0,1-4.59,1.4H2.46v6.85H-0.15V172.47Zm6.62,8.91a4.85,4.85,0,0,0,2.85-.74A3,3,0,0,0,10.37,178a3,3,0,0,0-1.05-2.61,4.8,4.8,0,0,0-2.85-.76h-4v6.7h4Z"/><path class="cls-1" d="M16.75,190a5.82,5.82,0,0,1-2.46-2.26,6.63,6.63,0,0,1-.89-3.48,6.72,6.72,0,0,1,.87-3.47,5.86,5.86,0,0,1,2.46-2.3,8,8,0,0,1,3.67-.81,8,8,0,0,1,3.67.81,6,6,0,0,1,2.48,2.3,7.24,7.24,0,0,1,0,6.94A5.81,5.81,0,0,1,24.08,190a8.22,8.22,0,0,1-3.67.78A8.14,8.14,0,0,1,16.75,190Zm6.84-2.5a5.09,5.09,0,0,0,0-6.52,4.25,4.25,0,0,0-3.18-1.21A4.25,4.25,0,0,0,17.22,181a5.09,5.09,0,0,0,0,6.52,4.2,4.2,0,0,0,3.18,1.23A4.2,4.2,0,0,0,23.59,187.51Z"/><path class="cls-1" d="M28.08,178.09h2.64l2.77,9.14,2.75-9.14h2.34l2.75,9.14,2.77-9.14h2.67l-4,12.32H40.27l-2.85-9.19-2.85,9.19H32.06Z"/><path class="cls-1" d="M50.25,189.09a6.08,6.08,0,0,1-1.94-4.81A6.07,6.07,0,0,1,55,177.71a7.49,7.49,0,0,1,3.62.81,5.38,5.38,0,0,1,2.25,2.23,6.81,6.81,0,0,1,.76,3.25v1.28H50.77a3.18,3.18,0,0,0,1.48,2.61,6.75,6.75,0,0,0,3.66.86,13.38,13.38,0,0,0,2.39-.22,11.48,11.48,0,0,0,2.13-.58V190a10.24,10.24,0,0,1-2.17.55,16.72,16.72,0,0,1-2.66.22A7.82,7.82,0,0,1,50.25,189.09Zm8.92-5.64A3.57,3.57,0,0,0,58,180.75a4.52,4.52,0,0,0-3.09-1,4.29,4.29,0,0,0-3,1,3.63,3.63,0,0,0-1.13,2.67h8.39Z"/><path class="cls-1" d="M64.43,178.09h2.52v2.21a4.5,4.5,0,0,1,2.17-1.67,9,9,0,0,1,3.25-.54v2a8.15,8.15,0,0,0-3.39.64,3.6,3.6,0,0,0-2,2v7.62H64.43V178.09Z"/><path class="cls-1" d="M75.32,189.09a6.08,6.08,0,0,1-1.94-4.81,6.07,6.07,0,0,1,6.67-6.57,7.49,7.49,0,0,1,3.62.81,5.38,5.38,0,0,1,2.25,2.23,6.81,6.81,0,0,1,.76,3.25v1.28H75.85a3.18,3.18,0,0,0,1.48,2.61,6.75,6.75,0,0,0,3.66.86,13.38,13.38,0,0,0,2.39-.22,11.48,11.48,0,0,0,2.13-.58V190a10.24,10.24,0,0,1-2.17.55,16.72,16.72,0,0,1-2.66.22A7.82,7.82,0,0,1,75.32,189.09Zm8.92-5.64a3.57,3.57,0,0,0-1.14-2.71,4.52,4.52,0,0,0-3.09-1,4.29,4.29,0,0,0-3,1,3.63,3.63,0,0,0-1.13,2.67h8.39Z"/><path class="cls-1" d="M92.14,190a5.81,5.81,0,0,1-2.31-2.28,7.43,7.43,0,0,1,0-6.84,6,6,0,0,1,2.31-2.32,6.65,6.65,0,0,1,3.32-.83,6.26,6.26,0,0,1,5.06,2v-8.29h2.59v19h-2.52v-1.8a6.56,6.56,0,0,1-2.25,1.66,7.27,7.27,0,0,1-2.89.53A6.8,6.8,0,0,1,92.14,190Zm6.7-2.08a4.43,4.43,0,0,0,1.68-2.25v-2.77a4.19,4.19,0,0,0-1.66-2.26,4.81,4.81,0,0,0-2.81-.85,4.59,4.59,0,0,0-2.27.56,4.07,4.07,0,0,0-1.59,1.59,5,5,0,0,0,0,4.67,4,4,0,0,0,1.59,1.58,4.68,4.68,0,0,0,2.27.55A4.74,4.74,0,0,0,98.84,187.91Z"/><path class="cls-1" d="M120.71,190.27a6.55,6.55,0,0,1-2.25-1.66v1.8h-2.52v-19h2.59v8.29a5.28,5.28,0,0,1,2.18-1.51,7.93,7.93,0,0,1,2.87-.51,6.65,6.65,0,0,1,3.32.83,6,6,0,0,1,2.31,2.32,7.43,7.43,0,0,1,0,6.84,5.81,5.81,0,0,1-2.31,2.28,6.8,6.8,0,0,1-3.32.81A7.27,7.27,0,0,1,120.71,190.27Zm4.57-2.08a4,4,0,0,0,1.59-1.58,5,5,0,0,0,0-4.67,4.07,4.07,0,0,0-1.59-1.59,4.6,4.6,0,0,0-2.27-.56,4.82,4.82,0,0,0-2.8.85,4.17,4.17,0,0,0-1.67,2.26v2.77a4.43,4.43,0,0,0,1.68,2.25,4.74,4.74,0,0,0,2.79.83A4.68,4.68,0,0,0,125.28,188.19Z"/><path class="cls-1" d="M131.53,195.21v-2a4.58,4.58,0,0,0,1.64.26,2.07,2.07,0,0,0,1.41-.45,3.86,3.86,0,0,0,.92-1.45l0.59-1.44-5.39-12h2.67l4.11,9.47,3.83-9.47H144l-5.54,13.71a7,7,0,0,1-1.84,2.81,4.18,4.18,0,0,1-2.76.89A8,8,0,0,1,131.53,195.21Z"/><path class="cls-1" d="M155.78,172.47h5.78a11,11,0,0,1,5,1.08,7.65,7.65,0,0,1,3.27,3.08,9.38,9.38,0,0,1,1.14,4.72q0,4.47-2.58,6.76t-7.23,2.3h-5.42V172.47Zm5.39,15.76a7.38,7.38,0,0,0,5.39-1.77,6.86,6.86,0,0,0,1.8-5.11,6.16,6.16,0,0,0-6.78-6.67H158.4v13.55h2.77Z"/><path class="cls-1" d="M174.26,175.24a1.51,1.51,0,0,1,1.08-2.59,1.54,1.54,0,0,1,1.12.44,1.52,1.52,0,0,1,0,2.16,1.54,1.54,0,0,1-1.12.44A1.46,1.46,0,0,1,174.26,175.24ZM174,178.09h2.64v12.32H174V178.09Z"/><path class="cls-1" d="M184.24,196.11a8,8,0,0,1-2-.59v-2.13a10.72,10.72,0,0,0,4.47.87,4.92,4.92,0,0,0,3.48-1,4.16,4.16,0,0,0,1.09-3.15v-1.31a6.12,6.12,0,0,1-5,2,6.84,6.84,0,0,1-3.36-.82,5.93,5.93,0,0,1-2.34-2.31,7.38,7.38,0,0,1,0-6.84,5.9,5.9,0,0,1,2.31-2.3,6.71,6.71,0,0,1,3.32-.82,7.52,7.52,0,0,1,2.91.5,6.19,6.19,0,0,1,2.22,1.66v-1.77h2.52V189.8a6.38,6.38,0,0,1-1.76,4.84q-1.76,1.68-5.4,1.68A14.52,14.52,0,0,1,184.24,196.11Zm5.37-8.21a4.19,4.19,0,0,0,1.66-2.26v-2.77a4.37,4.37,0,0,0-1.68-2.26,4.8,4.8,0,0,0-2.78-.82,4.67,4.67,0,0,0-2.27.55,4,4,0,0,0-1.59,1.58,5,5,0,0,0,0,4.69,4.08,4.08,0,0,0,1.59,1.58,4.58,4.58,0,0,0,2.27.56A4.81,4.81,0,0,0,189.6,187.9Z"/><path class="cls-1" d="M197.62,175.24a1.51,1.51,0,0,1,1.08-2.59,1.54,1.54,0,0,1,1.12.44,1.52,1.52,0,0,1,0,2.16,1.54,1.54,0,0,1-1.12.44A1.46,1.46,0,0,1,197.62,175.24Zm-0.23,2.85H200v12.32h-2.64V178.09Z"/><path class="cls-1" d="M205.46,189.72a4.29,4.29,0,0,1-1-3.05v-6.57h-1.87v-2h1.87v-3.7h2.62v3.7h3v2h-3v6.39a2.54,2.54,0,0,0,.48,1.75,2.31,2.31,0,0,0,1.73.51,3.62,3.62,0,0,0,1.49-.33v2.05a7.54,7.54,0,0,1-2.41.33A3.77,3.77,0,0,1,205.46,189.72Z"/><path class="cls-1" d="M213.65,189.66a3.85,3.85,0,0,1-1.35-3.09,4,4,0,0,1,1.3-3.17,5.48,5.48,0,0,1,3.68-1.12,8.47,8.47,0,0,1,4.31,1v-0.64a2.6,2.6,0,0,0-.89-2.17,4.46,4.46,0,0,0-2.78-.71,10.9,10.9,0,0,0-2.2.22,9,9,0,0,0-1.91.6v-2.1a8.23,8.23,0,0,1,2-.58,13.79,13.79,0,0,1,2.39-.22,6.55,6.55,0,0,1,4.53,1.35,4.81,4.81,0,0,1,1.48,3.74v7.62h-2.44V189a5.19,5.19,0,0,1-1.89,1.32,7,7,0,0,1-2.66.45A5.36,5.36,0,0,1,213.65,189.66Zm6.46-1.32A3.3,3.3,0,0,0,221.6,187V185.3a6.71,6.71,0,0,0-3.72-1.08,3.55,3.55,0,0,0-2.22.58,2.1,2.1,0,0,0-.73,1.76q0,2.26,3,2.26A5,5,0,0,0,220.11,188.33Z"/><path class="cls-1" d="M227.42,171.44H230v19h-2.59v-19Z"/><path class="cls-1" d="M237.46,189.63a8.54,8.54,0,0,1-3.39-3.3,10.27,10.27,0,0,1,0-9.75,8.64,8.64,0,0,1,3.39-3.31,10.45,10.45,0,0,1,9.65,0,8.65,8.65,0,0,1,3.39,3.31,10.27,10.27,0,0,1,0,9.75,8.54,8.54,0,0,1-3.39,3.3A10.55,10.55,0,0,1,237.46,189.63Zm8.28-2.05a6.27,6.27,0,0,0,2.45-2.44,8,8,0,0,0,0-7.34,6.21,6.21,0,0,0-2.43-2.44,6.94,6.94,0,0,0-3.44-.86,7.14,7.14,0,0,0-3.48.85,6.25,6.25,0,0,0-2.46,2.44,7.93,7.93,0,0,0,0,7.35,6.28,6.28,0,0,0,2.45,2.44A7.37,7.37,0,0,0,245.74,187.58Z"/><path class="cls-1" d="M257,190a5.73,5.73,0,0,1-2.48-2.25,7.37,7.37,0,0,1,0-7A5.89,5.89,0,0,1,257,178.5a9.4,9.4,0,0,1,8.2.31v2.13a7.33,7.33,0,0,0-4.26-1.16,5,5,0,0,0-3.4,1.14,5,5,0,0,0,0,6.69,4.9,4.9,0,0,0,3.36,1.13,8,8,0,0,0,4.47-1.23v2.1a6.22,6.22,0,0,1-2,.9,11.25,11.25,0,0,1-2.68.28A8.26,8.26,0,0,1,257,190Z"/><path class="cls-1" d="M269.63,189.09a6.08,6.08,0,0,1-1.94-4.81,6.07,6.07,0,0,1,6.67-6.57,7.49,7.49,0,0,1,3.62.81,5.38,5.38,0,0,1,2.25,2.23A6.82,6.82,0,0,1,281,184v1.28H270.16a3.18,3.18,0,0,0,1.48,2.61,6.75,6.75,0,0,0,3.66.86,13.39,13.39,0,0,0,2.39-.22,11.48,11.48,0,0,0,2.13-.58V190a10.25,10.25,0,0,1-2.17.55,16.73,16.73,0,0,1-2.66.22A7.82,7.82,0,0,1,269.63,189.09Zm8.92-5.64a3.57,3.57,0,0,0-1.14-2.71,4.52,4.52,0,0,0-3.09-1,4.29,4.29,0,0,0-3,1,3.63,3.63,0,0,0-1.13,2.67h8.39Z"/><path class="cls-1" d="M284.65,189.66a3.84,3.84,0,0,1-1.35-3.09,4,4,0,0,1,1.3-3.17,5.47,5.47,0,0,1,3.68-1.12,8.47,8.47,0,0,1,4.31,1v-0.64a2.6,2.6,0,0,0-.89-2.17,4.45,4.45,0,0,0-2.78-.71,10.9,10.9,0,0,0-2.2.22,9,9,0,0,0-1.91.6v-2.1a8.24,8.24,0,0,1,2-.58,13.77,13.77,0,0,1,2.39-.22,6.55,6.55,0,0,1,4.53,1.35,4.81,4.81,0,0,1,1.48,3.74v7.62h-2.44V189a5.21,5.21,0,0,1-1.89,1.32,7,7,0,0,1-2.66.45A5.35,5.35,0,0,1,284.65,189.66Zm6.46-1.32a3.29,3.29,0,0,0,1.49-1.36V185.3a6.71,6.71,0,0,0-3.72-1.08,3.55,3.55,0,0,0-2.22.58,2.1,2.1,0,0,0-.73,1.76q0,2.26,3,2.26A5,5,0,0,0,291.11,188.33Z"/><path class="cls-1" d="M298.42,178.09h2.52v1.77a5.26,5.26,0,0,1,2.14-1.63,6.89,6.89,0,0,1,2.66-.53,4.75,4.75,0,0,1,3.67,1.31,5,5,0,0,1,1.21,3.52v7.88H308v-7.62q0-3-2.87-3a4.76,4.76,0,0,0-2.3.58,5.13,5.13,0,0,0-1.83,1.76v8.29h-2.59V178.09Z"/><path class="cls-2" d="M188.27,64.79h-6.22c0-12-8.92-20.22-20.31-20.22a20,20,0,0,0-8.26,1.68l-2.69,1.16-1.34-2.64a27.73,27.73,0,0,0-24.71-15.24,27.37,27.37,0,0,0-12,2.76l-2.94,1.42-1.28-3a38.92,38.92,0,0,0-74.34,9.63l-0.45,3.14-3.13-.52a23.36,23.36,0,0,0-3.46-.06c-11.4,0-21,9.91-21,21.91H-0.15c0-15,12.22-28.12,27.25-28.12,0.49,0,1-.08,1.41-0.06a45.14,45.14,0,0,1,84.37-11.15,33.82,33.82,0,0,1,40.72,14A27,27,0,0,1,188.27,64.79Z"/><path class="cls-2" d="M93.88,33.61l-1.21-7.25c-0.39-2.33-1.57-4.23-2.29-4.23s-1.58,1.94-1.58,4.31v1.9A3.42,3.42,0,0,1,85,32.07H81.88V31.8a4.22,4.22,0,0,0-4-4.29v0H66.28c-2.36,0-5.12,2-5.12,4.33v0.27h-2c-2.36,0-4.31-1.36-4.31-3.73v-1.9c0-2.36-.58-4.3-1.3-4.3s-1.63,1.91-2,4.24L50.3,33.61a3.51,3.51,0,0,0,3.59,4.21h7.27V54.16c0,2.36,2.76,3.82,5.12,3.82H77.89a3.66,3.66,0,0,0,4-3.82V37.82h8.4A3.51,3.51,0,0,0,93.88,33.61Z"/></svg>