<?xml version="1.0" encoding="utf-8"?>
<!-- Generator: Adobe Illustrator 19.1.0, SVG Export Plug-In . SVG Version: 6.00 Build 0)  -->
<svg version="1.1" id="Layer_1" xmlns="http://www.w3.org/2000/svg" xmlns:xlink="http://www.w3.org/1999/xlink" x="0px" y="0px"
	 viewBox="-106 1375.4 505.9 331.1" style="enable-background:new -106 1375.4 505.9 331.1;" xml:space="preserve">
<style type="text/css">
	.st0{fill:#00C7FC;}
	.st1{fill:#3D3D3D;}
	.st2{fill:#0D5E8C;}
	.st3{fill:#0071BC;}
	.st4{fill:#E6E6E6;}
	.st5{fill:#F7C94A;}
	.st6{fill:#313131;}
	.st7{fill:#414042;}
	.st8{fill-rule:evenodd;clip-rule:evenodd;fill:url(#SVGID_1_);}
	.st9{fill:#F68B1F;}
	.st10{fill-rule:evenodd;clip-rule:evenodd;fill:url(#SVGID_2_);}
	.st11{fill-rule:evenodd;clip-rule:evenodd;fill:#F68B1F;}
	.st12{fill:url(#SVGID_3_);}
	.st13{fill:url(#SVGID_4_);}
	.st14{fill:url(#SVGID_5_);}
	.st15{fill:url(#SVGID_6_);}
	.st16{fill-rule:evenodd;clip-rule:evenodd;fill:url(#SVGID_7_);}
	.st17{fill:#FFFFFF;}
	.st18{fill:none;stroke:#FFFFFF;stroke-width:10;stroke-miterlimit:10;}
	.st19{fill:none;stroke:#000000;stroke-width:4;stroke-miterlimit:10;}
	.st20{fill:none;stroke:#000000;stroke-width:4;stroke-linejoin:bevel;stroke-miterlimit:10;}
	.st21{fill:#495755;}
	.st22{fill:#FF9900;}
	.st23{stroke:#000000;}
</style>
<g>
	<g>
		<path class="st1" d="M35.3,1465.1l7.2-7.8c3.4-3.7,7.6-4.6,11.1-1.3c2.8,2.6,2.8,6.2,1.6,8.6c1-0.1,2,0.1,3,0.3
			c2.3,0.7,4.6,1.8,6.1,0.1c0.4-0.4,0.6-0.9,0.6-0.9l3,3.5c0,0-0.7,1.2-1.5,2.1c-2.1,2.3-4.2,2.7-8.4,1.3c-1.9-0.7-5-2.1-5.9-1
			l-1,1.1l7.5,7l-4.3,4.7L35.3,1465.1z M43.1,1463.5l4.7,4.3l1.6-1.7c1.2-1.4,2.3-3.3,0.3-5.2c-1.7-1.5-3.2-1-4.4,0.3L43.1,1463.5z"
			/>
		<path class="st1" d="M58.5,1442.5l5.2-3.9l22.7,15.3l-5.2,3.9l-4.3-2.9l-6.9,5.3l1.7,4.9l-4.5,3.4L58.5,1442.5z M68.3,1455.4
			l4.4-3.4l-4.7-3.3c-1.6-1.1-3.4-3-3.4-3l-0.1,0.1c0,0,1.3,2.3,1.9,4.1L68.3,1455.4z"/>
		<path class="st1" d="M74.9,1430.7l6.1-3.1l11.9,8.4c1,0.7,2.6,2.1,3.8,3.2l0.1-0.1c-0.7-1.3-1.8-3-2.5-4.4l-5.6-11.1l4.7-2.4
			l11.8,23.2l-6,3l-12.1-8.2c-1.1-0.7-2.5-1.9-3.6-2.9l-0.1,0.1c0.8,1.2,1.7,2.7,2.4,4l5.6,11.1l-4.7,2.4L74.9,1430.7z"/>
		<path class="st1" d="M102.8,1431.3c-2.7-9,0.7-14,7.6-16.1c7.3-2.1,11.3,1,12.1,6.6l-5.6,2.2c-0.5-4.1-2.6-5.3-5.3-4.4
			c-2.7,0.8-4.3,3.4-2.4,9.8c2,6.8,4.9,7.8,7.6,7c2.5-0.7,4.1-2.9,2.7-6.1l5.5-1c1.9,4.9-0.7,9.7-7.3,11.7
			C111,1443,105.5,1440.3,102.8,1431.3z"/>
		<path class="st1" d="M126.1,1411.7l6.4-0.7l1,9.7l7.8-0.8l-1-9.7l6.4-0.7l2.7,25.8l-6.4,0.7l-1.1-10.9l-7.8,0.8l1.1,10.9l-6.4,0.7
			L126.1,1411.7z"/>
		<path class="st1" d="M153.7,1409.6l17.1,1.1l-0.3,4.8l-10.7-0.7l-0.4,5.6l9,0.6l-0.3,4.8l-9-0.6l-0.4,6.1l11.1,0.7l-0.3,4.8
			l-17.5-1.3L153.7,1409.6z"/>
		<path class="st1" d="M176.8,1411.6l10.4,2.4c4.9,1.1,7.7,4.3,6.6,8.9c-0.9,3.8-4,5.5-6.7,5.7c0.6,0.8,1,1.8,1.2,2.8
			c0.6,2.4,0.7,4.9,2.9,5.4c0.6,0.1,1.1,0,1.1,0l-1.5,4.3c0,0-1.4,0-2.6-0.2c-3-0.7-4.4-2.3-5.3-6.7c-0.3-2-0.6-5.4-2-5.7l-1.4-0.3
			l-2.3,10l-6.2-1.5L176.8,1411.6z M182,1417.5l-1.4,6.2l2.2,0.5c1.8,0.4,4,0.3,4.6-2.4c0.5-2.2-0.7-3.3-2.5-3.7L182,1417.5z"/>
		<path class="st1" d="M208.8,1420.6l8.9,4.4c5.8,2.8,8.6,8.4,4.6,16.6c-3.9,8-10,9.7-16,6.7l-8.9-4.4L208.8,1420.6z M207.8,1443.8
			c2.6,1.2,5.8,0.9,8.7-5.1c2.9-6,1.2-8.5-1.4-9.8l-2.6-1.3l-7.3,14.9L207.8,1443.8z"/>
		<path class="st1" d="M233.2,1433.3l5.5,4.1l-2.2,14.4c-0.2,1.2-0.8,3.3-1.2,4.9l0.1,0.1c0.8-1.2,1.9-3,2.8-4.2l7.4-10l4.2,3.1
			l-15.5,20.8l-5.4-4l2-14.5c0.2-1.3,0.6-3.1,1-4.5l-0.1-0.1c-0.8,1.2-1.7,2.7-2.5,3.9l-7.4,10l-4.2-3.1L233.2,1433.3z"/>
		<path class="st1" d="M245.4,1465.6c-1.8,1.1-3,3.3-0.2,6.3c1.8,2,3.3,1.9,4.3,0.9c1.6-1.5,0.5-3.4-0.6-5.9
			c-1.7-3.7-3.5-8.3,0.4-12.1c3.5-3.3,8.2-2.6,12.5,2.1c5.2,5.7,3.4,10.5-0.1,12.6l-4.4-3.9c2.4-1.8,2.9-3.7,0.8-5.9
			c-1.4-1.5-2.7-1.8-3.9-0.7c-1.6,1.5-0.6,3.4,0.5,5.9c1.7,3.7,3.8,8.2-0.1,11.9c-3.4,3.2-8.2,3-12.8-1.9c-4.3-4.6-5.2-9.8-0.6-12.9
			L245.4,1465.6z"/>
	</g>
</g>
<g>
	<g>
		<g>
			<path class="st2" d="M191,1501.1l-2.2-13.7c-0.7-4.3-2.2-8-3.6-8s-2.3,3.5-2.3,7.8v3.5c0,4.4-3.9,8.6-8.3,8.6h-3.5
				c-0.3,0-0.2-0.6-0.2-0.6v9.7c0,0,0,0.9,0.2,0.9h13.2C188.8,1509.4,191.7,1505.4,191,1501.1z"/>
		</g>
	</g>
	<g>
		<path class="st2" d="M113,1501.1l2.2-13.7c0.7-4.3,2.7-8,4-8s2.7,3.5,2.7,7.8v3.5c0,4.4,3.1,8.6,7.4,8.6h3.5c0.3,0,1-0.6,1-0.6
			v9.7c0,0-0.8,0.9-1,0.9h-13.2C115.3,1509.4,112.3,1505.4,113,1501.1z"/>
	</g>
	<path class="st3" d="M171.6,1542.4c0,2.8-2.2,5-5,5h-28c-2.8,0-5-2.2-5-5v-48c0-2.8,2.2-5,5-5h28c2.8,0,5,2.2,5,5V1542.4z"/>
</g>
<path class="st4" d="M358.5,1560.4h-8.4h-23.5c-1.3-95.1-79.1-172-174.5-172c-0.1,0-0.2,0-0.3,0c-0.1,0-0.2,0-0.3,0
	c-95.4,0-173.1,76.9-174.5,172h-23.5h-8.4h-29.4v10h23.4l0,0H43.2l0,0h10.3h11h174.8h11h17.8h95h24.8v-10H358.5z M239.3,1560.4H64.5
	H47.2c1.3-56.6,47.7-102.3,104.7-102.5c56.9,0.2,103.3,45.8,104.7,102.5H239.3z M281,1560.4h-13.9c-1.3-62.3-52.4-112.5-115-112.5
	c-0.1,0-0.2,0-0.3,0c-0.1,0-0.2,0-0.3,0c-62.6,0-113.6,50.2-115,112.5H22.8h-35.6c0-3.2,0.2-6.3,0.4-9.5c0.2,0,0.4,0,0.6,0
	c6.2-85,77.2-152.3,163.7-152.5c86.5,0.2,157.6,67.5,163.7,152.5c0.2,0,0.4,0,0.6,0c0.2,3.1,0.4,6.3,0.4,9.5H281z"/>
<g>
	<g>
		<polygon class="st22" points="11.3,1691 -11,1683 -11,1650.4 11.3,1658 		"/>
		<polygon class="st22" points="15.4,1691 37.6,1683 37.6,1650.4 15.4,1658 		"/>
		<polygon class="st22" points="-8.7,1648 13.8,1641.6 34.7,1648.4 13.8,1655.5 		"/>
	</g>
	<g>
		<polygon class="st22" points="-15.2,1645.4 -37.5,1637.5 -37.5,1604.8 -15.2,1612.4 		"/>
		<polygon class="st22" points="-11.1,1645.4 11.1,1637.5 11.1,1604.8 -11.1,1612.4 		"/>
		<polygon class="st22" points="-35.2,1602.4 -12.7,1596 8.2,1602.8 -12.7,1609.9 		"/>
	</g>
	<g>
		<polygon class="st22" points="36.7,1645.4 14.5,1637.5 14.5,1604.8 36.7,1612.4 		"/>
		<polygon class="st22" points="40.8,1645.4 63.1,1637.5 63.1,1604.8 40.8,1612.4 		"/>
		<polygon class="st22" points="16.8,1602.4 39.3,1596 60.2,1602.8 39.3,1609.9 		"/>
	</g>
	<g>
		<polygon class="st22" points="63.2,1599.8 41,1591.9 41,1559.2 63.2,1566.8 		"/>
		<polygon class="st22" points="67.3,1599.8 89.6,1591.9 89.6,1559.2 67.3,1566.8 		"/>
		<polygon class="st22" points="43.3,1556.8 65.8,1550.4 86.7,1557.2 65.8,1564.3 		"/>
	</g>
	<g>
		<polygon class="st22" points="115.2,1599.8 92.9,1591.9 92.9,1559.2 115.2,1566.8 		"/>
		<polygon class="st22" points="119.3,1599.8 141.6,1591.9 141.6,1559.2 119.3,1566.8 		"/>
		<polygon class="st22" points="95.2,1556.8 117.8,1550.4 138.7,1557.2 117.8,1564.3 		"/>
	</g>
	<g>
		<path class="st23" d="M103.9,1669.8l-7.5,26h-3.3l-5.8-19.3l-5.3,19.3h-3.3l-7.8-26h4l5.7,19.4l5.4-19.4h3l5.9,19.4l5.8-19.4
			H103.9z"/>
		<path class="st23" d="M117.6,1693.1c-1.8,0-3.6-0.7-5.2-2.1c-1.6-1.4-2.5-4-2.5-8h18.9c-0.1-4.7-1.1-8.2-3.2-10.5
			c-2.1-2.3-4.8-3.5-8.2-3.5c-3.4,0-6.3,1.3-8.6,3.8c-2.3,2.5-3.4,5.9-3.4,10c0,4.1,1.1,7.3,3.3,9.8c2.2,2.5,5.1,3.7,8.6,3.7
			c2.7,0,5-0.7,7-2.2c2-1.5,3.3-3.3,4-5.5l-3.8-0.8C123.2,1691.4,120.9,1693.1,117.6,1693.1z M112.4,1674.3c1.4-1.4,3.1-2.2,5.1-2.2
			c1.5,0,2.8,0.4,3.8,1.2c1.1,0.8,1.8,1.8,2.3,2.9c0.4,1.1,0.7,2.4,0.7,3.9v0h-14.2C110.3,1677.7,111.1,1675.7,112.4,1674.3z"/>
		<path class="st23" d="M153.3,1672.6c-2-2.4-4.5-3.5-7.5-3.5c-3.3,0-5.8,1.7-7.6,5.1v-13.4h-4v35.1h1.9l1.4-4.3
			c1.9,3.3,4.6,5,8.1,5c3.2,0,5.7-1.3,7.7-3.9c2-2.6,3-5.9,3-9.7C156.3,1678.4,155.3,1674.9,153.3,1672.6z M150.2,1690.5
			c-1.3,1.8-2.9,2.7-5,2.7c-1.6,0-3.1-0.6-4.6-1.8c-1.4-1.2-2.3-3.1-2.5-5.8v-5.8c0.3-2.2,1.1-3.9,2.4-5.3c1.4-1.4,2.9-2,4.6-2
			c2.2,0,3.8,1,5.1,2.9c1.2,1.9,1.8,4.5,1.8,7.9C152,1686.3,151.4,1688.7,150.2,1690.5z"/>
		<path class="st23" d="M166.6,1689l3.9-0.8c0.9,3.3,3.6,4.9,8.1,4.9c1.7,0,3.1-0.4,4.3-1.1c1.2-0.8,1.8-1.8,1.8-3.2
			c0-2-1.5-3.3-4.5-3.9l-5.5-1c-2.1-0.4-3.8-1.2-5.1-2.4c-1.3-1.2-1.9-2.8-1.9-4.8c0-2.2,0.9-4,2.6-5.5c1.7-1.5,4.1-2.2,7-2.2
			c5.6,0,9.1,2.2,10.4,6.6l-3.7,0.8c-1.1-2.7-3.2-4-6.5-4c-1.6,0-3,0.3-4,1c-1.1,0.7-1.6,1.6-1.6,2.8c0,1.9,1.3,3.1,4,3.6l5.1,0.9
			c5.3,1,7.9,3.5,7.9,7.7c0,2.4-1,4.3-3,5.8c-2,1.5-4.6,2.2-7.9,2.2C171.9,1696.5,168.1,1694,166.6,1689z"/>
		<path class="st23" d="M203.4,1693.1c-1.8,0-3.6-0.7-5.2-2.1c-1.6-1.4-2.5-4-2.5-8h18.9c-0.1-4.7-1.1-8.2-3.2-10.5
			c-2.1-2.3-4.8-3.5-8.2-3.5c-3.4,0-6.3,1.3-8.6,3.8c-2.3,2.5-3.4,5.9-3.4,10c0,4.1,1.1,7.3,3.3,9.8c2.2,2.5,5.1,3.7,8.6,3.7
			c2.7,0,5-0.7,7-2.2c2-1.5,3.3-3.3,4-5.5l-3.8-0.8C209,1691.4,206.7,1693.1,203.4,1693.1z M198.3,1674.3c1.4-1.4,3.1-2.2,5.1-2.2
			c1.5,0,2.8,0.4,3.8,1.2c1.1,0.8,1.8,1.8,2.3,2.9c0.4,1.1,0.7,2.4,0.7,3.9v0h-14.2C196.1,1677.7,196.9,1675.7,198.3,1674.3z"/>
		<path class="st23" d="M223,1695.8h-4v-26h3.5v6.1c1.2-2.8,2.5-4.7,3.8-5.5c1.3-0.8,2.5-1.3,3.9-1.3c0.4,0,0.9,0,1.6,0.1v3.9h-0.8
			c-2.2,0-4.1,0.8-5.5,2.5c-1.5,1.7-2.3,3.8-2.4,6.5L223,1695.8L223,1695.8z"/>
		<path class="st23" d="M256.8,1669.8l-9,26h-4.2l-9.3-26h4.5l7.2,21.1l7.2-21.1H256.8z"/>
		<rect x="260.1" y="1660.7" class="st23" width="4.3" height="4.5"/>
		<rect x="260.3" y="1669.8" class="st23" width="4" height="26"/>
		<path class="st23" d="M285.5,1686.7l3.6,0.6c-0.5,2.9-1.7,5.1-3.4,6.7c-1.8,1.6-4,2.4-6.6,2.4c-3.6,0-6.3-1.3-8.2-4
			c-1.9-2.6-2.8-5.9-2.8-9.7c0-3.9,1-7.2,3-9.8c2-2.6,4.7-3.9,8.1-3.9c2.8,0,5.1,0.8,6.8,2.5c1.7,1.7,2.8,3.9,3.2,6.6l-3.6,0.7
			c-0.7-4.3-2.8-6.4-6.2-6.4c-2.2,0-3.9,0.9-5.1,2.8c-1.2,1.9-1.8,4.3-1.8,7.4c0,3.3,0.6,5.9,1.8,7.7c1.2,1.8,2.9,2.8,5,2.8
			C282.5,1693.1,284.6,1691,285.5,1686.7z"/>
		<path class="st23" d="M305,1693.1c-1.8,0-3.6-0.7-5.2-2.1c-1.6-1.4-2.5-4-2.5-8h18.9c-0.1-4.7-1.1-8.2-3.2-10.5
			c-2.1-2.3-4.8-3.5-8.2-3.5c-3.4,0-6.3,1.3-8.6,3.8c-2.3,2.5-3.4,5.9-3.4,10c0,4.1,1.1,7.3,3.3,9.8c2.2,2.5,5.1,3.7,8.6,3.7
			c2.7,0,5-0.7,7-2.2c2-1.5,3.3-3.3,4-5.5l-3.8-0.8C310.6,1691.4,308.3,1693.1,305,1693.1z M299.8,1674.3c1.4-1.4,3.1-2.2,5.1-2.2
			c1.5,0,2.8,0.4,3.8,1.2c1.1,0.8,1.8,1.8,2.3,2.9c0.4,1.1,0.7,2.4,0.7,3.9v0h-14.2C297.6,1677.7,298.4,1675.7,299.8,1674.3z"/>
		<path class="st23" d="M318.4,1689l3.9-0.8c0.9,3.3,3.6,4.9,8.1,4.9c1.7,0,3.1-0.4,4.3-1.1c1.2-0.8,1.7-1.8,1.7-3.2
			c0-2-1.5-3.3-4.5-3.9l-5.5-1c-2.1-0.4-3.8-1.2-5.1-2.4c-1.3-1.2-1.9-2.8-1.9-4.8c0-2.2,0.9-4,2.6-5.5c1.7-1.5,4.1-2.2,7-2.2
			c5.6,0,9.1,2.2,10.4,6.6l-3.7,0.8c-1.1-2.7-3.2-4-6.5-4c-1.6,0-3,0.3-4,1c-1.1,0.7-1.6,1.6-1.6,2.8c0,1.9,1.3,3.1,4,3.6l5.1,0.9
			c5.3,1,7.9,3.5,7.9,7.7c0,2.4-1,4.3-3,5.8c-2,1.5-4.6,2.2-7.9,2.2C323.7,1696.5,319.9,1694,318.4,1689z"/>
	</g>
	<g>
		<g>
			<path d="M227.2,1614.2v-6.2c0-0.9,0.7-1.6,1.6-1.6l28,0c0.9,0,1.6,0.7,1.6,1.6l0,5.4c0,0.9-0.8,2.1-2.1,3.9l-14.5,20.7
				c5.4-0.1,11.1,0.7,16,3.4c1.1,0.6,1.4,1.5,1.5,2.4v6.7c0,0.9-1,2-2.1,1.4c-8.6-4.5-20-5-29.6,0.1c-1,0.5-2-0.5-2-1.4v-6.3
				c0-1,0-2.7,1-4.3l16.8-24.1l-14.6,0C227.9,1615.8,227.2,1615.2,227.2,1614.2z"/>
			<path d="M127.1,1653.2h-8.5c-0.8-0.1-1.5-0.7-1.5-1.4l0-43.7c0-0.9,0.7-1.6,1.6-1.6l7.9,0c0.8,0,1.5,0.7,1.5,1.5v5.7h0.2
				c2.1-5.5,6-8.1,11.2-8.1c5.3,0,8.7,2.6,11,8.1c2.1-5.5,6.8-8.1,11.8-8.1c3.6,0,7.5,1.5,9.9,4.8c2.7,3.7,2.1,9,2.1,13.7l0,27.6
				c0,0.9-0.7,1.6-1.6,1.6h-8.5c-0.9-0.1-1.5-0.7-1.5-1.6l0-23.2c0-1.8,0.2-6.4-0.2-8.2c-0.6-2.9-2.5-3.8-5-3.8
				c-2.1,0-4.2,1.4-5.1,3.6c-0.9,2.2-0.8,5.9-0.8,8.4v23.2c0,0.9-0.7,1.6-1.6,1.6h-8.5c-0.9-0.1-1.5-0.7-1.5-1.6l0-23.2
				c0-4.9,0.8-12-5.2-12c-6.1,0-5.9,7-5.9,12l0,23.2C128.7,1652.5,128,1653.2,127.1,1653.2z"/>
			<path d="M278.9,1605.6c-12.2,0-19,10.6-19,24.2c0,13.5,6.7,24.4,19,24.4c11.8,0,19.3-10.6,19.3-23.9
				C298.2,1616.5,291.4,1605.6,278.9,1605.6z M278.9,1645.1c-6.6,0-6.5-10.3-6.5-15.6s0.4-13.9,6.6-13.9c2.7,0,4.6,1.2,5.5,4.2
				c1.1,3.5,1.3,7.9,1.3,11.6C285.8,1637.1,285.4,1645.1,278.9,1645.1z"/>
			<path d="M316.4,1653.2h-8.5c-0.9-0.1-1.5-0.7-1.5-1.6l0-43.7c0.1-0.8,0.8-1.4,1.6-1.4l7.9,0c0.7,0,1.4,0.5,1.5,1.2v6.7h0.2
				c2.4-6,5.7-8.8,11.6-8.8c3.8,0,7.5,1.4,9.9,5.1c2.2,3.5,2.2,9.4,2.2,13.6v27.5c-0.1,0.8-0.8,1.4-1.6,1.4h-8.5
				c-0.8-0.1-1.4-0.6-1.5-1.4v-23.7c0-4.8,0.6-11.8-5.3-11.8c-2.1,0-4,1.4-4.9,3.5c-1.2,2.7-1.4,5.3-1.4,8.3v23.5
				C318,1652.5,317.3,1653.2,316.4,1653.2z"/>
			<path d="M221,1645.2c-1.6-2.2-3.2-3.9-3.2-7.9v-13.3c0-5.6,0.4-10.8-3.7-14.6c-3.3-3.1-8.7-4.2-12.8-4.2c-8.1,0-17.1,3-19,13
				c-0.2,1.1,0.6,1.6,1.3,1.8l8.2,0.9c0.8,0,1.3-0.8,1.5-1.6c0.7-3.4,3.6-5.1,6.8-5.1c1.8,0,3.7,0.6,4.8,2.2c1.2,1.7,1,4.1,1,6.2
				v1.1c-4.9,0.6-11.4,0.9-16,2.9c-5.3,2.3-9.1,7-9.1,13.9c0,8.8,5.6,13.3,12.7,13.3c6.1,0,9.4-1.4,14-6.2c1.5,2.2,2.1,3.3,4.9,5.7
				c0.6,0.3,1.4,0.3,2-0.2l0,0c1.7-1.5,4.8-4.2,6.5-5.7C221.7,1646.9,221.5,1646,221,1645.2z M204.3,1641.4
				c-1.4,2.4-3.5,3.9-5.9,3.9c-3.3,0-5.2-2.5-5.2-6.2c0-7.2,6.5-8.6,12.7-8.6v1.8h0C205.8,1635.7,205.9,1638.4,204.3,1641.4z"/>
			<path d="M110.4,1645.2c-1.6-2.2-3.2-3.9-3.2-7.9v-13.3c0-5.6,0.4-10.8-3.7-14.6c-3.3-3.1-8.7-4.2-12.8-4.2c-8.1,0-17.1,3-19,13
				c-0.2,1.1,0.6,1.6,1.3,1.8l8.2,0.9c0.8,0,1.3-0.8,1.5-1.6c0.7-3.4,3.6-5.1,6.8-5.1c1.8,0,3.7,0.6,4.8,2.2c1.2,1.7,1,4.1,1,6.2
				v1.1c-4.9,0.6-11.4,0.9-16,2.9c-5.3,2.3-9.1,7-9.1,13.9c0,8.8,5.6,13.3,12.7,13.3c6.1,0,9.4-1.4,14-6.2c1.5,2.2,2.1,3.3,4.9,5.7
				c0.6,0.3,1.4,0.3,2-0.2l0,0c1.7-1.5,4.8-4.2,6.5-5.7C111.1,1646.9,110.9,1646,110.4,1645.2z M93.7,1641.4
				c-1.4,2.4-3.5,3.9-5.9,3.9c-3.3,0-5.2-2.5-5.2-6.2c0-7.2,6.5-8.6,12.7-8.6v1.8h0C95.2,1635.7,95.3,1638.4,93.7,1641.4z"/>
		</g>
	</g>
</g>
</svg>
