<svg id="Layer_1" data-name="Layer 1" xmlns="http://www.w3.org/2000/svg" viewBox="0 0 411.99996 408.29998"><defs><style>.cls-1{fill:#3d98d3;}.cls-2{fill:#2980b9;}</style></defs><title>route-53-global-dns-logo</title><path class="cls-1" d="M205.9,14c22,17.1,42.9,22.9,60.9,22.9,36,0,60.7-22.8,60.7-22.8l71.3,75.7s-34.9,47.9-34.9,68.8c0,42,79,113-4.3,181.8-49.7,41.2-110.7,13.2-153.7,54.2-43-41-104-13-153.8-54.2-83.2-68.8-4.2-139.8-4.2-181.8C47.9,137.7,13,89.8,13,89.8L84.2,14.1s24.7,22.8,60.7,22.8c18.1-.1,38.9-5.8,61-22.9M83.7,0,76.9,7.2,5.7,82.9,0,88.9l4.9,6.7c13.7,18.8,32.9,50.7,32.9,62.9,0,10-6.4,24.1-13.1,38.9C15.3,218.2,4.6,241.7,4,267.3a87.22457,87.22457,0,0,0,8.8,40.6c6.8,14.1,17.9,27.6,33,40,27,22.4,57.4,26.1,84.2,29.4,26.7,3.3,49.8,6.1,69,24.4l6.9,6.6,6.9-6.6c19.2-18.3,42.3-21.1,69-24.4,26.8-3.3,57.2-7,84.3-29.4,15-12.4,26.1-25.9,33-40a88.75787,88.75787,0,0,0,8.8-40.6c-.6-25.6-11.3-49.1-20.7-69.9-6.8-14.9-13.1-28.9-13.1-38.9,0-12.2,19.3-44.1,33-62.9l4.9-6.7-5.7-6L335,7.2,328.1,0l-7.3,6.7c-.2.2-22.5,20.1-54,20.1-18.7,0-37.1-7-54.8-20.7l-6.1-4.8-6.1,4.8C182.1,19.9,163.7,26.8,145,26.8c-31.4,0-53.7-19.9-53.9-20.1L83.7,0Z"/><path class="cls-1" d="M377.75,268.3c-.4-19.5-9.4-39.2-18-58.2-5.95618-13.16248-11.684-25.783-14.30518-38.10254H239.21294a33.64852,33.64852,0,0,1-66.4259,0H66.524C63.88933,184.31216,58.1837,196.88717,52.25,210c-8.6,19-17.5,38.7-18,58.2-.5,20.9,9.3,39,30.9,56.8C85.35,341.8,108.95,344.7,133.85,347.7c23.3,2.8,49.1,6,72.3,21.4,23.2-15.4,49-18.6,71.9-21.3,25-3,48.5-5.9,68.8-22.7C368.45,307.3,378.25,289.3,377.75,268.3ZM188.66253,316.31259q-9.36154,11.47722-28.011,11.47723-15.023,0-24.67359-8.06311-9.65212-8.06315-10.73968-22.88178h20.62988q1.23037,6.7555,4.71057,10.42389,3.47763,3.66834,10.14545,3.66834,7.68174,0,11.70319-5.41168,4.021-5.41178,4.02252-13.62012a23.70374,23.70374,0,0,0-3.76825-13.62012q-3.76977-5.557-11.74054-5.557a20.14393,20.14393,0,0,0-6.52148.94434,12.96883,12.96883,0,0,0-7.31958,6.465l-18.55866-.87171,7.39117-58.18512h57.95105v17.579H150.86925L147.1,261.68685a43.16439,43.16439,0,0,1,7.47088-4.1405,31.604,31.604,0,0,1,10.95459-1.67072,32.87432,32.87432,0,0,1,22.77686,8.78949q9.72171,8.78952,9.72174,25.56952A40.14284,40.14284,0,0,1,188.66253,316.31259Zm88.84661,1.19854q-9.25258,10.13343-27.39459,10.13336-22.35059,0-31.05786-14.6007-4.57333-7.77257-5.08081-20.33942h20.33936a23.71222,23.71222,0,0,0,2.0299,10.46027q3.76667,7.62726,13.69574,7.62725a15.15531,15.15531,0,0,0,10.61664-4.17681q4.52948-4.17682,4.53-12.022,0-10.38757-8.40009-13.87433-4.78069-1.96132-15.06286-1.9613V263.93875q10.06229-.14531,14.04388-1.96131,6.87662-3.05089,6.87665-12.34888a13.82234,13.82234,0,0,0-3.514-9.80651q-3.514-3.77729-9.88916-3.77729-7.31707,0-10.75891,4.649-3.44285,4.64895-3.29608,12.42151H215.86449a51.98948,51.98948,0,0,1,2.68469-14.8913,33.50521,33.50521,0,0,1,7.98242-11.40454,27.77854,27.77854,0,0,1,9.65009-5.666,41.72506,41.72506,0,0,1,13.7149-1.96125q15.09266,0,24.34473,7.80884,9.251,7.80889,9.25159,20.95679a23.17347,23.17347,0,0,1-5.52069,15.69037,18.85981,18.85981,0,0,1-7.2641,5.44806q2.833,0,8.1358,4.86694,7.91629,7.33666,7.91779,20.04877A33.79045,33.79045,0,0,1,277.50914,317.51113Z"/><path class="cls-2" d="M165.945,85.81106c-6.12012,0-10.89228,4.26807-10.89228,11.11761,0,6.962,4.82843,11.11768,10.89228,11.11768,5.9519,0,10.83654-4.15564,10.83654-11.11768C176.78154,90.07913,172.0089,85.81106,165.945,85.81106Z"/><path class="cls-2" d="M122.21038,85.64376h-5.95191V95.8619h5.95191c3.64965,0,6.23205-1.17828,6.23205-5.10907C128.44243,86.59719,125.80382,85.64376,122.21038,85.64376Z"/><path class="cls-2" d="M373.25,92.1,324.85,41c-13.1,7.7-33.3,17-58,17a112.34567,112.34567,0,0,1-60.9-17.4c-19.4,12.3-39.9,20.6-60.9,20.6-24.7,0-44.9-10.9-58-18.6L38.75,91.8c2.8,4.2,5.9,9.1,9,14.3,18.2,30.4,20.3,44.5,20.3,52.5,0,1.13092-.04255,2.26355-.1117,3.39746H172.67192a33.64357,33.64357,0,0,1,66.65613,0H344.04668c-.06207-1.06757-.09668-2.13342-.09668-3.19745,0-8,2.1-22.1,20.3-52.5C367.35,101,370.45,96.3,373.25,92.1ZM138.32463,116.52487H128.10558L121.87352,104.228h-5.615v12.29688h-9.93792V77.27676h17.63037c9.03979,0,14.71057,4.66113,14.71057,13.47607,0,5.8952-2.69531,10.05084-7.29932,12.07105Zm27.62037.84191c-11.90332,0-21.11133-8.19793-21.11133-20.43811,0-12.296,9.208-20.49383,21.11133-20.49383,11.8471,0,20.99939,8.19787,20.99939,20.49383C186.94439,109.16885,177.7921,117.36678,165.945,117.36678Zm65.4602-17.29351c0,9.9375-5.50262,17.29351-17.799,17.29351s-17.85474-7.356-17.85474-17.29351V77.27676h9.93793v22.908c0,5.3349,3.088,7.97308,7.91681,7.97308s7.8606-2.63818,7.8606-7.97308v-22.908h9.93841Zm39.1297-14.42951H259.41771v30.88111h-9.938V85.64376h-11.0614v-8.367H270.5349Zm35.14453,0h-17.911V92.998H300.851v7.80572H287.76842v7.35419h17.911v8.367H277.83049V77.27676h27.84894Z"/><path class="cls-2" d="M224.6804,162.82607l-1.05664-6.6419c-.30194-2.11334-1.13214-3.84925-1.81146-3.84925s-1.20758,1.73591-1.20758,3.92475v1.736a3.89792,3.89792,0,0,1-3.92481,3.92474h-1.6228v-2.7362a3.00883,3.00883,0,0,0-3-3H199.94285a3.00879,3.00879,0,0,0-3,3v2.7362H195.32a3.89791,3.89791,0,0,1-3.92474-3.92474v-1.736c0-2.18884-.52832-3.92475-1.20765-3.92475s-1.50952,1.73591-1.8114,3.84925l-1.05664,6.6419a3.19937,3.19937,0,0,0,3.24542,3.84931h6.37787v15.1897a3.00879,3.00879,0,0,0,3,3h12.11426a3.00883,3.00883,0,0,0,3-3v-15.1897h6.37781A3.19938,3.19938,0,0,0,224.6804,162.82607Z"/></svg>