<?xml version="1.0" encoding="utf-8"?>
<!-- Generator: Adobe Illustrator 23.0.4, SVG Export Plug-In . SVG Version: 6.00 Build 0)  -->
<svg version="1.1" id="Layer_1" xmlns="http://www.w3.org/2000/svg" xmlns:xlink="http://www.w3.org/1999/xlink" x="0px" y="0px"
	 viewBox="0 0 100.1 100.1" style="enable-background:new 0 0 100.1 100.1;" xml:space="preserve">
<style type="text/css">
	.st0{fill:#3D98D3;}
	.st1{fill:#99A3A8;}
	.st2{fill:#FFFFFF;}
</style>
<title>route-53-global-dns-logo</title>
<path class="st0" d="M74,39.7c-1-3.8-4-6.3,0.6-16.7l-10.2-10c0,0-6.5,7.1-14.5,0.4c-7.9,6.6-14.5-0.4-14.5-0.4L25.4,23
	C30.1,33.5,27,36,26.1,39.7C23.1,51.6,30.6,59,39.9,58c7.3-0.8,10.2,5,10.2,5s2.9-5.8,10.2-5C69.5,59,77,51.6,74,39.7z"/>
<g>
	<path class="st1" d="M15.6,74.3H20c2.3,0,3.7,1.2,3.7,3.4c0,1.5-0.7,2.6-2,3.1l1.9,3.7h-2.3L19.5,81h-1.7v3.5h-2.2V74.3z
		 M19.6,79.2c1.1,0,1.8-0.4,1.8-1.5c0-1.2-0.8-1.5-1.8-1.5h-1.8v3H19.6z"/>
	<path class="st1" d="M24.4,79.4c0-3.2,2.4-5.3,5.5-5.3c3.1,0,5.4,2.1,5.4,5.3c0,3.2-2.4,5.3-5.4,5.3C26.8,84.7,24.4,82.6,24.4,79.4
		z M33.1,79.4c0-2-1.4-3.3-3.2-3.3c-1.8,0-3.2,1.3-3.2,3.3c0,2,1.4,3.3,3.2,3.3C31.6,82.7,33.1,81.4,33.1,79.4z"/>
	<path class="st1" d="M36.5,80.4v-6.1h2.2v6.1c0,1.5,0.9,2.3,2.3,2.3c1.4,0,2.3-0.8,2.3-2.3v-6.1h2.2v6.1c0,2.5-1.4,4.3-4.5,4.3
		C37.9,84.7,36.5,82.9,36.5,80.4z"/>
	<path class="st1" d="M49.4,76.1h-3v-1.9h8.2v1.9h-3v8.4h-2.2V76.1z"/>
	<path class="st1" d="M55.6,74.3h7.1v1.9h-4.9v2.4h3.6v1.8h-3.6v2.4h4.9v1.9h-7.1V74.3z"/>
	<path class="st1" d="M68.6,84v-1.9c0.9,0.6,2,0.9,3,0.9c1.5,0,2.3-0.6,2.3-1.7c0-1.1-0.8-1.7-2.2-1.7c-0.7,0-1.5,0.1-2.1,0.4
		l-0.9-0.5l0.4-5.1h6.3v1.8h-4.2l-0.2,2c0.5-0.1,1-0.2,1.6-0.2c2.2,0,3.4,1.2,3.4,3.3c0,2.2-1.4,3.5-4.4,3.5
		C70.5,84.7,69.4,84.4,68.6,84z"/>
	<path class="st1" d="M77.1,84.1v-1.7c1,0.5,2,0.6,3,0.6c1.6,0,2.3-0.5,2.3-1.5c0-1-0.8-1.4-2.3-1.4h-1.3v-1.7H80c1.2,0,2-0.4,2-1.4
		c0-0.9-0.7-1.4-1.8-1.4c-1.1,0-2,0.3-2.9,0.8v-1.8c0.9-0.5,2-0.8,3.2-0.8c2.6,0,3.8,1.2,3.8,3c0,0.9-0.5,1.8-1.4,2.3
		c1.2,0.4,1.7,1.2,1.7,2.3c0,1.8-1.1,3.1-4.2,3.1C79.2,84.7,77.9,84.5,77.1,84.1z"/>
</g>
<g>
	<path class="st2" d="M38.3,45.2v-2.9c1.3,0.9,3.1,1.3,4.5,1.3c2.3,0,3.5-0.9,3.5-2.7c0-1.7-1.2-2.6-3.3-2.6c-1,0-2.3,0.2-3.2,0.6
		l-1.4-0.8l0.6-7.8h9.6V33h-6.4l-0.2,3c0.7-0.2,1.6-0.3,2.5-0.3c3.3,0,5.2,1.9,5.2,5c0,3.4-2.2,5.4-6.8,5.4
		C41.3,46.2,39.5,45.8,38.3,45.2z"/>
	<path class="st2" d="M51.3,45.3v-2.6c1.5,0.7,3.1,1,4.5,1c2.4,0,3.5-0.8,3.5-2.2c0-1.5-1.2-2.1-3.5-2.1h-2.1v-2.6h2
		c1.9,0,3.1-0.7,3.1-2.1c0-1.4-1.1-2.1-2.8-2.1c-1.7,0-3,0.4-4.4,1.3v-2.7c1.3-0.7,3-1.2,4.9-1.2c4,0,5.8,1.8,5.8,4.6
		c0,1.4-0.7,2.7-2.2,3.5c1.8,0.6,2.6,1.9,2.6,3.6c0,2.8-1.7,4.7-6.4,4.7C54.5,46.2,52.6,45.9,51.3,45.3z"/>
</g>
</svg>
