<?xml version="1.0" encoding="utf-8"?>
<!-- Generator: Adobe Illustrator 19.2.1, SVG Export Plug-In . SVG Version: 6.00 Build 0)  -->
<svg version="1.1" id="Layer_1" xmlns="http://www.w3.org/2000/svg" xmlns:xlink="http://www.w3.org/1999/xlink" x="0px" y="0px"
	 viewBox="0 0 100 100" style="enable-background:new 0 0 100 100;" xml:space="preserve">
<style type="text/css">
	.st0{fill:#DFEFF9;stroke:#3498DB;stroke-width:1.3888;stroke-miterlimit:10;}
	.st1{fill:#666666;}
	.st2{fill:#F8E0E0;}
	.st3{fill:#C70000;}
	.st4{fill:#F4CCCC;}
</style>
<g>
	<g>
		<path class="st2" d="M28.1,61.5c-3.2,0-5.9-0.5-7.8-1.4c-0.2-0.1-0.4-0.4-0.4-0.6c0-5.5,4.4-26.8,18.5-47.1
			c0.1-0.2,0.4-0.3,0.6-0.3c0.1,0,0.2,0,0.3,0.1c0.3,0.2,0.4,0.6,0.3,0.9C30.2,33,27.3,46.1,30.9,51.7c1.5,2.3,4.1,3.4,8,3.4
			c3.7,0,7.8-1,11.5-1.8c1.3-0.3,2.5-0.6,3.6-0.8c0,0,0.1,0,0.1,0c0.3,0,0.5,0.2,0.7,0.5c0.1,0.3,0,0.7-0.3,0.9
			C46.5,58.4,36.2,61.5,28.1,61.5z"/>
		<g>
			<path class="st3" d="M38.9,12.7c-16.7,36-10.1,43.2,0,43.2c5,0,10.9-1.8,15.2-2.6c-8,4.7-18.3,7.6-26,7.6c-3,0-5.6-0.4-7.5-1.4
				C20.6,53.2,25.5,32,38.9,12.7 M54.2,53.2L54.2,53.2 M38.9,11.3c-0.4,0-0.9,0.2-1.2,0.6C24.6,30.8,19.2,52.2,19.2,59.4
				c0,0.5,0.3,1,0.8,1.3c2.1,1,4.8,1.5,8.1,1.5c8.1,0,18.6-3,26.7-7.7c0.4-0.2,0.7-0.7,0.7-1.2c0-0.8-0.6-1.4-1.4-1.4c0,0,0,0,0,0
				c0,0-0.1,0-0.1,0c-0.1,0-0.1,0-0.2,0c-1.1,0.2-2.3,0.5-3.6,0.8c-3.6,0.8-7.7,1.8-11.3,1.8c-3.7,0-6.1-1-7.4-3.1
				c-3.4-5.4-0.5-18.2,8.7-38.1c0.3-0.7,0.1-1.4-0.6-1.8C39.4,11.3,39.2,11.3,38.9,11.3L38.9,11.3z M38.9,14.1L38.9,14.1L38.9,14.1
				L38.9,14.1z"/>
		</g>
	</g>
	<g>
		<path class="st2" d="M79.4,53.7c-0.2,0-0.4-0.1-0.6-0.3C66.5,35.2,56.9,26.1,50.3,26.1c-6.5,0-9.3,8.8-11.6,15.9
			c-0.4,1.2-0.8,2.4-1.2,3.5c-0.1,0.3-0.4,0.5-0.7,0.5c0,0-0.1,0-0.1,0c-0.3-0.1-0.6-0.4-0.6-0.7c0.2-13.4,5.8-28.3,12.3-32.5
			c0.1-0.1,0.3-0.1,0.4-0.1c0.1,0,0.2,0,0.4,0.1c4.7,2.8,20.7,17.5,30.9,40.1c0.1,0.3,0,0.7-0.3,0.9C79.6,53.7,79.5,53.7,79.4,53.7z
			"/>
		<g>
			<path class="st3" d="M48.8,13.2c5.3,3.2,20.9,18.3,30.6,39.7C65.3,32.2,56.3,25.4,50.3,25.4c-8.2,0-10.9,12.7-13.4,19.9
				C37,32.4,42.3,17.5,48.8,13.2 M48.8,11.8c-0.3,0-0.5,0.1-0.8,0.2c-6.7,4.4-12.4,19.3-12.6,33.1c0,0.7,0.5,1.3,1.2,1.4
				c0.1,0,0.2,0,0.2,0c0.6,0,1.1-0.4,1.3-0.9c0.4-1.1,0.8-2.3,1.2-3.5c2.2-6.9,5-15.4,11-15.4c6.4,0,15.8,9.1,28,27
				c0.3,0.4,0.7,0.6,1.2,0.6c0.2,0,0.5-0.1,0.7-0.2c0.6-0.4,0.9-1.1,0.6-1.8c-9.5-21-25-36.7-31.2-40.4C49.3,11.9,49,11.8,48.8,11.8
				L48.8,11.8z"/>
		</g>
	</g>
	<g>
		<path class="st2" d="M45.1,69.4c-6.7,0-13.2-0.6-19.5-1.7C25.3,67.7,25,67.4,25,67c0-0.4,0.3-0.6,0.7-0.6c0,0,0.4,0,0.4,0
			c22.8,0,35.8-3.1,38.7-9.1c2.6-5.3-2.8-12.2-7.1-17.7c-0.8-1-1.6-2-2.2-2.9c-0.2-0.3-0.2-0.7,0.1-0.9c0.1-0.1,0.3-0.2,0.5-0.2
			c0.1,0,0.3,0,0.4,0.1c11,7.7,20.1,20.7,20,28.4c0,0.3-0.2,0.5-0.4,0.6C72.2,66.6,60.4,69.4,45.1,69.4z"/>
		<g>
			<path class="st3" d="M56.1,36.2C66.7,43.6,76,56.4,75.8,64.1c-4,1.8-15.9,4.6-30.7,4.6c-6.1,0-12.7-0.5-19.4-1.6
				c0.1,0,0.3,0,0.4,0C85.1,67.1,63.9,46.9,56.1,36.2 M56.1,34.8c-0.4,0-0.7,0.1-1,0.4c-0.5,0.5-0.5,1.3-0.1,1.8
				c0.7,0.9,1.4,1.9,2.2,2.9c4.2,5.4,9.4,12.1,7,17c-2.8,5.8-15.6,8.7-38.1,8.7l-0.4,0c0,0,0,0,0,0c-0.7,0-1.3,0.6-1.4,1.3
				c-0.1,0.7,0.4,1.4,1.2,1.5c6.3,1.1,12.9,1.7,19.6,1.7c15.3,0,27.3-2.9,31.3-4.7c0.5-0.2,0.8-0.7,0.8-1.2c0.1-8.1-9-21.1-20.3-29
				C56.7,34.9,56.4,34.8,56.1,34.8L56.1,34.8z"/>
		</g>
	</g>
</g>
<g>
	<path class="st1" d="M38.1,81.5c-0.1,0.1-0.1,0.2-0.2,0.2c-0.1,0-0.1,0.1-0.3,0.1c-0.1,0-0.2,0-0.3-0.1c-0.1-0.1-0.2-0.1-0.4-0.2
		c-0.2-0.1-0.3-0.2-0.5-0.2c-0.2-0.1-0.4-0.1-0.7-0.1c-0.5,0-0.8,0.1-1,0.3c-0.2,0.2-0.3,0.5-0.3,0.8c0,0.2,0.1,0.4,0.2,0.5
		c0.1,0.1,0.3,0.3,0.5,0.4c0.2,0.1,0.4,0.2,0.7,0.3c0.3,0.1,0.5,0.2,0.8,0.3c0.3,0.1,0.5,0.2,0.8,0.3c0.3,0.1,0.5,0.3,0.7,0.5
		s0.4,0.4,0.5,0.7c0.1,0.3,0.2,0.6,0.2,1c0,0.4-0.1,0.9-0.2,1.2c-0.2,0.4-0.4,0.7-0.7,1c-0.3,0.3-0.6,0.5-1.1,0.7
		c-0.4,0.2-0.9,0.2-1.5,0.2c-0.3,0-0.6,0-0.9-0.1c-0.3-0.1-0.6-0.1-0.9-0.3c-0.3-0.1-0.6-0.2-0.8-0.4c-0.3-0.2-0.5-0.3-0.7-0.5
		l0.6-1c0.1-0.1,0.1-0.1,0.2-0.2c0.1,0,0.2-0.1,0.3-0.1c0.1,0,0.2,0,0.4,0.1c0.1,0.1,0.3,0.2,0.5,0.3c0.2,0.1,0.4,0.2,0.6,0.3
		c0.2,0.1,0.5,0.1,0.8,0.1c0.5,0,0.8-0.1,1.1-0.3c0.3-0.2,0.4-0.5,0.4-1c0-0.2-0.1-0.4-0.2-0.6c-0.1-0.2-0.3-0.3-0.5-0.4
		c-0.2-0.1-0.4-0.2-0.7-0.3c-0.3-0.1-0.5-0.2-0.8-0.2c-0.3-0.1-0.5-0.2-0.8-0.3c-0.3-0.1-0.5-0.3-0.7-0.5c-0.2-0.2-0.4-0.5-0.5-0.8
		c-0.1-0.3-0.2-0.7-0.2-1.1c0-0.4,0.1-0.7,0.2-1.1c0.1-0.3,0.4-0.6,0.6-0.9c0.3-0.3,0.6-0.5,1-0.6c0.4-0.2,0.9-0.2,1.4-0.2
		c0.6,0,1.1,0.1,1.6,0.3c0.5,0.2,0.9,0.4,1.3,0.8L38.1,81.5z"/>
	<path class="st1" d="M48.5,89.3H47c-0.2,0-0.3,0-0.4-0.1c-0.1-0.1-0.2-0.2-0.2-0.3L45.6,87h-3.9l-0.7,1.9c0,0.1-0.1,0.2-0.2,0.3
		c-0.1,0.1-0.3,0.1-0.4,0.1h-1.6l3.8-9.7h2.1L48.5,89.3z M45.1,85.6l-1.1-3c-0.1-0.2-0.1-0.3-0.2-0.6c-0.1-0.2-0.1-0.4-0.2-0.7
		c-0.1,0.3-0.1,0.5-0.2,0.7c-0.1,0.2-0.1,0.4-0.2,0.6l-1,3H45.1z"/>
	<path class="st1" d="M60.1,79.6v9.7h-1.8v-6c0-0.1,0-0.3,0-0.4c0-0.1,0-0.3,0-0.4l-2.8,5.3c-0.2,0.3-0.4,0.4-0.7,0.4h-0.3
		c-0.2,0-0.3,0-0.4-0.1c-0.1-0.1-0.2-0.2-0.3-0.3l-2.8-5.3c0,0.2,0,0.3,0,0.5s0,0.3,0,0.4v6h-1.8v-9.7h1.5c0.1,0,0.2,0,0.2,0
		c0.1,0,0.1,0,0.2,0s0.1,0.1,0.1,0.1c0,0,0.1,0.1,0.1,0.2l2.7,5.2c0.1,0.2,0.2,0.3,0.2,0.5c0.1,0.2,0.1,0.3,0.2,0.5
		c0.1-0.2,0.1-0.4,0.2-0.5c0.1-0.2,0.2-0.3,0.2-0.5l2.7-5.2c0-0.1,0.1-0.1,0.1-0.2c0,0,0.1-0.1,0.1-0.1c0.1,0,0.1,0,0.2,0
		s0.1,0,0.2,0H60.1z"/>
	<path class="st1" d="M67.9,87.7v1.6h-5.8v-9.7h2v8.1H67.9z"/>
</g>
</svg>
