<svg xmlns="http://www.w3.org/2000/svg" viewBox="0 0 200 100" width="200" height="100">
	<style>
		tspan { white-space:pre }
		.shp0 { fill: #231f20 } 
		.shp1 { fill: #fc461e } 
	</style>
	<g id="Layer">
		<path id="Layer" class="shp0" d="M58.99 56.45C58.39 56.45 57.78 56.39 57.18 56.28C56.58 56.17 56.02 56.02 55.48 55.83C54.95 55.63 54.49 55.4 54.13 55.12L55.14 52.86C55.72 53.25 56.37 53.53 57.03 53.72C57.7 53.91 58.37 54 59.03 54C59.72 54 60.26 53.91 60.6 53.72C60.97 53.53 61.14 53.27 61.14 52.95C61.14 52.75 61.08 52.58 60.95 52.43C60.82 52.28 60.58 52.13 60.24 52C59.89 51.87 59.4 51.74 58.77 51.59C57.89 51.42 57.18 51.23 56.6 50.99C56.02 50.75 55.57 50.49 55.25 50.19C54.92 49.89 54.69 49.55 54.56 49.18C54.43 48.82 54.37 48.39 54.37 47.91C54.37 47.18 54.58 46.52 54.99 45.91C55.42 45.33 56 44.86 56.75 44.52C57.51 44.17 58.39 44 59.38 44C59.96 44 60.54 44.06 61.1 44.17C61.66 44.28 62.19 44.43 62.67 44.62C63.14 44.82 63.55 45.05 63.85 45.33L62.86 47.59C62.32 47.2 61.74 46.92 61.16 46.73C60.56 46.54 59.98 46.45 59.4 46.45C58.82 46.45 58.34 46.56 58 46.77C57.66 46.99 57.46 47.29 57.46 47.68C57.46 47.85 57.53 48.02 57.63 48.17C57.76 48.32 57.98 48.45 58.32 48.58C58.67 48.71 59.18 48.86 59.87 48.99C60.71 49.16 61.42 49.35 61.98 49.61C62.54 49.85 62.99 50.13 63.31 50.43C63.63 50.73 63.87 51.08 64 51.44C64.13 51.81 64.22 52.22 64.22 52.67C64.22 53.44 64 54.13 63.59 54.69C63.18 55.25 62.58 55.7 61.81 56C61.05 56.3 60.11 56.45 58.99 56.45Z" />
		<path id="Layer" fill-rule="evenodd" class="shp0" d="M69.31 56.43C68.58 56.43 67.91 56.26 67.33 55.89C66.75 55.53 66.3 55.01 65.98 54.34C65.66 53.68 65.48 52.88 65.48 52C65.48 51.1 65.66 50.3 65.98 49.61C66.3 48.92 66.75 48.39 67.33 48C67.91 47.61 68.56 47.42 69.31 47.42C69.98 47.42 70.56 47.59 71.1 47.91C71.47 48.14 71.75 48.42 71.96 48.74L71.96 47.68L74.99 47.68L74.99 56.34L71.96 56.34L71.96 55.2C71.75 55.52 71.46 55.79 71.1 56.02C70.58 56.34 69.96 56.43 69.31 56.43ZM71.96 48.74L71.96 49.31L72.17 49.18C72.11 49.03 72.04 48.88 71.96 48.74ZM71.96 55.2C72.04 55.06 72.12 54.91 72.17 54.75L71.96 54.75L71.96 55.2ZM70.26 54.13C70.8 54.13 71.2 53.94 71.51 53.57C71.81 53.2 71.96 52.65 71.96 51.96C71.96 51.23 71.81 50.69 71.51 50.3C71.2 49.94 70.8 49.74 70.24 49.74C69.7 49.74 69.29 49.94 68.97 50.32C68.65 50.71 68.52 51.27 68.52 51.98C68.52 52.67 68.67 53.2 68.97 53.57C69.27 53.94 69.7 54.13 70.26 54.13Z" />
		<path id="Layer" class="shp0" d="M76.67 56.3L76.67 50.11C76.67 49.7 76.67 49.29 76.65 48.86C76.62 48.43 76.58 48.02 76.54 47.61L79.44 47.61L79.66 49.25L79.44 49.12C79.7 48.58 80.06 48.15 80.56 47.85C81.05 47.55 81.63 47.4 82.32 47.4C83.1 47.4 83.72 47.59 84.17 48C84.62 48.41 84.95 49.01 85.08 49.81L84.67 49.27C84.95 48.71 85.35 48.26 85.91 47.91C86.45 47.57 87.05 47.4 87.72 47.4C88.73 47.4 89.48 47.7 89.96 48.32C90.43 48.95 90.67 49.87 90.67 51.12L90.67 56.28L87.57 56.28L87.57 51.2C87.57 50.71 87.51 50.34 87.35 50.11C87.2 49.87 86.95 49.76 86.58 49.76C86.15 49.76 85.81 49.91 85.57 50.24C85.33 50.56 85.2 51.01 85.2 51.59L85.2 56.3L82.11 56.3L82.11 51.23C82.11 50.73 82.02 50.37 81.87 50.13C81.72 49.89 81.46 49.78 81.1 49.78C80.67 49.78 80.32 49.94 80.11 50.26C79.87 50.58 79.76 51.03 79.76 51.61L79.76 56.32L76.67 56.32L76.67 56.3Z" />
		<path id="Layer" fill-rule="evenodd" class="shp0" d="M92.39 56.3L92.39 43.74L95.48 43.74L95.48 48.69C95.68 48.38 95.97 48.11 96.32 47.89C96.84 47.57 97.44 47.4 98.11 47.4C98.86 47.4 99.53 47.59 100.09 47.96C100.67 48.32 101.12 48.86 101.44 49.53C101.76 50.19 101.94 50.99 101.94 51.89C101.94 52.8 101.76 53.59 101.44 54.28C101.12 54.97 100.67 55.48 100.09 55.87C99.51 56.26 98.86 56.45 98.11 56.45C97.44 56.45 96.84 56.3 96.32 56C95.95 55.78 95.66 55.5 95.46 55.17L95.46 56.3L92.39 56.3ZM95.48 48.69C95.39 48.83 95.32 48.98 95.27 49.14L95.48 49.51L95.48 48.69ZM95.46 55.17L95.46 54.28L95.27 54.73C95.32 54.88 95.38 55.03 95.46 55.17ZM97.16 54.13C97.7 54.13 98.13 53.94 98.41 53.55C98.69 53.16 98.84 52.6 98.84 51.87C98.84 51.18 98.69 50.65 98.41 50.28C98.13 49.91 97.7 49.72 97.14 49.72C96.58 49.72 96.15 49.91 95.87 50.3C95.57 50.69 95.42 51.23 95.42 51.91C95.42 52.65 95.57 53.18 95.87 53.57C96.17 53.94 96.6 54.13 97.16 54.13Z" />
		<path id="Layer" fill-rule="evenodd" class="shp0" d="M106.65 56.43C105.91 56.43 105.25 56.26 104.67 55.89C104.09 55.53 103.63 55.01 103.31 54.34C102.99 53.68 102.82 52.88 102.82 52C102.82 51.1 102.99 50.3 103.31 49.61C103.63 48.92 104.09 48.39 104.67 48C105.25 47.61 105.89 47.42 106.65 47.42C107.31 47.42 107.89 47.59 108.43 47.91C108.81 48.14 109.09 48.42 109.29 48.74L109.29 47.68L112.32 47.68L112.32 56.34L109.29 56.34L109.29 55.2C109.08 55.52 108.79 55.79 108.43 56.02C107.89 56.28 107.31 56.43 106.65 56.43ZM109.29 48.74L109.29 49.31L109.51 49.18C109.45 49.03 109.38 48.88 109.29 48.74ZM109.29 55.2C109.38 55.06 109.45 54.91 109.51 54.75L109.29 54.75L109.29 55.2ZM107.59 54.13C108.13 54.13 108.54 53.94 108.84 53.57C109.14 53.2 109.29 52.65 109.29 51.96C109.29 51.23 109.14 50.69 108.84 50.3C108.54 49.94 108.13 49.74 107.57 49.74C107.03 49.74 106.62 49.94 106.3 50.32C105.98 50.71 105.85 51.27 105.85 51.98C105.85 52.67 106 53.2 106.3 53.57C106.62 53.94 107.03 54.13 107.59 54.13Z" />
		<path id="Layer" fill-rule="evenodd" class="shp1" d="M114.06 56.3L114.06 44.15L119.96 44.15C121.23 44.15 122.24 44.43 122.99 45.01C123.74 45.57 124.13 46.34 124.13 47.31C124.13 47.98 123.94 48.56 123.57 49.05C123.25 49.49 122.78 49.81 122.22 50.02C122.91 50.22 123.44 50.56 123.83 51.03C124.26 51.55 124.47 52.22 124.47 52.99C124.47 54 124.09 54.8 123.31 55.4C122.54 56 121.46 56.3 120.13 56.3L114.06 56.3ZM122.22 50.02C122.15 50 122.08 49.97 122 49.96L122 50.09C122.08 50.06 122.15 50.04 122.22 50.02ZM117.18 48.9L119.42 48.9C120 48.9 120.45 48.82 120.71 48.62C120.99 48.45 121.12 48.15 121.12 47.76C121.12 47.33 120.99 47.03 120.71 46.86C120.43 46.69 120 46.58 119.42 46.58L117.18 46.58L117.18 48.9ZM117.18 53.87L119.74 53.87C120.37 53.87 120.8 53.78 121.05 53.59C121.31 53.4 121.46 53.08 121.46 52.62C121.46 52.17 121.33 51.85 121.08 51.63C120.82 51.44 120.37 51.33 119.74 51.33L117.18 51.33L117.18 53.87Z" />
		<path id="Layer" fill-rule="evenodd" class="shp1" d="M130.41 56.43C129.44 56.43 128.58 56.26 127.87 55.89C127.16 55.53 126.6 55.01 126.22 54.32C125.83 53.66 125.63 52.84 125.63 51.91C125.63 50.99 125.83 50.19 126.22 49.53C126.6 48.86 127.14 48.32 127.87 47.96C128.58 47.59 129.42 47.4 130.41 47.4C131.35 47.4 132.19 47.59 132.9 47.96C133.61 48.32 134.17 48.86 134.56 49.53C134.95 50.19 135.14 51.01 135.14 51.91C135.14 52.84 134.95 53.66 134.56 54.32C134.17 54.99 133.61 55.53 132.9 55.89C132.19 56.24 131.35 56.43 130.41 56.43ZM130.41 54.13C130.95 54.13 131.35 53.96 131.66 53.59C131.94 53.25 132.09 52.67 132.09 51.89C132.09 51.14 131.94 50.58 131.66 50.22C131.38 49.87 130.95 49.68 130.41 49.68C129.85 49.68 129.42 49.85 129.14 50.22C128.86 50.56 128.71 51.12 128.71 51.89C128.71 52.67 128.86 53.23 129.14 53.59C129.42 53.96 129.85 54.13 130.41 54.13Z" />
		<path id="Layer" class="shp1" d="M138.47 56.3L134.88 56.3L138.58 51.83L140.32 49.72L141.91 47.63L145.57 47.63L142.06 51.83L140.3 53.98L138.47 56.3ZM142.15 56.3L140.32 53.98L138.58 51.83L135.1 47.63L138.71 47.63L140.32 49.72L142.09 51.83L145.78 56.3L142.15 56.3Z" />
	</g>
</svg>