<?xml version="1.0" encoding="utf-8"?>
<!-- Generator: Adobe Illustrator 19.2.1, SVG Export Plug-In . SVG Version: 6.00 Build 0)  -->
<svg version="1.1" id="Layer_1" xmlns="http://www.w3.org/2000/svg" xmlns:xlink="http://www.w3.org/1999/xlink" x="0px" y="0px"
	 viewBox="0 0 100 100" style="enable-background:new 0 0 100 100;" xml:space="preserve">
<style type="text/css">
	.st0{fill:#FFE4CC;stroke:#FF7A00;stroke-linecap:round;stroke-linejoin:round;stroke-miterlimit:10;}
	.st1{fill:#FFE4CC;}
	.st2{fill:#FF7A00;}
	.st3{fill:#666666;}
</style>
<g>
	<path class="st0" d="M49.3,17.7c1.5-1.5,2.6-4.9,2.6-6.4c0,0,1.4,4,1.1,6.3c0,0,1.6-0.7,2.2-1.8c0,0-0.1,3.8-1.5,6.1
		c0,0,1.2,0.2,1.8-0.6c0,0,0.1,1.5-0.6,2.6l-7.5,16.7l-5.2-13.2L49.3,17.7z"/>
	<path class="st0" d="M33,14.5c8,3.6,15.9-2.2,15.9,3.2c0,0,4.2,0.4,3.3,5.6c0,0-1.9-1.4-3.1-1.2c0,0-6.2,5.1,0,9.4
		c0,0,1.6-4.2,4-6.1c2.3-1.9,7.2-5.6,7.2-5.6s0.5,0.9,0,1.6c0,0,8.5-4.9,9.1-7.2c0,0-0.2,3.5-1.7,5.1c0,0,1.7,0,2.8-1.1
		c0,0-1.2,3.7-3.2,5.4c0,0,1.2,0,1.7-0.4c0,0-2.1,4.4-4.4,5.7c0,0,1.4,0,2.2-0.4c0,0-2.3,2.5-4.7,3.6c0,0,0.9,0.5,1.6,0.4
		c0,0-0.7,1.2-1.7,1.7c0,0,10.4,3.1,10.4,15.7s-9.6,20-20.3,20c-7.7,0-13.5-5-14-6.7c-1.6,0.7-3.8,0.6-4.6-2.3
		c-0.7-3.4-2.1-3.9-3.2-3.9c-1.1,0,2.7-2.7,6.9,0.2c1.9,1.3,1.8,4.8,1.8,4.8s5.1,6.4,14.9,4.6c9.8-1.8,14.1-11.3,9.6-16.3
		c0,0-1.7,3-2.3,4c-0.6,0.9-2,2.8-4,2.2c0,0-2,0.6-3-0.4c0,0-1.9-0.1-1.5-2c0.4-1.9,3.2-3.1,5.6-2.6c0,0,0.2-1.5,1.1-2
		c0,0-1.3,0.4-3.3-1.2L53,48.9l-4.7,4.1l-1.7-0.2c0,0-0.1,0.8,0.9,1.9c0,0-3,0.6-3.2,1.9c-0.2,1.3-1.9,1.2-2.5,0.7
		c0,0-2,0.5-2.7-1.1c0,0-1.2-0.3-1-1.5c0.2-1.2,1.1-2.2,4.8-2c0,0,2.7-1.3,3.7-4.1c0,0-12.8-1.2-12.8-13.7c0-10.4,3.2-13.2,3.2-13.2
		C36.1,20.8,33.9,19.9,33,14.5z"/>
	<path class="st0" d="M37.1,44.2c0,1.9-2.5,5-3.6,5.7c-1.7-0.7-5.9-1.2-5.9,2.2c0,0.6,1.4,1.3,1.8,1c0,0,1.9,2,4.5-0.3
		c1.8-1.6,3-0.7,3.3-0.3c-1.1-1.9-0.4-3.1,3.1-5.7"/>
	<g>
		<path class="st1" d="M29.4,53.1c0-0.8,0.6-1.7,2-1.7"/>
		<path class="st2" d="M28.9,53.1c0,0,0,0,0-0.1c0-0.1,0.1-0.3,0.1-0.4c0.1-0.3,0.4-0.7,0.8-0.9c0.4-0.2,0.8-0.3,1.1-0.3
			c0.3,0,0.5,0,0.5,0s-0.2,0-0.4,0.1c-0.3,0.1-0.6,0.3-0.8,0.5c-0.2,0.2-0.3,0.5-0.3,0.7c0,0.1,0,0.2,0,0.2c0,0.1,0,0.1,0,0.1
			c0,0.3-0.2,0.5-0.4,0.6c-0.3,0-0.5-0.2-0.6-0.4C28.9,53.2,28.9,53.1,28.9,53.1z"/>
	</g>
	<g>
		<path class="st1" d="M39.1,56.2c0-1.1,0.9-2.6,2-2.6"/>
		<path class="st2" d="M38.6,56.1c0,0,0-0.1,0-0.2c0-0.1,0.1-0.3,0.1-0.5c0.1-0.4,0.4-0.8,0.7-1.2c0.3-0.4,0.7-0.6,1.1-0.7
			c0.2-0.1,0.3-0.1,0.4-0.1c0.1,0,0.2,0,0.2,0s-0.2,0-0.5,0.2c-0.3,0.2-0.5,0.5-0.7,0.9c-0.2,0.4-0.3,0.8-0.3,1.1c0,0.2,0,0.2,0,0.3
			c0,0.1,0,0.2,0,0.2c0,0.3-0.2,0.5-0.5,0.5c-0.3,0-0.5-0.2-0.5-0.5C38.6,56.2,38.6,56.2,38.6,56.1z"/>
	</g>
	<g>
		<path class="st1" d="M41.7,57.2c0-0.9-0.2-2,1.1-3.1"/>
		<path class="st2" d="M41.2,57.2c0,0,0-0.2,0.1-0.5c0-0.3,0.1-0.8,0.3-1.3c0.2-0.4,0.5-0.8,0.8-1c0.3-0.2,0.5-0.3,0.5-0.3
			s-0.2,0.2-0.3,0.4c-0.2,0.3-0.4,0.6-0.4,1c-0.1,0.4,0,0.8,0.1,1.1c0.1,0.3,0.1,0.5,0.1,0.5c0,0.3-0.1,0.5-0.4,0.6
			c-0.3,0-0.5-0.1-0.6-0.4C41.2,57.3,41.2,57.3,41.2,57.2L41.2,57.2z"/>
	</g>
	<g>
		<path class="st1" d="M54.3,56.2c-0.4-0.7,0.1-2.3,1.1-2.8"/>
		<path class="st2" d="M53.9,56.4c0,0,0-0.1,0-0.1c0,0,0-0.2-0.1-0.2c0-0.1,0-0.2,0-0.3c0-0.4,0.1-0.9,0.4-1.3
			c0.2-0.4,0.5-0.7,0.8-0.9c0.3-0.2,0.5-0.2,0.5-0.2s-0.2,0.1-0.4,0.3c-0.2,0.2-0.4,0.6-0.5,1c-0.1,0.4-0.1,0.8,0,1
			c0,0.1,0,0.1,0.1,0.1c0,0,0,0,0,0.1c0.1,0.1,0.1,0.1,0.1,0.1c0.2,0.2,0.1,0.5-0.1,0.7c-0.2,0.2-0.5,0.1-0.7-0.1
			C53.9,56.5,53.9,56.5,53.9,56.4z"/>
	</g>
	<g>
		<path class="st1" d="M57.3,56.5c-0.4-1.1,0-2.3,0.9-2.7"/>
		<path class="st2" d="M56.8,56.7c0,0,0,0,0-0.1c0-0.1,0-0.3,0-0.4c0-0.3,0.1-0.8,0.2-1.2c0.2-0.4,0.4-0.7,0.7-0.9
			c0.3-0.2,0.5-0.2,0.5-0.2S58,54,57.8,54.2c-0.2,0.2-0.3,0.6-0.3,0.9c0,0.3,0,0.7,0.1,0.9c0,0.1,0.1,0.2,0.1,0.3
			c0,0.1,0.1,0.1,0.1,0.1c0.1,0.3,0,0.6-0.2,0.7c-0.3,0.1-0.6,0-0.7-0.2C56.8,56.8,56.8,56.7,56.8,56.7z"/>
	</g>
	<g>
		<path class="st1" d="M56.2,48.5c-1.1-1.1-2.1-5.8,1.1-8.7"/>
		<path class="st2" d="M55.8,48.8C55.8,48.8,55.8,48.8,55.8,48.8c-0.1-0.2-0.2-0.2-0.2-0.4c-0.1-0.1-0.2-0.3-0.3-0.5
			c-0.1-0.2-0.2-0.4-0.2-0.6c-0.3-0.9-0.4-2.2-0.2-3.4c0-0.3,0.1-0.6,0.2-0.9c0.1-0.3,0.2-0.6,0.3-0.8c0.2-0.5,0.5-1,0.8-1.3
			c0.3-0.4,0.5-0.6,0.7-0.8c0.2-0.2,0.3-0.3,0.3-0.3s-0.1,0.1-0.3,0.3c-0.2,0.2-0.4,0.5-0.6,0.9c-0.2,0.4-0.4,0.8-0.6,1.4
			c-0.1,0.3-0.2,0.5-0.2,0.8c-0.1,0.3-0.1,0.6-0.1,0.9c-0.1,1.2,0.2,2.3,0.5,3.1c0.1,0.2,0.2,0.4,0.2,0.5c0.1,0.2,0.1,0.2,0.2,0.3
			c0,0.1,0.1,0.2,0.2,0.2c0,0.1,0.1,0.1,0.1,0.1l0,0c0.2,0.2,0.2,0.5,0,0.7C56.3,49.1,56,49.1,55.8,48.8
			C55.8,48.9,55.8,48.8,55.8,48.8z"/>
	</g>
	<g>
		<path class="st1" d="M63.6,50.5c2.3-3.6,2.7-3.8,0.5-7.3"/>
		<path class="st2" d="M63.2,50.3c0,0,0.3-0.4,0.7-1c0.2-0.3,0.5-0.7,0.7-1.1c0.2-0.4,0.5-0.8,0.6-1.3c0.1-0.4,0.1-0.9-0.1-1.4
			c-0.1-0.4-0.3-0.8-0.5-1.2c-0.3-0.7-0.6-1.1-0.6-1.1s0.3,0.4,0.7,1c0.2,0.3,0.5,0.7,0.7,1.2c0.2,0.4,0.3,1,0.3,1.6
			c-0.1,0.6-0.3,1.1-0.5,1.5c-0.2,0.4-0.4,0.8-0.6,1.2c-0.4,0.7-0.6,1.1-0.6,1.1c-0.1,0.2-0.4,0.3-0.7,0.2
			C63.1,50.9,63,50.6,63.2,50.3C63.1,50.3,63.2,50.3,63.2,50.3z"/>
	</g>
	<g>
		<path class="st1" d="M46.5,52.8c1.7-1.7,7.5-6.1,4.9-9.1"/>
		<path class="st2" d="M46.2,52.5c0,0,0.1-0.1,0.4-0.3c0.2-0.2,0.6-0.5,1-0.8c0.8-0.7,1.9-1.6,2.8-2.6c0.4-0.5,0.9-1.1,1.2-1.6
			c0.2-0.3,0.3-0.6,0.4-0.9c0-0.3,0.2-0.6,0.1-0.8c0-0.3,0-0.5-0.1-0.7c-0.1-0.2-0.1-0.4-0.2-0.5c-0.2-0.3-0.2-0.4-0.2-0.4
			s0.1,0.1,0.3,0.4c0.1,0.1,0.2,0.3,0.3,0.5c0.1,0.2,0.1,0.4,0.2,0.7c0.1,0.3,0,0.6-0.1,0.9c-0.1,0.3-0.2,0.6-0.3,0.9
			c-0.3,0.6-0.7,1.2-1.1,1.8c-0.9,1.2-1.9,2.2-2.6,2.9c-0.4,0.4-0.7,0.7-0.9,0.9c-0.2,0.2-0.3,0.4-0.3,0.4c-0.2,0.2-0.5,0.2-0.7,0
			C46,53,46,52.7,46.2,52.5C46.2,52.5,46.2,52.5,46.2,52.5z"/>
	</g>
	<g>
		<path class="st1" d="M46.5,48.5c0.6-0.6,0.9-1.8,0.9-2.5"/>
		<path class="st2" d="M46.2,48.2C46.2,48.2,46.2,48.1,46.2,48.2c0.2-0.1,0.2-0.1,0.3-0.2c0.2-0.2,0.3-0.4,0.5-0.7
			c0.3-0.6,0.5-1.3,0.5-1.3s0.1,0.7,0,1.4c0,0.4-0.1,0.7-0.3,1c-0.1,0.1-0.2,0.3-0.2,0.3c0,0.1-0.1,0.1-0.1,0.1
			c-0.1,0.2-0.5,0.3-0.7,0.2c-0.2-0.1-0.3-0.5-0.2-0.7C46.1,48.2,46.1,48.2,46.2,48.2z"/>
	</g>
	<g>
		<path class="st1" d="M49.2,31.5c0,1.9-1.9,4-2.8,4"/>
		<path class="st2" d="M49.7,31.5c0,0,0,0.1,0,0.2c0,0.1-0.1,0.4-0.2,0.7c-0.2,0.5-0.5,1.1-0.9,1.7c-0.4,0.5-0.9,1-1.4,1.2
			c-0.4,0.3-0.8,0.2-0.8,0.2s0.3,0,0.7-0.4c0.4-0.3,0.8-0.8,1.1-1.4c0.3-0.6,0.5-1.2,0.5-1.6c0-0.2,0-0.3,0-0.5c0-0.1,0-0.2,0-0.2
			c0-0.3,0.2-0.5,0.5-0.5C49.5,30.9,49.7,31.1,49.7,31.5C49.7,31.4,49.7,31.5,49.7,31.5z"/>
	</g>
	<g>
		<path class="st1" d="M36,17.1c0.6,1.6,4.6,0.1,4.7,3.7"/>
		<path class="st2" d="M36,17.1c0,0,0.1,0.1,0.2,0.2c0.1,0.1,0.2,0.1,0.3,0.1c0.1,0,0.2,0.1,0.4,0.1c0.5,0.1,1.4,0.1,2.2,0.3
			c0.2,0.1,0.4,0.2,0.6,0.3c0.2,0.1,0.4,0.3,0.6,0.4c0.2,0.2,0.3,0.4,0.4,0.6c0.1,0.2,0.2,0.4,0.2,0.6c0.1,0.3,0,0.6,0,0.8
			c0,0.2-0.1,0.3-0.1,0.3s-0.1-0.1-0.1-0.3c0-0.1-0.1-0.2-0.1-0.3c-0.1-0.1-0.1-0.2-0.2-0.3c-0.1-0.1-0.2-0.2-0.3-0.4
			c-0.1-0.1-0.2-0.2-0.3-0.3c-0.1-0.1-0.3-0.2-0.4-0.2c-0.1-0.1-0.3-0.1-0.5-0.2c-0.7-0.2-1.5-0.4-2.1-0.8c-0.2-0.1-0.3-0.2-0.4-0.3
			c-0.1-0.1-0.2-0.2-0.2-0.3C36.1,17.2,36,17.1,36,17.1z"/>
	</g>
	<path class="st0" d="M50.4,37.8c2,0,4.4-8.5,4.4-9.8c0.7-0.6,3-1.6,5.3-6.2"/>
	<path class="st0" d="M58.4,24.7c2,0,6.7-1.8,9.3-5.4"/>
	<path class="st0" d="M58.2,28.8c2,0,6.7-1.8,9.3-5.4"/>
	<path class="st0" d="M57.4,31.1c2,0,5-0.7,7.6-2.4"/>
	<path class="st0" d="M51.7,37c1.7,0,3.7-1.7,3.7-2.8c0,0,2.2-0.5,2-3.4c0,0,1.4-1.3,0.6-2.9c0,0,1.8-1.4,1.9-3.4"/>
	<path class="st0" d="M54.6,29.9c0,0,2-0.1,3.3-1.9"/>
	<path class="st0" d="M53.7,32.8c0,0,2.5-0.1,3.6-2"/>
	<path class="st0" d="M52.8,34.5c0,0,1.4,0.3,2.7-0.3"/>
	<path class="st0" d="M54.3,35.9c0.9,0.2,4.9,0.2,7.9-1.8"/>
	<path class="st0" d="M56.2,33.8c1.3,0.1,4.1-0.1,5.7-1.5"/>
	<g>
		<path class="st1" d="M49.4,22c-1.6-0.4-2.8,0.4-5.3,0.4"/>
		<path class="st2" d="M49.3,22.5c0,0-0.1,0-0.2-0.1c-0.1,0-0.3-0.1-0.5-0.1c-0.4-0.1-1.1,0-1.8,0.1c-0.7,0.1-1.3,0.1-1.9,0.1
			c-0.5,0-0.8,0-0.8,0s0.3,0,0.8-0.1c0.5-0.1,1.1-0.2,1.8-0.4c0.6-0.2,1.3-0.4,1.9-0.4c0.3,0,0.5,0,0.7,0c0.1,0,0.2,0,0.2,0
			c0.3,0,0.5,0.3,0.4,0.6C49.9,22.3,49.7,22.5,49.3,22.5C49.4,22.5,49.3,22.5,49.3,22.5z"/>
	</g>
	<g>
		<path class="st1" d="M43.5,17.7c0.7-0.4,2.9,0.5,3.3-0.1"/>
		<path class="st2" d="M43.5,17.7c0,0,0-0.1,0.1-0.1c0.1-0.1,0.2-0.2,0.4-0.2c0.4-0.1,0.8-0.1,1.2-0.1c0.4,0.1,0.8,0.2,1.1,0.3
			c0.1,0,0.2,0.1,0.3,0.1c0.1,0,0.2,0,0.2,0s0,0.1,0,0.2c-0.1,0.1-0.2,0.2-0.4,0.3c-0.4,0.2-0.8,0.2-1.3,0.1
			c-0.4-0.1-0.8-0.2-1.1-0.3c-0.2-0.1-0.2-0.1-0.4-0.1C43.5,17.7,43.5,17.7,43.5,17.7z"/>
	</g>
	<path class="st2" d="M45.6,17.9c0,0.3-0.3,0.6-0.6,0.6c-0.3,0-0.6-0.3-0.6-0.6"/>
</g>
<g>
	<path class="st3" d="M15.3,81.3c-0.1,0.1-0.1,0.2-0.2,0.2c-0.1,0-0.1,0.1-0.2,0.1c-0.1,0-0.2,0-0.3-0.1c-0.1-0.1-0.2-0.1-0.4-0.2
		c-0.1-0.1-0.3-0.2-0.5-0.2C13.5,81,13.2,81,13,81c-0.5,0-0.8,0.1-1,0.3c-0.2,0.2-0.3,0.5-0.3,0.8c0,0.2,0.1,0.4,0.2,0.5
		c0.1,0.1,0.3,0.3,0.5,0.4s0.4,0.2,0.7,0.3c0.3,0.1,0.5,0.2,0.8,0.3s0.5,0.2,0.8,0.3s0.5,0.3,0.7,0.5s0.4,0.4,0.5,0.7
		c0.1,0.3,0.2,0.6,0.2,1c0,0.4-0.1,0.8-0.2,1.2c-0.2,0.4-0.4,0.7-0.6,1c-0.3,0.3-0.6,0.5-1,0.7c-0.4,0.2-0.9,0.2-1.4,0.2
		c-0.3,0-0.6,0-0.9-0.1s-0.6-0.1-0.9-0.3c-0.3-0.1-0.5-0.2-0.8-0.4c-0.2-0.2-0.5-0.3-0.6-0.5l0.6-0.9c0-0.1,0.1-0.1,0.2-0.2
		c0.1,0,0.2-0.1,0.2-0.1c0.1,0,0.2,0,0.4,0.1s0.3,0.2,0.4,0.3c0.2,0.1,0.4,0.2,0.6,0.3c0.2,0.1,0.5,0.1,0.8,0.1
		c0.5,0,0.8-0.1,1.1-0.3c0.2-0.2,0.4-0.5,0.4-0.9c0-0.2-0.1-0.4-0.2-0.6c-0.1-0.1-0.3-0.3-0.5-0.4c-0.2-0.1-0.4-0.2-0.7-0.3
		s-0.5-0.2-0.8-0.2s-0.5-0.2-0.8-0.3c-0.3-0.1-0.5-0.3-0.7-0.5c-0.2-0.2-0.4-0.4-0.5-0.7s-0.2-0.7-0.2-1.1c0-0.4,0.1-0.7,0.2-1
		c0.1-0.3,0.3-0.6,0.6-0.9c0.3-0.3,0.6-0.5,1-0.6c0.4-0.2,0.8-0.2,1.3-0.2c0.6,0,1.1,0.1,1.6,0.3c0.5,0.2,0.9,0.4,1.2,0.7L15.3,81.3
		z"/>
	<path class="st3" d="M25.4,79.5V89h-2v-4.1h-4.2V89h-2v-9.4h2v4h4.2v-4H25.4z"/>
	<path class="st3" d="M29.4,89h-2v-9.4h2V89z"/>
	<path class="st3" d="M34.7,79.5c0.6,0,1.2,0.1,1.6,0.2s0.8,0.3,1.1,0.5s0.5,0.5,0.6,0.8c0.1,0.3,0.2,0.7,0.2,1c0,0.2,0,0.4-0.1,0.6
		s-0.2,0.4-0.3,0.6c-0.1,0.2-0.3,0.3-0.5,0.5c-0.2,0.1-0.5,0.3-0.7,0.4c0.6,0.2,1.1,0.4,1.4,0.7c0.3,0.3,0.5,0.8,0.5,1.3
		c0,0.4-0.1,0.8-0.2,1.1c-0.2,0.3-0.4,0.6-0.7,0.9c-0.3,0.3-0.7,0.4-1.1,0.6C36,88.9,35.6,89,35,89h-3.7v-9.4H34.7z M33.3,81v2.5
		h1.3c0.3,0,0.5,0,0.7-0.1c0.2,0,0.4-0.1,0.5-0.2s0.3-0.2,0.3-0.4c0.1-0.2,0.1-0.4,0.1-0.6c0-0.2,0-0.4-0.1-0.6
		c-0.1-0.2-0.2-0.3-0.3-0.4s-0.3-0.2-0.5-0.2C35.2,81,35,81,34.7,81H33.3z M35,87.5c0.3,0,0.6,0,0.8-0.1c0.2-0.1,0.4-0.2,0.5-0.3
		c0.1-0.1,0.2-0.3,0.3-0.4c0-0.2,0.1-0.3,0.1-0.5c0-0.2,0-0.4-0.1-0.5s-0.1-0.3-0.3-0.4c-0.1-0.1-0.3-0.2-0.5-0.2
		c-0.2-0.1-0.5-0.1-0.7-0.1h-1.7v2.6H35z"/>
	<path class="st3" d="M43.3,79.5c0.6,0,1.2,0.1,1.6,0.2s0.8,0.3,1.1,0.5s0.5,0.5,0.6,0.8c0.1,0.3,0.2,0.7,0.2,1c0,0.2,0,0.4-0.1,0.6
		s-0.2,0.4-0.3,0.6c-0.1,0.2-0.3,0.3-0.5,0.5c-0.2,0.1-0.5,0.3-0.7,0.4c0.6,0.2,1.1,0.4,1.4,0.7c0.3,0.3,0.5,0.8,0.5,1.3
		c0,0.4-0.1,0.8-0.2,1.1c-0.2,0.3-0.4,0.6-0.7,0.9c-0.3,0.3-0.7,0.4-1.1,0.6c-0.4,0.1-0.9,0.2-1.5,0.2H40v-9.4H43.3z M41.9,81v2.5
		h1.3c0.3,0,0.5,0,0.7-0.1c0.2,0,0.4-0.1,0.5-0.2s0.3-0.2,0.3-0.4c0.1-0.2,0.1-0.4,0.1-0.6c0-0.2,0-0.4-0.1-0.6
		c-0.1-0.2-0.2-0.3-0.3-0.4s-0.3-0.2-0.5-0.2c-0.2,0-0.4-0.1-0.7-0.1H41.9z M43.6,87.5c0.3,0,0.6,0,0.8-0.1c0.2-0.1,0.4-0.2,0.5-0.3
		c0.1-0.1,0.2-0.3,0.3-0.4c0-0.2,0.1-0.3,0.1-0.5c0-0.2,0-0.4-0.1-0.5s-0.1-0.3-0.3-0.4c-0.1-0.1-0.3-0.2-0.5-0.2
		c-0.2-0.1-0.5-0.1-0.7-0.1h-1.7v2.6H43.6z"/>
	<path class="st3" d="M57.7,84.2c0,0.7-0.1,1.3-0.3,1.9c-0.2,0.6-0.6,1.1-1,1.5c-0.4,0.4-0.9,0.8-1.5,1c-0.6,0.2-1.3,0.4-2,0.4
		s-1.4-0.1-2-0.4c-0.6-0.2-1.1-0.6-1.5-1c-0.4-0.4-0.8-0.9-1-1.5c-0.2-0.6-0.3-1.2-0.3-1.9c0-0.7,0.1-1.3,0.3-1.9
		c0.2-0.6,0.6-1.1,1-1.5c0.4-0.4,0.9-0.8,1.5-1c0.6-0.2,1.3-0.4,2-0.4s1.4,0.1,2,0.4c0.6,0.2,1.1,0.6,1.5,1c0.4,0.4,0.8,0.9,1,1.5
		C57.6,82.9,57.7,83.6,57.7,84.2z M55.7,84.2c0-0.5-0.1-0.9-0.2-1.3c-0.1-0.4-0.3-0.7-0.6-1c-0.2-0.3-0.5-0.5-0.9-0.6
		c-0.3-0.1-0.7-0.2-1.2-0.2s-0.8,0.1-1.2,0.2s-0.6,0.4-0.9,0.6c-0.2,0.3-0.4,0.6-0.6,1c-0.1,0.4-0.2,0.8-0.2,1.3
		c0,0.5,0.1,0.9,0.2,1.3c0.1,0.4,0.3,0.7,0.6,1c0.2,0.3,0.5,0.5,0.9,0.6c0.4,0.1,0.7,0.2,1.2,0.2s0.8-0.1,1.2-0.2
		c0.3-0.1,0.6-0.4,0.9-0.6c0.2-0.3,0.4-0.6,0.6-1C55.6,85.2,55.7,84.7,55.7,84.2z"/>
	<path class="st3" d="M64.7,87.4V89h-5.6v-9.4h2v7.8H64.7z"/>
	<path class="st3" d="M67.9,81v2.4H71V85h-3.1v2.5h4V89h-6v-9.4h6V81H67.9z"/>
	<path class="st3" d="M80.1,81.1h-2.8V89h-2v-7.9h-2.8v-1.6h7.5V81.1z"/>
	<path class="st3" d="M89.3,79.5V89h-2v-4.1h-4.2V89h-2v-9.4h2v4h4.2v-4H89.3z"/>
</g>
</svg>
