<?xml version="1.0" encoding="utf-8"?>
<!-- Generator: Adobe Illustrator 19.2.1, SVG Export Plug-In . SVG Version: 6.00 Build 0)  -->
<svg version="1.1" id="Layer_1" xmlns="http://www.w3.org/2000/svg" xmlns:xlink="http://www.w3.org/1999/xlink" x="0px" y="0px"
	 viewBox="0 0 100 100" style="enable-background:new 0 0 100 100;" xml:space="preserve">
<style type="text/css">
	.st0{fill:#FFE4CC;stroke:#FF7A00;stroke-linecap:round;stroke-linejoin:round;stroke-miterlimit:10;}
	.st1{fill:#FFE4CC;}
	.st2{fill:#FF7A00;}
</style>
<g>
	<path class="st0" d="M48.8,12.4c2.5-2.5,4.3-8.1,4.3-10.5c0,0,2.3,6.6,1.8,10.4c0,0,2.6-1.2,3.6-3c0,0-0.2,6.2-2.5,10
		c0,0,2,0.3,3-1c0,0,0.2,2.5-1,4.3L45.7,50l-8.5-21.7L48.8,12.4z"/>
	<path class="st0" d="M22.1,7.1c13.2,5.9,26.1-3.6,26.1,5.3c0,0,6.9,0.7,5.4,9.2c0,0-3.1-2.3-5.1-2c0,0-10.2,8.4,0,15.5
		c0,0,2.6-6.9,6.6-10c3.8-3.1,11.8-9.2,11.8-9.2s0.8,1.5,0,2.6c0,0,14-8.1,15-11.8c0,0-0.3,5.8-2.8,8.4c0,0,2.8,0,4.6-1.8
		c0,0-2,6.1-5.3,8.9c0,0,2,0,2.8-0.7c0,0-3.5,7.2-7.2,9.4c0,0,2.3,0,3.6-0.7c0,0-3.8,4.1-7.7,5.9c0,0,1.5,0.8,2.6,0.7
		c0,0-1.2,2-2.8,2.8c0,0,17.1,5.1,17.1,25.8S71,98.2,53.5,98.2c-12.7,0-22.2-8.2-23-11c-2.6,1.2-6.2,1-7.6-3.8
		c-1.2-5.6-3.5-6.4-5.3-6.4s4.4-4.4,11.3,0.3c3.1,2.1,3,7.9,3,7.9s8.4,10.5,24.5,7.6c16.1-3,23.2-18.6,15.8-26.8
		c0,0-2.8,4.9-3.8,6.6c-1,1.5-3.3,4.6-6.6,3.6c0,0-3.3,1-4.9-0.7c0,0-3.1-0.2-2.5-3.3c0.7-3.1,5.3-5.1,9.2-4.3c0,0,0.3-2.5,1.8-3.3
		c0,0-2.1,0.7-5.4-2l-5.1,1l-7.7,6.7l-2.8-0.3c0,0-0.2,1.3,1.5,3.1c0,0-4.9,1-5.3,3.1c-0.3,2.1-3.1,2-4.1,1.2c0,0-3.3,0.8-4.4-1.8
		c0,0-2-0.5-1.6-2.5c0.3-2,1.8-3.6,7.9-3.3c0,0,4.4-2.1,6.1-6.7c0,0-21-2-21-22.5c0-17.1,5.3-21.7,5.3-21.7
		C27.1,17.5,23.5,16,22.1,7.1z"/>
	<path class="st0" d="M28.8,55.9c0,3.1-4.1,8.2-5.9,9.4c-2.8-1.2-9.7-2-9.7,3.6c0,1,2.3,2.1,3,1.6c0,0,3.1,3.3,7.4-0.5
		c3-2.6,4.9-1.2,5.4-0.5c-1.8-3.1-0.7-5.1,5.1-9.4"/>
	<g>
		<path class="st1" d="M16.1,70.5c0-1.3,1-2.8,3.3-2.8"/>
		<path class="st2" d="M15.3,70.5c0,0,0,0,0-0.2c0-0.2,0.2-0.5,0.2-0.7c0.2-0.5,0.7-1.2,1.3-1.5c0.7-0.3,1.3-0.5,1.8-0.5
			c0.5,0,0.8,0,0.8,0s-0.3,0-0.7,0.2c-0.5,0.2-1,0.5-1.3,0.8c-0.3,0.3-0.5,0.8-0.5,1.2c0,0.2,0,0.3,0,0.3c0,0.2,0,0.2,0,0.2
			c0,0.5-0.3,0.8-0.7,1c-0.5,0-0.8-0.3-1-0.7C15.3,70.7,15.3,70.5,15.3,70.5z"/>
	</g>
	<g>
		<path class="st1" d="M32.1,75.6c0-1.8,1.5-4.3,3.3-4.3"/>
		<path class="st2" d="M31.3,75.5c0,0,0-0.2,0-0.3c0-0.2,0.2-0.5,0.2-0.8c0.2-0.7,0.7-1.3,1.2-2c0.5-0.7,1.2-1,1.8-1.2
			C34.7,71,34.9,71,35,71c0.2,0,0.3,0,0.3,0s-0.3,0-0.8,0.3c-0.5,0.3-0.8,0.8-1.2,1.5c-0.3,0.7-0.5,1.3-0.5,1.8c0,0.3,0,0.3,0,0.5
			s0,0.3,0,0.3c0,0.5-0.3,0.8-0.8,0.8C31.6,76.3,31.3,76,31.3,75.5C31.3,75.6,31.3,75.6,31.3,75.5z"/>
	</g>
	<g>
		<path class="st1" d="M36.4,77.3c0-1.5-0.3-3.3,1.8-5.1"/>
		<path class="st2" d="M35.5,77.3c0,0,0-0.3,0.2-0.8c0-0.5,0.2-1.3,0.5-2.1c0.3-0.7,0.8-1.3,1.3-1.6c0.5-0.3,0.8-0.5,0.8-0.5
			s-0.3,0.3-0.5,0.7c-0.3,0.5-0.7,1-0.7,1.6c-0.2,0.7,0,1.3,0.2,1.8c0.2,0.5,0.2,0.8,0.2,0.8c0,0.5-0.2,0.8-0.7,1
			c-0.5,0-0.8-0.2-1-0.7C35.5,77.5,35.5,77.5,35.5,77.3L35.5,77.3z"/>
	</g>
	<g>
		<path class="st1" d="M57.1,75.6c-0.7-1.2,0.2-3.8,1.8-4.6"/>
		<path class="st2" d="M56.4,76v-0.2c0,0,0-0.3-0.2-0.3c0-0.2,0-0.3,0-0.5c0-0.7,0.2-1.5,0.7-2.1c0.3-0.7,0.8-1.2,1.3-1.5
			C58.7,71,59,71,59,71s-0.3,0.2-0.7,0.5c-0.3,0.3-0.7,1-0.8,1.6c-0.2,0.7-0.2,1.3,0,1.6c0,0.2,0,0.2,0.2,0.2c0,0,0,0,0,0.2
			c0.2,0.2,0.2,0.2,0.2,0.2c0.3,0.3,0.2,0.8-0.2,1.2c-0.3,0.3-0.8,0.2-1.2-0.2C56.4,76.1,56.4,76.1,56.4,76z"/>
	</g>
	<g>
		<path class="st1" d="M62,76.1c-0.7-1.8,0-3.8,1.5-4.4"/>
		<path class="st2" d="M61.2,76.5c0,0,0,0,0-0.2s0-0.5,0-0.7c0-0.5,0.2-1.3,0.3-2c0.3-0.7,0.7-1.2,1.2-1.5c0.5-0.3,0.8-0.3,0.8-0.3
			s-0.3,0.2-0.7,0.5c-0.3,0.3-0.5,1-0.5,1.5c0,0.5,0,1.2,0.2,1.5c0,0.2,0.2,0.3,0.2,0.5c0,0.2,0.2,0.2,0.2,0.2c0.2,0.5,0,1-0.3,1.2
			c-0.5,0.2-1,0-1.2-0.3C61.2,76.6,61.2,76.5,61.2,76.5z"/>
	</g>
	<g>
		<path class="st1" d="M60.2,63c-1.8-1.8-3.5-9.5,1.8-14.3"/>
		<path class="st2" d="M59.5,63.5L59.5,63.5c-0.2-0.3-0.3-0.3-0.3-0.7c-0.2-0.2-0.3-0.5-0.5-0.8c-0.2-0.3-0.3-0.7-0.3-1
			c-0.5-1.5-0.7-3.6-0.3-5.6c0-0.5,0.2-1,0.3-1.5c0.2-0.5,0.3-1,0.5-1.3c0.3-0.8,0.8-1.6,1.3-2.1c0.5-0.7,0.8-1,1.2-1.3
			c0.3-0.3,0.5-0.5,0.5-0.5s-0.2,0.2-0.5,0.5c-0.3,0.3-0.7,0.8-1,1.5c-0.3,0.7-0.7,1.3-1,2.3c-0.2,0.5-0.3,0.8-0.3,1.3
			c-0.2,0.5-0.2,1-0.2,1.5c-0.2,2,0.3,3.8,0.8,5.1c0.2,0.3,0.3,0.7,0.3,0.8c0.2,0.3,0.2,0.3,0.3,0.5c0,0.2,0.2,0.3,0.3,0.3
			c0,0.2,0.2,0.2,0.2,0.2l0,0c0.3,0.3,0.3,0.8,0,1.2C60.4,64,59.9,64,59.5,63.5C59.5,63.6,59.5,63.5,59.5,63.5z"/>
	</g>
	<g>
		<path class="st1" d="M72.4,66.3c3.8-5.9,4.4-6.2,0.8-12"/>
		<path class="st2" d="M71.7,65.9c0,0,0.5-0.7,1.2-1.6c0.3-0.5,0.8-1.2,1.2-1.8c0.3-0.7,0.8-1.3,1-2.1c0.2-0.7,0.2-1.5-0.2-2.3
			c-0.2-0.7-0.5-1.3-0.8-2c-0.5-1.2-1-1.8-1-1.8s0.5,0.7,1.2,1.6c0.3,0.5,0.8,1.2,1.2,2c0.3,0.7,0.5,1.6,0.5,2.6
			c-0.2,1-0.5,1.8-0.8,2.5c-0.3,0.7-0.7,1.3-1,2c-0.7,1.2-1,1.8-1,1.8c-0.2,0.3-0.7,0.5-1.2,0.3C71.5,66.9,71.4,66.4,71.7,65.9
			C71.5,65.9,71.7,65.9,71.7,65.9z"/>
	</g>
	<g>
		<path class="st1" d="M44.2,70.1c2.8-2.8,12.3-10,8.1-15"/>
		<path class="st2" d="M43.8,69.6c0,0,0.2-0.2,0.7-0.5c0.3-0.3,1-0.8,1.6-1.3c1.3-1.2,3.1-2.6,4.6-4.3c0.7-0.8,1.5-1.8,2-2.6
			c0.3-0.5,0.5-1,0.7-1.5c0-0.5,0.3-1,0.2-1.3c0-0.5,0-0.8-0.2-1.2c-0.2-0.3-0.2-0.7-0.3-0.8c-0.3-0.5-0.3-0.7-0.3-0.7
			s0.2,0.2,0.5,0.7c0.2,0.2,0.3,0.5,0.5,0.8c0.2,0.3,0.2,0.7,0.3,1.2c0.2,0.5,0,1-0.2,1.5c-0.2,0.5-0.3,1-0.5,1.5
			c-0.5,1-1.2,2-1.8,3c-1.5,2-3.1,3.6-4.3,4.8c-0.7,0.7-1.2,1.2-1.5,1.5c-0.3,0.3-0.5,0.7-0.5,0.7c-0.3,0.3-0.8,0.3-1.2,0
			C43.4,70.4,43.4,69.9,43.8,69.6L43.8,69.6z"/>
	</g>
	<g>
		<path class="st1" d="M44.2,63c1-1,1.5-3,1.5-4.1"/>
		<path class="st2" d="M43.8,62.5C43.8,62.5,43.8,62.3,43.8,62.5c0.3-0.2,0.3-0.2,0.5-0.3c0.3-0.3,0.5-0.7,0.8-1.2
			c0.5-1,0.8-2.1,0.8-2.1s0.2,1.2,0,2.3c0,0.7-0.2,1.2-0.5,1.6c-0.2,0.2-0.3,0.5-0.3,0.5c0,0.2-0.2,0.2-0.2,0.2
			c-0.2,0.3-0.8,0.5-1.2,0.3c-0.3-0.2-0.5-0.8-0.3-1.2C43.6,62.5,43.6,62.5,43.8,62.5z"/>
	</g>
	<g>
		<path class="st1" d="M48.7,35c0,3.1-3.1,6.6-4.6,6.6"/>
		<path class="st2" d="M49.5,35c0,0,0,0.2,0,0.3c0,0.2-0.2,0.7-0.3,1.2c-0.3,0.8-0.8,1.8-1.5,2.8c-0.7,0.8-1.5,1.6-2.3,2
			c-0.7,0.5-1.3,0.3-1.3,0.3s0.5,0,1.2-0.7c0.7-0.5,1.3-1.3,1.8-2.3c0.5-1,0.8-2,0.8-2.6c0-0.3,0-0.5,0-0.8c0-0.2,0-0.3,0-0.3
			c0-0.5,0.3-0.8,0.8-0.8C49.2,34.1,49.5,34.4,49.5,35C49.5,34.9,49.5,35,49.5,35z"/>
	</g>
	<g>
		<path class="st1" d="M27,11.4c1,2.6,7.6,0.2,7.7,6.1"/>
		<path class="st2" d="M27,11.4c0,0,0.2,0.2,0.3,0.3c0.2,0.2,0.3,0.2,0.5,0.2s0.3,0.2,0.7,0.2c0.8,0.2,2.3,0.2,3.6,0.5
			c0.3,0.2,0.7,0.3,1,0.5c0.3,0.2,0.7,0.5,1,0.7c0.3,0.3,0.5,0.7,0.7,1c0.2,0.3,0.3,0.7,0.3,1c0.2,0.5,0,1,0,1.3
			c0,0.3-0.2,0.5-0.2,0.5s-0.2-0.2-0.2-0.5c0-0.2-0.2-0.3-0.2-0.5c-0.2-0.2-0.2-0.3-0.3-0.5c-0.2-0.2-0.3-0.3-0.5-0.7
			c-0.2-0.2-0.3-0.3-0.5-0.5c-0.2-0.2-0.5-0.3-0.7-0.3c-0.2-0.2-0.5-0.2-0.8-0.3c-1.2-0.3-2.5-0.7-3.5-1.3c-0.3-0.2-0.5-0.3-0.7-0.5
			c-0.2-0.2-0.3-0.3-0.3-0.5C27.1,11.5,27,11.4,27,11.4z"/>
	</g>
	<path class="st0" d="M50.7,45.4c3.3,0,7.2-14,7.2-16.1c1.2-1,4.9-2.6,8.7-10.2"/>
	<path class="st0" d="M63.8,23.9c3.3,0,11-3,15.3-8.9"/>
	<path class="st0" d="M63.5,30.6c3.3,0,11-3,15.3-8.9"/>
	<path class="st0" d="M62.2,34.4c3.3,0,8.2-1.2,12.5-3.9"/>
	<path class="st0" d="M52.8,44.1c2.8,0,6.1-2.8,6.1-4.6c0,0,3.6-0.8,3.3-5.6c0,0,2.3-2.1,1-4.8c0,0,3-2.3,3.1-5.6"/>
	<path class="st0" d="M57.6,32.4c0,0,3.3-0.2,5.4-3.1"/>
	<path class="st0" d="M56.1,37.2c0,0,4.1-0.2,5.9-3.3"/>
	<path class="st0" d="M54.6,40c0,0,2.3,0.5,4.4-0.5"/>
	<path class="st0" d="M57.1,42.3c1.5,0.3,8.1,0.3,13-3"/>
	<path class="st0" d="M60.2,38.8c2.1,0.2,6.7-0.2,9.4-2.5"/>
	<g>
		<path class="st1" d="M49,19.4c-2.6-0.7-4.6,0.7-8.7,0.7"/>
		<path class="st2" d="M48.8,20.2c0,0-0.2,0-0.3-0.2c-0.2,0-0.5-0.2-0.8-0.2c-0.7-0.2-1.8,0-3,0.2c-1.2,0.2-2.1,0.2-3.1,0.2
			c-0.8,0-1.3,0-1.3,0s0.5,0,1.3-0.2c0.8-0.2,1.8-0.3,3-0.7c1-0.3,2.1-0.7,3.1-0.7c0.5,0,0.8,0,1.2,0c0.2,0,0.3,0,0.3,0
			c0.5,0,0.8,0.5,0.7,1C49.8,19.9,49.5,20.2,48.8,20.2C49,20.2,48.8,20.2,48.8,20.2z"/>
	</g>
	<g>
		<path class="st1" d="M39.3,12.4c1.2-0.7,4.8,0.8,5.4-0.2"/>
		<path class="st2" d="M39.3,12.4c0,0,0-0.2,0.2-0.2c0.2-0.2,0.3-0.3,0.7-0.3c0.7-0.2,1.3-0.2,2-0.2c0.7,0.2,1.3,0.3,1.8,0.5
			c0.2,0,0.3,0.2,0.5,0.2c0.2,0,0.3,0,0.3,0s0,0.2,0,0.3c-0.2,0.2-0.3,0.3-0.7,0.5c-0.7,0.3-1.3,0.3-2.1,0.2
			c-0.7-0.2-1.3-0.3-1.8-0.5c-0.3-0.2-0.3-0.2-0.7-0.2C39.3,12.4,39.3,12.4,39.3,12.4z"/>
	</g>
	<path class="st2" d="M42.8,12.7c0,0.5-0.5,1-1,1c-0.5,0-1-0.5-1-1"/>
</g>
</svg>
