<?xml version="1.0" encoding="utf-8"?>
<!-- Generator: Adobe Illustrator 22.1.0, SVG Export Plug-In . SVG Version: 6.00 Build 0)  -->
<svg version="1.1" xmlns="http://www.w3.org/2000/svg" xmlns:xlink="http://www.w3.org/1999/xlink" x="0px" y="0px"
	 viewBox="0 0 100 100" style="enable-background:new 0 0 100 100;" xml:space="preserve">
<style type="text/css">
	.st0{fill:#231F20;}
	.st1{fill:url(#SVGID_1_);}
	.st2{fill:url(#SVGID_2_);}
	.st3{fill:#FF0000;}
	.st4{fill:none;}
	.st5{fill:#F9F95B;}
	.st6{fill:#ED2E30;}
	.st7{clip-path:url(#SVGID_22_);}
	.st8{clip-path:url(#SVGID_24_);}
	.st9{clip-path:url(#SVGID_29_);}
	.st10{clip-path:url(#SVGID_31_);}
	.st11{clip-path:url(#SVGID_36_);}
	.st12{clip-path:url(#SVGID_38_);}
	.st13{clip-path:url(#SVGID_43_);}
	.st14{clip-path:url(#SVGID_45_);}
	.st15{clip-path:url(#SVGID_50_);}
	.st16{clip-path:url(#SVGID_52_);}
	.st17{clip-path:url(#SVGID_57_);}
	.st18{clip-path:url(#SVGID_59_);}
	.st19{fill:url(#SVGID_63_);}
	.st20{fill:url(#SVGID_64_);}
</style>
<g id="Layer_3">
</g>
<g id="Layer_2">
</g>
<g id="Layer_1">
	<g>
		<path class="st0" d="M51.3889084,24.7392921c0,0,0.6903152,0.7809944,1.0622597,2.6015701
			c0.1813354,0.8829803,0.1854591,2.2677422,0.1854591,2.2677422l1.4867516-1.3754864c0,0,0.2070961,1.5269299,0.0370941,2.6747227
			c-0.149395,1.0035305-0.7438927,2.637619-0.7438927,2.637619l1.1889877-0.5192795l-0.359581,3.8760605l-3.0209007,6.6939926
			l-6.2859879-2.1234818l3.6102448-9.896246c0,0,0.9664421-1.6340885,1.7463951-3.4556866
			C50.8603516,26.800972,51.3889084,24.7392921,51.3889084,24.7392921"/>
		<linearGradient id="SVGID_1_" gradientUnits="userSpaceOnUse" x1="44.8758545" y1="40.0918579" x2="55.4244537" y2="31.24053">
			<stop  offset="0" style="stop-color:#FF0000"/>
			<stop  offset="0.0930467" style="stop-color:#FE220D"/>
			<stop  offset="0.2821307" style="stop-color:#FD6324"/>
			<stop  offset="0.4626377" style="stop-color:#FB9838"/>
			<stop  offset="0.6295385" style="stop-color:#FAC247"/>
			<stop  offset="0.7799037" style="stop-color:#FAE052"/>
			<stop  offset="0.9084078" style="stop-color:#F9F259"/>
			<stop  offset="1" style="stop-color:#F9F95B"/>
		</linearGradient>
		<path class="st1" d="M50.8170815,28.5762234c-0.5213432,1.1044941-1.7463951,3.1105366-2.3171959,4.6611576
			c-0.5718269,1.5496178-2.6623497,7.7469978-2.6623497,7.9911842c0,0.2452087,5.0619698,1.6340904,5.0619698,1.6340904
			s1.8772469-3.4309731,2.2852516-4.9816132c0.4069786-1.5506363,0.6532249-3.9997101,0.6532249-3.9997101l-1.1436577,0.41008
			c0.4244957-1.6361465,0.6089211-2.14925,0.7222557-2.8261833c0.1638222-0.9788017,0.1112747-1.7463875,0.1112747-1.7463875
			l-1.6495438,1.0601921c0,0,0.0587273-1.7587433-0.0226669-2.6582146
			c-0.0813942-0.8974113-0.2843704-1.4723301-0.2843704-1.4723301S51.0705376,28.0383911,50.8170815,28.5762234"/>
		<path class="st0" d="M67.1281204,49.7101517c-5.7966309-10.0415039-19.3319702-4.888855-19.902771-11.3386841
			c-0.2091064-2.3666382,2.5305176-4.3262939,2.5305176-4.3262939s0.4275513,0.0206299,0.947876,0.3554688
			c0.5378418,0.3461914,1.0107422,0.7871704,1.0107422,0.7871704s0.6687012-1.4981079,0.2030029-3.1157227
			c-0.3719482-1.2889404-2.651062-2.1080322-2.651062-2.1080322s-0.1967773-1.1374512-1.3857422-1.6577759
			c-1.2456665-0.5440063-6.0232544,0.2874756-8.1004028,0.1494141c-2.2296143-0.1494141-4.3098145-1.0231323-4.3098145-1.0231323
			s0.6068115,2.5541992,1.1879272,3.7359619c0.8634033,1.7556763,1.7845459,2.1914673,1.7845459,2.1914673
			s-1.3146973,2.9477539-1.9926758,5.9099121c-0.8973999,3.9193726-0.6428833,12.8779907,5.7141724,16.3264771
			c6.6816406,3.6257324,11.9383545,0.0339966,17.9038696,2.1389771c2.7746582,0.9797974,5.1165771,7.9571533-2.4758301,12.3916626
			c-9.2244873,5.3885498-16.6520386-1.7958374-16.6520386-1.7958374s1.1838379-1.7896729-1.2353516-4.1315918
			c-2.52948-2.4470215-6.6837158-0.5223999-6.6837158-0.5223999s1.4692383,0.5718384,2.0410767,1.6340942
			c0.3863525,0.7181396,0.6717529,3.2053223,1.9678955,4.0924683c1.1014404,0.7531128,2.6026001,0.2328491,2.6026001,0.2328491
			s6.5291748,7.8427734,17.4691162,4.0820923C69.8769608,69.3284988,70.8732986,56.1981277,67.1281204,49.7101517z
			 M49.4292068,73.8001175c-6.1540527-0.5213623-9.2028198-4.5457764-9.2028198-4.5457764l0.2967529-0.446167
			c0,0,1.5114746,1.5094604,3.4917603,2.4522095c1.5619507,0.7438965,6.3179321,2.8240967,12.1876831,0.3719482
			c8.7412109-3.6504517,10.6669312-13.6095581,2.6757202-15.8288574c-1.6031494-0.446106-3.5092773-0.2225342-5.6069946,0.0020752
			c-3.0682983,0.3276367-6.5446167,0.6552734-10.0734863-1.1179199c-5.3174438-2.6695557-6.2591553-8.1528931-6.0139771-13.2952271
			c0.1865234-3.9214478,2.1235352-7.6738281,2.1235352-7.6738281s0.6593628,0.0731201,1.0673828,0.2359009
			c0.40802,0.1638184,0.8098145,0.5800781,0.8098145,0.5800781s-0.0288086-0.6542358-0.3646851-1.0251465
			c-0.2442017-0.2720337-1.4033203-0.3781738-2.4934082-1.4229126c-1.0725708-1.0292969-1.7134399-3.5102539-1.7134399-3.5102539
			s1.5331421,0.7346191,3.5103149,0.815979c1.0632935,0.0443115,6.4487915-0.3162842,7.1019897-0.3265991
			c0.914978-0.0154419,1.2879028,1.0983276,1.2879028,1.0983276s-1.3661499,0.1154175-2.3419189,1.1900024
			c-1.2384033,1.3621216-1.4867554,2.6376343-1.4867554,2.6376343s0.0556641,0.5759277,0.7614136,1.4115601
			c0.5996704,0.7108765,1.355896,1.0045166,1.355896,1.0045166s-0.9282837,1.2631836-0.1854248,3.4556885
			c1.5547485,4.5880737,10.0095825,3.097168,15.791748,6.7537842c7.1030273,4.4891357,6.3426514,14.2596436,3.0095215,19.5905151
			C62.8182449,70.3681107,57.1700516,74.4574661,49.4292068,73.8001175z"/>
		<linearGradient id="SVGID_2_" gradientUnits="userSpaceOnUse" x1="29.9787331" y1="35.2105598" x2="63.4656181" y2="68.6974411">
			<stop  offset="0.1334736" style="stop-color:#F9F95B"/>
			<stop  offset="0.8542668" style="stop-color:#FF0000"/>
		</linearGradient>
		<path class="st2" d="M38.3264961,32.086525c1.0900803,1.0447388,2.2491913,1.150856,2.4933777,1.4228706
			c0.3358841,0.3709145,0.3647346,1.0251656,0.3647346,1.0251656s-0.4018288-0.4162445-0.8098335-0.5800743
			c-0.4080086-0.1627808-1.0674133-0.2359352-1.0674133-0.2359352s-1.9370041,3.75243-2.1234894,7.6738319
			c-0.2452164,5.1423302,0.6964951,10.6257057,6.0139809,13.2952652c3.5288506,1.7731819,7.0051537,1.4455414,10.073452,1.117897
			c2.0977325-0.2246132,4.00383-0.4481888,5.6070099-0.0020599c7.991169,2.2193108,6.0654945,12.1783943-2.6757431,15.8288231
			c-5.8697433,2.4521637-10.6257057,0.3719482-12.1876717-0.3719482c-1.980278-0.9427414-3.4917603-2.4521561-3.4917603-2.4521561
			l-0.29673,0.4461212c0,0,3.0487175,4.024437,9.2028275,4.5457764c7.7408028,0.657341,13.3890228-3.4319916,15.9885254-7.5924301
			c3.3330917-5.3308907,4.0934677-15.1014252-3.0095673-19.5905304c-5.7821655-3.6566048-14.2369804-2.165741-15.7917366-6.7537651
			C45.8736,37.6708641,46.801918,36.407692,46.801918,36.407692s-0.7562561-0.293644-1.3559036-1.00457
			c-0.7057686-0.8355942-0.7614059-1.4115334-0.7614059-1.4115334s0.2483063-1.275547,1.4867554-2.6376209
			c0.9757118-1.0746231,2.3419189-1.1900196,2.3419189-1.1900196s-0.3729782-1.1137867-1.2879028-1.0983315
			c-0.6532211,0.0102978-6.0387115,0.3709164-7.102005,0.3266125c-1.9771843-0.0813904-3.5103035-0.8160057-3.5103035-0.8160057
			S37.253933,31.0572262,38.3264961,32.086525"/>
		<path class="st0" d="M54.0481682,56.3227654c0,0-5.0691833,4.1480751-5.7213745,4.3119011
			c-0.6532249,0.1617584-3.1208458,0.0741806-3.1208458,0.0741806l2.5098648-4.2964363L54.0481682,56.3227654"/>
		<path class="st0" d="M39.5567017,51.3452911c0,0-0.5563774,2.7489128-1.8947639,4.3840218
			c-1.2456551,1.520752-2.1554298,1.9318504-2.1554298,1.9318504s-2.9343567-0.7809868-3.9011059,0.2235756
			c-0.7702675,0.80056-0.7062836,1.2631798-0.7062836,1.2631798s-0.2284241,0.0319366-0.4830151,0.3719444
			c-0.2233734,0.29673-0.0750084,0.5934639-0.0750084,0.5934639s0.0121574-0.1411552,0.335062-0.2235756
			c0.148983-0.0360641,0.2973499-0.0360641,0.2973499-0.0360641s0.0694427,0.3266106,0.4457169,0.4842529
			c0.4471588,0.1854553,0.6686783,0.1473312,0.6686783,0.1473312s-0.1483669,0.1123085-0.1483669,0.3348579
			c0,0.3266068,0.0741825,0.4090347,0.0741825,0.4090347s0.1123047-0.0855179,0.4090385-0.2977638
			c0.2606697-0.1854591,0.3719444-0.148365,0.3719444-0.148365s0.4049187,0.3667984,1.0766869,0.4090424
			c1.8205795,0.1112671,2.7056236-0.8088074,3.4186058-1.00457c0.8180771-0.2215157,2.2667084-0.3709145,2.2667084-0.3709145
			s-0.6048012-0.4420013-0.7428627-1.2621422c-0.2050323-1.2240181,4.681778-3.3444176,4.681778-3.3444176L39.5567017,51.3452911"/>
		<g>
			<g>
				<g>
					<defs>
						<path id="SVGID_3_" d="M37.9586716,56.43507c-1.1034737,1.2487488-1.5959663,1.4115448-1.5959663,1.4115448
							l0.4080048,0.5573959c0,0-3.1218719-1.076683-4.3479538-0.3719444
							c-0.696497,0.4018326-0.8915367,1.0045662-0.8915367,1.0045662s-0.0447159-0.0298767,0.0372982,0.29776
							c0.0814972,0.3255806-0.0372982,0.333828-0.0372982,0.333828s-0.0090675,0.1823692,0.2228584,0.2596397
							c0.2235794,0.0752106,0.4832191,0.1112747,0.4832191,0.1112747s0.2431564-0.8768082,0.631588-1.1519012
							c0.631588-0.4450989,2.0812492-0.1596985,2.0812492-0.1596985s-1.3280869,0.1390953-1.6340904,0.568737
							c-0.3729744,0.5203094-0.2246094,1.0035324-0.2246094,1.0035324s1.3765068,0.483223,2.5273781-0.1504288
							c1.4857216-0.8149834,2.7870178-0.7418251,2.7870178-0.7418251s-0.5718269-0.6542549-0.4090347-1.2250557
							c0.3667908-1.2982063,3.900795-3.7915802,3.900795-3.7915802l-1.5969963-1.2260857
							C40.3005943,53.1648293,38.6098366,55.6994171,37.9586716,56.43507"/>
					</defs>
					
						<linearGradient id="SVGID_4_" gradientUnits="userSpaceOnUse" x1="31.5190506" y1="56.8204575" x2="41.8975906" y2="56.8204575">
						<stop  offset="0" style="stop-color:#F9F95B"/>
						<stop  offset="1" style="stop-color:#FF0000"/>
					</linearGradient>
					<use xlink:href="#SVGID_3_"  style="overflow:visible;fill:url(#SVGID_4_);"/>
					<clipPath id="SVGID_5_">
						<use xlink:href="#SVGID_3_"  style="overflow:visible;"/>
					</clipPath>
				</g>
			</g>
		</g>
		<path class="st3" d="M51.7443695,56.6957397c0,0-2.6757469,2.7489052-3.4186058,3.0466614
			c-0.7438927,0.2967339-1.7093048-0.1493912-1.7093048-0.1493912l3.1208458-3.1950264L51.7443695,56.6957397"/>
		<rect x="45.2609711" y="30.5285759" class="st4" width="6.4926715" height="3.6494997"/>
		<path class="st5" d="M49.0881996,33.8803101c0,0-1.0591698,0.7068062-1.4671783,1.2250633
			c-0.2946701,0.3760567-0.5584335,0.8170433-0.5584335,0.8170433s-0.3358841-0.0783081-1.0766869-0.6470451
			c-0.4842491-0.3719406-0.8170433-1.0241432-0.8170433-1.0241432s0.4080086,0.0453415,0.8170433-0.0360489
			c0.4080086-0.0814056,1.0395966-0.2194557,1.4486351-0.2977638
			C48.3082466,33.7504997,49.0881996,33.8803101,49.0881996,33.8803101"/>
		<path class="st0" d="M38.0009155,29.7188416c0,0,0,0.082428,0.7335892,0.325592
			c0.7356491,0.2462444,2.2028236,0.1875095,2.9405365,0.9746838c0.6841316,0.7304974,0.8149834,1.8020229,0.489399,1.964819
			c-0.3266106,0.1638184-1.0179558-1.1096516-1.3445663-1.5197296c-0.3266144-0.4069653-1.5114822-0.7294598-2.0029449-0.9283047
			C38.182251,30.276247,38.0009155,29.7188416,38.0009155,29.7188416"/>
		<path class="st0" d="M43.1978531,30.4616966c0,0,0.2328529-0.2410889,0.5203133-0.3904896
			c0.380188-0.194725,1.2374153-0.0721149,1.7762756-0.0484219c0.9118309,0.042244,1.1034698,0.0484219,1.1034698,0.0484219
			l-0.4090347,0.3534031l-0.4080086,0.0370865c0,0-0.2689133,0.6006851-0.780983,0.6501446
			c-0.7356491,0.0731525-0.8355904-0.6501446-0.8355904-0.6501446H43.1978531"/>
		<g>
			<g>
				<g>
					<defs>
						<path id="SVGID_6_" d="M34.4895782,63.8420448c0,0,1.0766869,0.3637123,1.5001488,1.2508125
							c0.2544899,0.5306168,0.7222557,2.2594986,0.9664421,2.7509613c0.2452164,0.4883728,1.2075348,1.5485687,2.5953789,0.8129196
							c1.3888741-0.7335815,0.6748619-3.2661133-0.9788055-4.3263168c-0.7521324-0.4790993-1.7979088-0.5975838-2.6438026-0.5975838
							C35.1160164,63.7328377,34.4895782,63.8420448,34.4895782,63.8420448"/>
					</defs>
					
						<linearGradient id="SVGID_7_" gradientUnits="userSpaceOnUse" x1="34.5413399" y1="63.7733574" x2="40.1852684" y2="68.0263596">
						<stop  offset="0.2491987" style="stop-color:#F9F95B"/>
						<stop  offset="0.3206231" style="stop-color:#F9F359"/>
						<stop  offset="0.4157973" style="stop-color:#FAE253"/>
						<stop  offset="0.5243821" style="stop-color:#FAC648"/>
						<stop  offset="0.6429157" style="stop-color:#FBA03A"/>
						<stop  offset="0.7696026" style="stop-color:#FC6E28"/>
						<stop  offset="0.9009378" style="stop-color:#FE3212"/>
						<stop  offset="1" style="stop-color:#FF0000"/>
					</linearGradient>
					<use xlink:href="#SVGID_6_"  style="overflow:visible;fill:url(#SVGID_7_);"/>
					<clipPath id="SVGID_8_">
						<use xlink:href="#SVGID_6_"  style="overflow:visible;"/>
					</clipPath>
				</g>
			</g>
		</g>
		<path class="st0" d="M48.2639427,53.4728889c0,0-1.4383278,3.0229683-2.0925827,4.00177
			c-0.6532249,0.9808693-1.7834854,2.1121635-2.192524,2.1935539c-0.4080048,0.081398-2.972477-0.0752106-3.75243,0.6686783
			c-0.6130409,0.5841942-0.4832191,1.0396004-0.4832191,1.0396004s-0.2441864-0.0061874-0.4090385,0.4832191
			c-0.1627922,0.4894028,0.0381203,1.0395889,0.0381203,1.0395889s0.0680008-0.2616959,0.2967339-0.4450951
			c0.1864891-0.148365,0.2967339-0.148365,0.2967339-0.148365s0.0525475,0.1638184,0.2606697,0.3719482
			c0.148365,0.1483612,0.4450989,0.2215118,0.4450989,0.2215118s-0.1844254,0.2235832-0.2225494,0.5584373
			c-0.0370903,0.333828,0.0381241,0.5944939,0.0381241,0.5944939s0.1751518-0.2740593,0.4090347-0.4450951
			c0.2328529-0.1730919,0.3338242-0.1493988,0.3338242-0.1493988s0.3029137,0.1885452,0.631588,0.2596397
			c0.5203133,0.1112747,0.7057686-0.0731544,0.7057686-0.0731544s-0.2235794,0.1112785-0.2235794,0.5192909
			c0,0.4079971,0.1123047,0.5584335,0.1123047,0.5584335s0.2957039-0.1885605,0.4080086-0.2987976
			c0.1143646-0.1092148,0.420372-0.0927353,0.420372-0.0927353s0.2173958,0.0638885,0.7315254,0.0195847
			c0.8901978-0.0783081,1.2518425-1.1034813,1.7834892-1.6351242c0.7057686-0.7067986,2.3037987-1.1158409,2.3037987-1.1158409
			s-1.0025063-0.4832115-0.9654121-1.0014725c0.0391502-0.5584335,3.880188-3.9399452,4.5334129-4.3489838
			c0.6521912-0.4069748,0.6614647-1.226078,0.7428627-1.6340904c0.0813942-0.4080009-0.3956451-1.0591698-0.3956451-1.0591698
			l0.7356491-0.2452049c0,0-0.4883728-0.3317719-1.0828667-0.7768631c-0.5100098-0.3832893-1.0416565-0.7428703-1.0416565-0.7428703
			L48.2639427,53.4728889"/>
		<g>
			<defs>
				<path id="SVGID_9_" d="M48.6235275,52.0871239c-0.6264343,0.7830391-0.4430389,2.8550148-1.0128059,4.0800629
					c-0.5718307,1.2250557-2.2574348,3.7225494-3.2609673,4.1697159c-0.7449226,0.3307304-1.6052399,0.4760056-2.339859,0.9654045
					c-0.7356491,0.4904327-0.483223,1.3373528-0.483223,1.3373528s0.1638222,0.2905579,0.4080086,0.3719482
					c0.2462463,0.082428,0.632618,0.0741882,0.632618,0.0741882s0.1792755-1.00354,0.6686783-1.411541
					c0.4894028-0.4080124,0.8551674-0.5574036,0.8551674-0.5574036s-0.5471039,0.6861916-0.7068024,1.0406265
					c-0.3348541,0.7418289-0.1823654,1.438324,0.3894615,1.519722c0.5718269,0.082428,1.1663246-1.113781,1.4682083-1.3878441
					c0.5574036-0.5038261,1.8957901-0.80159,1.8957901-0.80159s-1.1148071-0.3338203-0.3441238-1.4846954
					c0.4059448-0.6058273,4.3263168-4.8146858,4.490139-5.4689445c0.1638184-0.652195-0.081398-1.0612373-0.081398-1.0612373
					l0.6171646-0.2328491c0,0-0.5203133-0.2606621-0.8180771-0.7799416
					c-0.2472763-0.4317093-0.2235794-0.5955276-0.2235794-0.5955276s-0.3822479-0.5007439-0.9623184-0.5007439
					C49.4735413,51.3638268,49.0634727,51.5379562,48.6235275,52.0871239"/>
			</defs>
			
				<linearGradient id="SVGID_10_" gradientUnits="userSpaceOnUse" x1="41.4848633" y1="57.5225449" x2="51.8195839" y2="57.5225449">
				<stop  offset="0" style="stop-color:#F9F95B"/>
				<stop  offset="1" style="stop-color:#FF0000"/>
			</linearGradient>
			<use xlink:href="#SVGID_9_"  style="overflow:visible;fill:url(#SVGID_10_);"/>
			<clipPath id="SVGID_11_">
				<use xlink:href="#SVGID_9_"  style="overflow:visible;"/>
			</clipPath>
		</g>
		<path class="st5" d="M42.9763336,60.3739891c0,0-1.6722107-0.0360603-2.192524,0.5203171
			c-0.3740044,0.399765-0.4481888,0.8366165-0.2596397,1.1518936c0.1112747,0.1864891,0.3338242,0.2977638,0.3338242,0.2977638
			s-0.1112747-0.6686783,0.5203133-1.1900177C41.9274673,60.7026596,42.9763336,60.3739891,42.9763336,60.3739891"/>
		<path class="st0" d="M56.5312424,48.2491684c0,0-3.1888466,3.318676-2.3347092,6.8475189
			c0.6192245,2.5562325,2.8993225,2.8612022,2.8993225,2.8612022l-0.5955238,1.0406265c0,0-2.340889-0.0752182-3.5659409,0.8922577
			c-1.0859566,0.8551674-0.8922577,1.7834892-0.8922577,1.7834892s-0.1741257,0.8180733,0.5574036,1.3002586
			c0.3884315,0.2555199,0.8541336,0.2843704,0.8541336,0.2843704s0.483223,0.3482513,1.0787468,0.4955864
			c0.7335892,0.1844292,1.4857254-0.1473351,1.4857254-0.1473351s1.5969963,0.4080009,2.7118034-0.522377
			c1.0292931-0.8572273,1.8957939-3.2702332,2.3037987-4.0862503c0.4090385-0.8149834,2.8241119-3.6411591,2.4367065-4.5457764
			c-0.2039986-0.4739494-0.7346153-1.4692421-0.8974075-1.7144508c-0.1638222-0.2441864-0.3266106-1.5506363-0.3266106-1.5506363
			L56.5312424,48.2491684"/>
		<g>
			<g>
				<g>
					<defs>
						<path id="SVGID_12_" d="M57.5409584,47.3311462c-1.832943,0.8696022-3.2681808,5.725502-1.7834854,8.0262108
							c1.8947563,2.9343567,4.6106834,0.4842453,4.6106834,0.4842453s-0.040184,0.5563736-0.6717682,1.1519051
							c-0.5120697,0.4801254-1.2260818,0.8531075-1.2260818,0.8531075l-0.8551674,1.4496574l0.4461327,0.3719482
							c0,0-2.8107185-0.2977638-4.2603798,0.5192795c-0.8675308,0.4904289-0.991169,1.282753-0.991169,1.560936
							c0,0.5944977,0.5440063,0.6202583,0.5440063,0.6202583s0.1061249-0.9788094,0.5955276-1.3878441
							c0.4904327-0.4080086,1.0148659-0.3472214,1.0148659-0.3472214s-0.568737,0.4502525-0.7923164,0.9169846
							c-0.2472763,0.5203171-0.1730957,0.9901428-0.1730957,0.9901428s0.2359428,0.2977562,0.7181358,0.3719482
							c0.483223,0.0741806,1.0653534-0.123642,1.0653534-0.123642s-0.0061836-0.7428627,0.3482475-1.2137184
							c0.3327942-0.4461288,0.9643784-0.6449814,0.9643784-0.6449814s-0.4873428,0.7562561-0.568737,1.1642609
							c-0.082428,0.4090385,0,0.6449776,0,0.6449776s1.1127472,0.1669159,1.6835442-0.3214531
							c0.5718307-0.4904327,1.7762794-3.1641159,2.3037987-4.0872879c0.9788055-1.7154884,2.0956726-2.9147758,2.0070686-3.7163658
							c-0.0978813-0.8685684-0.5944939-1.0787506-0.5944939-1.9318581c0-1.0756454,0.4450951-1.8597221,0.4450951-1.8597221
							s-0.3163071-3.9564285-3.0404778-3.9564285C58.8226776,46.8664856,58.2312698,47.0035133,57.5409584,47.3311462"/>
					</defs>
					
						<linearGradient id="SVGID_13_" gradientUnits="userSpaceOnUse" x1="57.6675873" y1="62.929348" x2="57.6675873" y2="46.8664856">
						<stop  offset="0" style="stop-color:#F9F95B"/>
						<stop  offset="1" style="stop-color:#FE3E17"/>
					</linearGradient>
					<use xlink:href="#SVGID_12_"  style="overflow:visible;fill:url(#SVGID_13_);"/>
					<clipPath id="SVGID_14_">
						<use xlink:href="#SVGID_12_"  style="overflow:visible;"/>
					</clipPath>
				</g>
			</g>
		</g>
		<path class="st6" d="M45.0029793,30.5235291c0,0.1298275-0.1050949,0.2359486-0.2349167,0.2359486
			c-0.129818,0-0.2349129-0.1061211-0.2349129-0.2359486c0-0.1298122,0.1050949-0.2359314,0.2349129-0.2359314
			C44.8978844,30.2875977,45.0029793,30.3937168,45.0029793,30.5235291"/>
		<path class="st0" d="M39.2300873,38.8464508c0,0,0.360611,1.336338,0.6346779,1.7010612
			c0.3163071,0.4214134,0.4935226,0.6336555,0.4935226,0.6336555s-0.5419502,0.2235718-0.8458939-0.313221
			C39.2084503,40.3301163,39.2300873,38.8464508,39.2300873,38.8464508"/>
		<path class="st0" d="M40.6086578,42.0074844c0,0,0.7232857,1.2673073,0.9726219,1.6382256
			c0.2792168,0.4152184,0.6841354,0.5130997,0.6841354,0.5130997s-0.1803093,0.3977051-0.7109222,0.1174545
			C40.8631477,43.9125633,40.6086578,42.0074844,40.6086578,42.0074844"/>
		<path class="st0" d="M38.562439,42.0394173c0,0,0.401825,1.2260818,0.8149834,1.8391266
			c0.2792168,0.4152184,0.6439514,0.5821342,0.6439514,0.5821342s-0.4780693,0.359581-0.9221344-0.1730957
			C38.6747437,43.7744827,38.562439,42.0394173,38.562439,42.0394173"/>
		<path class="st0" d="M42.8805161,44.9459496c0,0,0.8046799,1.0529938,1.3662033,1.3012962
			c0.5615273,0.2472839,0.8479576,0.1617737,0.8479576,0.1617737s-0.0288506,0.7057686-0.6181946,0.582119
			C43.6656189,46.8180466,42.8805161,44.9459496,42.8805161,44.9459496"/>
		<path class="st0" d="M40.7147789,45.3488121c0,0,1.2281418,1.7515602,1.6814842,1.594944
			c0.2122459-0.0752144,0.4090385-0.3966675,0.4090385-0.3966675s0.1947289,1.0467949-0.291584,1.1044922
			C41.6863708,47.7525597,40.7147789,45.3488121,40.7147789,45.3488121"/>
		<path class="st0" d="M38.37183,45.3745651c0,0,1.1055336,1.7536163,1.5846329,1.6660347
			c0.3235207-0.0597572,0.4687958-0.2740555,0.4687958-0.2740555s0.229763,0.888134-0.317337,0.9468536
			C39.1455994,47.8164368,38.37183,45.3745651,38.37183,45.3745651"/>
		<path class="st0" d="M43.4956169,48.1492271c0,0,1.1889915,2.0050201,1.941124,1.7907066
			c0.2256432-0.0638771,0.4790993-1.1364403,0.4790993-1.1364403s0.2699471,2.0534248-0.3647308,2.0884514
			C44.0149002,50.9733505,43.4956169,48.1492271,43.4956169,48.1492271"/>
		<path class="st0" d="M43.0587616,51.4833412c-0.6934052-0.0061798-1.6402702-1.1508598-1.6402702-1.1508598
			s-0.2905502,1.4919052-0.821167,1.3363266c-1.2477188-0.3606186-2.1750069-2.8931427-2.1750069-2.8931427
			s0.3018837,0.3348503,0.8871078,0.9355354c0.7026749,0.7212219,1.0705032,1.0849228,1.4125671,1.0004349
			c0.3420677-0.0834465,0.3101273-0.9674644,0.3101273-0.9674644l-0.4306717-1.3775444c0,0,0.5986137,0.7943726,1.1261368,1.330143
			c0.5604973,0.5718384,0.9983826,0.9716034,1.3507538,0.7861366c0.3534012-0.1864891,0.2740669-1.036499,0.2740669-1.036499
			S44.0901146,51.4936523,43.0587616,51.4833412"/>
		<path class="st0" d="M46.0817223,45.8825264c0,0,1.0179558-0.3348541,2.2862816-2.5304642
			c0.4986763-0.8634071,2.2038574-5.0619621,3.2650871-6.1231918c1.0612335-1.0612297,7.3194008-5.4668827,7.3194008-5.4668827
			l-0.1360016,1.1395206c0,0,1.7762756-1.0148659,3.1095123-2.0307541c1.559906-1.1900215,4.6467514-3.7637634,4.6467514-3.7637634
			s-0.0834579,1.6227512-0.8572311,3.1692715c-0.5574036,1.114809-1.0210495,1.6464443-1.0210495,1.6464443l2.1729507-1.163229
			c0,0-0.3503113,1.9040394-1.0035324,3.0466595c-0.6521988,1.1426201-1.0395966,1.4115372-1.0395966,1.4115372l0.8170395-0.148365
			c0,0-0.4450912,1.8586998-1.6814804,3.1404228c-1.1003799,1.1385002-1.810276,1.5784492-1.810276,1.5784492l0.8541412,0.0752106
			c0,0-0.3719482,0.7799606-1.4496651,1.8205757c-0.7037086,0.6800194-1.1859016,0.9334793-1.1859016,0.9334793l1.111721-0.0412216
			c0,0-1.1725082,2.3779945-3.8276443,3.2321243c-1.7165146,0.5522499-4.2232857,0.482193-4.2232857,0.482193
			s-0.9788055,0.6037674-1.7958527,0.9293442c-0.8160133,0.325592-1.9596672,0.2946815-1.9596672,0.2946815L46.0817223,45.8825264"
			/>
		<g>
			<g>
				<defs>
					<path id="SVGID_15_" d="M52.1224976,38.0448608c-0.7335892,0.9798393-2.9601135,6.0129547-4.2047424,6.9454079
						c-1.4867516,1.1147919-1.9699745,0.8541336-1.9699745,0.8541336s0.5944977,2.155426,2.6005325,2.155426
						c2.169857,0,2.1997375-0.9623108,3.0847816-2.9343452c1.6351204-3.6421928,1.6351204-5.239193,2.1554337-6.1324844
						c0.7377052-1.2641945,1.3734169-0.9262466,2.8611984-2.9343491c1.0004425-1.3517761,1.3517838-2.6891365,1.3517838-2.6891365
						S52.8581467,37.0660591,52.1224976,38.0448608"/>
				</defs>
				
					<linearGradient id="SVGID_16_" gradientUnits="userSpaceOnUse" x1="46.9272461" y1="47.3957176" x2="59.1040726" y2="34.3376694">
					<stop  offset="0.0934095" style="stop-color:#FC7D2E"/>
					<stop  offset="0.2337129" style="stop-color:#FB9938"/>
					<stop  offset="0.4702676" style="stop-color:#FAC247"/>
					<stop  offset="0.6851366" style="stop-color:#FAE052"/>
					<stop  offset="0.8688892" style="stop-color:#F9F259"/>
					<stop  offset="1" style="stop-color:#F9F95B"/>
				</linearGradient>
				<use xlink:href="#SVGID_15_"  style="overflow:visible;fill:url(#SVGID_16_);"/>
				<clipPath id="SVGID_17_">
					<use xlink:href="#SVGID_15_"  style="overflow:visible;"/>
				</clipPath>
			</g>
		</g>
		<g>
			<g>
				<g>
					<defs>
						<path id="SVGID_18_" d="M64.1175003,35.8863373c0,0-1.7834892,1.5619736-3.0466652,2.2677422
							c-1.2508087,0.6985664-3.270237,1.3744469-3.270237,1.3744469s-0.29673,0.5574036-0.8170433,1.1137886
							c-0.380188,0.4090233-0.8180771,0.7809753-0.8180771,0.7809753s2.0039749-0.2637558,4.7745094-1.6629333
							c2.9549599-1.4939651,3.8472214-3.9471703,3.8472214-3.9471703L64.1175003,35.8863373"/>
					</defs>
					
						<linearGradient id="SVGID_19_" gradientUnits="userSpaceOnUse" x1="56.1654778" y1="38.6182404" x2="64.7872086" y2="38.6182404">
						<stop  offset="0" style="stop-color:#FF0000"/>
						<stop  offset="0.059359" style="stop-color:#FE1608"/>
						<stop  offset="0.2601624" style="stop-color:#FD5A21"/>
						<stop  offset="0.4504966" style="stop-color:#FB9336"/>
						<stop  offset="0.624872" style="stop-color:#FABF46"/>
						<stop  offset="0.7801116" style="stop-color:#FADF51"/>
						<stop  offset="0.9104029" style="stop-color:#F9F258"/>
						<stop  offset="1" style="stop-color:#F9F95B"/>
					</linearGradient>
					<use xlink:href="#SVGID_18_"  style="overflow:visible;fill:url(#SVGID_19_);"/>
					<clipPath id="SVGID_20_">
						<use xlink:href="#SVGID_18_"  style="overflow:visible;"/>
					</clipPath>
				</g>
			</g>
		</g>
		<g>
			<defs>
				<rect id="SVGID_21_" x="55.3116455" y="40.346405" width="6.2836213" height="3.2642612"/>
			</defs>
			<clipPath id="SVGID_22_">
				<use xlink:href="#SVGID_21_"  style="overflow:visible;"/>
			</clipPath>
			<g class="st7">
				<defs>
					<rect id="SVGID_23_" x="55.3112335" y="40.3462944" width="6.2840343" height="3.2643712"/>
				</defs>
				<clipPath id="SVGID_24_">
					<use xlink:href="#SVGID_23_"  style="overflow:visible;"/>
				</clipPath>
				<g class="st8">
					<defs>
						<path id="SVGID_25_" d="M60.8575592,40.6567307c0,0-1.0869904,0.5440102-2.2017937,0.9149246
							c-0.8345604,0.279213-2.043129,0.4729156-2.043129,0.4729156s-0.1926689,0.4111023-0.5203133,0.9025688
							c-0.3266106,0.4904327-0.6233444,0.8129272-0.6233444,0.8129272s1.3878441-0.245224,2.9384766-0.8974113
							c1.5526962-0.6542664,3.3485451-2.368721,3.3485451-2.368721L60.8575592,40.6567307"/>
					</defs>
					
						<linearGradient id="SVGID_26_" gradientUnits="userSpaceOnUse" x1="55.4689789" y1="42.1269989" x2="61.7560005" y2="42.1269989">
						<stop  offset="0" style="stop-color:#FF0000"/>
						<stop  offset="0.059359" style="stop-color:#FE1608"/>
						<stop  offset="0.2601624" style="stop-color:#FD5A21"/>
						<stop  offset="0.4504966" style="stop-color:#FB9336"/>
						<stop  offset="0.624872" style="stop-color:#FABF46"/>
						<stop  offset="0.7801116" style="stop-color:#FADF51"/>
						<stop  offset="0.9104029" style="stop-color:#F9F258"/>
						<stop  offset="1" style="stop-color:#F9F95B"/>
					</linearGradient>
					<use xlink:href="#SVGID_25_"  style="overflow:visible;fill:url(#SVGID_26_);"/>
					<clipPath id="SVGID_27_">
						<use xlink:href="#SVGID_25_"  style="overflow:visible;"/>
					</clipPath>
				</g>
			</g>
		</g>
		<g>
			<defs>
				<polyline id="SVGID_28_" points="54.1408958,45.3076057 54.3840523,42.5360413 60.334156,43.0563431 60.0909996,45.8279076 				
					"/>
			</defs>
			<clipPath id="SVGID_29_">
				<use xlink:href="#SVGID_28_"  style="overflow:visible;"/>
			</clipPath>
			<g class="st9">
				<defs>
					<polyline id="SVGID_30_" points="54.1408958,45.3076057 54.3840523,42.5350037 60.334156,43.0563431 60.0909996,45.8289452 
											"/>
				</defs>
				<clipPath id="SVGID_31_">
					<use xlink:href="#SVGID_30_"  style="overflow:visible;"/>
				</clipPath>
				<g class="st10">
					<defs>
						<path id="SVGID_32_" d="M57.3925896,44.0238266c-0.8170433,0.2462425-2.2491913,0.4698181-2.2491913,0.4698181
							l-0.7335892,0.8984489c0,0,1.5496063,0.0824127,2.9374466-0.3266106
							c1.3878441-0.40802,2.8581123-1.7958641,2.8581123-1.7958641l-0.6532249-0.0803528
							C59.5521431,43.1892662,58.2086029,43.7796402,57.3925896,44.0238266"/>
					</defs>
					
						<linearGradient id="SVGID_33_" gradientUnits="userSpaceOnUse" x1="54.4098091" y1="44.2940788" x2="60.205368" y2="44.2940788">
						<stop  offset="0" style="stop-color:#FF0000"/>
						<stop  offset="0.059359" style="stop-color:#FE1608"/>
						<stop  offset="0.2601624" style="stop-color:#FD5A21"/>
						<stop  offset="0.4504966" style="stop-color:#FB9336"/>
						<stop  offset="0.624872" style="stop-color:#FABF46"/>
						<stop  offset="0.7801116" style="stop-color:#FADF51"/>
						<stop  offset="0.9104029" style="stop-color:#F9F258"/>
						<stop  offset="1" style="stop-color:#F9F95B"/>
					</linearGradient>
					<use xlink:href="#SVGID_32_"  style="overflow:visible;fill:url(#SVGID_33_);"/>
					<clipPath id="SVGID_34_">
						<use xlink:href="#SVGID_32_"  style="overflow:visible;"/>
					</clipPath>
				</g>
			</g>
		</g>
		<g>
			<defs>
				<polyline id="SVGID_35_" points="50.7810173,46.4131393 51.7793999,43.6683617 55.0300636,44.8511658 54.0306511,47.596981 				
					"/>
			</defs>
			<clipPath id="SVGID_36_">
				<use xlink:href="#SVGID_35_"  style="overflow:visible;"/>
			</clipPath>
			<g class="st11">
				<defs>
					<polyline id="SVGID_37_" points="50.7799873,46.4131393 51.7793999,43.6683617 55.0300636,44.8511658 54.0306511,47.596981 
											"/>
				</defs>
				<clipPath id="SVGID_38_">
					<use xlink:href="#SVGID_37_"  style="overflow:visible;"/>
				</clipPath>
				<g class="st12">
					<defs>
						<path id="SVGID_39_" d="M53.1188202,45.1767578c-0.5368004,0.2215157-1.0766869,0.3338127-1.0766869,0.3338127
							l-0.7356491,1.1065712c0,0,0.6542511-0.1937027,1.2930527-0.5491676
							c1.0035324-0.5574036,1.6454201-1.4929237,1.6454201-1.4929237S53.7514343,44.9160805,53.1188202,45.1767578"/>
					</defs>
					<linearGradient id="SVGID_40_" gradientUnits="userSpaceOnUse" x1="51.3064842" y1="45.596096" x2="54.244957" y2="45.596096">
						<stop  offset="0" style="stop-color:#FF0000"/>
						<stop  offset="0.059359" style="stop-color:#FE1608"/>
						<stop  offset="0.2601624" style="stop-color:#FD5A21"/>
						<stop  offset="0.4504966" style="stop-color:#FB9336"/>
						<stop  offset="0.624872" style="stop-color:#FABF46"/>
						<stop  offset="0.7801116" style="stop-color:#FADF51"/>
						<stop  offset="0.9104029" style="stop-color:#F9F258"/>
						<stop  offset="1" style="stop-color:#F9F95B"/>
					</linearGradient>
					<use xlink:href="#SVGID_39_"  style="overflow:visible;fill:url(#SVGID_40_);"/>
					<clipPath id="SVGID_41_">
						<use xlink:href="#SVGID_39_"  style="overflow:visible;"/>
					</clipPath>
				</g>
			</g>
		</g>
		<g>
			<defs>
				<polyline id="SVGID_42_" points="52.4254112,44.6821938 52.6562042,42.036335 56.2633591,42.3526344 56.0325661,44.9974709 				
					"/>
			</defs>
			<clipPath id="SVGID_43_">
				<use xlink:href="#SVGID_42_"  style="overflow:visible;"/>
			</clipPath>
			<g class="st13">
				<defs>
					<polyline id="SVGID_44_" points="52.4254112,44.6821938 52.6562042,42.036335 56.2643852,42.3526344 56.033596,44.9974709 
											"/>
				</defs>
				<clipPath id="SVGID_45_">
					<use xlink:href="#SVGID_44_"  style="overflow:visible;"/>
				</clipPath>
				<g class="st14">
					<defs>
						<path id="SVGID_46_" d="M55.3484306,42.1671829c0,0-0.8592873,0.5553474-1.2652321,0.7758408
							c-0.5553436,0.3018799-1.0746231,0.4502449-1.0746231,0.4502449l-0.4770432,1.1003761
							c0,0,0.8160172-0.080368,1.7958527-0.7335777c0.9788017-0.6532288,1.6320305-1.6330681,1.6320305-1.6330681
							L55.3484306,42.1671829"/>
					</defs>
					
						<linearGradient id="SVGID_47_" gradientUnits="userSpaceOnUse" x1="52.5315323" y1="43.3103218" x2="55.9594154" y2="43.3103218">
						<stop  offset="0" style="stop-color:#FF0000"/>
						<stop  offset="0.059359" style="stop-color:#FE1608"/>
						<stop  offset="0.2601624" style="stop-color:#FD5A21"/>
						<stop  offset="0.4504966" style="stop-color:#FB9336"/>
						<stop  offset="0.624872" style="stop-color:#FABF46"/>
						<stop  offset="0.7801116" style="stop-color:#FADF51"/>
						<stop  offset="0.9104029" style="stop-color:#F9F258"/>
						<stop  offset="1" style="stop-color:#F9F95B"/>
					</linearGradient>
					<use xlink:href="#SVGID_46_"  style="overflow:visible;fill:url(#SVGID_47_);"/>
					<clipPath id="SVGID_48_">
						<use xlink:href="#SVGID_46_"  style="overflow:visible;"/>
					</clipPath>
				</g>
			</g>
		</g>
		<g>
			<defs>
				<rect id="SVGID_49_" x="53.3712463" y="39.4955597" width="3.6725788" height="2.7751667"/>
			</defs>
			<clipPath id="SVGID_50_">
				<use xlink:href="#SVGID_49_"  style="overflow:visible;"/>
			</clipPath>
			<g class="st15">
				<defs>
					<rect id="SVGID_51_" x="53.3712463" y="39.4955597" width="3.6741273" height="2.7765031"/>
				</defs>
				<clipPath id="SVGID_52_">
					<use xlink:href="#SVGID_51_"  style="overflow:visible;"/>
				</clipPath>
				<g class="st16">
					<defs>
						<path id="SVGID_53_" d="M55.0506706,40.4207802c-0.569767,0.325592-1.1879616,0.5192986-1.1879616,0.5192986
							l-0.5151596,1.3486786c0,0,0.9798355-0.3245544,1.7144547-0.8149834c0.7346191-0.4904327,1.959671-1.878273,1.959671-1.878273
							l-0.7356529-0.080368C56.2860222,39.5151329,55.6225014,40.0931473,55.0506706,40.4207802"/>
					</defs>
					
						<linearGradient id="SVGID_54_" gradientUnits="userSpaceOnUse" x1="53.3475494" y1="40.9019432" x2="57.0216751" y2="40.9019432">
						<stop  offset="0" style="stop-color:#FF0000"/>
						<stop  offset="0.059359" style="stop-color:#FE1608"/>
						<stop  offset="0.2601624" style="stop-color:#FD5A21"/>
						<stop  offset="0.4504966" style="stop-color:#FB9336"/>
						<stop  offset="0.624872" style="stop-color:#FABF46"/>
						<stop  offset="0.7801116" style="stop-color:#FADF51"/>
						<stop  offset="0.9104029" style="stop-color:#F9F258"/>
						<stop  offset="1" style="stop-color:#F9F95B"/>
					</linearGradient>
					<use xlink:href="#SVGID_53_"  style="overflow:visible;fill:url(#SVGID_54_);"/>
					<clipPath id="SVGID_55_">
						<use xlink:href="#SVGID_53_"  style="overflow:visible;"/>
					</clipPath>
				</g>
			</g>
		</g>
		<g>
			<defs>
				<polyline id="SVGID_56_" points="54.3819885,40.7649078 53.6587067,36.6632118 57.718174,35.9481697 58.4414597,40.0488434 				
					"/>
			</defs>
			<clipPath id="SVGID_57_">
				<use xlink:href="#SVGID_56_"  style="overflow:visible;"/>
			</clipPath>
			<g class="st17">
				<defs>
					<polyline id="SVGID_58_" points="54.3819885,40.7649078 53.6587067,36.6632118 57.718174,35.9471321 58.4414597,40.0488434 
											"/>
				</defs>
				<clipPath id="SVGID_59_">
					<use xlink:href="#SVGID_58_"  style="overflow:visible;"/>
				</clipPath>
				<g class="st18">
					<defs>
						<path id="SVGID_60_" d="M55.8790512,37.7192841c-0.6789818,0.6212807-1.3847542,1.0663872-1.5331192,1.3631134
							c-0.1566086,0.3121986-0.2235832,0.9293594-0.2235832,0.9293594s1.1065674-0.2328644,2.1173134-1.3002739
							c1.0313492-1.0880203,1.4342041-2.2986488,1.4342041-2.2986488l-0.6521912-0.0051422
							C57.0216751,36.407692,56.537426,37.1134605,55.8790512,37.7192841"/>
					</defs>
					
						<linearGradient id="SVGID_61_" gradientUnits="userSpaceOnUse" x1="54.1223488" y1="38.2097244" x2="57.6738663" y2="38.2097244">
						<stop  offset="0" style="stop-color:#FF0000"/>
						<stop  offset="0.059359" style="stop-color:#FE1608"/>
						<stop  offset="0.2601624" style="stop-color:#FD5A21"/>
						<stop  offset="0.4504966" style="stop-color:#FB9336"/>
						<stop  offset="0.624872" style="stop-color:#FABF46"/>
						<stop  offset="0.7801116" style="stop-color:#FADF51"/>
						<stop  offset="0.9104029" style="stop-color:#F9F258"/>
						<stop  offset="1" style="stop-color:#F9F95B"/>
					</linearGradient>
					<use xlink:href="#SVGID_60_"  style="overflow:visible;fill:url(#SVGID_61_);"/>
					<clipPath id="SVGID_62_">
						<use xlink:href="#SVGID_60_"  style="overflow:visible;"/>
					</clipPath>
				</g>
			</g>
		</g>
		<linearGradient id="SVGID_63_" gradientUnits="userSpaceOnUse" x1="57.5780487" y1="32.5800438" x2="65.1962433" y2="32.5800438">
			<stop  offset="0" style="stop-color:#FF0000"/>
			<stop  offset="0.059359" style="stop-color:#FE1608"/>
			<stop  offset="0.2601624" style="stop-color:#FD5A21"/>
			<stop  offset="0.4504966" style="stop-color:#FB9336"/>
			<stop  offset="0.624872" style="stop-color:#FABF46"/>
			<stop  offset="0.7801116" style="stop-color:#FADF51"/>
			<stop  offset="0.9104029" style="stop-color:#F9F258"/>
			<stop  offset="1" style="stop-color:#F9F95B"/>
		</linearGradient>
		<path class="st19" d="M61.5911484,32.0968208c-1.0777168,0.7057686-2.8982925,1.560936-2.8982925,1.560936
			s-0.1638222,0.5172234-0.4450989,1.0406189c-0.3410378,0.6315956-0.6697083,1.2260857-0.6697083,1.2260857
			s2.0812492-0.5574036,4.1243744-1.9328728c2.6283493-1.7669983,3.4938202-4.7559605,3.4938202-4.7559605
			S62.7811699,31.3179035,61.5911484,32.0968208"/>
		<path class="st5" d="M46.801918,31.2797775c-1.1518974,1.00457-1.6258469,2.5407753-1.6258469,2.5407753
			s0.3925514,0.0989037,1.1271706-0.0731506c0.6058311-0.1421852,1.9679146-0.4615822,2.970417-0.3492851
			c1.3352966,0.1473427,2.0256119,0.7057686,2.0256119,0.7057686s0.3709145-1.3373604-0.2616997-2.3048267
			c-0.4986763-0.7624435-2.3429527-1.3456001-2.3429527-1.3456001s-0.0113335-0.0010223-0.0319405-0.0010223
			C48.4967995,30.4524364,47.7034492,30.4967403,46.801918,31.2797775"/>
		<linearGradient id="SVGID_64_" gradientUnits="userSpaceOnUse" x1="56.7980957" y1="35.3912697" x2="65.9185028" y2="35.3912697">
			<stop  offset="0" style="stop-color:#FF0000"/>
			<stop  offset="0.059359" style="stop-color:#FE1608"/>
			<stop  offset="0.2601624" style="stop-color:#FD5A21"/>
			<stop  offset="0.4504966" style="stop-color:#FB9336"/>
			<stop  offset="0.624872" style="stop-color:#FABF46"/>
			<stop  offset="0.7801116" style="stop-color:#FADF51"/>
			<stop  offset="0.9104029" style="stop-color:#F9F258"/>
			<stop  offset="1" style="stop-color:#F9F95B"/>
		</linearGradient>
		<path class="st20" d="M64.2864685,32.8201027c0,0-1.4661446,1.4558563-2.508831,2.1008263
			c-1.2642059,0.7799568-3.3444214,1.5228119-3.3444214,1.5228119s-0.3358841,0.9293594-0.632618,1.3765259
			c-0.2555237,0.3832703-1.0025024,1.0395775-1.0025024,1.0395775s1.4867554-0.0370865,4.2727394-1.6351089
			c3.5731544-2.0482826,4.8476677-5.3020439,4.8476677-5.3020439L64.2864685,32.8201027"/>
	</g>
</g>
</svg>
