<?xml version="1.0" encoding="utf-8"?>
<!-- Generator: Adobe Illustrator 22.1.0, SVG Export Plug-In . SVG Version: 6.00 Build 0)  -->
<svg version="1.1" id="Layer_1" xmlns="http://www.w3.org/2000/svg" xmlns:xlink="http://www.w3.org/1999/xlink" x="0px" y="0px"
	 viewBox="0 0 100 100" style="enable-background:new 0 0 100 100;" xml:space="preserve">
<style type="text/css">
	.st0{fill:#73AF37;}
</style>
<g>
	<path d="M442.8449707,210.6105804c-2.0054626,0.7078094-3.8693848,1.3448334-5.7332764,2.0526428
		c-0.5426636,0.2123413-0.5662537-0.2123413-0.7313843-0.4246826c-2.9256287-4.1524963-5.8512573-8.3049774-8.7768555-12.4574738
		c-0.1651611-0.2595215-0.3539124-0.4954681-0.5426636-0.7549896c-0.3067017,0.2123413-0.1887512,0.4954681-0.1887512,0.7078094
		c0,3.9401398-0.0235901,7.8567047,0,11.7968445c0,0.6370239-0.1651611,0.8021851-0.8021851,0.778595
		c-1.698761-0.0471954-3.3974915-0.0471954-5.0962219,0c-0.5190735,0-0.7314148-0.0943756-0.7314148-0.6842194
		c0.0235901-11.9384003,0.0235901-23.8768158,0-35.8152161c0-0.6134338,0.1887512-0.7550049,0.7550049-0.7313995
		c1.698761,0.0471802,3.3974915,0.0471802,5.0962219,0c0.5898438-0.0236053,0.7550049,0.1415558,0.7314148,0.7313995
		c-0.0235901,6.7241974-0.0235901,13.4719849,0,20.1961975c0,0.2831116-0.2359314,0.7078094,0.2359314,0.8729553
		c0.4246826,0.141571,0.660614-0.1887512,0.8965454-0.4718628c2.5953064-3.0671844,5.1906128-6.1343689,7.738739-9.2251282
		c0.4482727-0.5190735,0.778595-0.6842194,1.439209-0.3539124c1.321228,0.6606293,2.7132568,1.2268677,4.1289062,1.8403015
		c-2.5953064,2.8312531-5.0962524,5.6153107-7.6679688,8.3521729c-0.5898438,0.6370239-0.7077942,1.0145264-0.0943604,1.7695312
		C436.6634216,202.6830902,439.7070007,206.6232452,442.8449707,210.6105804z"/>
	<path d="M380.9823303,209.0298004c-0.7078247,0.6370239-1.2504883,1.1796875-1.8639221,1.6515656
		c-3.4210815,2.6188965-7.1960754,2.9256134-11.0654297,1.2740479c-2.7604675-1.1796875-3.8221741-3.6570129-4.0109253-6.4646606
		c-0.4010925-6.0163879-0.0943604-12.0327911-0.1887512-18.0491791c0-0.4954681,0.2123413-0.5426483,0.6134338-0.5190582
		c1.7223511,0.0235901,3.4447021,0.0471954,5.1670227,0c0.660614-0.0235901,0.778595,0.2123413,0.778595,0.8257751
		c-0.0235901,4.4592133-0.0472107,8.9420166,0,13.4012146c0,1.1560974-0.0235901,2.3121948,0.2123413,3.4446869
		c0.6134338,2.9492035,2.6896667,4.1053009,5.379364,3.7513885c3.2559204-0.4246826,4.9310608-2.6424866,4.9546509-6.370285
		c0.0236206-4.6951447,0.0236206-9.3902893,0-14.085434c0-0.7314148,0.141571-1.0145264,0.9437561-0.9909363
		c1.6751709,0.0707855,3.3267212,0.0471802,5.0018616,0.0235901c0.4718933,0,0.6370239,0.141571,0.6370239,0.6134491
		c-0.0235901,8.0690308-0.0235901,16.1144867,0,24.1835175c0,0.4718781-0.1415405,0.6134491-0.6134338,0.6134491
		c-1.8167114-0.0236053-3.6098328-0.0236053-5.4265442,0c-0.4010925,0-0.5426331-0.0943756-0.519043-0.5190735
		C381.0059204,210.9172974,380.9823303,210.0679169,380.9823303,209.0298004z"/>
	<path d="M398.6539917,190.2964172c1.3920288-1.4392242,2.6660767-2.5953064,4.2940369-3.2087555
		c2.5245361-0.9673309,5.1198425-1.0852966,7.6915588-0.2123413c3.1851501,1.108902,4.7187195,3.609848,4.9546814,6.8185883
		c0.4246826,6.039978,0.1415405,12.1035614,0.2123413,18.1435394c0,0.3539124-0.0708008,0.4954681-0.4718933,0.4954681
		c-1.8874817-0.0235901-3.798584-0.0235901-5.6860657,0c-0.660614,0.0235901-0.4718933-0.4246826-0.4718933-0.7313995
		c0-4.9782715,0-9.956543,0-14.9348145c0-0.8021851-0.0471802-1.5807648-0.2595215-2.3357697
		c-0.8493652-3.0435791-3.0907593-3.7749939-5.8512268-3.2795258c-2.9020081,0.5190735-4.3884277,2.6425018-4.4120178,5.9927979
		c-0.0235901,4.8131104-0.0235901,9.6262207,0,14.415741c0,0.6842194-0.141571,0.8965607-0.8493652,0.8729706
		c-1.7223511-0.0707855-3.4447021-0.0471954-5.1670227,0c-0.4718933,0-0.6134338-0.1179657-0.6134338-0.6134338
		c0.0235901-8.0218658,0.0235901-16.0673065,0-24.0891571c0-0.5426636,0.1651611-0.6606293,0.660614-0.6370239
		c1.7695312,0.0235901,3.5626526,0.0471802,5.3557739,0c0.5662231-0.0236053,0.660614,0.1887512,0.6370239,0.6842041
		C398.6068115,188.4325104,398.6539917,189.2346954,398.6539917,190.2964172z"/>
	<path d="M353.0473938,193.6939087c0-5.9456177,0-11.8912201-0.0235901-17.8368225
		c0-0.6134491,0.1179504-0.8257904,0.778595-0.8022003c1.7223206,0.0471954,3.4446716,0.0236053,5.1670227,0
		c0.4718628,0,0.6134338,0.117981,0.6134338,0.6134491c-0.0235901,12.0091858-0.0235901,23.9947662,0,36.0039673
		c0,0.5662384-0.1887512,0.6370239-0.6842346,0.6134338c-1.6751404-0.0235901-3.3502808-0.0471954-5.0018616,0
		c-0.6842041,0.0235901-0.8965454-0.141571-0.8965454-0.8729706
		C353.0709839,205.5143433,353.0473938,199.615921,353.0473938,193.6939087z"/>
	<path d="M318.7657776,191.5232849c-1.5100098-0.9909363-3.0671997-1.6043701-4.8839111-1.3212433
		c-1.0381165,0.1651459-1.8874817,0.660614-2.241394,1.6987305c-0.3539124,1.0381317,0,1.9346924,0.7550049,2.689682
		c1.58078,1.58078,3.4682617,2.8076477,5.1670227,4.2468719c0.4954529,0.4246826,0.9673157,0.8729553,1.4627991,1.2976532
		c3.8457642,3.3738861,2.878418,10.2868347-3.1143799,12.1507416c-4.1288757,1.2740631-8.0454407,0.778595-11.6080933-1.8403015
		c-0.4718628-0.3303223-0.519043-0.5898438-0.1887512-1.0617218c0.5426636-0.778595,1.038147-1.6043701,1.4864197-2.4537354
		c0.2359314-0.4246979,0.3775024-0.4246979,0.7314148-0.117981c1.321228,1.0853119,2.7132568,2.029068,4.4827881,2.1706238
		c2.0526428,0.1887512,3.6334229-0.8493652,3.9165649-2.6424866c0.2123413-1.3920288-0.4010925-2.4773407-1.4392395-3.3267212
		c-1.2504578-1.0381165-2.5717163-2.0054626-3.8693542-3.019989c-1.3920288-1.0853119-2.7368774-2.1942139-3.5626526-3.798584
		c-1.7931213-3.4682617-0.0943604-7.7151337,3.8221741-9.1543427c3.6806335-1.3684387,7.2432861-0.8257904,10.6407471,1.108902
		c0.2831421,0.1651459,0.4010925,0.2831116,0.1887512,0.6134338
		C319.8982544,189.6593781,319.3556213,190.6031342,318.7657776,191.5232849z"/>
	<path class="st0" d="M448.5546265,211.5071411c0-1.3448486,0.0235901-2.4773407-0.0235901-3.6098328
		c-0.0235901-0.5190582,0.1887512-0.7314148,0.6134338-0.9437561c4.5535889-2.2885895,9.1071472-4.600769,13.6607666-6.8893585
		c0.2123413-0.0943604,0.4010925-0.1887512,0.5898438-0.3067169c0.3774719-0.2123413,0.3774719-0.4482727,0-0.6842041
		c-0.1887512-0.117981-0.401123-0.2123413-0.5898438-0.3067322c-4.5064087-2.2649841-9.0128174-4.5299835-13.5427856-6.7477875
		c-0.5190735-0.2595367-0.7550049-0.5426636-0.7314148-1.1560974c0.0472107-1.1324921,0.0235901-2.2649841,0.0235901-3.5154572
		c0.920166,0.448288,1.7459412,0.8493805,2.5717163,1.2740631c4.0345154,2.0762482,8.0690613,4.128891,12.1035767,6.2051392
		c1.5335693,0.778595,3.0435791,1.58078,4.577179,2.359375c0.3538818,0.1651459,0.4954529,0.3775024,0.4954529,0.778595
		c-0.0235901,0.9437408-0.0471802,1.8638916,0,2.8076324c0.0235901,0.5190735-0.1651611,0.8021851-0.6370239,1.0381317
		c-4.9546814,2.4773407-9.9093628,4.9782715-14.8640442,7.5027924
		C451.4094849,209.9735413,450.0646362,210.7049561,448.5546265,211.5071411z"/>
	<path d="M348.635376,192.1603088c-3.3031311-7.0780945-12.5754395-7.5735626-16.916687-2.6896667
		c-0.2831116,0.3067169-0.6134338,0.5898438-1.0617065,1.0381165c0-1.0853119-0.0235901-1.9818726,0-2.8784332
		c0.0235901-0.5190582-0.1179504-0.6842194-0.660614-0.660614c-1.698761,0.0235901-3.3974915,0.0471802-5.0962524,0
		c-0.519043,0-0.660614,0.1415558-0.660614,0.660614c0.0235901,12.2451324,0.0235901,24.5138397,0,36.7589722
		c0,0.5898438,0.2123413,0.6842041,0.7078247,0.660614c1.6515503-0.0235901,3.2795105-0.0471954,4.9310608,0
		c0.6842346,0.0235901,0.7550049-0.2359314,0.7550049-0.8257751c-0.0235901-4.7187347-0.0235901-9.4610748-0.0235901-14.1798096
		c0-0.3067169,0-0.6134338,0-1.1324921c0.3302917,0.3538971,0.4954529,0.5426483,0.6842041,0.7313995
		c1.0381165,1.0853119,2.1234436,2.0998383,3.5626526,2.6660919c3.940155,1.58078,9.177948,0.1651459,11.9620056-3.4210815
		C350.8295898,203.6976318,351.3486633,197.9643555,348.635376,192.1603088z M343.3031921,199.2148285
		c-0.0943604,2.3357697-0.4010925,4.6243591-1.5335693,6.7713776c-2.2886047,4.3176575-7.7151489,3.5862427-9.6498413,0.1887512
		c-1.321228-2.3121796-1.6043701-4.8367004-1.4627991-7.4320068c0.0943604-1.8167114,0.4482727-3.5626526,1.2976685-5.1906128
		c1.8638916-3.4918671,6.1579285-4.3884277,8.8476257-1.8403015c1.4627991,1.3920288,2.0526428,3.2087402,2.3357544,5.1198273
		C343.2088318,197.6340485,343.3503723,198.4362335,343.3031921,199.2148285z"/>
</g>
<g>
	<path d="M82.1471863,55.9813004c-1.1361923,0.4010086-2.1921844,0.7619171-3.2481689,1.1629257
		c-0.3074417,0.1203041-0.3208084-0.1203003-0.4143753-0.2406044c-1.6575089-2.3525887-3.3150024-4.7051735-4.9725113-7.0577621
		c-0.0935745-0.1470375-0.2005081-0.2807083-0.3074417-0.427742c-0.1737671,0.1203003-0.1069336,0.2807045-0.1069336,0.4010086
		c0,2.2322845-0.0133667,4.4512024,0,6.6834869c0,0.3609047-0.0935669,0.4544754-0.454483,0.4411087
		c-0.9624176-0.0267334-1.9248428-0.0267334-2.8872604,0c-0.294075,0-0.4143753-0.0534668-0.4143753-0.3876419
		c0.0133667-6.7636871,0.0133667-13.5273743,0-20.2910652c0-0.347538,0.1069336-0.427742,0.4277496-0.4143753
		c0.9624252,0.0267334,1.9248428,0.0267334,2.8872604,0c0.3341751-0.0133667,0.427742,0.080204,0.4143753,0.4143753
		c-0.0133667,3.8095894-0.0133667,7.6325417,0,11.4421272c0,0.1604042-0.1336746,0.4010124,0.133667,0.4945793
		c0.2406082,0.080204,0.3742752-0.1069374,0.5079422-0.2673416c1.4703674-1.7377052,2.9407349-3.4754105,4.3843689-5.2264824
		c0.2539749-0.294075,0.4411087-0.3876419,0.8153839-0.2005043c0.7485428,0.3742752,1.5372009,0.6950798,2.3392181,1.0426216
		c-1.4703674,1.6040382-2.8872604,3.1813431-4.3442688,4.7319107c-0.3341751,0.3609085-0.4010086,0.5747795-0.0534668,1.0025215
		C78.64505,51.4899979,80.3693848,53.7222824,82.1471863,55.9813004z"/>
	<path d="M47.0989914,55.0857124c-0.4010086,0.3609085-0.7084503,0.6683502-1.0559921,0.935688
		c-1.9382095,1.4837341-4.0769272,1.657505-6.2691078,0.721817c-1.5639381-0.6683502-2.165451-2.0718803-2.2723846-3.6625481
		c-0.2272415-3.4085808-0.0534668-6.8171577-0.1069336-10.2257347c0-0.2807083,0.1203003-0.3074417,0.3475418-0.294075
		c0.9757843,0.0133705,1.9515762,0.0267334,2.9273643,0c0.3742752-0.0133667,0.4411087,0.1203041,0.4411087,0.4678459
		c-0.0133667,2.5263557-0.0267372,5.066082,0,7.5924416c0,0.6549797-0.0133667,1.3099632,0.1203041,1.9515762
		c0.3475418,1.6708717,1.5238304,2.3258553,3.0476646,2.1253471c1.8446426-0.2406044,2.7936974-1.497097,2.8070641-3.6090813
		c0.0133705-2.6600266,0.0133705-5.3200531,0-7.9800835c0-0.4143753,0.080204-0.5747795,0.5346794-0.561409
		c0.9490585,0.0401001,1.8847466,0.0267334,2.8338013,0.0133667c0.2673378,0,0.3609085,0.0802002,0.3609085,0.3475418
		c-0.0133667,4.5715027-0.0133667,9.1296425,0,13.7011452c0,0.2673416-0.0802002,0.3475418-0.3475418,0.3475418
		c-1.0292587-0.0133667-2.0451431-0.0133667-3.0744019,0c-0.2272415,0-0.3074379-0.0534668-0.294075-0.2940712
		C47.1123581,56.1550713,47.0989914,55.6738586,47.0989914,55.0857124z"/>
	<path d="M57.1108513,44.4723358c0.7886505-0.8153839,1.5104675-1.4703674,2.4327927-1.8179092
		c1.4302673-0.5480461,2.9006348-0.6148796,4.3576317-0.1203003c1.8045425,0.6282463,2.6733932,2.0451469,2.8070679,3.8630524
		c0.2406082,3.4219475,0.0802002,6.8572578,0.1203003,10.2792053c0,0.2005043-0.0401001,0.2807045-0.2673416,0.2807045
		c-1.0693588-0.0133667-2.1520844-0.0133667-3.2214394,0c-0.3742752,0.0133705-0.2673416-0.2406044-0.2673416-0.4143753
		c0-2.8204308,0-5.6408615,0-8.4612961c0-0.4544754-0.0267334-0.8955841-0.1470375-1.3233261
		c-0.4812088-1.7243385-1.7510719-2.1387177-3.3150063-1.8580093c-1.6441345,0.2940712-2.4862595,1.4971008-2.4996262,3.3952103
		c-0.0133667,2.72686-0.0133667,5.4537239,0,8.1672173c0,0.3876419-0.0802002,0.507946-0.4812126,0.4945793
		c-0.9757843-0.0401039-1.9515762-0.0267334-2.9273643,0c-0.2673416,0-0.3475418-0.0668373-0.3475418-0.3475418
		c0.0133667-4.5447731,0.0133667-9.1029091,0-13.6476784c0-0.3074417,0.0935707-0.3742752,0.3742714-0.3609085
		c1.0025253,0.0133667,2.0184135,0.0267334,3.0343056,0c0.3208084-0.0133667,0.3742752,0.1069374,0.3609085,0.3876419
		C57.0841217,43.4163475,57.1108513,43.8708229,57.1108513,44.4723358z"/>
	<path d="M31.2724953,46.3971825c0-3.3684769,0-6.7369537-0.0133667-10.1054306
		c0-0.3475418,0.0668335-0.4678459,0.4411106-0.4544792c0.97579,0.0267334,1.9515743,0.0133667,2.9273663,0
		c0.2673416,0,0.3475418,0.0668373,0.3475418,0.3475418c-0.0133667,6.8037872-0.0133667,13.5942078,0,20.3980026
		c0,0.3208046-0.1069336,0.3609085-0.3876381,0.3475418c-0.9490585-0.0133667-1.8981133-0.0267334-2.8337994,0
		c-0.3876419,0.0133667-0.507946-0.080204-0.507946-0.4945793C31.2858639,53.0940323,31.2724953,49.7522888,31.2724953,46.3971825z"
		/>
	<path d="M11.8502846,45.1674194c-0.8554869-0.5614128-1.7377062-0.9089546-2.766963-0.7485504
		c-0.5881472,0.0935669-1.0693579,0.3742752-1.2698622,0.9624214c-0.2005048,0.5881462,0,1.0960884,0.427743,1.5238342
		c0.895586,0.8955841,1.9649439,1.5906677,2.9273663,2.4060516c0.2807064,0.2406082,0.5480461,0.4945793,0.8287525,0.7351837
		c2.1788158,1.9114799,1.6307697,5.8279991-1.7644405,6.8839912c-2.3392196,0.721817-4.5581369,0.4411125-6.5765505-1.0426216
		c-0.2673392-0.1871376-0.2940733-0.3341751-0.1069355-0.6015167c0.3074403-0.4411087,0.5881469-0.9089546,0.842119-1.3901634
		c0.1336699-0.2406044,0.2138715-0.2406044,0.4143763-0.0668335c0.7485499,0.6148796,1.5372014,1.149559,2.5397253,1.2297592
		c1.1629257,0.1069374,2.0585136-0.4812126,2.2189169-1.4971008c0.1203032-0.7886505-0.2272377-1.4035301-0.8153849-1.8847427
		c-0.7084503-0.5881462-1.4570003-1.1361923-2.192184-1.7109718c-0.7886515-0.6148834-1.5505686-1.2431297-2.0184126-2.1520844
		c-1.0158896-1.9649429-0.0534682-4.3709984,2.1654496-5.1863861c2.085248-0.7752838,4.1036606-0.4678421,6.0285053,0.6282463
		c0.1604033,0.0935707,0.2272377,0.1604042,0.1069355,0.3475418C12.4918995,44.1114273,12.1844587,44.6461067,11.8502846,45.1674194
		z"/>
	<path class="st0" d="M85.3819962,56.4892464c0-0.7619171,0.0133667-1.4035339-0.0133591-2.0451469
		c-0.0133667-0.294075,0.1069336-0.4143791,0.3475342-0.5346794c2.5798264-1.2965965,5.1596527-2.6065598,7.7394791-3.9031563
		c0.1203079-0.0534668,0.2272415-0.1069374,0.3341751-0.1737709c0.2138672-0.1203003,0.2138672-0.2539711,0-0.3876419
		c-0.1069336-0.0668335-0.2272415-0.1203003-0.3341751-0.1737709c-2.5530853-1.2832298-5.1061859-2.5664558-7.6726456-3.8229561
		c-0.294075-0.1470375-0.427742-0.3074379-0.4143677-0.6549797c0.0267334-0.641613,0.0133591-1.2832298,0.0133591-1.9916763
		c0.5213165,0.2539711,0.9891586,0.4812126,1.4570084,0.7218132c2.2857437,1.1762962,4.5715027,2.339222,6.857254,3.5155144
		c0.8688507,0.4411125,1.7243423,0.8955879,2.5931931,1.3366966c0.2005081,0.0935707,0.2807083,0.2138748,0.2807083,0.4411125
		c-0.0133667,0.5346794-0.026741,1.0559883,0,1.5906677c0.0133591,0.294075-0.0935745,0.4544754-0.3609161,0.5881462
		c-2.8070602,1.4035339-5.6141281,2.8204346-8.4211884,4.2506981
		C86.9994049,55.6203918,86.2374878,56.0347672,85.3819962,56.4892464z"/>
	<path d="M28.7728729,45.5283279c-1.871376-4.0100899-7.1245975-4.2907982-9.5841198-1.5238342
		c-0.1604023,0.1737709-0.3475418,0.3341751-0.6015129,0.5881462c0-0.6148796-0.0133686-1.1228256,0-1.6307716
		c0.0133667-0.2940712-0.0668354-0.3876381-0.3742752-0.3742752c-0.9624233,0.0133705-1.9248447,0.0267334-2.8872671,0
		c-0.2940722,0-0.3742752,0.080204-0.3742752,0.3742752c0.0133667,6.9374619,0.0133667,13.8882866,0,20.8257446
		c0,0.3341751,0.1203032,0.3876419,0.4010096,0.3742752c0.9356861-0.0133667,1.8580093-0.0267334,2.7936974,0
		c0.3876419,0.0133667,0.427742-0.133667,0.427742-0.4678459c-0.0133667-2.6733932-0.0133667-5.360157-0.0133667-8.0335503
		c0-0.1737709,0-0.3475418,0-0.6416168c0.1871357,0.2005043,0.2807064,0.3074417,0.38764,0.4143791
		c0.5881462,0.6148796,1.2030277,1.1896591,2.0184135,1.5104675c2.2322845,0.8955879,5.1997528,0.0935669,6.7770557-1.9382095
		C30.0160007,52.0647774,30.3100739,48.8166008,28.7728729,45.5283279z M25.751936,49.5250511
		c-0.0534668,1.3233299-0.2272377,2.6199303-0.8688526,3.8363228c-1.2965965,2.4461555-4.3710003,2.0317802-5.4670944,0.1069336
		c-0.7485504-1.3099632-0.9089546-2.7402267-0.8287506-4.2105942c0.0534668-1.0292587,0.2539711-2.0184135,0.7351837-2.9407349
		c1.0559883-1.9783134,3.4887791-2.4862556,5.0126133-1.0426254c0.8287525,0.7886505,1.1629276,1.8179092,1.3233299,2.9006348
		C25.6984692,48.629467,25.7786694,49.0839424,25.751936,49.5250511z"/>
</g>
</svg>
