<svg id="Layer_1" data-name="Layer 1" xmlns="http://www.w3.org/2000/svg" viewBox="0 0 100 100"><defs><style>.cls-1{fill:#70a9ff;}.cls-2{fill:#cfe1ff;}.cls-3{fill:none;stroke:#000;stroke-miterlimit:10;stroke-width:0.5px;}.cls-4{fill:#00c8fa;}.cls-5{fill:#00a9d2;}.cls-6{fill:#fff;}.cls-7{fill:#0eb7ed;opacity:0.5;isolation:isolate;}</style></defs><g id="Layer_1-2" data-name="Layer 1"><path class="cls-1" d="M30,40.06c-2.6,1-5.83,4.21-1.25,11s17.17,5.41,23-2c4.47-5.72,4.63-6.92,5.67-7.86a4.39,4.39,0,0,0,5.1-2.71,3.64,3.64,0,0,0-5.15.31s1.46-1.61.31-3Z"/><path class="cls-2" d="M26.72,47c0.88,0.62,6.19,2.6,12.17-1,0,0-2,7.23,6.29,7.8,0,0-7.18,3.17-12.64.47S26.72,47,26.72,47Z"/><path class="cls-3" d="M57.52,35.79c1.09,1.46-.31,3-0.31,3a3.69,3.69,0,0,1,5.15-.31,4.5,4.5,0,0,1-5.1,2.71c-1,1-1.14,2.18-5.62,7.91-5.72,7.39-18.47,8.74-23,2s-1.46-10.25,1.25-11"/><path class="cls-3" d="M26.72,46.87c1.2,1.3,8.06,1.82,12.75-1.25"/><path class="cls-1" d="M69.07,42.76s1.46-1.61.31-3L41.86,44c-2.6,1-5.83,4.21-1.25,11s17.27,5.57,23-1.92c4.47-5.72,4.63-6.92,5.67-7.86a4.39,4.39,0,0,0,5.1-2.71A4,4,0,0,0,69.07,42.76Zm-5,1.72,2.45-1.61a4.06,4.06,0,0,0,.88,1.25A4.84,4.84,0,0,1,64.07,44.48Z"/><path class="cls-1" d="M43.53,24.76c3.12,0,4.68-3,4.68-3-3.9-1.2-3-5.93-3-5.93A4.57,4.57,0,0,1,49,19.09c0.16-3.33,3.8-3.64,3.8-3.64a4.55,4.55,0,0,1-2.24,5.88,58.85,58.85,0,0,1,.62,9.21c-0.1,1.35-3.12,12.64-15.61,11.7s-12-12-10.25-13.58c0.78-.73,3.75-2,7.54-2.39"/><path class="cls-2" d="M24.8,34.28c0.88,0.68,5.83,2.34,11.7-1.4,0,0-1.61,7.54,6.76,8.22,0,0-7.18,3.17-12.64.47S24.8,34.28,24.8,34.28Z"/><path class="cls-3" d="M24.64,34.07c1.2,1.25,8.06,1.61,12.64-1.51"/><path class="cls-3" d="M43.11,25c3.12,0,5-3,5-3-3.9-1.2-3-5.88-3-5.88a4.57,4.57,0,0,1,3.8,3.28c0.16-3.33,3.8-3.64,3.8-3.64a4.55,4.55,0,0,1-2.24,5.88,37.53,37.53,0,0,1,.62,9.21C50.91,33,47.95,43.49,35.46,42.55S23.6,30.38,25.21,28.82a12.87,12.87,0,0,1,7.54-2.6"/><path class="cls-1" d="M34.84,31.06c-1.66,1.51-2.13,12.8,10.35,13.73S60.64,34.44,60.8,33.08a58.28,58.28,0,0,0-.62-9.21A4.54,4.54,0,0,0,62.41,18s-3.64.26-3.8,3.64c0,0-.42-2.55-3.8-3.28,0,0-.88,4.68,3,5.88,0,0-1.61,3-4.68,3"/><path class="cls-2" d="M34.42,36.67c0.88,0.62,5.83,2.29,11.7-1.46,0,0-1.61,7.54,6.76,8.22,0,0-7.23,2.86-12.75.16S34.42,36.67,34.42,36.67Z"/><path class="cls-3" d="M34.21,36.47c1.2,1.25,8.06,1.61,12.64-1.51"/><path class="cls-3" d="M52.73,27.15c3.12,0,5-3,5-3-3.9-1.2-3-5.88-3-5.88a4.57,4.57,0,0,1,3.8,3.28c0.16-3.33,3.8-3.64,3.8-3.64a4.55,4.55,0,0,1-2.24,5.88,43.25,43.25,0,0,1,.57,9.31C60.49,35.27,57.52,45.78,45,44.84S33.28,32.62,34.84,31.06c0.42-.42,1.09-0.78,3.28-0.94"/><path class="cls-1" d="M46,31.84c-1.66,1.51-2.13,12.8,10.35,13.79s15.14-11,15.29-12.33a62.51,62.51,0,0,0-.31-8.58,4.54,4.54,0,0,0,2.24-5.88s-3.64.26-3.8,3.64c0,0-.42-2.55-3.8-3.28,0,0-.88,4.68,3,5.88,0,0-1.61,3-4.68,3"/><path class="cls-3" d="M66.47,42.92a4.06,4.06,0,0,0,.88,1.25,5.36,5.36,0,0,1-3.33.31"/><polygon class="cls-4" points="33.07 20.29 33.07 28.87 48.21 32.3 64.13 28.35 64.13 10.92 50.19 9.57 41.03 10.66 41.03 18.73 33.07 20.29"/><polygon class="cls-5" points="63.92 10.82 63.92 28.35 48 32.72 48 22.78 55.96 21.33 55.96 12.43 63.92 10.82"/><polyline class="cls-3" points="32.86 20.29 48.05 22.58 63.92 19.82"/><polyline class="cls-3" points="40.82 10.66 55.96 12.33 63.92 11.08"/><line class="cls-3" x1="55.96" y1="12.43" x2="55.96" y2="30.33"/><line class="cls-3" x1="48" y1="22.78" x2="48" y2="32.3"/><line class="cls-3" x1="55.96" y1="21.22" x2="40.82" y2="18.73"/><path class="cls-6" d="M61.11,37.14a7.18,7.18,0,0,1-1-.16,2.14,2.14,0,0,1-1.46-2.39,2.46,2.46,0,0,1,2.6-2,2.69,2.69,0,0,1,1.77.62,2.17,2.17,0,0,1,.57,1.66,2.27,2.27,0,0,1-2.45,2.24h0Z"/><path d="M61.37,32.77a1.87,1.87,0,0,1,2.08,2.08,2.16,2.16,0,0,1-2.29,2.08,5.86,5.86,0,0,1-.94-0.16,2,2,0,0,1-1.35-2.13,2.42,2.42,0,0,1,2.5-1.87m0-.36a2.75,2.75,0,0,0-2.86,2.13,2.2,2.2,0,0,0,1.61,2.55,2.42,2.42,0,0,0,1,.16,2.66,2.66,0,0,0,2.71-2.45A2.44,2.44,0,0,0,63.24,33a3,3,0,0,0-1.87-.57h0Z"/><path d="M60.64,32.93a1.71,1.71,0,0,0-1.82,1.35,1.44,1.44,0,0,0,.94,1.61,1.71,1.71,0,0,0,2.39-1.46A1.33,1.33,0,0,0,60.64,32.93Z"/><path class="cls-6" d="M54.61,51.24a6.9,6.9,0,0,1-1.09-.16,2.41,2.41,0,0,1-1.61-2.55,2.74,2.74,0,0,1,2.86-2.24,2.67,2.67,0,0,1,1.92.73,2.49,2.49,0,0,1,.62,1.82,2.66,2.66,0,0,1-2.71,2.39h0Z"/><path d="M54.81,46.51A2.06,2.06,0,0,1,57.1,48.8a2.37,2.37,0,0,1-2.45,2.29,7.18,7.18,0,0,1-1-.16,2,2,0,0,1-1.46-2.29,2.4,2.4,0,0,1,2.65-2.13m0-.42a3,3,0,0,0-3.12,2.39,2.52,2.52,0,0,0,1.66,2.81,3.3,3.3,0,0,0,1.2.26A2.64,2.64,0,0,0,57.42,49a3.32,3.32,0,0,0-.62-2,2.24,2.24,0,0,0-2-.88h0Z"/><path d="M53.57,46.56A1.51,1.51,0,0,0,52.32,48a1.34,1.34,0,0,0,.88,1.46,1.57,1.57,0,0,0,2.13-1.25A1.41,1.41,0,0,0,53.57,46.56Z"/><path class="cls-2" d="M45.45,37.4C46.34,38,51.64,39.8,57.57,36c0,0-1.61,7.54,6.76,8.22,0,0-7.49,2.86-13,.16S45.45,37.4,45.45,37.4Z"/><path class="cls-2" d="M38.69,51C39.57,51.66,45,53.32,51,49.58c0,0-2.08,7.54,6.19,8.22,0,0-7.18,3.17-12.64.47S38.69,51,38.69,51Z"/><path class="cls-3" d="M45.35,37.25c1.2,1.25,8.06,1.61,12.64-1.51"/><path class="cls-3" d="M46,31.84c-1.66,1.51-2.13,12.8,10.35,13.79s15-10.2,15.29-12.33a38.62,38.62,0,0,0-.31-8.58,4.54,4.54,0,0,0,2.24-5.88s-3.64.26-3.8,3.64c0,0-.42-2.55-3.8-3.28,0,0-.88,4.68,3,5.88,0,0-1.92,3-5,3"/><path class="cls-3" d="M69.17,39.8a2.67,2.67,0,0,1,0,3,3.69,3.69,0,0,1,5.15-.31,4.5,4.5,0,0,1-5.1,2.71c-1,.94-1.2,2.13-5.67,7.86-5.72,7.39-18.73,8.9-23,2-4-6.5-1.92-10.09.88-10.92"/><path class="cls-3" d="M38.84,51.19c1.35,1.25,7.86,1.35,12.49-1.82"/></g><g id="Layer_3" data-name="Layer 3"><path class="cls-7" d="M33.9,29.18L37,29.91l-1.61.78A1.86,1.86,0,0,0,33.9,29.18Z"/><path class="cls-7" d="M41,30.74c-3.12-.62,4.94,1,4.94,1a4.2,4.2,0,0,0-.94,2.6C44.93,34.44,43.37,31.26,41,30.74Z"/><polygon class="cls-3" points="32.86 20.29 32.86 28.87 48 32.3 63.92 28.35 63.92 11.08 49.98 9.57 40.82 10.66 40.82 18.73 32.86 20.29"/></g><path class="cls-1" d="M7.55,80.31a0.63,0.63,0,0,1-.19-0.46V71.38a0.62,0.62,0,0,1,.19-0.47A0.64,0.64,0,0,1,8,70.73h2.26a5,5,0,0,1,2.51.63,4.41,4.41,0,0,1,1.71,1.73,5.5,5.5,0,0,1,0,5,4.4,4.4,0,0,1-1.71,1.74,5,5,0,0,1-2.51.62H8A0.63,0.63,0,0,1,7.55,80.31Zm2.73-1a3.64,3.64,0,0,0,1.86-.48,3.3,3.3,0,0,0,1.27-1.33,4.3,4.3,0,0,0,0-3.86,3.31,3.31,0,0,0-1.27-1.32,3.64,3.64,0,0,0-1.86-.48H8.66v7.46h1.61Z"/><path class="cls-1" d="M17.71,80.1a3.14,3.14,0,0,1-1.22-1.23,3.9,3.9,0,0,1,0-3.59,3.14,3.14,0,0,1,1.22-1.23,3.58,3.58,0,0,1,1.79-.44,3.52,3.52,0,0,1,1.77.44,3.19,3.19,0,0,1,1.22,1.23,3.87,3.87,0,0,1,0,3.59,3.14,3.14,0,0,1-1.22,1.23,3.54,3.54,0,0,1-1.78.44A3.58,3.58,0,0,1,17.71,80.1Zm2.93-1a2.08,2.08,0,0,0,.79-0.83,2.54,2.54,0,0,0,.28-1.21,2.58,2.58,0,0,0-.28-1.21A2.07,2.07,0,0,0,20.65,75a2.33,2.33,0,0,0-2.29,0,2.11,2.11,0,0,0-.79.84,2.52,2.52,0,0,0-.29,1.21,2.48,2.48,0,0,0,.29,1.21,2.11,2.11,0,0,0,.79.83A2.34,2.34,0,0,0,20.65,79.12Z"/><path class="cls-1" d="M25.54,80.1a3.21,3.21,0,0,1-1.23-1.24,3.56,3.56,0,0,1-.44-1.77,3.69,3.69,0,0,1,.43-1.79,3.1,3.1,0,0,1,1.21-1.24,3.45,3.45,0,0,1,1.75-.44,3.11,3.11,0,0,1,2.45,1.12,0.47,0.47,0,0,1,.13.33,0.55,0.55,0,0,1-.27.46,0.49,0.49,0,0,1-.29.09,0.63,0.63,0,0,1-.49-0.23,2,2,0,0,0-.68-0.49,2.15,2.15,0,0,0-.84-0.16,2,2,0,0,0-1.56.64,2.4,2.4,0,0,0-.6,1.71,2.53,2.53,0,0,0,.28,1.21,2.07,2.07,0,0,0,.79.83,2.23,2.23,0,0,0,1.16.3A2.08,2.08,0,0,0,28.69,79a0.79,0.79,0,0,1,.46-0.17,0.53,0.53,0,0,1,.32.11,0.58,0.58,0,0,1,.24.45,0.47,0.47,0,0,1-.15.34,3.18,3.18,0,0,1-2.25.84A3.52,3.52,0,0,1,25.54,80.1Z"/><path class="cls-1" d="M36.4,80a0.58,0.58,0,0,1-.22.46,0.63,0.63,0,0,1-.4.15,0.54,0.54,0,0,1-.45-0.22L33,77.42,32.33,78v1.91a0.61,0.61,0,1,1-1.22,0V71.35a0.61,0.61,0,1,1,1.22,0v5.09l3-2.71a0.53,0.53,0,0,1,.39-0.16,0.52,0.52,0,0,1,.43.2,0.53,0.53,0,0,1,.16.39,0.52,0.52,0,0,1-.2.43l-2.3,2,2.43,3A0.53,0.53,0,0,1,36.4,80Z"/><path class="cls-1" d="M42.94,77.36a0.57,0.57,0,0,1-.41.16H37.78a2.2,2.2,0,0,0,.79,1.41,2.45,2.45,0,0,0,1.61.54A2.41,2.41,0,0,0,41,79.33,2.33,2.33,0,0,0,41.63,79,0.65,0.65,0,0,1,42,78.86a0.54,0.54,0,0,1,.37.12,0.55,0.55,0,0,1,.23.43,0.45,0.45,0,0,1-.2.38,3.49,3.49,0,0,1-1.06.55,3.82,3.82,0,0,1-3-.23,3.22,3.22,0,0,1-1.27-1.23,3.5,3.5,0,0,1-.46-1.79A3.69,3.69,0,0,1,37,75.29a3.12,3.12,0,0,1,1.2-1.24A3.43,3.43,0,0,1,40,73.61a3.15,3.15,0,0,1,1.66.42,2.81,2.81,0,0,1,1.08,1.19A3.92,3.92,0,0,1,43.1,77,0.52,0.52,0,0,1,42.94,77.36Zm-4.43-2.18a2.25,2.25,0,0,0-.72,1.34H42a2.22,2.22,0,0,0-.63-1.34,1.83,1.83,0,0,0-1.34-.5A2.16,2.16,0,0,0,38.51,75.18Z"/><path class="cls-1" d="M48.49,73.78a0.58,0.58,0,0,1,.38.5,0.44,0.44,0,0,1,0,.13,0.48,0.48,0,0,1-.5.4l-0.19,0a4.87,4.87,0,0,0-.81-0.09,2.36,2.36,0,0,0-1.45.41,1.32,1.32,0,0,0-.55,1.11v3.65a0.65,0.65,0,0,1-.16.46,0.62,0.62,0,0,1-.47.16,0.64,0.64,0,0,1-.46-0.16,0.62,0.62,0,0,1-.16-0.47V74.28a0.57,0.57,0,0,1,.62-0.62,0.55,0.55,0,0,1,.63.62v0.24a2.62,2.62,0,0,1,.92-0.69,2.8,2.8,0,0,1,1.17-.25A2.23,2.23,0,0,1,48.49,73.78Z"/><path class="cls-1" d="M53.61,80.07a3,3,0,0,1-1.37-1.44,0.68,0.68,0,0,1-.06-0.25,0.46,0.46,0,0,1,.14-0.33,0.71,0.71,0,0,1,.37-0.19h0.13a0.69,0.69,0,0,1,.38.12,0.71,0.71,0,0,1,.27.32,1.83,1.83,0,0,0,.89.83,3.17,3.17,0,0,0,1.46.34A2.8,2.8,0,0,0,57.4,79a1.35,1.35,0,0,0,.65-1.18,1.6,1.6,0,0,0-.55-1.22A2.83,2.83,0,0,0,55.83,76a4.32,4.32,0,0,1-2.44-.91,2.39,2.39,0,0,1-.89-1.89A2.17,2.17,0,0,1,53,71.81a2.85,2.85,0,0,1,1.25-.89A4.91,4.91,0,0,1,56,70.62a3.49,3.49,0,0,1,1.81.44,3.74,3.74,0,0,1,1.25,1.25,0.85,0.85,0,0,1,.15.45,0.53,0.53,0,0,1-.25.45,0.59,0.59,0,0,1-.33.09,0.68,0.68,0,0,1-.35-0.09A0.63,0.63,0,0,1,58,72.95a2.37,2.37,0,0,0-.84-0.86,2.52,2.52,0,0,0-1.28-.29,2.86,2.86,0,0,0-1.54.37,1.19,1.19,0,0,0-.59,1.07,1.36,1.36,0,0,0,.52,1.09,3.59,3.59,0,0,0,1.88.57,3.93,3.93,0,0,1,2.32.91,2.58,2.58,0,0,1,.83,2,2.49,2.49,0,0,1-.49,1.54,2.94,2.94,0,0,1-1.29,1,4.66,4.66,0,0,1-1.73.32A4.48,4.48,0,0,1,53.61,80.07Z"/><path class="cls-1" d="M68.22,73.8a0.52,0.52,0,0,1,.13.38,1,1,0,0,1-.06.36l-1.85,5.55a0.62,0.62,0,0,1-.22.29,0.6,0.6,0,0,1-.36.12,0.65,0.65,0,0,1-.38-0.12,0.54,0.54,0,0,1-.22-0.29L64,75.55l-1.29,4.54a0.61,0.61,0,0,1-.23.29,0.64,0.64,0,0,1-.74,0,0.6,0.6,0,0,1-.23-0.29l-1.85-5.55a1.17,1.17,0,0,1,0-.35,0.46,0.46,0,0,1,.52-0.52,0.58,0.58,0,0,1,.39.14,1,1,0,0,1,.26.44l1.35,4.21,1.27-4.31a0.69,0.69,0,0,1,.22-0.34,0.61,0.61,0,0,1,.41-0.13,0.59,0.59,0,0,1,.39.13,0.69,0.69,0,0,1,.22.34l1.13,4.4,1.37-4.3a0.67,0.67,0,0,1,.65-0.57A0.52,0.52,0,0,1,68.22,73.8Z"/><path class="cls-1" d="M73.63,74.06a3.37,3.37,0,0,1,1.24,1.25,3.49,3.49,0,0,1,.46,1.77v2.79a0.64,0.64,0,1,1-1.28,0V79.41a3.15,3.15,0,0,1-4,.69,3.15,3.15,0,0,1-1.15-1.24,3.72,3.72,0,0,1-.42-1.77,3.52,3.52,0,0,1,.45-1.77,3.29,3.29,0,0,1,1.24-1.25,3.46,3.46,0,0,1,1.76-.46A3.4,3.4,0,0,1,73.63,74.06Zm-0.61,5a2.16,2.16,0,0,0,.79-0.84,2.47,2.47,0,0,0,.29-1.19,2.51,2.51,0,0,0-.29-1.2A2.2,2.2,0,0,0,70.76,75a2.19,2.19,0,0,0-.8.84,2.46,2.46,0,0,0-.29,1.2A2.42,2.42,0,0,0,70,78.28a2.2,2.2,0,0,0,.8.84A2.24,2.24,0,0,0,73,79.11Z"/><path class="cls-1" d="M81,73.78a0.58,0.58,0,0,1,.38.5,0.44,0.44,0,0,1,0,.13,0.48,0.48,0,0,1-.5.4l-0.19,0a4.87,4.87,0,0,0-.81-0.09,2.36,2.36,0,0,0-1.45.41,1.32,1.32,0,0,0-.55,1.11v3.65a0.65,0.65,0,0,1-.16.46,0.62,0.62,0,0,1-.47.16,0.64,0.64,0,0,1-.46-0.16,0.62,0.62,0,0,1-.16-0.47V74.28a0.57,0.57,0,0,1,.62-0.62,0.55,0.55,0,0,1,.63.62v0.24a2.62,2.62,0,0,1,.92-0.69A2.8,2.8,0,0,1,80,73.58,2.23,2.23,0,0,1,81,73.78Z"/><path class="cls-1" d="M91,74.31a2.79,2.79,0,0,1,.67,2v3.58a0.63,0.63,0,0,1-.17.46,0.61,0.61,0,0,1-.46.18,0.62,0.62,0,0,1-.64-0.64V76.3A1.6,1.6,0,0,0,90,75.14a1.35,1.35,0,0,0-1-.39,1.4,1.4,0,0,0-1.07.45,1.62,1.62,0,0,0-.42,1.15v3.52a0.63,0.63,0,0,1-.17.46,0.61,0.61,0,0,1-.46.18,0.62,0.62,0,0,1-.64-0.64V76.3a1.6,1.6,0,0,0-.38-1.16,1.35,1.35,0,0,0-1-.39,1.41,1.41,0,0,0-1.08.45,1.62,1.62,0,0,0-.42,1.15v3.52a0.63,0.63,0,0,1-.17.46,0.64,0.64,0,0,1-1.1-.46V74.31a0.61,0.61,0,0,1,.18-0.46,0.63,0.63,0,0,1,.46-0.17,0.62,0.62,0,0,1,.45.17,0.63,0.63,0,0,1,.19.44,2.3,2.3,0,0,1,.78-0.51,2.6,2.6,0,0,1,1-.18,2.5,2.5,0,0,1,1.14.26,2.2,2.2,0,0,1,.83.73A2.61,2.61,0,0,1,88,73.86a2.92,2.92,0,0,1,1.25-.26A2.3,2.3,0,0,1,91,74.31Z"/></svg>