<?xml version="1.0" encoding="utf-8"?>
<!-- Generator: Adobe Illustrator 19.2.1, SVG Export Plug-In . SVG Version: 6.00 Build 0)  -->
<svg version="1.1" id="Layer_1" xmlns="http://www.w3.org/2000/svg" xmlns:xlink="http://www.w3.org/1999/xlink" x="0px" y="0px"
	 viewBox="0 0 100 100" style="enable-background:new 0 0 100 100;" xml:space="preserve">
<style type="text/css">
	.st0{fill:#0EB7ED;}
	.st1{fill:#D3EDF1;}
	.st2{fill:none;stroke:#000000;stroke-width:0.5;stroke-miterlimit:10;}
	.st3{fill:#00C8FA;}
	.st4{fill:#00A9D2;}
	.st5{fill:#FFFFFF;}
	.st6{opacity:0.5;fill:#0EB7ED;enable-background:new    ;}
</style>
<g id="Layer_2">
</g>
<g>
	<g id="Layer_1_1_">
		<path class="st0" d="M12.8,60.6c-5,2-11.2,8.1-2.4,21.1s33,10.4,44.2-3.8c8.6-11,8.9-13.3,10.9-15.1c3.8,0.9,8.4-1.1,9.8-5.2
			c0,0-4.7-4.4-9.9,0.6c0,0,2.8-3.1,0.6-5.8L12.8,60.6z"/>
		<path class="st1" d="M6.5,74c1.7,1.2,11.9,5,23.4-2c0,0-3.8,13.9,12.1,15c0,0-13.8,6.1-24.3,0.9C7.1,82.7,6.5,74,6.5,74z"/>
		<path class="st2" d="M65.7,52.4c2.1,2.8-0.6,5.8-0.6,5.8c5.2-4.9,9.9-0.6,9.9-0.6c-1.4,4-6,6-9.8,5.2C63.3,64.7,63,67,54.4,78
			c-11,14.2-35.5,16.8-44.2,3.8s-2.8-19.7,2.4-21.1"/>
		<path class="st2" d="M6.5,73.7C8.8,76.2,22,77.2,31,71.3"/>
		<path class="st0" d="M87.9,65.8c0,0,2.8-3.1,0.6-5.8l-52.9,8.1c-5,2-11.2,8.1-2.4,21.1c8.9,13.2,33.2,10.7,44.2-3.7
			c8.6-11,8.9-13.3,10.9-15.1c3.8,0.9,8.4-1.1,9.8-5.2C98,65.3,93.3,60.9,87.9,65.8z M78.3,69.1l4.7-3.1c0.9,1.7,1.4,2.1,1.7,2.4
			C84.7,68.5,81.5,70,78.3,69.1z"/>
		<path class="st0" d="M38.8,31.2c6,0,9-5.8,9-5.8C40.3,23.1,42,14,42,14c6.4,1.4,7.3,6.3,7.3,6.3c0.3-6.4,7.3-7,7.3-7
			c2.9,8-4.3,11.3-4.3,11.3s1.7,12.1,1.2,17.7c-0.2,2.6-6,24.3-30,22.5C-0.4,63,0.5,41.7,3.8,38.7c1.5-1.4,7.2-3.8,14.5-4.6"/>
		<path class="st1" d="M2.8,49.5C4.5,50.8,14,54,25.3,46.8c0,0-3.1,14.5,13,15.8c0,0-13.8,6.1-24.3,0.9S2.8,49.5,2.8,49.5z"/>
		<path class="st2" d="M2.5,49.1c2.3,2.4,15.5,3.1,24.3-2.9"/>
		<path class="st2" d="M38,31.6c6,0,9.6-5.7,9.6-5.7c-7.5-2.3-5.8-11.3-5.8-11.3c6.4,1.4,7.3,6.3,7.3,6.3c0.3-6.4,7.3-7,7.3-7
			c2.9,8-4.3,11.3-4.3,11.3s2,10.1,1.2,17.7c-0.3,4.1-6,24.3-30,22.5C-0.5,63.6,0.5,42,3.6,39c1.5-1.5,6.9-4.6,14.5-5"/>
		<path class="st0" d="M22.1,43.3C18.9,46.2,18,67.9,42,69.7s29.7-19.9,30-22.5c0.5-5.7-1.2-17.7-1.2-17.7s7.3-3.4,4.3-11.3
			c0,0-7,0.5-7.3,7c0,0-0.8-4.9-7.3-6.3c0,0-1.7,9,5.8,11.3c0,0-3.1,5.8-9,5.8"/>
		<path class="st1" d="M21.3,54.1c1.7,1.2,11.2,4.4,22.5-2.8c0,0-3.1,14.5,13,15.8c0,0-13.9,5.5-24.5,0.3
			C21.7,62.2,21.3,54.1,21.3,54.1z"/>
		<path class="st2" d="M20.9,53.7c2.3,2.4,15.5,3.1,24.3-2.9"/>
		<path class="st2" d="M56.5,35.8c6,0,9.6-5.7,9.6-5.7c-7.5-2.3-5.8-11.3-5.8-11.3c6.4,1.4,7.3,6.3,7.3,6.3c0.3-6.4,7.3-7,7.3-7
			c2.9,8-4.3,11.3-4.3,11.3s1.8,10.3,1.1,17.9c-0.3,4.1-6,24.3-30,22.5S19.1,46.3,22.1,43.3c0.8-0.8,2.1-1.5,6.3-1.8"/>
		<path class="st0" d="M43.5,44.8c-3.2,2.9-4.1,24.6,19.9,26.5c24,1.8,29.1-21.1,29.4-23.7c0.5-5.7-0.6-16.5-0.6-16.5
			s7.3-3.4,4.3-11.3c0,0-7,0.5-7.3,7c0,0-0.8-4.9-7.3-6.3c0,0-1.7,9,5.8,11.3c0,0-3.1,5.8-9,5.8"/>
		<path class="st2" d="M82.9,66.1c0.9,1.7,1.4,2.1,1.7,2.4c0,0-3.2,1.5-6.4,0.6"/>
		<polygon class="st3" points="18.7,22.6 18.7,39.1 47.8,45.7 78.4,38.1 78.4,4.6 51.6,2 34,4.1 34,19.6 		"/>
		<polygon class="st4" points="78,4.4 78,38.1 47.4,46.5 47.4,27.4 62.7,24.6 62.7,7.5 		"/>
		<polyline class="st2" points="18.3,22.6 47.5,27 78,21.7 		"/>
		<polyline class="st2" points="33.6,4.1 62.7,7.3 78,4.9 		"/>
		<line class="st2" x1="62.7" y1="7.5" x2="62.7" y2="41.9"/>
		<line class="st2" x1="47.4" y1="27.4" x2="47.4" y2="45.7"/>
		<line class="st2" x1="62.7" y1="24.4" x2="33.6" y2="19.6"/>
		<g>
			<path class="st5" d="M72.6,55c-0.6,0-1.4-0.2-2-0.3c-2-0.8-3.2-2.6-2.8-4.6c0.5-2.4,2.4-3.8,5-3.8c1.4,0,2.6,0.5,3.4,1.2
				c0.8,0.8,1.1,1.8,1.1,3.2C77.3,53.5,75,55,72.6,55L72.6,55z"/>
			<path d="M73.1,46.6c2.6,0,4.1,1.5,4,4c-0.2,2.6-2.1,4-4.4,4c-0.6,0-1.2-0.2-1.8-0.3c-1.7-0.6-2.9-2.3-2.6-4.1
				C68.8,47.9,70.8,46.6,73.1,46.6 M73.1,45.9c-2.9,0-5,1.7-5.5,4.1c-0.5,2.1,0.8,4.1,3.1,4.9c0.6,0.3,1.4,0.3,2,0.3
				c2.4,0,5-1.7,5.2-4.7c0-1.4-0.3-2.6-1.2-3.5C75.8,46.3,74.6,45.9,73.1,45.9L73.1,45.9z"/>
		</g>
		<path d="M71.7,46.9c-1.7,0-3.2,0.9-3.5,2.6c-0.3,1.4,0.6,2.6,1.8,3.1c2,0.8,4.4-0.3,4.6-2.8C74.7,48,73.7,46.9,71.7,46.9z"/>
		<g>
			<path class="st5" d="M60.1,82.1c-0.8,0-1.4-0.2-2.1-0.3c-2.1-0.8-3.4-2.8-3.1-4.9c0.5-2.6,2.6-4.3,5.5-4.3c1.5,0,2.8,0.5,3.7,1.4
				c0.8,0.8,1.2,2,1.2,3.5C65.1,80.4,62.5,82.1,60.1,82.1L60.1,82.1z"/>
			<path d="M60.5,73c2.8,0,4.4,1.5,4.4,4.4c-0.2,2.8-2.3,4.4-4.7,4.4c-0.6,0-1.4-0.2-2-0.3c-2-0.8-3.2-2.4-2.8-4.4
				C55.8,74.2,57.9,73,60.5,73 M60.5,72.2c-3.1,0-5.4,1.8-6,4.6c-0.5,2.3,0.9,4.4,3.2,5.4c0.8,0.3,1.5,0.5,2.3,0.5
				c2.8,0,5.5-1.7,5.5-5c0-1.5-0.5-2.9-1.2-3.8C63.4,72.6,62,72.2,60.5,72.2L60.5,72.2z"/>
		</g>
		<path d="M58.1,73.1c-1.5,0.3-2.1,1.2-2.4,2.8c-0.2,1.2,0.5,2.3,1.7,2.8c1.8,0.6,3.8-0.3,4.1-2.4C61.9,74,60.1,72.8,58.1,73.1z"/>
		<path class="st1" d="M42.5,55.5c1.7,1.2,11.9,4.6,23.3-2.6c0,0-3.1,14.5,13,15.8c0,0-14.4,5.5-24.9,0.3
			C43.2,63.8,42.5,55.5,42.5,55.5z"/>
		<path class="st1" d="M29.5,81.7c1.7,1.2,12.1,4.4,23.6-2.8c0,0-4,14.5,11.9,15.8c0,0-13.8,6.1-24.3,0.9S29.5,81.7,29.5,81.7z"/>
		<path class="st2" d="M42.3,55.2c2.3,2.4,15.5,3.1,24.3-2.9"/>
		<path class="st2" d="M43.5,44.8c-3.2,2.9-4.1,24.6,19.9,26.5c24,1.8,28.9-19.6,29.4-23.7c0.8-7.7-0.6-16.5-0.6-16.5
			s7.3-3.4,4.3-11.3c0,0-7,0.5-7.3,7c0,0-0.8-4.9-7.3-6.3c0,0-1.7,9,5.8,11.3c0,0-3.7,5.7-9.6,5.7"/>
		<path class="st2" d="M88.1,60.1c2.1,2.8,0,5.8,0,5.8c5.2-4.9,9.9-0.6,9.9-0.6c-1.4,4-6,6-9.8,5.2c-2,1.8-2.3,4.1-10.9,15.1
			c-11,14.2-36,17.1-44.2,3.8c-7.7-12.5-3.7-19.4,1.7-21"/>
		<path class="st2" d="M29.8,82c2.6,2.4,15.1,2.6,24-3.5"/>
	</g>
	<g id="Layer_3">
		<path class="st6" d="M20.3,39.7c-2.1-0.5,6,1.4,6,1.4l-3.1,1.5C23.2,41.9,22.4,40.2,20.3,39.7z"/>
		<path class="st6" d="M34,42.7c-6-1.2,9.5,2,9.5,2s-2,2.4-1.8,5C41.5,49.8,38.5,43.7,34,42.7z"/>
		<polygon class="st2" points="18.3,22.6 18.3,39.1 47.4,45.7 78,38.1 78,4.9 51.2,2 33.6,4.1 33.6,19.6 		"/>
	</g>
</g>
</svg>
