<?xml version="1.0" encoding="utf-8"?>
<!-- Generator: Adobe Illustrator 22.0.1, SVG Export Plug-In . SVG Version: 6.00 Build 0)  -->
<svg version="1.1" id="Layer_1" xmlns="http://www.w3.org/2000/svg" xmlns:xlink="http://www.w3.org/1999/xlink" x="0px" y="0px"
	 viewBox="0 0 100 100" style="enable-background:new 0 0 100 100;" xml:space="preserve">
<style type="text/css">
	.st0{fill:#3498DB;}
	.st1{fill:#34495E;}
	.st2{fill:#99A3A8;}
</style>
<g>
	<circle class="st0" cx="28.3" cy="72.5" r="2.5"/>
	<circle class="st0" cx="39.3" cy="72.5" r="2.5"/>
	<circle class="st0" cx="60.8" cy="72.5" r="2.5"/>
	<circle class="st0" cx="49.8" cy="72.5" r="2.5"/>
	<circle class="st0" cx="71.7" cy="72.5" r="2.5"/>
	<rect x="33" y="43.2" class="st1" width="33.7" height="6.8"/>
	<rect x="33" y="34.1" class="st1" width="33.7" height="6.8"/>
	<rect x="33" y="25" class="st1" width="33.7" height="6.8"/>
	<g>
		<path class="st2" d="M49.3,68.5v-1h1v1C49.3,68.5,50.3,68.5,49.3,68.5z"/>
		<path class="st2" d="M49.3,66.5v-1h1v1C49.3,66.5,50.3,66.5,49.3,66.5z"/>
		<path class="st2" d="M49.3,64.5v-1h1v1C49.3,64.5,50.3,64.5,49.3,64.5z"/>
		<path class="st2" d="M49.3,62.5v-1h1v1C49.3,62.5,50.3,62.5,49.3,62.5z"/>
		<path class="st2" d="M49.3,60.5v-1h1v1C49.3,60.5,50.3,60.5,49.3,60.5z"/>
		<path class="st2" d="M49.3,58.5v-1h1v1C49.3,58.5,50.3,58.5,49.3,58.5z"/>
		<path class="st2" d="M49.3,56.5v-1h1v1C49.3,56.5,50.3,56.5,49.3,56.5z"/>
		<path class="st2" d="M49.3,54.5v-1h1v1C49.3,54.5,50.3,54.5,49.3,54.5z"/>
	</g>
	<path class="st2" d="M27.8,68.1v-1h1v1C27.8,68.1,28.8,68.1,27.8,68.1z"/>
	<path class="st2" d="M27.8,66.2v-1h1v1C27.8,66.2,28.8,66.2,27.8,66.2z"/>
	<path class="st2" d="M27.8,64.2v-1h1v1C27.8,64.2,28.8,64.2,27.8,64.2z"/>
	<path class="st2" d="M27.8,62.3v-1h1v1C27.8,62.3,28.8,62.3,27.8,62.3z"/>
	<path class="st2" d="M27.8,60.4v-1h1v1C27.8,60.4,28.8,60.4,27.8,60.4z"/>
	<path class="st2" d="M35.8,58.5v-1h1v1C35.8,58.5,36.8,58.5,35.8,58.5z"/>
	<path class="st2" d="M33.8,58.5v-1h1v1C33.8,58.5,34.8,58.5,33.8,58.5z"/>
	<path class="st2" d="M31.8,58.5v-1h1v1C31.8,58.5,32.8,58.5,31.8,58.5z"/>
	<path class="st2" d="M29.8,58.5v-1h1v1C29.8,58.5,30.8,58.5,29.8,58.5z"/>
	<path class="st2" d="M27.8,58.5v-1h1v1C27.8,58.5,28.8,58.5,27.8,58.5z"/>
	<path class="st2" d="M35.8,56.5v-1h1v1C35.8,56.5,36.8,56.5,35.8,56.5z"/>
	<path class="st2" d="M35.8,54.5v-1h1v1C35.8,54.5,36.8,54.5,35.8,54.5z"/>
	<path class="st2" d="M38.8,68.2v-1h1v1C38.8,68.2,39.8,68.2,38.8,68.2z"/>
	<path class="st2" d="M38.8,66.3v-1h1v1C38.8,66.3,39.8,66.3,38.8,66.3z"/>
	<path class="st2" d="M42.8,64.5v-1h1v1C42.8,64.5,43.8,64.5,42.8,64.5z"/>
	<path class="st2" d="M40.8,64.5v-1h1v1C40.8,64.5,41.8,64.5,40.8,64.5z"/>
	<path class="st2" d="M38.8,64.5v-1h1v1C38.8,64.5,39.8,64.5,38.8,64.5z"/>
	<path class="st2" d="M42.8,62.5v-1h1v1C42.8,62.5,43.8,62.5,42.8,62.5z"/>
	<path class="st2" d="M42.8,60.5v-1h1v1C42.8,60.5,43.8,60.5,42.8,60.5z"/>
	<path class="st2" d="M42.8,58.5v-1h1v1C42.8,58.5,43.8,58.5,42.8,58.5z"/>
	<path class="st2" d="M42.8,56.5v-1h1v1C42.8,56.5,43.8,56.5,42.8,56.5z"/>
	<path class="st2" d="M42.8,54.5v-1h1v1C42.8,54.5,43.8,54.5,42.8,54.5z"/>
	<path class="st2" d="M71.2,68.1v-1h1v1C71.2,68.1,72.2,68.1,71.2,68.1z"/>
	<path class="st2" d="M71.2,66.2v-1h1v1C71.2,66.2,72.2,66.2,71.2,66.2z"/>
	<path class="st2" d="M71.2,64.2v-1h1v1C71.2,64.2,72.2,64.2,71.2,64.2z"/>
	<path class="st2" d="M71.2,62.3v-1h1v1C71.2,62.3,72.2,62.3,71.2,62.3z"/>
	<path class="st2" d="M71.2,60.4v-1h1v1C71.2,60.4,72.2,60.4,71.2,60.4z"/>
	<path class="st2" d="M63.1,58.5v-1h1v1C63.1,58.5,64.2,58.5,63.1,58.5z"/>
	<path class="st2" d="M65.2,58.5v-1h1v1C65.2,58.5,66.2,58.5,65.2,58.5z"/>
	<path class="st2" d="M67.2,58.5v-1h1v1C67.2,58.5,68.2,58.5,67.2,58.5z"/>
	<path class="st2" d="M69.2,58.5v-1h1v1C69.2,58.5,70.2,58.5,69.2,58.5z"/>
	<path class="st2" d="M71.2,58.5v-1h1v1C71.2,58.5,72.2,58.5,71.2,58.5z"/>
	<path class="st2" d="M63.1,56.5v-1h1v1C63.1,56.5,64.2,56.5,63.1,56.5z"/>
	<path class="st2" d="M63.1,54.5v-1h1v1C63.1,54.5,64.2,54.5,63.1,54.5z"/>
	<path class="st2" d="M60.1,68.2v-1h1v1C60.1,68.2,61.1,68.2,60.1,68.2z"/>
	<path class="st2" d="M60.1,66.3v-1h1v1C60.1,66.3,61.1,66.3,60.1,66.3z"/>
	<path class="st2" d="M56.1,64.5v-1h1v1C56.1,64.5,57.1,64.5,56.1,64.5z"/>
	<path class="st2" d="M58.1,64.5v-1h1v1C58.1,64.5,59.1,64.5,58.1,64.5z"/>
	<path class="st2" d="M60.1,64.5v-1h1v1C60.1,64.5,61.1,64.5,60.1,64.5z"/>
	<path class="st2" d="M56.1,62.5v-1h1v1C56.1,62.5,57.1,62.5,56.1,62.5z"/>
	<path class="st2" d="M56.1,60.5v-1h1v1C56.1,60.5,57.1,60.5,56.1,60.5z"/>
	<path class="st2" d="M56.1,58.5v-1h1v1C56.1,58.5,57.1,58.5,56.1,58.5z"/>
	<path class="st2" d="M56.1,56.5v-1h1v1C56.1,56.5,57.1,56.5,56.1,56.5z"/>
	<path class="st2" d="M56.1,54.5v-1h1v1C56.1,54.5,57.1,54.5,56.1,54.5z"/>
</g>
</svg>
