<?xml version="1.0" encoding="utf-8"?>
<!-- Generator: Adobe Illustrator 22.1.0, SVG Export Plug-In . SVG Version: 6.00 Build 0)  -->
<svg version="1.1" id="Layer_1" xmlns="http://www.w3.org/2000/svg" xmlns:xlink="http://www.w3.org/1999/xlink" x="0px" y="0px"
	 viewBox="0 0 100 100" style="enable-background:new 0 0 100 100;" xml:space="preserve">
<style type="text/css">
	.st0{fill:#231F20;}
	.st1{fill:#0276BF;}
</style>
<g>
	<path class="st0" d="M15.453928,53.0951958c0,1.7056694-0.7646093,3.0804939-2.2938271,4.1244812
		c-1.5292187,1.0439835-3.6220913,1.5659752-6.2786183,1.5659752c-1.4704022,0-2.8035669-0.1372375-3.9994941-0.4117126
		S0.7253985,57.7955818,0,57.4622917v-4.3523903h0.4852328c0.2646724,0.1862488,0.5710062,0.3896561,0.9190014,0.610218
		c0.3479953,0.2205582,0.84058,0.4582748,1.4777544,0.7131424c0.5489502,0.2254639,1.1714206,0.4190674,1.8674107,0.5808105
		s1.4409943,0.2426147,2.2350116,0.2426147c1.039084,0,1.8085952-0.115181,2.3085313-0.3455429
		c0.4999371-0.2303619,0.7499056-0.5710068,0.7499056-1.0219307c0-0.4019089-0.1470404-0.6935387-0.4411211-0.8748894
		c-0.2940798-0.1813507-0.8528328-0.3553467-1.6762581-0.5219917c-0.3921075-0.0882263-0.923903-0.1837997-1.5953865-0.2867279
		s-1.2817006-0.2279129-1.8306508-0.3749542C2.9996207,51.4385452,1.8870163,50.8283272,1.1616178,50
		s-1.0880977-1.8600578-1.0880977-3.0951958c0-1.5880356,0.7523558-2.908947,2.2570674-3.9627342
		c1.5047116-1.053791,3.5608242-1.5806847,6.1683378-1.5806847c1.2351379,0,2.4188118,0.1249847,3.5510216,0.3749542
		s2.016902,0.5170898,2.6540766,0.8013687v4.1759415h-0.4558249c-0.784215-0.5391464-1.67871-0.9778175-2.6834841-1.3160095
		s-2.0218039-0.5072899-3.0510855-0.5072899c-0.8528328,0-1.5708795,0.1176338-2.154139,0.3528976
		s-0.8748894,0.5685577-0.8748894,0.9998741c0,0.3921089,0.1323361,0.6910896,0.3970084,0.896946
		c0.2646728,0.2058563,0.8871431,0.4117126,1.8674111,0.617569c0.5391479,0.10783,1.1199565,0.2132072,1.7424264,0.3161354
		c0.6224709,0.1029282,1.2473917,0.2328148,1.8747635,0.3896561c1.3919802,0.3627014,2.4212618,0.9337082,3.0878448,1.7130203
		C15.1206369,50.955761,15.453928,51.9286766,15.453928,53.0951958z"/>
	<path class="st0" d="M25.5514011,52.4911079l3.7679062-10.6738968h5.4441624L25.5881615,64.387886h-5.7455978l2.6246681-6.1842651
		l-6.4219818-16.3864098h5.5593452L25.5514011,52.4911079z"/>
	<path class="st0" d="M50.3266487,53.0951958c0,1.7056694-0.7646065,3.0804939-2.2938271,4.1244812
		c-1.5292168,1.0439835-3.6220894,1.5659752-6.2786179,1.5659752c-1.4704018,0-2.803566-0.1372375-3.9994926-0.4117126
		s-2.1565895-0.5783577-2.8819885-0.9116478v-4.3523903h0.4852333c0.2646713,0.1862488,0.571003,0.3896561,0.9189987,0.610218
		c0.3479958,0.2205582,0.84058,0.4582748,1.4777565,0.7131424c0.5489502,0.2254639,1.1714211,0.4190674,1.8674088,0.5808105
		c0.6959915,0.1617432,1.4409943,0.2426147,2.2350121,0.2426147c1.0390854,0,1.8085938-0.115181,2.3085327-0.3455429
		c0.4999352-0.2303619,0.7499046-0.5710068,0.7499046-1.0219307c0-0.4019089-0.1470413-0.6935387-0.4411201-0.8748894
		c-0.2940826-0.1813507-0.8528328-0.3553467-1.6762581-0.5219917c-0.3921089-0.0882263-0.9239044-0.1837997-1.5953865-0.2867279
		c-0.6714859-0.1029282-1.2817001-0.2279129-1.8306503-0.3749542C37.8723412,51.4385452,36.7597389,50.8283272,36.0343399,50
		s-1.0880966-1.8600578-1.0880966-3.0951958c0-1.5880356,0.7523537-2.908947,2.2570648-3.9627342
		c1.5047112-1.053791,3.5608253-1.5806847,6.1683388-1.5806847c1.2351379,0,2.4188118,0.1249847,3.5510216,0.3749542
		s2.0169029,0.5170898,2.6540756,0.8013687v4.1759415h-0.4558258c-0.784214-0.5391464-1.6787071-0.9778175-2.6834831-1.3160095
		s-2.021801-0.5072899-3.0510826-0.5072899c-0.8528366,0-1.5708809,0.1176338-2.1541405,0.3528976
		s-0.8748894,0.5685577-0.8748894,0.9998741c0,0.3921089,0.1323357,0.6910896,0.397007,0.896946
		c0.2646751,0.2058563,0.8871422,0.4117126,1.8674126,0.617569c0.5391464,0.10783,1.119957,0.2132072,1.7424278,0.3161354
		c0.622467,0.1029282,1.2473907,0.2328148,1.8747597,0.3896561c1.391983,0.3627014,2.4212646,0.9337082,3.0878448,1.7130203
		C49.9933586,50.955761,50.3266487,51.9286766,50.3266487,53.0951958z"/>
	<path class="st0" d="M58.716877,58.3298302h-5.3081551V35.4503708h5.3081551V58.3298302z"/>
	<path class="st0" d="M100,56.4330101c0,1.5488243-0.2205582,2.852581-0.6616821,3.9112701
		c-0.4411163,1.0586891-1.0586853,1.8870163-1.8527069,2.4849815c-0.794014,0.6077652-1.7522278,1.0464363-2.8746338,1.3160095
		c-1.122406,0.2695694-2.3894043,0.4043579-3.8009949,0.4043579c-1.1469116,0-2.2766724-0.0686188-3.3892746-0.2058563
		s-2.0757141-0.3038788-2.8893433-0.4999352v-4.1318321h0.645752c0.645752,0.2548714,1.4336472,0.4876862,2.363678,0.6984444
		c0.9300232,0.2107544,1.7620316,0.3161354,2.4960022,0.3161354c0.9790421,0,1.7742844-0.0906754,2.3869553-0.2720261
		c0.6114426-0.1813469,1.0782928-0.4386673,1.4017868-0.7719612c0.3038788-0.3136864,0.5232162-0.7155952,0.6604538-1.2057304
		c0.1372375-0.4901314,0.2058563-1.0782928,0.2058563-1.7644806v-0.3087845
		c-0.6359482,0.5195427-1.3417435,0.9312553-2.1149292,1.2351379s-1.6345978,0.4558258-2.5842361,0.4558258
		c-2.3109818,0-4.0926132-0.6959915-5.3461304-2.0879745c-1.2535248-1.3919792-1.8796692-3.5093575-1.8796692-6.3521347
		c0-1.3625755,0.1911545-2.5388947,0.5722351-3.5289688c0.3823013-0.9900703,0.9202271-1.8527069,1.6162186-2.5879059
		c0.6457443-0.6861877,1.4409943-1.2204361,2.3857269-1.6027374c0.9447327-0.3823051,1.9127426-0.5734596,2.9003677-0.5734596
		c0.8920441,0,1.7019882,0.105381,2.4310608,0.3161392c0.7290802,0.2107544,1.391983,0.5023842,1.9899445,0.8748894
		l0.1911545-0.7352028H100V56.4330101z M94.6918488,53.1246033v-7.4843445
		c-0.3038864-0.1274376-0.6751633-0.2279129-1.1150589-0.3014336s-0.8356781-0.1102791-1.1885757-0.1102791
		c-1.388298,0-2.4298401,0.399456-3.1246033,1.1983757s-1.0415344,1.9139748-1.0415344,3.3451653
		c0,1.5880356,0.2953033,2.6957397,0.887146,3.3231087c0.591835,0.6273727,1.4703979,0.9410591,2.6332397,0.9410591
		c0.5281219,0,1.0464401-0.0833244,1.5549545-0.2499695C93.8071594,53.6196404,94.2715607,53.3990784,94.6918488,53.1246033z"/>
	<path class="st1" d="M70.7418823,43.9321442l5.6356659,5.6356659l-5.6356659,5.6356697l-5.6356735-5.6356697L70.7418823,43.9321442
		 M70.7418823,38.4312744L59.6053467,49.5678101l11.1365356,11.1365356L81.878418,49.5678101L70.7418823,38.4312744
		L70.7418823,38.4312744z"/>
</g>
</svg>
