<?xml version="1.0" encoding="utf-8"?>
<svg version="1.1" id="Layer_1" xmlns="http://www.w3.org/2000/svg" xmlns:xlink="http://www.w3.org/1999/xlink" x="0px" y="0px"
	 viewBox="-6 -10 50 50" style="enable-background:new 0 0 100 100;" xml:space="preserve">
    <defs>
        <path id="fa" d="M.159.188H30.95V18H.159z" />
        <path id="fc" d="M0 .188h17.984V17.86H0z" />
        <path id="fe" d="M.124.133h22.782v9.7H.124z" />
        <path id="fg" d="M0 28h178V0H0z" />
    </defs>
    <g>
        <g transform="translate(7 10)">
            <mask id="fb" fill="#fff">
                <use xmlns:xlink="http://www.w3.org/1999/xlink" xlink:href="#fa" />
            </mask>
            <path d="M25.82 12.967c-.684.676-1.905 1.444-3.91 1.512-.926.032-2.008.035-2.504.035H8.636l7.724-7.489a76.277 76.277 0 0 1 1.844-1.727c1.512-1.36 2.875-1.633 3.838-1.624 1.509.013 2.881.629 3.863 1.622 2.099 2.141 2.05 5.563-.084 7.67M28.4 2.86A8.872 8.872 0 0 0 22.055.188c-2.156 0-4.011.741-5.632 2.059-.706.574-1.447 1.261-2.379 2.165L.159 17.861c.703.1 1.671.13 2.534.136C3.5 18 18.923 18 19.568 18c1.3 0 2.145-.002 3.054-.068 2.082-.152 4.05-.915 5.641-2.474a8.891 8.891 0 0 0 .138-12.6" fill="#00A1FF" mask="url(#fb)" />
        </g>
        <g transform="translate(0 10)">
            <mask id="fd" fill="#fff">
                <use xmlns:xlink="http://www.w3.org/1999/xlink" xlink:href="#fc" />
            </mask>
            <path d="M14.216 2.022C12.641.844 10.878.185 8.88.188a8.85 8.85 0 0 0-6.335 2.67 8.902 8.902 0 0 0 .137 12.6c1.416 1.39 3.131 2.147 4.96 2.402l3.45-3.347a76.82 76.82 0 0 1-2.07-.034c-2-.069-3.219-.836-3.902-1.512-2.13-2.108-2.179-5.53-.084-7.671a5.478 5.478 0 0 1 3.856-1.622c.944-.004 2.225.27 3.673 1.47.69.573 2.226 1.922 2.899 2.528.034.031.075.034.115.001l2.376-2.318a.085.085 0 0 0-.002-.13c-1.143-1.032-2.762-2.477-3.737-3.203" fill="#00C4D6" mask="url(#fd)" />
        </g>
        <g transform="translate(7)">
            <mask id="ff" fill="#fff">
                <use xmlns:xlink="http://www.w3.org/1999/xlink" xlink:href="#fe" />
            </mask>
            <path d="M22.894 7.689C21.273 3.287 16.909.133 11.775.133 5.887.133 1.007 4.296.124 9.719c.474-.077.96-.117 1.457-.117.69-.001 1.353.076 1.99.223l.036.007c.799-3.661 4.165-6.38 8.168-6.38 3.335 0 6.26 1.933 7.578 4.673.02.043.056.057.092.048.992-.262 2.182-.415 3.33-.333.112.008.155-.053.119-.151" fill="#006EFF" mask="url(#ff)" />
        </g>
    </g>
</svg>