<?xml version="1.0" encoding="utf-8"?>
<!-- Generator: Adobe Illustrator 18.1.1, SVG Export Plug-In . SVG Version: 6.00 Build 0)  -->
<svg version="1.1" id="Layer_1" xmlns="http://www.w3.org/2000/svg" xmlns:xlink="http://www.w3.org/1999/xlink" x="0px" y="0px"
	 viewBox="420 56.2 640 640" enable-background="new 420 56.2 640 640" xml:space="preserve">
<g>
	<path fill="#3D59A7" d="M637.9,615.4c-6.1,0-10.8,2.3-14.6,6.1c-5.4,5.4-5.4,12.3-5.4,21.5c0,9.2,0,16.1,5.4,21.5
		c3.8,3.8,8.4,6.1,14.6,6.1c6.1,0,10.8-2.3,14.6-6.1c5.4-5.4,5.4-12.3,5.4-21.5s0-16.1-5.4-21.5C648.7,616.9,644,615.4,637.9,615.4z
		 M644.8,657.6c-1.5,1.5-3.8,3.1-6.9,3.1s-5.4-0.8-6.9-3.1c-2.3-2.3-2.3-4.6-2.3-15.4s0.8-13.1,2.3-15.4c1.5-1.5,3.8-3.1,6.9-3.1
		s5.4,0.8,6.9,3.1c2.3,2.3,2.3,4.6,2.3,15.4C647.9,653,647.1,655.3,644.8,657.6z M682.4,578.5h-10.8v-53.8h10.8V578.5z M653.3,563.2
		c0-6.9-3.8-10.8-7.7-12.3c3.1-1.5,6.9-5.4,6.9-11.5c0-9.2-6.1-15.4-16.9-15.4h-21.5v53.8h22.3C646.4,578.5,653.3,573.2,653.3,563.2
		z M624.8,534h10c4.6,0,6.9,2.3,6.9,6.1c0,3.8-2.3,6.1-6.9,6.1h-10V534z M624.8,569.3v-13.1h10.8c4.6,0,6.9,3.1,6.9,6.9
		s-2.3,6.9-6.9,6.9h-10.8V569.3z M712.4,642.3c3.1,3.1,3.8,6.9,3.8,11.5c0,10.8-8.4,16.1-20,16.1c-8.4,0-14.6-1.5-20-6.9l6.9-6.9
		c3.1,3.1,7.7,4.6,13.1,4.6c6.1,0,9.2-2.3,9.2-6.9c0-1.5-0.8-3.8-1.5-4.6c-0.8-0.8-2.3-1.5-4.6-1.5l-6.1-0.8
		c-4.6-0.8-7.7-2.3-10.8-4.6c-2.3-2.3-3.8-6.1-3.8-10.8c0-10,6.9-16.1,18.4-16.1c7.7,0,13.1,1.5,17.7,6.1l-6.9,6.9
		c-3.1-3.1-7.7-3.8-10.8-3.8c-5.4,0-8.4,3.1-8.4,6.9c0,1.5,0.8,3.1,1.5,3.8s3.1,1.5,5.4,2.3l6.1,0.8
		C707,638.4,710.1,640,712.4,642.3z M584.9,524.8h10.8v35.3c0,11.5-8.4,19.2-20,19.2c-10.8,0-20-7.7-20-19.2v-35.3h10.8v35.3
		c0,6.1,3.8,10,9.2,10c5.4,0,9.2-3.8,9.2-10V524.8z M584.1,615.4h10.8v53.8h-10.8v-22.3h-18.4v22.3H555v-53.8h10.8v22.3h18.4V615.4z
		 M915.2,639.2h20.7v7.7c0,7.7-1.5,12.3-5.4,16.1c-3.8,4.6-9.2,6.1-15.4,6.1s-10.8-2.3-14.6-6.1c-2.3-2.3-3.8-5.4-4.6-8.4
		c-0.8-3.1-0.8-7.7-0.8-13.1c0-6.1,0-10.8,0.8-13.1c0.8-3.1,2.3-6.1,4.6-8.4c3.8-3.8,8.4-6.1,14.6-6.1c12.3,0,19.2,7.7,20,17.7
		h-10.8c-1.5-5.4-4.6-7.7-10-7.7c-3.1,0-5.4,0.8-6.9,3.1c-2.3,2.3-2.3,4.6-2.3,15.4s0.8,13.1,2.3,15.4c1.5,1.5,3.8,3.1,6.9,3.1
		c3.1,0,5.4-0.8,7.7-3.1c1.5-1.5,2.3-4.6,2.3-6.9v-2.3h-10v-9.2H915.2z M816.8,524.8h10.8v53.8h-10.8V524.8z M843.7,524.8h38.4v9.2
		h-13.8v44.5h-10.8V534h-13.8V524.8z M861.4,615.4h10.8v53.8h-9.2l-21.5-33v33h-10.8v-53.8h9.2l21.5,33L861.4,615.4L861.4,615.4z
		 M909,556.3l-16.1-31.5h11.5l10,21.5l10-21.5h11.5l-16.1,31.5v22.3H909V556.3z M797.6,560.1c0,11.5-8.4,19.2-20,19.2
		c-10.8,0-20-7.7-20-19.2v-35.3h10.8v35.3c0,6.1,3.8,10,9.2,10c5.4,0,9.2-3.8,9.2-10v-35.3h10.8V560.1L797.6,560.1z M741.6,575.5
		l-4.6-4.6c3.1-5.4,3.1-10.8,3.1-19.2c0-9.2,0-16.1-5.4-21.5c-3.8-3.8-8.4-6.1-14.6-6.1s-10.8,2.3-14.6,6.1
		c-5.4,5.4-5.4,12.3-5.4,21.5s0,16.1,5.4,21.5c3.8,3.8,8.4,6.1,14.6,6.1c4.6,0,7.7-0.8,10.8-3.1l4.6,4.6L741.6,575.5z M729.3,562.4
		l-3.8-3.8l-5.4,5.4l4.6,4.6c-1.5,0.8-3.1,0.8-3.8,0.8c-3.1,0-5.4-0.8-6.9-3.1c-2.3-2.3-2.3-4.6-2.3-15.4s0.8-13.1,2.3-15.4
		c1.5-1.5,3.8-3.1,6.9-3.1c3.1,0,5.4,0.8,6.9,3.1c2.3,2.3,2.3,4.6,2.3,15.4C730.1,557,730.1,560.1,729.3,562.4z M794.6,615.4h10.8
		v53.8h-10.8V615.4z M734.7,615.4h38.4v9.2h-13.8v44.5h-10.8v-44.5h-13.8V615.4z M555,84.7v380.2h380.2V84.7H555z M793,185.3
		c3.1,0,6.1,2.3,6.1,6.1c0,3.1-2.3,6.1-6.1,6.1c-3.1,0-6.1-2.3-6.1-6.1C786.9,188.4,790,185.3,793,185.3z M793,209.1
		c3.1,0,6.1,2.3,6.1,6.1c0,3.1-2.3,6.1-6.1,6.1c-3.1,0-6.1-2.3-6.1-6.1C786.9,212.2,790,209.1,793,209.1z M793,232.9
		c3.1,0,6.1,2.3,6.1,6.1c0,3.1-2.3,6.1-6.1,6.1c-3.1,0-6.1-2.3-6.1-6.1C786.9,236,790,232.9,793,232.9z M793,256.7
		c3.1,0,6.1,2.3,6.1,6.1c0,3.1-2.3,6.1-6.1,6.1c-3.1,0-6.1-2.3-6.1-6.1C786.9,259.8,790,256.7,793,256.7z M697.8,185.3
		c3.1,0,6.1,2.3,6.1,6.1c0,3.1-2.3,6.1-6.1,6.1c-3.1,0-6.1-2.3-6.1-6.1C691.7,188.4,694.7,185.3,697.8,185.3z M697.8,209.1
		c3.1,0,6.1,2.3,6.1,6.1c0,3.1-2.3,6.1-6.1,6.1c-3.1,0-6.1-2.3-6.1-6.1C691.7,212.2,694.7,209.1,697.8,209.1z M697.8,232.9
		c3.1,0,6.1,2.3,6.1,6.1c0,3.1-2.3,6.1-6.1,6.1c-3.1,0-6.1-2.3-6.1-6.1C691.7,236,694.7,232.9,697.8,232.9z M697.8,256.7
		c3.1,0,6.1,2.3,6.1,6.1c0,3.1-2.3,6.1-6.1,6.1c-3.1,0-6.1-2.3-6.1-6.1C691.7,259.8,694.7,256.7,697.8,256.7z M674,185.3
		c3.1,0,6.1,2.3,6.1,6.1c0,3.1-2.3,6.1-6.1,6.1c-3.1,0-6.1-2.3-6.1-6.1C667.9,188.4,670.9,185.3,674,185.3z M674,209.1
		c3.1,0,6.1,2.3,6.1,6.1c0,3.1-2.3,6.1-6.1,6.1c-3.1,0-6.1-2.3-6.1-6.1C667.9,212.2,670.9,209.1,674,209.1z M674,232.9
		c3.1,0,6.1,2.3,6.1,6.1c0,3.1-2.3,6.1-6.1,6.1c-3.1,0-6.1-2.3-6.1-6.1C667.9,236,670.9,232.9,674,232.9z M674,256.7
		c3.1,0,6.1,2.3,6.1,6.1c0,3.1-2.3,6.1-6.1,6.1c-3.1,0-6.1-2.3-6.1-6.1C667.9,259.8,670.9,256.7,674,256.7z M626.4,197.6
		c-3.1,0-6.1-2.3-6.1-6.1c0-3.1,2.3-6.1,6.1-6.1c3.1,0,6.1,2.3,6.1,6.1C632.5,194.5,630.2,197.6,626.4,197.6z M650.2,221.4
		c-3.1,0-6.1-2.3-6.1-6.1c0-3.1,2.3-6.1,6.1-6.1c3.1,0,6.1,2.3,6.1,6.1C656.3,218.3,654,221.4,650.2,221.4z M650.2,197.6
		c-3.1,0-6.1-2.3-6.1-6.1c0-3.1,2.3-6.1,6.1-6.1c3.1,0,6.1,2.3,6.1,6.1C656.3,194.5,654,197.6,650.2,197.6z M674,292.8
		c-3.1,0-6.1-2.3-6.1-6.1c0-3.1,2.3-6.1,6.1-6.1c3.1,0,6.1,2.3,6.1,6.1C680.1,289.8,677.1,292.8,674,292.8z M686.3,339.7
		c-3.1,0-6.1-2.3-6.1-6.1c0-3.1,2.3-6.1,6.1-6.1c3.8,0,6.1,2.3,6.1,6.1C691.7,337.4,689.4,339.7,686.3,339.7z M686.3,316.6
		c-3.1,0-6.1-2.3-6.1-6.1c0-3.1,2.3-6.1,6.1-6.1c3.8,0,6.1,2.3,6.1,6.1C691.7,313.6,689.4,316.6,686.3,316.6z M697.8,292.8
		c-3.1,0-6.1-2.3-6.1-6.1c0-3.1,2.3-6.1,6.1-6.1c3.1,0,6.1,2.3,6.1,6.1C704,289.8,700.9,292.8,697.8,292.8z M710.1,363.5
		c-3.1,0-6.1-2.3-6.1-6.1c0-3.8,2.3-6.1,6.1-6.1c3.1,0,6.1,2.3,6.1,6.1C716.2,361.2,713.2,363.5,710.1,363.5z M710.1,339.7
		c-3.1,0-6.1-2.3-6.1-6.1c0-3.1,2.3-6.1,6.1-6.1c3.1,0,6.1,2.3,6.1,6.1C715.5,337.4,713.2,339.7,710.1,339.7z M710.1,316.6
		c-3.1,0-6.1-2.3-6.1-6.1c0-3.1,2.3-6.1,6.1-6.1c3.1,0,6.1,2.3,6.1,6.1C715.5,313.6,713.2,316.6,710.1,316.6z M733.9,363.5
		c-3.1,0-6.1-2.3-6.1-6.1c0-3.8,2.3-6.1,6.1-6.1c3.1,0,6.1,2.3,6.1,6.1C740,361.2,737,363.5,733.9,363.5z M733.9,339.7
		c-3.1,0-6.1-2.3-6.1-6.1c0-3.1,2.3-6.1,6.1-6.1c3.1,0,6.1,2.3,6.1,6.1C739.3,337.4,737,339.7,733.9,339.7z M756.9,363.5
		c-3.1,0-6.1-2.3-6.1-6.1c0-3.8,2.3-6.1,6.1-6.1c3.1,0,6.1,2.3,6.1,6.1C763.1,361.2,760.8,363.5,756.9,363.5z M756.9,339.7
		c-3.1,0-6.1-2.3-6.1-6.1c0-3.1,2.3-6.1,6.1-6.1c3.1,0,6.1,2.3,6.1,6.1S760.8,339.7,756.9,339.7z M780.8,363.5
		c-3.1,0-6.1-2.3-6.1-6.1c0-3.8,2.3-6.1,6.1-6.1c3.1,0,6.1,2.3,6.1,6.1C786.9,361.2,784.6,363.5,780.8,363.5z M780.8,339.7
		c-3.1,0-6.1-2.3-6.1-6.1c0-3.1,2.3-6.1,6.1-6.1c3.1,0,6.1,2.3,6.1,6.1S784.6,339.7,780.8,339.7z M780.8,316.6
		c-3.1,0-6.1-2.3-6.1-6.1c0-3.1,2.3-6.1,6.1-6.1c3.1,0,6.1,2.3,6.1,6.1C786.9,313.6,784.6,316.6,780.8,316.6z M793,292.8
		c-3.1,0-6.1-2.3-6.1-6.1c0-3.1,2.3-6.1,6.1-6.1c3.1,0,6.1,2.3,6.1,6.1C799.2,289.8,796.1,292.8,793,292.8z M804.6,339.7
		c-3.1,0-6.1-2.3-6.1-6.1c0-3.1,2.3-6.1,6.1-6.1c3.1,0,6.1,2.3,6.1,6.1S808.4,339.7,804.6,339.7z M804.6,316.6
		c-3.1,0-6.1-2.3-6.1-6.1c0-3.1,2.3-6.1,6.1-6.1c3.1,0,6.1,2.3,6.1,6.1C810.7,313.6,808.4,316.6,804.6,316.6z M816.8,292.8
		c-3.1,0-6.1-2.3-6.1-6.1c0-3.1,2.3-6.1,6.1-6.1c3.1,0,6.1,2.3,6.1,6.1C823,289.8,819.9,292.8,816.8,292.8z M816.8,269
		c-3.1,0-6.1-2.3-6.1-6.1c0-3.1,2.3-6.1,6.1-6.1c3.1,0,6.1,2.3,6.1,6.1C823,266,819.9,269,816.8,269z M816.8,245.2
		c-3.1,0-6.1-2.3-6.1-6.1c0-3.1,2.3-6.1,6.1-6.1c3.1,0,6.1,2.3,6.1,6.1C823,242.2,819.9,245.2,816.8,245.2z M816.8,221.4
		c-3.1,0-6.1-2.3-6.1-6.1c0-3.1,2.3-6.1,6.1-6.1c3.1,0,6.1,2.3,6.1,6.1C823,218.3,819.9,221.4,816.8,221.4z M816.8,197.6
		c-3.1,0-6.1-2.3-6.1-6.1c0-3.1,2.3-6.1,6.1-6.1c3.1,0,6.1,2.3,6.1,6.1C823,194.5,819.9,197.6,816.8,197.6z M840.7,221.4
		c-3.1,0-6.1-2.3-6.1-6.1c0-3.1,2.3-6.1,6.1-6.1c3.1,0,6.1,2.3,6.1,6.1C846,218.3,843.7,221.4,840.7,221.4z M840.7,197.6
		c-3.1,0-6.1-2.3-6.1-6.1c0-3.1,2.3-6.1,6.1-6.1c3.1,0,6.1,2.3,6.1,6.1C846,194.5,843.7,197.6,840.7,197.6z M864.5,197.6
		c-3.1,0-6.1-2.3-6.1-6.1c0-3.1,2.3-6.1,6.1-6.1s6.1,2.3,6.1,6.1C869.8,194.5,867.5,197.6,864.5,197.6z"/>
</g>
</svg>
