<?xml version="1.0" encoding="utf-8"?>
<!-- Generator: Adobe Illustrator 19.0.0, SVG Export Plug-In . SVG Version: 6.00 Build 0)  -->
<svg version="1.1" id="Layer_1" xmlns="http://www.w3.org/2000/svg" xmlns:xlink="http://www.w3.org/1999/xlink" x="0px" y="0px"
	 viewBox="0 1 100 100" enable-background="new 0 1 100 100" xml:space="preserve">

	<g>
		<path fill="#3D59A7" d="M36,81c-0.8,0-1.4,0.3-1.9,0.8c-0.7,0.7-0.7,1.6-0.7,2.8c0,1.2,0,2.1,0.7,2.8c0.5,0.5,1.1,0.8,1.9,0.8
			c0.8,0,1.4-0.3,1.9-0.8c0.7-0.7,0.7-1.6,0.7-2.8c0-1.2,0-2.1-0.7-2.8C37.4,81.2,36.8,81,36,81z M36.9,86.5
			c-0.2,0.2-0.5,0.4-0.9,0.4c-0.4,0-0.7-0.1-0.9-0.4c-0.3-0.3-0.3-0.6-0.3-2c0-1.4,0.1-1.7,0.3-2c0.2-0.2,0.5-0.4,0.9-0.4
			c0.4,0,0.7,0.1,0.9,0.4c0.3,0.3,0.3,0.6,0.3,2C37.3,85.9,37.2,86.2,36.9,86.5z M41.8,76.2h-1.4v-7h1.4V76.2z M38,74.2
			c0-0.9-0.5-1.4-1-1.6c0.4-0.2,0.9-0.7,0.9-1.5c0-1.2-0.8-2-2.2-2h-2.8v7h2.9C37.1,76.2,38,75.5,38,74.2z M34.3,70.4h1.3
			c0.6,0,0.9,0.3,0.9,0.8c0,0.5-0.3,0.8-0.9,0.8h-1.3V70.4z M34.3,75v-1.7h1.4c0.6,0,0.9,0.4,0.9,0.9c0,0.5-0.3,0.9-0.9,0.9H34.3z
			 M45.7,84.5c0.4,0.4,0.5,0.9,0.5,1.5c0,1.4-1.1,2.1-2.6,2.1c-1.1,0-1.9-0.2-2.6-0.9l0.9-0.9c0.4,0.4,1,0.6,1.7,0.6
			c0.8,0,1.2-0.3,1.2-0.9c0-0.2-0.1-0.5-0.2-0.6c-0.1-0.1-0.3-0.2-0.6-0.2l-0.8-0.1c-0.6-0.1-1-0.3-1.4-0.6
			c-0.3-0.3-0.5-0.8-0.5-1.4c0-1.3,0.9-2.1,2.4-2.1c1,0,1.7,0.2,2.3,0.8l-0.9,0.9c-0.4-0.4-1-0.5-1.4-0.5c-0.7,0-1.1,0.4-1.1,0.9
			c0,0.2,0.1,0.4,0.2,0.5c0.1,0.1,0.4,0.2,0.7,0.3l0.8,0.1C45,84,45.4,84.2,45.7,84.5z M29.1,69.2h1.4v4.6c0,1.5-1.1,2.5-2.6,2.5
			c-1.4,0-2.6-1-2.6-2.5v-4.6h1.4v4.6c0,0.8,0.5,1.3,1.2,1.3c0.7,0,1.2-0.5,1.2-1.3V69.2z M29,81h1.4v7H29v-2.9h-2.4v2.9h-1.4v-7
			h1.4v2.9H29V81z M72.1,84.1h2.7v1c0,1-0.2,1.6-0.7,2.1c-0.5,0.6-1.2,0.8-2,0.8c-0.8,0-1.4-0.3-1.9-0.8c-0.3-0.3-0.5-0.7-0.6-1.1
			c-0.1-0.4-0.1-1-0.1-1.7c0-0.8,0-1.4,0.1-1.7c0.1-0.4,0.3-0.8,0.6-1.1c0.5-0.5,1.1-0.8,1.9-0.8c1.6,0,2.5,1,2.6,2.3h-1.4
			c-0.2-0.7-0.6-1-1.3-1c-0.4,0-0.7,0.1-0.9,0.4c-0.3,0.3-0.3,0.6-0.3,2c0,1.4,0.1,1.7,0.3,2c0.2,0.2,0.5,0.4,0.9,0.4
			c0.4,0,0.7-0.1,1-0.4c0.2-0.2,0.3-0.6,0.3-0.9v-0.3h-1.3V84.1z M59.3,69.2h1.4v7h-1.4V69.2z M62.8,69.2h5v1.2H66v5.8h-1.4v-5.8
			h-1.8V69.2z M65.1,81h1.4v7h-1.2l-2.8-4.3v4.3h-1.4v-7h1.2l2.8,4.3V81z M71.3,73.3l-2.1-4.1h1.5L72,72l1.3-2.8h1.5l-2.1,4.1v2.9
			h-1.4V73.3z M56.8,73.8c0,1.5-1.1,2.5-2.6,2.5c-1.4,0-2.6-1-2.6-2.5v-4.6H53v4.6c0,0.8,0.5,1.3,1.2,1.3c0.7,0,1.2-0.5,1.2-1.3
			v-4.6h1.4V73.8z M49.5,75.8l-0.6-0.6c0.4-0.7,0.4-1.4,0.4-2.5c0-1.2,0-2.1-0.7-2.8c-0.5-0.5-1.1-0.8-1.9-0.8
			c-0.8,0-1.4,0.3-1.9,0.8c-0.7,0.7-0.7,1.6-0.7,2.8c0,1.2,0,2.1,0.7,2.8c0.5,0.5,1.1,0.8,1.9,0.8c0.6,0,1-0.1,1.4-0.4l0.6,0.6
			L49.5,75.8z M47.9,74.1l-0.5-0.5l-0.7,0.7l0.6,0.6C47.1,75,46.9,75,46.8,75c-0.4,0-0.7-0.1-0.9-0.4c-0.3-0.3-0.3-0.6-0.3-2
			c0-1.4,0.1-1.7,0.3-2c0.2-0.2,0.5-0.4,0.9-0.4c0.4,0,0.7,0.1,0.9,0.4c0.3,0.3,0.3,0.6,0.3,2C48,73.4,48,73.8,47.9,74.1z M56.4,81
			h1.4v7h-1.4V81z M48.6,81h5v1.2h-1.8v5.8h-1.4v-5.8h-1.8V81z M25.2,11.9v49.5h49.5V11.9H25.2z M56.2,25c0.4,0,0.8,0.3,0.8,0.8
			c0,0.4-0.3,0.8-0.8,0.8c-0.4,0-0.8-0.3-0.8-0.8C55.4,25.4,55.8,25,56.2,25z M56.2,28.1c0.4,0,0.8,0.3,0.8,0.8
			c0,0.4-0.3,0.8-0.8,0.8c-0.4,0-0.8-0.3-0.8-0.8C55.4,28.5,55.8,28.1,56.2,28.1z M56.2,31.2c0.4,0,0.8,0.3,0.8,0.8
			c0,0.4-0.3,0.8-0.8,0.8c-0.4,0-0.8-0.3-0.8-0.8C55.4,31.6,55.8,31.2,56.2,31.2z M56.2,34.3c0.4,0,0.8,0.3,0.8,0.8
			c0,0.4-0.3,0.8-0.8,0.8c-0.4,0-0.8-0.3-0.8-0.8C55.4,34.7,55.8,34.3,56.2,34.3z M43.8,25c0.4,0,0.8,0.3,0.8,0.8
			c0,0.4-0.3,0.8-0.8,0.8c-0.4,0-0.8-0.3-0.8-0.8C43,25.4,43.4,25,43.8,25z M43.8,28.1c0.4,0,0.8,0.3,0.8,0.8c0,0.4-0.3,0.8-0.8,0.8
			c-0.4,0-0.8-0.3-0.8-0.8C43,28.5,43.4,28.1,43.8,28.1z M43.8,31.2c0.4,0,0.8,0.3,0.8,0.8c0,0.4-0.3,0.8-0.8,0.8
			c-0.4,0-0.8-0.3-0.8-0.8C43,31.6,43.4,31.2,43.8,31.2z M43.8,34.3c0.4,0,0.8,0.3,0.8,0.8c0,0.4-0.3,0.8-0.8,0.8
			c-0.4,0-0.8-0.3-0.8-0.8C43,34.7,43.4,34.3,43.8,34.3z M40.7,25c0.4,0,0.8,0.3,0.8,0.8c0,0.4-0.3,0.8-0.8,0.8
			c-0.4,0-0.8-0.3-0.8-0.8C39.9,25.4,40.3,25,40.7,25z M40.7,28.1c0.4,0,0.8,0.3,0.8,0.8c0,0.4-0.3,0.8-0.8,0.8
			c-0.4,0-0.8-0.3-0.8-0.8C39.9,28.5,40.3,28.1,40.7,28.1z M40.7,31.2c0.4,0,0.8,0.3,0.8,0.8c0,0.4-0.3,0.8-0.8,0.8
			c-0.4,0-0.8-0.3-0.8-0.8C39.9,31.6,40.3,31.2,40.7,31.2z M40.7,34.3c0.4,0,0.8,0.3,0.8,0.8c0,0.4-0.3,0.8-0.8,0.8
			c-0.4,0-0.8-0.3-0.8-0.8C39.9,34.7,40.3,34.3,40.7,34.3z M34.5,26.6c-0.4,0-0.8-0.3-0.8-0.8c0-0.4,0.3-0.8,0.8-0.8
			c0.4,0,0.8,0.3,0.8,0.8C35.3,26.2,35,26.6,34.5,26.6z M37.6,29.7c-0.4,0-0.8-0.3-0.8-0.8c0-0.4,0.3-0.8,0.8-0.8
			c0.4,0,0.8,0.3,0.8,0.8C38.4,29.3,38.1,29.7,37.6,29.7z M37.6,26.6c-0.4,0-0.8-0.3-0.8-0.8c0-0.4,0.3-0.8,0.8-0.8
			c0.4,0,0.8,0.3,0.8,0.8C38.4,26.2,38.1,26.6,37.6,26.6z M40.7,39c-0.4,0-0.8-0.3-0.8-0.8c0-0.4,0.3-0.8,0.8-0.8
			c0.4,0,0.8,0.3,0.8,0.8C41.5,38.6,41.1,39,40.7,39z M42.3,45.1c-0.4,0-0.8-0.3-0.8-0.8c0-0.4,0.3-0.8,0.8-0.8s0.8,0.3,0.8,0.8
			C43,44.8,42.7,45.1,42.3,45.1z M42.3,42.1c-0.4,0-0.8-0.3-0.8-0.8c0-0.4,0.3-0.8,0.8-0.8s0.8,0.3,0.8,0.8
			C43,41.7,42.7,42.1,42.3,42.1z M43.8,39c-0.4,0-0.8-0.3-0.8-0.8c0-0.4,0.3-0.8,0.8-0.8c0.4,0,0.8,0.3,0.8,0.8
			C44.6,38.6,44.2,39,43.8,39z M45.4,48.2c-0.4,0-0.8-0.3-0.8-0.8s0.3-0.8,0.8-0.8c0.4,0,0.8,0.3,0.8,0.8S45.8,48.2,45.4,48.2z
			 M45.4,45.1c-0.4,0-0.8-0.3-0.8-0.8c0-0.4,0.3-0.8,0.8-0.8c0.4,0,0.8,0.3,0.8,0.8C46.1,44.8,45.8,45.1,45.4,45.1z M45.4,42.1
			c-0.4,0-0.8-0.3-0.8-0.8c0-0.4,0.3-0.8,0.8-0.8c0.4,0,0.8,0.3,0.8,0.8C46.1,41.7,45.8,42.1,45.4,42.1z M48.5,48.2
			c-0.4,0-0.8-0.3-0.8-0.8s0.3-0.8,0.8-0.8c0.4,0,0.8,0.3,0.8,0.8S48.9,48.2,48.5,48.2z M48.5,45.1c-0.4,0-0.8-0.3-0.8-0.8
			c0-0.4,0.3-0.8,0.8-0.8c0.4,0,0.8,0.3,0.8,0.8C49.2,44.8,48.9,45.1,48.5,45.1z M51.5,48.2c-0.4,0-0.8-0.3-0.8-0.8s0.3-0.8,0.8-0.8
			c0.4,0,0.8,0.3,0.8,0.8S52,48.2,51.5,48.2z M51.5,45.1c-0.4,0-0.8-0.3-0.8-0.8c0-0.4,0.3-0.8,0.8-0.8c0.4,0,0.8,0.3,0.8,0.8
			C52.3,44.8,52,45.1,51.5,45.1z M54.6,48.2c-0.4,0-0.8-0.3-0.8-0.8s0.3-0.8,0.8-0.8c0.4,0,0.8,0.3,0.8,0.8S55.1,48.2,54.6,48.2z
			 M54.6,45.1c-0.4,0-0.8-0.3-0.8-0.8c0-0.4,0.3-0.8,0.8-0.8c0.4,0,0.8,0.3,0.8,0.8C55.4,44.8,55.1,45.1,54.6,45.1z M54.6,42.1
			c-0.4,0-0.8-0.3-0.8-0.8c0-0.4,0.3-0.8,0.8-0.8c0.4,0,0.8,0.3,0.8,0.8C55.4,41.7,55.1,42.1,54.6,42.1z M56.2,39
			c-0.4,0-0.8-0.3-0.8-0.8c0-0.4,0.3-0.8,0.8-0.8c0.4,0,0.8,0.3,0.8,0.8C57,38.6,56.6,39,56.2,39z M57.7,45.1
			c-0.4,0-0.8-0.3-0.8-0.8c0-0.4,0.3-0.8,0.8-0.8c0.4,0,0.8,0.3,0.8,0.8C58.5,44.8,58.2,45.1,57.7,45.1z M57.7,42.1
			c-0.4,0-0.8-0.3-0.8-0.8c0-0.4,0.3-0.8,0.8-0.8c0.4,0,0.8,0.3,0.8,0.8C58.5,41.7,58.2,42.1,57.7,42.1z M59.3,39
			c-0.4,0-0.8-0.3-0.8-0.8c0-0.4,0.3-0.8,0.8-0.8c0.4,0,0.8,0.3,0.8,0.8C60.1,38.6,59.7,39,59.3,39z M59.3,35.9
			c-0.4,0-0.8-0.3-0.8-0.8c0-0.4,0.3-0.8,0.8-0.8c0.4,0,0.8,0.3,0.8,0.8C60.1,35.5,59.7,35.9,59.3,35.9z M59.3,32.8
			c-0.4,0-0.8-0.3-0.8-0.8c0-0.4,0.3-0.8,0.8-0.8c0.4,0,0.8,0.3,0.8,0.8C60.1,32.4,59.7,32.8,59.3,32.8z M59.3,29.7
			c-0.4,0-0.8-0.3-0.8-0.8c0-0.4,0.3-0.8,0.8-0.8c0.4,0,0.8,0.3,0.8,0.8C60.1,29.3,59.7,29.7,59.3,29.7z M59.3,26.6
			c-0.4,0-0.8-0.3-0.8-0.8c0-0.4,0.3-0.8,0.8-0.8c0.4,0,0.8,0.3,0.8,0.8C60.1,26.2,59.7,26.6,59.3,26.6z M62.4,29.7
			c-0.4,0-0.8-0.3-0.8-0.8c0-0.4,0.3-0.8,0.8-0.8c0.4,0,0.8,0.3,0.8,0.8C63.1,29.3,62.8,29.7,62.4,29.7z M62.4,26.6
			c-0.4,0-0.8-0.3-0.8-0.8c0-0.4,0.3-0.8,0.8-0.8c0.4,0,0.8,0.3,0.8,0.8C63.1,26.2,62.8,26.6,62.4,26.6z M65.5,26.6
			c-0.4,0-0.8-0.3-0.8-0.8c0-0.4,0.3-0.8,0.8-0.8s0.8,0.3,0.8,0.8C66.2,26.2,65.9,26.6,65.5,26.6z"/>
	</g>
</svg>
