<?xml version="1.0" encoding="utf-8"?>
<!-- Generator: Adobe Illustrator 21.1.0, SVG Export Plug-In . SVG Version: 6.00 Build 0)  -->
<svg version="1.1" id="AW" xmlns="http://www.w3.org/2000/svg" xmlns:xlink="http://www.w3.org/1999/xlink" x="0px" y="0px"
	 viewBox="0 0 301.8 67.8" style="enable-background:new 0 0 301.8 67.8;" xml:space="preserve">
<style type="text/css">
	.st0{fill:#E95420;}
	.st1{fill:#FFFFFF;}
</style>
<g>
	<g>
		<g>
			<path d="M36.1,65.5c-1.8,0.5-4.3,0.9-7.3,1.5c-3,0.5-6.5,0.8-10.5,0.8c-3.4,0-6.3-0.5-8.7-1.5c-2.4-1-4.2-2.4-5.7-4.3
				c-1.4-1.8-2.5-4-3.1-6.5C0.3,52.9,0,50.2,0,47.1V22h8v23.4c0,5.4,0.9,9.3,2.6,11.7c1.7,2.4,4.6,3.5,8.7,3.5c0.9,0,1.7,0,2.7-0.1
				c0.9-0.1,1.8-0.1,2.6-0.2c0.8-0.1,1.5-0.2,2.2-0.3c0.7-0.1,1.1-0.2,1.4-0.3V22h8L36.1,65.5L36.1,65.5z"/>
			<path d="M55.6,24c1-0.6,2.5-1.3,4.4-2c2-0.7,4.3-1,6.8-1c3.2,0,6.1,0.6,8.6,1.7c2.5,1.1,4.6,2.8,6.3,4.8c1.7,2.1,3,4.5,3.9,7.4
				c0.9,2.9,1.3,6,1.3,9.5c0,3.6-0.5,6.9-1.6,9.8c-1.1,2.9-2.6,5.3-4.5,7.4c-1.9,2-4.3,3.6-7.1,4.6c-2.8,1.1-5.8,1.6-9.3,1.6
				c-3.7,0-7-0.3-9.9-0.8c-2.9-0.5-5.2-1-7.1-1.5V1.4l8-1.4L55.6,24L55.6,24z M55.6,59.8c0.8,0.2,1.9,0.4,3.4,0.6
				c1.5,0.2,3.3,0.3,5.5,0.3c4.3,0,7.7-1.4,10.3-4.3c2.6-2.8,3.9-6.9,3.9-12.1c0-2.3-0.2-4.4-0.7-6.5c-0.5-2-1.2-3.7-2.2-5.2
				c-1-1.5-2.4-2.6-4-3.4c-1.6-0.8-3.6-1.2-5.9-1.2c-2.2,0-4.2,0.4-6,1.1c-1.8,0.7-3.2,1.5-4.2,2.3V59.8z"/>
			<path d="M131.7,65.5c-1.8,0.5-4.3,0.9-7.3,1.5c-3,0.5-6.5,0.8-10.5,0.8c-3.4,0-6.3-0.5-8.7-1.5c-2.4-1-4.2-2.4-5.7-4.3
				c-1.4-1.8-2.5-4-3.1-6.5c-0.6-2.5-0.9-5.3-0.9-8.3V22h8v23.4c0,5.4,0.9,9.3,2.6,11.7c1.7,2.4,4.6,3.5,8.7,3.5
				c0.9,0,1.7,0,2.7-0.1c0.9-0.1,1.8-0.1,2.6-0.2c0.8-0.1,1.5-0.2,2.2-0.3c0.7-0.1,1.1-0.2,1.4-0.3V22h8L131.7,65.5L131.7,65.5z"/>
			<path d="M143.2,23.3c1.8-0.5,4.3-0.9,7.3-1.5c3-0.5,6.5-0.8,10.5-0.8c3.6,0,6.5,0.5,8.9,1.5c2.4,1,4.2,2.4,5.6,4.2
				c1.4,1.8,2.4,4,3,6.5c0.6,2.5,0.9,5.3,0.9,8.3v25.1h-8V43.4c0-2.8-0.2-5.1-0.6-7.1c-0.4-1.9-1-3.5-1.8-4.7
				c-0.9-1.2-2-2.1-3.4-2.6c-1.4-0.5-3.2-0.8-5.3-0.8c-0.9,0-1.8,0-2.7,0.1c-0.9,0.1-1.8,0.1-2.6,0.2c-0.8,0.1-1.6,0.2-2.2,0.3
				c-0.7,0.1-1.1,0.2-1.4,0.3v37.8h-8L143.2,23.3L143.2,23.3z"/>
			<path d="M197.8,22h16.9v6.7h-16.9v20.6c0,2.2,0.2,4.1,0.5,5.5c0.3,1.5,0.9,2.6,1.5,3.4c0.7,0.8,1.5,1.4,2.6,1.8
				c1,0.3,2.2,0.5,3.6,0.5c2.5,0,4.4-0.3,5.8-0.8c1.4-0.5,2.4-0.9,2.9-1.2l1.7,6.5c-0.8,0.4-2.2,0.9-4.3,1.5c-2,0.6-4.3,0.9-6.9,0.9
				c-3,0-5.5-0.4-7.5-1.2c-2-0.8-3.6-1.9-4.8-3.5c-1.2-1.5-2.1-3.5-2.5-5.7c-0.5-2.3-0.7-4.9-0.7-7.9V9.6l8-1.4L197.8,22L197.8,22z"
				/>
			<path d="M258.3,65.5c-1.8,0.5-4.3,0.9-7.3,1.5c-3,0.5-6.5,0.8-10.4,0.8c-3.4,0-6.3-0.5-8.7-1.5c-2.4-1-4.2-2.4-5.7-4.3
				c-1.4-1.8-2.5-4-3.1-6.5s-0.9-5.3-0.9-8.3V22h8v23.4c0,5.4,0.9,9.3,2.6,11.7c1.7,2.4,4.6,3.5,8.7,3.5c0.9,0,1.7,0,2.7-0.1
				c0.9-0.1,1.8-0.1,2.6-0.2c0.8-0.1,1.5-0.2,2.2-0.3c0.7-0.1,1.1-0.2,1.4-0.3V22h8V65.5z"/>
		</g>
		<g>
			<circle class="st0" cx="283.7" cy="18.1" r="18.1"/>
			<path class="st1" d="M274.4,18.1c0,1.3-1,2.3-2.3,2.3c-1.3,0-2.3-1-2.3-2.3c0-1.3,1-2.3,2.3-2.3
				C273.3,15.7,274.4,16.8,274.4,18.1z M287.6,29.4c0.6,1.1,2.1,1.5,3.2,0.9c1.1-0.6,1.5-2.1,0.9-3.2c-0.6-1.1-2.1-1.5-3.2-0.8
				C287.3,26.8,286.9,28.2,287.6,29.4z M291.6,9.1c0.6-1.1,0.3-2.5-0.9-3.2c-1.1-0.6-2.5-0.3-3.2,0.8c-0.6,1.1-0.3,2.5,0.9,3.2
				C289.5,10.6,291,10.2,291.6,9.1z M283.7,11.4c3.5,0,6.3,2.7,6.6,6l3.4-0.1c-0.2-2.5-1.3-4.8-2.9-6.4c-0.9,0.3-1.9,0.3-2.8-0.2
				c-0.9-0.5-1.4-1.4-1.6-2.3c-0.8-0.2-1.7-0.3-2.6-0.3c-1.6,0-3.1,0.4-4.4,1l1.6,2.9C281.8,11.7,282.8,11.4,283.7,11.4z
				 M277.1,18.1c0-2.2,1.1-4.2,2.8-5.4l-1.7-2.9c-2,1.3-3.5,3.4-4.1,5.8c0.7,0.6,1.2,1.5,1.2,2.5c0,1-0.5,1.9-1.2,2.5
				c0.6,2.4,2.1,4.4,4.1,5.8l1.7-2.9C278.2,22.3,277.1,20.3,277.1,18.1z M283.7,24.7c-1,0-1.9-0.2-2.8-0.6l-1.6,2.9
				c1.3,0.7,2.8,1,4.4,1c0.9,0,1.8-0.1,2.6-0.3c0.1-0.9,0.7-1.8,1.6-2.3c0.9-0.5,1.9-0.6,2.8-0.2c1.7-1.7,2.8-3.9,2.9-6.4l-3.4-0.1
				C290,22,287.2,24.7,283.7,24.7z"/>
		</g>
	</g>
</g>
</svg>
