<?xml version="1.0" encoding="utf-8"?>
<!-- Generator: Adobe Illustrator 21.1.0, SVG Export Plug-In . SVG Version: 6.00 Build 0)  -->
<svg version="1.1" id="AW" xmlns="http://www.w3.org/2000/svg" xmlns:xlink="http://www.w3.org/1999/xlink" x="0px" y="0px"
	 viewBox="0 0 301.8 141.7" style="enable-background:new 0 0 301.8 141.7;" xml:space="preserve">
<style type="text/css">
	.st0{fill:#E95420;}
	.st1{fill:#FFFFFF;}
</style>
<g>
	<g>
		<g>
			<path d="M100.1,49.7c-1.4,0.4-3.3,0.7-5.5,1.1c-2.3,0.4-4.9,0.6-8,0.6c-2.6,0-4.8-0.4-6.6-1.1s-3.2-1.8-4.3-3.3
				c-1.1-1.4-1.9-3-2.4-4.9c-0.4-2-0.6-4-0.6-6.4V16.7h6.1v17.8c0,4.1,0.7,7.1,2,8.9s3.5,2.7,6.6,2.7c0.7,0,1.3,0,2-0.1
				c0.7-0.1,1.4-0.1,2-0.2c0.6-0.1,1.1-0.2,1.7-0.2s0.8-0.2,1.1-0.2V16.7h6.1L100.1,49.7L100.1,49.7z"/>
			<path d="M114.9,18.2c0.8-0.5,1.9-1,3.3-1.5c1.5-0.5,3.3-0.8,5.2-0.8c2.4,0,4.6,0.5,6.5,1.3c1.9,0.8,3.5,2.1,4.8,3.6
				c1.3,1.6,2.3,3.4,3,5.6s1,4.6,1,7.2c0,2.7-0.4,5.2-1.2,7.4c-0.8,2.2-2,4-3.4,5.6c-1.4,1.5-3.3,2.7-5.4,3.5
				c-2.1,0.8-4.4,1.2-7.1,1.2c-2.8,0-5.3-0.2-7.5-0.6s-3.9-0.8-5.4-1.1V1.1l6.1-1.1L114.9,18.2L114.9,18.2z M114.9,45.4
				c0.6,0.2,1.4,0.3,2.6,0.5c1.1,0.2,2.5,0.2,4.2,0.2c3.3,0,5.8-1.1,7.8-3.3c2-2.1,3-5.2,3-9.2c0-1.7-0.2-3.3-0.5-4.9
				c-0.4-1.5-0.9-2.8-1.7-3.9c-0.8-1.1-1.8-2-3-2.6c-1.2-0.6-2.7-0.9-4.5-0.9c-1.7,0-3.2,0.3-4.6,0.8c-1.4,0.5-2.4,1.1-3.2,1.7
				L114.9,45.4L114.9,45.4z"/>
			<path d="M172.7,49.7c-1.4,0.4-3.3,0.7-5.5,1.1c-2.3,0.4-4.9,0.6-8,0.6c-2.6,0-4.8-0.4-6.6-1.1s-3.2-1.8-4.3-3.3
				c-1.1-1.4-1.9-3-2.4-4.9c-0.5-1.9-0.7-4-0.7-6.3V16.7h6.1v17.8c0,4.1,0.7,7.1,2,8.9c1.3,1.8,3.5,2.7,6.6,2.7c0.7,0,1.3,0,2-0.1
				c0.7-0.1,1.4-0.1,2-0.2c0.6-0.1,1.1-0.2,1.7-0.2c0.5-0.1,0.8-0.2,1.1-0.2V16.7h6.1L172.7,49.7L172.7,49.7z"/>
			<path d="M181.4,17.7c1.4-0.4,3.3-0.7,5.5-1.1c2.3-0.4,4.9-0.6,8-0.6c2.7,0,4.9,0.4,6.8,1.1c1.8,0.8,3.2,1.8,4.3,3.2
				c1.1,1.4,1.8,3,2.3,4.9c0.5,1.9,0.7,4,0.7,6.3v19.1h-6.1V32.9c0-2.1-0.2-3.9-0.5-5.4c-0.3-1.4-0.8-2.7-1.4-3.6
				c-0.7-0.9-1.5-1.6-2.6-2c-1.1-0.4-2.4-0.6-4-0.6c-0.7,0-1.4,0-2,0.1c-0.7,0.1-1.4,0.1-2,0.2c-0.6,0.1-1.2,0.2-1.7,0.2
				c-0.5,0.1-0.8,0.2-1.1,0.2v28.7h-6.1L181.4,17.7L181.4,17.7z"/>
			<path d="M222.9,16.7h12.8v5.1h-12.8v15.6c0,1.7,0.2,3.1,0.4,4.2c0.2,1.1,0.7,2,1.1,2.6c0.5,0.6,1.1,1.1,2,1.4
				c0.8,0.2,1.7,0.4,2.7,0.4c1.9,0,3.3-0.2,4.4-0.6c1.1-0.4,1.8-0.7,2.2-0.9l1.3,4.9c-0.6,0.3-1.7,0.7-3.3,1.1
				c-1.5,0.5-3.3,0.7-5.2,0.7c-2.3,0-4.2-0.3-5.7-0.9c-1.5-0.6-2.7-1.4-3.6-2.7c-0.9-1.1-1.6-2.7-1.9-4.3c-0.4-1.7-0.5-3.7-0.5-6
				v-30l6.1-1.1L222.9,16.7L222.9,16.7z"/>
			<path d="M268.8,49.7c-1.4,0.4-3.3,0.7-5.5,1.1c-2.3,0.4-4.9,0.6-7.9,0.6c-2.6,0-4.8-0.4-6.6-1.1s-3.2-1.8-4.3-3.3
				c-1.1-1.4-1.9-3-2.4-4.9c-0.5-1.9-0.7-4-0.7-6.3V16.7h6.1v17.8c0,4.1,0.7,7.1,2,8.9c1.3,1.8,3.5,2.7,6.6,2.7c0.7,0,1.3,0,2-0.1
				c0.7-0.1,1.4-0.1,2-0.2c0.6-0.1,1.1-0.2,1.7-0.2s0.8-0.2,1.1-0.2V16.7h6.1L268.8,49.7L268.8,49.7z"/>
		</g>
		<g>
			<circle class="st0" cx="288.1" cy="13.7" r="13.7"/>
			<path class="st1" d="M281,13.7c0,1-0.8,1.7-1.7,1.7s-1.7-0.8-1.7-1.7s0.8-1.7,1.7-1.7C280.2,11.9,281,12.8,281,13.7z M291,22.3
				c0.5,0.8,1.6,1.1,2.4,0.7c0.8-0.5,1.1-1.6,0.7-2.4c-0.5-0.8-1.6-1.1-2.4-0.6C290.8,20.3,290.5,21.4,291,22.3z M294.1,6.9
				c0.5-0.8,0.2-1.9-0.7-2.4c-0.8-0.5-1.9-0.2-2.4,0.6c-0.5,0.8-0.2,1.9,0.7,2.4C292.5,8,293.6,7.7,294.1,6.9z M288.1,8.7
				c2.7,0,4.8,2,5,4.6l2.6-0.1c-0.2-1.9-1-3.6-2.2-4.9c-0.7,0.2-1.4,0.2-2.1-0.2c-0.7-0.4-1.1-1.1-1.2-1.7c-0.6-0.2-1.3-0.2-2-0.2
				c-1.2,0-2.4,0.3-3.3,0.8l1.2,2.2C286.6,8.9,287.4,8.7,288.1,8.7z M283.1,13.7c0-1.7,0.8-3.2,2.1-4.1l-1.3-2.2
				c-1.5,1-2.7,2.6-3.1,4.4c0.5,0.5,0.9,1.1,0.9,1.9s-0.4,1.4-0.9,1.9c0.5,1.8,1.6,3.3,3.1,4.4l1.3-2.2
				C283.9,16.9,283.1,15.4,283.1,13.7z M288.1,18.7c-0.8,0-1.4-0.2-2.1-0.5l-1.2,2.2c1,0.5,2.1,0.8,3.3,0.8c0.7,0,1.4-0.1,2-0.2
				c0.1-0.7,0.5-1.4,1.2-1.7c0.7-0.4,1.4-0.5,2.1-0.2c1.3-1.3,2.1-3,2.2-4.9l-2.6-0.1C292.8,16.7,290.7,18.7,288.1,18.7z"/>
		</g>
	</g>
</g>
</svg>
