<?xml version="1.0" encoding="utf-8"?>
<!-- Generator: Adobe Illustrator 21.1.0, SVG Export Plug-In . SVG Version: 6.00 Build 0)  -->
<svg version="1.1" id="Layer_1" xmlns="http://www.w3.org/2000/svg" xmlns:xlink="http://www.w3.org/1999/xlink" x="0px" y="0px"
	 viewBox="0 0 100 100" style="enable-background:new 0 0 100 100;" xml:space="preserve">
<style type="text/css">
	.st0{fill:#0D5075;}
	.st1{fill:#0080FF;}
	.st2{fill:#F58536;}
	.st3{fill:#9D5025;}
	.st4{fill:#00AAF2;}
	.st5{fill:#F8982A;}
	.st6{fill:#FFFFFF;}
	.st7{fill:#3497DA;}
	.st8{fill:#D10019;}
	.st9{fill:#1A171B;}
	.st10{fill:#181616;}
	.st11{fill:#326CE5;}
	.st12{fill:#326DE5;}
	.st13{fill:#181F7A;}
	.st14{fill:#D9F6FE;}
	.st15{fill:#F3FCFE;}
	.st16{fill:#7484FE;}
	.st17{fill:#D7E0FF;}
	.st18{fill:#D4DDFF;}
	.st19{fill:#E6ECFE;}
	.st20{fill:#030328;}
	.st21{fill:#99B0FE;}
	.st22{fill:#73ABFF;}
	.st23{fill:#D9E2FE;}
	.st24{fill:#7382FE;}
	.st25{fill:#F3F6FE;}
	.st26{fill:#D4D9FE;}
	.st27{fill:#F7F9FE;}
	.st28{fill:#73ABFE;}
	.st29{fill:#0E0C43;}
	.st30{fill:#0E1749;}
	.st31{fill:#1A214E;}
	.st32{fill:#040404;}
	.st33{fill:#D1E3FE;}
	.st34{fill:#030348;}
	.st35{fill:#9EA6A9;}
	.st36{fill:#050505;}
	.st37{fill:#798082;}
	.st38{fill:#474F52;}
	.st39{fill:#2C3336;}
	.st40{fill:#039AD9;}
	.st41{fill:#C9E7EA;}
	.st42{fill:#293132;}
	.st43{fill:#7D8689;}
	.st44{fill:#4D535C;}
	.st45{fill:#4B515A;}
	.st46{fill:#7A8386;}
	.st47{fill:#040A0B;}
	.st48{fill:#1F2426;}
	.st49{fill:#090D0E;}
	.st50{fill:#FEFEFE;}
	.st51{fill:#616B70;}
	.st52{fill:#35393F;}
	.st53{fill:#4A5059;}
	.st54{fill:#61808B;}
	.st55{fill:#454D50;}
	.st56{fill:#AADCE0;}
	.st57{fill:#667384;}
	.st58{fill:#0D1213;}
	.st59{fill:#9FA5AC;}
	.st60{fill:#91BDC0;}
	.st61{fill:#3E4344;}
	.st62{fill:#474D4F;}
	.st63{fill:#030407;}
	.st64{fill:#495155;}
	.st65{fill:#9BA8B8;}
	.st66{fill:#677485;}
	.st67{fill:#030303;}
	.st68{fill:#F3E7C0;}
	.st69{fill:#C1D4EA;}
	.st70{fill:#CA514B;}
	.st71{fill:#9F4A45;}
	.st72{fill:#838079;}
	.st73{fill:#4F5967;}
	.st74{fill:#626C71;}
	.st75{fill:#BAB09B;}
	.st76{fill:#717377;}
	.st77{fill:#CDD3D7;}
	.st78{fill:#D72F30;}
	.st79{fill:#85827B;}
	.st80{fill:#CED3D9;}
	.st81{fill:#BE524D;}
	.st82{fill:#4C555E;}
	.st83{fill:#687486;}
	.st84{fill:#353C46;}
	.st85{fill:#4E5762;}
	.st86{fill:#9CA9B9;}
	.st87{fill:#808995;}
	.st88{fill:#23272B;}
	.st89{fill:#6B6C6E;}
	.st90{fill:#343B45;}
	.st91{fill:#818B97;}
	.st92{fill:#7E8894;}
	.st93{fill:#DFE3E8;}
	.st94{fill:#4F5863;}
	.st95{fill:#B6B8B9;}
	.st96{fill:#7F8995;}
	.st97{fill:#929EAF;}
	.st98{fill:#3C444E;}
	.st99{fill:#D0D5DE;}
	.st100{fill:#808A96;}
	.st101{fill:#505964;}
	.st102{fill:#D2D7DF;}
	.st103{fill:#828C98;}
	.st104{fill:#0E0F11;}
	.st105{fill:#4E5054;}
	.st106{fill:#D7DBE2;}
	.st107{fill:#6F7175;}
	.st108{fill:#03030E;}
	.st109{fill:#0C0D0F;}
	.st110{fill:#515A64;}
	.st111{fill:#00435A;}
	.st112{fill:#00AEDE;}
	.st113{fill:#004561;}
	.st114{fill:#1F1A17;}
	.st115{fill:#925470;}
	.st116{fill:#7CC639;}
	.st117{fill:#4E4540;}
	.st118{opacity:0.98;}
	.st119{fill:#EC1944;}
	.st120{fill:#E34D59;}
	.st121{fill:#003764;}
	.st122{fill:#40B4E5;}
	.st123{fill:#231F20;}
	.st124{fill:#E11A2C;}
	.st125{fill:#70A9FF;}
	.st126{fill:#CFE1FF;}
	.st127{fill:none;stroke:#000000;stroke-width:0.5;stroke-miterlimit:10;}
	.st128{fill:#00C8FA;}
	.st129{fill:#00A9D2;}
	.st130{opacity:0.5;fill:#0EB7ED;enable-background:new    ;}
	.st131{fill:#8C929D;}
	.st132{fill:#E24329;}
	.st133{fill:#FC6D26;}
	.st134{fill:#FCA326;}
	.st135{fill:#3882FA;}
	.st136{fill:#4052D7;}
	.st137{fill:#387EFA;}
	.st138{fill:#0079D6;}
	.st139{fill:#757575;}
	.st140{fill:#4285F4;}
	.st141{fill:#EA4335;}
	.st142{fill:#FBBC05;}
	.st143{fill:#34A853;}
	.st144{fill:none;}
	.st145{fill:#4489F2;}
	.st146{fill:#407FDD;}
	.st147{enable-background:new    ;}
	.st148{fill:#008774;}
	.st149{fill:#00AF9F;}
	.st150{fill:#0066AC;}
	.st151{fill:#009FDF;}
	.st152{fill:#5B9500;}
	.st153{fill:#12935D;}
	.st154{fill:#6BBD8B;}
	.st155{fill:#049FA4;}
	.st156{fill:#3BB5F0;}
	.st157{fill:#78C8FF;}
	.st158{fill:#3EB8FF;}
	.st159{fill:#184223;}
	.st160{fill:#022906;}
	.st161{fill:#076E5E;}
	.st162{fill:#0A413C;}
	.st163{fill:#C2D400;}
	.st164{fill:#8B9504;}
	.st165{fill:#0096E5;}
	.st166{fill:#008EDA;}
	.st167{fill:#136050;}
	.st168{fill:#7BBC00;}
	.st169{fill:#95BB00;}
	.st170{fill:#3A9B92;}
	.st171{fill:#00867E;}
</style>
<g>
	<polygon class="st152" points="62.7,52 75.2,64.5 75.2,52 	"/>
	<rect x="62.7" y="14.5" class="st153" width="12.5" height="12.5"/>
	<polygon class="st154" points="62.7,14.5 75.2,14.5 75.2,27 	"/>
	
		<rect x="50.2" y="14.5" transform="matrix(6.123234e-17 -1 1 6.123234e-17 35.6999 77.1389)" class="st155" width="12.5" height="12.5"/>
	<polygon class="st156" points="50.2,27 50.2,14.5 62.7,14.5 	"/>
	
		<rect x="37.7" y="14.5" transform="matrix(-1 -1.224647e-16 1.224647e-16 -1 87.8388 41.4389)" class="st157" width="12.5" height="12.5"/>
	<polygon class="st158" points="50.2,27 37.7,27 37.7,14.5 	"/>
	
		<rect x="62.7" y="27" transform="matrix(-1.836970e-16 1 -1 -1.836970e-16 102.1389 -35.6999)" class="st159" width="12.5" height="12.5"/>
	<polygon class="st160" points="75.2,27 75.2,39.5 62.7,39.5 	"/>
	
		<rect x="50.2" y="27" transform="matrix(-1 -1.224647e-16 1.224647e-16 -1 112.8388 66.4389)" class="st161" width="12.5" height="12.5"/>
	<polygon class="st162" points="62.7,39.5 50.2,39.5 50.2,27 	"/>
	<rect x="62.7" y="39.5" class="st163" width="12.5" height="12.5"/>
	<polygon class="st164" points="62.7,39.5 75.2,39.5 75.2,52 	"/>
	<g>
		<polygon class="st165" points="37.7,27 37.7,27 37.7,14.5 31.5,20.7 		"/>
		<polygon class="st166" points="37.7,14.5 25.2,14.5 31.5,20.7 		"/>
		<polygon class="st167" points="62.7,39.5 50.2,39.5 56.4,45.7 		"/>
		<polygon class="st168" points="62.7,52 62.7,39.5 56.4,45.7 		"/>
		<polygon class="st169" points="75.2,52 62.7,52 68.9,58.2 		"/>
		<polygon class="st170" points="43.9,33.2 50.2,27 37.7,27 37.7,27 		"/>
		<polygon class="st171" points="50.2,39.4 50.2,27 43.9,33.2 		"/>
	</g>
</g>
<g>
	<path d="M31,78.9c0,0,0,0.1,0,0.1l-2.7,6.4c-0.1,0.1-0.2,0.2-0.3,0.2c-0.2,0-0.3-0.1-0.3-0.2L24.9,79c0,0,0-0.1,0-0.1
		c0-0.1,0.1-0.2,0.2-0.2c0.1,0,0.2,0.1,0.2,0.1l2.7,6.3l2.7-6.3c0-0.1,0.1-0.1,0.2-0.1C31,78.6,31,78.7,31,78.9z"/>
	<path d="M32.2,84.2c0-0.1,0.1-0.3,0.2-0.3c0.1,0,0.1,0,0.2,0.1c0.6,0.7,1.6,1.2,2.8,1.2c2.2,0,2.8-1.3,2.8-2.2c0-1.5-1.4-2-2.8-2.4
		c-1.5-0.4-3-0.8-3-2.5c0-1.5,1.4-2.4,3-2.4c1.3,0,2.3,0.4,3,1.2c0,0,0.1,0.1,0.1,0.2c0,0.1-0.1,0.2-0.2,0.2c-0.1,0-0.1,0-0.2-0.1
		c-0.7-0.8-1.6-1.1-2.6-1.1c-1.4,0-2.5,0.8-2.5,2c0,1.3,1.3,1.7,2.7,2c1.5,0.4,3.2,0.9,3.2,2.8c0,1.1-0.7,2.6-3.3,2.6
		c-1.4,0-2.5-0.6-3.2-1.3C32.2,84.4,32.2,84.3,32.2,84.2z"/>
	<path d="M46.8,82.1c0,2.2-1.2,3.6-3.1,3.6c-1,0-1.9-0.5-2.5-1.4V88c0,0.1-0.1,0.2-0.2,0.2c-0.1,0-0.2-0.1-0.2-0.2v-9.2
		c0-0.1,0.1-0.2,0.2-0.2c0.1,0,0.2,0.1,0.2,0.2v1c0.5-0.7,1.4-1.3,2.5-1.3C45.6,78.5,46.8,79.9,46.8,82.1z M46.4,82.1
		c0-1.8-0.9-3.2-2.6-3.2c-1.1,0-2.1,0.6-2.5,1.4V84c0.4,0.7,1.4,1.4,2.5,1.4C45.4,85.4,46.4,83.9,46.4,82.1z"/>
	<path d="M53.6,85.4v-4.7c0-1.4-0.7-1.9-1.8-1.9c-0.9,0-2,0.6-2.5,1.3v5.2c0,0.1-0.1,0.2-0.2,0.2c-0.1,0-0.2-0.1-0.2-0.2v-9.2
		c0-0.1,0.1-0.2,0.2-0.2c0.1,0,0.2,0.1,0.2,0.2v3.5c0.5-0.6,1.5-1.3,2.5-1.3c1.4,0,2.2,0.6,2.2,2.2v4.7c0,0.1-0.1,0.2-0.2,0.2
		S53.6,85.5,53.6,85.4z"/>
	<path d="M59.4,78.5c2.1,0,3.2,1.7,3.2,3.5c0,0.2-0.1,0.3-0.3,0.3h-5.7c0,1.7,1.1,3.1,2.9,3.1c0.9,0,1.7-0.3,2.3-0.9
		c0,0,0.1,0,0.1,0c0.1,0,0.2,0.1,0.2,0.2c0,0,0,0.1-0.1,0.1c-0.7,0.7-1.5,1-2.6,1c-2,0-3.4-1.5-3.4-3.6
		C56.1,80.1,57.5,78.5,59.4,78.5z M56.6,81.9h5.5c0-1.3-0.9-3-2.8-3C57.6,78.9,56.7,80.5,56.6,81.9z"/>
	<path d="M67.6,78.8c0,0.1-0.1,0.2-0.3,0.2c-0.8,0-1.8,0.7-2.1,1.4v5c0,0.1-0.1,0.2-0.2,0.2c-0.1,0-0.2-0.1-0.2-0.2v-6.6
		c0-0.1,0.1-0.2,0.2-0.2c0.1,0,0.2,0.1,0.2,0.2v1.1c0.5-0.7,1.1-1.2,1.9-1.3c0.1,0,0.2,0,0.3,0C67.4,78.5,67.6,78.6,67.6,78.8z"/>
	<path d="M72,78.5c2.1,0,3.2,1.7,3.2,3.5c0,0.2-0.1,0.3-0.3,0.3h-5.7c0,1.7,1.1,3.1,2.9,3.1c0.9,0,1.7-0.3,2.3-0.9c0,0,0.1,0,0.1,0
		c0.1,0,0.2,0.1,0.2,0.2c0,0,0,0.1-0.1,0.1c-0.7,0.7-1.5,1-2.6,1c-2,0-3.4-1.5-3.4-3.6C68.7,80.1,70.1,78.5,72,78.5z M69.2,81.9h5.5
		c0-1.3-0.9-3-2.8-3C70.2,78.9,69.2,80.5,69.2,81.9z"/>
</g>
</svg>
