<?xml version="1.0" encoding="UTF-8"?>
<svg xmlns="http://www.w3.org/2000/svg" xmlns:xlink="http://www.w3.org/1999/xlink" viewBox="0 0 50 50" version="1.1" width="100px" height="100px">
<g id="surface1">
<path style=" " d="M 25 4 C 19.488281 4 15 8.488281 15 14 C 15 17.289063 16.632813 20.175781 19.09375 22 L 14.125 30.1875 C 13.109375 29.886719 11.980469 29.964844 11 30.53125 C 9.097656 31.628906 8.433594 34.097656 9.53125 36 C 10.628906 37.902344 13.097656 38.566406 15 37.46875 C 16.902344 36.371094 17.566406 33.902344 16.46875 32 C 16.296875 31.703125 16.074219 31.453125 15.84375 31.21875 L 21.28125 22.28125 L 21.8125 21.40625 L 20.9375 20.90625 C 18.582031 19.515625 17 16.941406 17 14 C 17 9.570313 20.570313 6 25 6 C 29.429688 6 33 9.570313 33 14 C 33 14.824219 32.886719 15.597656 32.65625 16.34375 L 34.5625 16.9375 C 34.851563 16.003906 35 15.023438 35 14 C 35 8.488281 30.511719 4 25 4 Z M 25 10 C 22.800781 10 21 11.800781 21 14 C 21 16.199219 22.800781 18 25 18 C 25.332031 18 25.660156 17.953125 25.96875 17.875 L 30.78125 26.59375 L 31.25 27.46875 L 32.15625 27 C 33.300781 26.367188 34.597656 26 36 26 C 40.429688 26 44 29.570313 44 34 C 44 38.429688 40.429688 42 36 42 C 33.839844 42 31.878906 41.136719 30.4375 39.75 L 29.0625 41.1875 C 30.859375 42.917969 33.3125 44 36 44 C 41.511719 44 46 39.511719 46 34 C 46 28.488281 41.511719 24 36 24 C 34.613281 24 33.328125 24.363281 32.125 24.875 L 27.71875 16.875 C 28.492188 16.144531 29 15.136719 29 14 C 29 11.800781 27.199219 10 25 10 Z M 25 12 C 26.117188 12 27 12.882813 27 14 C 27 15.117188 26.117188 16 25 16 C 23.882813 16 23 15.117188 23 14 C 23 12.882813 23.882813 12 25 12 Z M 10.5625 24.28125 C 6.207031 25.367188 3 29.324219 3 34 C 3 39.511719 7.488281 44 13 44 C 18.15625 44 22.285156 40.019531 22.8125 35 L 32.15625 35 C 32.601563 36.71875 34.148438 38 36 38 C 38.199219 38 40 36.199219 40 34 C 40 31.800781 38.199219 30 36 30 C 34.148438 30 32.601563 31.28125 32.15625 33 L 21 33 L 21 34 C 21 38.429688 17.429688 42 13 42 C 8.570313 42 5 38.429688 5 34 C 5 30.242188 7.585938 27.117188 11.0625 26.25 Z M 12.75 32 C 13.523438 31.902344 14.300781 32.273438 14.71875 33 C 15.277344 33.96875 14.96875 35.160156 14 35.71875 C 13.03125 36.277344 11.839844 35.96875 11.28125 35 C 10.722656 34.03125 11.03125 32.839844 12 32.28125 C 12.242188 32.140625 12.492188 32.03125 12.75 32 Z M 36 32 C 37.117188 32 38 32.882813 38 34 C 38 35.117188 37.117188 36 36 36 C 34.882813 36 34 35.117188 34 34 C 34 32.882813 34.882813 32 36 32 Z "/>
</g>
</svg>
