<?xml version="1.0" encoding="utf-8"?>
<!-- Generator: Adobe Illustrator 22.1.0, SVG Export Plug-In . SVG Version: 6.00 Build 0)  -->
<svg version="1.1" id="Layer_1" xmlns="http://www.w3.org/2000/svg" xmlns:xlink="http://www.w3.org/1999/xlink" x="0px" y="0px"
	 viewBox="0 0 100 100" style="enable-background:new 0 0 100 100;" xml:space="preserve">
<g id="surface1">
	<path d="M49.625,23c-6.8896484,0-12.5,5.6103516-12.5,12.5c0,4.1113281,2.0410156,7.7197266,5.1171875,10L36.03125,55.734375
		c-1.2695312-0.3759766-2.6806641-0.2783203-3.90625,0.4296875C29.7470703,57.5361328,28.9169922,60.6220703,30.2890625,63
		s4.4580078,3.2080078,6.8359375,1.8359375S40.3330078,60.3779297,38.9609375,58
		c-0.2148438-0.3710938-0.4931641-0.6835938-0.78125-0.9765625l6.796875-11.171875l0.6640625-1.09375l-1.09375-0.625
		C41.6025391,42.3945312,39.625,39.1767578,39.625,35.5c0-5.5371075,4.4628906-10,10-10s10,4.4628925,10,10
		c0,1.0302734-0.1416016,1.9970703-0.4296875,2.9296875l2.3828125,0.7421875C61.9394531,38.0048828,62.125,36.7792969,62.125,35.5
		C62.125,28.6103516,56.5146484,23,49.625,23z M49.625,30.5c-2.7490234,0-5,2.2509766-5,5s2.2509766,5,5,5
		c0.4150391,0,0.8251953-0.0585938,1.2109375-0.15625l6.015625,10.8984375l0.5859375,1.09375L58.5703125,51.75
		c1.4306641-0.7910156,3.0517578-1.25,4.8046875-1.25c5.5371094,0,10,4.4628906,10,10s-4.4628906,10-10,10
		c-2.7001953,0-5.1513672-1.0791016-6.953125-2.8125l-1.71875,1.796875C56.9492188,71.6474609,60.015625,73,63.375,73
		c6.8896484,0,12.5-5.6103516,12.5-12.5S70.2646484,48,63.375,48c-1.7333984,0-3.3398438,0.4541016-4.84375,1.09375l-5.5078125-10
		C53.9902344,38.1806641,54.625,36.9208984,54.625,35.5C54.625,32.7509766,52.3740234,30.5,49.625,30.5z M49.625,33
		c1.3964844,0,2.5,1.1035156,2.5,2.5s-1.1035156,2.5-2.5,2.5s-2.5-1.1035156-2.5-2.5S48.2285156,33,49.625,33z
		 M31.578125,48.3515625C26.1337891,49.7089844,22.125,54.6552734,22.125,60.5c0,6.8896484,5.6103516,12.5,12.5,12.5
		c6.4453125,0,11.6064453-4.9755859,12.265625-11.25h11.6796875c0.5566406,2.1484375,2.4902344,3.75,4.8046875,3.75
		c2.7490234,0,5-2.2509766,5-5s-2.2509766-5-5-5c-2.3144531,0-4.2480469,1.6015625-4.8046875,3.75H44.625v1.25
		c0,5.5371094-4.4628906,10-10,10s-10-4.4628906-10-10c0-4.6972656,3.2324219-8.6035156,7.578125-9.6875L31.578125,48.3515625z
		 M34.3125,58c0.9667969-0.1220703,1.9384766,0.3417969,2.4609375,1.25c0.6982422,1.2109375,0.3125,2.7001953-0.8984375,3.3984375
		s-2.7001953,0.3125-3.3984375-0.8984375s-0.3125-2.7001953,0.8984375-3.3984375
		C33.6777344,58.1757812,33.9902344,58.0390625,34.3125,58z M63.375,58c1.3964844,0,2.5,1.1035156,2.5,2.5s-1.1035156,2.5-2.5,2.5
		s-2.5-1.1035156-2.5-2.5S61.9785156,58,63.375,58z"/>
</g>
</svg>
