<?xml version="1.0" encoding="utf-8"?>
<!-- Generator: Adobe Illustrator 18.1.1, SVG Export Plug-In . SVG Version: 6.00 Build 0)  -->
<svg version="1.1" id="Layer_1" xmlns="http://www.w3.org/2000/svg" xmlns:xlink="http://www.w3.org/1999/xlink" x="0px" y="0px"
	 viewBox="0 0 21 21" enable-background="new 0 0 21 21" xml:space="preserve">
<g>
	<path fill="#FFFFFF" d="M10.5,20.5c-5.5,0-10-4.5-10-10c0-5.5,4.5-10,10-10c5.5,0,10,4.5,10,10C20.5,16,16,20.5,10.5,20.5z"/>
	<path fill="#37B7E1" d="M10.5,1c5.2,0,9.5,4.3,9.5,9.5S15.7,20,10.5,20S1,15.7,1,10.5S5.3,1,10.5,1 M10.5,0C4.7,0,0,4.7,0,10.5
		S4.7,21,10.5,21S21,16.3,21,10.5S16.3,0,10.5,0L10.5,0z"/>
</g>
<path fill="none" stroke="#37B7E1" stroke-miterlimit="10" d="M5.7,8.5"/>
<polyline fill="none" stroke="#37B7E1" stroke-linecap="round" stroke-linejoin="round" stroke-miterlimit="10" points="6,9 
	10.5,13.6 15,9 "/>
</svg>
