<?xml version="1.0" encoding="utf-8"?>
<!-- Generator: Adobe Illustrator 24.1.3, SVG Export Plug-In . SVG Version: 6.00 Build 0)  -->
<svg version="1.1" id="Layer_1" xmlns="http://www.w3.org/2000/svg" xmlns:xlink="http://www.w3.org/1999/xlink" x="0px" y="0px"
	 viewBox="0 0 124.7417984 124.7417984" style="enable-background:new 0 0 124.7417984 124.7417984;" xml:space="preserve">
<style type="text/css">
	.st0{fill:#FBF9DE;}
	.st1{fill:#00558B;}
	.st2{fill:#3D98D3;}
	.st3{fill:#0075A8;}
	.st4{fill:#EADF5A;}
	.st5{fill:none;stroke:#C9E9EC;stroke-width:2;stroke-miterlimit:10;}
	.st6{fill:#3C6568;}
	.st7{fill:#78C9CF;}
	.st8{fill:#389EA8;}
</style>
<g>
	<polygon class="st0" points="62.3708992,9.7472658 72.2494812,0 78.6324997,12.3228493 91.0396576,6.105298 93.3022919,19.7974854 
		107.0235291,17.7182655 104.944313,31.4395027 118.6364975,33.7021446 112.4189453,46.1093025 124.7417984,52.4923172 
		114.9945297,62.3708992 124.7417984,72.2494812 112.4189453,78.6324997 118.6364975,91.0396576 104.944313,93.3022919 
		107.0235291,107.0235291 93.3022919,104.944313 91.0396576,118.6364975 78.6324997,112.4189453 72.2494812,124.7417984 
		62.3708992,114.9945297 52.4923172,124.7417984 46.1093025,112.4189453 33.7021446,118.6364975 31.4395027,104.944313 
		17.7182655,107.0235291 19.7974854,93.3022919 6.105298,91.0396576 12.3228493,78.6324997 0,72.2494812 9.7472658,62.3708992 
		0,52.4923172 12.3228493,46.1093025 6.105298,33.7021446 19.7974854,31.4395027 17.7182655,17.7182655 31.4395027,19.7974854 
		33.7021446,6.105298 46.1093025,12.3228493 52.4923172,0 	"/>
	<g>
		<path class="st1" d="M52.8595123,89.7845383H28.905056c-6.0499992,0-11-4.9499969-11-11v-32.827282
			c0-6.0499992,4.9500008-11,11-11h23.9544563c6.0499992,0,11,4.9500008,11,11v32.827282
			C63.8595123,84.8345413,58.9095116,89.7845383,52.8595123,89.7845383z"/>
		<path class="st2" d="M95.8367386,89.7845383H51.8822861c-6.0500031,0-11-4.9499969-11-11v-32.827282
			c0-6.0499992,4.9499969-11,11-11h43.9544525c6.0500031,0,11,4.9500008,11,11v32.827282
			C106.8367386,84.8345413,101.8867416,89.7845383,95.8367386,89.7845383z"/>
		<path class="st3" d="M51.8824387,84.7846985c-3.3085938,0-6-2.6914062-6-6V45.9567986c0-3.3085938,2.6914062-6,6-6h43.9541016
			c3.3085938,0,6,2.6914062,6,6v32.8278999c0,3.3085938-2.6914062,6-6,6H51.8824387z"/>
		
			<rect x="56.5010948" y="49.3378258" transform="matrix(-1.836970e-16 1 -1 -1.836970e-16 111.1973419 -6.5444016)" class="st4" width="4.739553" height="5.9772859"/>
		
			<rect x="56.5010948" y="59.3820992" transform="matrix(-1.836970e-16 1 -1 -1.836970e-16 121.2416153 3.499872)" class="st4" width="4.739553" height="5.9772859"/>
		
			<rect x="56.5010948" y="69.4263763" transform="matrix(-1.836970e-16 1 -1 -1.836970e-16 131.2858887 13.5441456)" class="st4" width="4.739553" height="5.9772859"/>
		
			<rect x="76.4783859" y="39.3378181" transform="matrix(-1.836970e-16 1 -1 -1.836970e-16 131.1746368 -26.5216961)" class="st4" width="4.739553" height="25.9773045"/>
		
			<rect x="76.4783859" y="49.3820915" transform="matrix(-1.836970e-16 1 -1 -1.836970e-16 141.2189026 -16.4774227)" class="st4" width="4.739553" height="25.9773045"/>
		
			<rect x="76.4783859" y="59.4263649" transform="matrix(-1.836970e-16 1 -1 -1.836970e-16 151.2631836 -6.4331493)" class="st4" width="4.739553" height="25.9773045"/>
	</g>
</g>
</svg>
