<?xml version="1.0" encoding="utf-8"?>
<!-- Generator: Adobe Illustrator 19.2.1, SVG Export Plug-In . SVG Version: 6.00 Build 0)  -->
<svg version="1.1" id="Layer_1" xmlns="http://www.w3.org/2000/svg" xmlns:xlink="http://www.w3.org/1999/xlink" x="0px" y="0px"
	 viewBox="0 0 126 125" style="enable-background:new 0 0 126 125;" xml:space="preserve">
<style type="text/css">
	.st0{fill:none;stroke:#3498DB;stroke-width:1.08;stroke-linecap:round;stroke-linejoin:round;}
	.st1{fill:none;stroke:#3498DB;stroke-linecap:round;stroke-linejoin:round;}
	.st2{fill:#3498DB;}
	.st3{fill:none;stroke:#3498DB;stroke-width:0.72;stroke-linecap:round;stroke-linejoin:round;}
	.st4{fill:none;stroke:#3498DB;stroke-width:0.72;stroke-linejoin:round;}
	.st5{opacity:5.000000e-02;fill:#3498DB;enable-background:new    ;}
</style>
<title>environment</title>
<polygon class="st0" points="102,70.1 102.1,100.8 75.4,116.2 75.3,85.5 "/>
<polygon class="st0" points="75.4,116.2 19.5,83.6 19.4,52.9 75.3,85.5 "/>
<polyline class="st0" points="58.1,44.5 102,70.1 75.3,85.5 19.4,52.8 40.3,40.3 "/>
<line class="st1" x1="88.7" y1="78.5" x2="88.7" y2="108.5"/>
<path class="st2" d="M98.2,76.6l0.1,22l-19.2,11l-0.1-22L98.2,76.6 M98.2,75.9c-0.1,0-0.3,0-0.4,0.1L78.7,87
	c-0.2,0.1-0.4,0.4-0.4,0.7l0.1,22c0,0.4,0.3,0.8,0.8,0.8c0.1,0,0.3,0,0.4-0.1l19.2-11c0.2-0.1,0.3-0.4,0.3-0.7v-22
	C99,76.2,98.7,75.9,98.2,75.9L98.2,75.9L98.2,75.9L98.2,75.9z"/>
<path class="st2" d="M23.8,60.5L70.9,88l0.1,20.6L23.9,81.1L23.8,60.5 M23.8,59.8c-0.4,0-0.8,0.3-0.8,0.8l0.1,20.6
	c0,0.3,0.1,0.5,0.4,0.7l47.1,27.5c0.4,0.2,0.8,0.1,1-0.3c0.1-0.1,0.1-0.2,0.1-0.4L71.7,88c0-0.3-0.1-0.5-0.4-0.7L24.2,59.9
	C24.1,59.8,23.9,59.8,23.8,59.8L23.8,59.8L23.8,59.8z"/>
<polyline class="st3" points="97.1,77.2 97.2,97.8 79.2,108.2 "/>
<polygon class="st3" points="66.8,85.6 66.7,104.7 64.6,105.2 64.7,84.3 "/>
<polyline class="st3" points="64.6,105.2 62.3,103.9 62.3,82.7 "/>
<line class="st3" x1="71.4" y1="107" x2="66.8" y2="104.4"/>
<polygon class="st3" points="58.2,80.7 58.2,99.8 56.1,100.3 56.1,79.4 "/>
<polyline class="st3" points="56.1,100.3 53.8,99 53.8,77.8 "/>
<line class="st3" x1="62.3" y1="102" x2="58.3" y2="99.7"/>
<line class="st3" x1="53.8" y1="97.1" x2="49.3" y2="94.5"/>
<polygon class="st3" points="49.6,75.8 49.5,94.8 47.5,95.3 47.5,74.4 "/>
<polyline class="st3" points="47.5,95.3 45.1,94 45.2,72.8 "/>
<polygon class="st3" points="41.1,70.9 41,89.9 38.9,90.4 39,69.5 "/>
<polyline class="st3" points="38.9,90.4 36.6,89.1 36.7,67.9 "/>
<line class="st3" x1="45.2" y1="92.1" x2="41.2" y2="89.8"/>
<polygon class="st4" points="32.6,65.9 32.5,84.9 30.5,85.4 30.5,64.5 "/>
<polyline class="st4" points="30.2,85.2 27.9,83.9 28,62.7 "/>
<line class="st3" x1="36.5" y1="86.9" x2="32.5" y2="84.6"/>
<line class="st4" x1="27.9" y1="81.8" x2="23.5" y2="79.3"/>
<polygon class="st5" points="115.3,100.1 75.4,123.2 10.4,84 19.1,78.6 19,83.9 75,116.4 101.2,100.7 101.2,93.8 "/>
<g>
	<path class="st0" d="M59.5,1.6c18.3,0,27.2,15.5,27.2,28.2c0,10.7-16.3,14.7-27.2,14.7c-10.3,0-27.2-4-27.2-14.7
		C32.4,17.1,41.2,1.6,59.5,1.6z"/>
	<path class="st0" d="M41.1,40.7c0-10.8,2.4-35.2,18.5-39.1"/>
	<path class="st0" d="M78,40.7c0-10.8-2.4-35.2-18.5-39.1"/>
	<line class="st0" x1="59.5" y1="1.6" x2="59.5" y2="44.5"/>
	<path class="st0" d="M59.7,61.4c0,0-2-8.7-18.6-20.7"/>
	<path class="st0" d="M59.7,61.4c0,0-0.3-9.9-8-17.6"/>
	<path class="st0" d="M59.7,61.4c0,0,2-8.7,18.6-20.7"/>
	<path class="st0" d="M59.7,61.4c0,0,0.3-9.9,8-17.6"/>
</g>
<g>
	<line class="st0" x1="80.7" y1="5.2" x2="80.7" y2="5.9"/>
	<line class="st0" x1="80.7" y1="7.6" x2="80.7" y2="18.3"/>
</g>
<line class="st0" x1="89.7" y1="7.6" x2="89.7" y2="18.3"/>
<line class="st0" x1="85.2" y1="3.5" x2="85.2" y2="10.2"/>
<g>
	<line class="st0" x1="29.9" y1="26.4" x2="29.9" y2="25.7"/>
	<line class="st0" x1="29.9" y1="23" x2="29.9" y2="12.3"/>
</g>
<g>
	<line class="st0" x1="38.2" y1="11" x2="38.2" y2="11.7"/>
	<line class="st0" x1="38.2" y1="14.4" x2="38.2" y2="25.1"/>
</g>
<line class="st0" x1="34.1" y1="16.6" x2="34.1" y2="23.2"/>
<path class="st5" d="M33.6,60.8c0-7.2,11.8-13.1,26.3-13.1c1.8,0,3.6,0.1,5.3,0.3l21,12.8c0,7.2-11.8,13.1-26.3,13.1
	c-1.7,0-3.3-0.1-4.9-0.2L33.6,60.8z"/>
</svg>
