<?xml version="1.0" encoding="utf-8"?>
<!-- Generator: Adobe Illustrator 24.1.3, SVG Export Plug-In . SVG Version: 6.00 Build 0)  -->
<svg version="1.1" id="Layer_1" xmlns="http://www.w3.org/2000/svg" xmlns:xlink="http://www.w3.org/1999/xlink" x="0px" y="0px"
	 viewBox="0 0 220.6387634 133.1744385" style="enable-background:new 0 0 220.6387634 133.1744385;" xml:space="preserve">
<style type="text/css">
	.st0{fill:#FBF9DE;}
	.st1{fill:#00558B;}
	.st2{fill:#3D98D3;}
	.st3{fill:#0075A8;}
	.st4{fill:#EADF5A;}
	.st5{fill:none;stroke:#C9E9EC;stroke-width:2;stroke-miterlimit:10;}
	.st6{fill:#3C6568;}
	.st7{fill:#78C9CF;}
	.st8{fill:#389EA8;}
</style>
<g>
	<path class="st5" d="M186.1617279,98.3471603v22.8272781c0,6.0500031-4.9499969,11-11,11h-39.8259583"/>
	<path class="st5" d="M186.1617279,98.3471603v22.8272781c0,6.0500031,4.9499969,11,11,11h11.4770355
		c6.0499878,0,11-4.9499969,11-11"/>
	<path class="st6" d="M165.1617279,114.4147873h-23.9544525c-6.0500031,0-11-4.9500046-11-11V70.5875015
		c0-6.0499954,4.9499969-11,11-11h23.9544525c6.0500031,0,11,4.9500046,11,11v32.8272858
		C176.1617279,109.4647827,171.211731,114.4147873,165.1617279,114.4147873z"/>
	<path class="st7" d="M208.1389618,114.4147873H164.184494c-6.0499878,0-11-4.9500046-11-11V70.5875015
		c0-6.0499954,4.9500122-11,11-11h43.9544678c6.0500031,0,11,4.9500046,11,11v32.8272858
		C219.1389618,109.4647827,214.1889648,114.4147873,208.1389618,114.4147873z"/>
	<path class="st8" d="M164.1846619,109.4149475c-3.3085938,0-6-2.6914062-6-6V70.5870438c0-3.3085938,2.6914062-6,6-6h43.9541016
		c3.3085938,0,6,2.6914062,6,6v32.8279037c0,3.3085938-2.6914062,6-6,6H164.1846619z"/>
	
		<rect x="168.8033142" y="73.968071" transform="matrix(-1.836970e-16 1 -1 -1.836970e-16 248.1298065 -94.2163696)" class="st4" width="4.739553" height="5.9772859"/>
	
		<rect x="168.8033142" y="84.0123444" transform="matrix(-1.836970e-16 1 -1 -1.836970e-16 258.1740723 -84.1720963)" class="st4" width="4.739553" height="5.9772859"/>
	
		<rect x="168.8033142" y="94.0566177" transform="matrix(-1.836970e-16 1 -1 -1.836970e-16 268.2183533 -74.1278229)" class="st4" width="4.739553" height="5.9772859"/>
	
		<rect x="188.7806091" y="63.9680634" transform="matrix(-1.836970e-16 1 -1 -1.836970e-16 268.1070862 -114.1936646)" class="st4" width="4.739553" height="25.9773045"/>
	
		<rect x="188.7806091" y="74.0123367" transform="matrix(-1.836970e-16 1 -1 -1.836970e-16 278.1513672 -104.1493912)" class="st4" width="4.739553" height="25.9773045"/>
	
		<rect x="188.7806091" y="84.0566101" transform="matrix(-1.836970e-16 1 -1 -1.836970e-16 288.1956482 -94.1051178)" class="st4" width="4.739553" height="25.9773045"/>
	<path class="st5" d="M109.4603043,54.827282v66.3471527c0,6.0500031-4.9500046,11-11,11H74.5058441"/>
	<path class="st5" d="M109.4603043,54.827282v66.3471527c0,6.0500031,4.9499969,11,11,11h19.9544601"/>
	<path class="st6" d="M88.4603043,54.827282H64.5058441c-6.0499992,0-11-4.9500008-11-11V11c0-6.0500002,4.9500008-11,11-11
		h23.9544601c6.0499954,0,11,4.9499998,11,11v32.827282C99.4603043,49.8772812,94.5102997,54.827282,88.4603043,54.827282z"/>
	<path class="st7" d="M131.4375305,54.827282H87.4830704c-6.0499954,0-11-4.9500008-11-11V11c0-6.0500002,4.9500046-11,11-11
		h43.9544601c6.0500031,0,11,4.9499998,11,11v32.827282C142.4375305,49.8772812,137.4875336,54.827282,131.4375305,54.827282z"/>
	<path class="st8" d="M87.4832306,49.8274422c-3.3085938,0-6-2.6914062-6-6V10.9995394c0-3.3085933,2.6914062-5.9999995,6-5.9999995
		h43.9541016c3.3085938,0,6,2.6914062,6,5.9999995v32.8279037c0,3.3085938-2.6914062,6-6,6H87.4832306z"/>
	
		<rect x="92.1018829" y="14.3805685" transform="matrix(-1.836970e-16 1 -1 -1.836970e-16 111.8408737 -77.1024475)" class="st4" width="4.739553" height="5.9772859"/>
	
		<rect x="92.1018829" y="24.4248409" transform="matrix(-1.836970e-16 1 -1 -1.836970e-16 121.8851471 -67.0581741)" class="st4" width="4.739553" height="5.9772859"/>
	
		<rect x="92.1018829" y="34.4691162" transform="matrix(-1.836970e-16 1 -1 -1.836970e-16 131.9294128 -57.0139008)" class="st4" width="4.739553" height="5.9772859"/>
	
		<rect x="112.0791779" y="4.380559" transform="matrix(-1.836970e-16 1 -1 -1.836970e-16 131.818161 -97.0797424)" class="st4" width="4.739553" height="25.9773045"/>
	
		<rect x="112.0791779" y="14.4248323" transform="matrix(-1.836970e-16 1 -1 -1.836970e-16 141.862442 -87.0354691)" class="st4" width="4.739553" height="25.9773045"/>
	
		<rect x="112.0791779" y="24.4691067" transform="matrix(-1.836970e-16 1 -1 -1.836970e-16 151.9067078 -76.9911957)" class="st4" width="4.739553" height="25.9773045"/>
	<path class="st5" d="M56.6616287,98.3471603v22.8272781c0,6.0500031-4.9500008,11-11,11H12c-6.0500002,0-11-4.9499969-11-11"/>
	<path class="st5" d="M56.6616287,98.3471603v22.8272781c0,6.0500031,4.9500008,11,11,11H87.585022"/>
	<path class="st6" d="M35.6616287,114.4147873H11.7071724c-6.0500002,0-11-4.9500046-11-11V70.5875015
		c0-6.0499954,4.9499998-11,11-11h23.9544563c6.0499992,0,11,4.9500046,11,11v32.8272858
		C46.6616287,109.4647827,41.711628,114.4147873,35.6616287,114.4147873z"/>
	<path class="st7" d="M78.638855,114.4147873H34.6844025c-6.0500011,0-11.0000019-4.9500046-11.0000019-11V70.5875015
		c0-6.0499954,4.9500008-11,11.0000019-11H78.638855c6.0500031,0,11,4.9500046,11,11v32.8272858
		C89.638855,109.4647827,84.688858,114.4147873,78.638855,114.4147873z"/>
	<path class="st8" d="M34.6845551,109.4149475c-3.3085938,0-6-2.6914062-6-6V70.5870438c0-3.3085938,2.6914062-6,6-6h43.9541016
		c3.3085938,0,6,2.6914062,6,6v32.8279037c0,3.3085938-2.6914062,6-6,6H34.6845551z"/>
	
		<rect x="39.3032112" y="73.968071" transform="matrix(-1.836970e-16 1 -1 -1.836970e-16 118.6296997 35.2837296)" class="st4" width="4.739553" height="5.9772859"/>
	
		<rect x="39.3032112" y="84.0123444" transform="matrix(-1.836970e-16 1 -1 -1.836970e-16 128.6739807 45.3280029)" class="st4" width="4.739553" height="5.9772859"/>
	
		<rect x="39.3032112" y="94.0566177" transform="matrix(-1.836970e-16 1 -1 -1.836970e-16 138.7182465 55.3722763)" class="st4" width="4.739553" height="5.9772859"/>
	
		<rect x="59.2805061" y="63.9680634" transform="matrix(-1.836970e-16 1 -1 -1.836970e-16 138.6069946 15.3064327)" class="st4" width="4.739553" height="25.9773045"/>
	
		<rect x="59.2805061" y="74.0123367" transform="matrix(-1.836970e-16 1 -1 -1.836970e-16 148.6512756 25.3507061)" class="st4" width="4.739553" height="25.9773045"/>
	
		<rect x="59.2805061" y="84.0566101" transform="matrix(-1.836970e-16 1 -1 -1.836970e-16 158.6955414 35.3949814)" class="st4" width="4.739553" height="25.9773045"/>
</g>
</svg>
