<svg id="Layer_1" data-name="Layer 1" xmlns="http://www.w3.org/2000/svg" xmlns:xlink="http://www.w3.org/1999/xlink" viewBox="0 0 126 125"><defs><style>.cls-1,.cls-2,.cls-3,.cls-5{fill:none;stroke:#3498db;stroke-linejoin:round;}.cls-1{stroke-width:1.08px;}.cls-2{stroke-width:0.72px;}.cls-3,.cls-5{stroke-linecap:round;}.cls-4,.cls-8{fill:#3498db;}.cls-5{stroke-width:0.76px;}.cls-6{isolation:isolate;}.cls-7{clip-path:url(#clip-path);}.cls-8{opacity:0.05;}</style><clipPath id="clip-path"><path class="cls-1" d="M30,70.15l-4.36-2.54a2.73,2.73,0,0,1-1.11-2.51l4.36,2.54A2.73,2.73,0,0,0,30,70.15Z"/></clipPath></defs><title>environment</title><path class="cls-2" d="M86.5,33.32L107.81,21a7.4,7.4,0,0,1-3.38,5.92l-1.54.89a7.4,7.4,0,0,1-3.38,5.93L98,34.65a7.45,7.45,0,0,1-2,4.75"/><polyline class="cls-2" points="82.67 30.99 103.89 18.74 107.81 21.02"/><polygon class="cls-1" points="102 42.29 102.09 73.01 75.36 88.44 75.27 57.72 102 42.29"/><polyline class="cls-1" points="29.7 61.8 19.49 55.84 19.4 25.12 75.27 57.72 75.36 88.44 46.24 71.45"/><polygon class="cls-1" points="75.27 57.72 19.37 25.07 46.1 9.63 102 42.29 75.27 57.72"/><line class="cls-3" x1="89.5" y1="50" x2="89.5" y2="80"/><path class="cls-4" d="M98.23,48.84l0.06,22L79.13,81.88l-0.06-22L98.23,48.84m0-.76a0.76,0.76,0,0,0-.38.1L78.69,59.25a0.76,0.76,0,0,0-.38.66l0.06,22a0.76,0.76,0,0,0,1.14.65L98.67,71.48A0.76,0.76,0,0,0,99,70.82L99,48.84a0.76,0.76,0,0,0-.76-0.76h0Z"/><polyline class="cls-5" points="34.08 59.28 23.86 53.32 23.8 32.75 70.89 60.24 70.95 80.81 50.53 68.89"/><polyline class="cls-2" points="97.1 49.19 97.15 70.01 79.22 80.37"/><polygon class="cls-2" points="66.75 57.99 66.69 76.5 64.62 77.04 64.68 56.64 66.75 57.99"/><polyline class="cls-2" points="64.62 77.04 62.29 75.7 62.35 55.26"/><line class="cls-2" x1="70.9" y1="78.97" x2="66.69" y2="76.52"/><polygon class="cls-2" points="58.22 53.27 58.16 71.44 56.09 71.99 56.15 51.92 58.22 53.27"/><polyline class="cls-2" points="56.09 71.99 53.77 70.64 53.83 50.29"/><line class="cls-2" x1="62.32" y1="73.97" x2="57.94" y2="71.43"/><line class="cls-2" x1="53.75" y1="69.33" x2="51.39" y2="67.95"/><polygon class="cls-2" points="49.6 47.97 49.53 51 47.47 51.54 47.53 46.62 49.6 47.97"/><line class="cls-2" x1="45.14" y1="53.2" x2="45.2" y2="44.99"/><polygon class="cls-2" points="41.06 43.07 41 55.62 38.93 56.64 38.99 41.72 41.06 43.07"/><line class="cls-2" x1="36.6" y1="58.3" x2="36.66" y2="40.09"/><polygon class="cls-2" points="32.59 38.03 32.53 56.69 30.46 57.23 30.53 36.68 32.59 38.03"/><polyline class="cls-2" points="30.24 57.01 27.91 55.66 27.98 35.19"/><line class="cls-2" x1="35.55" y1="58.58" x2="32.47" y2="56.8"/><line class="cls-2" x1="27.87" y1="54.04" x2="23.73" y2="51.75"/><g class="cls-6"><g class="cls-6"><g class="cls-7"><g class="cls-6"><path class="cls-4" d="M30,70.15l-4.36-2.54a2.73,2.73,0,0,1-1.11-2.51l4.36,2.54A2.73,2.73,0,0,0,30,70.15"/></g></g><path class="cls-1" d="M30,70.15l-4.36-2.54a2.73,2.73,0,0,1-1.11-2.51l4.36,2.54A2.73,2.73,0,0,0,30,70.15Z"/></g><path class="cls-4" d="M34.44,68.89l-1.72,1a4.36,4.36,0,0,1-.48.22l3,1.76h0a0.54,0.54,0,0,0,.74-0.2,0.51,0.51,0,0,0,0-.09C35.08,71.36,34.44,70.43,34.44,68.89Z"/><polygon class="cls-2" points="28.93 67.64 24.57 65.1 49.46 50.74 53.82 53.27 28.93 67.64"/><path class="cls-4" d="M39.94,70.13l-1.72,1a4.37,4.37,0,0,1-.49.23l3,1.76h0a0.54,0.54,0,0,0,.74-0.2,0.51,0.51,0,0,0,0-.09C40.58,72.6,39.95,71.67,39.94,70.13Z"/><path class="cls-2" d="M53.86,66.52L43.73,72.37c-2.09,1.2-3.78.29-3.79-2.24l-1.72,1c-2.09,1.2-3.78.29-3.79-2.23l-1.72,1c-2.09,1.2-3.78.28-3.79-2.24L53.82,53.27"/></g><path class="cls-8" d="M35.16,71.08a1.82,1.82,0,0,0,.3.25A1.81,1.81,0,0,1,35.16,71.08Z"/><path class="cls-8" d="M34.8,70.56a2.23,2.23,0,0,0,.23.36A2.23,2.23,0,0,1,34.8,70.56Z"/><path class="cls-8" d="M35.65,71.44a1.83,1.83,0,0,0,.39.14A1.81,1.81,0,0,1,35.65,71.44Z"/><path class="cls-8" d="M40,71.06a3.15,3.15,0,0,0,.19.6A3.17,3.17,0,0,1,40,71.06Z"/><path class="cls-8" d="M40.3,71.8a2.23,2.23,0,0,0,.23.37A2.25,2.25,0,0,1,40.3,71.8Z"/><path class="cls-8" d="M34.54,69.82a3.13,3.13,0,0,0,.19.59A3.16,3.16,0,0,1,34.54,69.82Z"/><path class="cls-8" d="M39.94,70.13a4.6,4.6,0,0,0,.07.78A4.65,4.65,0,0,1,39.94,70.13Z"/><path class="cls-8" d="M89.1,79.71l-13,8.73L45.46,71.37l-1.73,1a2.72,2.72,0,0,1-2.57.32,1.83,1.83,0,0,0,.39.14,0.51,0.51,0,0,1,0,.09,0.54,0.54,0,0,1-.74.2h0l-3-1.76a2.74,2.74,0,0,1-1.69.23,0.51,0.51,0,0,1,0,.09,0.54,0.54,0,0,1-.74.2h0l-3-1.76a4.36,4.36,0,0,0,.48-0.22,2.46,2.46,0,0,1-2.94.06,1.83,1.83,0,0,0,.26.22l-4.36-2.54a2,2,0,0,1-.7-0.76l-14.5,9.35,65,39.16,40-23Z"/><path class="cls-8" d="M40.66,72.32a1.82,1.82,0,0,0,.31.25A1.81,1.81,0,0,1,40.66,72.32Z"/><path class="cls-8" d="M34.44,68.89a4.58,4.58,0,0,0,.07.77A4.63,4.63,0,0,1,34.44,68.89Z"/><path class="cls-8" d="M29.24,69.22a3.19,3.19,0,0,1-.15-0.47A3.19,3.19,0,0,0,29.24,69.22Z"/><path class="cls-8" d="M29,68.51a4.66,4.66,0,0,1-.08-0.87A4.66,4.66,0,0,0,29,68.51Z"/><path class="cls-8" d="M29.59,69.77a2.26,2.26,0,0,1-.21-0.33A2.26,2.26,0,0,0,29.59,69.77Z"/></svg>