<?xml version="1.0" encoding="utf-8"?>
<!-- Generator: Adobe Illustrator 19.2.1, SVG Export Plug-In . SVG Version: 6.00 Build 0)  -->
<svg version="1.1" id="Layer_1" xmlns="http://www.w3.org/2000/svg" xmlns:xlink="http://www.w3.org/1999/xlink" x="0px" y="0px"
	 viewBox="0 0 126 125" style="enable-background:new 0 0 126 125;" xml:space="preserve">
<style type="text/css">
	.st0{fill:none;stroke:#3498DB;stroke-width:0.72;stroke-linejoin:round;}
	.st1{fill:none;stroke:#3498DB;stroke-width:1.08;stroke-linejoin:round;}
	.st2{fill:none;stroke:#3498DB;stroke-linecap:round;stroke-linejoin:round;}
	.st3{fill:#3498DB;}
	.st4{fill:none;stroke:#3498DB;stroke-width:0.76;stroke-linecap:round;stroke-linejoin:round;}
	.st5{clip-path:url(#SVGID_2_);}
	.st6{opacity:5.000000e-02;fill:#3498DB;enable-background:new    ;}
</style>
<title>environment</title>
<path class="st0" d="M86.5,33.3L107.8,21c-0.1,2.4-1.4,4.6-3.4,5.9l-1.5,0.9c-0.1,2.4-1.4,4.6-3.4,5.9L98,34.7
	c-0.1,1.8-0.8,3.5-2,4.8"/>
<polyline class="st0" points="82.7,31 103.9,18.7 107.8,21 "/>
<polygon class="st1" points="102,42.3 102.1,73 75.4,88.4 75.3,57.7 "/>
<polyline class="st1" points="29.7,61.8 19.5,55.8 19.4,25.1 75.3,57.7 75.4,88.4 46.2,71.4 "/>
<polygon class="st1" points="75.3,57.7 19.4,25.1 46.1,9.6 102,42.3 "/>
<line class="st2" x1="89.5" y1="50" x2="89.5" y2="80"/>
<path class="st3" d="M98.2,48.8l0.1,22l-19.2,11l-0.1-22L98.2,48.8 M98.2,48.1c-0.1,0-0.3,0-0.4,0.1L78.7,59.2
	c-0.2,0.1-0.4,0.4-0.4,0.7l0.1,22c0,0.4,0.3,0.8,0.8,0.8c0.1,0,0.3,0,0.4-0.1l19.2-11.1c0.2-0.1,0.3-0.4,0.3-0.7v-22
	C99,48.4,98.7,48.1,98.2,48.1L98.2,48.1L98.2,48.1L98.2,48.1z"/>
<polyline class="st4" points="34.1,59.3 23.9,53.3 23.8,32.8 70.9,60.2 70.9,80.8 50.5,68.9 "/>
<polyline class="st0" points="97.1,49.2 97.2,70 79.2,80.4 "/>
<polygon class="st0" points="66.8,58 66.7,76.5 64.6,77 64.7,56.6 "/>
<polyline class="st0" points="64.6,77 62.3,75.7 62.3,55.3 "/>
<line class="st0" x1="70.9" y1="79" x2="66.7" y2="76.5"/>
<polygon class="st0" points="58.2,53.3 58.2,71.4 56.1,72 56.2,51.9 "/>
<polyline class="st0" points="56.1,72 53.8,70.6 53.8,50.3 "/>
<line class="st0" x1="62.3" y1="74" x2="57.9" y2="71.4"/>
<line class="st0" x1="53.8" y1="69.3" x2="51.4" y2="67.9"/>
<polygon class="st0" points="49.6,48 49.5,50.7 47.5,51.9 47.5,46.6 "/>
<line class="st0" x1="45.1" y1="53.2" x2="45.2" y2="45"/>
<polygon class="st0" points="41.1,43.1 41,55.6 38.9,56.6 39,41.7 "/>
<line class="st0" x1="36.6" y1="58.3" x2="36.7" y2="40.1"/>
<polygon class="st0" points="32.6,38 32.5,56.7 30.5,57.2 30.5,36.7 "/>
<polyline class="st0" points="30.2,57 27.9,55.7 28,35.2 "/>
<line class="st0" x1="35.5" y1="58.6" x2="32.5" y2="56.8"/>
<line class="st0" x1="27.9" y1="54" x2="23.7" y2="51.8"/>
<g>
	<g>
		<g>
			<defs>
				<path id="SVGID_1_" d="M30,70.2l-4.4-2.5c-0.8-0.6-1.2-1.5-1.1-2.5l4.4,2.5C28.8,68.6,29.2,69.6,30,70.2z"/>
			</defs>
			<clipPath id="SVGID_2_">
				<use xlink:href="#SVGID_1_"  style="overflow:visible;"/>
			</clipPath>
			<g class="st5">
				<g>
					<path class="st3" d="M30,70.2l-4.4-2.5c-0.8-0.6-1.2-1.5-1.1-2.5l4.4,2.5C28.8,68.6,29.2,69.6,30,70.2"/>
				</g>
			</g>
		</g>
		<path class="st1" d="M30,70.2l-4.4-2.5c-0.8-0.6-1.2-1.5-1.1-2.5l4.4,2.5C28.8,68.6,29.2,69.6,30,70.2z"/>
	</g>
	<path class="st3" d="M34.4,68.9l-1.7,1c-0.2,0.1-0.3,0.2-0.5,0.2l3,1.8l0,0c0.3,0.1,0.6,0.1,0.7-0.2c0,0,0,0,0,0c0,0,0-0.1,0-0.1
		C35.1,71.4,34.4,70.4,34.4,68.9z"/>
	<polygon class="st0" points="28.9,67.6 24.6,65.1 49.5,50.7 53.8,53.3 	"/>
	<path class="st3" d="M39.9,70.1l-1.7,1c-0.2,0.1-0.3,0.2-0.5,0.2l3,1.8l0,0c0.3,0.1,0.6,0.1,0.7-0.2c0,0,0,0,0,0c0,0,0-0.1,0-0.1
		C40.6,72.6,40,71.7,39.9,70.1z"/>
	<path class="st0" d="M53.9,66.5l-10.1,5.9c-2.1,1.2-3.8,0.3-3.8-2.2l-1.7,1c-2.1,1.2-3.8,0.3-3.8-2.2l-1.7,1
		c-2.1,1.2-3.8,0.3-3.8-2.2l24.9-14.4"/>
</g>
<path class="st6" d="M35.2,71.1c0.1,0.1,0.2,0.2,0.3,0.2C35.4,71.3,35.3,71.2,35.2,71.1z"/>
<path class="st6" d="M34.8,70.6c0.1,0.1,0.1,0.2,0.2,0.4C34.9,70.8,34.9,70.7,34.8,70.6z"/>
<path class="st6" d="M35.7,71.4c0.1,0.1,0.3,0.1,0.4,0.1C35.9,71.5,35.8,71.5,35.7,71.4z"/>
<path class="st6" d="M40,71.1c0,0.2,0.1,0.4,0.2,0.6C40.1,71.5,40,71.3,40,71.1z"/>
<path class="st6" d="M40.3,71.8c0.1,0.1,0.1,0.3,0.2,0.4C40.4,72.1,40.4,71.9,40.3,71.8z"/>
<path class="st6" d="M34.5,69.8c0,0.2,0.1,0.4,0.2,0.6C34.6,70.2,34.6,70,34.5,69.8z"/>
<path class="st6" d="M39.9,70.1c0,0.3,0,0.5,0.1,0.8C40,70.7,39.9,70.4,39.9,70.1z"/>
<path class="st6" d="M89.1,79.7l-13,8.7L45.5,71.4l-1.7,1C43,72.9,42,73,41.2,72.7c0.1,0.1,0.3,0.1,0.4,0.1c0,0,0,0.1,0,0.1
	c-0.1,0.3-0.5,0.3-0.7,0.2c0,0,0,0,0,0l0,0l-3-1.8c-0.5,0.3-1.1,0.3-1.7,0.2c0,0,0,0.1,0,0.1c-0.1,0.3-0.5,0.3-0.7,0.2c0,0,0,0,0,0
	l0,0l-3-1.8c0.2-0.1,0.3-0.1,0.5-0.2c-0.9,0.7-2.1,0.7-2.9,0.1c0.1,0.1,0.2,0.2,0.3,0.2l-4.4-2.5c-0.3-0.2-0.5-0.4-0.7-0.8
	l-14.5,9.3l65,39.2l40-23L89.1,79.7z"/>
<path class="st6" d="M40.7,72.3c0.1,0.1,0.2,0.2,0.3,0.2C40.9,72.5,40.8,72.4,40.7,72.3z"/>
<path class="st6" d="M34.4,68.9c0,0.3,0,0.5,0.1,0.8C34.5,69.4,34.4,69.1,34.4,68.9z"/>
<path class="st6" d="M29.2,69.2c-0.1-0.2-0.1-0.3-0.1-0.5C29.1,68.9,29.2,69.1,29.2,69.2z"/>
<path class="st6" d="M29,68.5c-0.1-0.3-0.1-0.6-0.1-0.9C28.9,67.9,28.9,68.2,29,68.5z"/>
<path class="st6" d="M29.6,69.8c-0.1-0.1-0.1-0.2-0.2-0.3C29.4,69.6,29.5,69.7,29.6,69.8z"/>
</svg>
