<?xml version="1.0" encoding="utf-8"?>
<!-- Generator: Adobe Illustrator 21.1.0, SVG Export Plug-In . SVG Version: 6.00 Build 0)  -->
<svg version="1.1" id="Layer_1" xmlns="http://www.w3.org/2000/svg" xmlns:xlink="http://www.w3.org/1999/xlink" x="0px" y="0px"
	 viewBox="0 0 126 125" style="enable-background:new 0 0 126 125;" xml:space="preserve">
<style type="text/css">
	.st0{fill:#CAD5DA;}
	.st1{fill:none;stroke:#3498DB;stroke-width:1.08;stroke-linecap:round;stroke-linejoin:round;}
	.st2{fill:none;stroke:#3498DB;stroke-linecap:round;stroke-linejoin:round;}
	.st3{fill:#3498DB;}
	.st4{fill:none;stroke:#3498DB;stroke-width:0.72;stroke-linecap:round;stroke-linejoin:round;}
	.st5{fill:none;stroke:#3498DB;stroke-width:0.72;stroke-linejoin:round;}
	.st6{opacity:5.000000e-02;fill:#3498DB;enable-background:new    ;}
	.st7{enable-background:new    ;}
	.st8{fill:none;stroke:#3498DB;stroke-width:0.9917;stroke-linecap:round;stroke-linejoin:round;}
	.st9{fill:#FFFFFF;stroke:#000000;stroke-miterlimit:10;}
	.st10{fill:none;stroke:#3498DB;stroke-miterlimit:10;}
	.st11{fill:none;stroke:#3498DB;stroke-width:1.1569;stroke-miterlimit:10;}
	.st12{fill:none;stroke:#3498DB;stroke-linecap:round;stroke-miterlimit:10;}
	.st13{fill:none;stroke:#3498DB;stroke-width:0.9863;stroke-miterlimit:10;}
	
		.st14{fill:none;stroke:#3498DB;stroke-width:1.2598;stroke-linecap:round;stroke-linejoin:round;stroke-miterlimit:10;stroke-dasharray:3,9;}
	.st15{fill:#FFFFFF;}
	.st16{fill:#7A79B9;}
	.st17{fill:#65C8D0;}
	.st18{fill:#A9B0B4;}
	.st19{clip-path:url(#SVGID_2_);enable-background:new    ;}
	.st20{fill:none;stroke:#3498DB;stroke-width:1.2598;stroke-linecap:round;stroke-linejoin:round;stroke-miterlimit:10;}
	.st21{opacity:5.000000e-02;enable-background:new    ;}
	.st22{clip-path:url(#SVGID_4_);enable-background:new    ;}
	.st23{clip-path:url(#SVGID_6_);enable-background:new    ;}
	.st24{fill:none;stroke:#3498DB;stroke-width:1.3644;stroke-miterlimit:10;}
	.st25{fill:none;stroke:#3498DB;stroke-width:1.3644;stroke-linecap:round;stroke-miterlimit:10;}
	.st26{fill:#2876A9;}
	.st27{fill:#1C5175;}
	.st28{fill:#2D83BC;}
	.st29{fill:#2979AF;}
	.st30{fill:#2B7EB6;}
	.st31{fill:none;stroke:#3498DB;stroke-width:1.6898;stroke-linecap:round;stroke-miterlimit:10;}
</style>
<g>
	<polygon class="st20" points="99.2,78.9 99.2,87.4 43,119.9 42.9,111.3 	"/>
	<polygon class="st6" points="43,119.9 26.8,110.5 26.7,101.9 42.9,111.3 	"/>
	<polygon class="st20" points="91,74.1 99.2,78.9 42.9,111.3 26.7,101.9 71.1,76.3 	"/>
	<polygon class="st6" points="67.7,56.1 83,54.2 99.2,63.6 55.5,68.9 	"/>
	<polygon class="st20" points="99.1,14.5 99.1,23.8 55.5,68.9 99.2,63.6 99.3,72.8 43,79.6 42.9,72.6 	"/>
	<polygon class="st6" points="43,79.6 26.8,70.2 26.7,63.2 42.9,72.6 	"/>
	<polygon class="st20" points="42.9,72.6 26.7,63.2 82.9,5.1 99.1,14.5 	"/>
	<polygon class="st20" points="43,119.9 26.8,110.5 26.7,101.9 42.9,111.3 	"/>
	<polygon class="st20" points="43,79.6 26.8,70.2 26.7,63.2 42.9,72.6 	"/>
	<polyline class="st20" points="68,56 83,54.2 99.2,63.6 55.5,68.9 	"/>
</g>
</svg>
