<?xml version="1.0" encoding="utf-8"?>
<!-- Generator: Adobe Illustrator 21.1.0, SVG Export Plug-In . SVG Version: 6.00 Build 0)  -->
<svg version="1.1" id="Layer_1" xmlns="http://www.w3.org/2000/svg" xmlns:xlink="http://www.w3.org/1999/xlink" x="0px" y="0px"
	 viewBox="0 0 126 125" style="enable-background:new 0 0 126 125;" xml:space="preserve">
<style type="text/css">
	.st0{fill:#CAD5DA;}
	.st1{fill:none;stroke:#3498DB;stroke-width:1.08;stroke-linecap:round;stroke-linejoin:round;}
	.st2{fill:none;stroke:#3498DB;stroke-linecap:round;stroke-linejoin:round;}
	.st3{fill:#3498DB;}
	.st4{fill:none;stroke:#3498DB;stroke-width:0.72;stroke-linecap:round;stroke-linejoin:round;}
	.st5{fill:none;stroke:#3498DB;stroke-width:0.72;stroke-linejoin:round;}
	.st6{opacity:5.000000e-02;fill:#3498DB;enable-background:new    ;}
	.st7{enable-background:new    ;}
	.st8{fill:none;stroke:#3498DB;stroke-width:0.9917;stroke-linecap:round;stroke-linejoin:round;}
	.st9{fill:#FFFFFF;stroke:#000000;stroke-miterlimit:10;}
	.st10{fill:none;stroke:#3498DB;stroke-miterlimit:10;}
	.st11{fill:none;stroke:#3498DB;stroke-width:1.1569;stroke-miterlimit:10;}
	.st12{fill:none;stroke:#3498DB;stroke-linecap:round;stroke-miterlimit:10;}
	.st13{fill:none;stroke:#3498DB;stroke-width:0.9863;stroke-miterlimit:10;}
	
		.st14{fill:none;stroke:#3498DB;stroke-width:1.2598;stroke-linecap:round;stroke-linejoin:round;stroke-miterlimit:10;stroke-dasharray:3,9;}
	.st15{fill:#FFFFFF;}
	.st16{fill:#7A79B9;}
	.st17{fill:#65C8D0;}
	.st18{fill:#A9B0B4;}
	.st19{clip-path:url(#SVGID_2_);enable-background:new    ;}
	.st20{fill:none;stroke:#3498DB;stroke-width:1.2598;stroke-linecap:round;stroke-linejoin:round;stroke-miterlimit:10;}
	.st21{opacity:5.000000e-02;enable-background:new    ;}
	.st22{clip-path:url(#SVGID_4_);enable-background:new    ;}
	.st23{clip-path:url(#SVGID_6_);enable-background:new    ;}
	.st24{fill:none;stroke:#3498DB;stroke-width:1.3644;stroke-miterlimit:10;}
	.st25{fill:none;stroke:#3498DB;stroke-width:1.3644;stroke-linecap:round;stroke-miterlimit:10;}
	.st26{fill:#2876A9;}
	.st27{fill:#1C5175;}
	.st28{fill:#2D83BC;}
	.st29{fill:#2979AF;}
	.st30{fill:#2B7EB6;}
	.st31{fill:none;stroke:#3498DB;stroke-width:1.6898;stroke-linecap:round;stroke-miterlimit:10;}
</style>
<g>
	<g>
		<path class="st3" d="M87.4,53.5l-7,21.9c0.5,0.6,0.7,1.5,0.6,2.5c-1.2,0.5-2.4,1.1-3.7,1.8c-1.3,0.7-2.5,1.6-3.7,2.5
			c-0.1-0.8,0-1.9,0.4-3c0.7-1.8,1.9-3.2,3.2-4c0.1,0,0.1-0.1,0.2-0.1L87.4,53.5z"/>
	</g>
	<g class="st7">
		<path class="st6" d="M36,88c0.1-1.1,0.2-2.2,0.3-3.4c0-0.3,0.1-0.6,0.1-0.9c0.1-0.5,0.2-1.1,0.2-1.6c0.1-0.4,0.1-0.7,0.2-1.1
			c0.1-0.5,0.2-1,0.3-1.5c0.1-0.3,0.1-0.6,0.2-0.9c0.3-1.3,0.6-2.6,1-3.9c0.1-0.2,0.1-0.4,0.2-0.6c0.3-1.1,0.7-2.3,1-3.4
			c0-0.1,0.1-0.2,0.1-0.3c0.4-1.1,0.8-2.2,1.2-3.3c0.1-0.3,0.2-0.5,0.3-0.8c0.4-0.9,0.7-1.8,1.1-2.8c0.1-0.1,0.1-0.3,0.2-0.4
			c0.4-1,0.9-2,1.4-3c0.1-0.3,0.3-0.5,0.4-0.8c0.4-0.8,0.8-1.6,1.2-2.4c0.1-0.2,0.2-0.5,0.4-0.7c0.5-1,1.1-2,1.6-2.9
			c0.1-0.2,0.2-0.4,0.3-0.5c0.5-0.8,1-1.7,1.5-2.5c0.2-0.2,0.3-0.5,0.5-0.7c0.6-1,1.3-2,2-3c0.1-0.1,0.2-0.3,0.3-0.4
			c0.7-1,1.4-2,2.2-3c0.1-0.1,0.2-0.3,0.3-0.4c0.9-1.2,1.9-2.4,2.9-3.5c0.1-0.2,0.3-0.3,0.4-0.5c0.6-0.7,1.2-1.4,1.9-2.1
			c0,0,0.1-0.1,0.1-0.1c0.7-0.7,1.3-1.4,2-2.1c0.1-0.1,0.3-0.3,0.4-0.4c0.9-0.9,1.8-1.7,2.7-2.5c0.1-0.1,0.2-0.1,0.2-0.2
			c0.9-0.8,1.9-1.6,2.9-2.4c0.2-0.1,0.4-0.3,0.6-0.4c1-0.7,1.9-1.4,2.9-2.1c0.2-0.1,0.3-0.2,0.5-0.3c1-0.7,2-1.3,3.1-1.9
			c0.8-0.5,1.7-0.9,2.5-1.3c0.2-0.1,0.5-0.2,0.7-0.3c0.6-0.3,1.2-0.6,1.9-0.9c0.2-0.1,0.4-0.2,0.7-0.3c0.6-0.2,1.2-0.5,1.7-0.7
			c0.1-0.1,0.3-0.1,0.4-0.2c0.7-0.2,1.4-0.5,2.1-0.7c0.4-0.1,0.8-0.2,1.2-0.3c0.2,0,0.4-0.1,0.6-0.1c0.6-0.1,1.2-0.2,1.8-0.3
			c0,0,0,0,0.1,0c0.5-0.1,1.1-0.1,1.6-0.2c0.2,0,0.3,0,0.5,0c0.3,0,0.6,0,1-0.1c0.8,0,1.5,0,2.3,0c0.1,0,0.3,0,0.4,0
			c0.6,0,1.2,0.1,1.8,0.2c0.2,0,0.4,0.1,0.5,0.1c0.7,0.1,1.3,0.3,2,0.5c0,0,0.1,0,0.1,0c0.6,0.2,1.2,0.4,1.8,0.6
			c0.2,0.1,0.3,0.1,0.5,0.2c0.5,0.2,1,0.5,1.4,0.7c0.2,0.1,0.3,0.2,0.5,0.2l-24-14c-0.1,0-0.1-0.1-0.2-0.1c-0.1,0-0.2-0.1-0.3-0.1
			c-0.5-0.3-1-0.5-1.4-0.7c-0.1,0-0.2-0.1-0.3-0.1c-0.1,0-0.2-0.1-0.2-0.1c-0.6-0.2-1.2-0.4-1.8-0.6c0,0,0,0-0.1,0c0,0,0,0,0,0
			c-0.6-0.2-1.3-0.3-2-0.5c-0.1,0-0.1,0-0.2-0.1c-0.1,0-0.2,0-0.3,0c-0.6-0.1-1.2-0.2-1.8-0.2c-0.1,0-0.2,0-0.3,0c0,0-0.1,0-0.1,0
			c-0.7,0-1.5,0-2.3,0c-0.1,0-0.1,0-0.2,0c-0.2,0-0.5,0-0.7,0.1c-0.2,0-0.3,0-0.5,0c-0.5,0-1,0.1-1.6,0.2c0,0,0,0-0.1,0c0,0,0,0,0,0
			c-0.6,0.1-1.2,0.2-1.8,0.3c-0.2,0-0.4,0.1-0.6,0.1C61.7,6,61.3,6,61,6.1c0,0-0.1,0-0.1,0c-0.7,0.2-1.4,0.4-2.1,0.7
			c-0.1,0-0.3,0.1-0.4,0.2c-0.6,0.2-1.1,0.4-1.7,0.7c-0.1,0-0.2,0.1-0.2,0.1c-0.1,0.1-0.3,0.1-0.4,0.2c-0.6,0.3-1.2,0.5-1.9,0.9
			c-0.2,0.1-0.5,0.2-0.7,0.3c-0.8,0.4-1.6,0.9-2.5,1.3c-1,0.6-2.1,1.3-3.1,1.9c-0.2,0.1-0.3,0.2-0.5,0.3c-1,0.7-1.9,1.4-2.9,2.1
			c-0.2,0.1-0.4,0.3-0.6,0.4c-1,0.8-1.9,1.5-2.9,2.4c-0.1,0.1-0.2,0.1-0.2,0.2c-0.9,0.8-1.8,1.6-2.7,2.5c-0.1,0.1-0.2,0.2-0.3,0.3
			c-0.1,0.1-0.1,0.1-0.2,0.2c-0.7,0.7-1.3,1.4-2,2.1c0,0-0.1,0.1-0.1,0.1c-0.6,0.7-1.2,1.4-1.9,2.1c-0.1,0.1-0.1,0.1-0.2,0.2
			c-0.1,0.1-0.1,0.2-0.2,0.3c-1,1.1-1.9,2.3-2.9,3.5c0,0-0.1,0.1-0.1,0.1c-0.1,0.1-0.1,0.2-0.2,0.3c-0.7,1-1.5,2-2.2,3
			c-0.1,0.1-0.1,0.2-0.2,0.3c0,0-0.1,0.1-0.1,0.1c-0.7,1-1.3,2-2,3c-0.1,0.1-0.1,0.2-0.2,0.3c-0.1,0.1-0.2,0.3-0.3,0.4
			c-0.5,0.8-1,1.6-1.5,2.5c-0.1,0.1-0.2,0.3-0.2,0.4c0,0.1-0.1,0.1-0.1,0.2c-0.6,1-1.1,1.9-1.6,2.9c0,0.1-0.1,0.2-0.1,0.2
			c-0.1,0.2-0.2,0.3-0.2,0.5c-0.4,0.8-0.8,1.6-1.2,2.4c-0.1,0.2-0.2,0.3-0.2,0.5c0,0.1-0.1,0.2-0.1,0.3c-0.5,1-0.9,2-1.4,3
			c0,0,0,0.1,0,0.1c0,0.1-0.1,0.2-0.1,0.3c-0.4,0.9-0.8,1.8-1.1,2.7c-0.1,0.1-0.1,0.3-0.2,0.4c0,0.1-0.1,0.2-0.1,0.4
			c-0.4,1.1-0.8,2.2-1.2,3.3c0,0,0,0,0,0.1c0,0.1,0,0.1-0.1,0.2c-0.4,1.1-0.7,2.2-1,3.4c0,0.1-0.1,0.3-0.1,0.4c0,0.1,0,0.2-0.1,0.2
			c-0.4,1.3-0.7,2.6-1,3.9c0,0.1-0.1,0.2-0.1,0.3c0,0.2-0.1,0.3-0.1,0.5c-0.1,0.5-0.2,1-0.3,1.5c-0.1,0.4-0.1,0.7-0.2,1.1
			c-0.1,0.5-0.2,1.1-0.2,1.6c0,0.2-0.1,0.5-0.1,0.7c0,0.1,0,0.1,0,0.2c-0.1,1.1-0.3,2.2-0.3,3.4c0,0.2,0,0.5,0,0.7
			c-0.1,1.1-0.1,2.3-0.1,3.4c0,12.4,4.4,21.1,11.4,25.1l24,14c-7-4.1-11.4-12.8-11.4-25.1c0-1.1,0-2.3,0.1-3.4
			C35.9,88.5,36,88.2,36,88z"/>
		<g>
			<path class="st24" d="M74.9,24.4c21.6-12.5,39.3-2.5,39.3,22.4S96.8,102,75.1,114.5S35.9,117,35.8,92.1S53.2,36.9,74.9,24.4z"/>
		</g>
	</g>
	<g class="st21">
		<path class="st3" d="M96.6,79.2c4.7-8.6,7.2-17.8,7.2-25.8c-0.1-17.7-12.7-24.9-28.1-16S47.8,68,47.8,85.7c0,8,2.6,14.2,7.3,17.4
			c5.5-9.6,12.8-17.4,20.7-22C83.7,76.6,91.1,75.9,96.6,79.2"/>
	</g>
	<g>
		<g>
			<path class="st3" d="M99.1,55.6c0.8-0.5,1.4-0.1,1.5,0.8c0,0.9-0.6,2.1-1.4,2.5c-0.8,0.5-1.5,0.1-1.5-0.8S98.3,56.1,99.1,55.6z"
				/>
		</g>
		<g>
			<path class="st3" d="M98,66.1c0.7-0.1,1.1,0.7,0.8,1.7c-0.2,0.8-0.8,1.5-1.3,1.8c-0.2,0.1-0.4,0.2-0.5,0.2
				c-0.8,0.1-1.1-0.7-0.8-1.7c0.2-0.8,0.8-1.5,1.3-1.8C97.7,66.2,97.8,66.2,98,66.1z"/>
		</g>
		<g>
			<path class="st3" d="M97.4,50.2c-0.6,0.3-1.1,0.3-1.3-0.3c-0.3-0.7,0-1.9,0.8-2.6c0.2-0.2,0.4-0.3,0.6-0.4
				c0.6-0.3,1.1-0.3,1.3,0.3c0.3,0.7,0,1.9-0.8,2.6C97.7,49.9,97.6,50.1,97.4,50.2z"/>
		</g>
		<g>
			<path class="st3" d="M92.6,41.3c0.4-0.2,0.7-0.3,1-0.1c0.6,0.3,0.6,1.4,0,2.4c-0.3,0.5-0.6,0.9-1,1.1c-0.4,0.2-0.8,0.3-1,0.1
				c-0.6-0.3-0.6-1.4,0-2.4C91.8,41.9,92.2,41.5,92.6,41.3z"/>
		</g>
		<g>
			<path class="st3" d="M86,39.6c0.7-0.1,1.1,0.7,0.8,1.7c-0.2,0.8-0.8,1.5-1.3,1.8c-0.2,0.1-0.4,0.2-0.6,0.2
				c-0.7,0.1-1.1-0.7-0.8-1.7c0.2-0.8,0.8-1.5,1.3-1.8C85.6,39.7,85.8,39.7,86,39.6z"/>
		</g>
		<g>
			<path class="st3" d="M76.9,42.6c0.8-0.5,1.4-0.1,1.4,0.9c0,0.9-0.7,2-1.5,2.5l0,0c-0.8,0.4-1.4,0.1-1.4-0.9
				C75.5,44.2,76.1,43.1,76.9,42.6C76.9,42.7,76.9,42.7,76.9,42.6z"/>
		</g>
		<g>
			<path class="st3" d="M68.4,49.3c0.6-0.3,1.1-0.2,1.4,0.3c0.3,0.7-0.1,1.9-0.8,2.6c-0.2,0.2-0.3,0.3-0.5,0.4
				c-0.6,0.3-1.1,0.2-1.3-0.3c-0.3-0.7,0.1-1.9,0.8-2.7C68.1,49.6,68.2,49.4,68.4,49.3z"/>
		</g>
		<g>
			<path class="st3" d="M61.1,58.9c0.4-0.2,0.8-0.3,1.1-0.1c0.6,0.3,0.5,1.4,0,2.4c-0.3,0.5-0.6,0.8-1,1c-0.4,0.2-0.8,0.3-1.1,0.1
				c-0.6-0.3-0.5-1.4,0-2.4C60.4,59.4,60.8,59.1,61.1,58.9z"/>
		</g>
		<g>
			<path class="st3" d="M56.7,69.7c0.7,0,1.1,0.8,0.7,1.8c-0.2,0.8-0.8,1.4-1.3,1.8c-0.2,0.1-0.4,0.2-0.6,0.2
				c-0.7,0-1.1-0.8-0.7-1.8c0.2-0.8,0.8-1.4,1.3-1.7C56.3,69.8,56.5,69.7,56.7,69.7z"/>
		</g>
		<g>
			<path class="st3" d="M55.6,89.7c0.6-0.3,1.1-0.2,1.4,0.3c0.3,0.7-0.1,1.9-0.9,2.6c-0.2,0.2-0.3,0.3-0.5,0.4
				c-0.6,0.3-1.1,0.2-1.4-0.3c-0.3-0.7,0.1-1.9,0.9-2.7C55.2,90,55.4,89.8,55.6,89.7z"/>
		</g>
		<g>
			<path class="st3" d="M54.2,84L54.2,84c-0.9,0.5-1.5,0-1.5-0.9c0-0.9,0.7-2,1.4-2.4c0,0,0,0,0,0c0.8-0.4,1.4,0,1.4,0.9
				C55.6,82.5,55,83.6,54.2,84z"/>
		</g>
	</g>
	<g>
		<path class="st24" d="M67.8,109.6c2.9-1.7,5.3-5.8,5.3-9.2c0-3.4-2.4-4.7-5.3-3.1c-2.9,1.7-5.3,5.8-5.3,9.2
			C62.5,109.9,64.9,111.3,67.8,109.6"/>
	</g>
	<g>
		<path class="st24" d="M87.3,97.5c2.9-1.7,5.3-5.8,5.3-9.2c0-3.4-2.4-4.7-5.3-3c-2.9,1.7-5.3,5.8-5.3,9.2
			C81.9,97.8,84.3,99.2,87.3,97.5"/>
	</g>
	<path class="st24" d="M36,88c0.1-1.1,0.2-2.2,0.3-3.4c0-0.3,0.1-0.6,0.1-0.9c0.1-0.5,0.2-1.1,0.2-1.6c0.1-0.4,0.1-0.7,0.2-1.1
		c0.1-0.5,0.2-1,0.3-1.5c0.1-0.3,0.1-0.6,0.2-0.9c0.3-1.3,0.6-2.6,1-3.9c0.1-0.2,0.1-0.4,0.2-0.6c0.3-1.1,0.7-2.3,1-3.4
		c0-0.1,0.1-0.2,0.1-0.3c0.4-1.1,0.8-2.2,1.2-3.3c0.1-0.3,0.2-0.5,0.3-0.8c0.4-0.9,0.7-1.8,1.1-2.8c0.1-0.1,0.1-0.3,0.2-0.4
		c0.4-1,0.9-2,1.4-3c0.1-0.3,0.3-0.5,0.4-0.8c0.4-0.8,0.8-1.6,1.2-2.4c0.1-0.2,0.2-0.5,0.4-0.7c0.5-1,1.1-2,1.6-2.9
		c0.1-0.2,0.2-0.4,0.3-0.5c0.5-0.8,1-1.7,1.5-2.5c0.2-0.2,0.3-0.5,0.5-0.7c0.6-1,1.3-2,2-3c0.1-0.1,0.2-0.3,0.3-0.4
		c0.7-1,1.4-2,2.2-3c0.1-0.1,0.2-0.3,0.3-0.4c0.9-1.2,1.9-2.4,2.9-3.5c0.1-0.2,0.3-0.3,0.4-0.5c0.6-0.7,1.2-1.4,1.9-2.1
		c0,0,0.1-0.1,0.1-0.1c0.7-0.7,1.3-1.4,2-2.1c0.1-0.1,0.3-0.3,0.4-0.4c0.9-0.9,1.8-1.7,2.7-2.5c0.1-0.1,0.2-0.1,0.2-0.2
		c0.9-0.8,1.9-1.6,2.9-2.4c0.2-0.1,0.4-0.3,0.6-0.4c1-0.7,1.9-1.4,2.9-2.1c0.2-0.1,0.3-0.2,0.5-0.3c1-0.7,2-1.3,3.1-1.9
		c0.8-0.5,1.7-0.9,2.5-1.3c0.2-0.1,0.5-0.2,0.7-0.3c0.6-0.3,1.2-0.6,1.9-0.9c0.2-0.1,0.4-0.2,0.7-0.3c0.6-0.2,1.2-0.5,1.7-0.7
		c0.1-0.1,0.3-0.1,0.4-0.2c0.7-0.2,1.4-0.5,2.1-0.7c0.4-0.1,0.8-0.2,1.2-0.3c0.2,0,0.4-0.1,0.6-0.1c0.6-0.1,1.2-0.2,1.8-0.3
		c0,0,0,0,0.1,0c0.5-0.1,1.1-0.1,1.6-0.2c0.2,0,0.3,0,0.5,0c0.3,0,0.6,0,1-0.1c0.8,0,1.5,0,2.3,0c0.1,0,0.3,0,0.4,0
		c0.6,0,1.2,0.1,1.8,0.2c0.2,0,0.4,0.1,0.5,0.1c0.7,0.1,1.3,0.3,2,0.5c0,0,0.1,0,0.1,0c0.6,0.2,1.2,0.4,1.8,0.6
		c0.2,0.1,0.3,0.1,0.5,0.2c0.5,0.2,1,0.5,1.4,0.7c0.2,0.1,0.3,0.2,0.5,0.2l-24-14c-0.1,0-0.1-0.1-0.2-0.1c-0.1,0-0.2-0.1-0.3-0.1
		c-0.5-0.3-1-0.5-1.4-0.7c-0.1,0-0.2-0.1-0.3-0.1c-0.1,0-0.2-0.1-0.2-0.1c-0.6-0.2-1.2-0.4-1.8-0.6c0,0,0,0-0.1,0c0,0,0,0,0,0
		c-0.6-0.2-1.3-0.3-2-0.5c-0.1,0-0.1,0-0.2-0.1c-0.1,0-0.2,0-0.3,0c-0.6-0.1-1.2-0.2-1.8-0.2c-0.1,0-0.2,0-0.3,0c0,0-0.1,0-0.1,0
		c-0.7,0-1.5,0-2.3,0c-0.1,0-0.1,0-0.2,0c-0.2,0-0.5,0-0.7,0.1c-0.2,0-0.3,0-0.5,0c-0.5,0-1,0.1-1.6,0.2c0,0,0,0-0.1,0c0,0,0,0,0,0
		c-0.6,0.1-1.2,0.2-1.8,0.3c-0.2,0-0.4,0.1-0.6,0.1C61.7,6,61.3,6,61,6.1c0,0-0.1,0-0.1,0c-0.7,0.2-1.4,0.4-2.1,0.7
		c-0.1,0-0.3,0.1-0.4,0.2c-0.6,0.2-1.1,0.4-1.7,0.7c-0.1,0-0.2,0.1-0.2,0.1c-0.1,0.1-0.3,0.1-0.4,0.2c-0.6,0.3-1.2,0.5-1.9,0.9
		c-0.2,0.1-0.5,0.2-0.7,0.3c-0.8,0.4-1.6,0.9-2.5,1.3c-1,0.6-2.1,1.3-3.1,1.9c-0.2,0.1-0.3,0.2-0.5,0.3c-1,0.7-1.9,1.4-2.9,2.1
		c-0.2,0.1-0.4,0.3-0.6,0.4c-1,0.8-1.9,1.5-2.9,2.4c-0.1,0.1-0.2,0.1-0.2,0.2c-0.9,0.8-1.8,1.6-2.7,2.5c-0.1,0.1-0.2,0.2-0.3,0.3
		c-0.1,0.1-0.1,0.1-0.2,0.2c-0.7,0.7-1.3,1.4-2,2.1c0,0-0.1,0.1-0.1,0.1c-0.6,0.7-1.2,1.4-1.9,2.1c-0.1,0.1-0.1,0.1-0.2,0.2
		c-0.1,0.1-0.1,0.2-0.2,0.3c-1,1.1-1.9,2.3-2.9,3.5c0,0-0.1,0.1-0.1,0.1c-0.1,0.1-0.1,0.2-0.2,0.3c-0.7,1-1.5,2-2.2,3
		c-0.1,0.1-0.1,0.2-0.2,0.3c0,0-0.1,0.1-0.1,0.1c-0.7,1-1.3,2-2,3c-0.1,0.1-0.1,0.2-0.2,0.3c-0.1,0.1-0.2,0.3-0.3,0.4
		c-0.5,0.8-1,1.6-1.5,2.5c-0.1,0.1-0.2,0.3-0.2,0.4c0,0.1-0.1,0.1-0.1,0.2c-0.6,1-1.1,1.9-1.6,2.9c0,0.1-0.1,0.2-0.1,0.2
		c-0.1,0.2-0.2,0.3-0.2,0.5c-0.4,0.8-0.8,1.6-1.2,2.4c-0.1,0.2-0.2,0.3-0.2,0.5c0,0.1-0.1,0.2-0.1,0.3c-0.5,1-0.9,2-1.4,3
		c0,0,0,0.1,0,0.1c0,0.1-0.1,0.2-0.1,0.3c-0.4,0.9-0.8,1.8-1.1,2.7c-0.1,0.1-0.1,0.3-0.2,0.4c0,0.1-0.1,0.2-0.1,0.4
		c-0.4,1.1-0.8,2.2-1.2,3.3c0,0,0,0,0,0.1c0,0.1,0,0.1-0.1,0.2c-0.4,1.1-0.7,2.2-1,3.4c0,0.1-0.1,0.3-0.1,0.4c0,0.1,0,0.2-0.1,0.2
		c-0.4,1.3-0.7,2.6-1,3.9c0,0.1-0.1,0.2-0.1,0.3c0,0.2-0.1,0.3-0.1,0.5c-0.1,0.5-0.2,1-0.3,1.5c-0.1,0.4-0.1,0.7-0.2,1.1
		c-0.1,0.5-0.2,1.1-0.2,1.6c0,0.2-0.1,0.5-0.1,0.7c0,0.1,0,0.1,0,0.2c-0.1,1.1-0.3,2.2-0.3,3.4c0,0.2,0,0.5,0,0.7
		c-0.1,1.1-0.1,2.3-0.1,3.4c0,12.4,4.4,21.1,11.4,25.1l24,14c-7-4.1-11.4-12.8-11.4-25.1c0-1.1,0-2.3,0.1-3.4
		C35.9,88.5,36,88.2,36,88z"/>
	<g>
		<path class="st25" d="M96.6,79.2c4.7-8.6,7.2-17.8,7.2-25.8c-0.1-17.7-12.7-24.9-28.1-16S47.8,68,47.8,85.7c0,8,2.6,14.2,7.3,17.4
			c5.5-9.6,12.8-17.4,20.7-22C83.7,76.6,91.1,75.9,96.6,79.2"/>
	</g>
</g>
</svg>
