<svg id="Layer_1" data-name="Layer 1" xmlns="http://www.w3.org/2000/svg" viewBox="0 0 126 125"><defs><style>.cls-1,.cls-2,.cls-4{fill:none;stroke:#3498db;stroke-linejoin:round;}.cls-1{stroke-width:1.08px;}.cls-2{stroke-linecap:round;}.cls-3,.cls-5{fill:#3498db;}.cls-4{stroke-width:0.72px;}.cls-5{opacity:0.05;}</style></defs><title>environment</title><polygon class="cls-1" points="102 52.07 102.09 82.79 75.36 98.23 75.27 67.51 102 52.07"/><polygon class="cls-1" points="75.36 98.23 19.49 65.63 19.4 34.91 75.27 67.51 75.36 98.23"/><polygon class="cls-1" points="75.27 67.51 19.37 34.85 46.1 19.42 102 52.07 75.27 67.51"/><line class="cls-2" x1="88.72" y1="59.5" x2="88.72" y2="89.5"/><path class="cls-3" d="M98.23,58.63l0.06,22L79.13,91.67l-0.06-22L98.23,58.63m0-.76a0.76,0.76,0,0,0-.38.1L78.69,69a0.76,0.76,0,0,0-.38.66l0.06,22a0.76,0.76,0,0,0,1.14.65L98.67,81.27A0.76,0.76,0,0,0,99,80.61L99,58.63a0.76,0.76,0,0,0-.76-0.76h0Z"/><path class="cls-3" d="M23.8,42.54L70.9,70,71,90.6,23.86,63.11,23.8,42.54m0-.76a0.76,0.76,0,0,0-.76.76L23.1,63.11a0.76,0.76,0,0,0,.38.65L70.57,91.25a0.76,0.76,0,0,0,1.14-.66L71.65,70a0.76,0.76,0,0,0-.38-0.65L24.19,41.88a0.76,0.76,0,0,0-.38-0.1h0Z"/><polyline class="cls-4" points="97.1 59.22 97.15 79.8 79.22 90.16"/><polygon class="cls-4" points="66.75 67.64 66.69 86.66 64.62 87.21 64.68 66.29 66.75 67.64"/><polyline class="cls-4" points="64.62 87.21 62.29 85.86 62.35 64.65"/><line class="cls-4" x1="71.39" y1="89.04" x2="66.85" y2="86.4"/><polygon class="cls-4" points="58.21 62.74 58.15 81.76 56.08 82.31 56.14 61.38 58.21 62.74"/><polyline class="cls-4" points="56.08 82.31 53.76 80.96 53.82 59.75"/><line class="cls-4" x1="62.32" y1="83.99" x2="58.31" y2="81.66"/><line class="cls-4" x1="53.75" y1="79.11" x2="49.31" y2="76.53"/><polygon class="cls-4" points="49.6 57.76 49.53 76.79 47.47 77.33 47.53 56.41 49.6 57.76"/><polyline class="cls-4" points="47.47 77.33 45.14 75.99 45.2 54.78"/><polygon class="cls-4" points="41.06 52.86 41 71.89 38.93 72.43 38.99 51.51 41.06 52.86"/><polyline class="cls-4" points="38.93 72.43 36.6 71.09 36.66 49.88"/><line class="cls-4" x1="45.17" y1="74.11" x2="41.16" y2="71.78"/><polygon class="cls-4" points="32.59 47.89 32.53 66.91 30.46 67.45 30.53 46.53 32.59 47.89"/><polyline class="cls-4" points="30.24 67.23 27.91 65.89 27.98 44.68"/><line class="cls-4" x1="36.48" y1="68.92" x2="32.47" y2="66.58"/><line class="cls-4" x1="27.87" y1="63.83" x2="23.48" y2="61.28"/><polygon class="cls-5" points="115.32 82.12 75.42 105.16 10.44 66 19.07 60.55 19.02 65.9 75.03 98.38 101.22 82.71 101.22 75.81 115.32 82.12"/></svg>