<?xml version="1.0" ?><!DOCTYPE svg  PUBLIC '-//W3C//DTD SVG 1.1//EN'  'http://www.w3.org/Graphics/SVG/1.1/DTD/svg11.dtd'><svg enable-background="new 0 0 500 500" height="500px" id="Layer_1" version="1.1" viewBox="0 0 500 500" width="500px" xml:space="preserve" xmlns="http://www.w3.org/2000/svg" xmlns:xlink="http://www.w3.org/1999/xlink"><path clip-rule="evenodd" d="M91.506,347.039c0,0,27.256-24.354,81.769-24.354  c63.962,0,115.29,45.428,170.62,45.428c47.254,0,81.768-20.442,100.49-39.245c5.995-6.006,10.538-16.361,10.538-26.074V81.289  c0-11.09-7.631-20.176-18.807-20.176c-7.543,0-13.266,4.543-18.989,10.267c-7.719,7.718-30.342,24.169-84.592,24.169  c-49.507,0-88.759-45.429-152.721-45.429c-61.603,0-88.308,20.079-88.308,20.079V54.662c0-12.536-10.177-22.713-22.716-22.713  c-12.536,0-22.713,10.177-22.713,22.713V445.34c0,12.536,10.177,22.711,22.713,22.711c12.539,0,22.716-10.175,22.716-22.711V347.039  z M127.846,122.802v145.37c0,9.988-8.181,18.169-18.17,18.169c-9.99,0-18.17-8.181-18.17-18.169v-145.37  c0-9.989,8.18-18.17,18.17-18.17C119.665,104.632,127.846,112.813,127.846,122.802z" fill="white" fill-rule="evenodd"/></svg>
