<?xml version="1.0" encoding="utf-8"?>
<!-- Generator: Adobe Illustrator 19.1.0, SVG Export Plug-In . SVG Version: 6.00 Build 0)  -->
<svg version="1.1" id="Layer_1" xmlns="http://www.w3.org/2000/svg" xmlns:xlink="http://www.w3.org/1999/xlink" x="0px" y="0px"
	 viewBox="0 0 200 200" style="enable-background:new 0 0 200 200;" xml:space="preserve">
<style type="text/css">
	.st0{fill:#0075A8;}
</style>
<path class="st0" d="M100,195.5c-52.7,0-95.5-42.8-95.5-95.5C4.5,47.3,47.3,4.5,100,4.5c52.7,0,95.5,42.8,95.5,95.5
	C195.5,152.7,152.7,195.5,100,195.5z M100,9.5C50.1,9.5,9.5,50.1,9.5,100c0,49.9,40.6,90.5,90.5,90.5c49.9,0,90.5-40.6,90.5-90.5
	C190.5,50.1,149.9,9.5,100,9.5z"/>
<path class="st0" d="M132.6,26H67.1C61.3,26,56,30.2,56,36v51.5v0.8l0.7,0.7c2.9,6,14.7,23.9,17.5,27.7l1.1,1.4l-0.1,0.2L97.3,144
	l-6.2,5.9l5.9,6.1V192h4v-35.5l6.8-6.6l-5.7-5.8l22.3-25.9l-0.1-0.2h0.1l1.1-1.6c1.1-1.7,2.5-3.7,4.1-6.2
	c4.5-6.8,10.1-15.3,13.1-21.2l0.4-0.7v-0.9V36C143,30.2,138.3,26,132.6,26z M132.6,29c1.4,0,2.7,0.5,3.8,1.2l-2.8,2.5l-3.5-3.8
	H132.6z M78.3,66.8l4.7,4.7l-4.7,4.7l-4.7-4.7L78.3,66.8z M72.2,70l-4.7-4.7l4.7-4.7l4.7,4.7L72.2,70z M104.3,65.3l4.7-4.7l4.7,4.7
	L109,70L104.3,65.3z M113.7,77.6l-4.7,4.7l-4.7-4.7l4.7-4.7L113.7,77.6z M107.5,71.5l-4.7,4.7l-4.7-4.7l4.7-4.7L107.5,71.5z
	 M101.4,77.6l-4.7,4.7L92,77.6l4.7-4.7L101.4,77.6z M96.7,70L92,65.3l4.7-4.7l4.7,4.7L96.7,70z M95.3,71.5l-4.7,4.7l-4.7-4.7
	l4.7-4.7L95.3,71.5z M84.4,70l-4.7-4.7l4.7-4.7l4.7,4.7L84.4,70z M84.4,72.9l4.7,4.7l-4.7,4.7l-4.7-4.7L84.4,72.9z M90.6,79l4.7,4.7
	l-4.7,4.7l-4.7-4.7L90.6,79z M96.7,85.2l4.7,4.7l-4.7,4.7L92,89.9L96.7,85.2z M98.1,83.7l4.7-4.7l4.7,4.7l-4.7,4.7L98.1,83.7z
	 M109,85.2l4.7,4.7l-4.7,4.7l-4.7-4.7L109,85.2z M110.4,83.7l4.7-4.7l4.7,4.7l-4.7,4.7L110.4,83.7z M110.4,71.5l4.7-4.7l4.7,4.7
	l-4.7,4.7L110.4,71.5z M116.6,65.3l4.7-4.7l4.7,4.7l-4.7,4.7L116.6,65.3z M116.6,53l4.7-4.7L126,53l-4.7,4.7L116.6,53z M119.8,59.2
	l-4.7,4.7l-4.7-4.7l4.7-4.7L119.8,59.2z M109,57.8l-4.7-4.7l4.7-4.7l4.7,4.7L109,57.8z M107.5,59.2l-4.7,4.7l-4.7-4.7l4.7-4.7
	L107.5,59.2z M96.7,57.8L92,53l4.7-4.7l4.7,4.7L96.7,57.8z M95.3,59.2l-4.7,4.7l-4.7-4.7l4.7-4.7L95.3,59.2z M84.4,57.8L79.7,53
	l4.7-4.7l4.7,4.7L84.4,57.8z M83,59.2l-4.7,4.7l-4.7-4.7l4.7-4.7L83,59.2z M72.2,57.8L67.5,53l4.7-4.7l4.7,4.7L72.2,57.8z
	 M70.7,59.2L66,63.9l-4.7-4.7l4.7-4.7L70.7,59.2z M70.7,71.5L66,76.2l-4.7-4.7l4.7-4.7L70.7,71.5z M72.2,72.9l4.7,4.7l-4.7,4.7
	l-4.7-4.7L72.2,72.9z M78.3,79l4.7,4.7l-4.7,4.7l-4.7-4.7L78.3,79z M84.4,85.2l4.7,4.7l-4.7,4.7l-4.7-4.7L84.4,85.2z M90.6,91.3
	l4.7,4.7l-4.7,4.7L85.9,96L90.6,91.3z M96.7,97.5l4.7,4.7l-4.7,4.7l-4.7-4.7L96.7,97.5z M98.1,96l4.7-4.7l4.7,4.7l-4.7,4.7L98.1,96z
	 M109,97.5l4.7,4.7l-4.7,4.7l-4.7-4.7L109,97.5z M110.4,96l4.7-4.7l4.7,4.7l-4.7,4.7L110.4,96z M116.6,89.9l4.7-4.7l4.7,4.7
	l-4.7,4.7L116.6,89.9z M116.6,77.6l4.7-4.7l4.7,4.7l-4.7,4.7L116.6,77.6z M122.7,71.5l4.7-4.7l4.7,4.7l-4.7,4.7L122.7,71.5z
	 M127.4,63.9l-4.7-4.7l4.7-4.7l4.7,4.7L127.4,63.9z M122.7,46.9l4.7-4.7l4.7,4.7l-4.7,4.7L122.7,46.9z M121.3,45.5l-4.7-4.7l4.7-4.7
	l4.7,4.7L121.3,45.5z M119.8,46.9l-4.7,4.7l-4.7-4.7l4.7-4.7L119.8,46.9z M109,45.5l-4.7-4.7l4.7-4.7l4.7,4.7L109,45.5z M107.5,46.9
	l-4.7,4.7l-4.7-4.7l4.7-4.7L107.5,46.9z M96.7,45.5L92,40.8l4.7-4.7l4.7,4.7L96.7,45.5z M95.3,46.9l-4.7,4.7l-4.7-4.7l4.7-4.7
	L95.3,46.9z M84.4,45.5l-4.7-4.7l4.7-4.7l4.7,4.7L84.4,45.5z M83,46.9l-4.7,4.7l-4.7-4.7l4.7-4.7L83,46.9z M72.2,45.5l-4.7-4.7
	l4.7-4.7l4.7,4.7L72.2,45.5z M70.7,46.9L66,51.6l-4.7-4.7l4.7-4.7L70.7,46.9z M60,45.4v-9.3l4.6,4.6L60,45.4z M64.6,53L60,57.7v-9.3
	L64.6,53z M64.6,65.3L60,70v-9.3L64.6,65.3z M64.6,77.6L60,82.2V73L64.6,77.6z M66,79l4.7,4.7L66,88.4l-4.7-4.7L66,79z M72.2,85.2
	l4.7,4.7l-4.7,4.7l-4.7-4.7L72.2,85.2z M78.3,91.3L83,96l-4.7,4.7L73.6,96L78.3,91.3z M84.4,97.5l4.7,4.7l-4.7,4.7l-4.7-4.7
	L84.4,97.5z M90.6,103.6l4.7,4.7l-4.7,4.7l-4.7-4.7L90.6,103.6z M96.7,110.1l4.7,4.9H92l0-0.2L96.7,110.1z M98.1,108.3l4.7-4.7
	l4.7,4.7l-4.7,4.7L98.1,108.3z M109,110.1l4.7,4.9h-9.4l0-0.2L109,110.1z M110.4,108.3l4.7-4.7l4.7,4.7l-4.7,4.7L110.4,108.3z
	 M116.6,102.2l4.7-4.7l4.7,4.7l-4.7,4.7L116.6,102.2z M122.7,96l4.7-4.7l4.7,4.7l-4.7,4.7L122.7,96z M122.7,83.7l4.7-4.7l4.7,4.7
	l-4.7,4.7L122.7,83.7z M128.8,77.6l4.7-4.7l4.7,4.7l-4.7,4.7L128.8,77.6z M128.8,65.3l4.7-4.7l4.7,4.7l-4.7,4.7L128.8,65.3z
	 M128.8,53l4.7-4.7l4.7,4.7l-4.7,4.7L128.8,53z M128.8,40.8l4.7-4.7l4.7,4.7l-4.7,4.7L128.8,40.8z M132.1,34.6l-4.7,4.7l-4.7-4.7
	l4.7-4.7L132.1,34.6z M124.7,29l-3.4,3.4l-3.4-3.4H124.7z M119.8,34.6l-4.7,4.7l-4.7-4.7l4.7-4.7L119.8,34.6z M112.4,29l-3.4,3.4
	l-3.4-3.4H112.4z M107.5,34.6l-4.7,4.7l-4.7-4.7l4.7-4.7L107.5,34.6z M100.1,29l-3.4,3.4L93.3,29H100.1z M95.3,34.6l-4.7,4.7
	l-4.7-4.7l4.7-4.7L95.3,34.6z M87.8,29l-3.4,3.4L81,29H87.8z M83,34.6l-4.7,4.7l-4.7-4.7l4.7-4.7L83,34.6z M75.6,29l-3.4,3.4
	L68.8,29H75.6z M66,29.9l4.7,4.7L66,39.3l-4.7-4.7L66,29.9z M60.6,34.2c0,0.4-0.1,0.9-0.1,1.3C60.5,35,60.5,34.6,60.6,34.2z
	 M60,35.5V36C60,35.8,60,35.6,60,35.5z M60,87.4v-2.2l4.6,4.6l-2.2,2C61.4,90.1,60,88.5,60,87.4z M63.8,93.6l2.3-2.3l4.7,4.7
	l-3.4,3.4C66,97.4,64.8,95.5,63.8,93.6z M71.8,106.5c-1.1-1.7-2.3-3.5-3.4-5.3l3.7-3.7l4.7,4.7l-4.7,4.7L71.8,106.5z M73.6,108.3
	l4.7-4.7l4.7,4.7l-4.7,4.7L73.6,108.3z M79.7,114.8l4.7-4.7l4.7,4.9h-9.4L79.7,114.8z M102.9,149.9l-3.2,3.2l-3.2-3.2l3.2-3.2
	l0.2,0.2l0.1-0.1L102.9,149.9z M99.8,141.1L79.9,118h39.8L99.8,141.1z M122.4,115h-5.8l0-0.2l4.7-4.9l2.6,2.7
	C123.3,113.4,122.8,114,122.4,115z M125,110.6l-2.3-2.3l4.7-4.7l1.3,1.3C127.4,106.9,126.1,108.9,125,110.6z M129.9,103.2l-1-1
	l4.7-4.7l0,0C132.4,99.4,131.1,101.3,129.9,103.2z M137.9,90.2l-4.3,4.3l-4.7-4.7l4.7-4.7l4.6,4.6C138,89.9,138,90.1,137.9,90.2z
	 M139,87.4c0,0.2,0,0.3-0.1,0.5l-4.3-4.2l4.4-4.6V87.4z M139,76l-4.6-4.6l4.6-4.6V76z M139,63.8l-4.6-4.6l4.6-4.6V63.8z M139,51.5
	l-4.6-4.6l4.6-4.6V51.5z M139,39.2l-4.3-4.6l2.9-2.9c0.9,1.2,1.4,2.7,1.4,4.3V39.2z"/>
</svg>
