<?xml version="1.0" encoding="utf-8"?>
<!-- Generator: Adobe Illustrator 19.1.0, SVG Export Plug-In . SVG Version: 6.00 Build 0)  -->
<svg version="1.1" id="Layer_1" xmlns="http://www.w3.org/2000/svg" xmlns:xlink="http://www.w3.org/1999/xlink" x="0px" y="0px"
	 viewBox="0 0 200 200" style="enable-background:new 0 0 200 200;" xml:space="preserve">
<style type="text/css">
	.st0{fill:#0075A8;}
</style>
<path class="st0" d="M100,195.5c-52.7,0-95.5-42.8-95.5-95.5C4.5,47.3,47.3,4.5,100,4.5c52.7,0,95.5,42.8,95.5,95.5
	C195.5,152.7,152.7,195.5,100,195.5z M100,9.5C50.1,9.5,9.5,50.1,9.5,100c0,49.9,40.6,90.5,90.5,90.5c49.9,0,90.5-40.6,90.5-90.5
	C190.5,50.1,149.9,9.5,100,9.5z"/>
<g>
	<path class="st0" d="M749,1151.6v-1.6h-90v11h-4.9c-1,0-1.7,0.6-1.7,1.5s0.8,1.5,1.7,1.5h4.9v7h-4.9c-1,0-1.7,0.6-1.7,1.5
		s0.8,1.5,1.7,1.5h4.9v8h-4.9c-1,0-1.7,0.6-1.7,1.5s0.8,1.5,1.7,1.5h4.9v7h-4.9c-1,0-1.7,0.6-1.7,1.5s0.8,1.5,1.7,1.5h4.9v7h-4.9
		c-1,0-1.7,0.6-1.7,1.5s0.8,1.5,1.7,1.5h4.9v7h-4.9c-1,0-1.7,0.6-1.7,1.5s0.8,1.5,1.7,1.5h4.9v7h-4.9c-1,0-1.7,0.6-1.7,1.5
		s0.8,1.5,1.7,1.5h4.9v7h-4.9c-1,0-1.7,0.6-1.7,1.5s0.8,1.5,1.7,1.5h4.9v7h-4.9c-1,0-1.7,0.6-1.7,1.5s0.8,1.5,1.7,1.5h4.9v7h-4.9
		c-1,0-1.7,0.6-1.7,1.5s0.8,1.5,1.7,1.5h4.9v12h0.1l6.4,7H756v-116.6L749,1151.6z M665.8,1252H662v-7h3.8c1,0,1.7-0.6,1.7-1.5
		s-0.8-1.5-1.7-1.5H662v-7h3.8c1,0,1.7-0.6,1.7-1.5s-0.8-1.5-1.7-1.5H662v-7h3.8c1,0,1.7-0.6,1.7-1.5s-0.8-1.5-1.7-1.5H662v-7h3.8
		c1,0,1.7-0.6,1.7-1.5s-0.8-1.5-1.7-1.5H662v-7h3.8c1,0,1.7-0.6,1.7-1.5s-0.8-1.5-1.7-1.5H662v-7h3.8c1,0,1.7-0.6,1.7-1.5
		s-0.8-1.5-1.7-1.5H662v-7h3.8c1,0,1.7-0.6,1.7-1.5s-0.8-1.5-1.7-1.5H662v-8h3.8c1,0,1.7-0.6,1.7-1.5s-0.8-1.5-1.7-1.5H662v-7h3.8
		c1,0,1.7-0.6,1.7-1.5s-0.8-1.5-1.7-1.5H662v-8h84v111h-84v-9h3.8c1,0,1.7-0.6,1.7-1.5S666.8,1252,665.8,1252z M753,1271h-86l-3.2-4
		H749v-110.8l4,2.8V1271z"/>
	<path class="st0" d="M677.5,1177.8c2.9,0,5.3-2.4,5.3-5.3c0-2.9-2.4-5.3-5.3-5.3c-2.9,0-5.3,2.4-5.3,5.3
		C672.2,1175.4,674.6,1177.8,677.5,1177.8z M677.5,1170.5c1,0,1.9,0.8,1.9,1.9c0,1-0.8,1.9-1.9,1.9c-1,0-1.9-0.8-1.9-1.9
		C675.6,1171.4,676.5,1170.5,677.5,1170.5z"/>
	<path class="st0" d="M677.5,1248.6c2.9,0,5.3-2.4,5.3-5.3c0-2.9-2.4-5.3-5.3-5.3c-2.9,0-5.3,2.4-5.3,5.3
		C672.2,1246.2,674.6,1248.6,677.5,1248.6z M677.5,1241.4c1,0,1.9,0.8,1.9,1.9c0,1-0.8,1.9-1.9,1.9c-1,0-1.9-0.8-1.9-1.9
		C675.6,1242.2,676.5,1241.4,677.5,1241.4z"/>
	<path class="st0" d="M677.5,1213.2c2.9,0,5.3-2.4,5.3-5.3c0-2.9-2.4-5.3-5.3-5.3c-2.9,0-5.3,2.4-5.3,5.3
		C672.2,1210.8,674.6,1213.2,677.5,1213.2z M677.5,1206c1,0,1.9,0.8,1.9,1.9c0,1-0.8,1.9-1.9,1.9c-1,0-1.9-0.8-1.9-1.9
		C675.6,1206.8,676.5,1206,677.5,1206z"/>
</g>
<g>
	<path class="st0" d="M80.2,131.4c-24,0-43.5-19.5-43.5-43.5c0-12.5,5.5-24.6,15.2-33l2.4-2.1l0.3,33.7l25.8,15l25.8-15l0.3-33.7
		l2.4,2.1c9.5,8.4,14.9,20.4,14.9,32.9C123.7,111.9,104.2,131.4,80.2,131.4z M51.4,59.3c-7.5,7.7-11.8,18-11.8,28.6
		c0,22.4,18.2,40.6,40.6,40.6s40.6-18.2,40.6-40.6c0-10.4-4.3-20.8-11.6-28.5L109,88.2l-28.7,16.7L51.7,88.2L51.4,59.3z"/>
	<polyline class="st0" points="101.3,190.4 101.3,123.7 104.2,123.7 104.2,193.4 	"/>
	<polyline class="st0" points="57.3,184.4 57.3,123.7 60.2,123.7 60.2,181.4 	"/>
	<polyline class="st0" points="151,175.4 151,85.5 153.9,85.5 153.9,178.4 	"/>
	<polyline class="st0" points="136.9,185.4 136.9,85.5 139.9,85.5 139.9,182.4 	"/>
	<path class="st0" d="M80,96.4L58,83.7V58.3l22-12.7l22,12.7v25.4L80,96.4z M61,82l19,11l19-11V60L80,49L61,60V82z"/>
	<path class="st0" d="M154.5,87h-18.1l-8.9-10.3l4-40.1h28l4,40.1L154.5,87z M137.7,84.1h15.5l7.2-8.3l-3.6-36.2h-22.7l-3.6,36.2
		L137.7,84.1z"/>
</g>
</svg>
