<?xml version="1.0" encoding="utf-8"?>
<!-- Generator: Adobe Illustrator 19.1.0, SVG Export Plug-In . SVG Version: 6.00 Build 0)  -->
<svg version="1.1" id="Layer_1" xmlns="http://www.w3.org/2000/svg" xmlns:xlink="http://www.w3.org/1999/xlink" x="0px" y="0px"
	 viewBox="0 0 200 200" style="enable-background:new 0 0 200 200;" xml:space="preserve">
<style type="text/css">
	.st0{fill:#0075A8;}
</style>
<path class="st0" d="M100,195.5c-52.7,0-95.5-42.8-95.5-95.5C4.5,47.3,47.3,4.5,100,4.5c52.7,0,95.5,42.8,95.5,95.5
	C195.5,152.7,152.7,195.5,100,195.5z M100,9.5C50.1,9.5,9.5,50.1,9.5,100c0,49.9,40.6,90.5,90.5,90.5c49.9,0,90.5-40.6,90.5-90.5
	C190.5,50.1,149.9,9.5,100,9.5z"/>
<g>
	<path class="st0" d="M749,1151.6v-1.6h-90v11h-4.9c-1,0-1.7,0.6-1.7,1.5s0.8,1.5,1.7,1.5h4.9v7h-4.9c-1,0-1.7,0.6-1.7,1.5
		s0.8,1.5,1.7,1.5h4.9v8h-4.9c-1,0-1.7,0.6-1.7,1.5s0.8,1.5,1.7,1.5h4.9v7h-4.9c-1,0-1.7,0.6-1.7,1.5s0.8,1.5,1.7,1.5h4.9v7h-4.9
		c-1,0-1.7,0.6-1.7,1.5s0.8,1.5,1.7,1.5h4.9v7h-4.9c-1,0-1.7,0.6-1.7,1.5s0.8,1.5,1.7,1.5h4.9v7h-4.9c-1,0-1.7,0.6-1.7,1.5
		s0.8,1.5,1.7,1.5h4.9v7h-4.9c-1,0-1.7,0.6-1.7,1.5s0.8,1.5,1.7,1.5h4.9v7h-4.9c-1,0-1.7,0.6-1.7,1.5s0.8,1.5,1.7,1.5h4.9v7h-4.9
		c-1,0-1.7,0.6-1.7,1.5s0.8,1.5,1.7,1.5h4.9v12h0.1l6.4,7H756v-116.6L749,1151.6z M665.8,1252H662v-7h3.8c1,0,1.7-0.6,1.7-1.5
		s-0.8-1.5-1.7-1.5H662v-7h3.8c1,0,1.7-0.6,1.7-1.5s-0.8-1.5-1.7-1.5H662v-7h3.8c1,0,1.7-0.6,1.7-1.5s-0.8-1.5-1.7-1.5H662v-7h3.8
		c1,0,1.7-0.6,1.7-1.5s-0.8-1.5-1.7-1.5H662v-7h3.8c1,0,1.7-0.6,1.7-1.5s-0.8-1.5-1.7-1.5H662v-7h3.8c1,0,1.7-0.6,1.7-1.5
		s-0.8-1.5-1.7-1.5H662v-7h3.8c1,0,1.7-0.6,1.7-1.5s-0.8-1.5-1.7-1.5H662v-8h3.8c1,0,1.7-0.6,1.7-1.5s-0.8-1.5-1.7-1.5H662v-7h3.8
		c1,0,1.7-0.6,1.7-1.5s-0.8-1.5-1.7-1.5H662v-8h84v111h-84v-9h3.8c1,0,1.7-0.6,1.7-1.5S666.8,1252,665.8,1252z M753,1271h-86l-3.2-4
		H749v-110.8l4,2.8V1271z"/>
	<path class="st0" d="M677.5,1177.8c2.9,0,5.3-2.4,5.3-5.3c0-2.9-2.4-5.3-5.3-5.3c-2.9,0-5.3,2.4-5.3,5.3
		C672.2,1175.4,674.6,1177.8,677.5,1177.8z M677.5,1170.5c1,0,1.9,0.8,1.9,1.9c0,1-0.8,1.9-1.9,1.9c-1,0-1.9-0.8-1.9-1.9
		C675.6,1171.4,676.5,1170.5,677.5,1170.5z"/>
	<path class="st0" d="M677.5,1248.6c2.9,0,5.3-2.4,5.3-5.3c0-2.9-2.4-5.3-5.3-5.3c-2.9,0-5.3,2.4-5.3,5.3
		C672.2,1246.2,674.6,1248.6,677.5,1248.6z M677.5,1241.4c1,0,1.9,0.8,1.9,1.9c0,1-0.8,1.9-1.9,1.9c-1,0-1.9-0.8-1.9-1.9
		C675.6,1242.2,676.5,1241.4,677.5,1241.4z"/>
	<path class="st0" d="M677.5,1213.2c2.9,0,5.3-2.4,5.3-5.3c0-2.9-2.4-5.3-5.3-5.3c-2.9,0-5.3,2.4-5.3,5.3
		C672.2,1210.8,674.6,1213.2,677.5,1213.2z M677.5,1206c1,0,1.9,0.8,1.9,1.9c0,1-0.8,1.9-1.9,1.9c-1,0-1.9-0.8-1.9-1.9
		C675.6,1206.8,676.5,1206,677.5,1206z"/>
</g>
<g>
	<path class="st0" d="M145,38L145,38H55v11h-5.1c-0.9,0-1.7,0.6-1.7,1.5S49,52,49.9,52H55v7h-5.1c-0.9,0-1.7,0.6-1.7,1.5
		S49,62,49.9,62H55v8h-5.1c-0.9,0-1.7,0.6-1.7,1.5S49,73,49.9,73H55v7h-5.1c-0.9,0-1.7,0.6-1.7,1.5S49,83,49.9,83H55v7h-5.1
		c-0.9,0-1.7,0.6-1.7,1.5S49,93,49.9,93H55v7h-5.1c-0.9,0-1.7,0.6-1.7,1.5s0.8,1.5,1.7,1.5H55v7h-5.1c-0.9,0-1.7,0.6-1.7,1.5
		s0.8,1.5,1.7,1.5H55v7h-5.1c-0.9,0-1.7,0.6-1.7,1.5s0.8,1.5,1.7,1.5H55v7h-5.1c-0.9,0-1.7,0.6-1.7,1.5s0.8,1.5,1.7,1.5H55v7h-5.1
		c-0.9,0-1.7,0.6-1.7,1.5s0.8,1.5,1.7,1.5H55v12h-0.1l6.4,7H152V45.4L145,38z M61.6,140H58v-7h3.6c0.9,0,1.7-0.6,1.7-1.5
		s-0.8-1.5-1.7-1.5H58v-7h3.6c0.9,0,1.7-0.6,1.7-1.5s-0.8-1.5-1.7-1.5H58v-7h3.6c0.9,0,1.7-0.6,1.7-1.5s-0.8-1.5-1.7-1.5H58v-7h3.6
		c0.9,0,1.7-0.6,1.7-1.5s-0.8-1.5-1.7-1.5H58v-7h3.6c0.9,0,1.7-0.6,1.7-1.5S62.6,90,61.6,90H58v-7h3.6c0.9,0,1.7-0.6,1.7-1.5
		S62.6,80,61.6,80H58v-7h3.6c0.9,0,1.7-0.6,1.7-1.5S62.6,70,61.6,70H58v-8h3.6c0.9,0,1.7-0.6,1.7-1.5S62.6,59,61.6,59H58v-7h3.6
		c0.9,0,1.7-0.6,1.7-1.5S62.6,49,61.6,49H58v-8h84v111H58v-9h3.6c0.9,0,1.7-0.6,1.7-1.5S62.6,140,61.6,140z M149,159H62.8l-3.2-4
		H145V42.6l4,4.4V159z"/>
	<path class="st0" d="M73.3,65.8c2.9,0,5.3-2.4,5.3-5.3c0-2.9-2.4-5.3-5.3-5.3c-2.9,0-5.3,2.4-5.3,5.3C68,63.4,70.4,65.8,73.3,65.8z
		 M73.3,58.5c1,0,1.9,0.8,1.9,1.9c0,1-0.8,1.9-1.9,1.9c-1,0-1.9-0.8-1.9-1.9C71.4,59.4,72.3,58.5,73.3,58.5z"/>
	<path class="st0" d="M73.3,136.6c2.9,0,5.3-2.4,5.3-5.3c0-2.9-2.4-5.3-5.3-5.3c-2.9,0-5.3,2.4-5.3,5.3
		C68,134.2,70.4,136.6,73.3,136.6z M73.3,129.4c1,0,1.9,0.8,1.9,1.9c0,1-0.8,1.9-1.9,1.9c-1,0-1.9-0.8-1.9-1.9
		C71.4,130.2,72.3,129.4,73.3,129.4z"/>
	<path class="st0" d="M73.3,101.2c2.9,0,5.3-2.4,5.3-5.3c0-2.9-2.4-5.3-5.3-5.3c-2.9,0-5.3,2.4-5.3,5.3
		C68,98.8,70.4,101.2,73.3,101.2z M73.3,94c1,0,1.9,0.8,1.9,1.9c0,1-0.8,1.9-1.9,1.9c-1,0-1.9-0.8-1.9-1.9
		C71.4,94.8,72.3,94,73.3,94z"/>
</g>
</svg>
