<svg id="Layer_1" data-name="Layer 1" xmlns="http://www.w3.org/2000/svg" viewBox="0 0 152 166.54"><defs><style>.cls-1{fill:none;stroke:#29abe2;stroke-linecap:round;stroke-linejoin:round;stroke-width:2px;}.cls-2{fill:#29abe2;}.cls-3{isolation:isolate;}</style></defs><title>help</title><path class="cls-1" d="M141.48,110.63c-2.9-1.67-5.43-1.3-6.77.63a6.69,6.69,0,0,1,3.9,1,17.08,17.08,0,0,1,7.75,13.42,6.65,6.65,0,0,1-1,3.82c2.32-.21,3.89-2.19,3.9-5.49A17.08,17.08,0,0,0,141.48,110.63Z"/><path class="cls-1" d="M138.61,112.29c-2.9-1.67-5.43-1.3-6.77.63a6.69,6.69,0,0,1,3.9,1,17.08,17.08,0,0,1,7.75,13.42,6.65,6.65,0,0,1-1,3.82c2.32-.21,3.89-2.19,3.9-5.49A17.08,17.08,0,0,0,138.61,112.29Z"/><path class="cls-1" d="M135.74,114c-2.9-1.67-5.43-1.3-6.77.63a6.69,6.69,0,0,1,3.9,1A17.08,17.08,0,0,1,140.62,129a6.65,6.65,0,0,1-1,3.82c2.32-.21,3.89-2.19,3.9-5.49A17.08,17.08,0,0,0,135.74,114Z"/><path class="cls-1" d="M132.87,115.63c-2.9-1.67-5.43-1.3-6.77.63a6.69,6.69,0,0,1,3.9,1,17.08,17.08,0,0,1,7.75,13.42,6.65,6.65,0,0,1-1,3.82c2.32-.21,3.89-2.19,3.9-5.49A17.08,17.08,0,0,0,132.87,115.63Z"/><path class="cls-2" d="M38,106.56a13.37,13.37,0,0,0,.51,1.81l3.15-1.83Z"/><polygon class="cls-1" points="33.26 111.18 33.22 125.08 27.85 113.61 27.89 99.71 33.26 111.18"/><polygon class="cls-1" points="67.51 105.86 67.47 119.76 53.03 128.15 53.07 114.25 67.51 105.86"/><polygon class="cls-1" points="53.07 114.25 53.03 128.15 33.22 125.08 33.26 111.18 53.07 114.25"/><line class="cls-1" x1="5.35" y1="51.38" x2="44.86" y2="51.38"/><line class="cls-1" x1="135.63" y1="51.38" x2="146.72" y2="51.38"/><path class="cls-1" d="M82,151.35q-3,.24-6,0.24a75,75,0,1,1,66.73-40.73"/><polyline class="cls-1" points="65.44 83.09 64.34 80.56 64.38 66.65 70.3 80.26"/><polygon class="cls-1" points="64.38 66.65 64.34 80.56 40.83 77.17 40.86 63.26 64.38 66.65"/><polygon class="cls-1" points="40.86 63.26 40.83 77.17 18.21 90.31 18.25 76.4 40.86 63.26"/><path class="cls-1" d="M138.73,35.44c-9.72,5.7-22,12.91-31.89,18.67C92.23,62.6,92.31,69,91.9,73.08c-0.24,5.3-4.15,10.54-11.09,14.58C71.7,93,60,94.93,47,93.47v13.81c13,1.46,24.7-.69,33.81-6,6.95-4,10.65-9.28,10.89-14.58,0.4-4.1.43-10.48,15-19l37.64-21.9A74.54,74.54,0,0,0,138.73,35.44Z"/><path class="cls-1" d="M124.81,19.62L86.29,42a60.1,60.1,0,0,1-30.88,8.58c-9.8-.12-19.66,2-27.12,6.31-9.11,5.3-12.6,12.58-10,19.51L40.86,63.26l23.52,3.39L70.3,80.26,47.69,93.4c12,1.46,24.36-.68,33.47-6,6.95-4,10.52-9.28,10.76-14.58,0.4-4.1.32-10.47,14.93-19l31.83-18.5A75.37,75.37,0,0,0,124.81,19.62Z"/><path class="cls-1" d="M135.63,31.06L112,44.81a12.09,12.09,0,0,1-11,0c-3-1.75-3-4.59,0-6.34L128.19,22.7l-0.3-.29L100.57,38.24c-3.23,1.88-3.21,4.93,0,6.81a13,13,0,0,0,11.75,0l23.51-13.67Z"/><path class="cls-1" d="M128.59,23.08L101,38.47c-3,1.75-3,4.59,0,6.34a12.09,12.09,0,0,0,11,0l23.66-13.75A75.41,75.41,0,0,0,128.59,23.08Z"/><path class="cls-1" d="M128.17,22.68L101,38.47l-0.09.06-0.2.13-0.28.18-0.22.17-0.24.19,0,0-0.08.09a4.46,4.46,0,0,0-.33.35l-0.07.08-0.05.08-0.18.27-0.08.11,0,0.06c0,0.08-.08.16-0.11,0.24l-0.07.14v0c0,0.08-.44.16-0.46,0.23s-0.44.1-.44,0.15v0c0,0.16.34,0.25,0.34,0.42l0.35,1H99s0,0,0,0,0.07-.08.1-0.14,0.12-.16.18-0.25L99.49,42a4.42,4.42,0,0,1,.33-0.35l0.13-.12,0.24-.19,0.22-.17,0.28-.18,0.29-.19,28.67-16.65C129.16,23.65,128.67,23.16,128.17,22.68Z"/><path class="cls-1" d="M124.81,19.62L86.29,42a60.1,60.1,0,0,1-30.88,8.58c-9.8-.12-19.66,2-27.12,6.31-9.11,5.3-12.6,12.58-10,19.51L40.86,63.26l23.52,3.39L70.3,80.26,47.69,93.4c12,1.46,24.36-.68,33.47-6,6.95-4,10.52-9.28,10.76-14.58,0.4-4.1.32-10.47,14.93-19l31.83-18.5A75.37,75.37,0,0,0,124.81,19.62Z"/><path class="cls-1" d="M138.73,35.44c-9.72,5.7-22,12.91-31.89,18.67C92.23,62.6,92.31,69,91.9,73.08c-0.24,5.3-4.15,10.54-11.09,14.58C71.7,93,60,94.93,47,93.47v13.81c13,1.46,24.7-.69,33.81-6,6.95-4,10.65-9.28,10.89-14.58,0.4-4.1.43-10.48,15-19l37.64-21.9A74.54,74.54,0,0,0,138.73,35.44Z"/><path class="cls-1" d="M54.25,107.72C50,109.58,44,109.4,40.08,107.16c-4.23-2.44-4.48-6.41-.27-8.85A16.69,16.69,0,0,1,47,96.48v-3a74.54,74.54,0,0,0,11.69.37L42.22,91.27,27.84,99.66l5.39,11.47,19.82,3.07,12.76-7.41A59.45,59.45,0,0,1,54.25,107.72Z"/><path class="cls-1" d="M115.66,125.62c-2.9-1.67-5.43-1.3-6.77.63a6.69,6.69,0,0,1,3.9,1,17.08,17.08,0,0,1,7.75,13.42,6.65,6.65,0,0,1-1,3.82c2.32-.21,3.89-2.19,3.9-5.49A17.08,17.08,0,0,0,115.66,125.62Z"/><g class="cls-3"><polygon class="cls-1" points="105.99 155.34 117.58 148.61 110.75 158.21 99.16 164.95 105.99 155.34"/><polygon class="cls-1" points="99.23 137.89 105.99 155.34 99.16 164.95 85.56 157.09 78.8 139.64 85.63 130.04 99.23 137.89"/><polygon class="cls-1" points="99.23 137.89 110.83 131.15 117.58 148.61 105.99 155.34 99.23 137.89"/><polygon class="cls-1" points="85.63 130.04 97.23 123.3 110.83 131.15 99.23 137.89 85.63 130.04"/></g><path class="cls-1" d="M130,117.29c-2.9-1.67-5.43-1.3-6.77.63a6.69,6.69,0,0,1,3.9,1,17.08,17.08,0,0,1,7.75,13.42,6.65,6.65,0,0,1-1,3.82c2.32-.21,3.89-2.19,3.9-5.49A17.08,17.08,0,0,0,130,117.29Z"/><path class="cls-1" d="M127.13,119c-2.9-1.67-5.43-1.3-6.77.63a6.69,6.69,0,0,1,3.9,1A17.08,17.08,0,0,1,132,134.09a6.65,6.65,0,0,1-1,3.82c2.32-.21,3.89-2.19,3.9-5.49A17.08,17.08,0,0,0,127.13,119Z"/><path class="cls-1" d="M124.27,120.67c-2.9-1.67-5.43-1.3-6.77.63a6.69,6.69,0,0,1,3.9,1,17.08,17.08,0,0,1,7.75,13.42,6.65,6.65,0,0,1-1,3.82c2.32-.21,3.89-2.19,3.9-5.49A17.08,17.08,0,0,0,124.27,120.67Z"/><path class="cls-1" d="M121.4,122.33c-2.9-1.67-5.43-1.3-6.77.63a6.69,6.69,0,0,1,3.9,1,17.08,17.08,0,0,1,7.75,13.42,6.65,6.65,0,0,1-1,3.82c2.32-.21,3.89-2.19,3.9-5.49A17.08,17.08,0,0,0,121.4,122.33Z"/><path class="cls-1" d="M118.53,124c-2.9-1.67-5.43-1.3-6.77.63a6.69,6.69,0,0,1,3.9,1,17.08,17.08,0,0,1,7.75,13.42,6.65,6.65,0,0,1-1,3.82c2.32-.21,3.89-2.19,3.9-5.49A17.08,17.08,0,0,0,118.53,124Z"/><path class="cls-1" d="M115.66,125.67c-2.9-1.67-5.43-1.3-6.77.63a6.69,6.69,0,0,1,3.9,1,17.08,17.08,0,0,1,7.75,13.42,6.65,6.65,0,0,1-1,3.82c2.32-.21,3.89-2.19,3.9-5.49A17.08,17.08,0,0,0,115.66,125.67Z"/><path class="cls-1" d="M112.76,127.35c-2.9-1.67-5.43-1.3-6.77.63a6.69,6.69,0,0,1,3.9,1,17.08,17.08,0,0,1,7.75,13.42,6.65,6.65,0,0,1-1,3.82c2.32-.21,3.89-2.19,3.9-5.49A17.08,17.08,0,0,0,112.76,127.35Z"/><path class="cls-1" d="M116.5,146.3a6.56,6.56,0,0,0,1.08-3.9A17.08,17.08,0,0,0,109.84,129a6.74,6.74,0,0,0-3.85-1"/></svg>