<svg id="Layer_1" data-name="Layer 1" xmlns="http://www.w3.org/2000/svg" viewBox="0 0 152 166.54"><defs><style>.cls-1{isolation:isolate;}.cls-2,.cls-3,.cls-4,.cls-6{fill:none;stroke:#29abe2;stroke-linecap:round;stroke-linejoin:round;}.cls-2{stroke-width:2px;}.cls-3{stroke-width:1.5px;}.cls-5{fill:#29abe2;}.cls-6{stroke-width:0.5px;}</style></defs><title>help</title><g class="cls-1"><polygon class="cls-2" points="136.81 118.25 60.97 162.32 1 127.7 76.85 83.62 136.81 118.25"/><polygon class="cls-2" points="136.81 118.25 136.81 120.77 60.97 165.53 60.97 162.32 136.81 118.25"/><polygon class="cls-2" points="60.97 162.32 60.97 165.53 1 130.22 1 127.7 60.97 162.32"/></g><path class="cls-2" d="M99.49,41.35l48.33-27.9A2.88,2.88,0,0,0,149,10.83a9,9,0,0,0-4.09-7.08,2.89,2.89,0,0,0-2.9-.29L93.39,31.75"/><path class="cls-2" d="M91.89,34.53c0-2.6,1.85-3.66,4.11-2.35a9,9,0,0,1,4.09,7.08c0,2.6-1.85,3.65-4.11,2.34"/><path class="cls-3" d="M87.64,46.42L97,40.92a2,2,0,0,0,.76-1.76A6.14,6.14,0,0,0,95,34.33a2,2,0,0,0-2-.2l-10.51,6"/><path class="cls-2" d="M79.29,38.06c11.54,6.66,11.6,17.5.14,24.16s-30.18,6.66-41.72,0-11.6-17.5-.14-24.16S67.75,31.4,79.29,38.06ZM40.15,60.81c10.18,5.88,26.7,5.88,36.82,0S87,45.36,76.84,39.48s-26.7-5.88-36.82,0S30,54.93,40.15,60.81m43.51-6.14a15.87,15.87,0,0,0-6.82-6.86c-10.18-5.88-26.7-5.88-36.82,0a16,16,0,0,0-6.54,6.44"/><path class="cls-2" d="M88,50.49v8.23c0.14,4.46-2.71,8.94-8.55,12.34-11.47,6.66-30.18,6.66-41.72,0C31.93,67.73,29,63.35,29,59V50.06"/><g class="cls-1"><path class="cls-4" d="M32.36,49.23a18.16,18.16,0,0,1,6.39-5.81c10.81-6.28,28.39-6.28,39.26,0a18.22,18.22,0,0,1,6.61,6.05"/></g><g class="cls-1"><path class="cls-4" d="M32.36,50.62a18.16,18.16,0,0,1,6.39-5.81c10.81-6.28,28.39-6.28,39.26,0a18.22,18.22,0,0,1,6.61,6.05"/></g><polygon class="cls-5" points="64.95 127.88 64.38 129.12 62.68 129.31 62.58 129.03 63.97 128.87 64.47 127.81 64.95 127.88"/><polygon class="cls-5" points="66.31 128.78 65.73 130.02 64.03 130.21 63.93 129.93 65.33 129.77 65.81 128.7 66.31 128.78"/><path class="cls-6" d="M61.35,128c0.69,0.4,2.19,1.63,1.26,2.17s-3.06-.32-3.75-0.72a0.76,0.76,0,0,1,0-1.45A2.75,2.75,0,0,1,61.35,128Z"/><polygon class="cls-5" points="60.88 130.13 60.55 131.12 58.4 131.45 58.27 131.17 60.11 130.88 60.39 130.07 60.88 130.13"/><polygon class="cls-5" points="68.83 131.58 68.47 131.78 66.78 130.82 65.36 130.98 65.26 130.7 66.94 130.51 68.83 131.58"/><path class="cls-6" d="M62.44,131.16a0.59,0.59,0,0,1,.17-1,2.19,2.19,0,0,1,2,0c0.56,0.32,1.75,1.3,1,1.73a2.11,2.11,0,0,1-1.46,0l-0.22-.06a6.61,6.61,0,0,1-1.31-.54l-0.06,0Z"/><polygon class="cls-5" points="62.82 131.02 62.79 131.09 62.48 132.01 60.34 132.34 60.21 132.06 62.05 131.77 62.33 130.96 62.67 131 62.82 131.02"/><path class="cls-6" d="M67.59,131.87a0.61,0.61,0,0,1,0,1.15,2.19,2.19,0,0,1-2,0,0.61,0.61,0,0,1,0-1.15A2.19,2.19,0,0,1,67.59,131.87Z"/><polygon class="cls-5" points="64 131.71 63.99 131.74 63.73 132.53 65.39 133.51 65.04 133.72 63.19 132.63 63.51 131.65 63.77 131.68 64 131.71"/><line class="cls-2" x1="5.13" y1="51.38" x2="29.01" y2="51.38"/><line class="cls-2" x1="35.7" y1="51.38" x2="81.42" y2="51.38"/><line class="cls-2" x1="88.15" y1="51.38" x2="146.12" y2="51.38"/><path class="cls-2" d="M129.5,24A75,75,0,0,1,84.58,151.1"/><path class="cls-2" d="M14.66,119.76A75,75,0,0,1,120.32,16.08"/></svg>