<?xml version="1.0" encoding="utf-8"?>
<!-- Generator: Adobe Illustrator 18.1.1, SVG Export Plug-In . SVG Version: 6.00 Build 0)  -->
<svg version="1.1" id="Layer_1" xmlns="http://www.w3.org/2000/svg" xmlns:xlink="http://www.w3.org/1999/xlink" x="0px" y="0px"
	 viewBox="0 0 53 58" enable-background="new 0 0 53 58" xml:space="preserve">
<path fill="#393D48" d="M26.5,57.9c-1.5,0-2.9-0.4-4.2-1.1L4.2,46.5C1.6,45.1,0,42.3,0,39.2V18.6c0-3,1.6-5.9,4.3-7.3l18-10.2
	C23.5,0.3,25,0,26.5,0s2.9,0.4,4.2,1.1l18.1,10.3c2.6,1.4,4.2,4.2,4.2,7.3v20.6c0,3-1.6,5.9-4.3,7.3l-18,10.2
	C29.4,57.5,28,57.9,26.5,57.9z"/>
<path fill="#FFFFFF" d="M12.2,29c0-4.1,1.5-7.5,4.3-10.3s6.3-4.3,10.3-4.3c4.1,0,7.5,1.4,10.3,4.3C40,21.6,41.4,25,41.4,29
	c0,4.1-1.5,7.5-4.3,10.3c-2.9,2.9-6.3,4.3-10.3,4.3s-7.5-1.4-10.3-4.3C13.6,36.5,12.2,33.1,12.2,29L12.2,29z M14.1,29.5
	c0.2,3.4,1.4,6.2,3.8,8.6c1.1-0.7,2.2-1.4,3.4-1.8c-0.9-2.1-1.4-4.3-1.5-6.7L14.1,29.5L14.1,29.5z M14.1,28.5h5.6
	c0.1-2.1,0.5-4.1,1.1-5.9c-1.3-0.5-2.4-1.2-3.5-2.1C15.3,22.8,14.2,25.5,14.1,28.5L14.1,28.5z M18,19.8c1,0.8,2.1,1.5,3.3,1.9
	c0.9-2.1,2.1-3.8,3.5-5.3C22.2,16.9,19.9,17.9,18,19.8L18,19.8z M18.5,38.7c1.8,1.5,3.8,2.5,6.2,2.9c-1.3-1.3-2.4-2.8-3.2-4.5
	C20.5,37.5,19.5,38.1,18.5,38.7L18.5,38.7z M20.7,29.5c0.1,2.3,0.5,4.3,1.4,6.4c1.4-0.5,2.8-0.7,4.4-0.7v-5.7H20.7z M20.7,28.5h5.7
	v-4.7c-1.5-0.1-3.1-0.4-4.6-0.9C21.1,24.7,20.8,26.6,20.7,28.5L20.7,28.5z M22.1,22c1.4,0.5,2.8,0.7,4.3,0.8v-6.6h-0.1
	C24.5,17.8,23.1,19.7,22.1,22z M22.4,36.7c1,2,2.3,3.7,3.8,5h0.1V36C25,36.2,23.7,36.4,22.4,36.7L22.4,36.7z M27.3,41.8L27.3,41.8
	c1.6-1.4,2.9-3,3.9-5c-1.2-0.4-2.5-0.5-3.9-0.6L27.3,41.8L27.3,41.8z M27.3,35.2c1.5,0.1,2.9,0.4,4.4,0.7c0.8-2.1,1.3-4.2,1.4-6.4
	h-5.7C27.3,29.5,27.3,35.2,27.3,35.2z M27.3,28.5H33c-0.1-2-0.5-3.8-1.1-5.6c-1.5,0.5-3,0.8-4.6,0.9V28.5L27.3,28.5z M27.3,22.8
	c1.5-0.1,2.9-0.4,4.3-0.8c-1-2.4-2.4-4.3-4.2-5.8h-0.1C27.3,16.2,27.3,22.8,27.3,22.8z M28.9,41.6c2.4-0.4,4.4-1.4,6.2-2.9
	c-0.9-0.6-2-1.2-3-1.6C31.2,38.8,30.2,40.3,28.9,41.6L28.9,41.6z M28.9,16.4c1.5,1.5,2.7,3.3,3.5,5.3c1.2-0.5,2.3-1.1,3.3-1.9
	C33.8,17.9,31.5,16.9,28.9,16.4z M32.5,36.2c1.2,0.5,2.3,1.1,3.4,1.8c2.4-2.4,3.6-5.3,3.8-8.6h-5.7C33.8,31.8,33.4,34.1,32.5,36.2
	L32.5,36.2z M32.8,22.7c0.6,1.8,1.1,3.8,1.1,5.9h5.7c-0.1-3-1.2-5.7-3.3-8C35.2,21.4,34,22.1,32.8,22.7L32.8,22.7z"/>
</svg>
