<?xml version="1.0" encoding="utf-8"?>
<!-- Generator: Adobe Illustrator 18.1.1, SVG Export Plug-In . SVG Version: 6.00 Build 0)  -->
<svg version="1.1" id="Layer_1" xmlns="http://www.w3.org/2000/svg" xmlns:xlink="http://www.w3.org/1999/xlink" x="0px" y="0px"
	 viewBox="161.1 0 701.8 768" enable-background="new 161.1 0 701.8 768" xml:space="preserve">
<path fill="#393D48" d="M512,766.7c-19.9,0-38.4-5.3-55.6-14.6L216.7,615.7c-34.4-18.5-55.6-55.6-55.6-96.7V246.3
	c0-39.7,21.2-78.1,56.9-96.7L456.4,14.6C472.3,4,492.1,0,512,0c19.9,0,38.4,5.3,55.6,14.6L807.3,151c34.4,18.5,55.6,55.6,55.6,96.7
	v272.8c0,39.7-21.2,78.1-56.9,96.7L567.6,752.1C550.4,761.4,531.9,766.7,512,766.7z"/>
<path fill="#020101" d="M428,130.9c27.8-4.2,55.8-7,83.8-8.9c25.6,0.3,51.3,2,76.8,3.5c26.9,2,53.8,3.3,80.5,6.7
	c1,59.5-1,119.1,0.5,178.7c11.7-3.6,24.2-6.3,33.7-14.3c5.3-4.2,9-10,13.4-15c-9.7-1.2-19.3-5.7-24.6-14.3c-9.5-15-11-34.6-6.5-51.5
	c16.9,2.7,33.5,13.1,40,29.5c5.9-17,22.5-26.9,39.1-31.3c6.8,10.3,5.9,23.8,2.3,35.1c-4.9,12.2-13.7,22.5-24.6,29.6
	c2.7,29.7,8.9,59.1,8.6,89.1c-0.5,21.6-6.7,43.4-19.5,61.1c-1.6,2.9-5.1,5.3-4.3,9c1.1,7.2,1,14.7-2,21.5c15-10.9,35.6-7.4,51,0.7
	c-3.5,14-14.2,25.7-27.6,30.7c-8.3,2.9-17,5.3-25.8,4.2c-2.9,2.8-5.8,5.7-8.1,9c-16,24.2-31.1,49.3-51.1,70.4
	c-7.9,8.5-16.1,16.8-24.5,24.9C601.5,632,549.7,648.9,500,642c-24.8-3.5-49.9-12.7-67.7-31c-4.8-4.5-8.3-10.1-12.8-14.9
	c-25.7,3.1-52.3,0.9-76.5-8.5c-21.3-8-39.4-23.6-50.9-43.1c-9.5-16.1-16-34.1-18.6-52.6c-2.6-17.5,1.2-39.5,18-49
	c-17.9-14.1-28.9-35.1-35.8-56.4c-5.1-16.7-8.5-35.3-2.3-52.3c2.5-5.9,5.6-12.2,11.1-15.8c12.4-8.6,27.2-12.2,41.5-16.4
	c13.2-3.9,26.7-6.3,40.1-9c-1.1-18.4-1-36.8-1.3-55.2c0-4-0.4-8,1-11.8c26.7-5.7,53.6-10.6,80.8-14.2
	C426.8,184.9,426.3,157.9,428,130.9z"/>
<path fill="#88DDFF" d="M443.4,131.1c21.8-1.9,43.5-4.8,65.3-5.7c9.6,2.7,19.9,2.3,29.6,0.1c29.8,0.6,59.6,3.6,89.3,5.5
	c9.6,1.6,19.6,0.5,29.1,2.9c-22.9,3-45.8,6.7-68.5,10.8c-49.5-4.5-99.2-6.7-148.7-11.8C440.6,131.8,441.9,131.2,443.4,131.1z"/>
<path fill="#9CFDFF" d="M508.8,125.4c9.8-1.5,19.8-1.2,29.6,0.1C528.7,127.7,518.4,128.1,508.8,125.4z"/>
<path fill="#4CCBFF" d="M430.3,133.7c24.9,2.9,49.8,6,74.8,7.4c26.1,2.4,52.4,2.9,78.4,6.5c0,29.8-1.5,59.7-2,89.5
	c-12.2-2.7-24.7-3.8-37.1-5.7c-37.9-5.2-75.6-11.1-113.3-17.3c-0.4-2.3-0.9-4.6-0.8-6.9C430.5,182.7,430.6,158.2,430.3,133.7z"/>
<path fill="#00A1E3" d="M586.9,148.6c26.1-4,52.4-7.4,78.3-12.8c-0.2,29.3-0.3,58.7,0.1,88c-26.9,4.3-53.7,9.1-80.5,13.7
	C585.9,207.9,585.4,178.2,586.9,148.6z"/>
<path fill="#184C96" d="M645.4,143.8c5-1.4,10.1-2.4,15.3-3.1c0.4,26.3-0.8,52.6-0.2,78.9c-5.4,0.9-10.9,1.5-16.3,1.9
	C644.7,195.6,644.4,169.7,645.4,143.8z"/>
<path fill="#194994" d="M627,146.7c4.7-1.1,9.6-1.9,14.4-2.4c0.4,3.3,0.7,6.7,0.6,10.1c-0.5,22.6-0.6,45.2-0.9,67.8
	c-5.1,1.1-10.3,2-15.5,2.7C626.3,198.8,625.4,172.7,627,146.7z"/>
<path fill="#0091CE" d="M648.3,145.8c3.1-0.7,6.1-1.4,9.3-2c-0.6,24.5-0.9,49.1-0.7,73.7c-3.1,0.5-6.2,1.1-9.3,1.6
	C647.9,194.6,648.6,170.2,648.3,145.8z"/>
<path fill="#1A4590" d="M608.9,149.5c4.9-1.2,9.9-1.9,15-1.8c-0.1,25.6-0.8,51.2-0.9,76.9c-4.4,2.7-10.4,2-15.4,3.2
	C607.8,201.7,608.3,175.6,608.9,149.5z"/>
<path fill="#0092CF" d="M629.5,148.9c3.2-0.8,6.5-1.3,9.8-1.6c-1.3,24.5-1.3,49-1.3,73.5c-3.1,0.3-6.2,0.5-9.3,0.8
	C629.5,197.4,629.6,173.2,629.5,148.9z"/>
<path fill="#184D97" d="M591.8,152.4c4.6-1.7,9.5-1.8,14.4-2.3c-0.5,26-0.8,51.9-0.8,77.9c-5.2,1.5-10.5,2.4-15.8,3.4
	c0.2-23.9,0-47.9,0.9-71.8C591,157.2,589.9,154,591.8,152.4z"/>
<path fill="#0094D1" d="M611.8,152.1c2.6-1.9,6.2-1.2,9.2-1.9c-0.2,24.1-1.6,48.3-0.4,72.4c-3.2,1.1-6.5,1.8-9.8,2.4
	C611.5,200.7,610.8,176.4,611.8,152.1z"/>
<path fill="#0091CE" d="M593.7,154.6c3-0.6,6.1-1.3,9.1-1.9c-0.2,24.5-0.9,49-0.5,73.5c-3.1,1.2-6.3,2-9.5,2.4
	C593.5,204,593.7,179.3,593.7,154.6z"/>
<path fill="#88DDFF" d="M358,226.6c23.2-4.2,46.6-8.5,70.1-11c37.9,7,75.9,13,114.1,18.1c11.6,1.8,23.4,2.9,34.9,5.2
	c-25.2,5.2-50.4,10.5-75.6,15.9c-33.7-5.5-66.8-14.2-100.4-19.8c-13-2.6-26.1-4.2-39.1-6.5C360.9,228.1,359,227.1,358,226.6z"/>
<path fill="#73ABFF" d="M733.9,236.3c7.3-9.8,18.6-16,30.1-19.5c2.6,10.9,2.3,22.8-2.9,33c-4.3,9.5-11.6,17.1-19,24.3
	c-2.8,10.6-0.3,21.8,1.1,32.5c4.1,31,7.3,63.5-3.5,93.6c-12,32.5-39.2,57.1-69.4,72.6c-16.1,1.9-33.4,1-47.7-7.5
	c-10-5.9-16-16.6-18.5-27.7c-3.4-14.2-3.5-29.1-1-43.4c0.1-0.6,0.3-1.8,0.4-2.4c-24.9,14.4-52.5,25-81.4,26.7
	c-16.6,1.3-33.5-1.7-48.3-9.4c-5.9-18.3-6.6-39.9,5.4-56c5.7,1.2,11.5,2.5,17.2,3.7c31.3-6.8,62.4-14.9,93.8-21.2
	c26.4-5.4,52.7-11.2,79.1-17c0.2-1,0.7-3,0.9-3.9c13.6-3.6,28.2-7.8,37.9-18.7c4.2-4.9,9-10,9.9-16.7c-7.2-2.4-14.6-5.2-19.5-11.3
	c-11.3-13.4-13.8-31.8-12.6-48.8c10,0.6,19,6.2,26.5,12.6c6.6,5.9,12.1,13.5,13.9,22.3C728.2,247.9,729.9,241.5,733.9,236.3z"/>
<path fill="#4CCBFF" d="M354.5,226c0.9,0.2,2.6,0.5,3.5,0.6c1,0.5,2.9,1.5,3.9,1.9c-1.1-0.1-3.3-0.3-4.4-0.4
	c0.1,0.9,0.3,2.8,0.4,3.7c3.7-1.9,8.1,0.4,12,0.6c42,6.2,83.2,16.2,124.9,23.9c-1.3,0.1-3.9,0.4-5.1,0.6c1.5,0.9,2.9,1.8,4.4,2.7
	c0.9,23.5,0.2,47,0.4,70.5c-0.3,7,1.3,14.8-2.8,21.1c-38.8-7.9-77.1-17.6-115.6-26.7c-8.8-2.4-18.5-2.9-26.8-6.2
	c0.3-29.7-0.3-59.5-0.1-89.2c3.1,1.2,6.3,1.1,8.5-1.7L354.5,226z"/>
<path fill="#0099D7" d="M584.8,241.7c26.9-4.8,53.7-10,80.7-13.7c-0.1,28.7,0.5,57.4,1.3,86.2c-27.3,5.9-54.7,11.7-81.9,18.1
	C585,302.1,584.8,271.9,584.8,241.7z"/>
<path fill="#1A4791" d="M645.2,236.7c4.9-1.1,9.8-2,14.8-2.1c-0.1,25.7-0.8,51.4,0.1,77.1c-5.2,1.4-10.5,2.5-15.8,3.4
	C644.7,289,644,262.8,645.2,236.7z"/>
<path fill="#0093D0" d="M648.8,238.6c2.6-0.8,5.4-1.2,8.1-1.7c0.2,24.4-0.2,48.7,0.1,73.1c-3.1,0.8-6.3,1.2-9.5,1.4
	c0.5-22.2-0.2-44.4,0-66.6C647.6,242.8,646.6,240,648.8,238.6z"/>
<path fill="#184B95" d="M626.3,240c4.8-1.1,9.7-2.2,14.8-2c0.4,25.9,0.1,51.8,0,77.7c-5,1.2-10.1,2.3-15.2,3.2
	C626,292.6,625.7,266.3,626.3,240z"/>
<path fill="#0091CE" d="M629.4,241.8c2.9-0.5,5.8-0.9,8.7-1.4c0.1,24.4-0.2,48.8,0.1,73.2c-3,0.7-6,1.2-9,1.7
	C629.3,290.9,628.3,266.3,629.4,241.8z"/>
<path fill="#174D97" d="M608.9,243.2c4.7-1.1,9.4-1.9,14.2-2.5c-0.3,26.2,0.2,52.5-0.5,78.7c-4.8,1.1-9.6,2.2-14.4,3.1
	c-0.9-8.8-0.2-17.7-0.5-26.6C607.9,278.4,607.2,260.7,608.9,243.2z"/>
<path fill="#009ED9" d="M500.9,258c26.8-5.8,53.8-10.7,80.8-15.7c0.1,30,0.5,60.1,1.3,90.2c-27.6,7.1-55.5,13.1-83,20.3
	C500.9,321.2,500,289.6,500.9,258z"/>
<path fill="#184C96" d="M590.5,246.9c4.7-1.2,9.4-2.2,14.1-3.1c0.5,2.1,0.8,4.2,0.9,6.3c-0.3,22.1-0.5,44.3-0.2,66.4
	c0.1,2-0.1,4-0.5,6c-4.5,2.6-10,2.6-15.1,3.5C590.1,299.6,589.5,273.2,590.5,246.9z"/>
<path fill="#0091CE" d="M611,245.2c3.1-0.4,6.2-0.9,9.4-1.3c-0.8,24.7,0,49.4-0.7,74.1c-3,0.2-5.9,0.5-8.8,0.8
	C611.4,294.2,610.3,269.7,611,245.2z"/>
<path fill="#0091CE" d="M593.5,248.5c2.9-0.5,5.8-1,8.8-1.5c-0.1,24.7-0.1,49.4-0.1,74.1c-2.9,0.6-5.8,1.3-8.7,1.9
	C593.3,298.2,592.3,273.3,593.5,248.5z"/>
<path fill="#1F3785" d="M560.7,252.8c4.8-1.5,9.7-2.5,14.8-3.2c0.2,26.4-0.6,52.8,0.4,79.2c-5,1.8-10.3,3.1-15.5,4.2
	C560.6,306.3,560.2,279.6,560.7,252.8z"/>
<path fill="#1F3785" d="M543.2,255.9c4.4-1.4,9-2,13.6-2.8c0.3,26.9,0,53.9,0.2,80.8c-5,1.2-10,2.3-14.9,3.4
	c-0.1-24.6-0.2-49.2,0-73.7C542.2,261.1,541.7,258.2,543.2,255.9z"/>
<path fill="#0097D3" d="M563,254.6c3.3-1.1,6.6-1.7,10.1-2c-0.7,25.1-0.6,50.2-0.2,75.3c-3.2,0.8-6.4,1.5-9.6,2.3
	C563.4,304.9,563.4,279.7,563,254.6z"/>
<path fill="#54DFF5" d="M489.7,257c1.3-0.1,3.9-0.4,5.1-0.6c0.7,0.2,2.2,0.5,2.9,0.7c-1.4,31.8-0.5,63.7-0.3,95.5
	c-1.9-0.5-3.8-1-5.6-1.4c4.2-6.3,2.5-14,2.8-21.1c-0.2-23.5,0.5-47-0.4-70.5C492.6,258.7,491.1,257.8,489.7,257z"/>
<path fill="#184B95" d="M523.9,260c4.9-1.6,10-2.7,15.1-3.2c0.1,27.2,0.2,54.5,0,81.7c-5,1.3-10,2.5-15,3.5
	C523.5,314.6,523.7,287.3,523.9,260z"/>
<path fill="#0097D3" d="M544.5,258.1c3.2-1,6.6-1.6,10-2c-0.5,25.2-0.6,50.5,0,75.8c-3.1,1-6.3,1.9-9.4,2.9
	C544.7,309.3,544.8,283.7,544.5,258.1z"/>
<path fill="#0092CE" d="M527,261.6c3-0.7,6-1.3,9.1-1.9c-0.4,25.7-0.3,51.4-0.1,77.1c-3,0.7-5.9,1.4-8.8,2.1
	C527.3,313.1,526.8,287.4,527,261.6z"/>
<path fill="#1E3986" d="M506.3,263.7c4.8-1.2,9.7-2.2,14.6-2.9c0,27.2,0.1,54.5,0,81.7c-5,1.3-9.9,2.5-14.9,3.8
	C506.1,318.8,505.5,291.2,506.3,263.7z"/>
<path fill="#0093CF" d="M508.6,265.3c3.3-0.7,6.6-1.4,9.8-2c-0.1,25.8-0.8,51.6,0.3,77.4c-3.2,1.5-6.6,2.6-10.1,2.3
	C509.4,317.1,508.3,291.2,508.6,265.3z"/>
<path fill="#73ABFF" d="M288.7,310.4c18.7-6.1,37.8-11,57.3-13.7c0.2,7.7-0.1,15.5,0.5,23.2c0,2.1,2.5,2.5,3.8,3.8
	c5,3.6,9.3,8.2,13.5,12.6c-13.9,9.7-16.9,28.4-16,44.3c-29,9.4-62.3,13.8-90.4-0.8c-4.6-14.6-6.5-30.7-0.7-45.2
	c2.7-5.9,5.8-12.3,11.7-15.7C274.7,315.1,281.8,312.9,288.7,310.4z"/>
<path fill="#4283D8" d="M350.3,323.7c9.2,0.4,17.9,3.7,26.9,5.5c-4.5,2.4-9,4.6-13.4,7.1C359.5,331.8,355.3,327.3,350.3,323.7z"/>
<path fill="#73ABFF" d="M369.1,336.2c4.7-1.9,9.3-4.8,14.4-5.3c15.4,3.9,30.9,7.5,46.3,11.7c14.9,7.8,26.5,20.3,37,33.1
	c-0.2,5-0.3,10.1,0.2,15.2c-24.4,11.2-51.1,18.8-78.2,17.2c-11.6-0.6-22.8-4.3-33.4-9c-4-12.3-6.4-25.5-3.2-38.2
	C354.6,351.1,359.3,340.5,369.1,336.2z"/>
<path fill="#407ECE" d="M429.7,342.5c15.5,2.8,30.7,7.5,46.3,9.7c-4.9,7-7.7,15.1-9.3,23.4C456.2,362.8,444.6,350.4,429.7,342.5z"/>
<path d="M611.6,381.2c4.6-11.6,15.4-20.9,28.1-21.5c15.1-0.3,28,15.5,24.1,30.2c-5.1,18.2-30.8,26.3-45.4,14
	c-6.8-5.2-9.1-14.5-7-22.6l0.2,1c1.8,6.6,1.8,14.7,7.8,19.2c13,10.1,34.1,4.7,40.9-10.2c4.8-10.9-2.2-24.3-13-28.2
	c-4.6-1.8-9.7-1.3-14.5-1.4c5.1,2.5,11.6,4.9,13.1,11.1c3.3,13-12,25.2-24.2,21.1c-4.2-1.4-5.8-5.6-7.3-9.3
	C613.2,383.8,612.2,382.6,611.6,381.2z"/>
<path fill="#FFFFFF" d="M632.9,361.8c4.8,0,9.9-0.5,14.5,1.4c10.9,3.9,17.8,17.3,13,28.2c-6.8,14.9-27.9,20.3-40.9,10.2
	c-6-4.5-6-12.6-7.8-19.2c0-0.3-0.1-0.9-0.1-1.2c0.6,1.4,1.6,2.6,3,3.5c1.5,3.7,3.1,8,7.3,9.3c12.2,4.2,27.5-8.1,24.2-21.1
	C644.5,366.7,638.1,364.3,632.9,361.8z"/>
<path fill="#D0E2FE" d="M258,382.4c27.8,14.9,61.8,11.4,90.3,0.4c4,28.1,16.1,55.4,36.1,75.7c-9.6,3.3-19.8,1.6-29.6,1
	c1,2.5,4,2.2,6.2,2.2c8.9-0.3,17.8-0.5,26.6-0.8l0.6,0c0.1,0.5,0.2,1.6,0.3,2.2c-10.7,0-21.4,0.1-32.1-0.3
	c-21.2-3.8-42.9-9.4-60.2-22.8C277.2,425.8,265.5,404.4,258,382.4z"/>
<path fill="#D0E2FE" d="M424.5,408.3c14.7-3.4,29.1-8.1,42.6-14.7c4.8,32.3,20.2,64,46.6,84.1c-25.4,5.3-52.1,6.6-77.4,0.3
	c-21.1-4.9-41.4-15.1-55.9-31.6c-11.5-12.9-19.1-28.8-24.6-45C376.7,412.9,401.7,413.1,424.5,408.3z"/>
<path fill="#D0E2FE" d="M544,418.4c20.8-5,41.5-12.2,59.2-24.4c-2.5,14.3-2.4,29.3,1,43.4c2.5,11,8.6,21.8,18.5,27.7
	c14.2,8.5,31.6,9.4,47.7,7.5c-25.9,14.3-55.8,20.9-85.2,19.8c-26.7-1.4-54.1-8.4-75.2-25.5c-17.4-14-28.3-34.5-35.3-55.3
	C495.6,423.3,521,423.4,544,418.4z"/>
<path fill="#73ABFF" d="M691.8,468.2c12.3-8.2,22.7-18.6,32.6-29.5c0.9,9.1,0.8,19-4.3,27c5-3,9.7-6.7,15.3-8.3
	c12.6-4,26.3-1.2,38.2,3.7c-9.1,20.5-32.3,30.2-53.7,29.5c-10.6,9.1-16.5,22.1-25,32.9c-20.3,29.2-42.3,57.9-71.1,79.2
	c-10.4,7-21,14.6-32.9,18.6c-0.4-0.1-1.2-0.3-1.6-0.4c-3.5-0.8-7-1.1-10.5-1.4c-15.5-3.3-32.7-8.8-40.8-23.6
	c-9.2-17.2-9.8-38.1-5.3-56.7c0.5-0.9,1.4-2.6,1.9-3.5c-7.4,3.3-14.2,7.8-21.6,11.1c-25.9,11.5-54.7,18.7-83.2,14.8
	c-8.8-1.5-17.2-4.5-25.3-8.3c-5.7-16.9-6.9-36.7,2.8-52.4c4.3-8.6,14.1-11.7,22.5-15c5.6-2.8,11.5,0.6,17.2,1.3
	c24.4,3.8,49.7,2.2,73.4-4.7c4.6,0.8,8.2,4.1,12.5,5.7c37.4,15.4,80.5,14.6,118.2,0.7c0.2-0.8,0.4-2.4,0.6-3.2
	c0.1,0.8,0.4,2.4,0.5,3.2c3.2-1.5,6.4-2.9,9.6-4.3c12.1,2.9,26.3,2.2,36.5-5.4C695.8,475.6,693.7,471.9,691.8,468.2z"/>
<path fill="#73ABFF" d="M282.4,455.9c2.3-4.8,6.3-8.3,10.7-11.2c18.8,15.4,43,22.4,66.8,24.8c12.1,0.3,24.4,1.1,36.4-1
	c10.6,5.8,21.2,11.7,33,14.5c-5.9,2.2-12,4.4-16.8,8.7c-1.6-0.5-3.1-0.9-4.6-1.3c-28.7,17.2-62.3,28-95.9,25.8
	c-11.1-0.8-21.7-4.4-31.7-9C274.9,490.6,273.3,471.4,282.4,455.9z"/>
<path fill="#FFFFFF" d="M354.8,459.5c9.8,0.5,20,2.3,29.6-1c0.8,0.6,2.4,1.8,3.2,2.4c-8.9,0.3-17.8,0.5-26.6,0.8
	C358.8,461.6,355.9,461.9,354.8,459.5z"/>
<path fill="#FFFFFF" d="M667.1,481.9c7.5-3.1,14.4-7.4,21.2-11.6c2.3,3.5,4.9,6.8,7.4,10.1C686.4,481.7,676.3,485.3,667.1,481.9z"/>
<path fill="#D0E2FE" d="M405.8,493.4c0.9,0.7,1.9,1.3,2.8,2c-8.8,7.2-10.9,20-11.5,30.9c0.3,22.4,7.9,44.3,19,63.5
	c-31.6,2.6-65-1.8-92.1-19.2c-21.5-13.8-35.2-36.8-43-60.7c20.4,10.6,44.4,11.7,66.6,7c18.1-3.9,35.8-10,52.1-18.8
	C402,497,404,495.3,405.8,493.4z"/>
<path d="M543.8,523.4c4.7-15.4,25.8-25.2,39.8-15.6c9.2,5.9,14.4,18.4,10,28.8c-6.9,16.3-30.4,22.9-44.3,11.5
	c-7.5-5.5-9.5-16-6.4-24.4c1.3,6.9,0.1,15.2,5.8,20.6c12.8,12.2,36.6,6.3,42.9-10c4-11.2-3.6-24.2-14.7-27.4
	c-4.2-1.6-8.9-1.2-13.3-1.1c5.4,2.7,12.2,5.3,13.3,12.1c2.3,12.5-12.2,23.9-23.9,20.4C546.6,536.3,545.2,529,543.8,523.4z"/>
<path fill="#FFFFFF" d="M563.5,505.8c4.4-0.1,9-0.5,13.3,1.1c11.1,3.2,18.6,16.2,14.7,27.4c-6.3,16.3-30.1,22.3-42.9,10
	c-5.7-5.3-4.5-13.7-5.8-20.6c0.2-0.1,0.7-0.3,1-0.4c1.4,5.6,2.8,12.9,9.2,14.9c11.7,3.5,26.2-7.9,23.9-20.4
	C575.7,511.1,568.9,508.4,563.5,505.8z"/>
<path fill="#D0E2FE" d="M487.5,559.3c15.7-5.2,31.1-11.4,45.2-20.2c-4.5,18.6-3.9,39.6,5.3,56.7c8.1,14.8,25.3,20.4,40.8,23.6
	c-0.4,0.3-1.1,1-1.5,1.3c1.8,0.8,3.5,1.6,5.3,2.4c-5.7,2-11.5,3.6-17.5,4.8c0.8,0.5,2.4,1.5,3.2,2c-10.1,3.2-20.8,5.1-31.3,5.8
	c-9.1-2.9-19.2-3-28.3-0.1c-22.3-1.2-44.9-8.2-63.4-21.1c-20-14-32.4-36.1-40-58.8c13.1,7,27.8,9.8,42.5,9.9
	c14.1,3.3,28.3-1.3,41.9-4.8C489.1,560.6,488.1,559.7,487.5,559.3z"/>
<path fill="#FFFFFF" d="M447.8,565.8c13.5-0.4,26.8-2.8,39.8-6.5c0.5,0.4,1.6,1.3,2.1,1.7C476,564.5,461.9,569.1,447.8,565.8z"/>
<path fill="#FFFFFF" d="M577.2,620.8c0.4-0.3,1.2-1,1.5-1.3c3.5,0.3,7,0.6,10.5,1.4c0.4,0.1,1.2,0.3,1.6,0.4l0.9,0.3
	c-7.6,3.4-15.6,6-23.5,8.5c-0.8-0.5-2.4-1.5-3.2-2c5.9-1.2,11.8-2.8,17.5-4.8C580.7,622.4,578.9,621.6,577.2,620.8z"/>
<path fill="#EDFEFF" d="M508.6,635.7c9.1-2.9,19.2-2.8,28.3,0.1C527.5,636.6,518,637,508.6,635.7z"/>
</svg>
