<?xml version="1.0" encoding="utf-8"?>
<!-- Generator: Adobe Illustrator 18.1.1, SVG Export Plug-In . SVG Version: 6.00 Build 0)  -->
<svg version="1.1" id="Layer_1" xmlns="http://www.w3.org/2000/svg" xmlns:xlink="http://www.w3.org/1999/xlink" x="0px" y="0px"
	 viewBox="0 0 53 58" enable-background="new 0 0 53 58" xml:space="preserve">
<path fill="#393D48" d="M26.5,57.9c-1.5,0-2.9-0.4-4.2-1.1L4.2,46.5C1.6,45.1,0,42.3,0,39.2V18.6c0-3,1.6-5.9,4.3-7.3l18-10.2
	C23.5,0.3,25,0,26.5,0s2.9,0.4,4.2,1.1l18.1,10.3c2.6,1.4,4.2,4.2,4.2,7.3v20.6c0,3-1.6,5.9-4.3,7.3l-18,10.2
	C29.4,57.5,28,57.9,26.5,57.9z"/>
</svg>
