<?xml version="1.0" encoding="utf-8"?>
<!-- Generator: Adobe Illustrator 23.0.4, SVG Export Plug-In . SVG Version: 6.00 Build 0)  -->
<svg version="1.1" id="Layer_1" xmlns="http://www.w3.org/2000/svg" xmlns:xlink="http://www.w3.org/1999/xlink" x="0px" y="0px"
	 viewBox="0 0 3094.4 1563.9" style="enable-background:new 0 0 3094.4 1563.9;" xml:space="preserve">
<style type="text/css">
	.st0{fill:#F2F5F5;}
	.st1{fill:#E9EDEE;}
	.st2{fill:#FFFFFF;}
	.st3{fill:#BFE1E4;}
	.st4{fill:#0075A8;}
	.st5{fill:#BFC5C9;}
	.st6{fill:#F05354;}
	.st7{fill:#E14B31;}
	.st8{fill:#D0D4D7;}
	.st9{fill:#F2C40F;}
	.st10{fill:#8DC63F;}
	.st11{fill:#26AA5E;}
	.st12{fill:#90C641;}
	.st13{fill:#83B43B;}
	.st14{fill:#1176A9;}
	.st15{fill:#0F6A98;}
	.st16{fill:#EEBB17;}
	.st17{fill:#D7A814;}
	.st18{fill:#8BC53F;}
	.st19{fill:#6CA839;}
	.st20{fill:#5C9532;}
	.st21{fill:#313131;}
	.st22{fill:#DAE03B;}
	.st23{fill:#BAD545;}
	.st24{fill:#AAC43F;}
	.st25{fill:#8B959D;}
	.st26{fill:#3D3D3D;}
	.st27{fill:#E5F3F4;}
	.st28{fill:#DFEBF5;}
	.st29{fill:none;}
	.st30{fill:#34485D;}
	.st31{fill:#A1BA3B;}
	.st32{fill:#BAD546;}
</style>
<path class="st0" d="M3094.4,0H0v1563.9h3094.4V0"/>
<path class="st1" d="M3044.2,1040L3044.2,1040c-5.5-48.6-46.8-86.5-97-86.5s-91.4,37.8-97,86.5h-37.4V933.4H2688V964h-24.9v-30.6
	h-74.8v-94.1h-12.7v-19.7h-190.9v19.7H2372v170.3h-48.6l-5.8,14.7h-12.4l5.8-14.7h-50.9l-17.1,43v-23.2h-12.9v-44.6l-25.5-21.3
	h-20.8v-33.1c0-3.6-3-6.6-6.6-6.6h-44c-3.6,0-6.6,3-6.6,6.6v33.1h-20.8l-15.4,12.9c-2-6.4-6.5-11.8-12.4-14.9v-42.7l-0.2-0.2
	l-87.9-74.1l-87.9,74.1l-0.2,0.2v43c-7.6,4.4-12.8,12.6-12.8,22h12.8v0.1h-20.3v82l-22.4-7.1V1039h-55.3v2.3l-1.3-0.4v12.7h-26.1
	V1039H1639v-0.2h46.2l17.6-44.6h12.4l-17.6,44.6h50.9l17.6-44.6h7.8v44.6h2.3v-44.6v-2V992h-9.3l5.8-14.7h-50.9L1716,992h-12.4
	l5.8-14.7h-50.9l-19.7,49.9V951H1610v-54h-37.9v-49.1c0-7.7-6.3-14-14-14H1546V788c0-1.2-0.9-2.1-2-2.1h-4.7c-1.1,0-2,1-2,2.1v45.9
	h-12.1c-7.7,0-14,6.3-14,14V897h-37.9v54h-28.7v98c-9.2-4.5-19.3-7.1-30.1-7.1H1396v-44.6v-2.1V995h-9.3l5.8-14.7h-24.9v-63.1h-19.2
	v-14h-10.2l13.5-34h7.2v40.4h2v-40.4v-1.9v-0.2h-8.3l5.2-13.3h-46l-5.3,13.3h-11.2l5.3-13.3h-46.1l-5.2,13.3h-10.4l5.3-13.3h-46.1
	l-19.6,49.4h-47.8v14h-19.3v54c-19.1-9-42.7-14.5-68.1-14.5c-22.7,0-43.9,4.3-61.8,11.7V813.3H918c-3.5-30.6-29.5-54.3-60.9-54.3
	s-57.4,23.7-60.9,54.3h-63.6v58.6l-157.7-50.1v178.5c-8.1-38.3-42-67-82.7-67c-43.5,0-79.2,32.8-83.9,74.9h-43.5v31.9H260.2v-42.5
	c0-31.4-25.5-56.8-56.8-56.8c-31.4,0-56.8,25.5-56.8,56.8v42.5H-3.2v16.4h8.9v122.9v380.1h3088.7v-458.4v-14.9V1040H3044.2z
	 M1305.7,869.2l-13.6,34h-11.2l13.6-34H1305.7z M1238.1,869.2h10.3l-13.5,34h-10.4L1238.1,869.2z M1368,1042l17.6-44.6h7.8v44.6
	H1368z M2081.5,984.2h-3.2v-0.1h3.4L2081.5,984.2z M2299,1071.1h-12.4l17.6-44.6h12.4L2299,1071.1z M2372.1,1071.1h-22.3l17.6-44.6
	h4.6L2372.1,1071.1L2372.1,1071.1z M2372.1,1024.2h-3.6l3.6-9.3V1024.2z"/>
<g>
	<polygon class="st1" points="2508,917.5 2517.4,917.5 2503.9,951.5 2542.5,951.5 2556,917.5 2562,917.5 2562,951.5 2563.7,951.5 
		2563.7,917.5 2563.7,915.9 2563.7,915.7 2556.7,915.7 2561.1,904.7 2522.5,904.7 2518.1,915.7 2508.7,915.7 2513.1,904.7 
		2474.5,904.7 2455.9,951.5 2494.6,951.5 	"/>
	<polygon class="st1" points="2733.3,1003.6 2739.4,1003.6 2739.4,1037.5 2741.1,1037.5 2741.1,1003.6 2741.1,1002 2741.1,1001.9 
		2734,1001.9 2738.5,990.7 2699.9,990.7 2681.3,1037.5 2719.9,1037.5 	"/>
	<g>
		<rect x="2066" y="1046.8" class="st2" width="159.6" height="356.2"/>
		<rect x="2157.2" y="1074.2" class="st3" width="45.6" height="27.4"/>
		<rect x="2088.8" y="1074.2" class="st3" width="45.6" height="27.4"/>
		<rect x="2157.2" y="1129" class="st3" width="45.6" height="27.4"/>
		<rect x="2088.8" y="1129" class="st3" width="45.6" height="27.4"/>
		<rect x="2157.2" y="1183.8" class="st3" width="45.6" height="27.4"/>
		<rect x="2088.8" y="1183.8" class="st3" width="45.6" height="27.4"/>
		<rect x="2157.2" y="1238.6" class="st3" width="45.6" height="27.4"/>
		<rect x="2088.8" y="1238.6" class="st3" width="45.6" height="27.4"/>
		<rect x="2088.9" y="1293.4" class="st4" width="114" height="27.4"/>
		<path class="st3" d="M2088.8,1403h114l0,0c0-30.3-20.4-54.8-45.6-54.8h-22.8C2109.2,1348.3,2088.8,1372.8,2088.8,1403L2088.8,1403
			z"/>
	</g>
	<g>
		<g>
			<rect x="2586.4" y="934.3" class="st2" width="232.9" height="468.8"/>
			<rect x="2613.7" y="1083.4" class="st3" width="178.1" height="27.4"/>
			<rect x="2613.7" y="1188.4" class="st3" width="178.1" height="27.4"/>
			<rect x="2613.8" y="1135.9" class="st3" width="178.1" height="27.4"/>
			<rect x="2613.7" y="978.4" class="st3" width="178.1" height="27.4"/>
			<rect x="2613.8" y="1031" class="st3" width="178.1" height="27.4"/>
			<rect x="2613.8" y="1240.9" class="st3" width="178.1" height="27.4"/>
			<rect x="2613.8" y="1293.4" class="st3" width="178.1" height="27.4"/>
			<rect x="2613.8" y="1348.2" class="st3" width="178.1" height="54.8"/>
		</g>
	</g>
	<g>
		<g>
			<g>
				<rect x="2774.3" y="1108.4" class="st5" width="191.8" height="294.6"/>
			</g>
		</g>
		<polygon class="st6" points="2774.3,1108.4 2966.1,1108.4 2942.2,1057 2798.3,1057 		"/>
		<rect x="2911.3" y="1149.5" class="st2" width="27.4" height="27.4"/>
		<rect x="2856.4" y="1149.5" class="st2" width="27.4" height="27.4"/>
		<rect x="2801.7" y="1149.5" class="st2" width="27.4" height="27.4"/>
		<rect x="2911.3" y="1197.4" class="st2" width="27.4" height="27.4"/>
		<rect x="2856.4" y="1197.4" class="st2" width="27.4" height="27.4"/>
		<rect x="2801.7" y="1197.4" class="st2" width="27.4" height="27.4"/>
		<rect x="2911.3" y="1245.4" class="st2" width="27.4" height="27.4"/>
		<rect x="2856.4" y="1245.4" class="st2" width="27.4" height="27.4"/>
		<rect x="2801.7" y="1245.4" class="st2" width="27.4" height="27.4"/>
		<rect x="2911.3" y="1293.4" class="st2" width="27.4" height="27.4"/>
		<rect x="2856.4" y="1293.4" class="st2" width="27.4" height="27.4"/>
		<rect x="2801.7" y="1293.4" class="st2" width="27.4" height="27.4"/>
		<rect x="2829.1" y="1348.2" class="st2" width="82.2" height="54.8"/>
		<rect x="2767.5" y="1108.4" class="st7" width="205.5" height="20.5"/>
	</g>
	<g>
		<polygon class="st8" points="2280.9,1019.5 2280.9,909.9 2472.7,909.9 2472.7,1019.5 2527.5,1019.5 2527.5,1403 2226.1,1403 
			2226.1,1019.5 		"/>
		<rect x="2363.1" y="1046.8" class="st2" width="27.4" height="27.4"/>
		<rect x="2363.1" y="1101.6" class="st2" width="27.4" height="27.4"/>
		<rect x="2363.1" y="1156.4" class="st2" width="27.4" height="27.4"/>
		<rect x="2363.1" y="1211.2" class="st2" width="27.4" height="27.4"/>
		<rect x="2472.7" y="1046.8" class="st2" width="27.4" height="27.4"/>
		<rect x="2472.7" y="1101.6" class="st2" width="27.4" height="27.4"/>
		<rect x="2472.7" y="1156.4" class="st2" width="27.4" height="27.4"/>
		<rect x="2472.7" y="1211.2" class="st2" width="27.4" height="27.4"/>
		<rect x="2417.8" y="1046.8" class="st2" width="27.4" height="27.4"/>
		<rect x="2417.8" y="1101.6" class="st2" width="27.4" height="27.4"/>
		<rect x="2417.8" y="1156.4" class="st2" width="27.4" height="27.4"/>
		<rect x="2417.8" y="1211.2" class="st2" width="27.4" height="27.4"/>
		<rect x="2253.4" y="1046.8" class="st2" width="27.4" height="27.4"/>
		<rect x="2253.4" y="1101.6" class="st2" width="27.4" height="27.4"/>
		<rect x="2253.4" y="1156.4" class="st2" width="27.4" height="27.4"/>
		<rect x="2253.4" y="1211.2" class="st2" width="27.4" height="27.4"/>
		<rect x="2308.2" y="1046.8" class="st2" width="27.4" height="27.4"/>
		<rect x="2308.2" y="1101.6" class="st2" width="27.4" height="27.4"/>
		<rect x="2308.2" y="1156.4" class="st2" width="27.4" height="27.4"/>
		<rect x="2308.2" y="1211.2" class="st2" width="27.4" height="27.4"/>
		<rect x="2363.1" y="1266" class="st2" width="27.4" height="27.4"/>
		<rect x="2472.7" y="1266" class="st2" width="27.4" height="27.4"/>
		<rect x="2417.8" y="1266" class="st2" width="27.4" height="27.4"/>
		<rect x="2253.4" y="1266" class="st2" width="27.4" height="27.4"/>
		<rect x="2308.2" y="1266" class="st2" width="27.4" height="27.4"/>
		<rect x="2445.3" y="1320.8" class="st2" width="54.8" height="82.2"/>
		<rect x="2417.8" y="937.3" class="st2" width="27.4" height="27.4"/>
		<rect x="2363.1" y="992.1" class="st2" width="27.4" height="27.4"/>
		<rect x="2363.1" y="937.3" class="st2" width="27.4" height="27.4"/>
		<rect x="2417.8" y="992.1" class="st2" width="27.4" height="27.4"/>
		<rect x="2308.2" y="937.3" class="st2" width="27.4" height="27.4"/>
		<rect x="2308.2" y="992.1" class="st2" width="27.4" height="27.4"/>
		<rect x="2253.5" y="1320.8" class="st2" width="54.8" height="82.2"/>
		<rect x="2337.5" y="1320.8" class="st2" width="80.4" height="82.2"/>
	</g>
	<g>
		<polyline class="st9" points="2075.7,1403 2075.7,1272.9 1904.4,1272.9 1904.4,1403 		"/>
		<rect x="1918.3" y="1314" class="st2" width="82.2" height="54.8"/>
		<rect x="1925.2" y="1320.8" class="st3" width="68.5" height="41.1"/>
		<g>
			<polygon class="st2" points="1932.7,1238.6 1955.6,1238.6 1949,1266.1 1921.5,1266.1 			"/>
			<polygon class="st2" points="1978.6,1238.6 2001.6,1238.6 2003.7,1266.1 1976.4,1266.1 			"/>
			<polygon class="st2" points="2047.4,1238.6 2058.6,1266.1 2031.2,1266.1 2024.5,1238.6 			"/>
			<polygon class="st6" points="1910.1,1238.6 1932.7,1238.6 1921.5,1266.1 1894.2,1266.1 			"/>
			<polygon class="st6" points="2070.1,1238.6 2085.9,1266.1 2058.6,1266.1 2047.4,1238.6 			"/>
			<polygon class="st6" points="1955.6,1238.6 1978.6,1238.6 1976.4,1266.1 1949,1266.1 			"/>
			<polygon class="st6" points="2024.5,1238.6 2031.2,1266.1 2003.7,1266.1 2001.6,1238.6 			"/>
		</g>
		<g>
			<path class="st2" d="M2044.8,1300.3L2044.8,1300.3c-7.5,0-13.7-6.1-13.7-13.7v-20.5h27.4v20.5
				C2058.6,1294.2,2052.5,1300.3,2044.8,1300.3z"/>
			<path class="st2" d="M1990.1,1300.3L1990.1,1300.3c-7.5,0-13.7-6.1-13.7-13.7v-20.5h27.4v20.5
				C2003.7,1294.2,1997.6,1300.3,1990.1,1300.3z"/>
			<path class="st2" d="M1921.5,1286.6v-20.5h27.4v20.5c0,7.5-6.1,13.7-13.7,13.7l0,0C1927.7,1300.3,1921.5,1294.2,1921.5,1286.6z"
				/>
			<path class="st7" d="M2072.3,1300.3L2072.3,1300.3c-7.5,0-13.7-6.1-13.7-13.7v-20.5h27.4v20.5
				C2085.9,1294.2,2079.8,1300.3,2072.3,1300.3z"/>
			<path class="st7" d="M1894.2,1286.6v-20.5h27.4v20.5c0,7.5-6.1,13.7-13.7,13.7l0,0C1900.3,1300.3,1894.2,1294.2,1894.2,1286.6z"
				/>
			<path class="st7" d="M2017.5,1300.3L2017.5,1300.3c-7.5,0-13.7-6.1-13.7-13.7v-20.5h27.4v20.5
				C2031.2,1294.2,2025,1300.3,2017.5,1300.3z"/>
			<path class="st7" d="M1949,1286.6v-20.5h27.4v20.5c0,7.5-6.1,13.7-13.7,13.7l0,0C1955.1,1300.3,1949,1294.2,1949,1286.6z"/>
		</g>
		<g>
			<rect x="2021.1" y="1314" class="st2" width="41.1" height="82.2"/>
			<rect x="2027.9" y="1320.8" class="st3" width="27.4" height="68.5"/>
		</g>
		<rect x="1895.9" y="1385.9" class="st6" width="188.4" height="17.1"/>
		<g>
			<rect x="2021.1" y="1385.9" class="st6" width="41.1" height="17.1"/>
		</g>
	</g>
	<g>
		<polyline class="st10" points="2362.4,1385.9 2362.4,1129 2615.8,1129 2615.8,1385.9 		"/>
		<polyline class="st11" points="2603,1146.1 2603,1218.1 2375.3,1218.1 2375.3,1146.1 2603,1146.1 		"/>
		<rect x="2352.1" y="1385.9" class="st11" width="274" height="17.1"/>
		<rect x="2455.2" y="1291.7" class="st2" width="28.1" height="30.9"/>
		<rect x="2415.2" y="1243.8" class="st2" width="28.1" height="30.9"/>
		<rect x="2375.3" y="1243.8" class="st2" width="28.1" height="30.9"/>
		<rect x="2415.2" y="1291.7" class="st2" width="28.1" height="30.9"/>
		<rect x="2495.1" y="1243.8" class="st2" width="28.1" height="30.9"/>
		<rect x="2455.2" y="1243.8" class="st2" width="28.1" height="30.9"/>
		<rect x="2495.1" y="1291.7" class="st2" width="28.1" height="30.9"/>
		<rect x="2375.3" y="1291.7" class="st2" width="28.1" height="30.9"/>
		<rect x="2495.1" y="1340.2" class="st2" width="28.1" height="30.9"/>
		<rect x="2455.2" y="1340.2" class="st2" width="28.1" height="30.9"/>
		<rect x="2375.3" y="1340.2" class="st2" width="28.1" height="30.9"/>
		<rect x="2415.2" y="1340.2" class="st2" width="28.1" height="30.9"/>
		<g>
			<rect x="2534.6" y="1243.8" class="st2" width="42.8" height="129.2"/>
		</g>
	</g>
	<g>
		<g>
			<rect x="2326.2" y="974.8" class="st12" width="100.6" height="44.6"/>
			<path class="st13" d="M2362.6,983.2v27.8h-5.6v-27.8H2362.6z M2368.2,983.2v27.8h5.6v-27.8H2368.2z M2334.6,983.2v27.8h5.6v-27.8
				H2334.6z M2345.9,983.2v27.8h5.6v-27.8H2345.9z M2412.9,983.2v27.8h5.6v-27.8H2412.9z M2401.7,983.2v27.8h5.6v-27.8H2401.7z
				 M2390.6,983.2v27.8h5.6v-27.8H2390.6z M2379.4,983.2v27.8h5.6v-27.8H2379.4z"/>
		</g>
		<g>
			<rect x="2225.7" y="930.2" class="st12" width="100.6" height="44.6"/>
			<path class="st13" d="M2262,938.6v27.8h-5.6v-27.8H2262z M2267.6,938.6v27.8h5.6v-27.8H2267.6z M2234.1,938.6v27.8h5.6v-27.8
				H2234.1z M2245.2,938.6v27.8h5.6v-27.8H2245.2z M2312.3,938.6v27.8h5.6v-27.8H2312.3z M2301.1,938.6v27.8h5.6v-27.8H2301.1z
				 M2289.9,938.6v27.8h5.6v-27.8H2289.9z M2278.8,938.6v27.8h5.6v-27.8H2278.8z"/>
		</g>
		<g>
			<rect x="2326.2" y="930.2" class="st14" width="100.6" height="44.6"/>
			<path class="st15" d="M2373.8,938.6v27.8h-5.6v-27.8H2373.8z M2357,938.6v27.8h5.6v-27.8H2357z M2345.9,938.6v27.8h5.6v-27.8
				H2345.9z M2334.6,938.6v27.8h5.6v-27.8H2334.6z M2412.9,938.6v27.8h5.6v-27.8H2412.9z M2379.4,938.6v27.8h5.6v-27.8H2379.4z
				 M2401.7,938.6v27.8h5.6v-27.8H2401.7z M2390.6,938.6v27.8h5.6v-27.8H2390.6z"/>
		</g>
		<g>
			<rect x="2426.9" y="974.8" class="st14" width="100.6" height="44.6"/>
			<path class="st15" d="M2474.4,983.2v27.8h-5.6v-27.8H2474.4z M2457.7,983.2v27.8h5.6v-27.8H2457.7z M2446.4,983.2v27.8h5.6v-27.8
				H2446.4z M2435.3,983.2v27.8h5.6v-27.8H2435.3z M2513.5,983.2v27.8h5.6v-27.8H2513.5z M2480,983.2v27.8h5.6v-27.8H2480z
				 M2502.4,983.2v27.8h5.6v-27.8H2502.4z M2491.2,983.2v27.8h5.6v-27.8H2491.2z"/>
		</g>
		<g>
			<rect x="2426.9" y="930.2" class="st16" width="100.6" height="44.6"/>
			<path class="st17" d="M2474.4,938.6v27.8h-5.6v-27.8H2474.4z M2457.7,938.6v27.8h5.6v-27.8H2457.7z M2435.3,938.6v27.8h5.6v-27.8
				H2435.3z M2446.4,938.6v27.8h5.6v-27.8H2446.4z M2480,938.6v27.8h5.6v-27.8H2480z M2513.5,938.6v27.8h5.6v-27.8H2513.5z
				 M2502.4,938.6v27.8h5.6v-27.8H2502.4z M2491.2,938.6v27.8h5.6v-27.8H2491.2z"/>
		</g>
		<g>
			<rect x="2225.7" y="974.8" class="st16" width="100.6" height="44.6"/>
			<path class="st17" d="M2273.1,983.2v27.8h-5.6v-27.8H2273.1z M2256.4,983.2v27.8h5.6v-27.8H2256.4z M2234.1,983.2v27.8h5.6v-27.8
				H2234.1z M2245.2,983.2v27.8h5.6v-27.8H2245.2z M2278.8,983.2v27.8h5.6v-27.8H2278.8z M2312.3,983.2v27.8h5.6v-27.8H2312.3z
				 M2301.1,983.2v27.8h5.6v-27.8H2301.1z M2289.9,983.2v27.8h5.6v-27.8H2289.9z"/>
		</g>
	</g>
	<g>
		<rect x="2527.5" y="1071.6" class="st14" width="58.5" height="57.5"/>
		<path class="st15" d="M2553.8,1080.2v40.2h-5.9v-40.2H2553.8L2553.8,1080.2z M2571.3,1080.2v40.2h5.9v-40.2H2571.3L2571.3,1080.2z
			 M2536.2,1080.2v40.2h5.9v-40.2H2536.2L2536.2,1080.2z M2559.6,1080.2v40.2h5.9v-40.2H2559.6L2559.6,1080.2z"/>
	</g>
	<g>
		<rect x="2819.4" y="1007.1" class="st16" width="50.8" height="50"/>
		<path class="st17" d="M2842.3,1014.5v35h-5.1v-35H2842.3z M2857.5,1014.5v35h5.1v-35H2857.5z M2827,1014.5v35h5.1v-35H2827z
			 M2847.3,1014.5v35h5.1v-35H2847.3z"/>
	</g>
	<g>
		<rect x="2870.2" y="1007.1" class="st12" width="50.8" height="50"/>
		<path class="st13" d="M2893.1,1014.5v35h-5.1v-35H2893.1z M2908.3,1014.5v35h5.1v-35H2908.3z M2877.8,1014.5v35h5.1v-35H2877.8z
			 M2898.1,1014.5v35h5.1v-35H2898.1z"/>
	</g>
	<g>
		<rect x="1908.9" y="1142.7" class="st12" width="162.5" height="72"/>
		<path class="st13" d="M1967.5,1156.2v45h-9.1v-45H1967.5z M1976.6,1156.2v45h9.1v-45H1976.6z M1922.4,1156.2v45h9.1v-45H1922.4z
			 M1940.4,1156.2v45h9.1v-45H1940.4z M2048.7,1156.2v45h9.1v-45H2048.7z M2030.7,1156.2v45h9.1v-45H2030.7z M2012.6,1156.2v45h9.1
			v-45H2012.6z M1994.6,1156.2v45h9.1v-45H1994.6z"/>
	</g>
	<path class="st18" d="M3005.4,1563.9H1508.8c200.5-150.3,480.9-244.4,791.2-244.4c268.2,0,514,69.8,705.3,185.8L3005.4,1563.9
		L3005.4,1563.9z"/>
	<g>
		<g>
			<path class="st19" d="M2287.6,1350.8c0,25,20.3,45.3,45.3,45.3s45.3-20.3,45.3-45.3s-20.3-45.3-45.3-45.3
				C2307.9,1305.5,2287.6,1325.8,2287.6,1350.8z"/>
		</g>
		<g>
			<path class="st20" d="M2287.6,1350.8c0-25,20.3-45.3,45.3-45.3v90.5C2307.9,1396.1,2287.6,1375.8,2287.6,1350.8z"/>
		</g>
		<g>
			<g>
				<path class="st21" d="M2332.9,1423c1.3,0,2.3-1,2.3-2.3v-63.4c0-1.3-1-2.3-2.3-2.3s-2.3,1-2.3,2.3v63.4
					C2330.6,1422,2331.6,1423,2332.9,1423L2332.9,1423z"/>
			</g>
			<g>
				<path class="st21" d="M2332.9,1382.7c0.6,0,1.2-0.3,1.6-0.7c0.9-0.9,0.9-2.3,0-3.2l-9.4-9.4c-0.9-0.9-2.3-0.9-3.2,0
					s-0.9,2.3,0,3.2l9.4,9.4C2331.8,1382.5,2332.3,1382.7,2332.9,1382.7L2332.9,1382.7z"/>
			</g>
			<g>
				<path class="st21" d="M2332.9,1374.5c0.6,0,1.2-0.3,1.6-0.7l12.5-12.5c0.9-0.9,0.9-2.3,0-3.2c-0.9-0.9-2.3-0.9-3.2,0l-12.5,12.5
					c-0.9,0.9-0.9,2.3,0,3.2C2331.8,1374.3,2332.3,1374.5,2332.9,1374.5L2332.9,1374.5z"/>
			</g>
		</g>
	</g>
	<g>
		<g>
			<path class="st22" d="M1863.4,1395.5c0-28.3,8.1-61.2,24.4-61.2s24.4,32.9,24.4,61.2c0,10.4-8.1,18.9-24.4,18.9
				C1871.4,1414.3,1863.4,1405.9,1863.4,1395.5z"/>
		</g>
		<g>
			<path class="st23" d="M1863.4,1395.5c0-28.3,8.1-61.2,24.4-61.2v80C1871.4,1414.3,1863.4,1405.9,1863.4,1395.5z"/>
		</g>
		<g>
			<g>
				<path class="st21" d="M1887.8,1443.8c1.3,0,2.3-1,2.3-2.3v-70c0-1.3-1-2.3-2.3-2.3s-2.3,1-2.3,2.3v70
					C1885.6,1442.8,1886.6,1443.8,1887.8,1443.8L1887.8,1443.8z"/>
			</g>
			<g>
				<path class="st21" d="M1887.8,1399.3c0.6,0,1.2-0.3,1.6-0.7l10.4-10.4c0.9-0.9,0.9-2.3,0-3.2c-0.9-0.9-2.3-0.9-3.2,0l-10.4,10.4
					c-0.9,0.9-0.9,2.3,0,3.2C1886.7,1399.1,1887.2,1399.3,1887.8,1399.3L1887.8,1399.3z"/>
			</g>
			<g>
				<path class="st21" d="M1887.8,1390.2c0.6,0,1.2-0.3,1.6-0.7c0.9-0.9,0.9-2.3,0-3.2l-13.8-13.8c-0.9-0.9-2.3-0.9-3.2,0
					c-0.9,0.9-0.9,2.3,0,3.2l13.8,13.8C1886.7,1390,1887.2,1390.2,1887.8,1390.2L1887.8,1390.2z"/>
			</g>
		</g>
	</g>
	<path class="st23" d="M3093.9,1563.9v-303.7c-30.9-2.9-62.5-4.3-94.5-4.3c-296.1,0-552.2,124.3-675.8,305.1L3093.9,1563.9z"/>
	<g>
		<g>
			
				<ellipse transform="matrix(0.7071 -0.7071 0.7071 0.7071 -163.8613 2229.2263)" class="st18" cx="2609" cy="1312.4" rx="59.6" ry="59.6"/>
		</g>
		<g>
			<path class="st19" d="M2668.7,1312.4c0-33-26.7-59.6-59.6-59.6V1372C2642,1372,2668.7,1345.3,2668.7,1312.4z"/>
		</g>
		<g>
			<g>
				<path class="st21" d="M2609,1406.6c-1.1,0-2-0.9-2-2V1321c0-1.1,0.9-2,2-2s2,0.9,2,2v83.6
					C2611.1,1405.6,2610.2,1406.6,2609,1406.6L2609,1406.6z"/>
			</g>
			<g>
				<path class="st21" d="M2609,1353.5c-0.5,0-1-0.2-1.4-0.6c-0.8-0.8-0.8-2.1,0-2.9l12.4-12.4c0.8-0.8,2.1-0.8,2.9,0
					c0.8,0.8,0.8,2.1,0,2.9l-12.4,12.4C2610.1,1353.3,2609.5,1353.5,2609,1353.5L2609,1353.5z"/>
			</g>
			<g>
				<path class="st21" d="M2609,1342.6c-0.5,0-1-0.2-1.4-0.6l-16.5-16.5c-0.8-0.8-0.8-2.1,0-2.9s2.1-0.8,2.9,0l16.5,16.5
					c0.8,0.8,0.8,2.1,0,2.9C2610.1,1342.5,2609.5,1342.6,2609,1342.6L2609,1342.6z"/>
			</g>
		</g>
	</g>
	<g>
		<g>
			<path class="st23" d="M2936.4,1219.4c0-33.9-9.6-73.1-29.1-73.1s-29.1,39.2-29.1,73.1c0,12.4,9.6,22.5,29.1,22.5
				C2926.7,1241.8,2936.4,1231.8,2936.4,1219.4z"/>
		</g>
		<g>
			<path class="st24" d="M2936.4,1219.4c0-33.9-9.6-73.1-29.1-73.1v95.4C2926.7,1241.8,2936.4,1231.8,2936.4,1219.4z"/>
		</g>
		<g>
			<g>
				<path class="st21" d="M2907.2,1276.4c-1.1,0-2-0.9-2-2v-83.6c0-1.1,0.9-2,2-2s2,0.9,2,2v83.6
					C2909.3,1275.5,2908.4,1276.4,2907.2,1276.4L2907.2,1276.4z"/>
			</g>
			<g>
				<path class="st21" d="M2907.2,1223.3c-0.5,0-1-0.2-1.4-0.6l-12.4-12.4c-0.8-0.8-0.8-2.1,0-2.9s2.1-0.8,2.9,0l12.4,12.4
					c0.8,0.8,0.8,2.1,0,2.9C2908.3,1223.1,2907.8,1223.3,2907.2,1223.3L2907.2,1223.3z"/>
			</g>
			<g>
				<path class="st21" d="M2907.2,1212.5c-0.5,0-1-0.2-1.4-0.6c-0.8-0.8-0.8-2.1,0-2.9l16.5-16.5c0.8-0.8,2.1-0.8,2.9,0
					c0.8,0.8,0.8,2.1,0,2.9l-16.5,16.5C2908.3,1212.3,2907.8,1212.5,2907.2,1212.5L2907.2,1212.5z"/>
			</g>
		</g>
	</g>
	<path class="st24" d="M3094.4,1337v226.9l-301.4-2.8c-8.8,0-16-7.1-16-16c0-8.8,7.1-16,16-16h110.5c8.8,0,16-7.1,16-16
		c0-8.8-7.1-16-16-16h-133.9c-8.8,0-16-7.1-16-16c0-8.8,7.1-16,16-16h86.8c8.8,0,16-7.1,16-16c0-8.8-7.1-16-16-16H2793
		c-8.8,0-16-7.1-16-16c0-8.8,7.1-16,16-16h196.3c8.8,0,16-7.1,16-16c0-8.8-7.1-16-15.9-16h-52.9c-8.8,0-16-7.1-16-16
		c0-8.8,7.1-16,16-16h158v-0.1H3094.4z M2723.7,1465.1c-8.8,0-16,7.1-16,16c0,8.8,7.1,16,16,16c8.8,0,16-7.1,16-16
		C2739.6,1472.2,2732.5,1465.1,2723.7,1465.1z M2888.2,1369.1c8.8,0,16-7.1,16-16c0-8.8-7.2-16-16-16s-16,7.1-16,16
		C2872.1,1361.9,2879.3,1369.1,2888.2,1369.1z"/>
	<g>
		<g>
			<path class="st22" d="M3048.9,1407.8c0-46.3-13.8-123.4-30.7-123.4s-30.7,77-30.7,123.4c0,16.9,13.8,30.7,30.7,30.7
				S3048.9,1424.8,3048.9,1407.8z"/>
		</g>
		<g>
			<path class="st23" d="M3048.9,1407.8c0-46.3-13.8-123.4-30.7-123.4v154.1C3035.1,1438.5,3048.9,1424.8,3048.9,1407.8z"/>
		</g>
		<g>
			<g>
				<path class="st21" d="M3018.1,1473.1c-1.1,0-2-0.9-2-2v-83.6c0-1.1,0.9-2,2-2s2,0.9,2,2v83.6
					C3020.2,1472.1,3019.3,1473.1,3018.1,1473.1L3018.1,1473.1z"/>
			</g>
			<g>
				<path class="st21" d="M3018.1,1420c-0.5,0-1-0.2-1.4-0.6l-12.4-12.4c-0.8-0.8-0.8-2.1,0-2.9s2.1-0.8,2.9,0l12.4,12.4
					c0.8,0.8,0.8,2.1,0,2.9C3019.2,1419.8,3018.7,1420,3018.1,1420L3018.1,1420z"/>
			</g>
			<g>
				<path class="st21" d="M3018.1,1409.2c-0.5,0-1-0.2-1.4-0.6c-0.8-0.8-0.8-2.1,0-2.9l16.5-16.5c0.8-0.8,2.1-0.8,2.9,0
					c0.8,0.8,0.8,2.1,0,2.9l-16.5,16.5C3019.2,1408.9,3018.7,1409.2,3018.1,1409.2L3018.1,1409.2z"/>
			</g>
		</g>
	</g>
</g>
<g>
	<rect x="121.9" y="884.8" class="st25" width="308.2" height="513.8"/>
	<rect x="396" y="884.8" class="st8" width="34.2" height="513.8"/>
	<rect x="327.4" y="884.8" class="st8" width="34.2" height="513.8"/>
	<rect x="259" y="884.8" class="st8" width="34.2" height="513.8"/>
	<rect x="121.9" y="884.8" class="st8" width="34.2" height="513.8"/>
	<rect x="190.5" y="884.8" class="st8" width="34.2" height="513.8"/>
	<rect x="113.4" y="1029.9" class="st0" width="325.4" height="10.3"/>
	<rect x="113.4" y="933.2" class="st0" width="325.4" height="10.3"/>
	<rect x="113.4" y="1271.5" class="st0" width="325.4" height="10.3"/>
	<rect x="113.3" y="1174.9" class="st0" width="325.4" height="10.3"/>
	<rect x="113.4" y="1078.2" class="st0" width="325.4" height="10.3"/>
	<rect x="113.4" y="981.5" class="st0" width="325.4" height="10.3"/>
	<rect x="113.4" y="1126.5" class="st0" width="325.4" height="10.3"/>
	<rect x="113.4" y="884.9" class="st26" width="325.4" height="10.3"/>
	<rect x="113.4" y="1319.9" class="st0" width="325.4" height="10.3"/>
	<rect x="113.4" y="1223.2" class="st0" width="325.4" height="10.3"/>
</g>
<g>
	<rect x="778" y="916.2" class="st25" width="102.7" height="13.7"/>
	<rect x="757.4" y="987.7" class="st25" width="137" height="410.9"/>
	<rect x="839.6" y="1015.1" class="st2" width="27.4" height="27.4"/>
	<rect x="784.8" y="1015.1" class="st2" width="27.4" height="27.4"/>
	<rect x="839.6" y="1077.6" class="st2" width="27.4" height="27.4"/>
	<rect x="784.8" y="1077.6" class="st2" width="27.4" height="27.4"/>
	<rect x="839.6" y="1144.2" class="st2" width="27.4" height="27.4"/>
	<rect x="784.8" y="1144.2" class="st2" width="27.4" height="27.4"/>
	<rect x="839.6" y="1210.7" class="st2" width="27.4" height="27.4"/>
	<rect x="784.8" y="1210.7" class="st2" width="27.4" height="27.4"/>
	<rect x="839.6" y="1277.3" class="st2" width="27.4" height="27.4"/>
	<rect x="784.8" y="1277.3" class="st2" width="27.4" height="27.4"/>
	<rect x="839.6" y="1343.8" class="st2" width="27.4" height="54.8"/>
	<rect x="784.8" y="1343.8" class="st2" width="27.4" height="54.8"/>
</g>
<g>
	<polygon class="st4" points="630.6,1398.6 764.1,1398.6 764.1,850.6 630.6,795.9 	"/>
	<polygon class="st4" points="527.9,1398.6 634.1,1398.6 634.1,850.6 527.9,932.8 	"/>
	<rect x="658.1" y="1015" class="st27" width="78.8" height="27.4"/>
	<rect x="551.9" y="1015" class="st3" width="78.8" height="27.4"/>
	<rect x="551.9" y="1289" class="st3" width="184.9" height="27.4"/>
	<rect x="658.1" y="1234.2" class="st27" width="78.8" height="27.4"/>
	<rect x="551.9" y="1234.2" class="st3" width="78.8" height="27.4"/>
	<rect x="551.9" y="1179.4" class="st3" width="184.9" height="27.4"/>
	<rect x="658.1" y="1124.6" class="st27" width="78.8" height="27.4"/>
	<rect x="551.9" y="1124.6" class="st3" width="78.8" height="27.4"/>
	<rect x="551.9" y="1069.8" class="st3" width="184.9" height="27.4"/>
	<rect x="551.9" y="960.2" class="st3" width="184.9" height="27.4"/>
	<rect x="658.1" y="905.4" class="st27" width="78.8" height="27.4"/>
	<rect x="603.2" y="905.4" class="st3" width="27.4" height="27.4"/>
	<rect x="658" y="850.6" class="st3" width="27.4" height="27.4"/>
	<rect x="658.1" y="1343.8" class="st27" width="78.8" height="54.8"/>
	<rect x="551.9" y="1343.8" class="st3" width="78.8" height="54.8"/>
</g>
<g>
	<rect x="346.3" y="1193.2" class="st7" width="274" height="205.5"/>
	<rect x="346.3" y="1193.2" class="st6" width="274" height="109.5"/>
	<g>
		<rect x="377.1" y="1217.1" class="st2" width="212.4" height="61.6"/>
		<path class="st7" d="M380.5,1220.6H586v54.8H380.5V1220.6 M373.7,1213.7v68.5H593v-68.5H373.7L373.7,1213.7z"/>
	</g>
	<g>
		<g>
			<rect x="551.8" y="1316.4" class="st28" width="41.1" height="82.2"/>
			<rect x="503.9" y="1316.4" class="st28" width="41.1" height="82.2"/>
		</g>
		<g>
			<rect x="421.7" y="1316.4" class="st28" width="41.1" height="82.2"/>
			<rect x="373.7" y="1316.4" class="st28" width="41.1" height="82.2"/>
		</g>
		<polygon class="st29" points="421.6,1351.6 421.6,1398.6 414.8,1396 414.8,1349 		"/>
		<polygon class="st29" points="551.8,1345.5 551.8,1366.9 544.9,1364.4 544.9,1342.9 		"/>
		<polygon class="st2" points="503.8,1327.6 544.9,1342.9 544.9,1364.4 503.8,1349 		"/>
		<polygon class="st2" points="503.8,1398.6 503.8,1385 540.4,1398.6 		"/>
		<polygon class="st2" points="373.7,1327.6 414.8,1342.9 414.8,1364.4 373.7,1349 		"/>
		<polygon class="st2" points="373.7,1398.6 373.7,1385 410.2,1398.6 		"/>
		<polygon class="st2" points="462.7,1316.4 462.7,1331 424,1316.4 		"/>
		<polygon class="st2" points="544.9,1316.4 544.9,1331 506.2,1316.4 		"/>
		<polygon class="st2" points="592.9,1316.4 592.9,1331 554.1,1316.4 		"/>
		<polygon class="st2" points="414.8,1316.4 414.8,1331 376,1316.4 		"/>
		<polygon class="st2" points="421.6,1327.6 462.7,1342.9 462.7,1364.4 421.6,1349 		"/>
		<polygon class="st2" points="421.6,1398.6 421.6,1385 458.2,1398.6 		"/>
		<polygon class="st2" points="551.8,1327.6 592.9,1342.9 592.9,1364.4 551.8,1349 		"/>
		<polygon class="st2" points="551.8,1398.6 551.8,1385 588.4,1398.6 		"/>
	</g>
</g>
<g>
	<rect x="894.3" y="1244.5" class="st4" width="239.8" height="154.2"/>
	<rect x="916.6" y="1265" class="st28" width="41.1" height="113.1"/>
	<rect x="968" y="1265" class="st28" width="41.1" height="113.1"/>
	<rect x="1019.4" y="1265" class="st28" width="41.1" height="113.1"/>
	<rect x="1070.7" y="1265" class="st28" width="41.1" height="113.1"/>
	<rect x="884.1" y="1230.8" class="st30" width="260.3" height="13.7"/>
	<g>
		<rect x="896.1" y="1148.6" class="st2" width="232.9" height="78.8"/>
		<path class="st4" d="M1125.6,1152.1v72h-226v-72H1125.6 M1132.3,1145.2H892.6v85.6h239.8L1132.3,1145.2L1132.3,1145.2z"/>
	</g>
	<g>
		<polygon class="st2" points="916.6,1265 916.6,1279.6 955.5,1265 		"/>
		<polygon class="st2" points="957.7,1378.1 957.7,1364.4 921.2,1378.1 		"/>
	</g>
	<g>
		<polygon class="st2" points="968,1265 968,1279.6 1006.8,1265 		"/>
		<polygon class="st2" points="1009.1,1378.1 1009.1,1364.4 972.6,1378.1 		"/>
	</g>
	<g>
		<polygon class="st2" points="1070.7,1265 1070.7,1279.6 1109.5,1265 		"/>
		<polygon class="st2" points="1111.8,1378.1 1111.8,1364.4 1075.3,1378.1 		"/>
	</g>
	<g>
		<polygon class="st2" points="1019.4,1265 1019.4,1279.6 1058.2,1265 		"/>
		<g>
			<polygon class="st2" points="916.6,1347.3 957.7,1331.9 957.7,1276.2 916.6,1291.6 			"/>
			<polygon class="st2" points="968,1347.3 1009.1,1331.9 1009.1,1276.2 968,1291.6 			"/>
			<polygon class="st2" points="1070.7,1291.6 1070.7,1347.3 1111.8,1331.9 1111.8,1276.2 			"/>
			<polygon class="st2" points="1019.4,1347.3 1060.5,1331.9 1060.5,1276.2 1019.4,1291.6 			"/>
		</g>
		<polygon class="st2" points="1060.5,1378.1 1060.5,1364.4 1023.9,1378.1 		"/>
	</g>
	<rect x="884.1" y="1314.8" class="st30" width="260.3" height="13.7"/>
</g>
<g>
	<g>
		<g>
			<rect x="276.4" y="764" class="st16" width="61.6" height="60.5"/>
			<path class="st17" d="M304.1,773v42.4H298V773H304.1z M322.6,773v42.4h6.1V773H322.6z M285.6,773v42.4h6.1V773H285.6z M310.2,773
				v42.4h6.1V773H310.2z"/>
		</g>
		<g>
			<rect x="184.1" y="824.5" class="st16" width="61.6" height="60.5"/>
			<path class="st17" d="M211.8,833.5v42.4h-6.1v-42.4H211.8z M230.2,833.5v42.4h6.1v-42.4H230.2z M193.3,833.5v42.4h6.1v-42.4
				H193.3z M218,833.5v42.4h6.1v-42.4H218z"/>
		</g>
		<g>
			<rect x="368.7" y="824.5" class="st16" width="61.6" height="60.5"/>
			<path class="st17" d="M396.4,833.5v42.4h-6.1v-42.4H396.4z M414.8,833.5v42.4h6.1v-42.4H414.8z M377.9,833.5v42.4h6.1v-42.4
				H377.9z M402.5,833.5v42.4h6.1v-42.4H402.5z"/>
		</g>
		<g>
			<rect x="214.9" y="764" class="st14" width="61.6" height="60.5"/>
			<path class="st15" d="M242.6,773v42.4h-6.1V773H242.6z M261,773v42.4h6.1V773H261z M224.1,773v42.4h6.1V773H224.1z M248.7,773
				v42.4h6.1V773H248.7z"/>
		</g>
		<g>
			<rect x="307.1" y="824.5" class="st14" width="61.6" height="60.5"/>
			<path class="st15" d="M334.8,833.5v42.4h-6.1v-42.4H334.8z M353.3,833.5v42.4h6.1v-42.4H353.3z M316.4,833.5v42.4h6.1v-42.4
				H316.4z M341,833.5v42.4h6.1v-42.4H341z"/>
		</g>
		<g>
			<rect x="122.6" y="824.4" class="st14" width="61.6" height="60.5"/>
			<path class="st15" d="M150.3,833.5v42.4h-6.1v-42.4H150.3z M168.7,833.5v42.4h6.1v-42.4H168.7z M131.8,833.5v42.4h6.1v-42.4
				H131.8z M156.4,833.5v42.4h6.1v-42.4H156.4z"/>
		</g>
		<g>
			<rect x="153.3" y="763.9" class="st12" width="61.6" height="60.5"/>
			<path class="st13" d="M181,773v42.4h-6.1V773H181z M199.4,773v42.4h6.1V773H199.4z M162.5,773v42.4h6.1V773H162.5z M187.2,773
				v42.4h6.1V773H187.2z"/>
		</g>
		<g>
			<rect x="337.9" y="764" class="st12" width="61.6" height="60.5"/>
			<path class="st13" d="M365.6,773v42.4h-6.1V773H365.6z M384,773v42.4h6.1V773H384z M347.1,773v42.4h6.1V773H347.1z M371.7,773
				v42.4h6.1V773H371.7z"/>
		</g>
		<g>
			<rect x="245.7" y="824.5" class="st12" width="61.6" height="60.5"/>
			<path class="st13" d="M273.3,833.5v42.4h-6.1v-42.4H273.3z M291.8,833.5v42.4h6.1v-42.4H291.8z M254.9,833.5v42.4h6.1v-42.4
				H254.9z M279.5,833.5v42.4h6.1v-42.4H279.5z"/>
		</g>
	</g>
</g>
<g>
	<rect x="764.1" y="929.9" class="st12" width="130.3" height="57.7"/>
	<path class="st13" d="M811.2,940.7v36.1H804v-36.1H811.2z M818.4,940.7v36.1h7.2v-36.1H818.4z M775.1,940.7v36.1h7.2v-36.1H775.1z
		 M789.5,940.7v36.1h7.2v-36.1H789.5z M876.3,940.7v36.1h7.2v-36.1H876.3z M861.9,940.7v36.1h7.2v-36.1H861.9z M847.3,940.7v36.1
		h7.2v-36.1H847.3z M832.9,940.7v36.1h7.2v-36.1H832.9z"/>
</g>
<g>
	<rect x="346.3" y="1083.3" class="st16" width="274" height="110.2"/>
	<path class="st17" d="M475.7,1103.9v68.9h-15.2v-68.9H475.7L475.7,1103.9z M430,1103.9v68.9h15.3v-68.9H430L430,1103.9z
		 M369.1,1103.9v68.9h15.3v-68.9H369.1L369.1,1103.9z M399.6,1103.9v68.9h15.3v-68.9H399.6L399.6,1103.9z M490.9,1103.9v68.9h15.3
		v-68.9H490.9L490.9,1103.9z M582.2,1103.9v68.9h15.3v-68.9H582.2L582.2,1103.9z M551.8,1103.9v68.9h15.3v-68.9H551.8L551.8,1103.9z
		 M521.3,1103.9v68.9h15.3v-68.9H521.3L521.3,1103.9z"/>
</g>
<path class="st24" d="M609.4,1563.9h955c-76.6-112.4-261.5-193-477.5-193C870.8,1370.9,685.9,1451.5,609.4,1563.9z"/>
<g>
	<path class="st22" d="M1181.8,1326.6c0-35-9.9-75.4-30.1-75.4s-30.1,40.4-30.1,75.4c0,12.8,9.9,23.2,30.1,23.2
		S1181.8,1339.4,1181.8,1326.6z"/>
</g>
<g>
	<path class="st23" d="M1181.8,1326.6c0-35-9.9-75.4-30.1-75.4v98.5C1171.9,1349.8,1181.8,1339.4,1181.8,1326.6z"/>
</g>
<g>
	<g>
		<path class="st21" d="M1151.7,1386.1c-1.5,0-2.8-1.3-2.8-2.8V1297c0-1.5,1.3-2.8,2.8-2.8s2.8,1.3,2.8,2.8v86.3
			C1154.5,1384.9,1153.2,1386.1,1151.7,1386.1L1151.7,1386.1z"/>
	</g>
	<g>
		<path class="st21" d="M1151.7,1331.4c-0.8,0-1.4-0.3-1.9-0.8l-12.8-12.8c-1.1-1.1-1.1-2.9,0-3.9c1.1-1.1,2.9-1.1,3.9,0l12.8,12.8
			c1.1,1.1,1.1,2.9,0,3.9C1153.1,1331.1,1152.5,1331.4,1151.7,1331.4L1151.7,1331.4z"/>
	</g>
	<g>
		<path class="st21" d="M1151.7,1320.1c-0.8,0-1.4-0.3-1.9-0.8c-1.1-1.1-1.1-2.9,0-3.9l17-17c1.1-1.1,2.9-1.1,3.9,0
			c1.1,1.1,1.1,2.9,0,3.9l-17,17C1153.1,1319.9,1152.5,1320.1,1151.7,1320.1L1151.7,1320.1z"/>
	</g>
</g>
<g>
	<path class="st24" d="M1255.8,1366.8c0-31.5-8.9-67.9-27.1-67.9c-18.1,0-27.1,36.4-27.1,67.9c0,11.5,8.9,20.9,27.1,20.9
		S1255.8,1378.4,1255.8,1366.8z"/>
</g>
<g>
	<path class="st31" d="M1255.8,1366.8c0-31.5-8.9-67.9-27.1-67.9v88.7C1246.9,1387.7,1255.8,1378.4,1255.8,1366.8z"/>
</g>
<g>
	<g>
		<path class="st21" d="M1228.7,1420.4c-1.3,0-2.5-1.1-2.5-2.5v-77.7c0-1.4,1.1-2.5,2.5-2.5s2.5,1.1,2.5,2.5v77.7
			C1231.2,1419.4,1230.1,1420.4,1228.7,1420.4L1228.7,1420.4z"/>
	</g>
	<g>
		<path class="st21" d="M1228.7,1371.1c-0.7,0-1.3-0.3-1.8-0.8l-11.6-11.6c-1-1-1-2.6,0-3.5c1-1,2.6-1,3.5,0l11.6,11.6
			c1,1,1,2.6,0,3.5C1230.1,1370.9,1229.4,1371.1,1228.7,1371.1L1228.7,1371.1z"/>
	</g>
	<g>
		<path class="st21" d="M1228.7,1361.1c-0.7,0-1.3-0.3-1.8-0.8c-1-1-1-2.6,0-3.5l15.3-15.3c1-1,2.6-1,3.5,0c1,1,1,2.6,0,3.5
			l-15.3,15.3C1230.1,1360.8,1229.4,1361.1,1228.7,1361.1L1228.7,1361.1z"/>
	</g>
</g>
<g>
	<ellipse class="st18" cx="310.8" cy="1145.3" rx="103.2" ry="103.2"/>
</g>
<g>
	<path class="st19" d="M414,1145.3c0-57-46.2-103.2-103.2-103.2v206.4C367.8,1248.5,414,1202.3,414,1145.3z"/>
</g>
<g>
	<g>
		<path class="st21" d="M310.7,1308.3c-1.9,0-3.5-1.6-3.5-3.5v-144.6c0-1.9,1.6-3.5,3.5-3.5s3.5,1.6,3.5,3.5v144.6
			C314.3,1306.7,312.7,1308.3,310.7,1308.3L310.7,1308.3z"/>
	</g>
	<g>
		<path class="st21" d="M310.7,1216.5c-0.9,0-1.8-0.3-2.5-1c-1.3-1.3-1.3-3.6,0-4.9l21.5-21.5c1.3-1.3,3.6-1.3,4.9,0s1.3,3.6,0,4.9
			l-21.5,21.5C312.6,1216.1,311.7,1216.5,310.7,1216.5L310.7,1216.5z"/>
	</g>
	<g>
		<path class="st21" d="M310.7,1197.7c-0.9,0-1.8-0.3-2.5-1l-28.5-28.5c-1.3-1.3-1.3-3.6,0-4.9s3.6-1.3,4.9,0l28.5,28.5
			c1.3,1.3,1.3,3.6,0,4.9C312.6,1197.3,311.7,1197.7,310.7,1197.7L310.7,1197.7z"/>
	</g>
</g>
<path class="st24" d="M425.3,1416.8c9.9,0,17.9-8,17.9-17.9s-8-17.9-17.9-17.9s-17.9,8-17.9,17.9
	C407.4,1408.7,415.4,1416.8,425.3,1416.8z"/>
<path class="st32" d="M1155.5,1563.9c-201.1-150.7-351-278.6-793.4-278.6c-139.1,0-260.8,27.4-362.1,65.1v213.5"/>
<g>
	<path class="st19" d="M640.8,1310.2c0,29.9-24.2,54-54,54c-29.9,0-54-24.2-54-54c0-29.9,24.2-54,54-54S640.8,1280.4,640.8,1310.2z"
		/>
</g>
<g>
	<path class="st20" d="M640.8,1310.2c0-29.9-24.2-54-54-54v108C616.6,1364.2,640.8,1340.1,640.8,1310.2z"/>
</g>
<g>
	<g>
		<path class="st21" d="M586.8,1396.4c-1.5,0-2.7-1.2-2.7-2.7V1318c0-1.5,1.2-2.7,2.7-2.7s2.7,1.2,2.7,2.7v75.7
			C589.4,1395.2,588.3,1396.4,586.8,1396.4L586.8,1396.4z"/>
	</g>
	<g>
		<path class="st21" d="M586.8,1348.3c-0.7,0-1.3-0.3-1.9-0.8c-1.1-1.1-1.1-2.8,0-3.8l11.2-11.2c1.1-1.1,2.8-1.1,3.8,0
			c1.1,1.1,1.1,2.8,0,3.8l-11.2,11.2C588.1,1348.1,587.4,1348.3,586.8,1348.3L586.8,1348.3z"/>
	</g>
	<g>
		<path class="st21" d="M586.8,1338.5c-0.7,0-1.3-0.3-1.9-0.8l-14.9-14.9c-1.1-1.1-1.1-2.8,0-3.8s2.8-1.1,3.8,0l14.9,14.9
			c1.1,1.1,1.1,2.8,0,3.8C588.1,1338.2,587.4,1338.5,586.8,1338.5L586.8,1338.5z"/>
	</g>
</g>
<path class="st4" d="M1048.4,1179l-0.8-4.4c-0.2-1.4-0.8-2.6-1.2-2.6c-0.4,0-0.8,1.2-0.8,2.6v1.2c0,1.4-1.2,2.6-2.6,2.6h-1.2
	c-0.1,0-0.2,0-0.2,0v3.2c0.1,0,0.2,0,0.2,0h4.4C1047.6,1181.6,1048.6,1180.4,1048.4,1179"/>
<path class="st4" d="M1037.9,1175.2h-7.1c-0.1,0-0.1,0-0.2,0h-7.3c-0.1,0-0.2,0-0.2,0v-0.7c0-1.4-0.4-2.6-0.8-2.6
	c-0.4,0-1,1.2-1.2,2.6l-0.8,4.4c-0.2,1.4,0.8,2.6,2.2,2.6h4.4c0.4,0,0.9-0.1,1.2-0.2c-0.1,0.8-0.8,1.3-1.6,1.3h-6.1
	c-1,0-1.7-0.9-1.6-1.9l0.6-3.7c0.2-1-0.6-1.9-1.6-1.9h-30.5c-0.6,0-1.2,0.4-1.5,1l-5.7,8.8c-0.1,0.1-0.1,0.3,0,0.5l1.1,1.3
	c0.1,0.2,0.4,0.2,0.5,0.1l3.9-3.1v18.7c0,0.9,0.7,1.6,1.6,1.6h8.7c0.9,0,1.6-0.7,1.6-1.6v-6.5c0-0.9,0.7-1.6,1.6-1.6h21.6
	c0.9,0,1.6,0.7,1.6,1.6v6.5c0,0.9,0.7,1.6,1.6,1.6h8.7c0.9,0,1.6-0.7,1.6-1.6v-7h-4.6c-1.4,0-2.6-1.2-2.6-2.6v-4.5
	c0-0.9,0.4-1.6,1.1-2.1v5.4c0,1.4,1.2,2.6,2.6,2.6h7.1c1.4,0,2.6-1.2,2.6-2.6v-13.7C1040.5,1176.4,1039.3,1175.2,1037.9,1175.2"/>
<path class="st24" d="M329.2,1563.9c0-9.9,8-17.9,17.9-17.9h106.3c9.9,0,17.9-8,17.9-17.9c0-9.8-8-17.9-17.9-17.9h-158
	c-9.9,0-17.9-8-17.9-17.9c0-9.8,8-17.9,17.9-17.9h75.1c9.9,0,17.9-8,17.9-17.9s-8-17.9-17.9-17.9h-208L0,1443v120.9H329.2z"/>
<path class="st24" d="M370.6,1560.5"/>
</svg>
