<?xml version="1.0" encoding="utf-8"?>
<!-- Generator: Adobe Illustrator 18.1.1, SVG Export Plug-In . SVG Version: 6.00 Build 0)  -->
<svg version="1.1" id="Layer_1" xmlns="http://www.w3.org/2000/svg" xmlns:xlink="http://www.w3.org/1999/xlink" x="0px" y="0px"
	 viewBox="-3.5 35.7 52 24" enable-background="new -3.5 35.7 52 24" xml:space="preserve">
<g id="surface1">
	<path fill="#58585A" d="M48.5,41.1l-0.6-3.4c-0.2-1.1-0.6-1.9-1-1.9s-0.6,0.8-0.6,2v0.8c0,1.1-0.8,2-2,2h-0.8c-0.1,0-0.1,0-0.2,0
		v2.4c0.1,0,0.1,0,0.2,0h3.4C47.9,43.2,48.6,42.2,48.5,41.1"/>
	<path fill="#58585A" d="M42.5,40.9c-0.6,0.2-1.1,0.6-1.1,1.1s0.4,0.8,1.1,1.1V40.9z"/>
	<path fill="#58585A" d="M40.6,38.2h-5.4H35h-5.5c-0.1,0-0.1,0-0.2,0v-0.5c0-1.1-0.2-2-0.6-2s-0.7,0.8-1,1.9L27.1,41
		c-0.2,1.1,0.6,1.9,1.7,1.9h3.4c0.4,0,0.7,0,1-0.1c-0.1,0.6-0.6,1-1.2,1h-4.7c-0.7,0-1.3-0.7-1.2-1.4l0.5-2.9
		c0.1-0.7-0.5-1.4-1.2-1.4H2c-0.5,0-1,0.2-1.1,0.7l-4.3,6.6c-0.1,0.1-0.1,0.2,0,0.4l0.8,1c0.1,0.1,0.2,0.1,0.4,0l3-2.4v14.2
		c0,0.7,0.6,1.2,1.2,1.2h6.6c0.7,0,1.2-0.6,1.2-1.2v-4.9c0-0.7,0.6-1.2,1.2-1.2h16.5c0.7,0,1.2,0.6,1.2,1.2v4.9
		c0,0.7,0.6,1.2,1.2,1.2h6.6c0.7,0,1.2-0.6,1.2-1.2v-5.3h-3.5c-1.1,0-2-0.8-2-2v-3.4c0-0.6,0.4-1.2,0.8-1.6v4.1c0,1.1,0.8,2,2,2h5.4
		c1.1,0,2-0.8,2-2V39.8C42.5,39.2,41.7,38.2,40.6,38.2"/>
</g>
</svg>
