<?xml version="1.0" encoding="utf-8"?>
<!-- Generator: Adobe Illustrator 19.1.0, SVG Export Plug-In . SVG Version: 6.00 Build 0)  -->
<svg version="1.1" id="Layer_1" xmlns="http://www.w3.org/2000/svg" xmlns:xlink="http://www.w3.org/1999/xlink" x="0px" y="0px"
	 viewBox="-159.9 273.3 33.9 55" style="enable-background:new -159.9 273.3 33.9 55;" xml:space="preserve">
<g>
	<path d="M-133.2,303.8c-2.1,0-4.1,0.9-5.4,2.4l-3.4-2.4c0.4-1,0.6-2,0.6-3.1c0-1.1-0.2-2.1-0.5-3.1l3.4-2.4
		c1.3,1.5,3.2,2.4,5.4,2.4c4,0,7.2-3.2,7.2-7.2s-3.2-7.2-7.2-7.2s-7.2,3.2-7.2,7.2c0,0.7,0.1,1.4,0.3,2l-3.4,2.4
		c-1.4-1.7-3.4-3-5.7-3.3v-4.1c3.2-0.7,5.7-3.6,5.7-7c0-4-3.2-7.2-7.2-7.2s-7.2,3.2-7.2,7.2c0,3.4,2.4,6.3,5.6,7v4.1
		c-4.3,0.8-7.7,4.6-7.7,9.1c0,4.6,3.3,8.4,7.7,9.1v4.3c-3.2,0.7-5.6,3.6-5.6,7c0,4,3.2,7.2,7.2,7.2s7.2-3.2,7.2-7.2
		c0-3.4-2.4-6.3-5.6-7v-4.3c2.3-0.4,4.2-1.6,5.6-3.3l3.4,2.4c-0.2,0.6-0.3,1.3-0.3,2c0,4,3.2,7.2,7.2,7.2s7.2-3.2,7.2-7.2
		C-126.1,307-129.3,303.8-133.2,303.8L-133.2,303.8z M-133.2,287c1.9,0,3.5,1.6,3.5,3.5s-1.6,3.5-3.5,3.5s-3.5-1.6-3.5-3.5
		S-135.1,287-133.2,287L-133.2,287z M-154.2,280.5c0-1.9,1.6-3.5,3.5-3.5s3.5,1.6,3.5,3.5c0,1.9-1.6,3.5-3.5,3.5
		S-154.2,282.4-154.2,280.5L-154.2,280.5z M-147.2,321.2c0,1.9-1.6,3.5-3.5,3.5s-3.5-1.6-3.5-3.5c0-1.9,1.6-3.5,3.5-3.5
		S-147.2,319.2-147.2,321.2L-147.2,321.2z M-150.7,305.5c-2.7,0-4.8-2.2-4.8-4.8c0-2.7,2.2-4.8,4.8-4.8c2.7,0,4.8,2.2,4.8,4.8
		C-145.8,303.4-148,305.5-150.7,305.5L-150.7,305.5z M-133.2,314.4c-1.9,0-3.5-1.6-3.5-3.5c0-1.9,1.6-3.5,3.5-3.5s3.5,1.6,3.5,3.5
		C-129.8,312.9-131.3,314.4-133.2,314.4L-133.2,314.4z"/>
</g>
</svg>
