<?xml version="1.0" encoding="utf-8"?>
<!-- Generator: Adobe Illustrator 18.1.1, SVG Export Plug-In . SVG Version: 6.00 Build 0)  -->
<svg version="1.1" id="Layer_1" xmlns="http://www.w3.org/2000/svg" xmlns:xlink="http://www.w3.org/1999/xlink" x="0px" y="0px"
	 viewBox="0 0 1290.1 429" enable-background="new 0 0 1290.1 429" xml:space="preserve">
<g>
	<path d="M746.4,239.1c-14.6,0-28.5,6.2-37.5,16.7l-23.6-16.7c2.8-6.9,4.2-13.9,4.2-21.5c0-7.6-1.4-14.6-3.5-21.5l23.6-16.7
		c9,10.4,22.2,16.7,37.5,16.7c27.8,0,50-22.2,50-50s-22.2-50-50-50s-50,22.2-50,50c0,4.9,0.7,9.7,2.1,13.9l-23.6,16.7
		c-9.7-11.8-23.6-20.8-39.6-22.9v-28.5c22.2-4.9,39.6-25,39.6-48.6c0-27.8-22.2-50-50-50s-50,22.2-50,50c0,23.6,16.7,43.7,38.9,48.6
		v28.5c-29.8,5.6-53.4,31.9-53.4,63.2c0,31.9,22.9,58.3,53.4,63.2v29.8c-22.2,4.9-38.9,25-38.9,48.6c0,27.8,22.2,50,50,50
		s50-22.2,50-50c0-23.6-16.7-43.7-38.9-48.6v-29.8c16-2.8,29.2-11.1,38.9-22.9l23.6,16.7c-1.4,4.2-2.1,9-2.1,13.9
		c0,27.8,22.2,50,50,50s50-22.2,50-50C795.7,261.3,773.5,239.1,746.4,239.1L746.4,239.1z M746.4,122.5c13.2,0,24.3,11.1,24.3,24.3
		s-11.1,24.3-24.3,24.3s-24.3-11.1-24.3-24.3S733.2,122.5,746.4,122.5L746.4,122.5z M600.7,77.4c0-13.2,11.1-24.3,24.3-24.3
		c13.2,0,24.3,11.1,24.3,24.3s-11.1,24.3-24.3,24.3C611.8,101.7,600.7,90.6,600.7,77.4L600.7,77.4z M649.2,359.9
		c0,13.2-11.1,24.3-24.3,24.3c-13.2,0-24.3-11.1-24.3-24.3s11.1-24.3,24.3-24.3C638.1,335.6,649.2,346,649.2,359.9L649.2,359.9z
		 M625,250.9c-18.7,0-33.3-15.3-33.3-33.3c0-18.7,15.3-33.3,33.3-33.3c18.7,0,33.3,15.3,33.3,33.3C659,236.4,643.7,250.9,625,250.9
		L625,250.9z M746.4,312.7c-13.2,0-24.3-11.1-24.3-24.3s11.1-24.3,24.3-24.3s24.3,11.1,24.3,24.3C770,302.3,759.6,312.7,746.4,312.7
		L746.4,312.7z"/>
</g>
<g>
	<g id="g14" transform="translate(89.4268,98.3438)">
		<path id="path16" fill="#65C5B2" d="M207.4,26.9h-94.8l47.4,82.2L207.4,26.9z"/>
	</g>
	<g id="g18" transform="translate(69.2861,97.3203)">
		<path id="path20" fill="#65C5B2" d="M122.7,32.7l-47.4,82.2h94.8L122.7,32.7z"/>
	</g>
	<g id="g22" transform="translate(78.4736,79.4082)">
		<path id="path24" fill="#65C5B2" d="M161.5,143.8H66.8l47.4,82.2L161.5,143.8z"/>
	</g>
	<g id="g26" transform="translate(58.3584,78.3828)">
		<path id="path28" fill="#65C5B2" d="M77,150.3l-47.4,82.2h95.5L77,150.3z"/>
	</g>
	<g id="g30" transform="translate(91.1904,97.3203)">
		<path id="path32" fill="#65C5B2" d="M214.4,32.7L167,114.9h95.5L214.4,32.7z"/>
	</g>
	<g id="g34" transform="translate(100.3838,79.4082)">
		<path id="path36" fill="#65C5B2" d="M253.3,143.8h-94.8l47.4,82.2L253.3,143.8z"/>
	</g>
	<g id="g38" transform="translate(80.2666,116.2793)">
		<path id="path40" fill="#65C5B2" d="M168.7-84.8L121.4-2.6h94.8L168.7-84.8z"/>
	</g>
	<g id="g42" transform="translate(67.5205,60.4707)">
		<path id="path44" fill="#65C5B2" d="M115.7,260.8H20.2l47.4,82.9L115.7,260.8z"/>
	</g>
	<g id="g46" transform="translate(102.1475,78.3828)">
		<path id="path48" fill="#65C5B2" d="M261,150.3l-47.4,82.2h95.5L261,150.3z"/>
	</g>
	<g id="g50" transform="translate(111.3369,60.4707)">
		<path id="path52" fill="#65C5B2" d="M299.1,260.8h-95.5l47.4,82.9L299.1,260.8z"/>
	</g>
	<g id="g54" transform="translate(80.2666,78.3828)">
		<path id="path56" fill="#1A4866" d="M168.7,150.3l-47.4,82.2h94.8L168.7,150.3z"/>
	</g>
	<g id="g58" transform="translate(67.5205,98.3438)">
		<path id="path60" fill="#1A4866" d="M115.7,26.9H20.2l47.4,82.2L115.7,26.9z"/>
	</g>
	<g id="g62" transform="translate(38.2119,81.4688)">
		<path id="path64" fill="#1A4866" d="M-7,131.1h94.8L40.4,48.8"/>
	</g>
	<g id="g66" transform="translate(47.374,63.5449)">
		<path id="path68" fill="#1A4866" d="M31.7,242.2L79.1,160h-94.8"/>
	</g>
	<g id="g70" transform="translate(113.0986,97.3203)">
		<path id="path72" fill="#1A4866" d="M306.8,32.7l-47.4,82.2h94.8L306.8,32.7z"/>
	</g>
	<g id="g74" transform="translate(122.2881,79.4082)">
		<path id="path76" fill="#1A4866" d="M345,143.8h-94.8l47.4,82.2L345,143.8z"/>
	</g>
	<g id="g78" transform="translate(100.3838,117.3066)">
		<path id="path80" fill="#1A4866" d="M253.3-90.6h-94.8l47.4,82.2L253.3-90.6z"/>
	</g>
	<g id="g82" transform="translate(89.4268,60.4707)">
		<path id="path84" fill="#1A4866" d="M207.4,260.8h-95.5l47.4,82.9L207.4,260.8z"/>
	</g>
	<g id="g86" transform="translate(91.1904,59.4492)">
		<path id="path88" fill="#1A4866" d="M214.4,267.2L167,350.1h95.5L214.4,267.2z"/>
	</g>
	<g id="g90" transform="translate(78.4736,117.3066)">
		<path id="path92" fill="#1A4866" d="M161.5-90.6H66.8l47.4,82.2L161.5-90.6z"/>
	</g>
	<g id="g94" transform="translate(58.3584,116.2793)">
		<path id="path96" fill="#1A4866" d="M77-84.8L29.6-2.6h95.5L77-84.8z"/>
	</g>
	<g id="g98" transform="translate(102.1475,116.2793)">
		<path id="path100" fill="#1A4866" d="M261-84.8L213.6-2.6h95.5L261-84.8z"/>
	</g>
	<g id="g102" transform="translate(111.3369,98.3438)">
		<path id="path104" fill="#1A4866" d="M299.1,26.9h-95.5l47.4,82.2L299.1,26.9z"/>
	</g>
	<g id="g106" transform="translate(69.2861,59.4492)">
		<path id="path108" fill="#1A4866" d="M122.7,267.2l-47.4,82.9h94.8L122.7,267.2z"/>
	</g>
</g>
<g>
	<path fill="#50BE9C" d="M1083.4,151.6c19.3,0,37.4,7.9,49.9,21.5l90.7-82.7c-3.4-3.4-6.8-7.9-11.3-11.3
		c-9.1-9.1-18.1-15.9-28.3-22.7s-20.4-11.3-32.9-15.9c-12.5-4.5-22.7-7.9-35.1-10.2c-12.5,0-20.4-1.1-32.9-1.1s-23.8,1.1-36.3,3.4
		c-12.5,2.3-22.7,5.7-35.1,10.2c-12.5,4.5-21.5,10.2-32.9,17c-10.2,6.8-19.3,13.6-28.3,22.7c-9.1,9.1-15.9,17-23.8,27.2
		c-7.9,10.2-12.5,20.4-18.1,31.7s-9.1,22.7-11.3,34c-2.3,13.6-3.4,23.8-4.5,37.4l122.4,4.5C1017.7,181.1,1047.1,151.6,1083.4,151.6z
		"/>
	<path fill="#8FC640" d="M1148,202.6l119-29.5c-3.4-12.5-6.8-22.7-12.5-34s-11.3-21.5-18.1-31.7c-4.5-5.7-9.1-11.3-13.6-15.9
		l-90.7,82.7C1140,182.2,1144.6,192.4,1148,202.6z"/>
	<path fill="#6CC28A" d="M1272.6,209.4c-1.1-12.5-2.3-23.8-5.7-36.3l-119,29.5c1.1,5.7,2.3,10.2,2.3,15.9
		c0,26.1-14.7,47.6-35.1,58.9l57.8,108.8c11.3-5.7,20.4-12.5,30.6-20.4c10.2-7.9,18.1-15.9,26.1-26.1c7.9-10.2,12.5-15.9,19.3-27.2
		s11.3-21.5,14.7-32.9c4.5-12.5,6.8-22.7,7.9-35.1C1272.6,233.2,1272.6,221.9,1272.6,209.4z"/>
	<path fill="#4276B9" d="M1114,278.5c-9.1,4.5-20.4,7.9-31.7,7.9c-6.8,0-12.5-1.1-18.1-2.3l-34,117.9c12.5,3.4,22.7,5.7,36.3,6.8
		c12.5,1.1,23.8,1.1,36.3,0c12.5-1.1,23.8-3.4,35.1-6.8c12.5-3.4,22.7-7.9,34-13.6L1114,278.5z"/>
	<path fill="#4276B9" d="M1015.4,218.5c0-1.1,0-1.1,0-2.3L893,212.8c0,12.5,0,23.8,2.3,36.3c2.3,12.5,4.5,23.8,9.1,35.1
		c2.3,5.7,4.5,11.3,6.8,15.9l111.1-52.1C1018.8,238.9,1015.4,228.7,1015.4,218.5z"/>
	<path fill="#42BAEB" d="M1022.2,247.9l-111.1,52.1c2.3,4.5,4.5,9.1,7.9,14.7c6.8,11.3,12.5,20.4,21.5,29.5
		c9.1,9.1,15.9,17,26.1,24.9s19.3,13.6,30.6,19.3s21.5,10.2,34,13.6l34-117.9C1046,277.4,1030.1,264.9,1022.2,247.9z"/>
</g>
</svg>
