<?xml version="1.0" encoding="utf-8"?>
<!-- Generator: Adobe Illustrator 19.1.0, SVG Export Plug-In . SVG Version: 6.00 Build 0)  -->
<svg version="1.1" id="Layer_1" xmlns="http://www.w3.org/2000/svg" xmlns:xlink="http://www.w3.org/1999/xlink" x="0px" y="0px"
	 viewBox="-232.3 271.2 54.9 55" style="enable-background:new -232.3 271.2 54.9 55;" xml:space="preserve">
<style type="text/css">
	.st0{fill:#50BE9C;}
	.st1{fill:#8FC640;}
	.st2{fill:#6CC28A;}
	.st3{fill:#4276B9;}
	.st4{fill:#42BAEB;}
</style>
<g>
	<g>
		<path class="st0" d="M-204.8,288.8c2.8,0,5.4,1.1,7.2,3.1l13.1-12c-0.5-0.5-1-1.1-1.6-1.6c-1.3-1.3-2.6-2.3-4.1-3.3
			s-2.9-1.6-4.8-2.3c-1.8-0.7-3.3-1.1-5.1-1.5c-1.8,0-2.9-0.2-4.8-0.2s-3.4,0.2-5.2,0.5c-1.8,0.3-3.3,0.8-5.1,1.5
			c-1.8,0.7-3.1,1.5-4.8,2.5c-1.5,1-2.8,2-4.1,3.3c-1.3,1.3-2.3,2.5-3.4,3.9s-1.8,2.9-2.6,4.6c-0.8,1.6-1.3,3.3-1.6,4.9
			c-0.3,2-0.5,3.4-0.7,5.4l17.7,0.7C-214.3,293.1-210,288.8-204.8,288.8z"/>
		<path class="st1" d="M-195.5,296.2l17.2-4.3c-0.5-1.8-1-3.3-1.8-4.9s-1.6-3.1-2.6-4.6c-0.7-0.8-1.3-1.6-2-2.3l-13.1,12
			C-196.6,293.3-195.9,294.7-195.5,296.2z"/>
		<path class="st2" d="M-177.4,297.2c-0.2-1.8-0.3-3.4-0.8-5.2l-17.2,4.3c0.2,0.8,0.3,1.5,0.3,2.3c0,3.8-2.1,6.9-5.1,8.5l8.4,15.7
			c1.6-0.8,2.9-1.8,4.4-2.9c1.5-1.1,2.6-2.3,3.8-3.8c1.1-1.5,1.8-2.3,2.8-3.9c1-1.6,1.6-3.1,2.1-4.8c0.7-1.8,1-3.3,1.1-5.1
			C-177.4,300.6-177.4,299-177.4,297.2z"/>
		<path class="st3" d="M-200.4,307.2c-1.3,0.7-2.9,1.1-4.6,1.1c-1,0-1.8-0.2-2.6-0.3l-4.9,17c1.8,0.5,3.3,0.8,5.2,1
			c1.8,0.2,3.4,0.2,5.2,0c1.8-0.2,3.4-0.5,5.1-1c1.8-0.5,3.3-1.1,4.9-2L-200.4,307.2z"/>
		<path class="st3" d="M-214.6,298.5c0-0.2,0-0.2,0-0.3l-17.7-0.5c0,1.8,0,3.4,0.3,5.2s0.7,3.4,1.3,5.1c0.3,0.8,0.7,1.6,1,2.3
			l16.1-7.5C-214.1,301.5-214.6,300-214.6,298.5z"/>
		<path class="st4" d="M-213.6,302.8l-16.1,7.5c0.3,0.7,0.7,1.3,1.1,2.1c1,1.6,1.8,2.9,3.1,4.3c1.3,1.3,2.3,2.5,3.8,3.6
			c1.5,1.1,2.8,2,4.4,2.8s3.1,1.5,4.9,2l4.9-17C-210.2,307-212.5,305.2-213.6,302.8z"/>
	</g>
</g>
</svg>
