<?xml version="1.0" encoding="utf-8"?>
<!-- Generator: Adobe Illustrator 19.1.0, SVG Export Plug-In . SVG Version: 6.00 Build 0)  -->
<svg version="1.1" id="Layer_1" xmlns="http://www.w3.org/2000/svg" xmlns:xlink="http://www.w3.org/1999/xlink" x="0px" y="0px"
	 viewBox="-29.1 274.5 62.6 55" style="enable-background:new -29.1 274.5 62.6 55;" xml:space="preserve">
<style type="text/css">
	.st0{fill:#65C5B2;}
	.st1{fill:#1A4866;}
</style>
<g>
	<g id="g14" transform="translate(89.4268,98.3438)">
		<path id="path16" class="st0" d="M-80.4,190.3H-94l6.8,11.8L-80.4,190.3z"/>
	</g>
	<g id="g18" transform="translate(69.2861,97.3203)">
		<path id="path20" class="st0" d="M-75.3,192l-6.8,11.8h13.6L-75.3,192z"/>
	</g>
	<g id="g22" transform="translate(78.4736,79.4082)">
		<path id="path24" class="st0" d="M-77.6,223.3h-13.6l6.8,11.8L-77.6,223.3z"/>
	</g>
	<g id="g26" transform="translate(58.3584,78.3828)">
		<path id="path28" class="st0" d="M-72.5,225.1l-6.8,11.8h13.7L-72.5,225.1z"/>
	</g>
	<g id="g30" transform="translate(91.1904,97.3203)">
		<path id="path32" class="st0" d="M-80.9,192l-6.8,11.8H-74L-80.9,192z"/>
	</g>
	<g id="g34" transform="translate(100.3838,79.4082)">
		<path id="path36" class="st0" d="M-83.2,223.3h-13.6l6.8,11.8L-83.2,223.3z"/>
	</g>
	<g id="g38" transform="translate(80.2666,116.2793)">
		<path id="path40" class="st0" d="M-78.1,158.9l-6.8,11.8h13.6L-78.1,158.9z"/>
	</g>
	<g id="g42" transform="translate(67.5205,60.4707)">
		<path id="path44" class="st0" d="M-74.8,256.3h-13.7l6.8,11.9L-74.8,256.3z"/>
	</g>
	<g id="g46" transform="translate(102.1475,78.3828)">
		<path id="path48" class="st0" d="M-83.6,225.1l-6.8,11.8h13.7L-83.6,225.1z"/>
	</g>
	<g id="g50" transform="translate(111.3369,60.4707)">
		<path id="path52" class="st0" d="M-86,256.3h-13.7l6.8,11.9L-86,256.3z"/>
	</g>
	<g id="g54" transform="translate(80.2666,78.3828)">
		<path id="path56" class="st1" d="M-78.1,225.1l-6.8,11.8h13.6L-78.1,225.1z"/>
	</g>
	<g id="g58" transform="translate(67.5205,98.3438)">
		<path id="path60" class="st1" d="M-74.8,190.3h-13.7l6.8,11.8L-74.8,190.3z"/>
	</g>
	<g id="g62" transform="translate(38.2119,81.4688)">
		<path id="path64" class="st1" d="M-67.3,219.7h13.6l-6.8-11.8"/>
	</g>
	<g id="g66" transform="translate(47.374,63.5449)">
		<path id="path68" class="st1" d="M-69.6,251l6.8-11.8h-13.6"/>
	</g>
	<g id="g70" transform="translate(113.0986,97.3203)">
		<path id="path72" class="st1" d="M-86.4,192l-6.8,11.8h13.6L-86.4,192z"/>
	</g>
	<g id="g74" transform="translate(122.2881,79.4082)">
		<path id="path76" class="st1" d="M-88.8,223.3h-13.6l6.8,11.8L-88.8,223.3z"/>
	</g>
	<g id="g78" transform="translate(100.3838,117.3066)">
		<path id="path80" class="st1" d="M-83.2,157.2h-13.6l6.8,11.8L-83.2,157.2z"/>
	</g>
	<g id="g82" transform="translate(89.4268,60.4707)">
		<path id="path84" class="st1" d="M-80.4,256.3h-13.7l6.8,11.9L-80.4,256.3z"/>
	</g>
	<g id="g86" transform="translate(91.1904,59.4492)">
		<path id="path88" class="st1" d="M-80.9,258.1l-6.8,11.9H-74L-80.9,258.1z"/>
	</g>
	<g id="g90" transform="translate(78.4736,117.3066)">
		<path id="path92" class="st1" d="M-77.6,157.2h-13.6l6.8,11.8L-77.6,157.2z"/>
	</g>
	<g id="g94" transform="translate(58.3584,116.2793)">
		<path id="path96" class="st1" d="M-72.5,158.9l-6.8,11.8h13.7L-72.5,158.9z"/>
	</g>
	<g id="g98" transform="translate(102.1475,116.2793)">
		<path id="path100" class="st1" d="M-83.6,158.9l-6.8,11.8h13.7L-83.6,158.9z"/>
	</g>
	<g id="g102" transform="translate(111.3369,98.3438)">
		<path id="path104" class="st1" d="M-86,190.3h-13.7l6.8,11.8L-86,190.3z"/>
	</g>
	<g id="g106" transform="translate(69.2861,59.4492)">
		<path id="path108" class="st1" d="M-75.3,258.1l-6.8,11.9h13.6L-75.3,258.1z"/>
	</g>
</g>
</svg>
