<?xml version="1.0" encoding="utf-8"?>
<!-- Generator: Adobe Illustrator 19.1.0, SVG Export Plug-In . SVG Version: 6.00 Build 0)  -->
<svg version="1.1" id="Layer_1" xmlns="http://www.w3.org/2000/svg" xmlns:xlink="http://www.w3.org/1999/xlink" x="0px" y="0px"
	 viewBox="-167 273 48.3 55" style="enable-background:new -167 273 48.3 55;" xml:space="preserve">
<style type="text/css">
	.st0{fill:#004661;}
	.st1{fill:#00AEDE;}
</style>
<g>
	<path class="st0" d="M-131.1,306.5v-12l-10.4,6L-131.1,306.5"/>
	<path class="st1" d="M-131.8,293.3l-10.4-6v12L-131.8,293.3"/>
	<path class="st1" d="M-143.5,299.3v-12l-10.4,6L-143.5,299.3"/>
	<path class="st1" d="M-144.1,286.2l-10.4-6v12L-144.1,286.2"/>
	<path class="st0" d="M-131.8,307.6l-10.4-6v12L-131.8,307.6"/>
	<path class="st0" d="M-143.5,313.7v-12l-10.4,6L-143.5,313.7"/>
	<path class="st1" d="M-119.4,300.5l-10.4-6v12L-119.4,300.5"/>
	<path class="st1" d="M-155.9,292.2v-12l-10.4,6L-155.9,292.2"/>
	<path class="st0" d="M-144.1,314.8l-10.4-6v12L-144.1,314.8"/>
	<path class="st1" d="M-155.9,320.8v-12l-10.4,6L-155.9,320.8"/>
	<path class="st0" d="M-144.1,300.5l-10.4-6v12L-144.1,300.5"/>
	<path class="st1" d="M-131.1,292.2v-12l-10.4,6L-131.1,292.2"/>
	<path class="st0" d="M-142.1,273v12l10.4-6L-142.1,273"/>
	<path class="st0" d="M-153.9,279l10.4,6v-12L-153.9,279"/>
	<path class="st0" d="M-131.8,322l-10.4-6v12L-131.8,322"/>
	<path class="st0" d="M-143.5,328v-12l-10.4,6L-143.5,328"/>
	<path class="st1" d="M-118.7,313.7v-12l-10.4,6L-118.7,313.7"/>
	<path class="st1" d="M-155.9,306.5v-12l-10.4,6L-155.9,306.5"/>
	<path class="st1" d="M-156.5,307.6l-10.5-6v12L-156.5,307.6"/>
	<path class="st1" d="M-118.7,299.3v-12l-10.4,6L-118.7,299.3"/>
	<path class="st1" d="M-119.4,286.2l-10.4-6v12L-119.4,286.2"/>
	<path class="st1" d="M-119.4,314.8l-10.4-6v12L-119.4,314.8"/>
	<path class="st0" d="M-131.1,320.8v-12l-10.4,6L-131.1,320.8"/>
	<path class="st1" d="M-156.5,293.3l-10.5-6v12L-156.5,293.3"/>
</g>
</svg>
