<svg id="Layer_1" data-name="Layer 1" xmlns="http://www.w3.org/2000/svg" xmlns:xlink="http://www.w3.org/1999/xlink" viewBox="0 0 151.53 123.17"><defs><style>.cls-1,.cls-12,.cls-2,.cls-7{fill:#fff;}.cls-1,.cls-12,.cls-13,.cls-2,.cls-4,.cls-9{stroke:#3498db;}.cls-1,.cls-13,.cls-2,.cls-4,.cls-9{stroke-linecap:round;stroke-linejoin:round;}.cls-1,.cls-9{stroke-width:0.5px;}.cls-3{isolation:isolate;}.cls-13,.cls-4,.cls-9{fill:none;}.cls-5,.cls-6{fill:#3498db;}.cls-6{opacity:0.1;}.cls-8{clip-path:url(#clip-path);}.cls-10{clip-path:url(#clip-path-2);}.cls-11{clip-path:url(#clip-path-3);}.cls-12{stroke-miterlimit:10;}.cls-12,.cls-13{stroke-width:0.25px;}</style><clipPath id="clip-path"><path class="cls-1" d="M82.93,85.47l0.88,0a3.8,3.8,0,0,0-1.53.27l-0.88,0A3.8,3.8,0,0,1,82.93,85.47Z"/></clipPath><clipPath id="clip-path-2"><path class="cls-1" d="M78.58,85l0.88,0a3.66,3.66,0,0,0-1.75.4l-0.88,0A3.66,3.66,0,0,1,78.58,85Z"/></clipPath><clipPath id="clip-path-3"><path class="cls-1" d="M74.95,85.27l0.88,0a1.92,1.92,0,0,0-1,.28l-0.88,0A1.92,1.92,0,0,1,74.95,85.27Z"/></clipPath></defs><title>welcome-light</title><path class="cls-2" d="M147.31,76l-1.17,5.54c-0.3,1.41-2.38,2.66-5.31,2.66s-5-1.25-5.31-2.66L134.35,76"/><g class="cls-3"><polygon class="cls-4" points="137.72 93.53 114.28 107.15 100.68 99.3 124.11 85.67 137.72 93.53"/><polygon class="cls-4" points="137.72 93.53 137.71 95.16 114.27 108.78 114.28 107.15 137.72 93.53"/><polygon class="cls-4" points="114.28 107.15 114.27 108.78 100.67 100.92 100.68 99.3 114.28 107.15"/></g><g class="cls-3"><path class="cls-5" d="M118.18,97.41l0,0h0Z"/><path class="cls-5" d="M118.46,98a0.75,0.75,0,0,1-.45.82,1.46,1.46,0,0,1-1.44,0l0,0c-0.68-.43-1.27-1.43-0.61-1.81a0.87,0.87,0,0,1,.87,0c0.59,0.34.13,1-.33,1.47a1.29,1.29,0,0,0,.31.25l0,0a1,1,0,0,0,1,0c0.45-.25.49-0.64,0.09-1.22A3.07,3.07,0,0,0,118.46,98Zm-2.31-.88c-0.38.22-.13,0.74,0.13,1.09,0.31-.35.69-0.89,0.28-1.13a0.39,0.39,0,0,0-.41,0"/><path class="cls-5" d="M114.29,100.12c0.28,0.5.35,0.95,0,1.16a1.32,1.32,0,0,1-1.35-.07,13.77,13.77,0,0,1-2.08-2.13l-0.28.23c-0.59.47-1.4,1.09-.73,1.48a0.64,0.64,0,0,0,.73,0h0V101c0,0.22-.77.2-1.18,0-0.85-.49.12-1.2,0.8-1.74,0.13-.11.34-0.21,0.45-0.31-0.2-.26-0.3-0.6,0-0.77a0.67,0.67,0,0,1,.65,0c0.26,0.15.08,0.5-.21,0.8a15,15,0,0,0,2.1,2.18,0.85,0.85,0,0,0,.88.07c0.32-.19.13-0.68-0.21-1.22a21.09,21.09,0,0,0-1.55-1.9l0-.12,0.27,0a11.92,11.92,0,0,0,2.16,2.19,0.84,0.84,0,0,0,.87.11c0.58-.34-0.15-1.15-0.88-2s-1.31-1.69-.61-2.1h0.45V96.3c-1,.31-0.05,1.09.65,1.88s1.48,1.74.72,2.18a1.45,1.45,0,0,1-1.39-.11Zm-3.42-1.87a0.31,0.31,0,0,0,0,.42c0.18-.16.21-0.38,0.13-0.42h-0.17"/></g><path class="cls-5" d="M119.32,96.74v0l0,0Z"/><path class="cls-5" d="M119.59,97.23a0.59,0.59,0,0,1-.24.85,0.89,0.89,0,0,1-.87,0h0a3.07,3.07,0,0,1-.58-0.55l0,0L117,96.41l-0.56-.65,0.07-.13,0.23,0,0.56,0.66c0.29,0.34.56,0.68,0.88,1h0l0,0a2.82,2.82,0,0,0,.53.51,0.41,0.41,0,0,0,.41,0c0.39-.22.22-0.63-0.08-1.09a2.1,2.1,0,0,0,.4.3Z"/><path class="cls-5" d="M122.65,95.59a0.6,0.6,0,0,1-.25.72,1,1,0,0,1-1,0l0,0a2.52,2.52,0,0,1-.56-0.45,2.23,2.23,0,0,1-.43-0.66,0.56,0.56,0,0,1,.2-0.79,1.17,1.17,0,0,1,1.15,0,2.43,2.43,0,0,1,.9,1,0.7,0.7,0,0,0,.4-0.1c0.23-.13.21-0.36,0-0.72l0.49,0.6a0.48,0.48,0,0,1-.23.25A1.29,1.29,0,0,1,122.65,95.59Zm-1.06.54a0.56,0.56,0,0,0,.58,0,0.53,0.53,0,0,0,.13-0.64,1.19,1.19,0,0,1-.3-0.13,1.06,1.06,0,0,1-.23-0.17l0-.12,0.26,0,0.12,0.09a2.25,2.25,0,0,0-.71-0.73,0.69,0.69,0,0,0-.68,0,0.42,0.42,0,0,0-.1.61,2.18,2.18,0,0,0,.91,1"/><path class="cls-5" d="M126.34,92.56a2.19,2.19,0,0,0,.41.34l0,0L127,93a0.51,0.51,0,0,1-.14.74,0.86,0.86,0,0,1-.87,0c-0.5-.29-0.76-0.94-1.22-1.21a0.54,0.54,0,0,0-.57,0c-0.32.18,0,.85,0.26,1.21l0.74,0.86,0,0.11-0.27,0-0.74-.87a2.54,2.54,0,0,0-.59-0.57,0.54,0.54,0,0,0-.59,0,0.43,0.43,0,0,0-.08.51,7.41,7.41,0,0,0,.37.74v0l0.05,0.06,0.65,0.78-0.07.13-0.23,0-0.2-.24-0.49-.6-0.86-1,0-.11,0.27,0,0.09,0.12a0.44,0.44,0,0,1,.21-0.49,1,1,0,0,1,1,0,0.54,0.54,0,0,1,.19-0.7,1,1,0,0,1,1,0c0.53,0.31.75,0.93,1.23,1.2a0.36,0.36,0,0,0,.4,0C126.85,93.45,126.75,93.14,126.34,92.56Z"/><path class="cls-5" d="M120.77,95.8a2.52,2.52,0,0,0,.56.45,0.77,0.77,0,0,1-.47,1,1.43,1.43,0,0,1-1.28,0l-0.16-.08a2.1,2.1,0,0,1-.4-0.3c-0.55-.52-0.68-1.24-0.21-1.51a1,1,0,0,1,1,0c0.25,0.14.38,0.36,0.25,0.43h-0.22a0.9,0.9,0,0,0-.26-0.3,0.48,0.48,0,0,0-.52,0c-0.34.2-.17,0.81,0.24,1.25l0,0a1.66,1.66,0,0,0,.34.26,1,1,0,0,0,1,0C121.17,96.75,121.14,96.33,120.77,95.8Z"/><path class="cls-5" d="M123.29,94.55l-0.05-.06v0h0Z"/><path class="cls-5" d="M128.4,91.47c0.45,0.67.39,1.13-.17,1.45A1.46,1.46,0,0,1,127,93l-0.17-.08,0,0a2.18,2.18,0,0,1-.41-0.34c-0.46-.49-0.72-1.17-0.2-1.47a0.87,0.87,0,0,1,.87,0c0.59,0.34.13,1-.33,1.47a1.3,1.3,0,0,0,.31.25l0,0a1,1,0,0,0,1,0c0.46-.26.5-0.65,0.08-1.24l0.1-.13,0.18,0Zm-2-.25c-0.38.22-.13,0.74,0.13,1.09,0.31-.35.69-0.89,0.28-1.13a0.39,0.39,0,0,0-.41,0"/><g class="cls-3"><polygon class="cls-1" points="89.31 100.22 89.26 116.81 85.78 116.37 85.83 100.22 89.31 100.22"/><polygon class="cls-1" points="89.31 100.22 90.28 100.22 90.23 115.56 89.26 116.81 89.31 100.22"/></g><g class="cls-3"><polygon class="cls-1" points="90.67 114.69 91.01 117.72 72.52 116.43 72.18 113.39 90.67 114.69"/><polygon class="cls-1" points="90.67 114.69 91.43 114.31 91.77 117.35 91.01 117.72 90.67 114.69"/><polygon class="cls-1" points="72.18 113.39 72.94 113.02 91.43 114.31 90.67 114.69 72.18 113.39"/></g><g class="cls-3"><polygon class="cls-1" points="98.75 101.34 98.7 117.93 95.22 117.49 95.27 101.34 98.75 101.34"/><polygon class="cls-1" points="98.75 101.34 99.72 101.34 99.67 116.68 98.7 117.93 98.75 101.34"/></g><g class="cls-3"><polygon class="cls-1" points="100.57 109.47 100.91 112.5 82.42 111.21 82.08 108.17 100.57 109.47"/><polygon class="cls-1" points="100.57 109.47 101.33 109.09 101.67 112.13 100.91 112.5 100.57 109.47"/><polygon class="cls-1" points="82.08 108.17 82.84 107.8 101.33 109.09 100.57 109.47 82.08 108.17"/></g><g class="cls-3"><path class="cls-1" d="M104.54,101c1,0.05,1.26.41,0.54,0.81a6.91,6.91,0,0,1-3.12.61l-18.06-.95L86.47,100Z"/><g class="cls-3"><path class="cls-1" d="M105.49,101.35a0.57,0.57,0,0,1-.41.45,6.91,6.91,0,0,1-3.12.61l-18.06-.95,0.21,1.3,18.06,0.95a6.91,6.91,0,0,0,3.12-.61,0.57,0.57,0,0,0,.41-0.45Z"/><g class="cls-3"><polyline class="cls-1" points="105.49 101.34 105.7 102.65 105.7 102.66 105.49 101.35 105.49 101.34"/><path class="cls-1" d="M105.49,101.35l0.21,1.3a0.18,0.18,0,0,1,0,0l-0.21-1.3a0.18,0.18,0,0,0,0,0"/></g></g></g><polygon class="cls-6" points="72.75 86.29 22.57 57.34 22.57 36.71 0 48.96 72.08 90.96 72.75 86.29"/><g class="cls-3"><polygon class="cls-4" points="141.54 30.99 141.07 68.88 124.96 78.53 124.74 40.64 141.54 30.99"/><polygon class="cls-4" points="139.07 67.26 139.07 35.93 128.11 42.26 128.29 73.58 139.07 67.26"/><line class="cls-4" x1="125.09" y1="40.64" x2="125.19" y2="78.53"/></g><g class="cls-3"><polyline class="cls-4" points="122.19 38.98 138.53 29.34 141.54 30.99"/></g><polygon class="cls-4" points="124.77 40.78 124.88 78.67 91.91 97.7 91.8 59.81 124.77 40.78"/><polyline class="cls-4" points="71.54 85.82 23 57.5 22.89 19.61 91.8 59.81 91.91 97.7"/><polygon class="cls-4" points="91.8 59.81 22.85 19.54 55.82 0.5 124.77 40.78 91.8 59.81"/><line class="cls-4" x1="91.77" y1="59.97" x2="124.05" y2="78.82"/><path class="cls-5" d="M28.32,29L83.09,61,71.57,67.72v11.8L28.37,54.38,28.32,29m0-1a1,1,0,0,0-1,1l0.07,25.37a1,1,0,0,0,.5.86L71.11,80.39a1,1,0,0,0,.5.14,0.92,0.92,0,0,0,.48-0.13,1,1,0,0,0,.48-0.87V68.3l11-6.43A1,1,0,0,0,84.1,61a1,1,0,0,0-.49-0.86l-54.79-32a1,1,0,0,0-.5-0.14h0Z"/><polyline class="cls-4" points="78.72 63.79 78.74 58.3 81.29 59.97 81.28 62.62"/><line class="cls-4" x1="75.79" y1="65.46" x2="75.87" y2="56.29"/><polygon class="cls-4" points="70.76 53.93 70.68 77.39 68.13 78.06 68.21 52.26 70.76 53.93"/><polyline class="cls-4" points="68.13 78.06 65.26 76.41 65.34 50.25"/><polygon class="cls-4" points="60.13 47.79 60.06 71.26 57.51 71.93 57.59 46.13 60.13 47.79"/><polyline class="cls-4" points="57.51 71.93 54.64 70.27 54.71 44.11"/><line class="cls-4" x1="65.21" y1="74.01" x2="60.26" y2="71.13"/><polygon class="cls-4" points="49.6 41.75 49.52 65.21 46.98 65.88 47.05 40.08 49.6 41.75"/><polyline class="cls-4" points="46.98 65.88 44.11 64.23 44.18 38.07"/><line class="cls-4" x1="54.68" y1="67.96" x2="49.72" y2="65.08"/><polygon class="cls-4" points="39.16 35.61 39.08 59.08 36.54 59.75 36.61 33.94 39.16 35.61"/><polyline class="cls-4" points="36.26 59.47 33.39 57.82 33.47 31.66"/><line class="cls-4" x1="43.96" y1="61.55" x2="39.01" y2="58.67"/><polyline class="cls-4" points="33.33 55.3 30.07 53.25 30.07 30.19"/><g class="cls-3"><polygon class="cls-4" points="91.4 60.09 91.51 97.98 75.16 107.62 75.06 69.73 91.4 60.09"/><polygon class="cls-4" points="88.67 96.36 88.58 65.04 77.89 71.35 77.98 102.67 88.67 96.36"/><line class="cls-4" x1="75.06" y1="69.73" x2="75.16" y2="107.62"/></g><g class="cls-3"><polyline class="cls-4" points="72.07 106.19 72.07 68.08 88.46 58.43 91.33 60.2"/><polyline class="cls-4" points="72.16 68.08 72.19 76.27 72.27 105.97 75.16 107.62"/></g><line class="cls-4" x1="75.06" y1="69.73" x2="72.16" y2="68.08"/><line class="cls-4" x1="30.01" y1="53.25" x2="28.05" y2="54.21"/><g class="cls-3"><path class="cls-1" d="M82.28,85.78c1.78-.69,3.4,0,3.49,1.36,0.52,6.91.71,13.95,2.78,20.23l-1.79,1Z"/><g class="cls-3"><path class="cls-7" d="M82.93,85.47l0.88,0a3.8,3.8,0,0,0-1.53.27l-0.88,0A3.8,3.8,0,0,1,82.93,85.47Z"/><g class="cls-8"><g class="cls-3"><path class="cls-1" d="M82.28,85.78l-0.88,0,0.42-.14,0.88,0-0.42.14"/><path class="cls-1" d="M82.7,85.64l-0.88,0a3.61,3.61,0,0,1,1.11-.14l0.88,0a3.61,3.61,0,0,0-1.11.14"/></g></g><path class="cls-9" d="M82.93,85.47l0.88,0a3.8,3.8,0,0,0-1.53.27l-0.88,0A3.8,3.8,0,0,1,82.93,85.47Z"/></g><polygon class="cls-1" points="86.75 108.4 85.87 108.37 81.4 85.74 82.28 85.78 86.75 108.4"/><polygon class="cls-1" points="84.42 109.75 83.55 109.71 76.82 85.42 77.7 85.46 84.42 109.75"/><g class="cls-3"><path class="cls-7" d="M78.58,85l0.88,0a3.66,3.66,0,0,0-1.75.4l-0.88,0A3.66,3.66,0,0,1,78.58,85Z"/><g class="cls-10"><g class="cls-3"><path class="cls-1" d="M77.7,85.46l-0.88,0a4.19,4.19,0,0,1,.73-0.28l0.88,0a4.19,4.19,0,0,0-.73.28"/><path class="cls-1" d="M78.43,85.18l-0.88,0a3.33,3.33,0,0,1,1-.12l0.88,0a3.33,3.33,0,0,0-1,.12"/></g></g><path class="cls-9" d="M78.58,85l0.88,0a3.66,3.66,0,0,0-1.75.4l-0.88,0A3.66,3.66,0,0,1,78.58,85Z"/></g><path class="cls-1" d="M77.7,85.46c1.79-.88,3.5-0.26,3.72,1.17,1.35,7.81,2.52,15.17,4.8,22.08l-1.79,1Z"/><g class="cls-3"><path class="cls-7" d="M74.95,85.27l0.88,0a1.92,1.92,0,0,0-1,.28l-0.88,0A1.92,1.92,0,0,1,74.95,85.27Z"/><g class="cls-11"><g class="cls-3"><path class="cls-1" d="M74.8,85.59l-0.88,0a2.21,2.21,0,0,1,.52-0.22l0.88,0a2.21,2.21,0,0,0-.52.22"/><path class="cls-1" d="M75.31,85.37l-0.88,0a1.66,1.66,0,0,1,.51-0.06l0.88,0a1.66,1.66,0,0,0-.51.06"/></g></g><path class="cls-9" d="M74.95,85.27l0.88,0a1.92,1.92,0,0,0-1,.28l-0.88,0A1.92,1.92,0,0,1,74.95,85.27Z"/></g><path class="cls-1" d="M74.8,85.59c0.89-.51,1.78-0.3,2,0.41,2.44,8.65,4.6,16.39,7.12,24l-1.77,1c-2.52-7.66-5.33-15-8.45-23.28A2,2,0,0,1,74.8,85.59Z"/><g class="cls-3"><path class="cls-1" d="M82.13,111.07l-0.88,0c-2.52-7.66-5.33-15-8.45-23.28a1.06,1.06,0,0,1-.07-0.3l0.88,0a1.06,1.06,0,0,0,.07.3c3.12,8.25,5.93,15.62,8.45,23.28"/><path class="cls-1" d="M73.61,87.49l-0.88,0a1.32,1.32,0,0,1,0-.24l0.88,0a1.32,1.32,0,0,0,0,.24"/><path class="cls-1" d="M73.68,87.79a1.16,1.16,0,0,1-.06-0.55s0-.05,0-0.08a1.66,1.66,0,0,1,0-.2,2,2,0,0,1,.14-0.35l0.1-.16L74,86.32l0.13-.16,0.09-.11,0.18-.16,0.09-.08a2.57,2.57,0,0,1,.31-0.21l-0.88,0a2.56,2.56,0,0,0-.31.21l-0.09.08L73.34,86l-0.09.11-0.13.16L73,86.41l-0.09.15v0a2,2,0,0,0-.14.35v0a1.61,1.61,0,0,0,0,.18s0,0.29,0,.31v0.25h0a0.54,0.54,0,0,0,.06.3c3.12,8.25,5.93,15.5,8.45,23.16l0.88,0C79.61,103.47,76.8,96,73.68,87.79Z"/></g><g class="cls-3"><path class="cls-1" d="M79.8,112.42l-0.88,0c-2.27-6.91-5.54-13.06-8.94-19.69a1.91,1.91,0,0,1-.21-0.75l0.88,0a1.91,1.91,0,0,0,.21.75c3.4,6.63,6.67,12.78,8.94,19.69"/><path class="cls-1" d="M70.86,92.73a2,2,0,0,1-.2-0.93c0-.06,0-0.13,0-0.19a3.06,3.06,0,0,1,0-.33c0-.08,0-0.16,0-0.24a3.87,3.87,0,0,1,.17-0.51l0-.07A4.54,4.54,0,0,1,71.17,90l0.13-.22c0.07-.12.16-0.23,0.24-0.34l0.16-.2c0.1-.12.21-0.23,0.32-0.34l0.16-.16a5,5,0,0,1,.56-0.44l-0.88,0a5,5,0,0,0-.56.44l-0.16.16c-0.11.11-.22,0.22-0.32,0.34l-0.16.2c-0.09.11-.17,0.22-0.24,0.34L70.3,90l-0.08.14c-0.05.1-.1,0.2-0.14,0.3l0,0.07a4,4,0,0,0-.15.43s0,0.05,0,.08,0,0.16,0,.24,0,0.15,0,.22,0,0.07,0,.11,0,0.5,0,.57,0,0.55,0,.55h0a3.39,3.39,0,0,1,.19.38c3.4,6.63,6.67,12.59,8.94,19.5l0.88-.06C77.53,105.6,74.26,99.36,70.86,92.73Z"/></g><path class="cls-1" d="M72.74,88.32l8.85,23.06-1.79,1c-2.27-6.91-5.54-13.06-8.94-19.69C70.22,91.53,71,89.46,72.74,88.32Z"/><path class="cls-1" d="M68.18,97.29a1.44,1.44,0,0,1-.19-0.4s0-.1,0-0.15a1.94,1.94,0,0,1,0-.32c0-.05,0-0.11,0-0.17a2.72,2.72,0,0,1,0-.33c0-.08,0-0.16,0-0.24a3.65,3.65,0,0,1,.11-0.37l0-.12a4.54,4.54,0,0,1,.24-0.52l0.08-.14c0.08-.13.16-0.27,0.25-0.4l0.13-.17c0.09-.12.2-0.24,0.3-0.36l0.14-.15A5.49,5.49,0,0,1,69.8,93l-0.88,0a5.49,5.49,0,0,0-.51.46l-0.14.15c-0.11.12-.21,0.23-0.3,0.36l-0.13.17c-0.09.13-.18,0.26-0.25,0.4l-0.08.14,0,0a4.47,4.47,0,0,0-.21.47l0,0.12c0,0.07-.06.15-0.08,0.22s0,0.1,0,.15,0,0.16,0,.24,0,0.09,0,.14,0,0.13,0,.19,0,0.11,0,.17,0,0.05,0,.08a1.85,1.85,0,0,0,0,.24c0,0.05,0,.1,0,0.15a1.45,1.45,0,0,0,.19.4c3.47,5.21,7.23,10.18,9.3,16.47l0.88,0C75.41,107.47,71.65,102.5,68.18,97.29Z"/><path class="cls-1" d="M69.8,93l9.47,19.74-1.79,1c-2.07-6.28-5.83-11.26-9.3-16.47C67.47,96.26,68.21,94.24,69.8,93Z"/></g><g class="cls-3"><polygon class="cls-1" points="89.48 107 78.94 113.1 76.55 112.97 87.08 106.88 89.48 107"/><polygon class="cls-1" points="89.48 107 89.67 108.31 79.14 114.4 78.94 113.1 89.48 107"/><polygon class="cls-1" points="78.94 113.1 79.14 114.4 76.74 114.28 76.55 112.97 78.94 113.1"/></g><g class="cls-3"><polygon class="cls-1" points="92.4 107.16 81.86 113.25 79.46 113.13 89.99 107.03 92.4 107.16"/><polygon class="cls-1" points="92.4 107.16 92.59 108.46 82.06 114.56 81.86 113.25 92.4 107.16"/><polygon class="cls-1" points="81.86 113.25 82.06 114.56 79.65 114.43 79.46 113.13 81.86 113.25"/></g><g class="cls-3"><polygon class="cls-1" points="95.31 107.31 84.78 113.41 82.38 113.28 92.91 107.18 95.31 107.31"/><polygon class="cls-1" points="95.31 107.31 95.51 108.61 84.98 114.71 84.78 113.41 95.31 107.31"/><polygon class="cls-1" points="84.78 113.41 84.98 114.71 82.57 114.58 82.38 113.28 84.78 113.41"/></g><g class="cls-3"><polygon class="cls-1" points="98.23 107.46 87.7 113.56 85.3 113.43 95.83 107.34 98.23 107.46"/><polygon class="cls-1" points="98.23 107.46 98.43 108.77 87.89 114.86 87.7 113.56 98.23 107.46"/><polygon class="cls-1" points="87.7 113.56 87.89 114.86 85.49 114.74 85.3 113.43 87.7 113.56"/></g><g class="cls-3"><polygon class="cls-1" points="101.15 107.61 90.61 113.71 88.22 113.59 98.75 107.49 101.15 107.61"/><polygon class="cls-1" points="101.15 107.61 101.34 108.92 90.81 115.02 90.61 113.71 101.15 107.61"/><polygon class="cls-1" points="90.61 113.71 90.81 115.02 88.41 114.89 88.22 113.59 90.61 113.71"/></g><g class="cls-3"><polygon class="cls-1" points="76.94 107.21 76.89 121.81 73.41 121.36 73.46 107.21 76.94 107.21"/><polygon class="cls-1" points="76.94 107.21 77.91 107.21 77.86 120.56 76.89 121.81 76.94 107.21"/></g><g class="cls-3"><polygon class="cls-1" points="87.39 106.33 87.34 122.92 83.85 122.48 83.91 106.33 87.39 106.33"/><polygon class="cls-1" points="87.39 106.33 88.36 106.33 88.31 121.67 87.34 122.92 87.39 106.33"/></g><g class="cls-3"><path class="cls-1" d="M91.63,106.57c1,0.05,1.26.41,0.54,0.81A6.92,6.92,0,0,1,89,108L71,107l2.58-1.42Z"/><path class="cls-1" d="M92.58,106.93a0.57,0.57,0,0,1-.41.45A6.92,6.92,0,0,1,89,108L71,107l0.21,1.3,18.06,0.95a6.92,6.92,0,0,0,3.12-.61,0.57,0.57,0,0,0,.41-0.45Z"/></g><path class="cls-12" d="M134.53,74.7c-3.34-2-3.22-5.21.26-7.14a13.59,13.59,0,0,1,12.33.12c3.34,2,3.22,5.21-.26,7.14A13.59,13.59,0,0,1,134.53,74.7Z"/><path class="cls-2" d="M132.34,71.11v2.52a4.28,4.28,0,0,0,2.36,3.48,12.9,12.9,0,0,0,12,.12c1.74-1,2.61-2.33,2.61-3.66V71.22"/><path class="cls-2" d="M140.8,76a12.1,12.1,0,0,1-6.14-1.51c-1.51-.91-2.33-2.09-2.31-3.33s0.93-2.49,2.56-3.4a12.44,12.44,0,0,1,6-1.39A12.1,12.1,0,0,1,147,67.88c1.51,0.91,2.33,2.09,2.31,3.33s-0.93,2.49-2.56,3.4A12.44,12.44,0,0,1,140.8,76Z"/><path class="cls-6" d="M147.12,78.29l-0.26-.14-0.72,3.4c-0.3,1.41-2.38,2.66-5.31,2.66s-5-1.25-5.31-2.66l-0.71-3.39h0c-3.48,1.94-3.59,5.14-.26,7.14a13.59,13.59,0,0,0,12.33.12C150.34,83.49,150.46,80.29,147.12,78.29Z"/><path class="cls-7" d="M137.52,77a1.13,1.13,0,0,1-1-.89,1.1,1.1,0,0,1-.65.21,1.22,1.22,0,0,1-.78-0.32,1.09,1.09,0,0,1-.49.12,1.28,1.28,0,0,1-.43-0.1,1.1,1.1,0,0,1-.69.24,1.15,1.15,0,0,1-1.12-1.21,1.05,1.05,0,0,1,.06-0.28,1.11,1.11,0,0,1-.93-0.91,1.13,1.13,0,0,1-.53-0.47,1.12,1.12,0,0,1-.75-1.14,1.13,1.13,0,0,1,1.13-1h0.09a1.11,1.11,0,0,1,.49-0.61,1.12,1.12,0,0,1,0-.11,1,1,0,0,1,0-.25,1.1,1.1,0,0,1-.23-0.74,1.13,1.13,0,0,1,1-1,1.11,1.11,0,0,1,.73-0.28,1.2,1.2,0,0,1,.56.16,1,1,0,0,1,.3,0,1.26,1.26,0,0,1,.42.1,1.12,1.12,0,0,1,.48-0.22,1.13,1.13,0,0,1,1.08-.8,1.29,1.29,0,0,1,.64.22,1.13,1.13,0,0,1,.41-0.34,1.14,1.14,0,0,1,1.11-.92,1.2,1.2,0,0,1,.91.47,1.11,1.11,0,0,1,.87-0.42,1.18,1.18,0,0,1,1,.61h0.13a1.21,1.21,0,0,1,.63.21h0.11a1.21,1.21,0,0,1,.6.19,1.08,1.08,0,0,1,.54-0.15,1.27,1.27,0,0,1,1.13,1.32c0.21,0.11.38,0.62,0.49,0.62h0c0.2-1,.56-0.69,1-0.69,0,0,0-.07,0-0.06a1.1,1.1,0,0,1,1.92,0,1.11,1.11,0,0,1,.67.6,1.36,1.36,0,0,1,.86.72c0.24,0,.48-0.57.66,0.43h0a1,1,0,0,1,1.08.61,1,1,0,0,1-.75,1.31v0a1,1,0,0,1-.24.72l0,0.1a1,1,0,0,1,0,.24,1.09,1.09,0,0,1,.48.61,1.13,1.13,0,0,1-.58,1.34,1.09,1.09,0,0,1-.66.55,1.05,1.05,0,0,1-.3,0l-0.2,0a1.79,1.79,0,0,1-.33.34,1.61,1.61,0,0,1-.3.21h-0.06a2,2,0,0,0-.41.28s0,0,0,0a1.1,1.1,0,0,1-1,.54,1.15,1.15,0,0,1-.55-0.16,0.4,0.4,0,0,0-.52-0.23H145.6a1.12,1.12,0,0,1-1.33.17,1,1,0,0,1-.28-0.23,1.1,1.1,0,0,1-.26,0,1.09,1.09,0,0,1-.53,0c-0.24-.13-0.41-0.42-0.5-0.42h-0.6a1.36,1.36,0,0,1-.64-0.29,1.09,1.09,0,0,1-1,.53,1.38,1.38,0,0,1-.37-0.09,1.13,1.13,0,0,1-1,.56,1.27,1.27,0,0,1-.68-0.24,1.11,1.11,0,0,1-.85.39h-0.08Z"/><path class="cls-5" d="M138.47,66.72h0.06a0.75,0.75,0,0,1,.66.52,0.73,0.73,0,0,1,.34.13,0.75,0.75,0,0,1,.73-0.61h0.05a0.69,0.69,0,0,0,1.07.6h0a0.74,0.74,0,0,1,.48.23,0.82,0.82,0,0,1,.21,0h0a0.68,0.68,0,0,0,1.11,0h0.05a0.75,0.75,0,0,1,.7.81,0.74,0.74,0,0,1-.07.26,2.86,2.86,0,0,0,1.14.79h0s0,0,0,0a0.75,0.75,0,0,1,.75-0.7h0.05a0.73,0.73,0,0,1,.19.05,0.75,0.75,0,0,1,.72-0.57h0.05a0.75,0.75,0,0,1,.66.52,0.74,0.74,0,0,1,.66.68l0.18,0a0.75,0.75,0,0,1,.72.53s0,0,0,0l0.2,0a0.75,0.75,0,0,1,.57.27l0.17,0a0.74,0.74,0,0,1,.72.53,0.75,0.75,0,0,1-.5.94l-0.18,0a0.87,0.87,0,0,1-.24,0,0.73,0.73,0,0,1,.11.21,0.75,0.75,0,0,1-.32.84,0.69,0.69,0,0,1,.17.65,0.74,0.74,0,0,1,.51.49,0.75,0.75,0,0,1-.5.94,0.74,0.74,0,0,1-.48.48,0.68,0.68,0,0,1-.2,0,0.8,0.8,0,0,1-.3-0.06,0.73,0.73,0,0,1-.34.23,0.66,0.66,0,0,1-.19,0,0.55,0.55,0,0,0-.8.56,1.45,1.45,0,0,1,0,.16,0.75,0.75,0,0,1-1,.29,0.41,0.41,0,0,0-.7-0.26,0.75,0.75,0,0,0-.91.31,0.72,0.72,0,0,1-.68-0.46,0.78,0.78,0,0,1-.41.12,0.72,0.72,0,0,1-.35-0.09,0.75,0.75,0,0,1-.38-0.67l-0.06,0a0.78,0.78,0,0,1-.27.05h-0.12a0.72,0.72,0,0,1-.46.17H142a0.75,0.75,0,0,1-.66-0.53l-0.17.1a0.7,0.7,0,0,1,0,.09,0.75,0.75,0,0,1-.75.7h-0.05a0.74,0.74,0,0,1-.56-0.33,0.72,0.72,0,0,1,0,.14,0.75,0.75,0,0,1-.75.7h-0.06a0.68,0.68,0,0,1-.64-0.39s-0.06.09-.08,0.09h0s0-.08,0-0.08a0.72,0.72,0,0,1-.73.58l-0.05,0a0.76,0.76,0,0,1-.7-0.82v0a0.74,0.74,0,0,1-.39-0.19,0.75,0.75,0,0,1-.62.35H135.8a0.69,0.69,0,0,0-1.21-.2h-0.05a0.74,0.74,0,0,1-.44-0.2,0.75,0.75,0,0,1-.62.35h-0.05a0.75,0.75,0,0,1-.7-0.81,0.74,0.74,0,0,1,.21-0.46,0.75,0.75,0,0,1,0-.28,0.76,0.76,0,0,1-.32.08h0a0.75,0.75,0,0,1-.7-0.81v0a1,1,0,1,1-.53-2h0.06a0.73,0.73,0,0,1,.39.16,0.74,0.74,0,0,1,0-.24,0.74,0.74,0,0,1,.6-0.67,0.69,0.69,0,0,1,.07-0.67,0.74,0.74,0,0,1-.3-0.64,0.75,0.75,0,0,1,.75-0.7h0.05a0.75,0.75,0,0,1,.57-0.28h0.05a0.74,0.74,0,0,1,.45.21,0.76,0.76,0,0,1,.35-0.1h0a0.74,0.74,0,0,1,.44.2,0.75,0.75,0,0,1,.62-0.35h0.05l0.08,0a0.7,0.7,0,0,1,0-.1,0.75,0.75,0,0,1,.75-0.7h0.05a0.75,0.75,0,0,1,.67.56l0.1,0a0.72,0.72,0,0,1,0-.14,0.74,0.74,0,0,1,.63-0.68,0.71,0.71,0,0,1,0-.12,0.75,0.75,0,0,1,.75-0.7m0-.75h0A1.51,1.51,0,0,0,137,67l-0.16.11a1.48,1.48,0,0,0-.47-0.11h-0.11a1.51,1.51,0,0,0-1.36.86L134.7,68l-0.28,0h-0.1l-0.24,0a1.43,1.43,0,0,0-.51-0.13h-0.11a1.47,1.47,0,0,0-.88.3,1.51,1.51,0,0,0-1.24,1.37,1.46,1.46,0,0,0,.2.84v0.09a1.47,1.47,0,0,0-.37.44,2,2,0,0,0,0,3.28,1.51,1.51,0,0,0,.81.92,1.51,1.51,0,0,0,1.39,1.6h0.11a1.47,1.47,0,0,0,.74-0.2l0.28,0h0.11a1.44,1.44,0,0,0,.41-0.06,1.49,1.49,0,0,0,.74.26h0.11a1.47,1.47,0,0,0,.45-0.07,1.51,1.51,0,0,0,1.2.75h0.11a1.48,1.48,0,0,0,.89-0.3,1.49,1.49,0,0,0,.53.14h0.11a1.5,1.5,0,0,0,1.13-.52h0.22a1.5,1.5,0,0,0,1.08-.46,1.51,1.51,0,0,0,.44.1h0.1a1.44,1.44,0,0,0,.42-0.06,1.47,1.47,0,0,0,1.21.63h0.13a1.41,1.41,0,0,0,.23.16,1.5,1.5,0,0,0,1.64-.12h0.09a1.4,1.4,0,0,0,.24.17,1.5,1.5,0,0,0,2-.58v0a1.55,1.55,0,0,0,.32-0.33l0.26-.05A1.36,1.36,0,0,0,149,76h0.11a1.43,1.43,0,0,0,.42-0.06,1.46,1.46,0,0,0,.82-0.63,1.51,1.51,0,0,0,.66-1.72,1.46,1.46,0,0,0-.48-0.71l0-.09a1.48,1.48,0,0,0,.19-0.54,2,2,0,0,0-1.17-3.07,1.48,1.48,0,0,0-.83-0.52,5.55,5.55,0,0,0-1.79-1.22h-0.11a1.48,1.48,0,0,0-1.13.53,1.5,1.5,0,0,0-.79.34l-0.14-.12a1.51,1.51,0,0,0-1.39-1.35h-0.11a1.45,1.45,0,0,0-.52.1,1.47,1.47,0,0,0-.53,0s-0.07.18-.09,0.18h0c-0.2,0-.41-0.37-0.64-0.38a0.59,0.59,0,0,0,0-.09,1.54,1.54,0,0,0-1.09-.65l-0.11,0a1.46,1.46,0,0,0-.86.26,1.5,1.5,0,0,0-.82-0.32h-0.11Z"/><path class="cls-13" d="M141.42,73.74a0.74,0.74,0,0,0,.62-0.28,0.74,0.74,0,0,0,1.32.13,0.74,0.74,0,0,0,.44.2,0.75,0.75,0,0,0,.8-0.66,0.62,0.62,0,0,1,1-.13,0.75,0.75,0,0,0,.81-0.7,0.72,0.72,0,0,0,0-.11,0.75,0.75,0,0,0,.56-0.67"/><path class="cls-13" d="M137.35,72.6a0.74,0.74,0,0,0-.62.28,0.74,0.74,0,0,0-1.32-.13,0.74,0.74,0,0,0-.44-0.2,0.75,0.75,0,0,0-.8.66"/><path class="cls-7" d="M141.57,69.51a1.5,1.5,0,0,1-.17-0.08,1.06,1.06,0,0,1-.8-0.73,1.07,1.07,0,0,1-.29-0.16h-0.17l-0.15,0a1,1,0,0,1-.29-0.1,1,1,0,0,1-.53.15H139l-0.2-.06a1,1,0,0,1-.71.3h-0.17a1,1,0,0,1-.77-0.6H137l-0.21-.06a1,1,0,0,1-.81.4h-0.17a1,1,0,0,1-.33-0.11,1,1,0,0,1-.54.16h-0.17a1,1,0,0,1-.77-0.6h-0.15a1,1,0,0,1,.17-2.06h0.1a1,1,0,0,1,.79-0.38h0.17a0.64,0.64,0,0,0,.84-0.15,1,1,0,0,1,.33-0.42,1,1,0,0,1,0-.15,1,1,0,0,1,1-.87h0.17a1,1,0,0,1,.29.1,1,1,0,0,1,.53-0.15h0.16a1,1,0,0,1,.46.2,1,1,0,0,1,.81-0.39h0.17l0.22,0.06a1,1,0,0,1,.82-0.41h0.17a0.82,0.82,0,0,0,1.18,0h0.17a1,1,0,0,1,.85.83,1,1,0,0,1,.46-0.11h0.17a1,1,0,0,1,.59.32,1,1,0,0,1,.33-0.06,2,2,0,0,1,.16.11c0.35,0.06.63-.3,0.76,0.7h0a0.8,0.8,0,0,1,.7.37,0.15,0.15,0,0,0,0,0,1,1,0,0,1,.15,2v0.05a1,1,0,0,1-1,.86l-0.17,0a1,1,0,0,1-.29-0.1l-0.08,0a1,1,0,0,1-.94.62H144a0.91,0.91,0,0,1-.68-0.31,1.16,1.16,0,0,1-.85.56h0A4.9,4.9,0,0,1,141.57,69.51Z"/><path class="cls-5" d="M142.28,63.73h0.11a0.66,0.66,0,0,1,.54.76v0a0.64,0.64,0,0,1,.32.19,0.66,0.66,0,0,1,.51-0.26h0.1a0.56,0.56,0,0,0,1,.27h0.1a0.65,0.65,0,0,1,.54.61l0.14,0h0.09a0.66,0.66,0,0,1,.53.48h0.2a0.66,0.66,0,0,1-.11,1.31h-0.1a0.64,0.64,0,0,1,0,.33,0.66,0.66,0,0,1-.65.55h-0.11a0.41,0.41,0,0,0-.74,0,0.66,0.66,0,0,1-.64.53H144c-0.36-.06-0.6-0.19-0.54-0.55,0,0,0,.18,0,0.18h-0.06a2.48,2.48,0,0,1-.29-0.57s-0.05-.43-0.08-0.43h0a1.37,1.37,0,1,0,.06.6,0.77,0.77,0,0,1-.65.66,0.79,0.79,0,0,1-.11,0l-0.13,0a0.67,0.67,0,0,1-.63.51h-0.11a0.65,0.65,0,0,1-.54-0.67h-0.14a0.65,0.65,0,0,1-.38-0.22,0.7,0.7,0,0,1-.27.06H140a0.65,0.65,0,0,1-.37-0.21,0.66,0.66,0,0,1-.51.26h-0.1A0.65,0.65,0,0,1,138.7,68a0.66,0.66,0,0,1-.61.44H138a0.65,0.65,0,0,1-.54-0.68,0.69,0.69,0,0,1-.29.07s-0.06-.19-0.09-0.2-0.31.57-.4-0.43h0s0,0.21,0,.22a0.75,0.75,0,0,1-.65.65,0.74,0.74,0,0,1-.11,0,0.62,0.62,0,0,1-.4-0.21,0.67,0.67,0,0,1-.53.29h-0.11a0.65,0.65,0,0,1-.54-0.68,0.69,0.69,0,0,1-.29.07h-0.09a0.66,0.66,0,0,1,.11-1.31h0.11a0.63,0.63,0,0,1,.17.06,0.66,0.66,0,0,1,.61-0.44H135a0.56,0.56,0,0,0,1-.15h0.11l0.09,0a0.62,0.62,0,0,1,0-.12,0.65,0.65,0,0,1,.44-0.51,0.65,0.65,0,0,1,0-.3,0.66,0.66,0,0,1,.65-0.55h0.11a0.65,0.65,0,0,1,.37.21,0.66,0.66,0,0,1,.51-0.26h0.1a0.66,0.66,0,0,1,.54.51l0.15-.07a0.62,0.62,0,0,1,0-.08,0.66,0.66,0,0,1,.65-0.55h0.11a0.65,0.65,0,0,1,.46.34,0.63,0.63,0,0,1,0-.12,0.66,0.66,0,0,1,.65-0.55H141a1.73,1.73,0,0,1,.52.44h0.1a0.65,0.65,0,0,1,.63-0.48m0-.75h0a1,1,0,0,1-1.12,0l-0.23,0a1.41,1.41,0,0,0-.94.35h0l-0.23,0a1.41,1.41,0,0,0-.87.3,1.41,1.41,0,0,0-.34-0.1l-0.23,0a1.38,1.38,0,0,0-.54.11l-0.22-.06-0.23,0a1.4,1.4,0,0,0-1.39,1.18v0a0.77,0.77,0,0,1-.58.42l-0.17,0-0.23,0a1.39,1.39,0,0,0-.94.37,2,2,0,0,0,.75,3.42l0.23,0a1.39,1.39,0,0,0,.55-0.12l0.25,0.07a2.3,2.3,0,0,0,.23-0.16c0.36,0,.68.47,0.93-0.53h0c0.21,1,.54.73,0.94,0.8a2,2,0,0,0,.23.11,1.35,1.35,0,0,0,.8-0.21l0.06,0,0.23,0a1.38,1.38,0,0,0,.54-0.11l0.22,0.06,0.21,0h0.08l0.09,0a1.4,1.4,0,0,0,1,.78l0.23,0a25.31,25.31,0,0,1,1.71-.73,1.4,1.4,0,0,0,.62.27l0.23,0a1.41,1.41,0,0,0,1.14-.59l0.11,0,0.23,0a1.4,1.4,0,0,0,1.36-1,2.11,2.11,0,0,0-1-3.07,1.39,1.39,0,0,0-1-.64l-0.22,0-0.22,0a1.4,1.4,0,0,0-.64-0.28l-0.23,0-0.23,0a1.41,1.41,0,0,0-1-.74l-0.23,0h0Z"/><path class="cls-7" d="M141.84,69.12a0.84,0.84,0,0,0,.13-0.38,0.86,0.86,0,0,0-.77-0.92,0.85,0.85,0,0,0,.43-0.67,0.86,0.86,0,0,0-.8-0.92,0.84,0.84,0,0,0-.51.14,0.85,0.85,0,0,0-.62-0.35,0.86,0.86,0,0,0-.92.8,0.85,0.85,0,0,0,0,.27,0.84,0.84,0,0,0-.45-0.18,0.86,0.86,0,0,0-.92.77,0.86,0.86,0,0,0-.6.76,0.82,0.82,0,0,0,0,.16l-0.13,0a0.86,0.86,0,1,0-.12,1.72A0.84,0.84,0,0,0,137,70.2a0.85,0.85,0,0,0,1.1.88,0.85,0.85,0,0,0,.78.73,0.85,0.85,0,0,0,.88-1.11,0.85,0.85,0,0,0,.81-0.74,0.85,0.85,0,0,0,.79.81A0.86,0.86,0,0,0,141.84,69.12Zm-4.27.34h0a0.82,0.82,0,0,0,0-.15h0v0A0.81,0.81,0,0,0,137.58,69.46Zm2-.46a0.86,0.86,0,0,0,.11-0.12,0.85,0.85,0,0,0,.06.11l-0.14,0h0Zm1.11,0.39,0.07,0.05a0.84,0.84,0,0,0-.12.34,0.84,0.84,0,0,0-.11-0.37Z"/></svg>