<svg id="Layer_1" data-name="Layer 1" xmlns="http://www.w3.org/2000/svg" xmlns:xlink="http://www.w3.org/1999/xlink" viewBox="0 0 151.53 123.17"><defs><style>.cls-1,.cls-2,.cls-3{fill:none;}.cls-1,.cls-2,.cls-3,.cls-6{stroke:#3498db;stroke-linecap:round;stroke-linejoin:round;}.cls-1,.cls-6{stroke-width:0.5px;}.cls-2{stroke-width:0.75px;}.cls-4{isolation:isolate;}.cls-5,.cls-7{fill:#3498db;}.cls-6{fill:#fff;}.cls-7{opacity:0.1;}.cls-8{clip-path:url(#clip-path);}.cls-9{clip-path:url(#clip-path-2);}.cls-10{clip-path:url(#clip-path-3);}</style><clipPath id="clip-path"><path class="cls-1" d="M82.93,85.47l0.88,0a3.8,3.8,0,0,0-1.53.27l-0.88,0A3.8,3.8,0,0,1,82.93,85.47Z"/></clipPath><clipPath id="clip-path-2"><path class="cls-1" d="M78.58,85l0.88,0a3.66,3.66,0,0,0-1.75.4l-0.88,0A3.66,3.66,0,0,1,78.58,85Z"/></clipPath><clipPath id="clip-path-3"><path class="cls-1" d="M74.95,85.27l0.88,0a1.92,1.92,0,0,0-1,.28l-0.88,0A1.92,1.92,0,0,1,74.95,85.27Z"/></clipPath></defs><title>welcome-scene</title><path class="cls-2" d="M141.42,71.74a0.74,0.74,0,0,0,.62-0.28,0.74,0.74,0,0,0,1.32.13,0.74,0.74,0,0,0,.44.2,0.75,0.75,0,0,0,.8-0.66,0.62,0.62,0,0,1,1-.13,0.75,0.75,0,0,0,.81-0.7,0.72,0.72,0,0,0,0-.11,0.75,0.75,0,0,0,.56-0.67"/><path class="cls-2" d="M137.35,70.6a0.74,0.74,0,0,0-.62.28,0.74,0.74,0,0,0-1.32-.13,0.74,0.74,0,0,0-.44-0.2,0.75,0.75,0,0,0-.8.66"/><path class="cls-2" d="M135.87,66.14a0.59,0.59,0,0,1-.16-0.06,0.73,0.73,0,0,0-.16.39,0.71,0.71,0,0,0,0,.1l-0.08,0a0.72,0.72,0,0,1-1.12.15,0.73,0.73,0,0,0-.4.1,0.72,0.72,0,0,0-1.08.06,0.75,0.75,0,0,0-.8.7,0.74,0.74,0,0,0,.3.64,0.73,0.73,0,0,0-.13.35,0.74,0.74,0,0,0,.05.32,0.74,0.74,0,0,0-.6.67,0.73,0.73,0,0,0,0,.24,0.73,0.73,0,0,0-.39-0.16,1.21,1.21,0,0,0,.47,2v0a0.75,0.75,0,0,0,.7.81,0.74,0.74,0,0,0,.36-0.07,0.75,0.75,0,0,0,0,.28,0.74,0.74,0,0,0-.21.46,0.75,0.75,0,0,0,.7.81,0.75,0.75,0,0,0,.68-0.35,0.71,0.71,0,0,0,1.06-.07,0.74,0.74,0,0,0,1.32.13,0.74,0.74,0,0,0,.39.19s0,0,0,0a0.75,0.75,0,0,0,1.48.19h0.11a0.75,0.75,0,0,0,1.44-.23,0.71,0.71,0,0,0,0-.14,0.74,0.74,0,0,0,.56.33,0.75,0.75,0,0,0,.81-0.7,0.69,0.69,0,0,0,0-.09l0.17-.1a0.75,0.75,0,0,0,.66.53,0.72,0.72,0,0,0,.51-0.16,0.76,0.76,0,0,0,.39,0l0.06,0a0.73,0.73,0,0,0,1.14.64,0.74,0.74,0,0,0,.32.37,0.75,0.75,0,0,0,1-.26,0.62,0.62,0,0,1,1,.31,0.75,0.75,0,0,0,1-.29,1.46,1.46,0,0,0,0-.16,0.82,0.82,0,0,0,.51-0.62,2.2,2.2,0,0,1,1.32-.17,0.74,0.74,0,0,0,.48-0.48,0.75,0.75,0,0,0,.5-0.94,0.74,0.74,0,0,0-.51-0.49,0.69,0.69,0,0,0-.17-0.65,0.75,0.75,0,0,0,.32-0.84,0.73,0.73,0,0,0-.11-0.21,0.74,0.74,0,0,0,.42,0A1.21,1.21,0,0,0,149.09,68s0,0,0,0a3.46,3.46,0,0,1-1.56-1.19,0.75,0.75,0,0,0-.66-0.52,0.74,0.74,0,0,0-.77.57,0.73,0.73,0,0,0-.19-0.05,0.75,0.75,0,0,0-.81.7s0,0,0,0h0a2.86,2.86,0,0,1-1.14-.79,0.88,0.88,0,0,0,0-.15,0.65,0.65,0,0,1-.49-0.74v0h-0.06a0.62,0.62,0,0,1-.26-0.12l-0.14,0a0.62,0.62,0,0,1,.05.35,0.66,0.66,0,0,1-.76.54l-0.13,0a0.65,0.65,0,0,1-1.28-.18h-0.14a0.65,0.65,0,0,1-.38-0.22,0.6,0.6,0,0,1-.72-0.16"/><path class="cls-2" d="M146,65.89a0.63,0.63,0,0,0,.32-0.43,0.64,0.64,0,0,0,0-.33,0.66,0.66,0,0,0,.21-1.3,0.64,0.64,0,0,0-.2,0,0.66,0.66,0,0,0-.53-0.48,0.63,0.63,0,0,1-.77-0.6,0.65,0.65,0,0,0-.56.19,0.65,0.65,0,0,0-1.14-.22,0.64,0.64,0,0,0-.32-0.19v0a0.66,0.66,0,0,0-.54-0.76,0.65,0.65,0,0,0-.73.48h-0.1a0.66,0.66,0,0,0-1.28.08,0.63,0.63,0,0,0,0,.12,0.65,0.65,0,0,0-.46-0.34,0.66,0.66,0,0,0-.76.54,0.63,0.63,0,0,0,0,.08l-0.15.07a0.65,0.65,0,0,0-1.15-.27,0.65,0.65,0,0,0-.37-0.21,0.66,0.66,0,0,0-.76.54,0.65,0.65,0,0,0,0,.29,0.65,0.65,0,0,0-.44.51,0.63,0.63,0,0,0,0,.12l-0.09,0a0.64,0.64,0,0,1-1.11.14,0.65,0.65,0,0,0-.72.44,0.63,0.63,0,0,0-.17-0.06,0.66,0.66,0,0,0-.22,1.3,0.64,0.64,0,0,0,.38-0.06,0.65,0.65,0,0,0,1.18.41,0.68,0.68,0,0,0,.24.18c0.07-.24.13-0.48,0.19-0.73a0.8,0.8,0,0,1,.33,0"/><path class="cls-3" d="M147.31,77l-1.17,5.54c-0.3,1.41-2.38,2.66-5.31,2.66s-5-1.25-5.31-2.66L134.35,77"/><g class="cls-4"><polyline class="cls-3" points="100.68 99.3 124.11 85.67 137.72 93.53 114.28 107.15"/><polygon class="cls-3" points="137.72 93.53 137.71 95.16 114.27 108.78 114.28 107.15 137.72 93.53"/><polyline class="cls-3" points="106.03 102.39 114.28 107.15 114.27 108.78 105.06 103.46"/><polyline class="cls-3" points="100.67 100.35 100.68 99.3 103.31 100.81"/></g><g class="cls-4"><path class="cls-5" d="M118.18,97.41l0,0h0Z"/><path class="cls-5" d="M118.46,98a0.75,0.75,0,0,1-.45.82,1.46,1.46,0,0,1-1.44,0l0,0c-0.68-.43-1.27-1.43-0.61-1.81a0.87,0.87,0,0,1,.87,0c0.59,0.34.13,1-.33,1.47a1.29,1.29,0,0,0,.31.25l0,0a1,1,0,0,0,1,0c0.45-.25.49-0.64,0.09-1.22A3.07,3.07,0,0,0,118.46,98Zm-2.31-.88c-0.38.22-.13,0.74,0.13,1.09,0.31-.35.69-0.89,0.28-1.13a0.39,0.39,0,0,0-.41,0"/><path class="cls-5" d="M114.29,100.12c0.28,0.5.35,0.95,0,1.16a1.32,1.32,0,0,1-1.35-.07,13.77,13.77,0,0,1-2.08-2.13l-0.28.23c-0.59.47-1.4,1.09-.73,1.48a0.64,0.64,0,0,0,.73,0h0V101c0,0.22-.77.2-1.18,0-0.85-.49.12-1.2,0.8-1.74,0.13-.11.34-0.21,0.45-0.31-0.2-.26-0.3-0.6,0-0.77a0.67,0.67,0,0,1,.65,0c0.26,0.15.08,0.5-.21,0.8a15,15,0,0,0,2.1,2.18,0.85,0.85,0,0,0,.88.07c0.32-.19.13-0.68-0.21-1.22a21.09,21.09,0,0,0-1.55-1.9l0-.12,0.27,0a11.92,11.92,0,0,0,2.16,2.19,0.84,0.84,0,0,0,.87.11c0.58-.34-0.15-1.15-0.88-2s-1.31-1.69-.61-2.1h0.45V96.3c-1,.31-0.05,1.09.65,1.88s1.48,1.74.72,2.18a1.45,1.45,0,0,1-1.39-.11Zm-3.42-1.87a0.31,0.31,0,0,0,0,.42c0.18-.16.21-0.38,0.13-0.42h-0.17"/></g><path class="cls-5" d="M119.32,96.74v0l0,0Z"/><path class="cls-5" d="M119.59,97.23a0.59,0.59,0,0,1-.24.85,0.89,0.89,0,0,1-.87,0h0a3.07,3.07,0,0,1-.58-0.55l0,0L117,96.41l-0.56-.65,0.07-.13,0.23,0,0.56,0.66c0.29,0.34.56,0.68,0.88,1h0l0,0a2.82,2.82,0,0,0,.53.51,0.41,0.41,0,0,0,.41,0c0.39-.22.22-0.63-0.08-1.09a2.1,2.1,0,0,0,.4.3Z"/><path class="cls-5" d="M122.65,95.59a0.6,0.6,0,0,1-.25.72,1,1,0,0,1-1,0l0,0a2.52,2.52,0,0,1-.56-0.45,2.23,2.23,0,0,1-.43-0.66,0.56,0.56,0,0,1,.2-0.79,1.17,1.17,0,0,1,1.15,0,2.43,2.43,0,0,1,.9,1,0.7,0.7,0,0,0,.4-0.1c0.23-.13.21-0.36,0-0.72l0.49,0.6a0.48,0.48,0,0,1-.23.25A1.29,1.29,0,0,1,122.65,95.59Zm-1.06.54a0.56,0.56,0,0,0,.58,0,0.53,0.53,0,0,0,.13-0.64,1.19,1.19,0,0,1-.3-0.13,1.06,1.06,0,0,1-.23-0.17l0-.12,0.26,0,0.12,0.09a2.25,2.25,0,0,0-.71-0.73,0.69,0.69,0,0,0-.68,0,0.42,0.42,0,0,0-.1.61,2.18,2.18,0,0,0,.91,1"/><path class="cls-5" d="M126.34,92.56a2.19,2.19,0,0,0,.41.34l0,0L127,93a0.51,0.51,0,0,1-.14.74,0.86,0.86,0,0,1-.87,0c-0.5-.29-0.76-0.94-1.22-1.21a0.54,0.54,0,0,0-.57,0c-0.32.18,0,.85,0.26,1.21l0.74,0.86,0,0.11-0.27,0-0.74-.87a2.54,2.54,0,0,0-.59-0.57,0.54,0.54,0,0,0-.59,0,0.43,0.43,0,0,0-.08.51,7.41,7.41,0,0,0,.37.74v0l0.05,0.06,0.65,0.78-0.07.13-0.23,0-0.2-.24-0.49-.6-0.86-1,0-.11,0.27,0,0.09,0.12a0.44,0.44,0,0,1,.21-0.49,1,1,0,0,1,1,0,0.54,0.54,0,0,1,.19-0.7,1,1,0,0,1,1,0c0.53,0.31.75,0.93,1.23,1.2a0.36,0.36,0,0,0,.4,0C126.85,93.45,126.75,93.14,126.34,92.56Z"/><path class="cls-5" d="M120.77,95.8a2.52,2.52,0,0,0,.56.45,0.77,0.77,0,0,1-.47,1,1.43,1.43,0,0,1-1.28,0l-0.16-.08a2.1,2.1,0,0,1-.4-0.3c-0.55-.52-0.68-1.24-0.21-1.51a1,1,0,0,1,1,0c0.25,0.14.38,0.36,0.25,0.43h-0.22a0.9,0.9,0,0,0-.26-0.3,0.48,0.48,0,0,0-.52,0c-0.34.2-.17,0.81,0.24,1.25l0,0a1.66,1.66,0,0,0,.34.26,1,1,0,0,0,1,0C121.17,96.75,121.14,96.33,120.77,95.8Z"/><path class="cls-5" d="M123.29,94.55l-0.05-.06v0h0Z"/><path class="cls-5" d="M128.4,91.47c0.45,0.67.39,1.13-.17,1.45A1.46,1.46,0,0,1,127,93l-0.17-.08,0,0a2.18,2.18,0,0,1-.41-0.34c-0.46-.49-0.72-1.17-0.2-1.47a0.87,0.87,0,0,1,.87,0c0.59,0.34.13,1-.33,1.47a1.3,1.3,0,0,0,.31.25l0,0a1,1,0,0,0,1,0c0.46-.26.5-0.65,0.08-1.24l0.1-.13,0.18,0Zm-2-.25c-0.38.22-.13,0.74,0.13,1.09,0.31-.35.69-0.89,0.28-1.13a0.39,0.39,0,0,0-.41,0"/><g class="cls-4"><line class="cls-6" x1="89.31" y1="103.04" x2="89.26" y2="106.27"/><line class="cls-6" x1="90.28" y1="103.09" x2="90.23" y2="106.5"/></g><g class="cls-4"><line class="cls-1" x1="83.9" y1="117.23" x2="77.92" y2="116.81"/><polyline class="cls-1" points="90.75 114.69 90.75 117.72 88.67 117.56"/><polyline class="cls-1" points="73.41 116.49 72.52 116.43 72.18 113.39"/><polygon class="cls-6" points="90.78 115.03 91.46 114.65 91.5 117.45 90.75 117.72 90.78 115.03"/><polyline class="cls-1" points="73.41 113.5 72.18 113.39 72.94 113.02 73.41 113.07"/></g><g class="cls-4"><polyline class="cls-1" points="98.7 117.93 95.22 117.49 95.23 112.5"/><line class="cls-1" x1="98.76" y1="103.36" x2="98.73" y2="107.51"/><line class="cls-1" x1="95.25" y1="107.15" x2="95.27" y2="103.36"/><line class="cls-1" x1="99.72" y1="103.59" x2="99.7" y2="107.47"/><polyline class="cls-1" points="99.69 112.57 99.67 116.68 98.7 117.93 98.72 112.5"/></g><g class="cls-4"><polyline class="cls-1" points="100.57 109.47 100.57 112.57 95.66 112.19"/><polygon class="cls-1" points="100.57 109.47 101.33 109.09 101.33 112.13 100.57 112.57 100.57 109.47"/></g><g class="cls-4"><path class="cls-1" d="M86.9,100.07L104.54,101c1,0.05,1.26.41,0.54,0.81a6.91,6.91,0,0,1-3.12.61l-14.73-.77"/><g class="cls-4"><path class="cls-6" d="M87.54,102.95l14.62,0.77a6.91,6.91,0,0,0,3.12-.61,0.57,0.57,0,0,0,.41-0.45l-0.21-1.3a0.57,0.57,0,0,1-.41.45,6.91,6.91,0,0,1-3.12.61l-14.56-.76"/><g class="cls-4"><polyline class="cls-6" points="105.49 101.34 105.7 102.65 105.7 102.66 105.49 101.35 105.49 101.34"/><path class="cls-6" d="M105.49,101.35l0.21,1.3a0.18,0.18,0,0,1,0,0l-0.21-1.3a0.18,0.18,0,0,0,0,0"/></g></g></g><polygon class="cls-7" points="72.75 86.29 22.57 57.34 22.57 36.71 0 48.96 72.08 90.96 72.75 86.29"/><polyline class="cls-3" points="132.1 74.25 124.96 78.53 124.74 40.64 141.54 30.99 141.16 61.35"/><polyline class="cls-3" points="139.07 62.19 139.07 35.93 128.11 42.26 128.29 73.58 131.24 71.8"/><line class="cls-3" x1="125.09" y1="40.64" x2="125.19" y2="78.53"/><polyline class="cls-3" points="122.19 38.98 138.53 29.34 141.54 30.99"/><polygon class="cls-3" points="124.77 40.78 124.88 78.67 91.91 97.7 91.8 59.81 124.77 40.78"/><polyline class="cls-3" points="71.54 85.82 23 57.5 22.89 19.61 91.8 59.81 91.91 97.7"/><polygon class="cls-3" points="91.8 59.81 22.85 19.54 55.82 0.5 124.77 40.78 91.8 59.81"/><line class="cls-3" x1="91.77" y1="59.97" x2="124.05" y2="78.82"/><path class="cls-5" d="M28.32,29L83.09,61,71.57,67.72v11.8L28.37,54.38,28.32,29m0-1a1,1,0,0,0-1,1l0.07,25.37a1,1,0,0,0,.5.86L71.11,80.39a1,1,0,0,0,.5.14,0.92,0.92,0,0,0,.48-0.13,1,1,0,0,0,.48-0.87V68.3l11-6.43A1,1,0,0,0,84.1,61a1,1,0,0,0-.49-0.86l-54.79-32a1,1,0,0,0-.5-0.14h0Z"/><polyline class="cls-3" points="78.72 63.79 78.74 58.3 81.29 59.97 81.28 62.62"/><line class="cls-3" x1="75.79" y1="65.46" x2="75.87" y2="56.29"/><polygon class="cls-3" points="70.76 53.93 70.68 77.39 68.13 78.06 68.21 52.26 70.76 53.93"/><polyline class="cls-3" points="68.13 78.06 65.26 76.41 65.34 50.25"/><polygon class="cls-3" points="60.13 47.79 60.06 71.26 57.51 71.93 57.59 46.13 60.13 47.79"/><polyline class="cls-3" points="57.51 71.93 54.64 70.27 54.71 44.11"/><line class="cls-3" x1="65.21" y1="74.01" x2="60.26" y2="71.13"/><polygon class="cls-3" points="49.6 41.75 49.52 65.21 46.98 65.88 47.05 40.08 49.6 41.75"/><polyline class="cls-3" points="46.98 65.88 44.11 64.23 44.18 38.07"/><line class="cls-3" x1="54.68" y1="67.96" x2="49.72" y2="65.08"/><polygon class="cls-3" points="39.16 35.61 39.08 59.08 36.54 59.75 36.61 33.94 39.16 35.61"/><polyline class="cls-3" points="36.26 59.47 33.39 57.82 33.47 31.66"/><line class="cls-3" x1="43.96" y1="61.55" x2="39.01" y2="58.67"/><polyline class="cls-3" points="33.33 55.3 30.07 53.25 30.07 30.19"/><polyline class="cls-3" points="75.08 85.28 75.06 69.73 91.4 60.09 91.51 97.98 87.96 100.07"/><polyline class="cls-3" points="86.9 97.41 88.67 96.36 88.58 65.04 77.89 71.35 77.92 85.01"/><polyline class="cls-3" points="72.07 88.19 72.07 68.08 88.46 58.43 91.33 60.46"/><line class="cls-3" x1="75.06" y1="69.73" x2="72.16" y2="68.08"/><line class="cls-3" x1="30.01" y1="53.25" x2="28.05" y2="54.21"/><path class="cls-1" d="M86.33,106.29L82.28,85.78c1.78-.69,3.4,0,3.49,1.36,0.49,6.55.69,13.22,2.47,19.25"/><g class="cls-4"><g class="cls-8"><path class="cls-1" d="M82.28,85.78l-0.88,0,0.42-.14,0.88,0-0.42.14"/><path class="cls-1" d="M82.7,85.64l-0.88,0a3.61,3.61,0,0,1,1.11-.14l0.88,0a3.61,3.61,0,0,0-1.11.14"/></g><path class="cls-1" d="M82.93,85.47l0.88,0a3.8,3.8,0,0,0-1.53.27l-0.88,0A3.8,3.8,0,0,1,82.93,85.47Z"/></g><polyline class="cls-1" points="85.46 106.27 81.4 85.74 82.28 85.78 86.33 106.29"/><polyline class="cls-1" points="82.55 106.1 76.82 85.42 77.7 85.46 83.43 106.15"/><g class="cls-4"><g class="cls-9"><path class="cls-1" d="M77.7,85.46l-0.88,0a4.19,4.19,0,0,1,.73-0.28l0.88,0a4.19,4.19,0,0,0-.73.28"/><path class="cls-1" d="M78.43,85.18l-0.88,0a3.33,3.33,0,0,1,1-.12l0.88,0a3.33,3.33,0,0,0-1,.12"/></g><path class="cls-1" d="M78.58,85l0.88,0a3.66,3.66,0,0,0-1.75.4l-0.88,0A3.66,3.66,0,0,1,78.58,85Z"/></g><path class="cls-1" d="M83.43,106.15L77.7,85.46c1.79-.88,3.5-0.26,3.72,1.17a182.77,182.77,0,0,0,4,19.6"/><g class="cls-4"><g class="cls-10"><path class="cls-1" d="M74.8,85.59l-0.88,0a2.21,2.21,0,0,1,.52-0.22l0.88,0a2.21,2.21,0,0,0-.52.22"/><path class="cls-1" d="M75.31,85.37l-0.88,0a1.66,1.66,0,0,1,.51-0.06l0.88,0a1.66,1.66,0,0,0-.51.06"/></g><path class="cls-1" d="M74.95,85.27l0.88,0a1.92,1.92,0,0,0-1,.28l-0.88,0A1.92,1.92,0,0,1,74.95,85.27Z"/></g><path class="cls-1" d="M80.38,106c-2.1-6-4.22-11.64-6.7-18.19a2,2,0,0,1,1.12-2.2c0.89-.51,1.78-0.3,2,0.41,2,7.17,3.85,13.71,5.85,20.1"/><path class="cls-1" d="M79.44,105.78c-2.08-6-4.19-11.53-6.64-18a1.06,1.06,0,0,1-.07-0.3l0.88,0a1.06,1.06,0,0,0,.07.3"/><path class="cls-1" d="M73.61,87.49l-0.88,0a1.32,1.32,0,0,1,0-.24l0.88,0a1.32,1.32,0,0,0,0,.24"/><path class="cls-1" d="M81.7,109.86L81.4,109"/><path class="cls-1" d="M80.38,106c-2.05-5.9-4.28-11.8-6.7-18.19a1.16,1.16,0,0,1-.06-0.55s0-.05,0-0.08a1.66,1.66,0,0,1,0-.2,2,2,0,0,1,.14-0.35l0.1-.16L74,86.32l0.13-.16,0.09-.11,0.18-.16,0.09-.08a2.57,2.57,0,0,1,.31-0.21l-0.88,0a2.56,2.56,0,0,0-.31.21l-0.09.08L73.34,86l-0.09.11-0.13.16L73,86.41l-0.09.15v0a2,2,0,0,0-.14.35v0a1.61,1.61,0,0,0,0,.18s0,0.29,0,.31v0.25h0a0.54,0.54,0,0,0,.06.3c2.41,6.37,4.63,12.14,6.67,18"/><path class="cls-1" d="M77.57,108.84q0.55,1.4,1.05,2.84"/><path class="cls-1" d="M77.25,105.77c-1.9-4.38-4.12-8.61-6.39-13a1.67,1.67,0,0,1-.15-0.43v0a2.45,2.45,0,0,1,0-.47c0-.06,0-0.13,0-0.19a3.07,3.07,0,0,1,0-.33c0-.08,0-0.16,0-0.24a3.88,3.88,0,0,1,.17-0.51l0-.07A4.53,4.53,0,0,1,71.17,90l0.13-.22c0.07-.12.16-0.23,0.24-0.34l0.16-.2c0.1-.12.21-0.23,0.32-0.34l0.16-.16a5,5,0,0,1,.56-0.44l-0.88,0a5,5,0,0,0-.56.44l-0.16.16c-0.11.11-.22,0.22-0.32,0.34l-0.16.2c-0.09.11-.17,0.22-0.24,0.34L70.3,90l-0.08.14c-0.05.1-.1,0.2-0.14,0.3l0,0.07a4,4,0,0,0-.15.43s0,0.05,0,.08,0,0.16,0,.24,0,0.15,0,.22,0-.05,0,0,0,0.24,0,.24h0L70.07,92v0.19a5.45,5.45,0,0,1-.3.55h0a3.38,3.38,0,0,1,.19.38c2.24,4.37,4.43,8.45,6.31,12.71"/><path class="cls-1" d="M77.19,105.63c-1.89-4.33-4.08-8.51-6.33-12.91-0.63-1.2.18-3.27,1.89-4.41l6.7,17.46"/><path class="cls-1" d="M79.43,111.34q-0.46-1.32-1-2.61"/><line class="cls-1" x1="80.67" y1="108.96" x2="81.16" y2="110.26"/><path class="cls-1" d="M73.66,105.63c-1.75-3-3.58-5.49-5.48-8.34a1.44,1.44,0,0,1-.19-0.4s0-.1,0-0.15a1.94,1.94,0,0,1,0-.32c0-.05,0-0.11,0-0.17a2.72,2.72,0,0,1,0-.33c0-.08,0-0.16,0-0.24a3.65,3.65,0,0,1,.11-0.37l0-.12a4.54,4.54,0,0,1,.24-0.52l0.08-.14c0.08-.13.16-0.27,0.25-0.4l0.13-.17c0.09-.12.2-0.24,0.3-0.36l0.14-.15A5.49,5.49,0,0,1,69.8,93l-0.88,0a5.49,5.49,0,0,0-.51.46l-0.14.15c-0.11.12-.21,0.23-0.3,0.36l-0.13.17c-0.09.13-.18,0.26-0.25,0.4l-0.08.14,0,0a4.47,4.47,0,0,0-.21.47l0,0.12c0,0.07-.06.15-0.08,0.22s0,0.1,0,.15,0,0.16,0,.24,0,0.09,0,.14,0,0.13,0,.19,0,0.11,0,.17,0,0.05,0,.08a1.85,1.85,0,0,0,0,.24c0,0.05,0,.1,0,0.15a1.45,1.45,0,0,0,.19.4c1.85,2.78,3.79,5.49,5.5,8.37"/><path class="cls-1" d="M73.66,105.63c-1.71-2.87-3.64-5.57-5.48-8.34-0.71-1,0-3.05,1.62-4.31l6.06,12.65"/><g class="cls-4"><line class="cls-1" x1="83.85" y1="110.26" x2="78.94" y2="113.1"/><line class="cls-1" x1="78.1" y1="112.08" x2="83.4" y2="109.01"/><polyline class="cls-1" points="78.12 113.06 78.94 113.1 79.14 114.4 78.11 114.35"/></g><g class="cls-4"><polyline class="cls-1" points="83.9 112.07 81.86 113.25 79.46 113.13 83.93 110.54"/><polygon class="cls-1" points="81.86 113.25 82.06 114.56 79.65 114.43 79.46 113.13 81.86 113.25"/></g><g class="cls-4"><polyline class="cls-1" points="92.91 107.18 95.31 107.31 88.36 111.33"/><line class="cls-1" x1="82.38" y1="113.28" x2="83.89" y2="112.34"/><polyline class="cls-1" points="83.9 114.65 82.57 114.58 82.38 113.28 83.89 113.36"/></g><g class="cls-4"><polyline class="cls-1" points="88.41 111.63 95.83 107.34 98.23 107.46 88.36 113.18"/></g><g class="cls-4"><polygon class="cls-1" points="101.33 107.61 90.75 113.71 88.4 113.59 98.75 107.49 101.33 107.61"/><polygon class="cls-1" points="101.33 107.61 101.33 108.92 90.75 115.02 90.75 113.71 101.33 107.61"/><polygon class="cls-1" points="90.75 113.71 90.75 115.02 88.41 114.89 88.4 113.59 90.75 113.71"/></g><g class="cls-4"><polyline class="cls-1" points="76.94 108.73 76.89 121.81 73.41 121.36 73.46 108.51"/><polyline class="cls-1" points="77.91 109.83 77.86 120.56 76.89 121.81 76.94 108.73"/></g><g class="cls-4"><polyline class="cls-1" points="87.39 109.2 87.34 122.92 83.85 122.48 83.91 109.02"/><polyline class="cls-1" points="88.36 109.3 88.31 121.67 87.34 122.92 87.39 109.2"/></g><g class="cls-4"><path class="cls-1" d="M91.63,106.57c1,0.05,1.26.41,0.54,0.81A6.92,6.92,0,0,1,89,108L71,107l2.58-1.42Z"/><path class="cls-1" d="M92.58,106.93a0.57,0.57,0,0,1-.41.45A6.92,6.92,0,0,1,89,108L71,107l0.21,1.3,18.06,0.95a6.92,6.92,0,0,0,3.12-.61,0.57,0.57,0,0,0,.41-0.45Z"/></g><path class="cls-3" d="M132.34,73.64a4.28,4.28,0,0,0,2.36,3.48,12.9,12.9,0,0,0,12,.12c1.74-1,2.61-2.33,2.61-3.66"/><path class="cls-7" d="M147.12,79.29l-0.26-.14-0.72,3.4c-0.3,1.41-2.38,2.66-5.31,2.66s-5-1.25-5.31-2.66l-0.71-3.39h0c-3.48,1.94-3.59,5.14-.26,7.14a13.59,13.59,0,0,0,12.33.12C150.34,84.49,150.46,81.29,147.12,79.29Z"/></svg>