<svg id="Layer_1" data-name="Layer 1" xmlns="http://www.w3.org/2000/svg" viewBox="0 0 2086 684"><defs><style>.cls-1,.cls-15,.cls-16,.cls-17,.cls-19,.cls-3,.cls-4,.cls-5,.cls-7,.cls-8{fill:none;}.cls-18,.cls-2{fill:#313131;}.cls-19,.cls-3,.cls-4,.cls-5,.cls-7,.cls-8{stroke:#3b96d3;}.cls-15,.cls-19,.cls-3,.cls-4,.cls-5{stroke-linecap:round;stroke-linejoin:round;}.cls-3{stroke-width:5px;}.cls-4{stroke-width:2.33px;}.cls-5,.cls-7{stroke-width:1.16px;}.cls-6{fill:#3b96d3;}.cls-16,.cls-17,.cls-18,.cls-7,.cls-8{stroke-miterlimit:10;}.cls-8{stroke-width:0.58px;}.cls-9{fill:#939393;}.cls-10,.cls-12{fill:#5c5c5c;}.cls-10{opacity:0.2;isolation:isolate;}.cls-11{fill:#888;}.cls-13{fill:#575757;}.cls-14{fill:#1a1a1a;}.cls-15{stroke:#1f2020;stroke-width:2.94px;}.cls-16,.cls-17,.cls-18{stroke:#3c96d2;}.cls-16,.cls-17{stroke-width:2px;}.cls-17{stroke-linecap:square;}.cls-19{stroke-width:3px;}</style></defs><title>welcome-scene-dark</title><line class="cls-1" x1="1662.98" y1="573" x2="1074.3" y2="407.8"/><polyline class="cls-2" points="1662.98 573 2251.7 407.8 1665.7 243.8 1074.3 407.8"/><polygon class="cls-2" points="2255 409.1 1662.98 572.2 1662.98 684 2255 684 2255 409.1"/><polyline class="cls-2" points="1074.3 684 1074.3 407.8 1662.98 572.7 1662.98 684"/><line class="cls-3" x1="1662.98" y1="573" x2="1074.3" y2="407.8"/><polyline class="cls-3" points="1662.98 573 2251.7 407.8 1665.7 243.8 1074.3 407.8"/><line class="cls-3" x1="1662.98" y1="573.2" x2="1662.98" y2="684"/><polygon class="cls-2" points="1730.6 301.7 1730.6 235.5 1615.5 266.5 1615.5 332.6 1730.6 301.7"/><polygon class="cls-2" points="1567.8 253.5 1567.8 319.6 1615.5 333 1615.5 266.9 1567.8 253.5"/><polyline class="cls-2" points="1567.3 253 1682.4 222.1 1730.7 235.5 1615.4 266.5 1567.3 253.1"/><polygon class="cls-4" points="1567.8 252.6 1567.8 318.8 1615.5 332.2 1615.5 266.1 1567.8 252.6"/><line class="cls-5" x1="1574.9" y1="297.3" x2="1579.4" y2="298.5"/><line class="cls-5" x1="1578.9" y1="255.4" x2="1578.9" y2="321.6"/><line class="cls-5" x1="1597.7" y1="304" x2="1602.2" y2="305.2"/><line class="cls-5" x1="1578.2" y1="316.8" x2="1580.3" y2="317.4"/><line class="cls-5" x1="1601.2" y1="323.5" x2="1603.3" y2="324.1"/><line class="cls-5" x1="1578.2" y1="260" x2="1580.3" y2="260.6"/><line class="cls-5" x1="1601.2" y1="266.7" x2="1603.3" y2="267.3"/><line class="cls-5" x1="1602.1" y1="262.4" x2="1602.1" y2="328.6"/><polygon class="cls-4" points="1730.6 301.3 1730.6 235.1 1615.5 266.1 1615.5 332.2 1730.6 301.3"/><polyline class="cls-4" points="1567.5 252.6 1682.6 221.7 1730.9 235.1 1615.6 266.1 1567.5 252.6"/><line class="cls-4" x1="1589.9" y1="258.9" x2="1589.9" y2="325.1"/><path class="cls-6" d="M1595.1,273.3l15.1,4.3v5l-15.1-4.3v-5m0-1.7a1.3,1.3,0,0,0-1,.4,1.7,1.7,0,0,0-.7,1.4v5a1.7,1.7,0,0,0,1.3,1.7l15.1,4.3h0.5a1.3,1.3,0,0,0,1-.4,1.7,1.7,0,0,0,.7-1.4v-5a1.7,1.7,0,0,0-1.3-1.7l-15.1-4.3h-0.5Z"/><path class="cls-6" d="M1595.1,291.2l15.1,4.3v5l-15.1-4.3v-5m0-1.8a1.3,1.3,0,0,0-1,.4,1.7,1.7,0,0,0-.7,1.4v5a1.7,1.7,0,0,0,1.3,1.7l15.1,4.3h0.5a1.3,1.3,0,0,0,1-.4,1.7,1.7,0,0,0,.7-1.4v-5a1.7,1.7,0,0,0-1.3-1.7l-15.1-4.3h-0.5Z"/><path class="cls-6" d="M1595.1,309l15.1,4.3v5l-15.1-4.3v-5m0-1.8a1.3,1.3,0,0,0-1,.4,1.7,1.7,0,0,0-.7,1.4v5a1.7,1.7,0,0,0,1.3,1.7l15.1,4.3h0.5a1.3,1.3,0,0,0,1-.4,1.7,1.7,0,0,0,.7-1.4v-5a1.7,1.7,0,0,0-1.3-1.7l-15.1-4.3h-0.5Z"/><path class="cls-6" d="M1645.3,266.4v48.9l-5.8,1.6V268l5.8-1.6m0-2.3h-0.6l-5.8,1.6a2.3,2.3,0,0,0-1.7,2.2v49a2.1,2.1,0,0,0,.9,1.8,2.4,2.4,0,0,0,1.4.5h0.6l5.8-1.6a2.3,2.3,0,0,0,1.7-2.2v-49a2.1,2.1,0,0,0-.9-1.8,2.4,2.4,0,0,0-1.4-.5h0Z"/><line class="cls-7" x1="1642.8" y1="317" x2="1642.8" y2="267"/><path class="cls-6" d="M1691.2,254.2V303l-5.8,1.6V255.8l5.8-1.6m0-2.3h-0.6l-5.8,1.6a2.3,2.3,0,0,0-1.7,2.2v48.8a2.1,2.1,0,0,0,.9,1.8,2.4,2.4,0,0,0,1.4.5h0.6l5.8-1.6a2.3,2.3,0,0,0,1.7-2.2V254.2a2.1,2.1,0,0,0-.9-1.8,1.6,1.6,0,0,0-1.4-.5h0Z"/><line class="cls-7" x1="1689.3" y1="304.2" x2="1689.3" y2="255.4"/><path class="cls-6" d="M1721.9,246.8v48.8l-5.8,1.6V248.4l5.8-1.6m0-2.3h-0.6l-5.8,1.5a2.3,2.3,0,0,0-1.7,2.2V297a2.1,2.1,0,0,0,.9,1.8,2.4,2.4,0,0,0,1.4.5h0.6l5.8-1.6a2.3,2.3,0,0,0,1.7-2.2V246.7a2.1,2.1,0,0,0-.9-1.8,2.3,2.3,0,0,0-1.4-.4h0Z"/><line class="cls-7" x1="1719.5" y1="297.2" x2="1719.5" y2="247.2"/><path class="cls-6" d="M1675.9,257.9v48.8l-5.8,1.6V259.5l5.8-1.6m0-2.3h-0.6l-5.8,1.6a2.3,2.3,0,0,0-1.7,2.2v48.8a2.1,2.1,0,0,0,.9,1.8,2.4,2.4,0,0,0,1.4.5h0.6l5.8-1.6a2.3,2.3,0,0,0,1.7-2.2V257.9a2.1,2.1,0,0,0-.9-1.8,1.9,1.9,0,0,0-1.4-.5h0Z"/><line class="cls-7" x1="1673" y1="307.7" x2="1673" y2="258.9"/><path class="cls-6" d="M1706.6,250.5v48.8l-5.8,1.6V252.1l5.8-1.6m0-2.3H1706l-5.8,1.5a2.3,2.3,0,0,0-1.7,2.2v49a2.1,2.1,0,0,0,.9,1.8,2.4,2.4,0,0,0,1.4.5h0.6l5.8-1.6a2.3,2.3,0,0,0,1.7-2.2V250.5a2.1,2.1,0,0,0-.9-1.8,1.9,1.9,0,0,0-1.4-.5h0Z"/><line class="cls-7" x1="1704.4" y1="300.7" x2="1704.4" y2="251.9"/><path class="cls-6" d="M1660.6,262.7v48.8l-5.8,1.6V264.3l5.8-1.6m0-2.3H1660l-5.8,1.6a2.3,2.3,0,0,0-1.7,2.2V313a2.1,2.1,0,0,0,.9,1.8,2.4,2.4,0,0,0,1.4.5h0.6l5.8-1.6a2.3,2.3,0,0,0,1.7-2.2V262.7a2.1,2.1,0,0,0-.9-1.8,2.4,2.4,0,0,0-1.4-.5h0Z"/><line class="cls-7" x1="1657.9" y1="313.5" x2="1657.9" y2="263.5"/><path class="cls-6" d="M1630,270.8v48.9l-5.8,1.6V272.4l5.8-1.6m0-2.3h-0.6l-5.8,1.5a2.3,2.3,0,0,0-1.7,2.2v48.9a2.1,2.1,0,0,0,.9,1.8,2.4,2.4,0,0,0,1.4.5h0.6l5.8-1.6a2.3,2.3,0,0,0,1.7-2.2V270.7a2.1,2.1,0,0,0-.9-1.8,3.3,3.3,0,0,0-1.4-.4h0Z"/><line class="cls-7" x1="1627.7" y1="320.5" x2="1627.7" y2="270.5"/><polyline class="cls-7" points="1609.1 312.3 1609.1 316.3 1594.9 312.3"/><line class="cls-8" x1="1608.6" y1="316.1" x2="1610.8" y2="318.6"/><path class="cls-6" d="M1571.2,302.6l15.1,4.3v5l-15.1-4.3v-5m0-1.8a1.3,1.3,0,0,0-1,.4,1.7,1.7,0,0,0-.7,1.4v5a1.7,1.7,0,0,0,1.3,1.7l15.1,4.3h0.5a1.3,1.3,0,0,0,1-.4,1.7,1.7,0,0,0,.7-1.4v-5a1.7,1.7,0,0,0-1.3-1.7l-15.1-4.3h-0.5Z"/><polyline class="cls-7" points="1584.7 306.5 1584.7 309.9 1570.5 306.2"/><line class="cls-8" x1="1584.7" y1="309.7" x2="1586.9" y2="312.2"/><path class="cls-6" d="M1571.2,284.6l15.1,4.3v5l-15.1-4.3v-5m0-1.7a1.3,1.3,0,0,0-1,.4,1.7,1.7,0,0,0-.7,1.4v5a1.7,1.7,0,0,0,1.3,1.7l15.1,4.3h0.5a1.3,1.3,0,0,0,1-.4,1.7,1.7,0,0,0,.7-1.4v-5a1.7,1.7,0,0,0-1.3-1.7l-15.1-4.3h-0.5Z"/><polyline class="cls-7" points="1584.7 287.9 1584.7 292 1570.5 287.9"/><line class="cls-8" x1="1584.7" y1="291.7" x2="1586.9" y2="294.2"/><path class="cls-6" d="M1571.2,267l15.1,4.3v5l-15.1-4.3v-5m0-1.7a1.3,1.3,0,0,0-1,.4,1.7,1.7,0,0,0-.7,1.4v5a1.7,1.7,0,0,0,1.3,1.7l15.1,4.3h0.5a1.3,1.3,0,0,0,1-.4,1.7,1.7,0,0,0,.7-1.4v-5a1.7,1.7,0,0,0-1.3-1.7l-15.1-4.3h-0.5Z"/><polyline class="cls-7" points="1584.7 270.5 1584.7 274.3 1570.5 270.4"/><line class="cls-8" x1="1584.7" y1="274.1" x2="1586.9" y2="276.6"/><polyline class="cls-7" points="1609.1 294.9 1609.1 298.4 1594.9 294.7"/><line class="cls-8" x1="1608.5" y1="298.2" x2="1610.7" y2="300.7"/><polyline class="cls-7" points="1609.1 276.3 1609.1 280.6 1594.9 276.4"/><line class="cls-8" x1="1608.6" y1="280.3" x2="1610.8" y2="282.8"/><polygon class="cls-2" points="1865.7 340.7 1865.7 274.5 1750.6 305.5 1750.6 371.6 1865.7 340.7"/><polygon class="cls-2" points="1702.9 292.5 1702.9 358.6 1750.6 372 1750.6 305.9 1702.9 292.5"/><polyline class="cls-2" points="1702.3 292 1817.5 261.1 1865.8 274.5 1750.4 305.5 1702.3 292.1"/><polygon class="cls-4" points="1702.9 291.6 1702.9 357.8 1750.6 371.2 1750.6 305.1 1702.9 291.6"/><line class="cls-5" x1="1710" y1="336.3" x2="1714.5" y2="337.5"/><line class="cls-5" x1="1713.9" y1="294.4" x2="1713.9" y2="360.6"/><line class="cls-5" x1="1732.8" y1="343" x2="1737.2" y2="344.2"/><line class="cls-5" x1="1713.3" y1="355.8" x2="1715.4" y2="356.4"/><line class="cls-5" x1="1736.3" y1="362.5" x2="1738.4" y2="363.1"/><line class="cls-5" x1="1713.3" y1="299" x2="1715.4" y2="299.6"/><line class="cls-5" x1="1736.3" y1="305.7" x2="1738.4" y2="306.3"/><line class="cls-5" x1="1737.2" y1="301.4" x2="1737.2" y2="367.6"/><polygon class="cls-4" points="1865.7 340.3 1865.7 274.1 1750.6 305.1 1750.6 371.2 1865.7 340.3"/><polyline class="cls-4" points="1702.6 291.6 1817.7 260.7 1866 274.1 1750.7 305.1 1702.6 291.6"/><line class="cls-4" x1="1725" y1="297.9" x2="1725" y2="364.1"/><path class="cls-6" d="M1730.2,312.3l15.1,4.3v5l-15.1-4.3v-5m0-1.7a1.3,1.3,0,0,0-1,.4,1.7,1.7,0,0,0-.7,1.4v5a1.7,1.7,0,0,0,1.3,1.7l15.1,4.3h0.5a1.3,1.3,0,0,0,1-.4,1.7,1.7,0,0,0,.7-1.4v-5a1.7,1.7,0,0,0-1.3-1.7l-15.1-4.3h-0.5Z"/><path class="cls-6" d="M1730.2,330.2l15.1,4.3v5l-15.1-4.3v-5m0-1.8a1.3,1.3,0,0,0-1,.4,1.7,1.7,0,0,0-.7,1.4v5a1.7,1.7,0,0,0,1.3,1.7l15.1,4.3h0.5a1.3,1.3,0,0,0,1-.4,1.7,1.7,0,0,0,.7-1.4v-5a1.7,1.7,0,0,0-1.3-1.7l-15.1-4.3h-0.5Z"/><path class="cls-6" d="M1730.2,348l15.1,4.3v5l-15.1-4.3v-5m0-1.8a1.3,1.3,0,0,0-1,.4,1.7,1.7,0,0,0-.7,1.4v5a1.7,1.7,0,0,0,1.3,1.7l15.1,4.3h0.5a1.3,1.3,0,0,0,1-.4,1.7,1.7,0,0,0,.7-1.4v-5a1.7,1.7,0,0,0-1.3-1.7l-15.1-4.3h-0.5Z"/><path class="cls-6" d="M1780.4,305.4v48.9l-5.8,1.6V307l5.8-1.6m0-2.3h-0.6l-5.8,1.6a2.3,2.3,0,0,0-1.7,2.2v49a2.1,2.1,0,0,0,.9,1.8,2.4,2.4,0,0,0,1.4.5h0.6l5.8-1.6a2.3,2.3,0,0,0,1.7-2.2v-49a2.1,2.1,0,0,0-.9-1.8,2.4,2.4,0,0,0-1.4-.5h0Z"/><line class="cls-7" x1="1777.9" y1="356" x2="1777.9" y2="306"/><path class="cls-6" d="M1826.3,293.2V342l-5.8,1.6V294.8l5.8-1.6m0-2.3h-0.6l-5.8,1.5a2.3,2.3,0,0,0-1.7,2.2v48.8a2.1,2.1,0,0,0,.9,1.8,2.4,2.4,0,0,0,1.4.5h0.6l5.8-1.6a2.3,2.3,0,0,0,1.7-2.2V293.1a2.1,2.1,0,0,0-.9-1.8,2.3,2.3,0,0,0-1.4-.4h0Z"/><line class="cls-7" x1="1824.4" y1="343.2" x2="1824.4" y2="294.4"/><path class="cls-6" d="M1857,285.8v48.8l-5.8,1.6V287.4l5.8-1.6m0-2.3h-0.6l-5.8,1.5a2.3,2.3,0,0,0-1.7,2.2V336a2.1,2.1,0,0,0,.9,1.8,2.4,2.4,0,0,0,1.4.5h0.6l5.8-1.6a2.3,2.3,0,0,0,1.7-2.2V285.7a2.1,2.1,0,0,0-.9-1.8,2.3,2.3,0,0,0-1.4-.4h0Z"/><line class="cls-7" x1="1854.6" y1="336.2" x2="1854.6" y2="286.2"/><path class="cls-6" d="M1811,296.9v48.8l-5.8,1.6V298.5l5.8-1.6m0-2.3h-0.6l-5.8,1.5a2.3,2.3,0,0,0-1.7,2.2v48.8a2.1,2.1,0,0,0,.9,1.8,2.4,2.4,0,0,0,1.4.5h0.6l5.8-1.6a2.3,2.3,0,0,0,1.7-2.2V296.9a2.1,2.1,0,0,0-.9-1.8,1.9,1.9,0,0,0-1.4-.5h0Z"/><line class="cls-7" x1="1808.1" y1="346.7" x2="1808.1" y2="297.9"/><path class="cls-6" d="M1841.6,289.5v48.8l-5.8,1.6V291.1l5.8-1.6m0-2.3H1841l-5.8,1.5a2.3,2.3,0,0,0-1.7,2.2v49a2.1,2.1,0,0,0,.9,1.8,2.4,2.4,0,0,0,1.4.5h0.6l5.8-1.6a2.3,2.3,0,0,0,1.7-2.2V289.5a2.1,2.1,0,0,0-.9-1.8,1.9,1.9,0,0,0-1.4-.5h0Z"/><line class="cls-7" x1="1839.5" y1="339.7" x2="1839.5" y2="290.9"/><path class="cls-6" d="M1795.7,301.7v48.8l-5.8,1.6V303.3l5.8-1.6m0-2.3h-0.6l-5.8,1.6a2.3,2.3,0,0,0-1.7,2.2V352a2.1,2.1,0,0,0,.9,1.8,2.4,2.4,0,0,0,1.4.5h0.6l5.8-1.6a2.3,2.3,0,0,0,1.7-2.2V301.7a2.1,2.1,0,0,0-.9-1.8,2.4,2.4,0,0,0-1.4-.5h0Z"/><line class="cls-7" x1="1793" y1="352.5" x2="1793" y2="302.5"/><path class="cls-6" d="M1765.1,309.8v48.9l-5.8,1.6V311.4l5.8-1.6m0-2.3h-0.6l-5.8,1.6a2.3,2.3,0,0,0-1.7,2.2v48.9a2.1,2.1,0,0,0,.9,1.8,2.4,2.4,0,0,0,1.4.5h0.6l5.8-1.6a2.3,2.3,0,0,0,1.7-2.2V309.8a2.1,2.1,0,0,0-.9-1.8,2.4,2.4,0,0,0-1.4-.5h0Z"/><line class="cls-7" x1="1762.8" y1="359.5" x2="1762.8" y2="309.5"/><polyline class="cls-7" points="1744.2 351.3 1744.2 355.3 1730 351.3"/><line class="cls-8" x1="1743.7" y1="355.1" x2="1745.9" y2="357.6"/><path class="cls-6" d="M1706.3,341.6l15.1,4.3v5l-15.1-4.3v-5m0-1.8a1.3,1.3,0,0,0-1,.4,1.7,1.7,0,0,0-.7,1.4v5a1.7,1.7,0,0,0,1.3,1.7l15.1,4.3h0.5a1.3,1.3,0,0,0,1-.4,1.7,1.7,0,0,0,.7-1.4v-5a1.7,1.7,0,0,0-1.3-1.7l-15.1-4.3h-0.5Z"/><polyline class="cls-7" points="1719.8 345.5 1719.8 348.9 1705.6 345.2"/><line class="cls-8" x1="1719.8" y1="348.7" x2="1722" y2="351.2"/><path class="cls-6" d="M1706.3,323.6l15.1,4.3v5l-15.1-4.3v-5m0-1.7a1.3,1.3,0,0,0-1,.4,1.7,1.7,0,0,0-.7,1.4v5a1.7,1.7,0,0,0,1.3,1.7l15.1,4.3h0.5a1.3,1.3,0,0,0,1-.4,1.7,1.7,0,0,0,.7-1.4v-5a1.7,1.7,0,0,0-1.3-1.7l-15.1-4.3h-0.5Z"/><polyline class="cls-7" points="1719.8 326.9 1719.8 331 1705.6 326.9"/><line class="cls-8" x1="1719.8" y1="330.7" x2="1722" y2="333.2"/><path class="cls-6" d="M1706.3,306l15.1,4.3v5l-15.1-4.3v-5m0-1.7a1.3,1.3,0,0,0-1,.4,1.7,1.7,0,0,0-.7,1.4v5a1.7,1.7,0,0,0,1.3,1.7l15.1,4.3h0.5a1.3,1.3,0,0,0,1-.4,1.7,1.7,0,0,0,.7-1.4v-5a1.7,1.7,0,0,0-1.3-1.7l-15.1-4.3h-0.5Z"/><polyline class="cls-7" points="1719.8 309.5 1719.8 313.3 1705.6 309.4"/><line class="cls-8" x1="1719.8" y1="313.1" x2="1722" y2="315.6"/><polyline class="cls-7" points="1744.2 333.9 1744.2 337.4 1730 333.7"/><line class="cls-8" x1="1743.5" y1="337.2" x2="1745.8" y2="339.7"/><polyline class="cls-7" points="1744.2 315.3 1744.2 319.6 1730 315.4"/><line class="cls-8" x1="1743.6" y1="319.3" x2="1745.9" y2="321.8"/><polygon class="cls-2" points="2000.2 379.3 2000.2 313.1 1885.1 344.1 1885.1 410.2 2000.2 379.3"/><polygon class="cls-2" points="1837.4 331.1 1837.4 397.2 1885.1 410.6 1885.1 344.5 1837.4 331.1"/><polyline class="cls-2" points="1836.9 330.6 1952 299.7 2000.3 313.1 1885 344.1 1836.9 330.7"/><polygon class="cls-4" points="1837.4 330.2 1837.4 396.4 1885.1 409.8 1885.1 343.7 1837.4 330.2"/><line class="cls-5" x1="1844.5" y1="374.9" x2="1849" y2="376.1"/><line class="cls-5" x1="1848.5" y1="333" x2="1848.5" y2="399.2"/><line class="cls-5" x1="1867.3" y1="381.6" x2="1871.7" y2="382.8"/><line class="cls-5" x1="1847.8" y1="394.4" x2="1849.9" y2="395"/><line class="cls-5" x1="1870.8" y1="401.1" x2="1872.9" y2="401.7"/><line class="cls-5" x1="1847.8" y1="337.6" x2="1849.9" y2="338.2"/><line class="cls-5" x1="1870.8" y1="344.3" x2="1872.9" y2="344.9"/><line class="cls-5" x1="1871.7" y1="340" x2="1871.7" y2="406.2"/><polygon class="cls-4" points="2000.2 378.9 2000.2 312.7 1885.1 343.7 1885.1 409.8 2000.2 378.9"/><polyline class="cls-4" points="1837.1 330.2 1952.2 299.3 2000.5 312.7 1885.2 343.7 1837.1 330.2"/><line class="cls-4" x1="1859.5" y1="336.5" x2="1859.5" y2="402.7"/><path class="cls-6" d="M1864.7,350.9l15.1,4.3v5l-15.1-4.3v-5m0-1.7a1.3,1.3,0,0,0-1,.4,1.7,1.7,0,0,0-.7,1.4v5a1.7,1.7,0,0,0,1.3,1.7l15.1,4.3h0.5a1.3,1.3,0,0,0,1-.4,1.7,1.7,0,0,0,.7-1.4v-5a1.7,1.7,0,0,0-1.3-1.7l-15.1-4.3h-0.5Z"/><path class="cls-6" d="M1864.7,368.8l15.1,4.3v5l-15.1-4.3v-5m0-1.8a1.3,1.3,0,0,0-1,.4,1.7,1.7,0,0,0-.7,1.4v5a1.7,1.7,0,0,0,1.3,1.7l15.1,4.3h0.5a1.3,1.3,0,0,0,1-.4,1.7,1.7,0,0,0,.7-1.4v-5a1.7,1.7,0,0,0-1.3-1.7l-15.1-4.3h-0.5Z"/><path class="cls-6" d="M1864.7,386.6l15.1,4.3v5l-15.1-4.3v-5m0-1.8a1.3,1.3,0,0,0-1,.4,1.7,1.7,0,0,0-.7,1.4v5a1.7,1.7,0,0,0,1.3,1.7l15.1,4.3h0.5a1.3,1.3,0,0,0,1-.4,1.7,1.7,0,0,0,.7-1.4v-5a1.7,1.7,0,0,0-1.3-1.7l-15.1-4.3h-0.5Z"/><path class="cls-6" d="M1914.9,344.1v48.8l-5.8,1.6V345.6l5.8-1.5m0-2.4h-0.6l-5.8,1.6a2.3,2.3,0,0,0-1.7,2.2v48.9a2.1,2.1,0,0,0,.9,1.8,2.4,2.4,0,0,0,1.4.5h0.6l5.8-1.6a2.3,2.3,0,0,0,1.7-2.2V344a2.1,2.1,0,0,0-.9-1.8,2.4,2.4,0,0,0-1.4-.5h0Z"/><line class="cls-7" x1="1912.4" y1="394.6" x2="1912.4" y2="344.6"/><path class="cls-6" d="M1960.8,331.8v48.8l-5.8,1.6V333.4l5.8-1.6m0-2.3h-0.6l-5.8,1.5a2.3,2.3,0,0,0-1.7,2.2V382a2.1,2.1,0,0,0,.9,1.8,2.4,2.4,0,0,0,1.4.5h0.6l5.8-1.6a2.3,2.3,0,0,0,1.7-2.2V331.7a2.1,2.1,0,0,0-.9-1.8,2.3,2.3,0,0,0-1.4-.4h0Z"/><line class="cls-7" x1="1958.9" y1="381.8" x2="1958.9" y2="333"/><path class="cls-6" d="M1991.5,324.4v48.8l-5.8,1.6V325.9l5.8-1.5m0-2.3h-0.6l-5.8,1.5a2.3,2.3,0,0,0-1.7,2.2v48.8a2.1,2.1,0,0,0,.9,1.8,2.4,2.4,0,0,0,1.4.5h0.6l5.8-1.6a2.3,2.3,0,0,0,1.7-2.2V324.3a2.1,2.1,0,0,0-.9-1.8,2.3,2.3,0,0,0-1.4-.4h0Z"/><line class="cls-7" x1="1989.1" y1="374.8" x2="1989.1" y2="324.8"/><path class="cls-6" d="M1945.5,335.5v48.8l-5.8,1.6V337.1l5.8-1.6m0-2.3h-0.6l-5.8,1.6a2.3,2.3,0,0,0-1.7,2.2v48.9a2.1,2.1,0,0,0,.9,1.8,2.4,2.4,0,0,0,1.4.5h0.6l5.8-1.6a2.3,2.3,0,0,0,1.7-2.2V335.5a2.1,2.1,0,0,0-.9-1.8,1.9,1.9,0,0,0-1.4-.5h0Z"/><line class="cls-7" x1="1942.6" y1="385.3" x2="1942.6" y2="336.5"/><path class="cls-6" d="M1976.2,328.1v48.8l-5.8,1.6V329.7l5.8-1.6m0-2.3h-0.6l-5.8,1.5a2.3,2.3,0,0,0-1.7,2.2v48.8a2.1,2.1,0,0,0,.9,1.8,2.4,2.4,0,0,0,1.4.5h0.6l5.8-1.6a2.3,2.3,0,0,0,1.7-2.2V328a2.1,2.1,0,0,0-.9-1.8,2.3,2.3,0,0,0-1.4-.4h0Z"/><line class="cls-7" x1="1974" y1="378.3" x2="1974" y2="329.5"/><path class="cls-6" d="M1930.2,340.3v48.8l-5.8,1.6V341.9l5.8-1.6m0-2.3h-0.6l-5.8,1.6a2.3,2.3,0,0,0-1.7,2.2v48.8a2.1,2.1,0,0,0,.9,1.8,2.4,2.4,0,0,0,1.4.5h0.6l5.8-1.6a2.3,2.3,0,0,0,1.7-2.2V340.3a2.1,2.1,0,0,0-.9-1.8,2.4,2.4,0,0,0-1.4-.5h0Z"/><line class="cls-7" x1="1927.5" y1="391.1" x2="1927.5" y2="341.1"/><path class="cls-6" d="M1899.6,348.4v48.9l-5.8,1.6V350l5.8-1.6m0-2.3H1899l-5.8,1.5a2.3,2.3,0,0,0-1.7,2.2v48.9a2.1,2.1,0,0,0,.9,1.8,2.4,2.4,0,0,0,1.4.5h0.6l5.8-1.6a2.3,2.3,0,0,0,1.7-2.2V348.3a2.1,2.1,0,0,0-.9-1.8,3.3,3.3,0,0,0-1.4-.4h0Z"/><line class="cls-7" x1="1897.3" y1="398.1" x2="1897.3" y2="348.1"/><polyline class="cls-7" points="1878.7 389.9 1878.7 393.9 1864.5 389.9"/><line class="cls-8" x1="1878.2" y1="393.7" x2="1880.4" y2="396.2"/><path class="cls-6" d="M1840.8,380.2l15.1,4.3v5l-15.1-4.3v-5m0-1.8a1.3,1.3,0,0,0-1,.4,1.7,1.7,0,0,0-.7,1.4v5a1.7,1.7,0,0,0,1.3,1.7l15.1,4.3h0.5a1.3,1.3,0,0,0,1-.4,1.7,1.7,0,0,0,.7-1.4v-5a1.7,1.7,0,0,0-1.3-1.7l-15.1-4.3h-0.5Z"/><polyline class="cls-7" points="1854.3 384.1 1854.3 387.5 1840.1 383.8"/><line class="cls-8" x1="1854.3" y1="387.3" x2="1856.5" y2="389.8"/><path class="cls-6" d="M1840.8,362.2l15.1,4.3v5l-15.1-4.3v-5m0-1.7a1.3,1.3,0,0,0-1,.4,1.7,1.7,0,0,0-.7,1.4v5a1.7,1.7,0,0,0,1.3,1.7l15.1,4.3h0.5a1.3,1.3,0,0,0,1-.4,1.7,1.7,0,0,0,.7-1.4v-5a1.7,1.7,0,0,0-1.3-1.7l-15.1-4.3h-0.5Z"/><polyline class="cls-7" points="1854.3 365.5 1854.3 369.6 1840.1 365.5"/><line class="cls-8" x1="1854.3" y1="369.3" x2="1856.5" y2="371.8"/><path class="cls-6" d="M1840.8,344.6l15.1,4.3v5l-15.1-4.3v-5m0-1.7a1.3,1.3,0,0,0-1,.4,1.7,1.7,0,0,0-.7,1.4v5a1.7,1.7,0,0,0,1.3,1.7l15.1,4.3h0.5a1.3,1.3,0,0,0,1-.4,1.7,1.7,0,0,0,.7-1.4v-5a1.7,1.7,0,0,0-1.3-1.7l-15.1-4.3h-0.5Z"/><polyline class="cls-7" points="1854.3 348.1 1854.3 351.9 1840.1 348"/><line class="cls-8" x1="1854.3" y1="351.8" x2="1856.5" y2="354.2"/><polyline class="cls-7" points="1878.7 372.5 1878.7 376 1864.5 372.3"/><line class="cls-8" x1="1878.1" y1="375.8" x2="1880.3" y2="378.3"/><polyline class="cls-7" points="1878.7 353.9 1878.7 358.2 1864.5 354"/><line class="cls-8" x1="1878.2" y1="358" x2="1880.4" y2="360.4"/><polygon class="cls-2" points="2135.3 421 2135.3 354.8 2020.2 385.7 2020.2 451.9 2135.3 421"/><polygon class="cls-2" points="1972.5 372.7 1972.5 438.8 2020.2 452.3 2020.2 386.1 1972.5 372.7"/><polyline class="cls-2" points="1971.9 372.3 2087.1 341.4 2135.4 354.8 2020 385.7 1971.9 372.3"/><polygon class="cls-4" points="1972.5 371.9 1972.5 438 2020.2 451.4 2020.2 385.3 1972.5 371.9"/><line class="cls-5" x1="1979.6" y1="416.6" x2="1984.1" y2="417.8"/><line class="cls-5" x1="1983.5" y1="374.6" x2="1983.5" y2="440.9"/><line class="cls-5" x1="2002.4" y1="423.3" x2="2006.8" y2="424.5"/><line class="cls-5" x1="1982.9" y1="436.1" x2="1985" y2="436.7"/><line class="cls-5" x1="1982.9" y1="379.2" x2="1985" y2="379.8"/><line class="cls-5" x1="2005.9" y1="385.9" x2="2008" y2="386.5"/><line class="cls-5" x1="2006.8" y1="381.6" x2="2006.8" y2="447.9"/><polygon class="cls-4" points="2135.3 420.5 2135.3 354.4 2020.2 385.3 2020.2 451.4 2135.3 420.5"/><polyline class="cls-4" points="1972.2 371.9 2087.3 341 2135.6 354.4 2020.3 385.3 1972.2 371.9"/><line class="cls-4" x1="1994.6" y1="378.1" x2="1994.6" y2="444.4"/><path class="cls-6" d="M1999.8,392.6l15.1,4.3v5l-15.1-4.3v-5m0-1.7a1.3,1.3,0,0,0-1,.4,1.7,1.7,0,0,0-.7,1.4v5a1.7,1.7,0,0,0,1.3,1.7l15.1,4.3h0.5a1.3,1.3,0,0,0,1-.4,1.7,1.7,0,0,0,.7-1.4v-5a1.7,1.7,0,0,0-1.3-1.7l-15.1-4.3h-0.5Z"/><path class="cls-6" d="M1999.8,410.4l15.1,4.3v5l-15.1-4.3v-5m0-1.7a1.3,1.3,0,0,0-1,.4,1.7,1.7,0,0,0-.7,1.4v5a1.7,1.7,0,0,0,1.3,1.7l15.1,4.3h0.5a1.3,1.3,0,0,0,1-.4,1.7,1.7,0,0,0,.7-1.4v-5a1.7,1.7,0,0,0-1.3-1.7l-15.1-4.3h-0.5Z"/><path class="cls-6" d="M1999.8,428.2l15.1,4.3v5l-15.1-4.3v-5m0-1.7a1.3,1.3,0,0,0-1,.4,1.7,1.7,0,0,0-.7,1.4v5a1.7,1.7,0,0,0,1.3,1.7l15.1,4.3h0.5a1.3,1.3,0,0,0,1-.4,1.7,1.7,0,0,0,.7-1.4v-5a1.7,1.7,0,0,0-1.3-1.7l-15.1-4.3h-0.5Z"/><path class="cls-6" d="M2050,385.7v48.9l-5.8,1.6V387.3l5.8-1.6m0-2.3h-0.6l-5.8,1.5a2.3,2.3,0,0,0-1.7,2.2V436a2.1,2.1,0,0,0,.9,1.8,2.4,2.4,0,0,0,1.4.5h0.6l5.8-1.6a2.3,2.3,0,0,0,1.7-2.2V385.6a2.1,2.1,0,0,0-.9-1.8,2.3,2.3,0,0,0-1.4-.4h0Z"/><line class="cls-7" x1="2047.5" y1="436.3" x2="2047.5" y2="386.3"/><path class="cls-6" d="M2080.6,377.1v48.8l-5.8,1.6V378.7l5.8-1.6m0-2.3H2080l-5.8,1.6a2.3,2.3,0,0,0-1.7,2.2v48.8a2.1,2.1,0,0,0,.9,1.8,2.4,2.4,0,0,0,1.4.5h0.6l5.8-1.6a2.3,2.3,0,0,0,1.7-2.2V377.1a2.1,2.1,0,0,0-.9-1.8,2.4,2.4,0,0,0-1.4-.5h0Z"/><line class="cls-7" x1="2077.7" y1="427" x2="2077.7" y2="378.1"/><path class="cls-6" d="M2065.3,382v48.9l-5.8,1.6V383.7l5.8-1.7m0-2.3h-0.6l-5.8,1.6a2.3,2.3,0,0,0-1.7,2.2v48.8a2.1,2.1,0,0,0,.9,1.8,2.4,2.4,0,0,0,1.4.5h0.6l5.8-1.6a2.3,2.3,0,0,0,1.7-2.2V382a2.1,2.1,0,0,0-.9-1.8,1.9,1.9,0,0,0-1.4-.5h0Z"/><line class="cls-7" x1="2062.6" y1="432.8" x2="2062.6" y2="382.8"/><path class="cls-6" d="M2034.7,390.1v48.8l-5.8,1.6V391.6l5.8-1.5m0-2.3h-0.6l-5.8,1.6a2.3,2.3,0,0,0-1.7,2.2v48.9a2.1,2.1,0,0,0,.9,1.8,2.4,2.4,0,0,0,1.4.5h0.6l5.8-1.6a2.3,2.3,0,0,0,1.7-2.2V390.1a2.1,2.1,0,0,0-.9-1.8,1.9,1.9,0,0,0-1.4-.5h0Z"/><line class="cls-7" x1="2032.4" y1="439.7" x2="2032.4" y2="389.8"/><polyline class="cls-7" points="2013.8 431.6 2013.8 435.6 1999.6 431.6"/><line class="cls-8" x1="2013.3" y1="435.4" x2="2015.5" y2="437.9"/><path class="cls-6" d="M1975.9,421.8l15.1,4.3v5l-15.1-4.3v-5m0-1.7a1.3,1.3,0,0,0-1,.4,1.7,1.7,0,0,0-.7,1.4v5a1.7,1.7,0,0,0,1.3,1.7l15.1,4.3h0.5a1.3,1.3,0,0,0,1-.4,1.7,1.7,0,0,0,.7-1.4v-5a1.7,1.7,0,0,0-1.3-1.7l-15.1-4.3h-0.5Z"/><polyline class="cls-7" points="1989.4 425.8 1989.4 429.2 1975.2 425.5"/><line class="cls-8" x1="1989.4" y1="429" x2="1991.6" y2="431.5"/><path class="cls-6" d="M1975.9,403.9l15.1,4.3v5l-15.1-4.3v-5m0-1.8a1.3,1.3,0,0,0-1,.4,1.7,1.7,0,0,0-.7,1.4v5a1.7,1.7,0,0,0,1.3,1.7l15.1,4.3h0.5a1.3,1.3,0,0,0,1-.4,1.7,1.7,0,0,0,.7-1.4v-5a1.7,1.7,0,0,0-1.3-1.7l-15.1-4.3h-0.5Z"/><polyline class="cls-7" points="1989.4 407.2 1989.4 411.2 1975.2 407.2"/><line class="cls-8" x1="1989.4" y1="411" x2="1991.6" y2="413.5"/><path class="cls-6" d="M1975.9,386.3l15.1,4.3v5l-15.1-4.3v-5m0-1.8a1.3,1.3,0,0,0-1,.4,1.7,1.7,0,0,0-.7,1.4v5a1.7,1.7,0,0,0,1.3,1.7l15.1,4.3h0.5a1.3,1.3,0,0,0,1-.4,1.7,1.7,0,0,0,.7-1.4v-5a1.7,1.7,0,0,0-1.3-1.7l-15.1-4.3h-0.5Z"/><polyline class="cls-7" points="1989.4 389.8 1989.4 393.6 1975.2 389.7"/><line class="cls-8" x1="1989.4" y1="393.4" x2="1991.6" y2="395.9"/><polyline class="cls-7" points="2013.8 414.2 2013.8 417.7 1999.6 413.9"/><line class="cls-8" x1="2013.1" y1="417.5" x2="2015.4" y2="420"/><polyline class="cls-7" points="2013.8 395.6 2013.8 399.8 1999.6 395.7"/><line class="cls-8" x1="2013.2" y1="399.6" x2="2015.5" y2="402.1"/><polygon class="cls-2" points="1549.6 339.8 1549.6 273.6 1434.5 304.6 1434.5 370.7 1549.6 339.8"/><polygon class="cls-2" points="1386.8 291.5 1386.8 357.7 1434.5 371.1 1434.5 305 1386.8 291.5"/><polyline class="cls-2" points="1386.3 291.1 1501.4 260.2 1549.7 273.6 1434.4 304.6 1386.3 291.2"/><polygon class="cls-4" points="1386.8 290.7 1386.8 356.9 1434.5 370.3 1434.5 304.1 1386.8 290.7"/><line class="cls-5" x1="1393.9" y1="335.4" x2="1398.4" y2="336.6"/><line class="cls-5" x1="1397.9" y1="293.5" x2="1397.9" y2="359.7"/><line class="cls-5" x1="1416.7" y1="342.1" x2="1421.2" y2="343.3"/><line class="cls-5" x1="1397.3" y1="354.9" x2="1399.3" y2="355.5"/><line class="cls-5" x1="1420.2" y1="361.6" x2="1422.3" y2="362.2"/><line class="cls-5" x1="1397.3" y1="298" x2="1399.3" y2="298.6"/><line class="cls-5" x1="1420.2" y1="304.8" x2="1422.3" y2="305.3"/><line class="cls-5" x1="1421.1" y1="300.4" x2="1421.1" y2="366.7"/><polygon class="cls-4" points="1549.6 339.4 1549.6 273.2 1434.5 304.1 1434.5 370.3 1549.6 339.4"/><polyline class="cls-4" points="1386.5 290.7 1501.6 259.8 1549.9 273.2 1434.6 304.1 1386.5 290.7"/><line class="cls-4" x1="1408.9" y1="296.9" x2="1408.9" y2="363.2"/><path class="cls-6" d="M1414.1,311.4l15.1,4.3v5l-15.1-4.3v-5m0-1.7a1.3,1.3,0,0,0-1,.4,1.7,1.7,0,0,0-.7,1.4v5a1.7,1.7,0,0,0,1.3,1.7l15.1,4.3h0.5a1.3,1.3,0,0,0,1-.4,1.7,1.7,0,0,0,.7-1.4v-5a1.7,1.7,0,0,0-1.3-1.7l-15.1-4.3h-0.5Z"/><path class="cls-6" d="M1414.1,329.2l15.1,4.3v5l-15.1-4.3v-5m0-1.7a1.3,1.3,0,0,0-1,.4,1.7,1.7,0,0,0-.7,1.4v5a1.7,1.7,0,0,0,1.3,1.7l15.1,4.3h0.5a1.3,1.3,0,0,0,1-.4,1.7,1.7,0,0,0,.7-1.4v-5a1.7,1.7,0,0,0-1.3-1.7l-15.1-4.3h-0.5Z"/><path class="cls-6" d="M1414.1,347l15.1,4.3v5l-15.1-4.3v-5m0-1.7a1.3,1.3,0,0,0-1,.4,1.7,1.7,0,0,0-.7,1.4v5a1.7,1.7,0,0,0,1.3,1.7l15.1,4.3h0.5a1.3,1.3,0,0,0,1-.4,1.7,1.7,0,0,0,.7-1.4v-5a1.7,1.7,0,0,0-1.3-1.7l-15.1-4.3h-0.5Z"/><path class="cls-6" d="M1464.3,304.5v48.9l-5.8,1.6V306.1l5.8-1.6m0-2.3h-0.6l-5.8,1.6a2.3,2.3,0,0,0-1.7,2.2v48.9a2.1,2.1,0,0,0,.9,1.8,2.4,2.4,0,0,0,1.4.5h0.6l5.8-1.6a2.3,2.3,0,0,0,1.7-2.2v-49a2.1,2.1,0,0,0-.9-1.8,3.3,3.3,0,0,0-1.4-.4h0Z"/><line class="cls-7" x1="1461.8" y1="355.1" x2="1461.8" y2="305.1"/><path class="cls-6" d="M1510.3,292.3v48.8l-5.8,1.6V293.9l5.8-1.6m0-2.4h-0.6l-5.8,1.5a2.3,2.3,0,0,0-1.7,2.2v48.8a2.1,2.1,0,0,0,.9,1.8,2.4,2.4,0,0,0,1.4.5h0.6l5.8-1.6a2.3,2.3,0,0,0,1.7-2.2V292.1a2.1,2.1,0,0,0-.9-1.8,3.3,3.3,0,0,0-1.4-.4h0Z"/><line class="cls-7" x1="1508.3" y1="342.3" x2="1508.3" y2="293.5"/><path class="cls-6" d="M1540.9,284.9v48.8l-5.8,1.6V286.5l5.8-1.6m0-2.4h-0.6l-5.8,1.5a2.3,2.3,0,0,0-1.7,2.2V335a2.1,2.1,0,0,0,.9,1.8,2.4,2.4,0,0,0,1.4.5h0.6l5.8-1.6a2.3,2.3,0,0,0,1.7-2.2V284.9a2.1,2.1,0,0,0-.9-1.8,2,2,0,0,0-1.4-.6h0Z"/><line class="cls-7" x1="1538.5" y1="335.3" x2="1538.5" y2="285.3"/><path class="cls-6" d="M1494.9,296v48.8l-5.8,1.6V297.6l5.8-1.6m0-2.4h-0.6l-5.8,1.5a2.3,2.3,0,0,0-1.7,2.2v48.8a2.1,2.1,0,0,0,.9,1.8,2.4,2.4,0,0,0,1.4.5h0.6l5.8-1.6a2.3,2.3,0,0,0,1.7-2.2V295.8a2.1,2.1,0,0,0-.9-1.8,3.3,3.3,0,0,0-1.4-.4h0Z"/><line class="cls-7" x1="1492" y1="345.8" x2="1492" y2="296.9"/><path class="cls-6" d="M1525.6,288.6v48.8l-5.8,1.6V290.2l5.8-1.6m0-2.4H1525l-5.8,1.5a2.3,2.3,0,0,0-1.7,2.2v49a2.1,2.1,0,0,0,.9,1.8,2.4,2.4,0,0,0,1.4.5h0.6l5.8-1.6a2.3,2.3,0,0,0,1.7-2.2V288.5a2.1,2.1,0,0,0-.9-1.8,2.4,2.4,0,0,0-1.4-.5h0Z"/><line class="cls-7" x1="1523.4" y1="338.8" x2="1523.4" y2="290"/><path class="cls-6" d="M1479.6,300.8v48.8l-5.8,1.6V302.4l5.8-1.6m0-2.3H1479l-5.8,1.6a2.3,2.3,0,0,0-1.7,2.2v48.8a2.1,2.1,0,0,0,.9,1.8,2.4,2.4,0,0,0,1.4.5h0.6l5.8-1.6a2.3,2.3,0,0,0,1.7-2.2V300.8a2.1,2.1,0,0,0-.9-1.8,2.4,2.4,0,0,0-1.4-.5h0Z"/><line class="cls-7" x1="1476.9" y1="351.6" x2="1476.9" y2="301.6"/><path class="cls-6" d="M1449,308.9v48.9l-5.8,1.6V310.5l5.8-1.6m0-2.3h-0.6l-5.8,1.6a2.3,2.3,0,0,0-1.7,2.2v48.9a2.1,2.1,0,0,0,.9,1.8,2.4,2.4,0,0,0,1.4.5h0.6l5.8-1.6a2.3,2.3,0,0,0,1.7-2.2V308.9a2.1,2.1,0,0,0-.9-1.8,2.4,2.4,0,0,0-1.4-.5h0Z"/><line class="cls-7" x1="1446.7" y1="358.6" x2="1446.7" y2="308.6"/><polyline class="cls-7" points="1428.1 350.4 1428.1 354.4 1413.9 350.4"/><line class="cls-8" x1="1427.6" y1="354.2" x2="1429.8" y2="356.7"/><path class="cls-6" d="M1390.2,340.7l15.1,4.3v5l-15.1-4.3v-5m0-1.8a1.3,1.3,0,0,0-1,.4,1.7,1.7,0,0,0-.7,1.4v5a1.7,1.7,0,0,0,1.3,1.7l15.1,4.3h0.5a1.3,1.3,0,0,0,1-.4,1.7,1.7,0,0,0,.7-1.4v-5a1.7,1.7,0,0,0-1.3-1.7l-15.1-4.3h-0.5Z"/><polyline class="cls-7" points="1403.7 344.6 1403.7 348 1389.5 344.3"/><line class="cls-8" x1="1403.7" y1="347.8" x2="1405.9" y2="350.3"/><path class="cls-6" d="M1390.2,322.7l15.1,4.3v5l-15.1-4.3v-5m0-1.8a1.3,1.3,0,0,0-1,.4,1.7,1.7,0,0,0-.7,1.4v5a1.7,1.7,0,0,0,1.3,1.7l15.1,4.3h0.5a1.3,1.3,0,0,0,1-.4,1.7,1.7,0,0,0,.7-1.4v-5a1.7,1.7,0,0,0-1.3-1.7l-15.1-4.3h-0.5Z"/><polyline class="cls-7" points="1403.7 326 1403.7 330 1389.5 326"/><line class="cls-8" x1="1403.7" y1="329.8" x2="1405.9" y2="332.3"/><path class="cls-6" d="M1390.2,305.1l15.1,4.3v5l-15.1-4.3v-5m0-1.7a1.3,1.3,0,0,0-1,.4,1.7,1.7,0,0,0-.7,1.4v5a1.7,1.7,0,0,0,1.3,1.7l15.1,4.3h0.5a1.3,1.3,0,0,0,1-.4,1.7,1.7,0,0,0,.7-1.4v-5a1.7,1.7,0,0,0-1.3-1.7l-15.1-4.3h-0.5Z"/><polyline class="cls-7" points="1403.7 308.6 1403.7 312.4 1389.5 308.5"/><line class="cls-8" x1="1403.7" y1="312.2" x2="1405.9" y2="314.7"/><polyline class="cls-7" points="1428.1 333 1428.1 336.5 1413.9 332.8"/><line class="cls-8" x1="1427.5" y1="336.3" x2="1429.7" y2="338.8"/><polyline class="cls-7" points="1428.1 314.4 1428.1 318.6 1413.9 314.5"/><line class="cls-8" x1="1427.6" y1="318.4" x2="1429.8" y2="320.9"/><polygon class="cls-9" points="1684.7 378.8 1684.7 312.6 1569.6 343.6 1569.6 409.7 1684.7 378.8"/><polygon class="cls-2" points="1521.9 330.5 1521.9 396.7 1569.6 410.1 1569.6 344 1521.9 330.5"/><polyline class="cls-2" points="1521.4 330.1 1636.5 299.2 1684.8 312.6 1569.5 343.6 1521.4 330.2"/><polygon class="cls-4" points="1521.9 329.7 1521.9 395.9 1569.6 409.3 1569.6 343.1 1521.9 329.7"/><line class="cls-5" x1="1529" y1="374.4" x2="1533.5" y2="375.6"/><line class="cls-5" x1="1533" y1="332.5" x2="1533" y2="398.7"/><line class="cls-5" x1="1551.8" y1="381.1" x2="1556.2" y2="382.3"/><line class="cls-5" x1="1532.3" y1="393.9" x2="1534.4" y2="394.5"/><line class="cls-5" x1="1555.3" y1="400.6" x2="1557.4" y2="401.2"/><line class="cls-5" x1="1532.3" y1="337" x2="1534.4" y2="337.6"/><line class="cls-5" x1="1555.3" y1="343.8" x2="1557.4" y2="344.3"/><line class="cls-5" x1="1556.2" y1="339.4" x2="1556.2" y2="405.7"/><polygon class="cls-4" points="1684.7 378.4 1684.7 312.2 1569.6 343.1 1569.6 409.3 1684.7 378.4"/><polyline class="cls-4" points="1521.6 329.7 1636.7 298.8 1685 312.2 1569.7 343.1 1521.6 329.7"/><polygon class="cls-10" points="1581.5 348.5 1577.7 349.5 1577.7 398.4 1581.9 397.3 1581.5 348.5"/><polygon class="cls-10" points="1596.7 344.4 1592.8 345.3 1592.8 394.2 1597 393.1 1596.7 344.4"/><polygon class="cls-10" points="1611.8 340.8 1607.9 341.8 1607.9 390.6 1612.1 389.5 1611.8 340.8"/><polygon class="cls-10" points="1627.7 335.9 1624.2 336.9 1624.2 385.8 1628.2 384.7 1627.7 335.9"/><polygon class="cls-10" points="1643 332 1639.3 333 1639.3 381.9 1643.4 380.8 1643 332"/><polygon class="cls-10" points="1658.1 328.7 1654.4 329.6 1654.4 378.5 1658.5 377.4 1658.1 328.7"/><polygon class="cls-10" points="1673.3 325.1 1669.6 326.1 1669.6 374.9 1673.7 373.8 1673.3 325.1"/><line class="cls-4" x1="1544" y1="335.9" x2="1544" y2="402.2"/><path class="cls-11" d="M1564.3,360.6h-0.2l-15.1-4.3a0.8,0.8,0,0,1-.6-0.8v-5a0.9,0.9,0,0,1,.3-0.7l0.5-.2h0.2l15.1,4.3a0.8,0.8,0,0,1,.6.8v5a0.9,0.9,0,0,1-.3.7A0.5,0.5,0,0,1,1564.3,360.6Z"/><path class="cls-12" d="M1549.2,350.4l15.1,4.3v5l-15.1-4.3v-5m0-1.7a1.3,1.3,0,0,0-1,.4,1.7,1.7,0,0,0-.7,1.4v5a1.7,1.7,0,0,0,1.3,1.7l15.1,4.3h0.5a1.3,1.3,0,0,0,1-.4,1.7,1.7,0,0,0,.7-1.4v-5a1.7,1.7,0,0,0-1.3-1.7l-15.1-4.3h-0.5Z"/><path class="cls-11" d="M1564.3,378.4h-0.2l-15.1-4.3a0.8,0.8,0,0,1-.6-0.8v-5a0.9,0.9,0,0,1,.3-0.7l0.5-.2h0.2l15.1,4.3a0.8,0.8,0,0,1,.6.8v5a0.9,0.9,0,0,1-.3.7A0.5,0.5,0,0,1,1564.3,378.4Z"/><path class="cls-12" d="M1549.2,368.2l15.1,4.3v5l-15.1-4.3v-5m0-1.7a1.3,1.3,0,0,0-1,.4,1.7,1.7,0,0,0-.7,1.4v5a1.7,1.7,0,0,0,1.3,1.7l15.1,4.3h0.5a1.3,1.3,0,0,0,1-.4,1.7,1.7,0,0,0,.7-1.4v-5a1.7,1.7,0,0,0-1.3-1.7l-15.1-4.3h-0.5Z"/><path class="cls-11" d="M1564.3,396.3h-0.2l-15.1-4.4a0.8,0.8,0,0,1-.6-0.8v-5a0.9,0.9,0,0,1,.3-0.7l0.5-.2h0.2l15.1,4.3a0.8,0.8,0,0,1,.6.8v5a0.9,0.9,0,0,1-.3.7A0.5,0.5,0,0,1,1564.3,396.3Z"/><path class="cls-12" d="M1549.2,386l15.1,4.3v5l-15.1-4.3v-5m0-1.7a1.3,1.3,0,0,0-1,.4,1.7,1.7,0,0,0-.7,1.4v5a1.7,1.7,0,0,0,1.3,1.7l15.1,4.3h0.5a1.3,1.3,0,0,0,1-.4,1.7,1.7,0,0,0,.7-1.4v-5a1.7,1.7,0,0,0-1.3-1.7l-15.1-4.3h-0.5Z"/><polygon class="cls-10" points="1549.3 389.4 1562.9 393.1 1562.9 390.1 1549.4 386.3 1549.3 389.4"/><path class="cls-12" d="M1599.4,343.5v48.9l-5.8,1.6V345.1l5.8-1.6m0-2.3h-0.6l-5.8,1.5a2.3,2.3,0,0,0-1.7,2.2v49a2.1,2.1,0,0,0,.9,1.8,2.4,2.4,0,0,0,1.4.5h0.6l5.8-1.6a2.3,2.3,0,0,0,1.7-2.2v-49a2.1,2.1,0,0,0-.9-1.8,3.3,3.3,0,0,0-1.4-.4h0Z"/><line class="cls-7" x1="1596.9" y1="394.1" x2="1596.9" y2="344.1"/><path class="cls-12" d="M1645.3,331.3v48.8l-5.8,1.6V332.9l5.8-1.6m0-2.4h-0.6l-5.8,1.5a2.3,2.3,0,0,0-1.7,2.2v48.8a2.1,2.1,0,0,0,.9,1.8,2.4,2.4,0,0,0,1.4.5h0.6l5.8-1.6a2.3,2.3,0,0,0,1.7-2.2V331.1a2.1,2.1,0,0,0-.9-1.8,3.3,3.3,0,0,0-1.4-.4h0Z"/><line class="cls-7" x1="1643.4" y1="381.3" x2="1643.4" y2="332.5"/><path class="cls-12" d="M1676,323.9v48.8l-5.8,1.6V325.5l5.8-1.6m0-2.4h-0.6l-5.8,1.5a2.3,2.3,0,0,0-1.7,2.2V374a2.1,2.1,0,0,0,.9,1.8,2.4,2.4,0,0,0,1.4.5h0.6l5.8-1.6a2.3,2.3,0,0,0,1.7-2.2V323.9a2.1,2.1,0,0,0-.9-1.8,2,2,0,0,0-1.4-.6h0Z"/><line class="cls-7" x1="1673.6" y1="374.3" x2="1673.6" y2="324.3"/><path class="cls-12" d="M1630,335v48.8l-5.8,1.6V336.6l5.8-1.6m0-2.4h-0.6l-5.8,1.5a2.3,2.3,0,0,0-1.7,2.2v48.8a2.1,2.1,0,0,0,.9,1.8,2.4,2.4,0,0,0,1.4.5h0.6l5.8-1.6a2.3,2.3,0,0,0,1.7-2.2V334.8a2.1,2.1,0,0,0-.9-1.8,3.3,3.3,0,0,0-1.4-.4h0Z"/><line class="cls-7" x1="1627.1" y1="384.8" x2="1627.1" y2="335.9"/><path class="cls-12" d="M1660.6,327.6v48.8l-5.8,1.6V329.2l5.8-1.6m0-2.4H1660l-5.8,1.5a2.3,2.3,0,0,0-1.7,2.2v49a2.1,2.1,0,0,0,.9,1.8,2.4,2.4,0,0,0,1.4.5h0.6l5.8-1.6a2.3,2.3,0,0,0,1.7-2.2V327.5a2.1,2.1,0,0,0-.9-1.8,2,2,0,0,0-1.4-.5h0Z"/><line class="cls-7" x1="1658.5" y1="377.8" x2="1658.5" y2="329"/><path class="cls-12" d="M1614.7,339.8v48.8l-5.8,1.6V341.4l5.8-1.6m0-2.3h-0.6l-5.8,1.5a2.3,2.3,0,0,0-1.7,2.2V390a2.1,2.1,0,0,0,.9,1.8,2.4,2.4,0,0,0,1.4.5h0.6l5.8-1.6a2.3,2.3,0,0,0,1.7-2.2V339.7a2.1,2.1,0,0,0-.9-1.8,3.3,3.3,0,0,0-1.4-.4h0Z"/><line class="cls-7" x1="1612" y1="390.6" x2="1612" y2="340.6"/><path class="cls-12" d="M1584.1,347.9v48.9l-5.8,1.6V349.5l5.8-1.6m0-2.3h-0.6l-5.8,1.6a2.3,2.3,0,0,0-1.7,2.2v48.9a2.1,2.1,0,0,0,.9,1.8,2.4,2.4,0,0,0,1.4.5h0.6l5.8-1.6a2.3,2.3,0,0,0,1.7-2.2V347.9a2.1,2.1,0,0,0-.9-1.8,2.4,2.4,0,0,0-1.4-.5h0Z"/><line class="cls-7" x1="1581.8" y1="397.6" x2="1581.8" y2="347.6"/><polyline class="cls-7" points="1563.2 389.4 1563.2 393.4 1549 389.4"/><line class="cls-8" x1="1562.7" y1="393.2" x2="1564.9" y2="395.7"/><path class="cls-11" d="M1540.4,389.9h-0.2l-15.1-4.3a0.8,0.8,0,0,1-.6-0.8v-5a0.9,0.9,0,0,1,.3-0.7l0.5-.2h0.2l15.1,4.3a0.8,0.8,0,0,1,.6.8v5a0.9,0.9,0,0,1-.3.7Z"/><path class="cls-12" d="M1525.3,379.7l15.1,4.3v5l-15.1-4.3v-5m0-1.8a1.3,1.3,0,0,0-1,.4,1.7,1.7,0,0,0-.7,1.4v5a1.7,1.7,0,0,0,1.3,1.7l15.1,4.3h0.5a1.3,1.3,0,0,0,1-.4,1.7,1.7,0,0,0,.7-1.4v-5a1.7,1.7,0,0,0-1.3-1.7l-15.1-4.3h-0.5Z"/><polygon class="cls-10" points="1525.4 383 1539 386.7 1539 383.7 1525.4 379.9 1525.4 383"/><polyline class="cls-7" points="1538.8 383.6 1538.8 387 1524.6 383.3"/><line class="cls-8" x1="1538.8" y1="386.8" x2="1541" y2="389.3"/><path class="cls-11" d="M1540.4,371.9h-0.2l-15.1-4.3a0.8,0.8,0,0,1-.6-0.8v-5a0.9,0.9,0,0,1,.3-0.7l0.5-.2h0.2l15.1,4.3a0.8,0.8,0,0,1,.6.8v5a0.9,0.9,0,0,1-.3.7Z"/><path class="cls-12" d="M1525.3,361.7l15.1,4.3v5l-15.1-4.3v-5m0-1.8a1.3,1.3,0,0,0-1,.4,1.7,1.7,0,0,0-.7,1.4v5a1.7,1.7,0,0,0,1.3,1.7l15.1,4.3h0.5a1.3,1.3,0,0,0,1-.4,1.7,1.7,0,0,0,.7-1.4v-5a1.7,1.7,0,0,0-1.3-1.7l-15.1-4.3h-0.5Z"/><polygon class="cls-10" points="1525.4 365 1539 368.7 1539 365.7 1525.4 361.9 1525.4 365"/><polyline class="cls-7" points="1538.8 365 1538.8 369 1524.6 365"/><line class="cls-8" x1="1538.8" y1="368.8" x2="1541" y2="371.3"/><path class="cls-11" d="M1540.4,354.3h-0.2l-15.1-4.3a0.8,0.8,0,0,1-.6-0.8v-5a0.9,0.9,0,0,1,.3-0.7l0.5-.2h0.2l15.1,4.3a0.8,0.8,0,0,1,.6.8v5a0.9,0.9,0,0,1-.3.7Z"/><path class="cls-12" d="M1525.3,344.1l15.1,4.3v5l-15.1-4.3v-5m0-1.7a1.3,1.3,0,0,0-1,.4,1.7,1.7,0,0,0-.7,1.4v5a1.7,1.7,0,0,0,1.3,1.7l15.1,4.3h0.5a1.3,1.3,0,0,0,1-.4,1.7,1.7,0,0,0,.7-1.4v-5a1.7,1.7,0,0,0-1.3-1.7l-15.1-4.3h-0.5Z"/><polygon class="cls-10" points="1525.4 347.4 1539 351.1 1539 348.1 1525.4 344.3 1525.4 347.4"/><polyline class="cls-7" points="1538.8 347.6 1538.8 351.4 1524.6 347.5"/><line class="cls-8" x1="1538.8" y1="351.2" x2="1541" y2="353.7"/><polygon class="cls-10" points="1549.2 371.5 1562.8 375.2 1562.8 372.2 1549.2 368.4 1549.2 371.5"/><polyline class="cls-7" points="1563.2 372 1563.2 375.5 1549 371.8"/><line class="cls-8" x1="1562.6" y1="375.3" x2="1564.8" y2="377.8"/><polygon class="cls-10" points="1549.3 353.6 1562.9 357.3 1562.9 354.3 1549.3 350.5 1549.3 353.6"/><polyline class="cls-7" points="1563.2 353.4 1563.2 357.6 1549 353.5"/><line class="cls-8" x1="1562.6" y1="357.4" x2="1564.9" y2="359.9"/><polygon class="cls-2" points="1819.2 417.4 1819.2 351.2 1704.1 382.2 1704.1 448.3 1819.2 417.4"/><polygon class="cls-13" points="1656.4 369.1 1656.4 435.3 1704.1 448.7 1704.1 382.6 1656.4 369.1"/><polyline class="cls-2" points="1655.9 368.7 1771 337.8 1819.3 351.2 1704 382.2 1655.9 368.8"/><polygon class="cls-4" points="1656.4 368.3 1656.4 434.5 1704.1 447.9 1704.1 381.7 1656.4 368.3"/><line class="cls-5" x1="1663.5" y1="413" x2="1668" y2="414.2"/><line class="cls-5" x1="1667.5" y1="371.1" x2="1667.5" y2="437.3"/><line class="cls-5" x1="1686.3" y1="419.7" x2="1690.8" y2="420.9"/><line class="cls-5" x1="1666.8" y1="432.5" x2="1668.9" y2="433.1"/><line class="cls-5" x1="1666.8" y1="375.7" x2="1668.9" y2="376.2"/><line class="cls-5" x1="1689.8" y1="382.4" x2="1691.9" y2="382.9"/><line class="cls-5" x1="1690.7" y1="378" x2="1690.7" y2="444.3"/><polygon class="cls-4" points="1819.2 417 1819.2 350.8 1704.1 381.7 1704.1 447.9 1819.2 417"/><polyline class="cls-4" points="1656.1 368.3 1771.2 337.4 1819.5 350.8 1704.2 381.7 1656.1 368.3"/><line class="cls-4" x1="1678.5" y1="374.5" x2="1678.5" y2="440.8"/><path class="cls-2" d="M1698.9,399.2h-0.2l-15.1-4.3a0.8,0.8,0,0,1-.6-0.8v-5a0.9,0.9,0,0,1,.3-0.7l0.5-.2h0.2l15.1,4.3a0.8,0.8,0,0,1,.6.8v5a0.9,0.9,0,0,1-.3.7A0.6,0.6,0,0,1,1698.9,399.2Z"/><path class="cls-6" d="M1683.7,389l15.1,4.3v5l-15.1-4.3v-5m0-1.7a1.3,1.3,0,0,0-1,.4,1.7,1.7,0,0,0-.7,1.4v5a1.7,1.7,0,0,0,1.3,1.7l15.1,4.3h0.5a1.3,1.3,0,0,0,1-.4,1.7,1.7,0,0,0,.7-1.4v-5a1.7,1.7,0,0,0-1.3-1.7l-15.1-4.3h-0.5Z"/><path class="cls-2" d="M1698.9,417h-0.2l-15.1-4.3a0.8,0.8,0,0,1-.6-0.8v-5a0.9,0.9,0,0,1,.3-0.7l0.5-.2h0.2l15.1,4.3a0.8,0.8,0,0,1,.6.8v5a0.9,0.9,0,0,1-.3.7A0.6,0.6,0,0,1,1698.9,417Z"/><path class="cls-6" d="M1683.7,406.8l15.1,4.3v5l-15.1-4.3v-5m0-1.7a1.3,1.3,0,0,0-1,.4,1.7,1.7,0,0,0-.7,1.4v5a1.7,1.7,0,0,0,1.3,1.7l15.1,4.3h0.5a1.3,1.3,0,0,0,1-.4,1.7,1.7,0,0,0,.7-1.4v-5a1.7,1.7,0,0,0-1.3-1.7l-15.1-4.3h-0.5Z"/><path class="cls-2" d="M1698.9,434.9h-0.2l-15.1-4.3a0.8,0.8,0,0,1-.6-0.8v-5a0.9,0.9,0,0,1,.3-0.7l0.5-.2h0.2l15.1,4.3a0.8,0.8,0,0,1,.6.8v5a0.9,0.9,0,0,1-.3.7Z"/><path class="cls-6" d="M1683.7,424.6l15.1,4.3v5l-15.1-4.3v-5m0-1.7a1.3,1.3,0,0,0-1,.4,1.7,1.7,0,0,0-.7,1.4v5a1.7,1.7,0,0,0,1.3,1.7l15.1,4.3h0.5a1.3,1.3,0,0,0,1-.4,1.7,1.7,0,0,0,.7-1.4v-5a1.7,1.7,0,0,0-1.3-1.7l-15.1-4.3h-0.5Z"/><path class="cls-6" d="M1733.9,382.1V431l-5.8,1.6V383.7l5.8-1.6m0-2.3h-0.6l-5.8,1.6a2.3,2.3,0,0,0-1.7,2.2v48.9a2.1,2.1,0,0,0,.9,1.8,2.4,2.4,0,0,0,1.4.5h0.6l5.8-1.6a2.3,2.3,0,0,0,1.7-2.2V382.1a2.1,2.1,0,0,0-.9-1.8,2.4,2.4,0,0,0-1.4-.5h0Z"/><line class="cls-7" x1="1731.4" y1="432.7" x2="1731.4" y2="382.7"/><path class="cls-6" d="M1779.8,369.9v48.8l-5.8,1.6V371.5l5.8-1.6m0-2.4h-0.6l-5.8,1.5a2.3,2.3,0,0,0-1.7,2.2V420a2.1,2.1,0,0,0,.9,1.8,2.4,2.4,0,0,0,1.4.5h0.6l5.8-1.6a2.3,2.3,0,0,0,1.7-2.2V369.9a2.1,2.1,0,0,0-.9-1.8,1.7,1.7,0,0,0-1.4-.6h0Z"/><line class="cls-7" x1="1777.9" y1="419.9" x2="1777.9" y2="371.1"/><path class="cls-6" d="M1810.5,362.5v48.8l-5.8,1.6V364.1l5.8-1.6m0-2.4h-0.6l-5.8,1.5a2.3,2.3,0,0,0-1.7,2.2v48.8a2.1,2.1,0,0,0,.9,1.8,2.4,2.4,0,0,0,1.4.5h0.6l5.8-1.6a2.3,2.3,0,0,0,1.7-2.2V362.3a2.1,2.1,0,0,0-.9-1.8,3.3,3.3,0,0,0-1.4-.4h0Z"/><line class="cls-7" x1="1808.1" y1="412.9" x2="1808.1" y2="362.9"/><path class="cls-6" d="M1764.5,373.6v48.8l-5.8,1.6V375.2l5.8-1.6m0-2.4h-0.6l-5.8,1.5a2.3,2.3,0,0,0-1.7,2.2v48.8a2.1,2.1,0,0,0,.9,1.8,2.4,2.4,0,0,0,1.4.5h0.6l5.8-1.6a2.3,2.3,0,0,0,1.7-2.2V373.4a2.1,2.1,0,0,0-.9-1.8,3.3,3.3,0,0,0-1.4-.4h0Z"/><line class="cls-7" x1="1761.6" y1="423.4" x2="1761.6" y2="374.5"/><path class="cls-6" d="M1795.2,366.2V415l-5.8,1.6V367.8l5.8-1.6m0-2.4h-0.6l-5.8,1.5a2.3,2.3,0,0,0-1.7,2.2v48.8a2.1,2.1,0,0,0,.9,1.8,2.4,2.4,0,0,0,1.4.5h0.6l5.8-1.6a2.3,2.3,0,0,0,1.7-2.2V366a2.1,2.1,0,0,0-.9-1.8,3.3,3.3,0,0,0-1.4-.4h0Z"/><line class="cls-7" x1="1793" y1="416.4" x2="1793" y2="366.6"/><path class="cls-6" d="M1749.2,378.4v48.8l-5.8,1.6V380l5.8-1.6m0-2.3h-0.6l-5.8,1.5a2.3,2.3,0,0,0-1.7,2.2v48.8a2.1,2.1,0,0,0,.9,1.8,2.4,2.4,0,0,0,1.4.5h0.6l5.8-1.6a2.3,2.3,0,0,0,1.7-2.2V378.3a2.1,2.1,0,0,0-.9-1.8,3.3,3.3,0,0,0-1.4-.4h0Z"/><line class="cls-7" x1="1746.5" y1="428.9" x2="1746.5" y2="379"/><path class="cls-6" d="M1718.6,386.5v48.9l-5.8,1.6V388.1l5.8-1.6m0-2.3H1718l-5.8,1.6a2.3,2.3,0,0,0-1.7,2.2v48.9a2.1,2.1,0,0,0,.9,1.8,2.4,2.4,0,0,0,1.4.5h0.6l5.8-1.6a2.3,2.3,0,0,0,1.7-2.2v-49a2.1,2.1,0,0,0-.9-1.8,3.3,3.3,0,0,0-1.4-.4h0Z"/><line class="cls-7" x1="1716.3" y1="436.2" x2="1716.3" y2="386.2"/><polyline class="cls-7" points="1697.7 428 1697.7 432 1683.5 428"/><line class="cls-8" x1="1697.2" y1="431.8" x2="1699.4" y2="434.3"/><path class="cls-2" d="M1674.9,428.5h-0.2l-15.1-4.3a0.8,0.8,0,0,1-.6-0.8v-5a0.9,0.9,0,0,1,.3-0.7l0.5-.2h0.2l15.1,4.3a0.8,0.8,0,0,1,.6.8v5a0.9,0.9,0,0,1-.3.7Z"/><path class="cls-6" d="M1659.8,418.3l15.1,4.3v5l-15.1-4.3v-5m0-1.8a1.3,1.3,0,0,0-1,.4,1.7,1.7,0,0,0-.7,1.4v5a1.7,1.7,0,0,0,1.3,1.7l15.1,4.3h0.5a1.3,1.3,0,0,0,1-.4,1.7,1.7,0,0,0,.7-1.4v-5a1.7,1.7,0,0,0-1.3-1.7l-15.1-4.3h-0.5Z"/><polyline class="cls-7" points="1673.3 422.2 1673.3 425.6 1659.1 421.9"/><line class="cls-8" x1="1673.3" y1="425.4" x2="1675.5" y2="427.9"/><path class="cls-2" d="M1674.9,410.5h-0.2l-15.1-4.3a0.8,0.8,0,0,1-.6-0.8v-5a0.9,0.9,0,0,1,.3-0.7l0.5-.2h0.2l15.1,4.3a0.8,0.8,0,0,1,.6.8v5a0.9,0.9,0,0,1-.3.7Z"/><path class="cls-6" d="M1659.8,400.3l15.1,4.3v5l-15.1-4.3v-5m0-1.8a1.3,1.3,0,0,0-1,.4,1.7,1.7,0,0,0-.7,1.4v5a1.7,1.7,0,0,0,1.3,1.7l15.1,4.3h0.5a1.3,1.3,0,0,0,1-.4,1.7,1.7,0,0,0,.7-1.4v-5a1.7,1.7,0,0,0-1.3-1.7l-15.1-4.3h-0.5Z"/><polyline class="cls-7" points="1673.3 403.6 1673.3 407.6 1659.1 403.6"/><line class="cls-8" x1="1673.3" y1="407.4" x2="1675.5" y2="409.9"/><path class="cls-2" d="M1674.9,392.9h-0.2l-15.1-4.3a0.8,0.8,0,0,1-.6-0.8v-5a0.9,0.9,0,0,1,.3-0.7l0.5-.2h0.2l15.1,4.3a0.8,0.8,0,0,1,.6.8v5a0.9,0.9,0,0,1-.3.7Z"/><path class="cls-6" d="M1659.8,382.7l15.1,4.3v5l-15.1-4.3v-5m0-1.7a1.3,1.3,0,0,0-1,.4,1.7,1.7,0,0,0-.7,1.4v5a1.7,1.7,0,0,0,1.3,1.7l15.1,4.3h0.5a1.3,1.3,0,0,0,1-.4,1.7,1.7,0,0,0,.7-1.4v-5a1.7,1.7,0,0,0-1.3-1.7l-15.1-4.3h-0.5Z"/><polyline class="cls-7" points="1673.3 386.2 1673.3 390 1659.1 386.1"/><line class="cls-8" x1="1673.3" y1="389.8" x2="1675.5" y2="392.3"/><polyline class="cls-7" points="1697.7 410.6 1697.7 414.1 1683.5 410.4"/><line class="cls-8" x1="1697.1" y1="413.9" x2="1699.3" y2="416.4"/><polyline class="cls-7" points="1697.7 392 1697.7 396.3 1683.5 392.1"/><line class="cls-8" x1="1697.2" y1="396" x2="1699.4" y2="398.5"/><path class="cls-2" d="M1954.3,459.1V392.9l-7.2,1.9-18.3,4.9-24.5,6.6-25.9,6.9-22.5,6-14.2,3.8-1.7.5-0.8.2c-0.3.3-.1,1.9-0.1,2.4v63.8l11.5-3.1,27.4-7.4,33.3-9,28.7-7.7,14-3.8h0.2Z"/><polygon class="cls-2" points="1791.5 410.8 1791.5 476.9 1839.2 490.3 1839.2 424.2 1791.5 410.8"/><path class="cls-2" d="M1790.9,410.4l6-1.6,15.6-4.2,21.5-5.8,23.9-6.4,22.3-6,17.2-4.6,5.5-1.5,2.9-.8a3.3,3.3,0,0,1,1.5.3l6.8,1.9,22.5,6.2,16.9,4.7,0.9,0.2-6,1.6-15.7,4.2-21.5,5.8-23.9,6.4-22.3,6-17.2,4.6-5.5,1.5-2.9.8a3.2,3.2,0,0,1-1.5-.2l-6.9-1.9-22.4-6.2-16.9-4.7-0.9-.2"/><polygon class="cls-4" points="1791.5 410 1791.5 476.1 1839.2 489.5 1839.2 423.4 1791.5 410"/><line class="cls-5" x1="1798.6" y1="454.6" x2="1803.1" y2="455.9"/><line class="cls-5" x1="1802.6" y1="412.7" x2="1802.6" y2="479"/><line class="cls-5" x1="1821.4" y1="461.3" x2="1825.8" y2="462.6"/><line class="cls-5" x1="1801.9" y1="474.2" x2="1804" y2="474.8"/><line class="cls-5" x1="1824.9" y1="480.9" x2="1827" y2="481.5"/><line class="cls-5" x1="1801.4" y1="417.3" x2="1803.5" y2="417.9"/><line class="cls-5" x1="1824.9" y1="424" x2="1827" y2="424.6"/><line class="cls-5" x1="1825.8" y1="419.7" x2="1825.8" y2="486"/><polygon class="cls-4" points="1954.3 458.6 1954.3 392.5 1839.2 423.4 1839.2 489.5 1954.3 458.6"/><polyline class="cls-4" points="1791.2 409.9 1906.3 379 1954.6 392.5 1839.3 423.4 1791.2 410"/><line class="cls-4" x1="1813.6" y1="416.2" x2="1813.6" y2="482.5"/><path class="cls-6" d="M1818.8,430.7l15.1,4.3v5l-15.1-4.3v-5m0-1.8a1.3,1.3,0,0,0-1,.4,1.7,1.7,0,0,0-.7,1.4v5a1.7,1.7,0,0,0,1.3,1.7l15.1,4.3h0.5a1.3,1.3,0,0,0,1-.4,1.7,1.7,0,0,0,.7-1.4v-5a1.7,1.7,0,0,0-1.3-1.7l-15.1-4.3h-0.5Z"/><path class="cls-6" d="M1818.8,448.5l15.1,4.3v5l-15.1-4.3v-5m0-1.7a1.3,1.3,0,0,0-1,.4,1.7,1.7,0,0,0-.7,1.4v5a1.7,1.7,0,0,0,1.3,1.7l15.1,4.3h0.5a1.3,1.3,0,0,0,1-.4,1.7,1.7,0,0,0,.7-1.4v-5a1.7,1.7,0,0,0-1.3-1.7l-15.1-4.3h-0.5Z"/><path class="cls-6" d="M1818.8,466.3l15.1,4.3v5l-15.1-4.3v-5m0-1.7a1.3,1.3,0,0,0-1,.4,1.7,1.7,0,0,0-.7,1.4v5a1.7,1.7,0,0,0,1.3,1.7l15.1,4.3h0.5a1.3,1.3,0,0,0,1-.4,1.7,1.7,0,0,0,.7-1.4v-5a1.7,1.7,0,0,0-1.3-1.7l-15.1-4.3h-0.5Z"/><path class="cls-6" d="M1869,423.8v48.9l-5.8,1.6V425.4l5.8-1.6m0-2.3h-0.6l-5.8,1.6a2.3,2.3,0,0,0-1.7,2.2v48.9a2.1,2.1,0,0,0,.9,1.8,2.4,2.4,0,0,0,1.4.5h0.6l5.8-1.6a2.3,2.3,0,0,0,1.7-2.2V423.8a2.1,2.1,0,0,0-.9-1.8,1.9,1.9,0,0,0-1.4-.5h0Z"/><line class="cls-7" x1="1866.5" y1="474.3" x2="1866.5" y2="424.3"/><path class="cls-6" d="M1914.9,411.5v48.8l-5.8,1.6V413.1l5.8-1.6m0-2.3h-0.6l-5.8,1.6a2.3,2.3,0,0,0-1.7,2.2v48.9a2.1,2.1,0,0,0,.9,1.8,2.4,2.4,0,0,0,1.4.5h0.6l5.8-1.6a2.3,2.3,0,0,0,1.7-2.2V411.5a2.1,2.1,0,0,0-.9-1.8,2.4,2.4,0,0,0-1.4-.5h0Z"/><line class="cls-7" x1="1913" y1="461.6" x2="1913" y2="412.7"/><path class="cls-6" d="M1945.6,404.1v48.8l-5.8,1.6V405.7l5.8-1.6m0-2.3H1945l-5.8,1.6a2.3,2.3,0,0,0-1.7,2.2v48.8a2.1,2.1,0,0,0,.9,1.8,2.4,2.4,0,0,0,1.4.5h0.6l5.8-1.6a2.3,2.3,0,0,0,1.7-2.2V404.1a2.1,2.1,0,0,0-.9-1.8,2.4,2.4,0,0,0-1.4-.5h0Z"/><line class="cls-7" x1="1943.2" y1="454.6" x2="1943.2" y2="404.6"/><path class="cls-6" d="M1899.6,415.2V464l-5.8,1.6V416.8l5.8-1.6m0-2.3H1899l-5.8,1.6a2.3,2.3,0,0,0-1.7,2.2v48.8a2.1,2.1,0,0,0,.9,1.8,2.4,2.4,0,0,0,1.4.5h0.6l5.8-1.6a2.3,2.3,0,0,0,1.7-2.2V415.2a2.1,2.1,0,0,0-.9-1.8,2.4,2.4,0,0,0-1.4-.5h0Z"/><line class="cls-7" x1="1896.7" y1="465" x2="1896.7" y2="416.2"/><path class="cls-6" d="M1930.2,407.8v48.8l-5.8,1.6V409.4l5.8-1.6m0-2.3h-0.6l-5.8,1.6a2.3,2.3,0,0,0-1.7,2.2v48.8a2.1,2.1,0,0,0,.9,1.8,2.4,2.4,0,0,0,1.4.5h0.6l5.8-1.6a2.3,2.3,0,0,0,1.7-2.2V407.8a2.1,2.1,0,0,0-.9-1.8,2,2,0,0,0-1.4-.5h0Z"/><line class="cls-7" x1="1928.1" y1="458.1" x2="1928.1" y2="409.2"/><path class="cls-6" d="M1884.3,420.1v48.8l-5.8,1.6V421.7l5.8-1.6m0-2.3h-0.6l-5.8,1.6a2.3,2.3,0,0,0-1.7,2.2v48.8a2.1,2.1,0,0,0,.9,1.8,2.4,2.4,0,0,0,1.4.5h0.6l5.8-1.6a2.3,2.3,0,0,0,1.7-2.2V420.1a2.1,2.1,0,0,0-.9-1.8,1.9,1.9,0,0,0-1.4-.5h0Z"/><line class="cls-7" x1="1881.6" y1="470.9" x2="1881.6" y2="420.9"/><path class="cls-6" d="M1853.7,428.2v48.9l-5.8,1.6V429.8l5.8-1.6m0-2.4h-0.6l-5.8,1.5a2.3,2.3,0,0,0-1.7,2.2v48.9a2.1,2.1,0,0,0,.9,1.8,2.4,2.4,0,0,0,1.4.5h0.6l5.8-1.6a2.3,2.3,0,0,0,1.7-2.2V428a2.1,2.1,0,0,0-.9-1.8,3.3,3.3,0,0,0-1.4-.4h0Z"/><line class="cls-7" x1="1851.4" y1="477.8" x2="1851.4" y2="427.8"/><polyline class="cls-7" points="1832.8 469.7 1832.8 473.7 1818.6 469.7"/><line class="cls-8" x1="1832.3" y1="473.4" x2="1834.5" y2="475.9"/><path class="cls-6" d="M1794.9,459.9l15.1,4.3v5l-15.1-4.3v-5m0-1.7a1.3,1.3,0,0,0-1,.4,1.7,1.7,0,0,0-.7,1.4v5a1.7,1.7,0,0,0,1.3,1.7l15.1,4.3h0.5a1.3,1.3,0,0,0,1-.4,1.7,1.7,0,0,0,.7-1.4v-5a1.7,1.7,0,0,0-1.3-1.7l-15.1-4.3h-0.5Z"/><polyline class="cls-7" points="1808.4 463.9 1808.4 467.3 1794.2 463.6"/><line class="cls-8" x1="1808.4" y1="467" x2="1810.6" y2="469.5"/><path class="cls-6" d="M1794.9,441.9l15.1,4.3v5l-15.1-4.3v-5m0-1.7a1.3,1.3,0,0,0-1,.4,1.7,1.7,0,0,0-.7,1.4v5a1.7,1.7,0,0,0,1.3,1.7l15.1,4.3h0.5a1.3,1.3,0,0,0,1-.4,1.7,1.7,0,0,0,.7-1.4v-5a1.7,1.7,0,0,0-1.3-1.7l-15.1-4.3h-0.5Z"/><polyline class="cls-7" points="1808.4 445.3 1808.4 449.3 1794.2 445.3"/><line class="cls-8" x1="1808.4" y1="449.1" x2="1810.6" y2="451.6"/><path class="cls-6" d="M1794.9,424.4l15.1,4.3v5l-15.1-4.3v-5m0-1.8a1.3,1.3,0,0,0-1,.4,1.7,1.7,0,0,0-.7,1.4v5a1.7,1.7,0,0,0,1.3,1.7l15.1,4.3h0.5a1.3,1.3,0,0,0,1-.4,1.7,1.7,0,0,0,.7-1.4v-5a1.7,1.7,0,0,0-1.3-1.7l-15.1-4.3h-0.5Z"/><polyline class="cls-7" points="1808.4 427.8 1808.4 431.6 1794.2 427.7"/><line class="cls-8" x1="1808.4" y1="431.5" x2="1810.6" y2="434"/><polyline class="cls-7" points="1832.8 452.2 1832.8 455.8 1818.6 452"/><line class="cls-8" x1="1832.2" y1="455.6" x2="1834.4" y2="458.1"/><polyline class="cls-7" points="1832.8 433.6 1832.8 437.9 1818.6 433.8"/><line class="cls-8" x1="1832.2" y1="437.7" x2="1834.5" y2="440.2"/><polygon class="cls-2" points="1370.9 388.6 1370.9 322.5 1255.8 353.4 1255.8 419.5 1370.9 388.6"/><polygon class="cls-2" points="1208.2 340.4 1208.2 406.5 1255.8 419.9 1255.8 353.8 1208.2 340.4"/><polyline class="cls-2" points="1207.6 340 1322.7 309.1 1371.1 322.5 1255.7 353.4 1207.6 340"/><polygon class="cls-4" points="1208.2 339.6 1208.2 405.7 1255.8 419.1 1255.8 353 1208.2 339.6"/><line class="cls-5" x1="1215.3" y1="384.2" x2="1219.7" y2="385.5"/><line class="cls-5" x1="1219.2" y1="342.3" x2="1219.2" y2="408.6"/><line class="cls-5" x1="1238.1" y1="390.9" x2="1242.5" y2="392.2"/><line class="cls-5" x1="1218.6" y1="403.8" x2="1220.7" y2="404.3"/><line class="cls-5" x1="1241.6" y1="410.5" x2="1243.7" y2="411"/><line class="cls-5" x1="1218.6" y1="346.9" x2="1220.7" y2="347.5"/><line class="cls-5" x1="1241.6" y1="353.6" x2="1243.7" y2="354.2"/><line class="cls-5" x1="1242.5" y1="349.3" x2="1242.5" y2="415.6"/><polygon class="cls-4" points="1370.9 388.2 1370.9 322 1255.8 353 1255.8 419.1 1370.9 388.2"/><polyline class="cls-4" points="1207.8 339.5 1322.9 308.6 1371.3 322 1255.9 353 1207.8 339.6"/><line class="cls-4" x1="1230.3" y1="345.8" x2="1230.3" y2="411.1"/><path class="cls-6" d="M1235.5,360.3l15.1,4.3v5l-15.1-4.3v-5m0-1.8a1.3,1.3,0,0,0-1,.4,1.7,1.7,0,0,0-.7,1.4v5a1.7,1.7,0,0,0,1.3,1.7l15.1,4.3h0.5a1.3,1.3,0,0,0,1-.4,1.7,1.7,0,0,0,.7-1.4v-5a1.7,1.7,0,0,0-1.3-1.7l-15.1-4.2h-0.5v-0.1Z"/><path class="cls-6" d="M1235.5,378.1l15.1,4.3v5l-15.1-4.3v-5m0-1.8a1.3,1.3,0,0,0-1,.4,1.7,1.7,0,0,0-.7,1.4v5a1.7,1.7,0,0,0,1.3,1.7l15.1,4.3h0.5a1.3,1.3,0,0,0,1-.4,1.7,1.7,0,0,0,.7-1.4v-5a1.7,1.7,0,0,0-1.3-1.7l-15.1-4.2h-0.5v-0.1Z"/><path class="cls-6" d="M1235.5,395.9l15.1,4.3v5l-15.1-4.3v-5m0-1.8a1.3,1.3,0,0,0-1,.4,1.7,1.7,0,0,0-.7,1.4v5a1.7,1.7,0,0,0,1.3,1.7l15.1,4.3h0.5a1.3,1.3,0,0,0,1-.4,1.7,1.7,0,0,0,.7-1.4v-5a1.7,1.7,0,0,0-1.3-1.7l-15.1-4.2h-0.5v-0.1Z"/><path class="cls-6" d="M1285.7,353.4v48.9l-5.8,1.6v-49l5.8-1.5m0-2.3h-0.6l-5.8,1.6a2.3,2.3,0,0,0-1.7,2.2v49a2.1,2.1,0,0,0,.9,1.8,2.4,2.4,0,0,0,1.4.5h0.6l5.8-1.6a2.3,2.3,0,0,0,1.7-2.2v-49a2.1,2.1,0,0,0-.9-1.8,1.9,1.9,0,0,0-1.4-.5h0Z"/><line class="cls-7" x1="1283.2" y1="403.9" x2="1283.2" y2="353.9"/><path class="cls-6" d="M1331.6,341.1v48.8l-5.8,1.6V342.7l5.8-1.6m0-2.3H1331l-5.8,1.6a2.3,2.3,0,0,0-1.7,2.2v48.8a2.1,2.1,0,0,0,.9,1.8,2.4,2.4,0,0,0,1.4.5h0.6l5.8-1.6a2.3,2.3,0,0,0,1.7-2.2V341.1a2.1,2.1,0,0,0-.9-1.8,2.4,2.4,0,0,0-1.4-.5h0Z"/><line class="cls-7" x1="1329.7" y1="391.1" x2="1329.7" y2="342.3"/><path class="cls-6" d="M1362.2,333.7v48.8l-5.8,1.6V335.3l5.8-1.6m0-2.3h-0.6l-5.8,1.5a2.3,2.3,0,0,0-1.7,2.2v48.8a2.1,2.1,0,0,0,.9,1.8,2.4,2.4,0,0,0,1.4.5h0.6l5.8-1.6a2.3,2.3,0,0,0,1.7-2.2V333.6a2.1,2.1,0,0,0-.9-1.8,3.3,3.3,0,0,0-1.4-.4h0Z"/><line class="cls-7" x1="1359.9" y1="384.2" x2="1359.9" y2="334.2"/><path class="cls-6" d="M1316.3,344.8v48.8l-5.8,1.6V346.4l5.8-1.6m0-2.3h-0.6l-5.8,1.6a2.3,2.3,0,0,0-1.7,2.2v48.8a2.1,2.1,0,0,0,.9,1.8,2.4,2.4,0,0,0,1.4.5h0.6l5.8-1.6a2.3,2.3,0,0,0,1.7-2.2V344.8a2.1,2.1,0,0,0-.9-1.8,2.4,2.4,0,0,0-1.4-.5h0Z"/><line class="cls-7" x1="1313.4" y1="394.6" x2="1313.4" y2="345.8"/><path class="cls-6" d="M1346.9,337.4v48.8l-5.8,1.6V339l5.8-1.6m0-2.3h-0.6l-5.8,1.6a2.3,2.3,0,0,0-1.7,2.2v48.8a2.1,2.1,0,0,0,.9,1.8,2.4,2.4,0,0,0,1.4.5h0.6l5.8-1.6a2.3,2.3,0,0,0,1.7-2.2V337.4a2.1,2.1,0,0,0-.9-1.8,2.4,2.4,0,0,0-1.4-.5h0Z"/><line class="cls-7" x1="1344.8" y1="387.6" x2="1344.8" y2="338.8"/><path class="cls-6" d="M1301,349.7v48.8l-5.8,1.6V351.3l5.8-1.6m0-2.3h-0.6l-5.8,1.6a2.3,2.3,0,0,0-1.7,2.2V400a2.1,2.1,0,0,0,.9,1.8,2.4,2.4,0,0,0,1.4.5h0.6l5.8-1.6a2.3,2.3,0,0,0,1.7-2.2V349.7a2.1,2.1,0,0,0-.9-1.8,1.9,1.9,0,0,0-1.4-.5h0Z"/><line class="cls-7" x1="1298.3" y1="400.4" x2="1298.3" y2="350.4"/><path class="cls-6" d="M1270.4,357.8v48.9l-5.8,1.6V359.4l5.8-1.6m0-2.4h-0.6l-5.8,1.5a2.3,2.3,0,0,0-1.7,2.2V408a2.1,2.1,0,0,0,.9,1.8,2.4,2.4,0,0,0,1.4.5h0.6l5.8-1.6a2.3,2.3,0,0,0,1.7-2.2V357.6a2.1,2.1,0,0,0-.9-1.8,3.3,3.3,0,0,0-1.4-.4h0Z"/><line class="cls-7" x1="1268.1" y1="407.4" x2="1268.1" y2="357.4"/><polyline class="cls-7" points="1249.5 399.3 1249.5 403.2 1235.3 399.3"/><line class="cls-8" x1="1249" y1="403" x2="1251.2" y2="405.5"/><path class="cls-6" d="M1211.6,389.5l15.1,4.3v5l-15.1-4.3v-5m0-1.7a1.3,1.3,0,0,0-1,.4,1.7,1.7,0,0,0-.7,1.4v5a1.7,1.7,0,0,0,1.3,1.7l15.1,4.3h0.5a1.3,1.3,0,0,0,1-.4,1.7,1.7,0,0,0,.7-1.4v-5a1.7,1.7,0,0,0-1.3-1.7l-15.1-4.2h-0.5v-0.1Z"/><polyline class="cls-7" points="1225 393.5 1225 396.9 1210.8 393.2"/><line class="cls-8" x1="1225" y1="396.6" x2="1227.3" y2="399.1"/><path class="cls-6" d="M1211.6,371.5l15.1,4.3v5l-15.1-4.3v-5m0-1.7a1.3,1.3,0,0,0-1,.4,1.7,1.7,0,0,0-.7,1.4v5a1.7,1.7,0,0,0,1.3,1.7l15.1,4.3h0.5a1.3,1.3,0,0,0,1-.4,1.7,1.7,0,0,0,.7-1.4v-5a1.7,1.7,0,0,0-1.3-1.7l-15.1-4.2h-0.5v-0.1Z"/><polyline class="cls-7" points="1225 374.9 1225 378.9 1210.8 374.9"/><line class="cls-8" x1="1225" y1="378.7" x2="1227.3" y2="381.2"/><path class="cls-6" d="M1211.6,353.9l15.1,4.3v5l-15.1-4.3v-5m0-1.7a1.3,1.3,0,0,0-1,.4,1.7,1.7,0,0,0-.7,1.4v5a1.7,1.7,0,0,0,1.3,1.7l15.1,4.3h0.5a1.3,1.3,0,0,0,1-.4,1.7,1.7,0,0,0,.7-1.4v-5a1.7,1.7,0,0,0-1.3-1.7l-15.1-4.3h-0.5Z"/><polyline class="cls-7" points="1225 357.4 1225 361.2 1210.8 357.3"/><line class="cls-8" x1="1225" y1="361.1" x2="1227.3" y2="363.6"/><polyline class="cls-7" points="1249.5 381.8 1249.5 385.4 1235.3 381.6"/><line class="cls-8" x1="1248.8" y1="385.2" x2="1251.1" y2="387.6"/><polyline class="cls-7" points="1249.5 363.2 1249.5 367.5 1235.3 363.4"/><line class="cls-8" x1="1248.9" y1="367.3" x2="1251.2" y2="369.8"/><polygon class="cls-2" points="1506 427.6 1506 361.5 1390.9 392.4 1390.9 458.5 1506 427.6"/><polygon class="cls-2" points="1343.3 379.4 1343.3 445.5 1390.9 458.9 1390.9 392.8 1343.3 379.4"/><polyline class="cls-2" points="1342.7 379 1457.8 348.1 1506.2 361.5 1390.8 392.4 1342.7 379"/><polygon class="cls-4" points="1343.3 378.6 1343.3 444.7 1390.9 458.1 1390.9 392 1343.3 378.6"/><line class="cls-5" x1="1350.4" y1="423.2" x2="1354.8" y2="424.5"/><line class="cls-5" x1="1354.3" y1="381.3" x2="1354.3" y2="447.6"/><line class="cls-5" x1="1373.2" y1="429.9" x2="1377.6" y2="431.2"/><line class="cls-5" x1="1353.7" y1="442.8" x2="1355.8" y2="443.3"/><line class="cls-5" x1="1376.7" y1="449.5" x2="1378.8" y2="450"/><line class="cls-5" x1="1353.7" y1="385.9" x2="1355.8" y2="386.5"/><line class="cls-5" x1="1376.7" y1="392.6" x2="1378.8" y2="393.2"/><line class="cls-5" x1="1377.6" y1="388.3" x2="1377.6" y2="454.6"/><polygon class="cls-4" points="1506 427.2 1506 361 1390.9 392 1390.9 458.1 1506 427.2"/><polyline class="cls-4" points="1342.9 378.5 1458 347.6 1506.4 361 1391 392 1342.9 378.6"/><line class="cls-4" x1="1365.4" y1="384.8" x2="1365.4" y2="451.1"/><path class="cls-6" d="M1370.6,399.3l15.1,4.3v5l-15.1-4.3v-5m0-1.8a1.3,1.3,0,0,0-1,.4,1.7,1.7,0,0,0-.7,1.4v5a1.7,1.7,0,0,0,1.3,1.7l15.1,4.3h0.5a1.3,1.3,0,0,0,1-.4,1.7,1.7,0,0,0,.7-1.4v-5a1.7,1.7,0,0,0-1.3-1.7l-15.1-4.3h-0.5Z"/><path class="cls-6" d="M1370.6,417.1l15.1,4.3v5l-15.1-4.3v-5m0-1.8a1.3,1.3,0,0,0-1,.4,1.7,1.7,0,0,0-.7,1.4v5a1.7,1.7,0,0,0,1.3,1.7l15.1,4.3h0.5a1.3,1.3,0,0,0,1-.4,1.7,1.7,0,0,0,.7-1.4v-5a1.7,1.7,0,0,0-1.3-1.7l-15.1-4.3h-0.5Z"/><path class="cls-6" d="M1370.6,434.9l15.1,4.3v5l-15.1-4.3v-5m0-1.8a1.3,1.3,0,0,0-1,.4,1.7,1.7,0,0,0-.7,1.4v5a1.7,1.7,0,0,0,1.3,1.7l15.1,4.3h0.5a1.3,1.3,0,0,0,1-.4,1.7,1.7,0,0,0,.7-1.4v-5a1.7,1.7,0,0,0-1.3-1.7l-15.1-4.3h-0.5Z"/><path class="cls-6" d="M1420.8,392.4v48.9l-5.8,1.6v-49l5.8-1.5m0-2.3h-0.6l-5.8,1.6a2.3,2.3,0,0,0-1.7,2.2v49a2.1,2.1,0,0,0,.9,1.8,2.4,2.4,0,0,0,1.4.5h0.6l5.8-1.6a2.3,2.3,0,0,0,1.7-2.2v-49a2.1,2.1,0,0,0-.9-1.8,1.9,1.9,0,0,0-1.4-.5h0Z"/><line class="cls-7" x1="1418.3" y1="442.9" x2="1418.3" y2="392.9"/><path class="cls-6" d="M1466.7,380.1v48.8l-5.8,1.6V381.7l5.8-1.6m0-2.3h-0.6l-5.8,1.5a2.3,2.3,0,0,0-1.7,2.2v48.8a2.1,2.1,0,0,0,.9,1.8,2.4,2.4,0,0,0,1.4.5h0.6l5.8-1.6a2.3,2.3,0,0,0,1.7-2.2V380a2.1,2.1,0,0,0-.9-1.8,3.3,3.3,0,0,0-1.4-.4h0Z"/><line class="cls-7" x1="1464.8" y1="430.1" x2="1464.8" y2="380.3"/><path class="cls-6" d="M1497.3,372.7v48.8l-5.8,1.6V374.3l5.8-1.6m0-2.3h-0.6l-5.8,1.5a2.3,2.3,0,0,0-1.7,2.2v48.8a2.1,2.1,0,0,0,.9,1.8,2.4,2.4,0,0,0,1.4.5h0.6l5.8-1.6a2.3,2.3,0,0,0,1.7-2.2V372.6a2.1,2.1,0,0,0-.9-1.8,3.3,3.3,0,0,0-1.4-.4h0Z"/><line class="cls-7" x1="1495" y1="423.2" x2="1495" y2="373.2"/><path class="cls-6" d="M1451.4,383.8v48.8l-5.8,1.6V385.4l5.8-1.6m0-2.3h-0.6L1445,383a2.3,2.3,0,0,0-1.7,2.2V434a2.1,2.1,0,0,0,.9,1.8,2.4,2.4,0,0,0,1.4.5h0.6l5.8-1.6a2.3,2.3,0,0,0,1.7-2.2V383.7a2.1,2.1,0,0,0-.9-1.8,3.3,3.3,0,0,0-1.4-.4h0Z"/><line class="cls-7" x1="1449.5" y1="434.6" x2="1449.5" y2="383.8"/><path class="cls-6" d="M1482,376.4v48.8l-5.8,1.6V378l5.8-1.6m0-2.3h-0.6l-5.8,1.5a2.3,2.3,0,0,0-1.7,2.2v48.8a2.1,2.1,0,0,0,.9,1.8,2.4,2.4,0,0,0,1.4.5h0.6l5.8-1.6a2.3,2.3,0,0,0,1.7-2.2V376.3a2.1,2.1,0,0,0-.9-1.8,3.3,3.3,0,0,0-1.4-.4h0Z"/><line class="cls-7" x1="1479.9" y1="426.6" x2="1479.9" y2="376.8"/><path class="cls-6" d="M1436.1,388.7v48.8l-5.8,1.6V390.3l5.8-1.6m0-2.3h-0.6l-5.8,1.6a2.3,2.3,0,0,0-1.7,2.2V439a2.1,2.1,0,0,0,.9,1.8,2.4,2.4,0,0,0,1.4.5h0.6l5.8-1.6a2.3,2.3,0,0,0,1.7-2.2V388.7a2.1,2.1,0,0,0-.9-1.8,1.9,1.9,0,0,0-1.4-.5h0Z"/><line class="cls-7" x1="1433.4" y1="439.4" x2="1433.4" y2="389.4"/><path class="cls-6" d="M1405.5,396.8v48.9l-5.8,1.6V398.4l5.8-1.6m0-2.4h-0.6l-5.8,1.6a2.3,2.3,0,0,0-1.7,2.2v48.9a2.1,2.1,0,0,0,.9,1.8,2.4,2.4,0,0,0,1.4.5h0.6l5.8-1.6a2.3,2.3,0,0,0,1.7-2.2V396.7a2.1,2.1,0,0,0-.9-1.8,2.4,2.4,0,0,0-1.4-.5h0Z"/><line class="cls-7" x1="1403.1" y1="446.4" x2="1403.1" y2="396.4"/><polyline class="cls-7" points="1384.5 438.3 1384.5 442.2 1370.3 438.3"/><line class="cls-8" x1="1384.1" y1="442" x2="1386.3" y2="444.5"/><path class="cls-6" d="M1346.7,428.5l15.1,4.3v5l-15.1-4.3v-5m0-1.7a1.3,1.3,0,0,0-1,.4,1.7,1.7,0,0,0-.7,1.4v5a1.7,1.7,0,0,0,1.3,1.7l15.1,4.3h0.5a1.3,1.3,0,0,0,1-.4,1.7,1.7,0,0,0,.7-1.4v-5a1.7,1.7,0,0,0-1.3-1.7l-15.1-4.2h-0.5v-0.1Z"/><polyline class="cls-7" points="1360.1 432.5 1360.1 435.9 1345.9 432.2"/><line class="cls-8" x1="1360.1" y1="435.6" x2="1362.4" y2="438.1"/><path class="cls-6" d="M1346.7,410.5l15.1,4.3v5l-15.1-4.3v-5m0-1.7a1.3,1.3,0,0,0-1,.4,1.7,1.7,0,0,0-.7,1.4v5a1.7,1.7,0,0,0,1.3,1.7l15.1,4.3h0.5a1.3,1.3,0,0,0,1-.4,1.7,1.7,0,0,0,.7-1.4v-5a1.7,1.7,0,0,0-1.3-1.7l-15.1-4.2h-0.5v-0.1Z"/><polyline class="cls-7" points="1360.1 413.9 1360.1 417.9 1345.9 413.9"/><line class="cls-8" x1="1360.1" y1="417.7" x2="1362.4" y2="420.2"/><path class="cls-6" d="M1346.7,392.9l15.1,4.3v5l-15.1-4.3v-5m0-1.7a1.3,1.3,0,0,0-1,.4,1.7,1.7,0,0,0-.7,1.4v5a1.7,1.7,0,0,0,1.3,1.7l15.1,4.3h0.5a1.3,1.3,0,0,0,1-.4,1.7,1.7,0,0,0,.7-1.4v-5a1.7,1.7,0,0,0-1.3-1.7l-15.1-4.3h-0.5Z"/><polyline class="cls-7" points="1360.1 396.4 1360.1 400.2 1345.9 396.3"/><line class="cls-8" x1="1360.1" y1="400.1" x2="1362.4" y2="402.6"/><polyline class="cls-7" points="1384.5 420.8 1384.5 424.4 1370.3 420.6"/><line class="cls-8" x1="1383.9" y1="424.2" x2="1386.1" y2="426.6"/><polyline class="cls-7" points="1384.5 402.2 1384.5 406.5 1370.3 402.4"/><line class="cls-8" x1="1384" y1="406.3" x2="1386.2" y2="408.8"/><polygon class="cls-12" points="1622.3 396.4 1622.3 396.2 1622.2 396.2 1622.3 396.4"/><polygon class="cls-12" points="1622.4 396 1622.4 396.1 1622.6 396.1 1622.5 395.8 1622.4 396"/><path class="cls-12" d="M1622.1,396m0.2,0.4v-0.2h0v0.2Zm0.1-.3h0Z"/><path class="cls-14" d="M1622.1,395.8h0V396H1622v-0.2h0"/><line class="cls-3" x1="1074.3" y1="407.8" x2="1074.3" y2="684"/><line class="cls-5" x1="1593.2" y1="333.95" x2="1595.3" y2="334.55"/><polygon class="cls-2" points="1534.3 338.95 1498.6 357.55 1479.6 412.65 1482 412.65 1498.3 405.15 1607.9 405.45 1534.3 338.95"/><polygon class="cls-4" points="1530.1 339.65 1497.9 356.35 1479.6 412.85 1482 412.85 1498.3 405.85 1607.9 406.25 1530.1 339.65"/><polygon class="cls-2" points="1603 441.95 1602.8 515.95 1496.9 488.05 1497 409.05 1514.5 363.25 1545.2 349.45 1597.1 364.95 1603 441.95"/><polyline class="cls-2" points="1730.2 404.75 1730 478.75 1602.8 515.95 1603 441.95"/><line class="cls-4" x1="1602.8" y1="417.55" x2="1504.25" y2="392"/><line class="cls-15" x1="1730" y1="380.35" x2="1602.8" y2="417.55"/><line class="cls-4" x1="1602.8" y1="405.05" x2="1508.15" y2="380.6"/><line class="cls-15" x1="1730" y1="367.85" x2="1602.8" y2="405.05"/><line class="cls-4" x1="1602.8" y1="392.55" x2="1512.18" y2="368.7"/><line class="cls-15" x1="1730" y1="355.35" x2="1602.8" y2="392.55"/><line class="cls-4" x1="1602.8" y1="380.15" x2="1524.3" y2="359.05"/><line class="cls-15" x1="1730" y1="342.95" x2="1602.8" y2="380.15"/><line class="cls-4" x1="1603.6" y1="504.95" x2="1497.6" y2="477.05"/><line class="cls-4" x1="1730.2" y1="467.75" x2="1603.6" y2="504.95"/><line class="cls-4" x1="1603.6" y1="492.55" x2="1497.6" y2="464.55"/><line class="cls-4" x1="1730.2" y1="455.25" x2="1603.6" y2="492.55"/><line class="cls-4" x1="1603.6" y1="480.35" x2="1497.6" y2="452.35"/><line class="cls-4" x1="1730.2" y1="443.05" x2="1603.6" y2="480.35"/><line class="cls-4" x1="1603.6" y1="467.55" x2="1497.6" y2="439.65"/><line class="cls-4" x1="1730.8" y1="430.35" x2="1603.6" y2="467.55"/><line class="cls-4" x1="1603.6" y1="454.85" x2="1497.6" y2="426.95"/><line class="cls-4" x1="1730.8" y1="417.65" x2="1603.6" y2="454.85"/><line class="cls-4" x1="1603.6" y1="442.15" x2="1497.6" y2="414.25"/><line class="cls-4" x1="1603.6" y1="429.45" x2="1499.52" y2="402.05"/><line class="cls-15" x1="1730.8" y1="392.25" x2="1603.6" y2="429.45"/><polygon class="cls-2" points="1534.3 339.95 1681.5 296.85 1726.6 335.85 1577 378.95 1534.3 339.95"/><polygon class="cls-2" points="1577 378.95 1726.6 335.85 1744 399.55 1596.8 442.65 1577 378.95"/><line class="cls-4" x1="1680.5" y1="298.35" x2="1533.3" y2="341.45"/><line class="cls-4" x1="1542.1" y1="349.15" x2="1690" y2="305.75"/><line class="cls-4" x1="1551.9" y1="356.85" x2="1699.6" y2="313.25"/><line class="cls-4" x1="1560.7" y1="364.45" x2="1709.2" y2="320.75"/><line class="cls-4" x1="1569.4" y1="372.15" x2="1718.7" y2="328.15"/><line class="cls-4" x1="1577.2" y1="379.85" x2="1728.3" y2="335.65"/><line class="cls-4" x1="1580.9" y1="392.65" x2="1731.2" y2="348.75"/><line class="cls-4" x1="1585.7" y1="405.55" x2="1734.2" y2="361.85"/><line class="cls-4" x1="1589.4" y1="418.45" x2="1737.1" y2="374.85"/><line class="cls-4" x1="1593.1" y1="431.25" x2="1740.1" y2="387.95"/><polygon class="cls-2" points="1528.1 496.15 1528.2 433.75 1561.9 442.55 1561.8 504.95 1528.1 496.15"/><path class="cls-2" d="M1528.1,423.75v-18.1c0.2-.5,5.3-12,14.9-16.2l0.6-.3,0.6,0.3c8.6,4.3,16.9,23.3,17.2,24.1v18.8Z"/><line class="cls-4" x1="1602.8" y1="515.95" x2="1603" y2="441.95"/><polyline class="cls-4" points="1543.8 350.15 1514.5 363.25 1497 409.05 1496.9 488.05 1602.8 515.95 1730 478.75 1730.2 404.75"/><line class="cls-16" x1="1727.1" y1="390.85" x2="1730.6" y2="403.45"/><line class="cls-16" x1="1713.8" y1="395.05" x2="1717.2" y2="407.45"/><line class="cls-16" x1="1700.5" y1="399.35" x2="1703.8" y2="411.35"/><line class="cls-16" x1="1686.8" y1="402.45" x2="1690.5" y2="415.25"/><line class="cls-16" x1="1673.4" y1="406.65" x2="1677.1" y2="419.15"/><line class="cls-16" x1="1660" y1="410.45" x2="1663.7" y2="423.05"/><line class="cls-16" x1="1646.4" y1="413.95" x2="1650.3" y2="427.05"/><line class="cls-16" x1="1633.2" y1="418.55" x2="1636.9" y2="430.95"/><line class="cls-16" x1="1620" y1="423.35" x2="1623.5" y2="434.85"/><line class="cls-16" x1="1606.4" y1="426.45" x2="1610.2" y2="438.75"/><line class="cls-16" x1="1711" y1="340.45" x2="1714.5" y2="353.05"/><line class="cls-16" x1="1697.6" y1="343.65" x2="1701.1" y2="356.05"/><line class="cls-16" x1="1684.3" y1="347.95" x2="1687.7" y2="359.95"/><line class="cls-16" x1="1670.6" y1="351.05" x2="1674.3" y2="363.85"/><line class="cls-16" x1="1657.3" y1="355.25" x2="1660.9" y2="367.75"/><line class="cls-16" x1="1643.8" y1="359.05" x2="1647.5" y2="371.65"/><line class="cls-16" x1="1631.3" y1="363.55" x2="1635.2" y2="376.65"/><line class="cls-16" x1="1617.1" y1="367.15" x2="1620.8" y2="379.55"/><line class="cls-16" x1="1603.9" y1="371.95" x2="1607.4" y2="383.45"/><line class="cls-16" x1="1590.2" y1="375.05" x2="1594" y2="387.35"/><line class="cls-16" x1="1730.1" y1="376.15" x2="1733.5" y2="388.75"/><line class="cls-16" x1="1716.7" y1="380.35" x2="1720.2" y2="392.75"/><line class="cls-16" x1="1703.4" y1="384.75" x2="1706.8" y2="396.65"/><line class="cls-16" x1="1689.7" y1="387.75" x2="1693.4" y2="400.55"/><line class="cls-16" x1="1676.4" y1="391.95" x2="1680" y2="404.45"/><line class="cls-16" x1="1662.9" y1="395.75" x2="1666.6" y2="408.45"/><line class="cls-16" x1="1649.4" y1="399.25" x2="1653.3" y2="412.35"/><line class="cls-16" x1="1636.2" y1="403.85" x2="1639.9" y2="416.25"/><line class="cls-16" x1="1623" y1="408.65" x2="1626.5" y2="420.15"/><line class="cls-16" x1="1609.3" y1="411.75" x2="1613.1" y2="424.05"/><line class="cls-16" x1="1718.3" y1="365.85" x2="1721.8" y2="378.55"/><line class="cls-16" x1="1705" y1="370.05" x2="1708.4" y2="382.45"/><line class="cls-16" x1="1691.7" y1="374.45" x2="1695" y2="386.35"/><line class="cls-16" x1="1678" y1="377.45" x2="1681.7" y2="390.25"/><line class="cls-16" x1="1664.6" y1="381.65" x2="1668.3" y2="394.25"/><line class="cls-16" x1="1651.2" y1="385.45" x2="1654.9" y2="398.15"/><line class="cls-16" x1="1637.6" y1="388.95" x2="1641.5" y2="402.05"/><line class="cls-16" x1="1624.4" y1="393.65" x2="1628.1" y2="405.95"/><line class="cls-16" x1="1611.2" y1="398.35" x2="1614.7" y2="409.85"/><line class="cls-16" x1="1597.6" y1="401.45" x2="1601.4" y2="413.85"/><line class="cls-16" x1="1721.2" y1="351.15" x2="1724.7" y2="363.85"/><line class="cls-16" x1="1707.9" y1="355.35" x2="1711.4" y2="367.75"/><line class="cls-16" x1="1694.6" y1="359.75" x2="1698" y2="371.65"/><line class="cls-16" x1="1680.9" y1="362.75" x2="1684.6" y2="375.55"/><line class="cls-16" x1="1667.6" y1="366.95" x2="1671.2" y2="379.55"/><line class="cls-16" x1="1654.1" y1="370.75" x2="1657.8" y2="383.45"/><line class="cls-16" x1="1640.6" y1="374.35" x2="1644.4" y2="387.35"/><line class="cls-16" x1="1627.3" y1="378.95" x2="1631.1" y2="391.25"/><line class="cls-16" x1="1614.2" y1="383.65" x2="1617.7" y2="395.25"/><line class="cls-16" x1="1600.5" y1="386.75" x2="1604.3" y2="399.15"/><line class="cls-17" x1="1698.9" y1="325.25" x2="1706.7" y2="331.95"/><line class="cls-17" x1="1685.8" y1="329.55" x2="1693.1" y2="335.85"/><line class="cls-17" x1="1672.3" y1="333.45" x2="1679.5" y2="339.75"/><line class="cls-17" x1="1658.7" y1="337.35" x2="1665.9" y2="343.65"/><line class="cls-17" x1="1645.3" y1="341.45" x2="1652.3" y2="347.65"/><line class="cls-17" x1="1631.2" y1="344.95" x2="1638.7" y2="351.55"/><line class="cls-17" x1="1618.2" y1="349.35" x2="1625" y2="355.45"/><line class="cls-17" x1="1603.6" y1="352.25" x2="1611.4" y2="359.35"/><line class="cls-17" x1="1590.2" y1="356.35" x2="1597.8" y2="363.25"/><line class="cls-17" x1="1576.6" y1="360.35" x2="1584.2" y2="367.25"/><line class="cls-17" x1="1684.3" y1="309.05" x2="1692" y2="315.75"/><line class="cls-17" x1="1671.1" y1="313.35" x2="1678.4" y2="319.65"/><line class="cls-17" x1="1657.6" y1="317.35" x2="1664.8" y2="323.65"/><line class="cls-17" x1="1644" y1="321.15" x2="1651.2" y2="327.55"/><line class="cls-17" x1="1630.6" y1="325.25" x2="1637.6" y2="331.45"/><line class="cls-17" x1="1616.5" y1="328.75" x2="1624" y2="335.35"/><line class="cls-17" x1="1603.6" y1="333.25" x2="1610.4" y2="339.35"/><line class="cls-17" x1="1588.9" y1="336.15" x2="1596.8" y2="343.25"/><line class="cls-17" x1="1575.5" y1="340.25" x2="1583.1" y2="347.15"/><line class="cls-17" x1="1562" y1="344.15" x2="1569.5" y2="351.05"/><line class="cls-17" x1="1699.4" y1="335.05" x2="1707.2" y2="341.75"/><line class="cls-17" x1="1686.3" y1="339.35" x2="1693.6" y2="345.65"/><line class="cls-17" x1="1672.7" y1="343.25" x2="1679.9" y2="349.55"/><line class="cls-17" x1="1659.1" y1="347.15" x2="1666.3" y2="353.55"/><line class="cls-17" x1="1645.8" y1="351.25" x2="1652.7" y2="357.45"/><line class="cls-17" x1="1631.7" y1="354.75" x2="1639.1" y2="361.35"/><line class="cls-17" x1="1618.7" y1="359.15" x2="1625.5" y2="365.25"/><line class="cls-17" x1="1604" y1="362.15" x2="1611.9" y2="369.15"/><line class="cls-17" x1="1590.6" y1="366.15" x2="1598.3" y2="373.15"/><line class="cls-17" x1="1577.1" y1="370.15" x2="1584.7" y2="377.05"/><line class="cls-17" x1="1685.7" y1="318.85" x2="1693.5" y2="325.55"/><line class="cls-17" x1="1672.6" y1="323.15" x2="1679.9" y2="329.55"/><line class="cls-17" x1="1659.1" y1="327.15" x2="1666.3" y2="333.45"/><line class="cls-17" x1="1645.5" y1="331.05" x2="1652.6" y2="337.35"/><line class="cls-17" x1="1632.1" y1="335.05" x2="1639" y2="341.25"/><line class="cls-17" x1="1618" y1="338.55" x2="1625.4" y2="345.15"/><line class="cls-17" x1="1605" y1="343.05" x2="1611.8" y2="349.15"/><line class="cls-17" x1="1590.3" y1="345.95" x2="1598.2" y2="353.05"/><line class="cls-17" x1="1576.9" y1="350.05" x2="1584.6" y2="356.95"/><line class="cls-17" x1="1563.4" y1="354.05" x2="1571" y2="360.85"/><line class="cls-17" x1="1669.5" y1="302.15" x2="1677.3" y2="308.85"/><line class="cls-17" x1="1656.4" y1="306.45" x2="1663.6" y2="312.85"/><line class="cls-17" x1="1642.8" y1="310.45" x2="1650" y2="316.75"/><line class="cls-17" x1="1629.2" y1="314.35" x2="1636.4" y2="320.65"/><line class="cls-17" x1="1615.9" y1="318.45" x2="1622.8" y2="324.55"/><line class="cls-17" x1="1601.8" y1="321.85" x2="1609.2" y2="328.55"/><line class="cls-17" x1="1588.8" y1="326.35" x2="1595.6" y2="332.45"/><line class="cls-17" x1="1574.1" y1="329.25" x2="1582" y2="336.35"/><line class="cls-17" x1="1560.7" y1="333.35" x2="1568.4" y2="340.25"/><line class="cls-17" x1="1547.2" y1="337.35" x2="1554.8" y2="344.15"/><path class="cls-2" d="M1703.4,521.75V327.65c0-16.2-13.6-29.3-29.8-29.3a29.5,29.5,0,0,0-29.6,29.3v193.9h0a3.3,3.3,0,0,0,0,1c0,3.4,13.9,6.4,30.1,6.4s29.3-2.7,29.3-6.1v-1.1h0Z"/><path class="cls-2" d="M1702.2,338.95l0.3-11.4c0-16.2-13.8-29.3-30-29.3s-29.7,13.1-29.7,29.3v11h0a3.3,3.3,0,0,0,0,1c0,3.4,14,6.4,30.2,6.4s29.5-2.7,29.5-6.1A9.4,9.4,0,0,1,1702.2,338.95Z"/><path class="cls-17" d="M1673,298.55c-12.5,0-22.1,22.6-22.1,45.2"/><path class="cls-17" d="M1673.9,298.55c12.5,0,22.1,22.6,22.1,45.2"/><path class="cls-17" d="M1665.7,345.25c0-23.6,2.4-46.7,6.3-46.7"/><path class="cls-17" d="M1679.7,345.25c0-23.6-2.4-46.7-6.3-46.7"/><path class="cls-17" d="M1643.84,338.95a3.53,3.53,0,0,0,0,1c0,3.6,14,6.8,30.11,6.8s29.36-2.8,29.36-6.5"/><path class="cls-18" d="M1677.5,374.95c-0.6,0-.6-0.9-0.6-1.2s0-1.2.6-1.2h19.2c0.5,0,.6.7,0.6,1.2s-0.1,1.2-.6,1.2h-19.2Z"/><path class="cls-18" d="M1677.5,361.35c-0.6,0-.6-0.9-0.6-1.2s0-1.2.6-1.2h19.2c0.5,0,.6.7,0.6,1.2s-0.1,1.2-.6,1.2h-19.2Z"/><path class="cls-18" d="M1677.5,388.45c-0.6,0-.6-0.9-0.6-1.2s0-1.2.6-1.2h19.2c0.5,0,.6.7,0.6,1.2s-0.1,1.2-.6,1.2h-19.2Z"/><path class="cls-18" d="M1677.5,402c-0.6,0-.6-0.9-0.6-1.2s0-1.2.6-1.2h19.2c0.5,0,.6.7,0.6,1.2s-0.1,1.2-.6,1.2h-19.2Z"/><path class="cls-18" d="M1677.5,415.55c-0.6,0-.6-0.9-0.6-1.2s0-1.2.6-1.2h19.2c0.5,0,.6.7,0.6,1.2s-0.1,1.2-.6,1.2h-19.2Z"/><path class="cls-18" d="M1677.5,442.65c-0.6,0-.6-0.9-0.6-1.2s0-1.2.6-1.2h19.2c0.5,0,.6.7,0.6,1.2s-0.1,1.2-.6,1.2h-19.2Z"/><path class="cls-18" d="M1677.5,456.15c-0.6,0-.6-0.9-0.6-1.2s0-1.2.6-1.2h19.2c0.5,0,.6.7,0.6,1.2s-0.1,1.2-.6,1.2h-19.2Z"/><path class="cls-18" d="M1677.5,429c-0.6,0-.6-0.9-0.6-1.2s0-1.2.6-1.2h19.2c0.5,0,.6.7,0.6,1.2s-0.1,1.2-.6,1.2h-19.2Z"/><path class="cls-18" d="M1677.5,469.75c-0.6,0-.6-0.9-0.6-1.2s0-1.2.6-1.2h19.2c0.5,0,.6.7,0.6,1.2s-0.1,1.2-.6,1.2h-19.2Z"/><path class="cls-18" d="M1677.5,483.25c-0.6,0-.6-0.9-0.6-1.2s0-1.2.6-1.2h19.2c0.5,0,.6.7,0.6,1.2s-0.1,1.2-.6,1.2h-19.2Z"/><path class="cls-18" d="M1677.5,496.75c-0.6,0-.6-0.9-0.6-1.2s0-1.2.6-1.2h19.2c0.5,0,.6.7,0.6,1.2s-0.1,1.2-.6,1.2h-19.2Z"/><path class="cls-18" d="M1677.5,510.35c-0.6,0-.6-0.9-0.6-1.2s0-1.2.6-1.2h19.2c0.5,0,.6.7,0.6,1.2s-0.1,1.2-.6,1.2h-19.2Z"/><path class="cls-18" d="M1696.1,518.15a1.3,1.3,0,0,1-1.3-1.3h0V352.45a1.3,1.3,0,0,1,2.6,0v164.4A1.4,1.4,0,0,1,1696.1,518.15Z"/><path class="cls-18" d="M1677.7,518.15a1.3,1.3,0,0,1-1.3-1.3h0V352.45a1.3,1.3,0,0,1,2.6,0v164.4A1.3,1.3,0,0,1,1677.7,518.15Z"/><polyline class="cls-19" points="1704.86 411.01 1744 399.55 1726.6 335.85 1681.5 296.85 1534.3 339.95 1577 378.95 1596.8 442.65 1644 428.83"/><polygon class="cls-19" points="1528.1 496.15 1528.2 433.75 1561.9 442.55 1561.8 504.95 1528.1 496.15"/><path class="cls-19" d="M1528.1,423.75v-18.1c0.2-.5,5.3-12,14.9-16.2l0.6-.3,0.6,0.3c8.6,4.3,16.9,23.3,17.2,24.1v18.8Z"/><path class="cls-19" d="M1703.4,521.75V327.65c0-16.2-13.6-29.3-29.8-29.3a29.5,29.5,0,0,0-29.6,29.3v193.9h0a3.3,3.3,0,0,0,0,1c0,3.4,13.9,6.4,30.1,6.4s29.3-2.7,29.3-6.1v-1.1h0Z"/></svg>