<?xml version="1.0" encoding="utf-8"?>
<!-- Generator: Adobe Illustrator 18.1.1, SVG Export Plug-In . SVG Version: 6.00 Build 0)  -->
<svg version="1.1" id="Layer_1" xmlns="http://www.w3.org/2000/svg" xmlns:xlink="http://www.w3.org/1999/xlink" x="0px" y="0px"
	 viewBox="-9.4 0 1033.4 768" enable-background="new -9.4 0 1033.4 768" xml:space="preserve">
<g id="surface1">
	<path fill="#58585A" d="M1020.5,289.7l-11.8-67c-3.9-21.7-11.8-37.4-19.7-37.4s-11.8,15.8-11.8,39.4v15.8
		c0,21.7-15.8,39.4-39.4,39.4H922c-2,0-2,0-3.9,0v47.3c2,0,2,0,3.9,0h67C1008.7,331.1,1022.5,311.4,1020.5,289.7"/>
	<path fill="#58585A" d="M900.3,285.8c-9.8,3.9-19.7,11.8-19.7,21.7c0,9.8,7.9,15.8,19.7,21.7V285.8z"/>
	<path fill="#58585A" d="M864.9,232.6H758.6h-3.9H646.3c-2,0-2,0-3.9,0v-9.8c0-21.7-3.9-39.4-11.8-39.4c-7.9,0-13.8,15.8-19.7,37.4
		l-11.8,67c-3.9,21.7,11.8,37.4,33.5,37.4h67c7.9,0,13.8,0,19.7-2c-2,11.8-11.8,19.7-23.6,19.7H603c-13.8,0-25.6-13.8-23.6-27.6
		l9.8-57.1c2-13.8-9.8-27.6-23.6-27.6H104.8c-9.8,0-19.7,3.9-21.7,13.8l-84.7,130c-2,2-2,3.9,0,7.9L14.2,402c2,2,3.9,2,7.9,0
		l59.1-47.3v279.6c0,13.8,11.8,23.6,23.6,23.6h130c13.8,0,23.6-11.8,23.6-23.6v-96.5c0-13.8,11.8-23.6,23.6-23.6H607
		c13.8,0,23.6,11.8,23.6,23.6v96.5c0,13.8,11.8,23.6,23.6,23.6h130c13.8,0,23.6-11.8,23.6-23.6V530h-68.9
		c-21.7,0-39.4-15.8-39.4-39.4v-67c0-11.8,7.9-23.6,15.8-31.5v80.7c0,21.7,15.8,39.4,39.4,39.4H861c21.7,0,39.4-15.8,39.4-39.4
		V264.1C902.3,252.3,886.6,232.6,864.9,232.6"/>
</g>
</svg>
