<?xml version="1.0" encoding="utf-8"?>
<!-- Generator: Adobe Illustrator 19.1.0, SVG Export Plug-In . SVG Version: 6.00 Build 0)  -->
<svg version="1.1" xmlns="http://www.w3.org/2000/svg" xmlns:xlink="http://www.w3.org/1999/xlink" x="0px" y="0px"
	 viewBox="0 0 239.8 343" style="enable-background:new 0 0 239.8 343;" xml:space="preserve">
<style type="text/css">
	.st0{fill:#0E73BA;}
	.st1{fill:none;stroke:#29373C;stroke-miterlimit:10;}
	.st2{fill:#BCE4E7;}
	.st3{fill:#BDC3C7;}
	.st4{fill:#BCBEC0;}
	.st5{fill:rgba(0,0,0,.05);}
	.st6{opacity:0.1;fill:none;stroke:#FFFFFF;stroke-width:6;stroke-linecap:round;stroke-miterlimit:10;}
	.st7{fill:#78C9CF;}
	.st8{fill:#29373C;}
	.st9{opacity:0.15;}
	.st10{fill:#00558B;}
	.st11{fill:#E6E7E8;}
	.st12{fill:#7F8C8D;}
	.st13{fill:#F05455;}
	.st14{fill:#FFFFFF;}
	.st15{opacity:0.3;fill:#ECF0F1;}
	.st16{opacity:0.4;fill:#ECF0F1;}
</style>
<g id="Layer_1">
	<path id="surface1_1_" class="st0" d="M239.1,259.9l-2.7-15.1c-0.9-4.9-2.7-8.4-4.4-8.4c-1.8,0-2.7,3.6-2.7,8.9v3.6
		c0,4.9-3.6,8.9-8.9,8.9h-3.6c-0.5,0-0.5,0-0.9,0v10.7c0.5,0,0.5,0,0.9,0H232C236.4,269.3,239.5,264.8,239.1,259.9 M204,247h-24
		h-0.9h-24.4c-0.5,0-0.5,0-0.9,0v-2.2c0-4.9-0.9-8.9-2.7-8.9s-3.1,3.6-4.4,8.4l-2.7,15.1c-0.9,4.9,2.7,8.4,7.6,8.4h15.1
		c1.8,0,3.1,0,4.4-0.5c-0.5,2.7-2.7,4.4-5.3,4.4H145c-3.1,0-5.8-3.1-5.3-6.2l2.2-12.9c0.5-3.1-2.2-6.2-5.3-6.2H32.7
		c-2.2,0-4.4,0.9-4.9,3.1L8.7,279c-0.5,0.5-0.5,0.9,0,1.8l3.6,4.4c0.5,0.5,0.9,0.5,1.8,0l13.3-10.7v63c0,3.1,2.7,5.3,5.3,5.3H62
		c3.1,0,5.3-2.7,5.3-5.3v-21.8c0-3.1,2.7-5.3,5.3-5.3h73.3c3.1,0,5.3,2.7,5.3,5.3v21.8c0,3.1,2.7,5.3,5.3,5.3h29.3
		c3.1,0,5.3-2.7,5.3-5.3v-23.5h-15.5c-4.9,0-8.9-3.6-8.9-8.9v-15.1c0-2.7,1.8-5.3,3.6-7.1v18.2c0,4.9,3.6,8.9,8.9,8.9h24
		c4.9,0,8.9-3.6,8.9-8.9v-47C212.4,251.5,208.9,247,204,247"/>
	<path class="st1" d="M239.5,111.6c0,0-83.2,132.1-119.6,132.1C82.6,243.6,0,111.6,0,111.6"/>
	<path class="st1" d="M184.6,111.6c0,0-44.2,132.1-64.8,132.1c-20.5,0-64.8-132.1-64.8-132.1"/>
	<line class="st1" x1="120.1" y1="120.6" x2="119.8" y2="243.6"/>
	<g>
		<path class="st8" d="M116.3,243.4h9.5c1.6,0,3,1.4,3,3v66.4c0,1.7-1.4,3-3,3h-9.5c-1.7,0-3-1.3-3-3v-66.4
			C113.3,244.8,114.7,243.4,116.3,243.4z"/>
	</g>
	<path class="st13" d="M27.7,97.2c15,0,27.5,10.8,30.2,24.8h1.2c2.7-14,15.2-25,30.2-25c15,0,27.5,11,30.2,25h1.2
		c2.7-14,15.2-25,30.2-25c15,0,27.5,11,30.2,25h1.2c2.7-14,15.2-24.8,30.2-24.8c11.4,0,21.3,6.3,26.6,15.5
		C234.2,50.9,182.8,2.9,120,2.9C57.2,2.9,5.7,51,0.9,112.9C6.2,103.5,16.2,97.2,27.7,97.2z"/>
	<g>
		<path class="st14" d="M57.7,121.2c0.1,0.3,0.1,0.8,0.2,0.8h1.2c2.7-14,15.2-25,30.2-25c15,0,27.5,11,30.2,25h1.2
			c2.7-14,15.2-25,30.2-25c15,0,27.5,11,30.2,25h1.2c2.7-14,15.2-24.8,30.2-24.8c11.4,0,21.1,6.3,26.4,15.5
			C234,50.9,183.3,2.9,120.3,2.9v0c-1,0-0.3-0.1-0.4-0.1C87.1,2.9,58,55.5,57.7,121.2z"/>
		<path class="st14" d="M120.1,2.9c0,0,0.1,0,0.1,0C120.2,2.9,120.1,2.9,120.1,2.9z"/>
	</g>
	<path class="st13" d="M150.9,97c15,0,27.5,11,30.2,25h1.2c0,0,0.1-0.2,0.1-0.4c-0.1-66-25-119-62.5-119L119.7,122h1
		C123.3,108,135.8,97,150.9,97z"/>
	<g>
		<path class="st5" d="M213.4,48c-21.8-27.5-55.2-45.1-93.2-45.1V3c0,0,0.2,0,0.2,0c-0.1,0-0.2,0-0.3,0c0,0,0,0,0.1,0
			c0,0-0.1,0-0.1,0c0,0-0.1,0-0.1,0c0,0-0.4,0-0.4,0c0,0-0.4,0-0.4,0v0C84.3,3,52.3,18.4,30.4,43c36.2,4.6,76,7.1,117.9,7.1
			C170.7,50.1,192.5,49.4,213.4,48z"/>
	</g>
</g>
<g id="clouds">
</g>
<g id="plane">
</g>
</svg>
