<?xml version="1.0" encoding="utf-8"?>
<!-- Generator: Adobe Illustrator 19.1.0, SVG Export Plug-In . SVG Version: 6.00 Build 0)  -->
<svg version="1.1" xmlns="http://www.w3.org/2000/svg" xmlns:xlink="http://www.w3.org/1999/xlink" x="0px" y="0px"
	 viewBox="0 0 339.4 161.3" style="enable-background:new 0 0 339.4 161.3;" xml:space="preserve">
<style type="text/css">
	.st15{opacity:0.75;fill:#ECF0F1;}
</style>
<g id="Layer_1">
</g>
<g id="clouds">
	<path class="st15" d="M285.4,161.3c29.8,0,54-24.2,54-54s-24.2-54-54-54c-9.1,0-17.6,2.3-25.1,6.2C251,25.3,219.7,0,182.4,0
		c-36,0-66.5,23.6-76.9,56.2c-5.4-1.8-11.1-2.8-17.1-2.8c-27.3,0-49.9,20.3-53.5,46.6c-1.4-0.2-2.7-0.3-4.1-0.3
		c-17,0-30.8,13.8-30.8,30.8c0,17,13.8,30.8,30.8,30.8H285.4z"/>
</g>
</svg>
