<svg version="1.1" xmlns="http://www.w3.org/2000/svg" xmlns:xlink="http://www.w3.org/1999/xlink" x="0px" y="0px"
	 viewBox="0 0 646.1 360.2" style="enable-background:new 0 0 646.1 360.2;" xml:space="preserve">
<style type="text/css">
	.st0{fill:none;stroke:#29373C;stroke-miterlimit:10;}
	.st1{fill:#BCE4E7;}
	.st2{fill:#BDC3C7;}
	.st3{fill:#BCBEC0;}
	.st4{fill:#ECF0F1;}
	.st5{opacity:0.1;fill:none;stroke:#FFFFFF;stroke-width:6;stroke-linecap:round;stroke-miterlimit:10;}
	.st6{fill:#78C9CF;}
	.st7{fill:#0E73BA;}
	.st8{fill:#29373C;}
	.st9{opacity:0.15;}
	.st10{fill:#00558B;}
	.st11{fill:#E6E7E8;}
	.st12{fill:#7F8C8D;}
	.st13{fill:#F05455;}
	.st14{fill:#FFFFFF;}
	.st15{opacity:0.3;fill:#ECF0F1;}
	.st16{opacity:0.4;fill:#ECF0F1;}
</style>
<g id="plane">
	<g>
		<path class="st2" d="M570.1,136.6l-11.7,72l-57.8-78.2c-7.2-7.2-4-15.7,3.2-23c7.2-7.2,15.7-10.4,23-3.2L570.1,136.6z M257.8,9.7
			c-17.3-17.3-37.6-9.6-54.9,7.6c-17.3,17.3-24.9,37.6-7.6,54.9l85.4,114.3l91.4-91.4L257.8,9.7z"/>
		<g>
			<path class="st3" d="M496.7,119.5c-0.6,3.7,0.5,7.5,3.9,10.9l57.6,77.9c0.1,0,0.2-0.1,0.3-0.1l11.6-71.6l-15-11.2l-5.2,9.9
				C533.8,130.4,516,125,496.7,119.5"/>
			<path class="st3" d="M215.3,73.5c-6.1,0-12.1,0.6-17.8,1.6l83.3,111.4l91.4-91.4l-9.9-7.4C314.9,79.3,264.9,73.5,215.3,73.5"/>
		</g>
		<path class="st4" d="M608.5,88.8c-16.9-6.1-32.7-4.8-38.8,12.1l-19.9,37.4c-80.6-24.7-208.9-61.8-334.5-61.8h0
			c-36.1,0-67.6,19.5-84.5,48.5c-8.4,9.7-21.7,15.9-35.9,18.3v0.4c-24.4,5.3-42.8,27.1-42.8,53.1c0,27.1,19.8,49.5,45.7,53.7
			l-1.8,2.7c45,13.6,197.3,56.2,468.3-44.2l1,0.3l33.3-9.3c9.5-2.6,18.8-12.6,20.8-22.3l11.2-55C636.8,105.9,625.3,94.8,608.5,88.8z
			"/>
		<path class="st2" d="M133.4,196.7c0,31.2-13.8,58.8-27.7,58.8c-31.2,0-56.5-25.3-56.5-56.5s25.3-56.5,56.5-56.5
			C113.8,142.5,133.4,165.5,133.4,196.7z"/>
		<path class="st5" d="M75.6,163.6c7.9-6.7,18.1-10.9,29.2-11.1"/>
		<path class="st6" d="M209.9,164.3c0-19.7,0,3.4,0-16.3c0-11.3,0.2-20.5-18.8-27.8c-10.4-3.8-23.6-17.4-30-26.1
			c-13.7,8.2-24.1,20.2-32.2,33.7c-3.3,4.2-5.5,5.1-10,8.3c0,0.5-2.5,1.2-2.5,1.7c14.3,27.8,36.5,35.4,74.7,39.6
			C202.3,178.6,209.9,175.5,209.9,164.3z"/>
		<path class="st5" d="M136.8,134c0.3-0.3,0.5-0.7,0.7-1c6.5-10.7,13.6-19.1,21.7-25.4c7.3,8.2,18,18.2,28.4,22"/>
		<circle class="st6" cx="255.4" cy="156.3" r="22.4"/>
		<path class="st5" d="M243,156.3c0-6.8,5.5-12.4,12.4-12.4"/>
		<circle class="st6" cx="312.2" cy="156.3" r="22.4"/>
		<path class="st5" d="M299.9,156.3c0-6.8,5.5-12.4,12.4-12.4"/>
		<circle class="st6" cx="369.1" cy="156.3" r="22.4"/>
		<path class="st5" d="M356.7,156.3c0-6.8,5.5-12.4,12.4-12.4"/>
		<g>
			<path class="st11" d="M453.8,187.5c-1.4,0-2.8,0.1-4.2,0.3l-131.7,21.3c-11.1,1.8-12.8,8.7-3.7,15.4l56.7,41.9
				c40.6-7,83-20.8,132.5-36.5L482,200.9C476,192.9,464.1,187.5,453.8,187.5"/>
			<path class="st11" d="M602.7,179.3c-1.4,0-2.8,0.1-4.2,0.3l-31.7,5.1c-11.1,1.8-12.8,8.7-3.7,15.4l13.7,10.1l21.9-6.1
				c9-2.5,17.9-11.6,20.4-20.8C613.9,180.8,608.1,179.3,602.7,179.3"/>
		</g>
		<path class="st4" d="M538.1,288L473,200.9c-6.7-9-21.2-14.9-32.3-13.1l-131.7,21.3c-11.1,1.8-12.8,8.7-3.7,15.4l170.4,125.9
			c17.3,17.3,37.6,9.6,54.9-7.6S555.3,305.2,538.1,288z"/>
		<path class="st4" d="M642,219.6l-20.2-27c-6.7-9-21.2-14.9-32.3-13.1l-31.7,5.1c-11.1,1.8-12.8,8.7-3.7,15.4l61.8,45.7
			c7.2,7.2,15.7,4,23-3.2C646,235.4,649.2,226.9,642,219.6z"/>
	</g>
</g>
</svg>
