<?xml version="1.0" encoding="utf-8"?>
<!-- Generator: Adobe Illustrator 19.1.0, SVG Export Plug-In . SVG Version: 6.00 Build 0)  -->
<svg version="1.1" xmlns="http://www.w3.org/2000/svg" xmlns:xlink="http://www.w3.org/1999/xlink" x="0px" y="0px"
	 viewBox="0 0 374.2 178.1" style="enable-background:new 0 0 374.2 178.1;" xml:space="preserve">
<style type="text/css">
	.st15{opacity:0.75;fill:#ECF0F1;}
</style>
<g id="Layer_1">
</g>
<g id="clouds">
	<path class="st15" d="M59.5,178.1C26.6,178.1,0,151.3,0,118.4c0-32.9,26.6-59.6,59.5-59.6c10,0,19.4,2.5,27.7,6.8
		C97.5,27.9,132,0,173.1,0c39.7,0,73.3,26,84.7,61.9c5.9-2,12.3-3.1,18.9-3.1c30.1,0,55,22.4,58.9,51.4c1.5-0.2,3-0.3,4.6-0.3
		c18.8,0,34,15.3,34,34.1c0,18.8-15.2,34.1-34,34.1H59.5z"/>
</g>
</svg>
