<?xml version="1.0" encoding="utf-8"?>
<!-- Generator: Adobe Illustrator 18.1.1, SVG Export Plug-In . SVG Version: 6.00 Build 0)  -->
<svg version="1.1" id="Layer_1" xmlns="http://www.w3.org/2000/svg" xmlns:xlink="http://www.w3.org/1999/xlink" x="0px" y="0px"
	 viewBox="0 0 749.1 968.8" enable-background="new 0 0 749.1 968.8" xml:space="preserve">
<g>
	<g>
		<g>
			<path fill="#39B7E1" d="M381.4,774.1c3,0,11.3-21.8,18.5-48.4L468.1,474c7.2-26.6,10.7-48.4,7.7-48.4s-11.3,21.8-18.5,48.4
				l-68.2,251.7C381.9,752.3,378.4,774.1,381.4,774.1z"/>
		</g>
		<g>
			<path fill="#39B7E1" d="M397.7,774.1c3.3,0,17.3-19.6,31-43.5l150.1-261.6c13.7-23.9,22.2-43.5,18.9-43.5s-17.3,19.6-31,43.5
				L416.6,730.6C402.9,754.5,394.4,774.1,397.7,774.1z"/>
		</g>
		<g>
			<path fill="#39B7E1" d="M364,774.1c3,0-0.5-21.8-7.7-48.4L288.1,474c-7.2-26.6-15.5-48.4-18.5-48.4c-3,0,0.5,21.8,7.7,48.4
				l68.2,251.7C352.7,752.3,361,774.1,364,774.1z"/>
		</g>
		<g>
			<path fill="#39B7E1" d="M347.2,774.1c3.3,0-5.2-19.6-18.9-43.5L178.2,469.1c-13.7-23.9-27.7-43.5-31-43.5s5.2,19.6,18.9,43.5
				l150.1,261.6C329.9,754.5,343.9,774.1,347.2,774.1z"/>
		</g>
	</g>
</g>
<g>
	<g>
		<path fill="#39B7E1" d="M594.3,807.5l-4.8-28.7c-1.5-9.2-5.1-16.7-8-16.7c-2.8,0-5.2,7.6-5.2,17v7.5c0,9.3-7.6,17-17,17h-7.5
			c-0.5,0-1.1,0-1.6,0v20.6c0.5,0,1.1,0.1,1.6,0.1h28.2C589.5,824.2,595.9,816.7,594.3,807.5z"/>
		<path fill="#39B7E1" d="M543.7,804.8c-5.2,1.8-8.7,5.2-8.7,9s3.5,7.2,8.7,9V804.8z"/>
	</g>
</g>
<path fill="#39B7E1" d="M619.6,153.9c-14.8,0-29.1,2.5-42.4,7.1C569.6,70.8,494,0,401.9,0c-71.5,0-133,42.6-160.5,103.9
	c-12.5-4.6-26.1-7.1-40.2-7.1c-64.9,0-117.5,52.6-117.5,117.5c0,15.3,3,29.9,8.3,43.3c-4.5-0.8-9-1.3-13.7-1.3
	C35,256.3,0,291.4,0,334.6c0,43.2,35,78.2,78.2,78.2h541.4c71.5,0,129.5-58,129.5-129.5C749.1,211.8,691.1,153.9,619.6,153.9z"/>
<path fill="#39B7E1" d="M526.7,783.2H481c-0.4,0-0.7,0-1.1,0.1h-46.9c-0.6,0-1.1,0.1-1.6,0.1V779c0-9.3-2.3-17-5.2-17
	c-2.8,0-6.4,7.5-8,16.7l-4.8,28.7c-1.5,9.2,4.8,16.7,14.2,16.7h28.2c2.9,0,5.6-0.5,8-1.2c-0.9,4.8-5.1,8.4-10.2,8.4h-39.5
	c-6.4,0-11.3-5.7-10.2-12.1l4-24c1.1-6.3-3.8-12.1-10.2-12.1H200.8c-4.2,0-7.8,2.5-9.4,6.1l-37.1,56.4c-0.6,1-0.6,2.2,0.2,3.1
	l7.2,8.5c0.9,1.1,2.5,1.2,3.6,0.4l25.2-19.9v120.6c0,5.7,4.6,10.4,10.4,10.4h55.9c5.7,0,10.4-4.6,10.4-10.4v-42
	c0-5.7,4.6-10.4,10.4-10.4h139.5c5.7,0,10.4,4.6,10.4,10.4v42c0,5.7,4.6,10.4,10.4,10.4h55.9c5.7,0,10.4-4.6,10.4-10.4v-45.1h-29.7
	c-9.3,0-17-7.6-17-17v-29c0-5.5,2.7-10.4,6.8-13.5v34.7c0,9.3,7.6,17,17,17h45.7c9.3,0,17-7.6,17-17v-88.2
	C543.7,790.8,536,783.2,526.7,783.2z"/>
</svg>
