<?xml version="1.0" encoding="utf-8"?>
<!-- Generator: Adobe Illustrator 24.0.3, SVG Export Plug-In . SVG Version: 6.00 Build 0)  -->
<svg version="1.1" id="Layer_1" xmlns="http://www.w3.org/2000/svg" xmlns:xlink="http://www.w3.org/1999/xlink" x="0px" y="0px"
	 viewBox="0 0 39.90942 34.5338669" style="enable-background:new 0 0 39.90942 34.5338669;" xml:space="preserve">
<style type="text/css">
	.st0{fill:transparent;}
	.st1{fill-rule:evenodd;clip-rule:evenodd;fill:#00B1F1;}
	.st2{fill:#00B1F1;}
	.st3{fill:#3DD8D4;}
</style>
<g>
	<rect class="st0" width="39.90942" height="34.5338669"/>
	<g>
		<g>
			<path class="st1" d="M24.1281662,23.8822479c0.4832134-0.3383884,1.586977,0.4041672,2.465313,1.6585293
				c0.8783131,1.254364,1.1985626,2.5455303,0.7152996,2.8839207c-0.4832382,0.3383656-1.5869999-0.4041901-2.465313-1.6585312
				C23.9651527,25.5117798,23.6448555,24.2206135,24.1281662,23.8822479z M12.5678549,23.8822479
				c-0.4832153-0.3383884-1.586977,0.4041672-2.465313,1.6585293c-0.8783121,1.254364-1.1985626,2.5455303-0.7152996,2.8839207
				c0.4832392,0.3383656,1.5870008-0.4041901,2.4653139-1.6585312
				C12.7308683,25.5117798,13.0511665,24.2206135,12.5678549,23.8822479z M18.3421631,25.8462543
				c-0.5899258,0-1.0681763,1.2413311-1.0681763,2.7726498s0.4782505,2.7726498,1.0681763,2.7726498
				c0.5899506,0,1.0681763-1.2413311,1.0681763-2.7726498S18.9321136,25.8462543,18.3421631,25.8462543z"/>
		</g>
		<g>
			<path class="st1" d="M24.1281662,9.0160933c0.4832134,0.3383884,1.586977-0.4041672,2.465313-1.6585307
				c0.8783131-1.254364,1.1985626-2.5455313,0.7152996-2.8839202c-0.4832382-0.3383651-1.5869999,0.404191-2.465313,1.6585307
				C23.9651527,7.3865604,23.6448555,8.6777277,24.1281662,9.0160933z M12.5678549,9.0160933
				c-0.4832153,0.3383884-1.586977-0.4041672-2.465313-1.6585307c-0.8783121-1.254364-1.1985626-2.5455313-0.7152996-2.8839202
				c0.4832392-0.3383651,1.5870008,0.404191,2.4653139,1.6585307C12.7308683,7.3865604,13.0511665,8.6777277,12.5678549,9.0160933z
				 M18.3421631,7.0520864c-0.5899258,0-1.0681763-1.2413325-1.0681763-2.7726512s0.4782505-2.7726507,1.0681763-2.7726507
				c0.5899506,0,1.0681763,1.2413324,1.0681763,2.7726507S18.9321136,7.0520864,18.3421631,7.0520864z"/>
		</g>
		<path class="st2" d="M18.1741924,27.221283c-3.4988823,0-6.7807369-1.7150803-8.7792177-4.587841l1.4031954-0.9761868
			c1.6789579,2.4137421,4.4363031,3.8548203,7.3760223,3.8548203c2.9455929,0,5.7061691-1.4457779,7.3845406-3.8674488
			l1.4049568,0.9732494C24.9660912,25.5003281,21.6801243,27.221283,18.1741924,27.221283z M25.8529987,11.9197645
			c-1.6431293-2.7053642-4.513834-4.3203011-7.6791-4.3203011c-3.0630636,0-5.8841372,1.536231-7.5466499,4.1097336
			l-1.4354992-0.9274359c1.9785109-3.0627704,5.3364277-4.8915052,8.9821491-4.8915052
			c3.7673054,0,7.1839581,1.9224181,9.1398563,5.1420126L25.8529987,11.9197645z"/>
		<path class="st1" d="M3.9343774,12.7962494h2.0577571v2.8951864H8.313076v-2.8951864h2.0577803v7.7763577H8.3130512v-3.0866451
			H5.9921584v3.086647h-2.057781V12.7962494z M12.0936146,12.7962494h5.0247116v1.7227335h-2.966979v1.2203293h2.5362692v1.7227335
			h-2.5362692v1.387804h3.0866003v1.7227345h-5.1443338v-7.7762871L12.0936146,12.7962494z M18.7453995,12.7962494h2.0577087
			v6.0536022h2.9430637v1.7227345h-5.0007725v-7.776289V12.7962494z M25.0860977,12.7962494h2.1295261l1.2203293,3.2301865
			l0.4306602,1.2681332h0.0478535l0.4306583-1.2681122l1.172451-3.2301846h2.1295261v7.7763596h-1.914196v-2.2970257
			c0-0.1993885,0.0099773-0.418726,0.0299053-0.65802c0.0199528-0.2392445,0.0418854-0.4845028,0.0658016-0.7357311
			c0.023941-0.2512493,0.0518398-0.4965076,0.0837746-0.7357769c0.0318851-0.2392683,0.0597878-0.4546223,0.083725-0.6460371
			h-0.0478535l-0.6460381,1.8184881L29.225502,19.938549h-0.7656593l-1.0767441-2.6200428l-0.6221218-1.81849h-0.0478535
			c0.0239391,0.1914148,0.0518398,0.4067688,0.0837727,0.6460371c0.0318871,0.2392673,0.0597878,0.4845028,0.0837269,0.7357769
			c0.0239143,0.2512245,0.0458241,0.4964848,0.0658016,0.735754c0.0199299,0.2392693,0.0299053,0.4586086,0.0299053,0.6580181
			v2.296978H25.08605v-7.7762833L25.0860977,12.7962494z"/>
	</g>
	<polygon class="st3" points="31.2016544,25.9701614 32.6925392,21.8653908 31.6663456,21.8653908 30.6788807,24.6922588
		29.691412,21.8653908 28.6652203,21.8653908 30.1561031,25.9701614 	"/>
	<path class="st3" d="M33.2734032,21.4781475v-0.9681072h3.4464569v0.9681072l-1.0842781,1.0649166
		c0,0,1.1617279,0.2517071,1.1617279,1.6845055c0,1.4327965-1.2391739,1.8200378-1.7619514,1.8200378
		s-1.4134369-0.0580864-1.9555779-1.3166237l1.0261955-0.2980289c0,0,0.1355324,0.6852722,0.8325691,0.6852722
		c0.5760231,0,0.8519363-0.4453297,0.8519363-0.9293823c0-0.4259663-0.4189835-0.793848-0.8519363-0.793848
		c-0.2371864,0-0.4356461,0.1210136-0.4356461,0.1210136l-0.4937363-0.8277302l1.5102463-1.2101326H33.2734032z"/>
</g>
</svg>
