<?xml version="1.0" encoding="utf-8"?>
<!-- Generator: Adobe Illustrator 19.2.1, SVG Export Plug-In . SVG Version: 6.00 Build 0)  -->
<svg version="1.1" id="Layer_1" xmlns="http://www.w3.org/2000/svg" xmlns:xlink="http://www.w3.org/1999/xlink" x="0px" y="0px"
	 viewBox="0 0 44 21" style="enable-background:new 0 0 44 21;" xml:space="preserve">
<style type="text/css">
	.st0{fill:#0475A8;}
</style>
<g>
	<g>
		<path class="st0" d="M41.7,5l-0.5-2.7c-0.1-0.9-0.5-1.6-0.7-1.6c-0.3,0-0.5,0.7-0.5,1.6V3c0,0.9-0.7,1.6-1.6,1.6h-0.7
			c-0.1,0-0.1,0-0.1,0v2c0.1,0,0.1,0,0.1,0h2.7C41.2,6.6,41.8,5.9,41.7,5"/>
		<path class="st0" d="M35.3,2.7h-4.3c0,0-0.1,0-0.1,0h-4.4c-0.1,0-0.1,0-0.1,0V2.3c0-0.9-0.2-1.6-0.5-1.6S25.1,1.4,25,2.3L24.5,5
			c-0.1,0.9,0.5,1.6,1.3,1.6h2.7c0.3,0,0.5,0,0.8-0.1c-0.1,0.5-0.5,0.8-1,0.8h-3.7c-0.6,0-1.1-0.5-1-1.1L24,3.9
			c0.1-0.6-0.4-1.1-1-1.1H4.4C4,2.7,3.7,3,3.5,3.3L0,8.6C0,8.7,0,8.8,0.1,8.9l0.7,0.8c0.1,0.1,0.2,0.1,0.3,0l2.4-1.9v11.4
			c0,0.5,0.4,1,1,1h5.3c0.5,0,1-0.4,1-1v-4c0-0.5,0.4-1,1-1h13.2c0.5,0,1,0.4,1,1v4c0,0.5,0.4,1,1,1h5.3c0.5,0,1-0.4,1-1V15h-2.8
			c-0.9,0-1.6-0.7-1.6-1.6v-2.8c0-0.5,0.3-1,0.6-1.3v3.3c0,0.9,0.7,1.6,1.6,1.6h4.3c0.9,0,1.6-0.7,1.6-1.6V4.3
			C36.9,3.4,36.2,2.7,35.3,2.7"/>
	</g>
	<g>
		<path class="st0" d="M42,1.7c0-0.7,0.5-1,1-1c0.5,0,1,0.3,1,1c0,0.7-0.5,1-1,1C42.5,2.7,42,2.4,42,1.7z M43.8,1.7
			c0-0.6-0.4-0.8-0.8-0.8s-0.8,0.2-0.8,0.8c0,0.5,0.4,0.8,0.8,0.8C43.4,2.5,43.8,2.3,43.8,1.7z M42.7,1.2H43c0.2,0,0.4,0.1,0.4,0.3
			c0,0.1-0.1,0.2-0.2,0.3l0.2,0.4h-0.2l-0.2-0.4h-0.1v0.4h-0.2V1.2L42.7,1.2z M43,1.7c0.1,0,0.2-0.1,0.2-0.1c0-0.1-0.1-0.1-0.2-0.1
			h-0.2v0.3H43z"/>
	</g>
</g>
</svg>
