<?xml version="1.0" encoding="utf-8"?>
<!-- Generator: Adobe Illustrator 19.1.0, SVG Export Plug-In . SVG Version: 6.00 Build 0)  -->
<svg version="1.1" id="Layer_1" xmlns="http://www.w3.org/2000/svg" xmlns:xlink="http://www.w3.org/1999/xlink" x="0px" y="0px"
	 viewBox="-369 291 59.6 20" style="enable-background:new -369 291 59.6 20;" xml:space="preserve">
<style type="text/css">
	.st0{fill:#FFFFFF;}
	.st1{opacity:0.1;fill:#FFFFFF;}
</style>
<path class="st0" d="M-329,297.5h-2.7c-0.1,0-0.1,0-0.2,0v-1.9c0.1,0,0.1,0,0.2,0h0.6c0.9,0,1.6-0.7,1.6-1.6v-0.6
	c0-0.9,0.2-1.6,0.5-1.6s0.6,0.6,0.8,1.5l0.4,2.7C-327.7,296.8-328.2,297.6-329,297.5z M-333.9,293.7h-4.2h-0.2h-4.3
	c-0.1,0-0.1,0-0.2,0v-0.4c0-0.9-0.2-1.6-0.5-1.6c-0.3,0-0.5,0.7-0.7,1.5l-0.5,2.7c-0.2,0.9,0.5,1.5,1.3,1.5h2.7c0.3,0,0.5,0,0.8-0.1
	c-0.1,0.5-0.5,0.8-0.9,0.8h-3.7c-0.5,0-1-0.5-0.9-1.1l0.4-2.3c0.1-0.5-0.4-1.1-0.9-1.1h-18.4c-0.4,0-0.8,0.2-0.9,0.6l-3.3,5.1
	c-0.1,0.1-0.1,0.2,0,0.3l0.6,0.8c0.1,0.1,0.2,0.1,0.3,0l2.4-1.8v11.1c0,0.5,0.5,0.9,0.9,0.9h5.2c0.5,0,0.9-0.5,0.9-0.9v-3.8
	c0-0.5,0.5-0.9,0.9-0.9h12.9c0.5,0,0.9,0.5,0.9,0.9v3.8c0,0.5,0.5,0.9,0.9,0.9h5.2c0.5,0,0.9-0.5,0.9-0.9v-4.1h-2.7
	c-0.9,0-1.6-0.6-1.6-1.6v-2.7c0-0.5,0.3-0.9,0.6-1.2v3.2c0,0.9,0.6,1.6,1.6,1.6h4.2c0.9,0,1.6-0.6,1.6-1.6V295
	C-332.5,294.5-333.1,293.7-333.9,293.7z"/>
<g>
	<path class="st1" d="M-316.1,302.5v-3.7l-3.2,1.8L-316.1,302.5"/>
	<path class="st0" d="M-316.3,298.5l-3.2-1.8v3.7L-316.3,298.5"/>
	<path class="st0" d="M-319.9,300.3v-3.7l-3.2,1.8L-319.9,300.3"/>
	<path class="st0" d="M-320.1,296.3l-3.2-1.8v3.7L-320.1,296.3"/>
	<path class="st1" d="M-316.3,302.9l-3.2-1.8v3.7L-316.3,302.9"/>
	<path class="st1" d="M-319.9,304.7v-3.7l-3.2,1.8L-319.9,304.7"/>
	<path class="st0" d="M-312.5,300.7l-3.2-1.8v3.7L-312.5,300.7"/>
	<path class="st0" d="M-323.7,298.1v-3.7l-3.2,1.8L-323.7,298.1"/>
	<path class="st1" d="M-320.1,305.1l-3.2-1.8v3.7L-320.1,305.1"/>
	<path class="st0" d="M-323.7,306.9v-3.7l-3.2,1.8L-323.7,306.9"/>
	<path class="st1" d="M-320.1,300.7l-3.2-1.8v3.7L-320.1,300.7"/>
	<path class="st0" d="M-316.1,298.1v-3.7l-3.2,1.8L-316.1,298.1"/>
	<path class="st1" d="M-319.5,292.3v3.7l3.2-1.8L-319.5,292.3"/>
	<path class="st1" d="M-323.1,294.1l3.2,1.8v-3.7L-323.1,294.1"/>
	<path class="st1" d="M-316.3,307.3l-3.2-1.8v3.7L-316.3,307.3"/>
	<path class="st1" d="M-319.9,309.1v-3.7l-3.2,1.8L-319.9,309.1"/>
	<path class="st0" d="M-312.3,304.7v-3.7l-3.2,1.8L-312.3,304.7"/>
	<path class="st0" d="M-323.7,302.5v-3.7l-3.2,1.8L-323.7,302.5"/>
	<path class="st0" d="M-323.9,302.9l-3.2-1.8v3.7L-323.9,302.9"/>
	<path class="st0" d="M-312.3,300.3v-3.7l-3.2,1.8L-312.3,300.3"/>
	<path class="st0" d="M-312.5,296.3l-3.2-1.8v3.7L-312.5,296.3"/>
	<path class="st0" d="M-312.5,305.1l-3.2-1.8v3.7L-312.5,305.1"/>
	<path class="st1" d="M-316.1,306.9v-3.7l-3.2,1.8L-316.1,306.9"/>
	<path class="st0" d="M-323.9,298.5l-3.2-1.8v3.7L-323.9,298.5"/>
</g>
</svg>
