<?xml version="1.0" encoding="UTF-8" standalone="no"?>
<!-- Created with Inkscape (http://www.inkscape.org/) -->

<svg
   xmlns:dc="http://purl.org/dc/elements/1.1/"
   xmlns:cc="http://creativecommons.org/ns#"
   xmlns:rdf="http://www.w3.org/1999/02/22-rdf-syntax-ns#"
   xmlns:svg="http://www.w3.org/2000/svg"
   xmlns="http://www.w3.org/2000/svg"
   xmlns:sodipodi="http://sodipodi.sourceforge.net/DTD/sodipodi-0.dtd"
   xmlns:inkscape="http://www.inkscape.org/namespaces/inkscape"
   width="44mm"
   height="28mm"
   viewBox="0 0 155.90551 99.212598"
   id="svg2"
   version="1.1"
   inkscape:version="0.91 r13725"
   sodipodi:docname="main.svg">
  <defs
     id="defs4" />
  <sodipodi:namedview
     id="base"
     pagecolor="#ffffff"
     bordercolor="#666666"
     borderopacity="1.0"
     inkscape:pageopacity="0.0"
     inkscape:pageshadow="2"
     inkscape:zoom="1.4"
     inkscape:cx="121.26562"
     inkscape:cy="73.586734"
     inkscape:document-units="px"
     inkscape:current-layer="layer1"
     showgrid="false"
     inkscape:window-width="1366"
     inkscape:window-height="704"
     inkscape:window-x="0"
     inkscape:window-y="27"
     inkscape:window-maximized="1" />
  <metadata
     id="metadata7">
    <rdf:RDF>
      <cc:Work
         rdf:about="">
        <dc:format>image/svg+xml</dc:format>
        <dc:type
           rdf:resource="http://purl.org/dc/dcmitype/StillImage" />
        <dc:title />
      </cc:Work>
    </rdf:RDF>
  </metadata>
  <g
     inkscape:label="Layer 1"
     inkscape:groupmode="layer"
     id="layer1"
     transform="translate(0,-953.14961)">
    <g
       id="g3338"
       transform="matrix(0.8697998,0,0,0.4602762,-59.868187,954.68535)"
       style="fill:#ffffff">
      <path
         style="fill:#ffffff"
         d="m 134.375,209.35771 c -4.8125,-1.6197 -20.42905,-6.66115 -34.703432,-11.20322 L 73.718134,189.89616 74.046567,146.07501 74.375,102.25386 85,98.227698 C 100.76886,92.252361 101.60718,91.673871 121.25,73.213024 143.19447,52.589029 156.25985,38.774511 156.20857,36.25 156.18762,35.21875 155.34462,33.283115 154.33525,31.948587 151.62986,28.371746 151.66516,0 154.375,0 c 1.41666,0 1.875,1.5277777 1.875,6.25 0,5.416667 0.33334,6.25 2.5,6.25 2.16666,0 2.5,-0.833333 2.5,-6.25 0,-9.1318712 2.00761,-7.6357496 2.93536,2.1875 1.42757,15.115558 1.03093,20.247819 -1.88084,24.337026 -2.41056,3.38532 -2.50966,4.091654 -0.9375,6.68229 4.15783,6.851373 28.31814,33.949075 47.38298,53.143767 17.76076,17.881727 21.62315,21.159487 27.8125,23.602627 l 7.1875,2.83715 0,37.75099 0,37.751 -48.4375,9.02331 c -26.64063,4.96281 -49.28125,8.95888 -50.3125,8.88014 -1.03125,-0.0787 -5.8125,-1.46838 -10.625,-3.08809 z M 162.5,149.375 c 0,-51.458334 -0.0784,-53.203431 -2.5,-55.625 -1.375,-1.375 -3.0625,-2.5 -3.75,-2.5 -0.81461,0 -1.25,19.375 -1.25,55.625 l 0,55.625 3.75,0 3.75,0 0,-53.125 z m 8.45171,50.8358 c 1.2358,-0.7845 1.50608,-12.06076 1.25,-52.15149 -0.30385,-47.57128 -0.47979,-51.180029 -2.51421,-51.571594 -2.05534,-0.39559 -2.1875,2.75628 -2.1875,52.170634 0,28.9254 0.42187,52.58304 0.9375,52.57251 0.51562,-0.01 1.64703,-0.46956 2.51421,-1.02006 z M 182.5,150.13374 c 0,-43.94349 -0.19741,-48.69202 -2.05391,-49.40443 -1.12965,-0.43348 -2.17739,-0.63429 -2.3283,-0.44623 -0.15092,0.18806 -0.65132,22.42005 -1.11199,49.40442 l -0.8376,49.0625 3.1659,0 3.1659,0 0,-48.61626 z m 8.45271,0.90761 c -0.25266,-35.8198 -0.68552,-46.57784 -1.89021,-46.97916 -1.23151,-0.41026 -1.5625,9.43103 -1.5625,46.45865 0,41.09397 0.23679,46.97916 1.89021,46.97916 1.65893,0 1.85011,-5.68474 1.5625,-46.45865 z m 10.29729,0.69991 c 0,-23.64518 -0.23525,-42.99126 -0.52276,-42.99126 -0.28753,0 -1.41253,-0.34143 -2.5,-0.75874 -1.77974,-0.68294 -1.97724,3.60397 -1.97724,42.91666 0,24.02148 0.33624,44.01165 0.74721,44.42262 0.41096,0.41096 1.53596,0.44453 2.5,0.0746 1.4567,-0.55901 1.75279,-7.93474 1.75279,-43.6639 z m 10,1.51748 c 0,-35.76963 -0.23056,-40.57974 -1.97724,-41.25 -1.08747,-0.41731 -2.21247,-0.75874 -2.5,-0.75874 -0.28751,0 -0.52276,18.5625 -0.52276,41.25 0,40.41666 0.0505,41.25 2.5,41.25 2.44855,0 2.5,-0.83334 2.5,-40.49126 z m 7.5,0.49126 c 0,-25 -0.44355,-38.75 -1.25,-38.75 -0.80645,0 -1.25,13.75 -1.25,38.75 0,25 0.44355,38.75 1.25,38.75 0.80645,0 1.25,-13.75 1.25,-38.75 z m 10,1.38374 c 0,-30.95024 -0.2682,-36.21919 -1.875,-36.83577 -1.64053,-0.62953 -1.875,3.88691 -1.875,36.11625 0,31.90958 0.25075,36.83578 1.875,36.83578 1.6234,0 1.875,-4.84625 1.875,-36.11626 z m 8.75,0.625 c 0,-28.17245 -0.27386,-33.09636 -1.875,-33.71077 -1.6381,-0.6286 -1.875,3.53969 -1.875,32.99125 0,29.1318 0.25469,33.71078 1.875,33.71078 1.6193,0 1.875,-4.49903 1.875,-32.99126 z M 187.30187,73.723895 C 171.34074,56.522036 157.90496,42.600161 157.44457,42.786395 156.9842,42.972628 145.98021,53.40933 132.99126,65.979066 L 109.375,88.833133 127.58275,82.523571 145.7905,76.21401 179.45775,90.488255 c 18.51699,7.850836 34.3866,14.327685 35.2658,14.392995 0.87921,0.0653 -11.46055,-13.955498 -27.42168,-31.157355 z M 161.01552,27.169365 C 161.51301,24.58614 157.90451,22.845489 156,24.75 c -1.90451,1.904511 -0.16386,5.513012 2.41936,5.015529 1.19731,-0.23058 2.36559,-1.398854 2.59616,-2.596164 z"
         id="path3346"
         inkscape:connector-curvature="0" />
      <path
         style="fill:#ffffff"
         d="M 109.0625,200.93641 73.75,189.58035 l 0,-43.29469 0,-43.29468 13.628298,-5.276065 13.628302,-5.276068 20.4342,-19.136293 c 11.23881,-10.524962 23.97645,-22.935245 28.30586,-27.578408 l 7.87168,-8.442113 -2.55918,-4.337467 C 152.88208,29.254676 152.5,26.471604 152.5,14.30355 152.5,2.4226166 152.81757,0 154.375,0 c 1.41666,0 1.875,1.5277777 1.875,6.25 0,5.416667 0.33334,6.25 2.5,6.25 2.16666,0 2.5,-0.833333 2.5,-6.25 0,-9.1318712 2.00761,-7.6357496 2.93536,2.1875 1.42933,15.13423 1.03672,20.113365 -1.89914,24.084304 -2.20248,2.979026 -2.46252,4.205882 -1.38022,6.511883 2.01352,4.290117 17.23025,21.959692 36.35592,42.216313 23.67813,25.07825 32.58179,32.99323 40.19363,35.73041 l 6.33035,2.27636 -0.33045,37.54982 L 243.125,194.3564 195,203.37445 c -26.46875,4.95992 -48.6875,8.99555 -49.375,8.96804 -0.6875,-0.0275 -17.14063,-5.16024 -36.5625,-11.40608 z m 53.75,-36.87391 c 0.54626,-67.189874 0.48619,-69.137029 -2.19359,-71.09652 -1.2907,-0.943789 -3.36422,-1.71598 -4.60782,-1.71598 -2.14758,0 -2.26109,2.792491 -2.26109,55.625 l 0,55.625 4.375,0 4.375,0 0.3125,-38.4375 z M 171.875,148.75 c 0,-48.37834 -0.1461,-51.868899 -2.1875,-52.262036 C 167.6321,96.09213 167.5,99.248266 167.5,148.75 c 0,49.50174 0.1321,52.65788 2.1875,52.26204 2.0414,-0.39314 2.1875,-3.8837 2.1875,-52.26204 z m 10.625,1.14826 c 0,-46.03234 -0.12088,-48.62496 -2.32096,-49.80244 -2.13953,-1.145044 -2.38382,-0.498605 -3.125,8.26962 -0.44223,5.23146 -0.80404,27.91138 -0.80404,50.39982 l 0,40.88806 3.125,-0.59738 3.125,-0.59738 0,-48.5603 z m 9.70271,1.03924 -0.32771,-46.5625 -2.8125,-0.39944 -2.8125,-0.39944 0,46.96194 0,46.96194 3.14021,0 3.14021,0 -0.32771,-46.5625 z m 9.67229,1.71496 0,-42.97253 -2.8125,-1.86743 -2.8125,-1.86743 0,45.2394 0,45.2394 2.8125,-0.39943 2.8125,-0.39944 0,-42.97254 z m 9.07939,0.0266 c -0.30445,-37.68405 -0.49499,-40.80245 -2.51689,-41.19149 -2.04815,-0.3941 -2.1875,2.24492 -2.1875,41.42872 0,41.32782 0.0314,41.84143 2.51689,41.19145 2.46623,-0.64493 2.51026,-1.47874 2.1875,-41.42872 z m 8.75117,1.48717 c -0.25281,-29.31728 -0.69807,-38.45621 -1.89306,-38.8542 -1.22765,-0.40887 -1.5625,7.80623 -1.5625,38.33378 0,33.86848 0.24291,38.85416 1.89306,38.85416 1.65679,0 1.85181,-4.78455 1.5625,-38.33378 z m 9.04444,0.96748 c 0,-30.95024 -0.2682,-36.21919 -1.875,-36.83577 -1.57394,-0.60398 -1.875,0.94785 -1.875,9.66472 0,5.71132 -0.3707,22.28741 -0.82378,36.83576 l -0.82378,26.45155 2.69878,0 2.69878,0 0,-36.11626 z m 10,1.25 c 0,-29.50053 -0.24208,-33.70916 -1.97724,-34.375 -1.08747,-0.41731 -2.21247,-0.75874 -2.5,-0.75874 -0.28751,0 -0.52276,15.46875 -0.52276,34.375 0,33.54166 0.0606,34.375 2.5,34.375 2.43802,0 2.5,-0.83334 2.5,-33.61626 z M 209.16365,96.953006 C 204.46739,91.839659 191.34375,77.532022 180,65.158258 168.65625,52.784494 158.71535,42.765015 157.9091,42.892752 c -1.7429,0.276136 -48.22726,44.705754 -47.51669,45.416323 0.26933,0.269331 8.30684,-2.260398 17.86114,-5.621617 l 17.37145,-6.111312 35,14.745769 c 19.25,8.110172 35.46739,14.786785 36.03865,14.836925 0.57125,0.0501 -2.80375,-4.09249 -7.5,-9.205834 z M 161.02444,26.54973 c 0.30013,-2.103735 -0.22532,-2.79973 -2.11373,-2.79973 -2.99189,0 -4.41197,1.890756 -3.40026,4.527242 1.06925,2.786425 5.04781,1.539956 5.51399,-1.727512 z"
         id="path3344"
         inkscape:connector-curvature="0" />
      <path
         style="fill:#ffffff"
         d="M 109.0625,200.8433 73.75,189.46435 l 0,-43.31111 0,-43.31113 11.061809,-3.956907 c 6.083995,-2.1763 13.53712,-5.552443 16.562501,-7.502538 5.98528,-3.857984 52.88481,-48.912681 54.9687,-52.806449 0.98429,-1.83917 0.68806,-3.223828 -1.28137,-5.989662 C 152.83356,29.457517 152.5,27.101676 152.5,14.494538 152.5,5.6648456 152.98854,0 153.75,0 c 0.6875,0 1.25,2.8125 1.25,6.25 0,5.833333 0.20834,6.25 3.125,6.25 2.91666,0 3.125,-0.416667 3.125,-6.25 0,-9.1318712 2.00761,-7.6357496 2.93536,2.1875 1.45635,15.420371 1.05948,20.515759 -1.83824,23.600232 -1.80942,1.92604 -2.4202,3.750965 -1.92102,5.739828 0.88974,3.544969 12.89145,17.915231 35.62715,42.658214 21.35439,23.239696 33.26395,33.774946 41.47936,36.692806 l 6.25315,2.22092 -0.33037,37.41452 -0.33039,37.41454 -48.75,9.13009 c -26.8125,5.02154 -49.03125,9.08137 -49.375,9.02184 -0.34375,-0.0595 -16.51562,-5.22877 -35.9375,-11.48719 z m 53.0359,1.14959 c 0.12287,-0.0814 0.40411,-24.23084 0.625,-53.6654 0.38854,-51.777395 0.32271,-53.575259 -2.02481,-55.297438 -1.33453,-0.979028 -3.4439,-1.780052 -4.6875,-1.780052 -2.14794,0 -2.26109,2.813404 -2.26109,56.21875 l 0,56.21875 4.0625,-0.7733 c 2.23437,-0.42531 4.16302,-0.83991 4.2859,-0.92131 z M 171.875,148.75 c 0,-48.37834 -0.1461,-51.868899 -2.1875,-52.262036 C 167.6321,96.09213 167.5,99.248266 167.5,148.75 c 0,49.50174 0.1321,52.65788 2.1875,52.26204 2.0414,-0.39314 2.1875,-3.8837 2.1875,-52.26204 z m 11.59135,1.78536 c 0.33869,-47.04135 0.32065,-47.42733 -2.31771,-49.59116 -1.46248,-1.19944 -3.16295,-1.869368 -3.77884,-1.488729 -0.62943,0.389003 -1.1198,22.508249 -1.1198,50.510189 l 0,49.81813 3.4375,-0.91903 3.4375,-0.91904 0.34135,-47.41036 z m 8.73636,0.40214 -0.32771,-46.5625 -2.8125,-0.39944 -2.8125,-0.39944 0,46.96194 0,46.96194 3.14021,0 3.14021,0 -0.32771,-46.5625 z m 9.67229,1.71496 0,-42.97253 -2.8125,-1.86743 -2.8125,-1.86743 0,45.2394 0,45.2394 2.8125,-0.39943 2.8125,-0.39944 0,-42.97254 z m 9.07951,0.82138 c 0.32133,-39.85268 0.267,-40.90113 -2.1875,-42.21473 -2.49981,-1.33787 -2.51701,-1.05578 -2.51701,41.28856 0,39.93238 0.1387,42.60895 2.1875,42.21473 2.02204,-0.38906 2.21242,-3.51211 2.51701,-41.28856 z M 220,154.52805 c 0,-30.24109 -0.34153,-38.25538 -1.67751,-39.36415 -0.92263,-0.76572 -2.04763,-1.02209 -2.5,-0.56972 C 215.37012,115.04655 215,132.76041 215,153.95834 c 0,37.70832 0.054,38.54166 2.5,38.54166 2.44514,0 2.5,-0.83334 2.5,-37.97195 z m 10,1.25 c 0,-30.25564 -0.28018,-35.70446 -1.90521,-37.05312 -1.04787,-0.86965 -2.18613,-1.30026 -2.52947,-0.95692 -0.34334,0.34335 -0.98261,17.01725 -1.42058,37.05313 l -0.79633,36.42886 3.32579,0 3.3258,0 0,-35.47195 z m 8.45759,0.15945 -0.33259,-34.0625 -2.8125,-0.39944 -2.8125,-0.39944 0,33.62861 c 0,18.49573 0.375,34.00361 0.83334,34.46193 0.45832,0.45834 1.87362,0.83334 3.14509,0.83334 2.20058,0 2.29576,-1.638 1.97916,-34.0625 z M 213.5535,101.5625 C 211.10388,98.984375 197.79119,84.621882 183.96974,69.64585 170.1483,54.669817 158.55698,42.294817 158.21124,42.14585 157.86551,41.996883 146.6112,52.421875 133.20167,65.3125 119.79214,78.203125 109.25009,88.75 109.7749,88.75 c 0.52481,0 8.50111,-2.53125 17.7251,-5.625 9.224,-3.09375 17.48082,-5.625 18.34852,-5.625 0.86769,0 16.92237,6.445572 35.67705,14.323494 18.75469,7.877922 34.63547,14.346676 35.29062,14.374996 0.65515,0.0283 -0.81307,-2.05786 -3.26269,-4.63599 z m -51.9668,-73.125 c 0.8866,-2.541706 -0.4394,-4.6875 -2.89666,-4.6875 -2.75584,0 -4.16888,1.949177 -3.21504,4.434859 0.85262,2.22189 5.3598,2.408204 6.1117,0.252641 z"
         id="path3342"
         inkscape:connector-curvature="0" />
      <path
         style="fill:#ffffff"
         d="M 109.70725,200.81572 73.789507,189.375 73.769754,146.23883 73.75,103.10264 l 8.4375,-2.99697 c 18.59746,-6.605749 20.29744,-7.852933 48.8042,-35.805071 L 158.125,37.695195 155.3125,32.66245 C 152.86907,28.290127 152.5,25.816849 152.5,13.814853 152.5,5.4382841 152.99206,0 153.75,0 c 0.6875,0 1.25,2.8125 1.25,6.25 0,5.833333 0.20834,6.25 3.125,6.25 2.90877,0 3.14011,-0.454069 3.34339,-6.5625 L 161.68676,-0.625 162.1723,5 c 0.26704,3.09375 1.01251,6.159375 1.65661,6.8125 0.6441,0.653125 1.17109,4.621967 1.17109,8.81965 0,6.172796 -0.59597,8.439958 -3.11686,11.856824 -2.97398,4.030989 -3.02273,4.371642 -1.06339,7.43035 2.60149,4.061194 17.18486,21.365175 28.41684,33.718168 l 8.62654,9.487508 -8.65054,-8.75 C 184.45479,69.5625 175.5039,60.117834 169.32171,53.386853 L 158.08139,41.148706 133.7282,64.411361 c -13.39426,12.79446 -24.53856,23.779595 -24.76512,24.41141 -0.22656,0.631817 7.95808,-1.762754 18.18808,-5.321266 l 18.60001,-6.470021 31.81192,13.307112 c 17.49655,7.318913 34.06191,14.230064 36.81191,15.358114 l 5,2.05101 -3.72492,-4.18636 c -2.04872,-2.3025 -7.11122,-7.813875 -11.25,-12.247505 -4.13879,-4.43363 -0.44077,-1.3049 8.21783,6.952734 14.62265,13.945501 18.70608,16.947171 27.71337,20.371731 l 3.41872,1.2998 0,36.77043 0,36.77042 -2.8125,0.68313 c -1.54688,0.37572 -22.78125,4.40055 -47.1875,8.94406 -24.40625,4.54351 -45.21875,8.46105 -46.25,8.70561 -1.03125,0.24458 -18.03799,-4.70365 -37.79275,-10.99605 z m 52.61284,1.03087 c 0.34505,-0.34506 0.66732,-24.50393 0.71613,-53.68637 0.0959,-57.272196 0.3006,-55.453875 -6.47372,-57.4853 l -2.8125,-0.843389 0,57.115479 0,57.11549 3.97135,-0.79428 c 2.18425,-0.43685 4.25367,-1.07658 4.59874,-1.42163 z M 172.5,148.22681 c 0,-50.120302 -0.0735,-51.704454 -2.42763,-52.320069 -1.33518,-0.34916 -2.74143,-0.321015 -3.125,0.06255 -0.97072,0.970734 -0.88045,104.680979 0.092,105.653399 0.43415,0.43415 1.8404,0.22685 3.125,-0.46065 C 172.3874,199.9723 172.5,197.4204 172.5,148.22681 Z m 8.4375,50.98533 2.8125,-0.75372 0,-48.40357 0,-48.40356 -3.18381,-1.45065 c -1.7511,-0.79785 -3.4386,-1.45064 -3.75,-1.45064 -0.3114,0 -0.56619,22.78125 -0.56619,50.625 0,27.84375 0.42187,50.61732 0.9375,50.60794 0.51562,-0.01 2.20312,-0.35625 3.75,-0.7708 z M 191.35224,197.5 c 0.67631,0 1.14776,-18.97913 1.14776,-46.20603 0,-43.84289 -0.1195,-46.26994 -2.33565,-47.45601 -1.2846,-0.6875 -2.69085,-0.89479 -3.125,-0.46065 -0.43414,0.43415 -0.78935,22.13079 -0.78935,48.21477 0,42.7322 0.19566,47.35031 1.97724,46.66666 1.08747,-0.41732 2.49372,-0.75874 3.125,-0.75874 z M 202.5,152.54397 c 0,-42.5757 -0.0654,-43.74097 -2.52584,-45.05779 -1.3892,-0.74349 -3.0767,-1.01133 -3.75,-0.59521 -1.3795,0.85257 -1.76052,87.156 -0.39082,88.52569 0.45832,0.45834 2.14582,0.83334 3.75,0.83334 l 2.91666,0 0,-43.70603 z m 8.75,1.25 c 0,-39.45986 -0.10246,-41.26085 -2.41783,-42.49999 C 207.50237,110.58229 206.09612,110 205.70717,110 205.31822,110 205,129.125 205,152.5 l 0,42.5 3.125,0 3.125,0 0,-41.20603 z m 8.75,0.0898 c 0,-34.05985 -0.2333,-38.70577 -1.97724,-39.37498 -1.08747,-0.41731 -2.21247,-0.75874 -2.5,-0.75874 -0.28751,0 -0.52276,17.71875 -0.52276,39.375 0,38.54166 0.0529,39.375 2.5,39.375 2.44605,0 2.5,-0.83334 2.5,-38.61626 z m 10,1.25 c 0,-31.86112 -0.2342,-36.20613 -1.9878,-36.87905 -1.0933,-0.41954 -2.49955,-0.44652 -3.125,-0.06 -0.64055,0.39589 -1.1372,16.50225 -1.1372,36.87907 l 0,36.17623 3.125,0 3.125,0 0,-36.11626 z m 8.45759,0.80378 -0.33259,-34.0625 -2.8125,-0.39944 -2.8125,-0.39944 0,34.46194 0,34.46194 3.14509,0 3.14509,0 -0.33259,-34.0625 z M 161.7872,27.903074 c 1.03961,-2.709198 -1.98108,-5.729885 -4.69028,-4.690268 C 155.94271,23.65572 155,25.362246 155,27.008736 155,29.330421 155.66957,30 157.99126,30 c 1.64649,0 3.35301,-0.94271 3.79594,-2.096926 z"
         id="path3340"
         inkscape:connector-curvature="0" />
    </g>
  </g>
</svg>
