<?xml version="1.0" encoding="utf-8"?>
<!-- Generator: Adobe Illustrator 21.0.0, SVG Export Plug-In . SVG Version: 6.00 Build 0)  -->
<svg version="1.1" id="Layer_1" xmlns="http://www.w3.org/2000/svg" xmlns:xlink="http://www.w3.org/1999/xlink" x="0px" y="0px"
	 viewBox="0 0 70.1 32.9" style="enable-background:new 0 0 70.1 32.9;" xml:space="preserve">
<style type="text/css">
	.st0{fill:#0876A9;}
</style>
<g id="Group_293" transform="translate(0.011)">
	<path id="Path_423" class="st0" d="M70.1,7.2l-0.8-4.6C69.1,1.2,68.5,0,68,0c-0.5,0-0.8,1.2-0.8,2.7v1.2c0,1.5-1.2,2.7-2.7,2.7
		h-1.5v3.3h4.7c1.2,0,2.3-0.9,2.3-2.2C70.1,7.6,70.1,7.4,70.1,7.2"/>
	<path id="Path_424" class="st0" d="M59.3,3.4H44.4c-0.1,0-0.2,0-0.3,0V2.7c0-1.5-0.3-2.7-0.8-2.7s-1,1.2-1.3,2.7l-0.8,4.6
		c-0.2,1.2,0.5,2.4,1.7,2.6c0.2,0,0.4,0.1,0.5,0H48c0.4,0,0.9-0.1,1.3-0.2c-0.1,0.8-0.8,1.4-1.6,1.4h-6.3c-0.9,0-1.6-0.7-1.6-1.6
		c0-0.1,0-0.2,0-0.3l0.6-3.8c0.1-0.9-0.5-1.7-1.4-1.9c-0.1,0-0.2,0-0.3,0H7.5c-0.6,0-1.2,0.4-1.5,1l-5.9,9c-0.1,0.1-0.1,0.3,0,0.5
		l1.1,1.4c0.1,0.2,0.4,0.2,0.5,0.1c0,0,0,0,0,0l4-3.1v19.2c0,0.9,0.7,1.6,1.6,1.6c0,0,0,0,0,0h8.9c0.9,0,1.6-0.7,1.6-1.6
		c0,0,0,0,0,0v-6.7c0-0.9,0.7-1.6,1.6-1.6c0,0,0,0,0,0h22.2c0.9,0,1.6,0.7,1.6,1.6c0,0,0,0,0,0v6.7c0,0.9,0.7,1.6,1.6,1.6
		c0,0,0,0,0,0H54c0.9,0,1.6-0.7,1.6-1.6c0,0,0,0,0,0v-7.2h-4.7c-1.5,0-2.7-1.2-2.7-2.7v-4.6c0-0.8,0.4-1.6,1.1-2.2v5.5
		c0,1.5,1.2,2.7,2.7,2.7h7.3c1.5,0,2.7-1.2,2.7-2.7V6.1C62,4.6,60.8,3.4,59.3,3.4C59.3,3.4,59.3,3.4,59.3,3.4"/>
</g>
</svg>
