<?xml version="1.0" encoding="UTF-8" standalone="no"?>
<!-- Generator: Adobe Illustrator 19.1.0, SVG Export Plug-In . SVG Version: 6.00 Build 0)  -->

<svg
   xmlns:dc="http://purl.org/dc/elements/1.1/"
   xmlns:cc="http://creativecommons.org/ns#"
   xmlns:rdf="http://www.w3.org/1999/02/22-rdf-syntax-ns#"
   xmlns:svg="http://www.w3.org/2000/svg"
   xmlns="http://www.w3.org/2000/svg"
   xmlns:sodipodi="http://sodipodi.sourceforge.net/DTD/sodipodi-0.dtd"
   xmlns:inkscape="http://www.inkscape.org/namespaces/inkscape"
   version="1.1"
   id="Layer_1"
   x="0px"
   y="0px"
   viewBox="-369 291 59.6 20"
   style="enable-background:new -369 291 59.6 20;"
   xml:space="preserve"
   inkscape:version="0.91 r13725"
   sodipodi:docname="main-swarm.svg"><metadata
     id="metadata13"><rdf:RDF><cc:Work
         rdf:about=""><dc:format>image/svg+xml</dc:format><dc:type
           rdf:resource="http://purl.org/dc/dcmitype/StillImage" /></cc:Work></rdf:RDF></metadata><defs
     id="defs11" /><sodipodi:namedview
     pagecolor="#ffffff"
     bordercolor="#666666"
     borderopacity="1"
     objecttolerance="10"
     gridtolerance="10"
     guidetolerance="10"
     inkscape:pageopacity="0"
     inkscape:pageshadow="2"
     inkscape:window-width="640"
     inkscape:window-height="480"
     id="namedview9"
     showgrid="false"
     inkscape:zoom="5.5369129"
     inkscape:cx="29.799999"
     inkscape:cy="9.6387879"
     inkscape:window-x="0"
     inkscape:window-y="27"
     inkscape:window-maximized="0"
     inkscape:current-layer="Layer_1" /><style
     type="text/css"
     id="style3">
	.st0{fill:#FFFFFF;}
</style><path
     class="st0"
     d="m -324.06336,298.99628 c -1.12501,-0.46358 -2.41074,-0.46358 -3.69647,-0.23179 -0.16072,-0.92715 -0.9643,-1.7384 -1.9286,-2.31787 l -0.32143,-0.23178 -0.32143,0.23178 c -0.64287,0.57947 -0.80358,1.50662 -0.80358,2.20198 0,0.46357 0.32143,1.04304 0.80358,1.50661 -0.32143,0.11589 -0.64287,0.23179 -1.12502,0.34768 -0.64286,0.11589 -1.44644,0.23179 -2.25002,0.23179 l -1.60717,0 0,-2.31787 -3.21432,0 0,-4.51984 -3.85719,0 0,2.31787 -6.26793,0 0,2.31786 -3.21433,0 0,2.31787 -2.73218,0 0,0.34768 c -0.16071,1.15893 0,2.31787 0.80359,3.36091 l 0.32143,0.46357 0,0 c 1.92859,2.43376 5.30363,3.36091 9.16082,3.36091 7.23224,0 13.17874,-2.31787 15.91091,-7.18539 1.76788,0.11589 3.69648,-0.34768 4.66077,-1.62251 l 0.16072,-0.34768 -0.48215,-0.23178 0,0 z m -23.94672,-2.43376 2.73218,0 0,1.97018 -2.73218,0 0,-1.97018 0,0 z m 3.37504,7.99664 c 0,0.34768 -0.32143,0.57946 -0.80358,0.57946 -0.48215,0 -0.80358,-0.23178 -0.80358,-0.57946 0,-0.34768 0.32143,-0.57947 0.80358,-0.57947 0.48215,0 0.80358,0.23179 0.80358,0.57947 z m -3.37504,-5.79467 2.73218,0 0,1.97019 -2.73218,0 0,-1.97019 0,0 z m -3.05361,0 2.73218,0 0,1.97019 -2.73218,0 0,-1.97019 0,0 z m 6.75008,9.15557 c -3.85719,0 -5.9465,-0.92714 -7.71438,-2.20197 0.48215,0 0.9643,0 1.44645,0 0.32143,0 0.80358,0 1.12501,0 0.9643,0 1.76788,-0.11589 2.57146,-0.23179 0.64287,0.92715 1.60717,1.8543 3.53576,2.43376 -0.32143,0 -0.64286,0 -0.9643,0 l 0,0 z m 2.25003,-7.18538 -2.73217,0 0,-1.97019 2.73217,0 0,1.97019 0,0 z m 0,-2.20198 -2.73217,0 0,-1.97018 2.73217,0 0,1.97018 0,0 z m 3.05361,2.20198 -2.73218,0 0,-1.97019 2.73218,0 0,1.97019 0,0 z m 0,-2.20198 -2.73218,0 0,-1.97018 2.73218,0 0,1.97018 0,0 z m 0,-2.31786 -2.73218,0 0,-1.97019 2.73218,0 0,1.97019 z m 3.21433,4.51984 -2.73218,0 0,-1.97019 2.73218,0 0,1.97019 0,0 z m -9.64298,3.3609 c 0,0 0.16072,0 0.16072,0 0,0 -0.16072,0.1159 -0.16072,0.1159 0,0.11589 0.16072,0.11589 0.16072,0.11589 0,0 0.16071,0 0.16071,-0.11589 0,0 0,0.11589 0,0.11589 0,0.23179 -0.16071,0.34768 -0.48215,0.34768 -0.32143,0 -0.48214,-0.11589 -0.48214,-0.34768 0.16071,0 0.32143,-0.23179 0.64286,-0.23179 l 0,0 z"
     id="path7"
     inkscape:connector-curvature="0"
     style="fill:#ffffff" /></svg>