<svg xmlns="http://www.w3.org/2000/svg" viewBox="-38 3653.504 192.753 32.893">
  <defs>
    <style>
      .cls-1 {
        fill: #5a5a5c;
      }

      .cls-2 {
        fill: #0876a9;
      }
    </style>
  </defs>
  <g id="Group_295" data-name="Group 295" transform="translate(-38.012 3653.504)">
    <g id="Group_292" data-name="Group 292" transform="translate(75.015)">
      <path id="Path_416" data-name="Path 416" class="cls-1" d="M309.9,1.5h8.253c3.921,0,6.559,1.888,6.559,5.567a5.6,5.6,0,0,1-4.042,5.422,6.014,6.014,0,0,1,1.4,1.888c.823,1.694,1.4,3.558,3.146,3.558a2.4,2.4,0,0,0,.8-.145l-.387,3.534a9.685,9.685,0,0,1-1.985.266c-2.372,0-3.727-.92-5.131-4.09-.605-1.428-1.428-3.921-2.517-3.921h-1.138v7.915H309.9Zm4.962,3.582V10h1.791c1.428,0,3.074-.436,3.074-2.59a2.188,2.188,0,0,0-2.493-2.348h-2.372Z" transform="translate(-309.9 -1.137)"/>
      <path id="Path_417" data-name="Path 417" class="cls-1" d="M377.629,1.5h5.01l6.753,20.016h-5.01l-1.234-3.8h-6.7l-1.21,3.8H370.9Zm0,12.537h4.308l-1.355-4.211a18.526,18.526,0,0,1-.678-3.437h-.121a23.378,23.378,0,0,1-.75,3.413Z" transform="translate(-356.136 -1.137)"/>
      <path id="Path_418" data-name="Path 418" class="cls-1" d="M448.2,1.5h5.3l5.252,9.923c.436.871,1.041,2.372,1.5,3.558h.121c-.048-1.138-.218-2.735-.218-3.873V1.5h4.066V21.516h-5.18l-5.446-9.9a27.112,27.112,0,0,1-1.452-3.267h-.121c.1,1.138.242,2.469.242,3.558v9.609H448.2Z" transform="translate(-414.727 -1.137)"/>
      <path id="Path_419" data-name="Path 419" class="cls-1" d="M518.9,10.238C518.9,3,522.482,0,528.025,0c5.833,0,8.181,3.195,7.527,7.527l-4.623.411c.508-3.171-.75-4.453-3-4.453-2.154,0-3.921,1.6-3.921,6.753,0,5.446,1.888,6.85,4.066,6.85a3.14,3.14,0,0,0,3.34-3.9l4.332.436c.315,4.066-2.614,7.067-7.939,7.067-5.4.024-8.907-3.171-8.907-10.456" transform="translate(-468.315)"/>
      <path id="Path_420" data-name="Path 420" class="cls-1" d="M592.8,1.5h4.938V9.051h6.1V1.5h4.938V21.516h-4.937v-8.5h-6.1v8.5H592.8Z" transform="translate(-524.328 -1.137)"/>
      <path id="Path_421" data-name="Path 421" class="cls-1" d="M667,1.5h13.263V5.179h-8.3V9.463h6.971v3.679h-6.971v4.7h8.592v3.679H667Z" transform="translate(-580.57 -1.137)"/>
      <path id="Path_422" data-name="Path 422" class="cls-1" d="M726.9,1.5h8.253c3.921,0,6.559,1.888,6.559,5.567a5.6,5.6,0,0,1-4.042,5.422,6.013,6.013,0,0,1,1.4,1.888c.823,1.694,1.4,3.558,3.146,3.558a2.4,2.4,0,0,0,.8-.145l-.387,3.534a9.685,9.685,0,0,1-1.985.266c-2.372,0-3.727-.92-5.131-4.09-.581-1.428-1.428-3.921-2.517-3.921h-1.138v7.915H726.9Zm4.962,3.582V10h1.791c1.428,0,3.074-.436,3.074-2.59a2.188,2.188,0,0,0-2.493-2.348h-2.372Z" transform="translate(-625.972 -1.137)"/>
    </g>
    <g id="Group_293" data-name="Group 293" transform="translate(0.011)">
      <path id="Path_423" data-name="Path 423" class="cls-2" d="M267.619,7.213l-.775-4.55C266.6,1.186,266.022,0,265.586,0c-.46,0-.823,1.21-.823,2.711V3.9a2.722,2.722,0,0,1-2.711,2.711H260.6V9.9h4.744a2.237,2.237,0,0,0,2.275-2.687" transform="translate(-197.529)"/>
      <path id="Path_424" data-name="Path 424" class="cls-2" d="M59.331,3.364H44.4a.993.993,0,0,0-.266.024v-.7C44.156,1.21,43.793,0,43.333,0s-1.017,1.21-1.259,2.662l-.75,4.55a2.213,2.213,0,0,0,2.251,2.662h4.478a4.319,4.319,0,0,0,1.283-.194,1.659,1.659,0,0,1-1.622,1.355H41.421A1.645,1.645,0,0,1,39.8,9.125L40.428,5.3a1.645,1.645,0,0,0-1.622-1.912H7.488a1.628,1.628,0,0,0-1.5.968L.081,13.312a.4.4,0,0,0,.024.484l1.138,1.355A.389.389,0,0,0,1.8,15.2l4.018-3.146V31.247a1.632,1.632,0,0,0,1.646,1.646h8.883a1.632,1.632,0,0,0,1.646-1.646v-6.68a1.632,1.632,0,0,1,1.646-1.646H41.832a1.632,1.632,0,0,1,1.646,1.646v6.68a1.632,1.632,0,0,0,1.646,1.646h8.883a1.632,1.632,0,0,0,1.646-1.646V24.058h-4.72a2.722,2.722,0,0,1-2.711-2.711v-4.6a2.7,2.7,0,0,1,1.089-2.154v5.518a2.722,2.722,0,0,0,2.711,2.711h7.285a2.722,2.722,0,0,0,2.711-2.711V6.051a2.665,2.665,0,0,0-2.687-2.687" transform="translate(-0.011)"/>
    </g>
    <g id="Group_294" data-name="Group 294" transform="translate(75.475 25.486)">
      <path id="Path_425" data-name="Path 425" class="cls-1" d="M317.028,110.894a.22.22,0,0,1,.169.073l.46.484a3.073,3.073,0,0,1-1.041.8,3.427,3.427,0,0,1-1.476.266,3.593,3.593,0,0,1-1.38-.266,2.692,2.692,0,0,1-1.041-.726,3.713,3.713,0,0,1-.678-1.113,3.846,3.846,0,0,1-.242-1.428,4.066,4.066,0,0,1,.242-1.452,3.606,3.606,0,0,1,.7-1.138,2.872,2.872,0,0,1,1.089-.726,3.719,3.719,0,0,1,1.4-.266,3.267,3.267,0,0,1,1.331.242,3.217,3.217,0,0,1,.992.653l-.363.532c-.024.024-.048.073-.1.1a.26.26,0,0,1-.145.048.3.3,0,0,1-.218-.1,1.786,1.786,0,0,0-.315-.194,1.829,1.829,0,0,0-.484-.194,2.93,2.93,0,0,0-.726-.1,2.3,2.3,0,0,0-.92.169,2.465,2.465,0,0,0-.726.508,2.086,2.086,0,0,0-.46.823,3.586,3.586,0,0,0,0,2.178,2.549,2.549,0,0,0,.484.823,1.967,1.967,0,0,0,.726.508,2.188,2.188,0,0,0,.9.169,3.747,3.747,0,0,0,.532-.024,2.813,2.813,0,0,0,.436-.1,1.668,1.668,0,0,0,.363-.169,3.253,3.253,0,0,0,.339-.266C316.883,110.918,316.955,110.894,317.028,110.894Z" transform="translate(-311.8 -105.376)"/>
      <path id="Path_426" data-name="Path 426" class="cls-1" d="M352.722,108.882a3.934,3.934,0,0,1-.242,1.428,3.241,3.241,0,0,1-.7,1.113,3.8,3.8,0,0,1-1.089.75,3.343,3.343,0,0,1-1.428.266,3.942,3.942,0,0,1-1.428-.266,2.924,2.924,0,0,1-1.089-.75,3.342,3.342,0,0,1-.7-1.113,3.847,3.847,0,0,1-.242-1.428,3.934,3.934,0,0,1,.242-1.428,3.606,3.606,0,0,1,.7-1.138,3.5,3.5,0,0,1,1.089-.75,3.963,3.963,0,0,1,2.856,0,2.923,2.923,0,0,1,1.089.75,3.6,3.6,0,0,1,.7,1.138A3.846,3.846,0,0,1,352.722,108.882Zm-1.162,0a3.119,3.119,0,0,0-.169-1.089,2.492,2.492,0,0,0-.46-.823,1.966,1.966,0,0,0-.726-.508,2.851,2.851,0,0,0-1.936,0,1.967,1.967,0,0,0-.726.508,2.086,2.086,0,0,0-.46.823,3.112,3.112,0,0,0,.46,3,2.188,2.188,0,0,0,.726.508,2.851,2.851,0,0,0,1.936,0,1.966,1.966,0,0,0,.726-.508,2.086,2.086,0,0,0,.46-.823A3.211,3.211,0,0,0,351.56,108.882Z" transform="translate(-337.571 -105.3)"/>
      <path id="Path_427" data-name="Path 427" class="cls-1" d="M393.36,105.624v6.971h-.581a.483.483,0,0,1-.218-.048.325.325,0,0,1-.169-.145l-3.824-4.913c0,.1.024.194.024.266v4.841H387.6v-6.971h.7c.024,0,.073.024.1.024.024.024.048.024.073.048a.334.334,0,0,1,.073.1l3.824,4.913c0-.1-.024-.194-.024-.29V105.6h1.017Z" transform="translate(-369.254 -105.527)"/>
      <path id="Path_428" data-name="Path 428" class="cls-1" d="M428.894,106.644h-2.178v6.027h-1.138v-6.027H423.4V105.7h5.47v.944Z" transform="translate(-396.389 -105.603)"/>
      <path id="Path_429" data-name="Path 429" class="cls-1" d="M458.38,112.595h-.871a.409.409,0,0,1-.242-.073.583.583,0,0,1-.145-.194l-.581-1.549h-3l-.581,1.549a.325.325,0,0,1-.145.169.409.409,0,0,1-.242.073H451.7l2.759-6.971H455.6Zm-2.13-2.614-.968-2.541c-.073-.194-.145-.436-.242-.75a2.045,2.045,0,0,1-.121.411c-.048.121-.073.242-.121.339l-.968,2.541Z" transform="translate(-417.839 -105.527)"/>
      <path id="Path_430" data-name="Path 430" class="cls-1" d="M491.838,112.671H490.7V105.7h1.138Z" transform="translate(-447.4 -105.603)"/>
      <path id="Path_431" data-name="Path 431" class="cls-1" d="M516.06,105.624v6.971h-.581a.484.484,0,0,1-.218-.048.326.326,0,0,1-.169-.145l-3.824-4.913c0,.1.024.194.024.266v4.841H510.3v-6.971h.7c.024,0,.073.024.1.024.024.024.048.024.073.048a.334.334,0,0,1,.073.1l3.824,4.913c0-.1-.024-.194-.024-.29V105.6h1.017Z" transform="translate(-462.256 -105.527)"/>
      <path id="Path_432" data-name="Path 432" class="cls-1" d="M553.257,111.751v.92H548.9V105.7h4.357v.92h-3.219v2.106H552.6v.9h-2.566v2.154h3.219Z" transform="translate(-491.514 -105.603)"/>
      <path id="Path_433" data-name="Path 433" class="cls-1" d="M585.3,112.671h-1.017a.461.461,0,0,1-.436-.242l-1.622-2.348a.559.559,0,0,0-.169-.169.9.9,0,0,0-.29-.048h-.629v2.808H580V105.7h2.057a4.3,4.3,0,0,1,1.186.145,2.026,2.026,0,0,1,.823.411,2,2,0,0,1,.484.629,1.743,1.743,0,0,1,.145.8,2.1,2.1,0,0,1-.121.678,1.691,1.691,0,0,1-.315.581,2.2,2.2,0,0,1-.508.436,2.861,2.861,0,0,1-.678.29.873.873,0,0,1,.363.363Zm-3.292-3.631a1.909,1.909,0,0,0,.678-.1,1.325,1.325,0,0,0,.484-.266,1.266,1.266,0,0,0,.29-.411,1.19,1.19,0,0,0,.1-.508,1,1,0,0,0-.387-.871,1.878,1.878,0,0,0-1.138-.29h-.92v2.445Z" transform="translate(-515.086 -105.603)"/>
      <path id="Path_434" data-name="Path 434" class="cls-1" d="M634.928,110.894a.22.22,0,0,1,.169.073l.46.484a3.073,3.073,0,0,1-1.041.8,3.427,3.427,0,0,1-1.476.266,3.594,3.594,0,0,1-1.38-.266,2.692,2.692,0,0,1-1.041-.726,3.712,3.712,0,0,1-.678-1.113,3.846,3.846,0,0,1-.242-1.428,4.066,4.066,0,0,1,.242-1.452,3.605,3.605,0,0,1,.7-1.138,2.872,2.872,0,0,1,1.089-.726,3.719,3.719,0,0,1,1.4-.266,3.267,3.267,0,0,1,1.331.242,3.217,3.217,0,0,1,.992.653l-.363.532c-.024.024-.048.073-.1.1a.26.26,0,0,1-.145.048.3.3,0,0,1-.218-.1,1.786,1.786,0,0,0-.315-.194,1.83,1.83,0,0,0-.484-.194,2.93,2.93,0,0,0-.726-.1,2.3,2.3,0,0,0-.92.169,2.466,2.466,0,0,0-.726.508,2.086,2.086,0,0,0-.46.823,3.585,3.585,0,0,0,0,2.178,2.549,2.549,0,0,0,.484.823,1.967,1.967,0,0,0,.726.508,2.188,2.188,0,0,0,.9.169,3.747,3.747,0,0,0,.532-.024,2.813,2.813,0,0,0,.436-.1,1.669,1.669,0,0,0,.363-.169,3.26,3.26,0,0,0,.339-.266A.146.146,0,0,1,634.928,110.894Z" transform="translate(-552.757 -105.376)"/>
      <path id="Path_435" data-name="Path 435" class="cls-1" d="M669.918,111.727v.944H665.9V105.7h1.138v6.027Z" transform="translate(-580.196 -105.603)"/>
      <path id="Path_436" data-name="Path 436" class="cls-1" d="M698.822,108.882a3.934,3.934,0,0,1-.242,1.428,3.241,3.241,0,0,1-.7,1.113,3.8,3.8,0,0,1-1.089.75,3.344,3.344,0,0,1-1.428.266,3.942,3.942,0,0,1-1.428-.266,2.924,2.924,0,0,1-1.089-.75,3.342,3.342,0,0,1-.7-1.113,3.846,3.846,0,0,1-.242-1.428,3.934,3.934,0,0,1,.242-1.428,3.605,3.605,0,0,1,.7-1.138,3.5,3.5,0,0,1,1.089-.75,3.963,3.963,0,0,1,2.856,0,2.923,2.923,0,0,1,1.089.75,3.605,3.605,0,0,1,.7,1.138A4.411,4.411,0,0,1,698.822,108.882Zm-1.162,0a3.119,3.119,0,0,0-.169-1.089,2.491,2.491,0,0,0-.46-.823,1.967,1.967,0,0,0-.726-.508,2.851,2.851,0,0,0-1.936,0,1.967,1.967,0,0,0-.726.508,2.086,2.086,0,0,0-.46.823,3.112,3.112,0,0,0,.46,3,2.188,2.188,0,0,0,.726.508,2.851,2.851,0,0,0,1.936,0,1.967,1.967,0,0,0,.726-.508,2.086,2.086,0,0,0,.46-.823A3.212,3.212,0,0,0,697.66,108.882Z" transform="translate(-599.903 -105.3)"/>
      <path id="Path_437" data-name="Path 437" class="cls-1" d="M736.208,111.675a1.768,1.768,0,0,0,.726-.145,1.443,1.443,0,0,0,.532-.387,1.748,1.748,0,0,0,.339-.581,2.436,2.436,0,0,0,.121-.75V105.6h1.138v4.211a3.4,3.4,0,0,1-.194,1.138,2.437,2.437,0,0,1-.557.9,2.657,2.657,0,0,1-.9.605,3.047,3.047,0,0,1-1.186.218,3.135,3.135,0,0,1-1.186-.218,2.549,2.549,0,0,1-.9-.605,2.437,2.437,0,0,1-.557-.9,3.4,3.4,0,0,1-.194-1.138V105.6h1.138v4.211a2.438,2.438,0,0,0,.121.75,1.748,1.748,0,0,0,.339.581,1.444,1.444,0,0,0,.532.387A1.342,1.342,0,0,0,736.208,111.675Z" transform="translate(-631.358 -105.527)"/>
      <path id="Path_438" data-name="Path 438" class="cls-1" d="M777.3,109.185a3.935,3.935,0,0,1-.242,1.428,3.133,3.133,0,0,1-.7,1.089,3.728,3.728,0,0,1-1.089.726,3.847,3.847,0,0,1-1.428.242H771.2V105.7h2.614a3.846,3.846,0,0,1,1.428.242,2.873,2.873,0,0,1,1.089.726,3.24,3.24,0,0,1,.7,1.089A3.416,3.416,0,0,1,777.3,109.185Zm-1.138,0a3.118,3.118,0,0,0-.169-1.089,2.164,2.164,0,0,0-.46-.8,1.966,1.966,0,0,0-.726-.508,2.466,2.466,0,0,0-.968-.169h-1.5v5.131h1.5a2.466,2.466,0,0,0,.968-.169,1.966,1.966,0,0,0,.726-.508,2.164,2.164,0,0,0,.46-.8A3.943,3.943,0,0,0,776.162,109.185Z" transform="translate(-660.009 -105.603)"/>
    </g>
  </g>
</svg>
