<?xml version="1.0" encoding="utf-8"?>
<!-- Generator: Adobe Illustrator 19.2.1, SVG Export Plug-In . SVG Version: 6.00 Build 0)  -->
<svg version="1.1" id="Layer_1" xmlns="http://www.w3.org/2000/svg" xmlns:xlink="http://www.w3.org/1999/xlink" x="0px" y="0px"
	 viewBox="0 0 70.1 32.9" style="enable-background:new 0 0 70.1 32.9;" xml:space="preserve">
<style type="text/css">
	.st0{fill:#0876A9;}
</style>
<g>
	<g>
		<path class="st0" d="M65.7,7.9L65,3.7c-0.2-1.4-0.8-2.5-1.2-2.5c-0.4,0-0.8,1.1-0.8,2.5v1.1c0,1.4-1.1,2.5-2.5,2.5h-1.1
			c-0.1,0-0.2,0-0.2,0v3c0.1,0,0.2,0,0.2,0h4.2C65,10.3,65.9,9.2,65.7,7.9"/>
		<path class="st0" d="M55.7,4.3H49c-0.1,0-0.1,0-0.2,0h-6.9c-0.1,0-0.2,0-0.2,0V3.7c0-1.4-0.3-2.5-0.8-2.5S40,2.3,39.7,3.7L39,7.9
			c-0.2,1.4,0.7,2.5,2.1,2.5h4.1c0.4,0,0.8-0.1,1.2-0.2c-0.1,0.7-0.7,1.2-1.5,1.2h-5.8c-0.9,0-1.6-0.9-1.5-1.8l0.6-3.5
			c0.1-0.9-0.6-1.8-1.5-1.8h-29c-0.6,0-1.1,0.4-1.4,0.9l-5.5,8.3c-0.1,0.1-0.1,0.3,0,0.5l1.1,1.2c0.1,0.2,0.4,0.2,0.5,0.1l3.7-2.9
			v17.8c0,0.9,0.7,1.5,1.5,1.5H16c0.9,0,1.5-0.7,1.5-1.5V24c0-0.9,0.7-1.5,1.5-1.5h20.6c0.9,0,1.5,0.7,1.5,1.5v6.2
			c0,0.9,0.7,1.5,1.5,1.5h8.2c0.9,0,1.5-0.7,1.5-1.5v-6.6H48c-1.4,0-2.5-1.1-2.5-2.5v-4.3c0-0.8,0.4-1.5,1-2v5.1
			c0,1.4,1.1,2.5,2.5,2.5h6.7c1.4,0,2.5-1.1,2.5-2.5v-13C58.2,5.4,57.1,4.3,55.7,4.3"/>
	</g>
	<g>
		<path class="st0" d="M66.1,2.8c0-1.1,0.8-1.6,1.6-1.6c0.8,0,1.6,0.5,1.6,1.6c0,1.1-0.8,1.6-1.6,1.6C67,4.4,66.1,3.9,66.1,2.8z
			 M68.9,2.8c0-0.9-0.6-1.2-1.2-1.2s-1.2,0.4-1.2,1.2c0,0.9,0.6,1.2,1.2,1.2C68.4,4,68.9,3.6,68.9,2.8z M67.2,2h0.6
			c0.3,0,0.6,0.1,0.6,0.5c0,0.2-0.2,0.4-0.4,0.4l0.4,0.7H68l-0.3-0.6h-0.1v0.6h-0.3V2L67.2,2z M67.8,2.7c0.1,0,0.3-0.1,0.3-0.2
			c0-0.2-0.1-0.2-0.3-0.2h-0.3v0.4H67.8z"/>
	</g>
</g>
</svg>
