<svg id="Layer_1" data-name="Layer 1" xmlns="http://www.w3.org/2000/svg" viewBox="0 0 223.1 40.69"><defs><style>.cls-1{fill:#0075a8;}.cls-2{fill:#59595b;}</style></defs><title>container-cloud-logo</title><path class="cls-1" d="M83.84,9.45L82.93,4C82.64,2.24,82,.81,81.41.81s-1,1.45-1,3.23V5.46A3.24,3.24,0,0,1,77.2,8.69H75.47v3.92h5.68a2.65,2.65,0,0,0,2.7-3.19"/><path class="cls-1" d="M71,4.83H53.11l-0.31,0V4c0-1.78-.44-3.23-1-3.23S50.6,2.24,50.3,4L49.4,9.45a2.65,2.65,0,0,0,2.7,3.19h5.37A4.9,4.9,0,0,0,59,12.4,2,2,0,0,1,57.06,14H49.53a2,2,0,0,1-1.94-2.3l0.76-4.57a2,2,0,0,0-1.94-2.3H8.93A2,2,0,0,0,7.14,6L0.08,16.73a0.49,0.49,0,0,0,0,.59l1.37,1.62a0.49,0.49,0,0,0,.68.07L7,15.22v23a2,2,0,0,0,2,2H19.57a2,2,0,0,0,2-2v-8a2,2,0,0,1,2-2H50.07a2,2,0,0,1,2,2v8a2,2,0,0,0,2,2H64.65a2,2,0,0,0,2-2v-8.6H61a3.24,3.24,0,0,1-3.23-3.23V20.83A3.23,3.23,0,0,1,59,18.26v6.6a3.24,3.24,0,0,0,3.23,3.23H71a3.24,3.24,0,0,0,3.23-3.23V8.06A3.24,3.24,0,0,0,71,4.83"/><path class="cls-2" d="M89.87,0.39H99c4.32,0,7.23,2.09,7.23,6.15a6.18,6.18,0,0,1-4.45,6,6.55,6.55,0,0,1,1.54,2.09c0.92,1.86,1.54,3.93,3.47,3.93a2.55,2.55,0,0,0,.88-0.16l-0.43,3.89a10.7,10.7,0,0,1-2.19.29c-2.62,0-4.12-1-5.66-4.51-0.65-1.57-1.57-4.32-2.78-4.32H95.33v8.73H89.87V0.39Zm5.46,4V9.78h2c1.57,0,3.4-.49,3.4-2.85,0-1.93-1.24-2.58-2.75-2.58H95.33Z"/><path class="cls-2" d="M113.58,0.39h5.53l7.46,22.08H121l-1.37-4.19h-7.39l-1.34,4.19h-4.78Zm0,13.84h4.74l-1.5-4.65a21.6,21.6,0,0,1-.75-3.79h-0.13a28,28,0,0,1-.82,3.76Z"/><path class="cls-2" d="M126.8,0.39h5.86l5.79,11c0.49,0.95,1.14,2.62,1.67,3.93h0.13C140.18,14,140,12.27,140,11V0.39h4.48V22.47h-5.73l-6-10.93a30.59,30.59,0,0,1-1.6-3.6H131c0.1,1.24.26,2.72,0.26,3.93v10.6H126.8V0.39Z"/><path class="cls-2" d="M145.67,11.29c0-8,4-11.29,10.08-11.29,6.44,0,9,3.53,8.31,8.31l-5.1.46c0.56-3.5-.82-4.91-3.3-4.91s-4.32,1.77-4.32,7.46c0,6,2.09,7.56,4.48,7.56a3.47,3.47,0,0,0,3.7-4.29l4.78,0.49c0.36,4.48-2.88,7.79-8.77,7.79s-9.85-3.53-9.85-11.58"/><polygon class="cls-2" points="165.39 0.39 170.86 0.39 170.86 8.73 177.56 8.73 177.56 0.39 183.03 0.39 183.03 22.48 177.56 22.48 177.56 13.12 170.86 13.12 170.86 22.48 165.39 22.48 165.39 0.39"/><polygon class="cls-2" points="185.22 0.39 199.84 0.39 199.84 4.45 190.68 4.45 190.68 9.19 198.37 9.19 198.37 13.25 190.68 13.25 190.68 18.42 200.16 18.42 200.16 22.48 185.22 22.48 185.22 0.39"/><path class="cls-2" d="M201.21,0.39h9.09c4.32,0,7.23,2.09,7.23,6.15a6.18,6.18,0,0,1-4.45,6,6.55,6.55,0,0,1,1.54,2.09c0.92,1.86,1.54,3.93,3.47,3.93a2.54,2.54,0,0,0,.88-0.16l-0.42,3.89a10.71,10.71,0,0,1-2.19.29c-2.62,0-4.12-1-5.66-4.51-0.65-1.57-1.57-4.32-2.78-4.32h-1.24v8.73h-5.46V0.39Zm5.46,4V9.78h2c1.57,0,3.4-.49,3.4-2.85,0-1.93-1.24-2.58-2.75-2.58h-2.62Z"/><path class="cls-2" d="M219.54,1.79a1.78,1.78,0,1,1,3.56,0A1.78,1.78,0,0,1,219.54,1.79Zm3.13,0A1.28,1.28,0,0,0,221.32.37,1.3,1.3,0,0,0,220,1.78a1.29,1.29,0,0,0,1.37,1.39A1.27,1.27,0,0,0,222.67,1.78Zm-1.94-.89h0.63a0.53,0.53,0,0,1,.64.54,0.46,0.46,0,0,1-.42.47L222,2.62h-0.38l-0.39-.7h-0.15v0.7h-0.34V0.89Zm0.66,0.79a0.26,0.26,0,0,0,.28-0.25,0.23,0.23,0,0,0-.28-0.23h-0.31V1.68h0.31Z"/><path class="cls-2" d="M93,40a4.86,4.86,0,0,1-2-1.91,6.22,6.22,0,0,1,0-5.75,4.84,4.84,0,0,1,2-1.92,6,6,0,0,1,2.88-.67,5.84,5.84,0,0,1,3.61,1.09v1.47A5.06,5.06,0,0,0,96,31.16a4.54,4.54,0,0,0-2.15.5,3.56,3.56,0,0,0-1.46,1.42,4.66,4.66,0,0,0,0,4.31,3.6,3.6,0,0,0,1.47,1.42,4.51,4.51,0,0,0,2.14.5A6.29,6.29,0,0,0,98,39a4.84,4.84,0,0,0,1.63-.94v1.48a5.69,5.69,0,0,1-3.75,1.13A6,6,0,0,1,93,40Z"/><path class="cls-2" d="M103.35,40.23a3.41,3.41,0,0,1-1.44-1.32,3.87,3.87,0,0,1-.52-2,3.93,3.93,0,0,1,.51-2,3.43,3.43,0,0,1,1.44-1.34,5.1,5.1,0,0,1,4.29,0,3.48,3.48,0,0,1,1.45,1.34,4.24,4.24,0,0,1,0,4.06,3.39,3.39,0,0,1-1.45,1.32A5.25,5.25,0,0,1,103.35,40.23Zm4-1.46a3,3,0,0,0,0-3.81,2.81,2.81,0,0,0-3.72,0,3,3,0,0,0,0,3.81A2.76,2.76,0,0,0,107.35,38.77Z"/><path class="cls-2" d="M112,33.26h1.47v1a3.08,3.08,0,0,1,1.25-1A4,4,0,0,1,116.3,33a2.78,2.78,0,0,1,2.15.76,2.91,2.91,0,0,1,.71,2.05v4.61h-1.52V36A1.52,1.52,0,0,0,116,34.25a2.77,2.77,0,0,0-1.34.34,3,3,0,0,0-1.07,1v4.84H112v-7.2Z"/><path class="cls-2" d="M122.9,40.06a2.51,2.51,0,0,1-.59-1.79V34.43h-1.1V33.26h1.1V31.1h1.53v2.16h1.77v1.17h-1.77v3.74a1.49,1.49,0,0,0,.28,1,1.35,1.35,0,0,0,1,.3,2.11,2.11,0,0,0,.87-0.2v1.2a4.4,4.4,0,0,1-1.41.19A2.21,2.21,0,0,1,122.9,40.06Z"/><path class="cls-2" d="M128.46,40a2.25,2.25,0,0,1-.79-1.81,2.31,2.31,0,0,1,.76-1.85,3.2,3.2,0,0,1,2.15-.65,5,5,0,0,1,2.52.6V35.93a1.53,1.53,0,0,0-.52-1.27,2.61,2.61,0,0,0-1.63-.41,6.38,6.38,0,0,0-1.28.13,5.26,5.26,0,0,0-1.12.35V33.5a4.79,4.79,0,0,1,1.17-.34,8,8,0,0,1,1.39-.13,3.83,3.83,0,0,1,2.65.79,2.81,2.81,0,0,1,.86,2.18v4.46h-1.42V39.65a3,3,0,0,1-1.1.77,4.08,4.08,0,0,1-1.55.26A3.13,3.13,0,0,1,128.46,40Zm3.77-.77a1.94,1.94,0,0,0,.87-0.79v-1a3.92,3.92,0,0,0-2.17-.63,2.07,2.07,0,0,0-1.3.34,1.23,1.23,0,0,0-.43,1q0,1.32,1.73,1.32A3,3,0,0,0,132.23,39.25Z"/><path class="cls-2" d="M137.54,31.6a0.88,0.88,0,0,1,.63-1.51,0.9,0.9,0,0,1,.65.25,0.89,0.89,0,0,1,0,1.26,0.9,0.9,0,0,1-.65.25A0.86,0.86,0,0,1,137.54,31.6Zm-0.13,1.67H139v7.2h-1.54v-7.2Z"/><path class="cls-2" d="M141.82,33.26h1.47v1a3.08,3.08,0,0,1,1.25-1,4,4,0,0,1,1.55-.31,2.78,2.78,0,0,1,2.15.76,2.91,2.91,0,0,1,.71,2.05v4.61h-1.52V36a1.52,1.52,0,0,0-1.68-1.75,2.77,2.77,0,0,0-1.34.34,3,3,0,0,0-1.07,1v4.84h-1.51v-7.2Z"/><path class="cls-2" d="M152.43,39.69a3.55,3.55,0,0,1-1.13-2.81A3.55,3.55,0,0,1,155.2,33a4.37,4.37,0,0,1,2.11.47,3.14,3.14,0,0,1,1.31,1.3,4,4,0,0,1,.44,1.9v0.75h-6.33A1.86,1.86,0,0,0,153.6,39a3.94,3.94,0,0,0,2.14.5,7.83,7.83,0,0,0,1.39-.13,6.73,6.73,0,0,0,1.25-.34v1.22a6,6,0,0,1-1.27.32,9.71,9.71,0,0,1-1.55.13A4.57,4.57,0,0,1,152.43,39.69Zm5.21-3.29a2.08,2.08,0,0,0-.67-1.58,2.65,2.65,0,0,0-1.81-.56,2.51,2.51,0,0,0-1.77.58,2.12,2.12,0,0,0-.66,1.56h4.9Z"/><path class="cls-2" d="M161.5,33.26H163v1.29a2.63,2.63,0,0,1,1.27-1,5.26,5.26,0,0,1,1.9-.32v1.19a4.76,4.76,0,0,0-2,.38A2.1,2.1,0,0,0,163,36v4.46H161.5v-7.2Z"/><path class="cls-2" d="M177,40a4.85,4.85,0,0,1-2-1.91,6.22,6.22,0,0,1,0-5.75,4.84,4.84,0,0,1,2-1.92,6,6,0,0,1,2.88-.67,5.84,5.84,0,0,1,3.62,1.09v1.47A5.06,5.06,0,0,0,180,31.16a4.54,4.54,0,0,0-2.15.5,3.56,3.56,0,0,0-1.46,1.42,4.66,4.66,0,0,0,0,4.31,3.6,3.6,0,0,0,1.47,1.42,4.5,4.5,0,0,0,2.14.5,6.29,6.29,0,0,0,2-.29,4.83,4.83,0,0,0,1.63-.94v1.48a5.69,5.69,0,0,1-3.75,1.13A6,6,0,0,1,177,40Z"/><path class="cls-2" d="M186,29.38h1.51V40.46H186V29.38Z"/><path class="cls-2" d="M191.92,40.23a3.4,3.4,0,0,1-1.44-1.32,3.87,3.87,0,0,1-.52-2,3.93,3.93,0,0,1,.51-2,3.43,3.43,0,0,1,1.44-1.34,5.1,5.1,0,0,1,4.29,0,3.48,3.48,0,0,1,1.45,1.34,4.24,4.24,0,0,1,0,4.06,3.39,3.39,0,0,1-1.45,1.32A5.25,5.25,0,0,1,191.92,40.23Zm4-1.46a3,3,0,0,0,0-3.81,2.81,2.81,0,0,0-3.72,0,3,3,0,0,0,0,3.81A2.76,2.76,0,0,0,195.92,38.77Z"/><path class="cls-2" d="M201.27,39.91a2.9,2.9,0,0,1-.74-2.08V33.26H202v4.5a1.52,1.52,0,0,0,1.72,1.73,2.66,2.66,0,0,0,2.37-1.37V33.26h1.51v7.2h-1.47v-1a3.08,3.08,0,0,1-1.21.94,3.78,3.78,0,0,1-1.51.3A2.9,2.9,0,0,1,201.27,39.91Z"/><path class="cls-2" d="M211.92,40.21a3.4,3.4,0,0,1-1.35-1.33,4.34,4.34,0,0,1,0-4,3.48,3.48,0,0,1,1.35-1.36,3.88,3.88,0,0,1,1.94-.49,3.66,3.66,0,0,1,3,1.18V29.38h1.51V40.46h-1.47v-1a3.84,3.84,0,0,1-1.31,1,4.25,4.25,0,0,1-1.69.31A4,4,0,0,1,211.92,40.21ZM215.83,39a2.59,2.59,0,0,0,1-1.31V36.07a2.44,2.44,0,0,0-1-1.32,2.81,2.81,0,0,0-1.64-.5,2.68,2.68,0,0,0-1.33.33,2.37,2.37,0,0,0-.93.93,2.93,2.93,0,0,0,0,2.73,2.32,2.32,0,0,0,.93.92,2.72,2.72,0,0,0,1.33.32A2.77,2.77,0,0,0,215.83,39Z"/></svg>