<?xml version="1.0" encoding="utf-8"?>
<!-- Generator: Adobe Illustrator 19.1.0, SVG Export Plug-In . SVG Version: 6.00 Build 0)  -->
<svg version="1.1" id="Layer_1" xmlns="http://www.w3.org/2000/svg" xmlns:xlink="http://www.w3.org/1999/xlink" x="0px" y="0px"
	 viewBox="0 0 37.4 20.3" style="enable-background:new 0 0 37.4 20.3;" xml:space="preserve">
<style type="text/css">
	.st0{fill:#FFFFFF;}
</style>
<g>
	<g id="surface1_1_">
		<path class="st0" d="M25.5,2.9l-0.8-1.6c-0.3-0.5-0.6-0.9-0.8-0.9c-0.2,0.1-0.2,0.6,0,1.1L24,2c0.2,0.6-0.1,1.2-0.7,1.3l-0.4,0.1
			c0,0-0.1,0-0.1,0l0.4,1.2c0,0,0.1,0,0.1,0l1.7-0.5C25.5,4,25.7,3.4,25.5,2.9"/>
		<path class="st0" d="M21,2.7l-2.7,0.8c0,0,0,0-0.1,0l-2.8,0.9c0,0-0.1,0-0.1,0l-0.1-0.3c-0.2-0.6-0.5-1-0.6-0.9
			c-0.2,0.1-0.2,0.6-0.2,1.1l0.2,1.8c0.1,0.6,0.6,0.9,1.2,0.7l1.7-0.5c0.2-0.1,0.3-0.1,0.5-0.2c0,0.3-0.1,0.6-0.5,0.7l-2.4,0.7
			c-0.4,0.1-0.8-0.1-0.8-0.5l-0.2-1.5C14,5.3,13.6,5,13.2,5.1L2.7,8.5C2.5,8.6,2.3,8.8,2.3,9.1l-1.9,3.6c0,0.1,0,0.1,0.1,0.2
			l0.6,0.4c0.1,0,0.2,0,0.2,0l1.2-1l0.4,6.1c0.1,0.3,0.5,0.5,0.8,0.4l3.9-0.3c0.3-0.1,0.5-0.5,0.4-0.8l-0.1-2.1
			c-0.1-0.3,0.1-0.7,0.4-0.8l8.5-2.5c0.3-0.1,0.7,0.1,0.8,0.4l0.9,2.3c0.1,0.3,0.5,0.5,0.8,0.4l3.6-1.1c0.3-0.1,0.5-0.5,0.4-0.8
			l-0.8-2.5l-2.3,0.6c-0.6,0.2-1.2-0.1-1.3-0.7L18.4,9c-0.1-0.3,0-0.7,0.2-0.9l0.6,2.1c0.2,0.6,0.8,0.9,1.3,0.7l2.7-0.8
			c0.6-0.2,0.9-0.8,0.7-1.3l-1.6-5.3C22.1,2.9,21.5,2.6,21,2.7"/>
	</g>
	<path class="st0" d="M36.9,14.7C36.9,14.7,36.9,14.7,36.9,14.7c0,0-0.1-0.1-0.1-0.1c0,0,0,0,0,0c0,0-0.1,0-0.1,0c0,0,0,0,0,0l0,0
		l0,0l0,0c0,0,0,0,0,0c0,0-0.1,0-0.1,0c-0.1,0-0.2,0-0.2,0c0,0-0.1,0-0.1,0l0,0c-0.3,0-0.5-0.1-0.7-0.1c-0.1,0-0.1-0.1-0.1-0.1
		c0.1-0.7,0.1-1.3-0.1-2c-0.2-0.7-0.4-1.3-0.8-1.8c0,0,0-0.1,0.1-0.1c0.2-0.1,0.3-0.3,0.6-0.4l0,0c0,0,0.1,0,0.1-0.1
		c0.1,0,0.1-0.1,0.2-0.1c0,0,0,0,0.1,0c0,0,0,0,0,0c0,0,0,0,0,0c0,0,0,0,0,0l0,0l0,0c0.1-0.1,0.1-0.2,0.2-0.3c0-0.1,0-0.2-0.1-0.3
		c-0.1-0.2-0.4-0.2-0.6,0l0,0l0,0c0,0,0,0,0,0c0,0,0,0,0,0c0,0,0,0,0,0c0,0,0,0-0.1,0c-0.1,0.1-0.1,0.1-0.2,0.2c0,0-0.1,0.1-0.1,0.1
		l0,0c-0.2,0.2-0.3,0.4-0.5,0.5c-0.1,0-0.1,0-0.2,0c-0.9-1-2.2-1.6-3.5-1.7c0,0-0.1-0.1-0.1-0.1c0-0.2,0-0.4,0-0.7l0,0
		c0,0,0-0.1,0-0.1c0-0.1,0-0.2,0-0.2c0,0,0,0,0-0.1c0,0,0,0,0,0c0,0,0,0,0,0l0,0c0-0.1,0-0.2-0.1-0.3c-0.1-0.1-0.2-0.1-0.3-0.1
		c-0.2,0-0.4,0.2-0.4,0.4l0,0v0c0,0,0,0,0,0c0,0,0,0.1,0,0.1c0,0.1,0,0.2,0,0.2c0,0,0,0.1,0,0.1l0,0c0,0.3,0.1,0.5,0,0.7
		c0,0.1,0,0.1-0.1,0.1c-0.3,0-0.5,0.1-0.8,0.1l0,0c-1.1,0.2-2,0.8-2.7,1.6c0,0-0.1,0-0.1,0c-0.2-0.1-0.3-0.3-0.5-0.5l0,0
		c0,0-0.1-0.1-0.1-0.1c-0.1-0.1-0.1-0.1-0.2-0.2c0,0,0,0-0.1,0c0,0,0,0,0,0l0,0l0,0c-0.2-0.1-0.4-0.1-0.6,0
		c-0.1,0.1-0.1,0.2-0.1,0.3c0,0.1,0.1,0.2,0.2,0.3c0,0,0,0,0,0c0,0,0,0,0,0c0,0,0,0,0.1,0C24.9,9.8,25,9.9,25,9.9c0,0,0.1,0,0.1,0.1
		l0,0c0.2,0.1,0.4,0.3,0.6,0.4c0,0,0.1,0.1,0.1,0.1c0,0.1-0.1,0.1-0.1,0.2c-0.7,1.1-0.9,2.4-0.7,3.6c0,0-0.1,0.1-0.1,0.1
		c-0.2,0.1-0.4,0.1-0.7,0.1l0,0c0,0-0.1,0-0.1,0c-0.1,0-0.2,0-0.2,0c0,0,0,0-0.1,0c0,0,0,0,0,0l0,0l0,0c-0.2,0.1-0.4,0.3-0.3,0.5
		c0,0,0,0,0,0.1c0,0,0,0,0,0c0,0,0,0.1,0.1,0.1c0,0,0,0,0,0c0,0,0,0,0.1,0c0.1,0,0.1,0.1,0.2,0.1c0,0,0.1,0,0.1,0c0,0,0,0,0,0
		c0,0,0,0,0,0c0,0,0.1,0,0.1,0c0.1,0,0.2-0.1,0.2-0.1c0,0,0.1,0,0.1,0l0,0c0.2-0.1,0.5-0.2,0.7-0.2c0.1,0,0.1,0,0.2,0
		c0.4,1.3,1.3,2.4,2.4,3c0,0,0,0.1,0,0.2c-0.1,0.2-0.2,0.4-0.3,0.6l0,0c0,0,0,0.1-0.1,0.1c0,0.1-0.1,0.1-0.1,0.2c0,0,0,0,0,0.1
		c0,0,0,0,0,0c-0.1,0.2,0,0.5,0.2,0.6c0,0,0.1,0,0.2,0c0,0,0,0,0.1,0c0,0,0,0,0,0c0,0,0,0,0.1,0c0,0,0,0,0,0c0,0,0,0,0.1,0
		c0,0,0,0,0.1-0.1c0,0,0,0,0-0.1c0,0,0,0,0,0l0,0l0,0c0,0,0,0,0,0c0,0,0,0,0-0.1c0-0.1,0.1-0.2,0.1-0.2c0,0,0-0.1,0-0.1l0,0
		c0.1-0.3,0.2-0.5,0.3-0.6c0-0.1,0.1-0.1,0.1-0.1c0.6,0.2,1.3,0.4,1.9,0.4c0.4,0,0.8,0,1.2-0.1c0.3-0.1,0.5-0.1,0.8-0.2c0,0,0,0,0,0
		c0,0,0,0,0,0c0,0,0.1,0,0.1,0.1c0.1,0.2,0.2,0.4,0.3,0.6l0,0c0,0,0,0.1,0,0.1c0,0.1,0,0.2,0.1,0.2c0,0,0,0,0,0.1c0,0,0,0,0,0h0
		c0.1,0.2,0.2,0.3,0.4,0.3c0.1,0,0.1,0,0.2,0c0.2-0.1,0.3-0.3,0.2-0.6l0,0l0,0c0,0,0,0,0,0c0,0,0,0,0-0.1c0-0.1-0.1-0.1-0.1-0.2
		c0,0,0-0.1-0.1-0.1l0,0c-0.1-0.2-0.3-0.4-0.3-0.6c0-0.1,0-0.1,0-0.1c0.7-0.4,1.4-1,1.9-1.8c0.3-0.4,0.4-0.8,0.6-1.3
		c0,0,0.1,0,0.1,0c0.2,0,0.4,0.1,0.7,0.2l0,0c0,0,0.1,0,0.1,0c0.1,0,0.1,0.1,0.2,0.1c0,0,0,0,0.1,0c0,0,0,0,0.1,0v0c0,0,0.1,0,0.1,0
		c0.1,0,0.2,0,0.2-0.1c0.1-0.1,0.2-0.1,0.2-0.2C37,14.9,37,14.8,36.9,14.7z M26.9,11.5l1.4,1.2c0,0,0,0,0,0L28.1,13l0.1,0.3
		c0,0,0,0-0.1,0l-1.7,0.5C26.3,13,26.4,12.2,26.9,11.5z M30.5,13.8l-0.4,0.2l-0.4-0.2l-0.1-0.4l0.3-0.3h0.4l0.3,0.3L30.5,13.8z
		 M36.3,14.5c0,0,0.1,0,0.1,0C36.4,14.5,36.4,14.5,36.3,14.5z M35.5,14.4c0.1,0,0.2,0,0.3,0.1C35.6,14.4,35.5,14.4,35.5,14.4z
		 M35.8,14.5c0.1,0,0.1,0,0.2,0C36,14.5,35.9,14.5,35.8,14.5z M32.2,13.3L32.2,13.3L32.2,13.3C32.1,13.3,32.1,13.3,32.2,13.3l0-0.3
		L32,12.8c0,0,0,0,0,0l1.4-1.2c0.2,0.3,0.4,0.7,0.4,1.1c0.1,0.4,0.1,0.8,0.1,1.2L32.2,13.3z M30.4,8C30.4,7.9,30.4,7.9,30.4,8
		C30.4,7.9,30.4,7.9,30.4,8z M25,15C25,15,25,15,25,15C25,15,25,15,25,15z M28.4,14.5C28.4,14.5,28.4,14.5,28.4,14.5l0.1,0.3
		l0.3,0.1c0,0,0,0.1,0,0.1l0,0L28,16.6c-0.6-0.4-1.2-1.1-1.5-1.8L28.4,14.5z M33.2,19C33.2,19,33.2,19,33.2,19
		C33.2,19,33.2,19,33.2,19z M35.6,9.1C35.6,9.1,35.5,9,35.6,9.1C35.5,9,35.6,9.1,35.6,9.1z M35.5,9c0,0-0.1,0-0.1,0
		C35.4,9,35.4,9,35.5,9z M35.3,9C35.3,9,35.3,9,35.3,9C35.3,9,35.3,9,35.3,9C35.3,9,35.3,9,35.3,9z M32.7,10.7l-1.5,1.1c0,0,0,0,0,0
		L31,11.6h-0.3c0,0,0,0,0,0l-0.1-1.8C31.4,9.8,32.2,10.2,32.7,10.7z M29.3,9.8C29.3,9.8,29.3,9.8,29.3,9.8c0.1,0,0.2,0,0.3-0.1
		l-0.1,1.8c0,0,0,0,0,0.1h-0.3L29,11.8c0,0,0,0-0.1,0l-1.5-1C28,10.3,28.6,9.9,29.3,9.8z M30.1,17.3c-0.4,0-0.8-0.1-1.2-0.2l0.9-1.6
		c0,0,0,0,0,0l0.2,0.1l0.2-0.1c0,0,0,0,0,0.1l0.9,1.6c-0.1,0-0.2,0.1-0.3,0.1C30.7,17.2,30.4,17.3,30.1,17.3z M32.2,16.6l-0.7-1.7
		c0,0,0,0,0,0l0.4-0.2v-0.2l1.8,0.3c-0.1,0.2-0.2,0.5-0.3,0.7C33,16,32.7,16.4,32.2,16.6z"/>
</g>
</svg>
