<?xml version="1.0" encoding="utf-8"?>
<!-- Generator: Adobe Illustrator 19.1.0, SVG Export Plug-In . SVG Version: 6.00 Build 0)  -->
<svg version="1.1" id="Layer_1" xmlns="http://www.w3.org/2000/svg" xmlns:xlink="http://www.w3.org/1999/xlink" x="0px" y="0px"
	 viewBox="-369 291 59.6 20" style="enable-background:new -369 291 59.6 20;" xml:space="preserve">
<style type="text/css">
	.st0{fill:#FFFFFF;}
</style>
<path class="st0" d="M-332.3,297.7h-2.5c-0.1,0-0.1,0-0.2,0v-1.7c0.1,0,0.1,0,0.2,0h0.5c0.8,0,1.5-0.6,1.5-1.5v-0.5
	c0-0.8,0.2-1.5,0.5-1.5c0.3,0,0.5,0.5,0.7,1.4l0.4,2.5C-331.1,297-331.6,297.7-332.3,297.7z M-336.8,294.2h-3.8h-0.2h-3.9
	c-0.1,0-0.1,0-0.2,0v-0.4c0-0.8-0.2-1.5-0.5-1.5s-0.5,0.6-0.6,1.4l-0.5,2.5c-0.2,0.8,0.5,1.4,1.2,1.4h2.5c0.3,0,0.5,0,0.7-0.1
	c-0.1,0.5-0.5,0.7-0.8,0.7h-3.4c-0.5,0-0.9-0.5-0.8-1l0.4-2.1c0.1-0.5-0.4-1-0.8-1h-16.8c-0.4,0-0.7,0.2-0.8,0.5l-3,4.7
	c-0.1,0.1-0.1,0.2,0,0.3l0.5,0.7c0.1,0.1,0.2,0.1,0.3,0l2.2-1.6v10.2c0,0.5,0.5,0.8,0.8,0.8h4.8c0.5,0,0.8-0.5,0.8-0.8v-3.5
	c0-0.5,0.5-0.8,0.8-0.8h11.8c0.5,0,0.8,0.5,0.8,0.8v3.5c0,0.5,0.5,0.8,0.8,0.8h4.8c0.5,0,0.8-0.5,0.8-0.8v-3.8h-2.5
	c-0.8,0-1.5-0.5-1.5-1.5v-2.5c0-0.5,0.3-0.8,0.5-1.1v2.9c0,0.8,0.5,1.5,1.5,1.5h3.8c0.8,0,1.5-0.5,1.5-1.5v-7.6
	C-335.5,294.9-336.1,294.2-336.8,294.2z"/>
<path class="st0" d="M-311.6,299.2c-0.7-0.4-1.5-0.4-2.3-0.2c-0.1-0.8-0.6-1.5-1.2-2l-0.2-0.2l-0.2,0.2c-0.4,0.5-0.5,1.3-0.5,1.9
	c0,0.4,0.2,0.9,0.5,1.3c-0.2,0.1-0.4,0.2-0.7,0.3c-0.4,0.1-0.9,0.2-1.4,0.2h-1v-2h-2v-3.9h-2.4v2h-3.9v2h-2v2h-1.7l0,0.3
	c-0.1,1,0,2,0.5,2.9l0.2,0.4l0,0c1.2,2.1,3.3,2.9,5.7,2.9c4.5,0,8.2-2,9.9-6.2c1.1,0.1,2.3-0.3,2.9-1.4l0.1-0.3L-311.6,299.2
	L-311.6,299.2z M-326.5,297.1h1.7v1.7h-1.7V297.1L-326.5,297.1z M-324.4,304c0,0.3-0.2,0.5-0.5,0.5c-0.3,0-0.5-0.2-0.5-0.5
	c0-0.3,0.2-0.5,0.5-0.5S-324.4,303.7-324.4,304z M-326.5,299h1.7v1.7h-1.7V299L-326.5,299z M-328.4,299h1.7v1.7h-1.7V299L-328.4,299
	z M-324.2,306.9c-2.4,0-3.7-0.8-4.8-1.9c0.3,0,0.6,0,0.9,0c0.2,0,0.5,0,0.7,0c0.6,0,1.1-0.1,1.6-0.2c0.4,0.8,1,1.6,2.2,2.1
	C-323.8,306.9-324,306.9-324.2,306.9L-324.2,306.9z M-322.8,300.7h-1.7V299h1.7V300.7L-322.8,300.7z M-322.8,298.8h-1.7v-1.7h1.7
	V298.8L-322.8,298.8z M-320.9,300.7h-1.7V299h1.7V300.7L-320.9,300.7z M-320.9,298.8h-1.7v-1.7h1.7V298.8L-320.9,298.8z
	 M-320.9,296.8h-1.7v-1.7h1.7V296.8z M-318.9,300.7h-1.7V299h1.7L-318.9,300.7L-318.9,300.7z M-324.9,303.6c0,0,0.1,0,0.1,0
	c0,0-0.1,0.1-0.1,0.1c0,0.1,0.1,0.1,0.1,0.1c0,0,0.1,0,0.1-0.1c0,0,0,0.1,0,0.1c0,0.2-0.1,0.3-0.3,0.3c-0.2,0-0.3-0.1-0.3-0.3
	C-325.2,303.8-325.1,303.6-324.9,303.6L-324.9,303.6z"/>
</svg>
