<?xml version="1.0" encoding="utf-8"?>
<!-- Generator: Adobe Illustrator 19.1.0, SVG Export Plug-In . SVG Version: 6.00 Build 0)  -->
<svg version="1.1" id="Layer_1" xmlns="http://www.w3.org/2000/svg" xmlns:xlink="http://www.w3.org/1999/xlink" x="0px" y="0px"
	 viewBox="0 0 59.6 20" style="enable-background:new 0 0 59.6 20;" xml:space="preserve">
<style type="text/css">
	.st0{fill:#FFFFFF;}
</style>
<g id="layer1">
	<g id="g3052">
		<path id="path3059" class="st0" d="M49.5,0.8c-0.3,0-0.5,0.3-0.5,0.6l0,0c0,0.1,0,0.1,0,0.2c0,0.2,0.1,0.4,0.1,0.5
			c0.1,0.4,0.1,0.7,0.1,1c0,0.1-0.1,0.2-0.2,0.3v0.2c-0.3,0.1-0.7,0.1-1,0.2c-1.4,0.3-2.6,1-3.5,2c-0.1-0.1-0.2-0.1-0.2-0.2
			c-0.1,0-0.2,0.1-0.3-0.1c-0.3-0.2-0.5-0.4-0.7-0.7c-0.1-0.1-0.2-0.3-0.4-0.4c-0.1-0.1-0.1-0.1-0.1-0.1c-0.1-0.1-0.3-0.2-0.4-0.2
			c-0.2,0-0.3,0.1-0.4,0.2c-0.2,0.2-0.1,0.6,0.2,0.8l0,0c0.1,0.1,0.1,0.1,0.1,0.1c0.2,0.1,0.3,0.2,0.5,0.3C43,5.8,43.3,6,43.5,6.2
			c0.1,0.1,0.1,0.3,0.1,0.3l0.2,0.2c-0.9,1.4-1.3,3.1-1.1,4.9l-0.2,0.1c-0.1,0.1-0.2,0.2-0.2,0.3c-0.3,0.1-0.6,0.1-1,0.2
			c-0.2,0-0.3,0-0.5,0.1c-0.1,0-0.1,0-0.2,0.1l0,0l0,0c-0.3,0.1-0.5,0.4-0.5,0.7c0.1,0.3,0.4,0.5,0.7,0.4l0,0l0,0
			c0.1,0,0.1,0,0.2-0.1c0.2-0.1,0.3-0.1,0.5-0.2c0.4-0.1,0.7-0.3,0.9-0.3c0.1,0,0.3,0.1,0.3,0.1l0.3-0.1c0.5,1.7,1.7,3.1,3.1,3.9
			l-0.1,0.3C46,17,46,17.1,46,17.2c-0.1,0.3-0.3,0.6-0.5,0.9c-0.1,0.2-0.2,0.3-0.3,0.4c0,0.1-0.1,0.1-0.1,0.2
			c-0.2,0.3-0.1,0.6,0.2,0.8c0.3,0.1,0.6,0,0.7-0.3l0,0l0,0c0-0.1,0.1-0.1,0.1-0.2c0.1-0.2,0.1-0.3,0.2-0.5c0.2-0.4,0.2-0.7,0.4-1
			c0.1-0.1,0.2-0.1,0.2-0.1l0.1-0.2c1.2,0.5,2.6,0.6,4,0.3c0.3-0.1,0.6-0.2,0.9-0.3c0.1,0.1,0.1,0.2,0.1,0.2
			c0.1,0.1,0.2,0.1,0.3,0.2c0.2,0.3,0.3,0.6,0.4,0.9c0.1,0.2,0.1,0.3,0.2,0.5c0,0.1,0.1,0.1,0.1,0.2c0.2,0.3,0.5,0.4,0.7,0.3
			c0.3-0.1,0.4-0.5,0.2-0.8c0-0.1-0.1-0.1-0.1-0.2c-0.1-0.2-0.2-0.3-0.3-0.4c-0.2-0.3-0.4-0.6-0.5-0.9C53,17,53,17,53.1,16.9
			c0,0-0.1-0.2-0.1-0.2c1.5-0.9,2.6-2.3,3.1-3.9c0.1,0,0.2,0.1,0.2,0.1c0.1-0.1,0.2-0.1,0.3-0.1c0.3,0.1,0.6,0.2,0.9,0.3
			c0.2,0.1,0.3,0.2,0.5,0.2c0.1,0,0.1,0,0.2,0.1l0,0l0,0c0.3,0.1,0.6-0.1,0.7-0.4c0.1-0.3-0.2-0.6-0.5-0.7c-0.1,0-0.1-0.1-0.2-0.1
			c-0.2-0.1-0.4-0.1-0.5-0.1c-0.4-0.1-0.7-0.1-1-0.2c-0.1-0.1-0.2-0.2-0.2-0.3v-0.1c0.1-0.8,0.1-1.7-0.1-2.5c-0.2-0.9-0.6-1.7-1-2.3
			c0.1-0.1,0.2-0.2,0.2-0.2c0-0.1,0-0.2,0.1-0.3c0.2-0.2,0.5-0.4,0.8-0.6c0.2-0.1,0.3-0.2,0.5-0.3c0.1,0,0.1-0.1,0.1-0.1
			c0.3-0.2,0.3-0.6,0.2-0.8c-0.2-0.2-0.6-0.3-0.8-0.1c-0.1,0.1-0.1,0.1-0.1,0.1c-0.2,0.1-0.3,0.3-0.4,0.4c-0.3,0.3-0.5,0.5-0.7,0.7
			c-0.1,0.1-0.3,0.1-0.3,0.1l-0.2,0.2c-1.2-1.2-2.8-2-4.5-2.2c0-0.1,0-0.2,0-0.3c-0.1-0.1-0.2-0.1-0.2-0.3c0-0.3,0-0.6,0.1-1
			c0-0.2,0.1-0.3,0.1-0.5c0-0.1,0-0.1,0-0.2C50.1,1.2,49.8,0.8,49.5,0.8L49.5,0.8z M48.9,5l-0.2,2.9l0,0c0,0.3-0.2,0.5-0.5,0.5
			c-0.1,0-0.2-0.1-0.3-0.1l0,0l-2.3-1.7c0.7-0.7,1.6-1.2,2.7-1.5C48.5,5.1,48.7,5.1,48.9,5z M50.2,5c1.2,0.2,2.4,0.7,3.2,1.6
			l-2.3,1.7l0,0c-0.2,0.2-0.5,0.1-0.7-0.1c-0.1-0.1-0.1-0.2-0.1-0.3l0,0L50.2,5z M44.8,7.7l2.1,1.9l0,0c0.2,0.2,0.2,0.5,0.1,0.7
			c-0.1,0.1-0.2,0.2-0.3,0.2l0,0L44,11.2C43.8,9.9,44.1,8.7,44.8,7.7z M54.3,7.7c0.3,0.5,0.6,1.1,0.7,1.7c0.2,0.6,0.2,1.2,0.1,1.8
			l-2.8-0.8l0,0c-0.3-0.1-0.4-0.3-0.4-0.6c0-0.1,0.1-0.2,0.2-0.3l0,0L54.3,7.7L54.3,7.7z M49.1,9.7H50l0.5,0.7l-0.2,0.8l-0.8,0.4
			l-0.8-0.4l-0.2-0.8L49.1,9.7z M51.9,12c0.1,0,0.1,0,0.1,0l0,0l2.8,0.5c-0.4,1.1-1.2,2.2-2.2,2.8l-1.1-2.6l0,0
			c-0.1-0.2,0-0.5,0.2-0.6C51.8,12.1,51.8,12,51.9,12L51.9,12z M47.1,12.1c0.2,0,0.4,0.2,0.5,0.4c0,0.1,0,0.2-0.1,0.3l0,0l-1.1,2.6
			c-1-0.6-1.8-1.6-2.2-2.8l2.8-0.5l0,0C47.1,12.1,47.1,12.1,47.1,12.1L47.1,12.1z M49.5,13.2c0.1,0,0.2,0,0.2,0.1
			c0.1,0.1,0.2,0.1,0.2,0.2l0,0l1.3,2.5c-0.2,0.1-0.4,0.1-0.6,0.2c-1,0.3-2.1,0.2-3.1-0.2l1.3-2.5l0,0
			C49.2,13.3,49.4,13.2,49.5,13.2z"/>
	</g>
</g>
<path class="st0" d="M40,6.5h-2.7c-0.1,0-0.1,0-0.2,0V4.6c0.1,0,0.1,0,0.2,0h0.6c0.9,0,1.6-0.7,1.6-1.6V2.4c0-0.9,0.2-1.6,0.5-1.6
	c0.3,0,0.6,0.6,0.8,1.5L41.2,5C41.3,5.8,40.8,6.6,40,6.5z M35.1,2.7h-4.2h-0.2h-4.3c-0.1,0-0.1,0-0.2,0V2.3c0-0.9-0.2-1.6-0.5-1.6
	S25.2,1.4,25,2.2l-0.5,2.7c-0.2,0.9,0.5,1.5,1.3,1.5h2.7c0.3,0,0.5,0,0.8-0.1c-0.1,0.5-0.5,0.8-0.9,0.8h-3.7c-0.5,0-1-0.5-0.9-1.1
	l0.4-2.3c0.1-0.5-0.4-1.1-0.9-1.1H4.9C4.5,2.6,4.1,2.8,4,3.2L0.7,8.3c-0.1,0.1-0.1,0.2,0,0.3l0.6,0.8c0.1,0.1,0.2,0.1,0.3,0L4,7.6
	v11.1c0,0.5,0.5,0.9,0.9,0.9h5.2c0.5,0,0.9-0.5,0.9-0.9v-3.8c0-0.5,0.5-0.9,0.9-0.9h12.9c0.5,0,0.9,0.5,0.9,0.9v3.8
	c0,0.5,0.5,0.9,0.9,0.9h5.2c0.5,0,0.9-0.5,0.9-0.9v-4.1h-2.7c-0.9,0-1.6-0.6-1.6-1.6v-2.7c0-0.5,0.3-0.9,0.6-1.2v3.2
	c0,0.9,0.6,1.6,1.6,1.6h4.2c0.9,0,1.6-0.6,1.6-1.6V4C36.5,3.5,35.9,2.7,35.1,2.7z"/>
</svg>
