<?xml version="1.0" encoding="utf-8"?>
<!-- Generator: Adobe Illustrator 19.1.0, SVG Export Plug-In . SVG Version: 6.00 Build 0)  -->
<svg version="1.1" id="Layer_1" xmlns="http://www.w3.org/2000/svg" xmlns:xlink="http://www.w3.org/1999/xlink" x="0px" y="0px"
	 viewBox="0 0 37.4 20.3" style="enable-background:new 0 0 37.4 20.3;" xml:space="preserve">
<style type="text/css">
	.st0{fill:#FFFFFF;}
</style>
<g>
	<g id="surface1_1_">
		<path class="st0" d="M28.9,2.8L28.1,1c-0.2-0.6-0.6-1-0.8-1s-0.2,0.6-0.1,1.2l0.1,0.5c0.1,0.6-0.3,1.2-0.9,1.4L26,3.2
			c0,0-0.1,0-0.1,0l0.3,1.4c0,0,0.1,0,0.1,0l1.9-0.4C28.8,4,29.1,3.4,28.9,2.8"/>
		<path class="st0" d="M25.5,3.4C25.1,3.6,25,3.9,25,4.2c0.1,0.3,0.3,0.4,0.7,0.5L25.5,3.4z"/>
		<path class="st0" d="M24,2.2l-3.1,0.7c0,0,0,0-0.1,0l-3.1,0.7c0,0-0.1,0-0.1,0l-0.1-0.3c-0.1-0.6-0.4-1.1-0.6-1.1
			c-0.2,0-0.3,0.6-0.3,1.2l0.1,2c0,0.6,0.6,1,1.2,0.9l1.9-0.4c0.2,0,0.4-0.1,0.5-0.2c0,0.3-0.2,0.6-0.6,0.7l-2.6,0.6
			c-0.4,0.1-0.8-0.2-0.9-0.6l-0.1-1.7c0-0.4-0.4-0.7-0.9-0.6L3.7,7C3.4,7.1,3.2,7.3,3.1,7.6l-2.3,3.8c0,0.1,0,0.2,0.1,0.2L1.5,12
			c0.1,0.1,0.2,0,0.2,0l1.4-1L3,17.6c0.1,0.4,0.5,0.6,0.8,0.5l4.3,0c0.4-0.1,0.6-0.5,0.5-0.8l0-2.3c-0.1-0.4,0.2-0.8,0.5-0.8l9.5-2
			c0.4-0.1,0.8,0.2,0.8,0.5l0.8,2.5c0.1,0.4,0.5,0.6,0.8,0.5l4-0.9c0.4-0.1,0.6-0.5,0.5-0.8l-0.7-2.8l-2.6,0.5
			c-0.6,0.1-1.2-0.3-1.4-0.9l-0.4-1.9c-0.1-0.4,0-0.7,0.2-1l0.5,2.3c0.1,0.6,0.8,1,1.4,0.9l3.1-0.7c0.6-0.1,1-0.8,0.9-1.4l-1.3-5.9
			C25.2,2.5,24.6,2.1,24,2.2"/>
	</g>
	<path class="st0" d="M36.7,15.2C36.7,15.2,36.7,15.2,36.7,15.2C36.7,15.1,36.6,15.1,36.7,15.2c-0.1-0.1-0.1-0.1-0.1-0.1
		c0,0-0.1,0-0.1,0c0,0,0,0,0,0l0,0l0,0l0,0c0,0,0,0,0,0c0,0,0,0-0.1,0c-0.1,0-0.1,0-0.2,0c0,0-0.1,0-0.1,0l0,0c-0.2,0-0.4,0-0.5-0.1
		c0,0-0.1,0-0.1-0.1c0.1-0.5,0.1-1-0.1-1.5c-0.1-0.5-0.3-1-0.6-1.4c0,0,0-0.1,0.1-0.1c0.1-0.1,0.3-0.2,0.4-0.3l0,0c0,0,0.1,0,0.1,0
		c0.1,0,0.1-0.1,0.2-0.1c0,0,0,0,0,0c0,0,0,0,0,0c0,0,0,0,0,0c0,0,0,0,0,0l0,0l0,0c0.1-0.1,0.1-0.1,0.1-0.2c0-0.1,0-0.2-0.1-0.2
		c-0.1-0.1-0.3-0.1-0.5,0l0,0l0,0c0,0,0,0,0,0c0,0,0,0,0,0c0,0,0,0,0,0c0,0,0,0,0,0c-0.1,0-0.1,0.1-0.1,0.1c0,0,0,0-0.1,0.1l0,0
		c-0.1,0.1-0.3,0.3-0.4,0.4c0,0-0.1,0-0.1,0c-0.7-0.8-1.7-1.2-2.7-1.3c0,0,0-0.1,0-0.1c0-0.2,0-0.3,0-0.5l0,0c0,0,0-0.1,0-0.1
		c0-0.1,0-0.1,0-0.2c0,0,0,0,0-0.1c0,0,0,0,0,0c0,0,0,0,0,0l0,0c0-0.1,0-0.2-0.1-0.2c-0.1-0.1-0.1-0.1-0.2-0.1
		c-0.2,0-0.3,0.2-0.3,0.3l0,0v0c0,0,0,0,0,0c0,0,0,0,0,0.1c0,0.1,0,0.1,0,0.2c0,0,0,0.1,0,0.1l0,0c0,0.2,0,0.4,0,0.5
		c0,0,0,0.1,0,0.1c-0.2,0-0.4,0-0.6,0.1l0,0c-0.8,0.2-1.6,0.6-2.1,1.2c0,0-0.1,0-0.1,0c-0.1-0.1-0.3-0.2-0.4-0.4l0,0
		c0,0,0,0-0.1-0.1c0,0-0.1-0.1-0.1-0.1c0,0,0,0,0,0c0,0,0,0,0,0l0,0l0,0c-0.1-0.1-0.3-0.1-0.4,0c-0.1,0.1-0.1,0.1-0.1,0.2
		c0,0.1,0.1,0.2,0.1,0.2c0,0,0,0,0,0c0,0,0,0,0,0c0,0,0,0,0,0c0.1,0,0.1,0.1,0.2,0.1c0,0,0.1,0,0.1,0l0,0c0.2,0.1,0.3,0.2,0.4,0.3
		c0,0,0,0.1,0,0.1c0,0-0.1,0.1-0.1,0.1c-0.5,0.9-0.7,1.8-0.6,2.8c0,0,0,0.1-0.1,0.1c-0.2,0-0.3,0.1-0.5,0.1l0,0c0,0-0.1,0-0.1,0
		c-0.1,0-0.1,0-0.2,0c0,0,0,0-0.1,0c0,0,0,0,0,0l0,0l0,0c-0.2,0-0.3,0.2-0.3,0.4c0,0,0,0,0,0c0,0,0,0,0,0c0,0,0,0.1,0.1,0.1
		c0,0,0,0,0,0c0,0,0,0,0,0c0.1,0,0.1,0,0.2,0c0,0,0.1,0,0.1,0c0,0,0,0,0,0c0,0,0,0,0,0c0,0,0,0,0.1,0c0.1,0,0.1,0,0.2-0.1
		c0,0,0.1,0,0.1,0l0,0c0.2-0.1,0.4-0.1,0.5-0.2c0.1,0,0.1,0,0.1,0c0.3,1,1,1.8,1.9,2.4c0,0,0,0.1,0,0.1c-0.1,0.2-0.2,0.3-0.3,0.5
		l0,0c0,0,0,0.1-0.1,0.1c0,0.1-0.1,0.1-0.1,0.2c0,0,0,0,0,0.1c0,0,0,0,0,0c-0.1,0.2,0,0.4,0.1,0.4c0,0,0.1,0,0.1,0c0,0,0,0,0,0
		c0,0,0,0,0,0c0,0,0,0,0,0c0,0,0,0,0,0c0,0,0,0,0,0c0,0,0,0,0.1,0c0,0,0,0,0-0.1c0,0,0,0,0,0l0,0l0,0c0,0,0,0,0,0c0,0,0,0,0-0.1
		c0-0.1,0-0.1,0.1-0.2c0,0,0-0.1,0-0.1l0,0c0.1-0.2,0.1-0.4,0.2-0.5c0-0.1,0.1-0.1,0.1-0.1c0.5,0.2,1,0.3,1.5,0.3
		c0.3,0,0.6,0,0.9-0.1c0.2,0,0.4-0.1,0.6-0.2c0,0,0,0,0,0c0,0,0,0,0,0c0,0,0,0,0.1,0.1c0.1,0.1,0.1,0.3,0.2,0.5l0,0c0,0,0,0.1,0,0.1
		c0,0.1,0,0.1,0.1,0.2c0,0,0,0,0,0.1c0,0,0,0,0,0h0c0.1,0.1,0.2,0.2,0.3,0.2c0,0,0.1,0,0.1,0c0.2-0.1,0.2-0.3,0.1-0.4l0,0l0,0
		c0,0,0,0,0,0c0,0,0,0,0-0.1c0-0.1-0.1-0.1-0.1-0.2c0,0,0-0.1-0.1-0.1l0,0c-0.1-0.2-0.2-0.3-0.3-0.5c0,0,0-0.1,0-0.1
		c0.6-0.3,1.1-0.8,1.5-1.4c0.2-0.3,0.3-0.7,0.5-1c0,0,0.1,0,0.1,0c0.2,0,0.3,0.1,0.5,0.2l0,0c0,0,0.1,0,0.1,0c0.1,0,0.1,0,0.2,0.1
		c0,0,0,0,0,0c0,0,0,0,0,0v0c0,0,0.1,0,0.1,0c0.1,0,0.1,0,0.2,0c0.1,0,0.1-0.1,0.1-0.2C36.8,15.3,36.8,15.3,36.7,15.2z M28.9,12.7
		l1.1,1c0,0,0,0,0,0l-0.1,0.2l0.1,0.2c0,0,0,0,0,0l-1.4,0.4C28.4,13.9,28.5,13.2,28.9,12.7z M31.7,14.4l-0.3,0.1l-0.3-0.1l-0.1-0.3
		l0.2-0.2h0.3l0.2,0.2L31.7,14.4z M36.3,15C36.3,15,36.3,15,36.3,15C36.3,15,36.3,15,36.3,15z M35.6,14.9c0.1,0,0.1,0,0.2,0
		C35.7,15,35.7,14.9,35.6,14.9z M35.9,15c0,0,0.1,0,0.1,0C36,15,35.9,15,35.9,15z M33,14.1L33,14.1L33,14.1C33,14.1,33,14.1,33,14.1
		l0-0.2l-0.1-0.2c0,0,0,0,0,0l1.1-0.9c0.2,0.3,0.3,0.6,0.4,0.9c0.1,0.3,0.1,0.6,0.1,0.9L33,14.1z M31.6,9.9
		C31.6,9.9,31.6,9.9,31.6,9.9C31.6,9.9,31.6,9.9,31.6,9.9z M27.4,15.4C27.4,15.4,27.4,15.4,27.4,15.4C27.4,15.4,27.4,15.4,27.4,15.4
		z M30.1,15C30.1,15,30.1,15,30.1,15l0.1,0.2l0.2,0.1c0,0,0,0,0,0.1l0,0l-0.5,1.3c-0.5-0.3-0.9-0.8-1.1-1.4L30.1,15z M33.8,18.5
		C33.8,18.5,33.8,18.5,33.8,18.5C33.8,18.5,33.8,18.5,33.8,18.5z M35.7,10.8C35.7,10.8,35.6,10.7,35.7,10.8
		C35.6,10.7,35.7,10.8,35.7,10.8z M35.6,10.7C35.6,10.7,35.5,10.7,35.6,10.7C35.5,10.7,35.6,10.7,35.6,10.7z M35.5,10.7
		C35.5,10.7,35.5,10.7,35.5,10.7C35.5,10.7,35.5,10.7,35.5,10.7C35.5,10.7,35.5,10.7,35.5,10.7z M33.5,12.1l-1.2,0.8c0,0,0,0,0,0
		l-0.1-0.2h-0.2c0,0,0,0,0,0l-0.1-1.4C32.4,11.4,33,11.6,33.5,12.1z M30.7,11.3C30.7,11.3,30.7,11.3,30.7,11.3c0.1,0,0.2,0,0.3,0
		l-0.1,1.4c0,0,0,0,0,0h-0.2l-0.1,0.2c0,0,0,0,0,0l-1.2-0.8C29.7,11.7,30.2,11.4,30.7,11.3z M31.4,17.2c-0.3,0-0.6-0.1-0.9-0.1
		l0.7-1.3c0,0,0,0,0,0l0.2,0.1l0.2-0.1c0,0,0,0,0,0l0.7,1.2c-0.1,0-0.2,0.1-0.2,0.1C31.9,17.1,31.6,17.2,31.4,17.2z M33,16.7
		l-0.6-1.3c0,0,0,0,0,0l0.3-0.1V15l1.4,0.2c-0.1,0.2-0.2,0.4-0.3,0.5C33.7,16.1,33.4,16.4,33,16.7z"/>
</g>
</svg>
