<?xml version="1.0" encoding="UTF-8"?>
<svg xmlns="http://www.w3.org/2000/svg" xmlns:xlink="http://www.w3.org/1999/xlink" width="44px" height="21pt" viewBox="227 24 330 150" version="1.1">
<g id="surface1">
<path style="fill: #0475a8;" d="M 553.601562 60.40625 L 550.085938 39.308594 C 548.957031 32.535156 546.320312 26.992188 544.222656 26.992188 C 542.125 26.992188 540.410156 32.609375 540.410156 39.476562 L 540.410156 44.992188 C 540.410156 51.859375 534.792969 57.476562 527.925781 57.476562 L 522.414062 57.476562 C 522.011719 57.476562 521.617188 57.492188 521.226562 57.515625 L 521.226562 72.683594 C 521.617188 72.703125 522.011719 72.71875 522.414062 72.71875 L 543.167969 72.71875 C 550.035156 72.71875 554.730469 67.179688 553.601562 60.40625 "/>
<path style="fill: #0475a8;" d="M 516.328125 58.453125 C 512.519531 59.765625 509.929688 62.253906 509.929688 65.097656 C 509.929688 67.941406 512.519531 70.433594 516.328125 71.742188 Z "/>
<path style="fill: #0475a8;" d="M 503.84375 42.546875 L 470.1875 42.546875 C 469.90625 42.546875 469.632812 42.570312 469.359375 42.589844 L 434.808594 42.589844 C 434.402344 42.589844 434.007812 42.628906 433.617188 42.691406 L 433.617188 39.476562 C 433.617188 32.609375 431.902344 26.992188 429.808594 26.992188 C 427.710938 26.992188 425.074219 32.535156 423.945312 39.308594 L 420.429688 60.40625 C 419.300781 67.175781 423.996094 72.71875 430.859375 72.71875 L 451.617188 72.71875 C 453.753906 72.71875 455.773438 72.386719 457.535156 71.800781 C 456.875 75.339844 453.777344 78.019531 450.050781 78.019531 L 420.941406 78.019531 C 416.230469 78.019531 412.648438 73.789062 413.421875 69.144531 L 416.371094 51.464844 C 417.144531 46.816406 413.5625 42.589844 408.855469 42.589844 L 263.992188 42.589844 C 260.90625 42.589844 258.253906 44.425781 257.054688 47.066406 L 229.773438 88.566406 C 229.308594 89.269531 229.367188 90.191406 229.910156 90.835938 L 235.203125 97.085938 C 235.867188 97.867188 237.027344 97.984375 237.828125 97.351562 L 256.371094 82.71875 L 256.371094 171.511719 C 256.371094 175.71875 259.78125 179.132812 263.992188 179.132812 L 305.117188 179.132812 C 309.328125 179.132812 312.738281 175.71875 312.738281 171.511719 L 312.738281 140.632812 C 312.738281 136.421875 316.152344 133.011719 320.359375 133.011719 L 423.027344 133.011719 C 427.234375 133.011719 430.648438 136.421875 430.648438 140.632812 L 430.648438 171.511719 C 430.648438 175.71875 434.058594 179.132812 438.269531 179.132812 L 479.394531 179.132812 C 483.601562 179.132812 487.015625 175.71875 487.015625 171.511719 L 487.015625 138.28125 L 465.171875 138.28125 C 458.308594 138.28125 452.691406 132.660156 452.691406 125.796875 L 452.691406 104.425781 C 452.691406 100.359375 454.667969 96.742188 457.703125 94.460938 L 457.703125 119.964844 C 457.703125 126.832031 463.320312 132.449219 470.1875 132.449219 L 503.84375 132.449219 C 510.710938 132.449219 516.328125 126.832031 516.328125 119.964844 L 516.328125 55.03125 C 516.328125 48.164062 510.710938 42.546875 503.84375 42.546875 "/>
</g>
</svg>
