<?xml version="1.0" encoding="utf-8"?>
<!-- Generator: Adobe Illustrator 19.1.0, SVG Export Plug-In . SVG Version: 6.00 Build 0)  -->
<svg version="1.1" id="Layer_1" xmlns="http://www.w3.org/2000/svg" xmlns:xlink="http://www.w3.org/1999/xlink" x="0px" y="0px"
	 viewBox="-369 291 59.6 20" style="enable-background:new -369 291 59.6 20;" xml:space="preserve">
<style type="text/css">
	.st0{fill:#FFFFFF;}
</style>
<path class="st0" d="M-329,297.3h-2.7c-0.1,0-0.1,0-0.2,0v-1.9c0.1,0,0.1,0,0.2,0h0.6c0.9,0,1.6-0.7,1.6-1.6v-0.6
	c0-0.9,0.2-1.6,0.5-1.6s0.6,0.6,0.8,1.5l0.4,2.7C-327.7,296.6-328.2,297.5-329,297.3z M-333.9,293.5h-4.2h-0.2h-4.3
	c-0.1,0-0.1,0-0.2,0v-0.4c0-0.9-0.2-1.6-0.5-1.6s-0.5,0.7-0.7,1.5l-0.5,2.7c-0.2,0.9,0.5,1.5,1.3,1.5h2.7c0.3,0,0.5,0,0.8-0.1
	c-0.1,0.5-0.5,0.8-0.9,0.8h-3.7c-0.5,0-1-0.5-0.9-1.1l0.4-2.3c0.1-0.5-0.4-1.1-0.9-1.1h-18.4c-0.4,0-0.8,0.2-0.9,0.6l-3.3,5.1
	c-0.1,0.1-0.1,0.2,0,0.3l0.6,0.8c0.1,0.1,0.2,0.1,0.3,0l2.4-1.8v11.1c0,0.5,0.5,0.9,0.9,0.9h5.2c0.5,0,0.9-0.5,0.9-0.9v-3.8
	c0-0.5,0.5-0.9,0.9-0.9h12.9c0.5,0,0.9,0.5,0.9,0.9v3.8c0,0.5,0.5,0.9,0.9,0.9h5.2c0.5,0,0.9-0.5,0.9-0.9v-4.1h-2.7
	c-0.9,0-1.6-0.6-1.6-1.6v-2.7c0-0.5,0.3-0.9,0.6-1.2v3.2c0,0.9,0.6,1.6,1.6,1.6h4.2c0.9,0,1.6-0.6,1.6-1.6v-8.3
	C-332.5,294.3-333.1,293.5-333.9,293.5z"/>
<g>
	<path class="st0" d="M-317,302.2c0.1,0.1,0.2,0.1,0.4,0.1c0.4,0,0.9-0.3,0.9-0.8c0-0.2-0.1-0.5-0.2-0.6c-0.1-0.1-0.4-0.2-0.6-0.2
		c-0.2,0-0.3,0.1-0.5,0.1c0,0,0,0,0,0c0.3,0,0.5,0.2,0.5,0.5s-0.2,0.5-0.5,0.5s-0.5-0.2-0.5-0.5c0,0,0,0,0,0c0,0.1-0.1,0.1-0.1,0.2
		C-317.7,301.7-317.5,302.1-317,302.2z"/>
	<path class="st0" d="M-318.8,305.3c-0.3,0-0.5,0.1-0.7,0.2c0,0,0.1,0,0.1,0c0.3,0,0.5,0.2,0.5,0.5c0,0.3-0.2,0.5-0.5,0.5
		c-0.2,0-0.4-0.2-0.5-0.4c0,0.1-0.1,0.1-0.1,0.2c-0.1,0.4,0.2,0.8,0.6,1c0.1,0.1,0.3,0.1,0.4,0.1c0.5,0,1-0.3,1-0.9
		c0-0.3-0.1-0.5-0.2-0.7C-318.3,305.4-318.6,305.3-318.8,305.3z"/>
	<path class="st0" d="M-312.1,304c0,0-0.7-0.6-1.6-0.2c0-0.2,0-0.4-0.1-0.7c0.7-1.1,0.8-2.2,0.8-2.2c0.1-1.2,0-2.5-0.1-2.9
		c0.3-0.2,1.2-0.9,0.7-2.1l0-0.1l-0.1,0c0,0-1,0.1-1.4,0.9c-0.2-0.3-0.5-0.6-1.2-0.8l-0.1,0l0,0.1c0,0-0.3,1.6,1,2.1
		c-0.2,0.2-0.7,0.7-1.4,0.8v-5.8l-4.9-0.5l-3.3,0.4v2.8l-2.7,0.5v2c-1.3,0.1-2.3,0.6-2.6,0.9c-0.3,0.3-0.5,1.4-0.1,2.5
		c0.2,0.5,0.5,1.1,1.2,1.6c-0.4,0.2-0.6,0.6-0.7,1c-0.2,0.7,0.1,1.7,0.8,2.7c0.7,1,1.9,1.6,3.4,1.6c0.3,0,0.6,0,0.8-0.1
		c0.6,0.9,1.6,1.4,2.9,1.5c0.1,0,0.2,0,0.3,0c1.8,0,3.7-0.9,4.8-2.3c0.9-1.1,1.3-1.8,1.5-2.2c0.1-0.2,0.2-0.4,0.3-0.5
		c0.7,0.1,1.6-0.3,1.8-1L-312.1,304L-312.1,304z M-315.6,299.2c1-0.1,1.7-1,1.7-1.1l0.1-0.2l-0.2-0.1c-1-0.3-1-1.3-1-1.7
		c0.9,0.3,1.1,0.9,1.1,1l0.2,1.3l0.1-1.4c0-0.9,0.8-1.1,1.1-1.1c0.4,1.2-0.7,1.7-0.7,1.8l-0.1,0l0,0.1c0,0,0.2,1.6,0.1,2.9
		c0,0-0.5,4.5-5.1,4.1c-0.8-0.1-1.5-0.3-2-0.5c-0.1,0-0.1-0.1-0.2-0.1c-0.1-0.1-0.2-0.2-0.3-0.2c0,0-0.1-0.1-0.1-0.1
		c-0.1-0.1-0.2-0.2-0.3-0.3c0,0,0,0-0.1-0.1c-0.1-0.1-0.2-0.2-0.2-0.3c0,0,0,0-0.1-0.1c0-0.1-0.1-0.1-0.1-0.2
		c-0.1-0.2-0.2-0.4-0.3-0.6c0.3,0.1,0.7,0.2,1.2,0.2c0.9,0,2.1-0.2,3-0.9l-0.2-0.2c-1.6,1-3.8,0.9-4.1,0.6c0,0,0,0,0-0.1
		c0,0,0-0.1,0-0.1c0-0.2,0-0.4,0-0.5c0,0,0,0,0,0c0-0.2,0-0.3,0-0.4c0,0,0,0,0,0c0-0.1,0.1-0.2,0.1-0.3c0,0,0,0,0,0
		c0,0,0-0.1,0.1-0.1l0.6,0.1l0,0L-315.6,299.2L-315.6,299.2z M-314.8,304.6c-0.1,0-0.3,0.1-0.5,0.1c0.1-0.1,0.3-0.2,0.4-0.3
		C-314.9,304.5-314.8,304.6-314.8,304.6z M-322.3,301.7c-1.5,0.7-3.2,0.5-3.5,0.2c0,0,0-0.1,0-0.1c0,0,0-0.1,0-0.1
		c-0.1-0.6,0-1.1,0.1-1.4c0,0,0,0,0,0c0,0,0.1-0.1,0.1-0.1c0.1-0.1,0.3-0.2,1-0.3l2.5,0.6c0,0,0,0,0,0.1c0,0,0,0,0,0.1
		c0,0.1-0.1,0.2-0.1,0.4c0,0,0,0,0,0.1c0,0.1,0,0.3,0,0.4c0,0,0,0.1,0,0.1C-322.3,301.6-322.3,301.7-322.3,301.7z M-324.5,302.5
		c0.7,0,1.5-0.1,2.3-0.4c0,0,0,0,0,0c0,0,0,0,0,0c0,0.1,0,0.2,0,0.2c0,0,0,0.1,0,0.1c0,0.1,0,0.1,0.1,0.2c0,0,0,0,0,0.1
		c0,0,0,0.1,0.1,0.2c0,0,0,0.1,0.1,0.1c0,0.1,0.1,0.1,0.1,0.2c0,0.1,0.1,0.1,0.1,0.2c0,0,0.1,0.1,0.1,0.1c0.1,0.1,0.1,0.2,0.2,0.3
		c0,0,0.1,0.1,0.1,0.1c0.1,0.1,0.2,0.2,0.3,0.3c0,0,0.1,0.1,0.1,0.1c0.1,0.1,0.2,0.2,0.3,0.2c0,0,0.1,0.1,0.1,0.1c0,0,0,0,0,0
		c-0.1,0-0.2,0.1-0.4,0.1c-0.1,0-0.2,0-0.3,0c-0.3,0-0.6,0-1,0c-0.2,0-0.5-0.1-0.7-0.1c-0.1,0-0.2,0-0.3-0.1c-0.1,0-0.2-0.1-0.3-0.1
		c-0.1,0-0.3-0.1-0.4-0.2c0,0-0.1,0-0.1-0.1c-0.1-0.1-0.2-0.1-0.3-0.2l-0.1-0.1c-0.7-0.5-1.1-1.2-1.3-1.7
		C-325.4,302.4-325,302.5-324.5,302.5z M-321.1,300.4v-3l2.5-0.4v2.9L-321.1,300.4z M-318.3,299.7v-2.8l2.5-0.4v2.7L-318.3,299.7z
		 M-315.9,296.2l-2.5,0.4v-2.8l2.5-0.4V296.2z M-320.5,292.9l3.8,0.4l-1.7,0.3l-4-0.4L-320.5,292.9z M-323.5,293.3l4.9,0.5v2.8
		l-4.9-0.8V293.3z M-323.7,296.1l4.4,0.7l-1.9,0.3l-4.4-0.7L-323.7,296.1z M-326.3,296.6l4.9,0.7v3.1l-4.9-1.1V296.6z M-329.1,301.1
		c-0.1-0.8,0-1.4,0.2-1.6c0.2-0.2,1-0.7,2.4-0.9v0.9l1.2,0.3c-0.3,0.1-0.4,0.2-0.5,0.3l0,0c0,0,0,0,0,0c0,0,0,0,0,0
		c0,0-0.1,0.1-0.1,0.2c0,0.1-0.1,0.1-0.1,0.2c0,0,0,0,0,0.1c-0.1,0.2-0.1,0.4-0.1,0.6C-327.5,301.5-328.9,301.4-329.1,301.1
		L-329.1,301.1z M-329,301.7c0-0.1-0.1-0.2-0.1-0.3c0.3,0.1,0.7,0.2,1.2,0.2c0.5,0,1.1-0.1,1.7-0.3c0,0,0,0,0,0.1c0,0,0,0.1,0,0.1
		c0,0.1,0,0.1,0,0.2c0,0.1,0,0.1,0,0.2c0,0,0,0.1,0,0.1c0,0.2,0.1,0.4,0.2,0.6c0.1,0.4,0.4,0.9,1,1.4c-0.2,0-0.3,0-0.5,0
		c-0.3,0-0.5-0.1-0.7-0.1c-0.1,0-0.2,0-0.3-0.1c-0.1,0-0.2-0.1-0.3-0.1c-0.1,0-0.2-0.1-0.3-0.1c-0.1,0-0.1-0.1-0.2-0.1
		c-0.1-0.1-0.2-0.1-0.3-0.2C-328.4,302.9-328.8,302.3-329,301.7z M-328.4,305.5c-0.1-0.4-0.1-0.7,0-1c0.1-0.5,0.5-0.8,0.7-0.9
		c0,0,0,0,0.1,0c0,0,0.1,0,0.1,0.1c0.1,0.1,0.3,0.1,0.4,0.2c0.1,0,0.1,0,0.2,0.1c0.2,0.1,0.3,0.1,0.5,0.1c0.1,0,0.1,0,0.2,0.1
		c0.3,0.1,0.5,0.1,0.8,0.1c0.2,0,0.3,0,0.5,0c0.1,0,0.2,0,0.3,0c0,0,0,0,0,0c0,0,0.1,0,0.1,0c0.2,0.1,0.4,0.3,0.7,0.4
		c-0.2,0.1-0.4,0.2-0.5,0.4C-325.8,306.1-328,305.9-328.4,305.5L-328.4,305.5z M-327.7,307c-0.3-0.4-0.4-0.7-0.6-1.1
		c0.3,0.1,0.8,0.2,1.3,0.2c0.8,0,1.7-0.2,2.5-0.6c0,0.1,0,0.1-0.1,0.2c0,0,0,0,0,0c0,0,0,0.1,0,0.1c0,0.1,0,0.1,0,0.2
		c-0.1,0.5,0.1,1.1,0.4,1.7c0.1,0.2,0.2,0.4,0.3,0.6C-325.6,308.6-327,308-327.7,307z M-313.9,304.9L-313.9,304.9l-0.1,0
		c-0.2,0.1-0.3,0.3-0.4,0.6c-0.2,0.4-0.6,1-1.5,2.1c-1.1,1.4-3,2.3-4.9,2.2c-1.1-0.1-2.1-0.5-2.6-1.2l0,0l-0.2-0.2c0,0,0,0-0.1-0.1
		c-0.1-0.2-0.2-0.4-0.3-0.6c-0.1-0.1-0.1-0.2-0.2-0.4c0.3,0.1,0.6,0.2,1.1,0.2c0.9,0,2.1-0.3,3.1-0.9l-0.2-0.2
		c-1.6,1.1-3.7,1-4.1,0.6l0,0c-0.1-0.4-0.1-0.7-0.1-0.9c0,0,0-0.1,0-0.1c0,0,0-0.1,0-0.1c0.1-0.5,0.5-0.8,0.8-1c0,0,0.1,0,0.1-0.1
		c0.1,0,0.1,0,0.2,0c0.1,0,0.2,0,0.2,0.1c0.2,0.1,0.5,0.1,0.8,0.1c0.2,0,0.4,0,0.5,0c0.1,0,0.2,0,0.4,0c0.1,0,0.2,0,0.3,0
		c0.3,0,0.6-0.1,0.9-0.2c0.5,0.2,1.1,0.4,1.8,0.4c0.2,0,0.4,0,0.5,0c0.8,0,1.5-0.2,2.1-0.4c0.1,0,0.3,0.1,0.4,0.1
		c0.4,0,0.8-0.2,0.8-0.2l0.2-0.1l-0.1-0.1c0,0-0.1-0.1-0.2-0.3c0.3-0.3,0.5-0.5,0.8-0.8c0.1,0.4-0.1,0.7-0.1,0.7l0.2,0.2
		c0.7-0.6,1.3-0.3,1.5-0.2C-312.6,304.7-313.3,305-313.9,304.9z"/>
</g>
</svg>
