<?xml version="1.0" encoding="utf-8"?>
<!-- Generator: Adobe Illustrator 19.2.1, SVG Export Plug-In . SVG Version: 6.00 Build 0)  -->
<svg version="1.1" id="Layer_1" xmlns="http://www.w3.org/2000/svg" xmlns:xlink="http://www.w3.org/1999/xlink" x="0px" y="0px"
	 viewBox="0 0 100 100" style="enable-background:new 0 0 100 100;" xml:space="preserve">
<style type="text/css">
	.st0{fill:#0075A8;}
</style>
<g>
	<g>
		<path class="st0" d="M94.7,37.5l-1-6.2c-0.3-2-1.1-3.6-1.7-3.6c-0.6,0-1.1,1.7-1.1,3.6V33c0,2-1.7,3.6-3.6,3.6h-1.6
			c-0.1,0-0.2,0-0.3,0v4.4c0.1,0,0.2,0,0.3,0h6.1C93.7,41.1,95,39.5,94.7,37.5"/>
		<path class="st0" d="M80.2,32.3h-9.8c-0.1,0-0.2,0-0.2,0H60c-0.1,0-0.2,0-0.3,0v-1c0-2-0.5-3.6-1.1-3.6s-1.4,1.6-1.7,3.6l-1,6.2
			c-0.3,2,1,3.6,3.1,3.6h6.1c0.6,0,1.2-0.1,1.7-0.2c-0.2,1-1.1,1.8-2.2,1.8h-8.5c-1.4,0-2.4-1.2-2.2-2.6l0.9-5.2
			c0.2-1.4-0.8-2.6-2.2-2.6H10.1c-0.9,0-1.7,0.5-2,1.3l-8,12.1C0,46,0,46.2,0.1,46.4l1.5,1.8c0.2,0.2,0.5,0.2,0.8,0.1l5.4-4.3V70
			c0,1.2,1,2.2,2.2,2.2h12c1.2,0,2.2-1,2.2-2.2v-9c0-1.2,1-2.2,2.2-2.2h30c1.2,0,2.2,1,2.2,2.2v9c0,1.2,1,2.2,2.2,2.2h12
			c1.2,0,2.2-1,2.2-2.2v-9.7H69c-2,0-3.6-1.7-3.6-3.6v-6.3c0-1.2,0.6-2.2,1.5-2.9V55c0,2,1.7,3.6,3.6,3.6h9.8c2,0,3.6-1.7,3.6-3.6
			V36C83.8,33.9,82.2,32.3,80.2,32.3"/>
	</g>
	<g>
		<path class="st0" d="M95.4,30.1c0-1.6,1.2-2.3,2.3-2.3s2.3,0.7,2.3,2.3c0,1.6-1.2,2.3-2.3,2.3S95.4,31.6,95.4,30.1z M99.5,30.1
			c0-1.3-0.8-1.8-1.7-1.8s-1.8,0.5-1.8,1.8c0,1.2,0.9,1.8,1.8,1.8C98.6,31.8,99.5,31.3,99.5,30.1z M96.9,28.9h0.8
			c0.4,0,0.8,0.1,0.8,0.7c0,0.3-0.2,0.5-0.5,0.6l0.5,1h-0.5l-0.5-0.9h-0.2v0.9h-0.5V28.9L96.9,28.9z M97.8,29.9
			c0.2,0,0.4-0.1,0.4-0.3c0-0.2-0.2-0.3-0.4-0.3h-0.4v0.6H97.8z"/>
	</g>
</g>
</svg>
