<?xml version="1.0" encoding="utf-8"?>
<!-- Generator: Adobe Illustrator 19.1.0, SVG Export Plug-In . SVG Version: 6.00 Build 0)  -->
<svg version="1.1" xmlns="http://www.w3.org/2000/svg" xmlns:xlink="http://www.w3.org/1999/xlink" x="0px" y="0px"
	 viewBox="0 0 100 100" style="enable-background:new 0 0 100 100;" xml:space="preserve">
<style type="text/css">
	.st0{fill:#95A5A6;}
	.st1{fill:#0075A8;}
	.st2{fill:#0EB7ED;}
	.st3{fill:#D3EDF1;}
	.st4{fill:none;stroke:#000000;stroke-width:0.5;stroke-miterlimit:10;}
	.st5{fill:none;}
	.st6{fill:#394D54;}
	.st7{fill:#39B7E1;}
	.st8{fill:#FFFFFF;}
	.st9{fill:#336EE5;}
	.st10{fill:none;stroke:#FFFFFF;stroke-width:0.2744;}
	.st11{fill:#373535;}
	.st12{fill:#0074AA;}
	.st13{fill:#00C8FA;}
	.st14{fill:#00A9D2;}
	.st15{opacity:0.5;fill:#0EB7ED;}
</style>
<g id="Layer_2">
</g>
<g id="Layer_1">
	<rect x="9" y="42" class="st0" width="2" height="20"/>
	<g>
		<path class="st1" d="M73.5,39.4l-0.5-2.8c-0.1-0.9-0.5-1.6-0.8-1.6s-0.5,0.7-0.5,1.6v0.7c0,0.9-0.7,1.6-1.6,1.6h-0.7
			c-0.1,0-0.1,0-0.2,0v2c0.1,0,0.1,0,0.2,0h2.7C73,41,73.7,40.3,73.5,39.4"/>
		<path class="st1" d="M67,37.1h-4.4c0,0-0.1,0-0.1,0h-4.5c-0.1,0-0.1,0-0.2,0v-0.4c0-0.9-0.2-1.6-0.5-1.6s-0.6,0.7-0.8,1.6L56,39.4
			c-0.1,0.9,0.5,1.6,1.4,1.6h2.7c0.3,0,0.5,0,0.8-0.1c-0.1,0.5-0.5,0.8-1,0.8h-3.8c-0.6,0-1.1-0.6-1-1.2l0.4-2.3
			c0.1-0.6-0.4-1.2-1-1.2h-19c-0.4,0-0.8,0.2-0.9,0.6L31,43.1c-0.1,0.1-0.1,0.2,0,0.3l0.7,0.8c0.1,0.1,0.2,0.1,0.3,0l2.4-1.9V54
			c0,0.6,0.4,1,1,1h5.4c0.6,0,1-0.4,1-1v-4.1c0-0.6,0.4-1,1-1h13.5c0.6,0,1,0.4,1,1V54c0,0.6,0.4,1,1,1h5.4c0.6,0,1-0.4,1-1v-4.4
			h-2.9c-0.9,0-1.6-0.7-1.6-1.6v-2.8c0-0.5,0.3-1,0.7-1.3v3.3c0,0.9,0.7,1.6,1.6,1.6H67c0.9,0,1.6-0.7,1.6-1.6v-8.5
			C68.6,37.8,67.9,37.1,67,37.1"/>
	</g>
	<g>
		<path class="st1" d="M84.8,20.5l-0.3-1.9c-0.1-0.6-0.3-1.1-0.5-1.1c-0.2,0-0.4,0.5-0.4,1.1v0.5c0,0.6-0.5,1.1-1.1,1.1H82
			c0,0-0.1,0-0.1,0v1.4c0,0,0.1,0,0.1,0h1.9C84.5,21.6,84.9,21.1,84.8,20.5"/>
		<path class="st1" d="M80.3,18.8h-3.1c0,0-0.1,0-0.1,0h-3.2c0,0-0.1,0-0.1,0v-0.3c0-0.6-0.2-1.1-0.4-1.1s-0.4,0.5-0.5,1.1l-0.3,1.9
			c-0.1,0.6,0.3,1.1,1,1.1h1.9c0.2,0,0.4,0,0.5-0.1c-0.1,0.3-0.3,0.6-0.7,0.6h-2.7c-0.4,0-0.8-0.4-0.7-0.8l0.3-1.6
			c0.1-0.4-0.3-0.8-0.7-0.8H58.2c-0.3,0-0.5,0.2-0.6,0.4L55,23.1c0,0.1,0,0.1,0,0.2l0.5,0.6c0.1,0.1,0.2,0.1,0.2,0l1.7-1.3v8.2
			c0,0.4,0.3,0.7,0.7,0.7H62c0.4,0,0.7-0.3,0.7-0.7v-2.8c0-0.4,0.3-0.7,0.7-0.7h9.5c0.4,0,0.7,0.3,0.7,0.7v2.8
			c0,0.4,0.3,0.7,0.7,0.7H78c0.4,0,0.7-0.3,0.7-0.7v-3.1h-2c-0.6,0-1.1-0.5-1.1-1.1v-2c0-0.4,0.2-0.7,0.5-0.9V26
			c0,0.6,0.5,1.1,1.1,1.1h3.1c0.6,0,1.1-0.5,1.1-1.1v-6C81.4,19.4,80.9,18.8,80.3,18.8"/>
	</g>
	<g>
		<path class="st1" d="M48,13.6l-0.3-1.8c-0.1-0.6-0.3-1-0.5-1c-0.2,0-0.3,0.5-0.3,1v0.5c0,0.6-0.5,1-1,1h-0.5c0,0-0.1,0-0.1,0v1.3
			c0,0,0.1,0,0.1,0h1.7C47.7,14.7,48.1,14.2,48,13.6"/>
		<path class="st1" d="M43.8,12.1H41c0,0,0,0-0.1,0h-2.9c0,0-0.1,0-0.1,0v-0.3c0-0.6-0.1-1-0.3-1s-0.4,0.5-0.5,1l-0.3,1.8
			c-0.1,0.6,0.3,1,0.9,1h1.7c0.2,0,0.3,0,0.5-0.1c-0.1,0.3-0.3,0.5-0.6,0.5h-2.4c-0.4,0-0.7-0.4-0.6-0.7l0.2-1.5
			c0.1-0.4-0.2-0.7-0.6-0.7H23.9c-0.3,0-0.5,0.2-0.6,0.4L21,16c0,0.1,0,0.1,0,0.2l0.4,0.5c0.1,0.1,0.2,0.1,0.2,0l1.5-1.2v7.4
			c0,0.4,0.3,0.6,0.6,0.6h3.4c0.4,0,0.6-0.3,0.6-0.6v-2.6c0-0.4,0.3-0.6,0.6-0.6h8.5c0.4,0,0.6,0.3,0.6,0.6v2.6
			c0,0.4,0.3,0.6,0.6,0.6h3.4c0.4,0,0.6-0.3,0.6-0.6v-2.8h-1.8c-0.6,0-1-0.5-1-1v-1.8c0-0.3,0.2-0.6,0.4-0.8v2.1c0,0.6,0.5,1,1,1
			h2.8c0.6,0,1-0.5,1-1v-5.4C44.9,12.6,44.4,12.1,43.8,12.1"/>
	</g>
	<rect x="33" y="50" class="st0" width="34" height="3"/>
	<rect x="33" y="56" class="st0" width="34" height="3"/>
	<rect x="33" y="62" class="st0" width="34" height="3"/>
	<rect x="32" y="48" class="st0" width="2" height="20"/>
	<rect x="49" y="48" class="st0" width="2" height="20"/>
	<rect x="66" y="48" class="st0" width="2" height="20"/>
	<polygon class="st0" points="10,46.4 32,53 32,49.9 10,43.3 	"/>
	<polygon class="st0" points="10,52.6 32,59.1 32,56.1 10,49.5 	"/>
	<polygon class="st0" points="10,58.8 32,65.3 32,62.3 10,55.7 	"/>
	<rect x="19" y="45" class="st0" width="2" height="20"/>
	<polygon class="st0" points="90,46.4 68,53 68,50 90,43.4 	"/>
	<polygon class="st0" points="90,52.6 68,59.2 68,56.2 90,49.6 	"/>
	<polygon class="st0" points="89.5,58.8 67.5,65.4 67.5,62.3 89.5,55.8 	"/>
	<rect x="79" y="45" class="st0" width="2" height="20"/>
	<rect x="89" y="42" class="st0" width="2" height="20"/>
	<g>
		<path class="st6" d="M34.4,87.4c0.1,0,0.3,0.1,0.4,0.2l1.1,1.2c-0.6,0.7-1.3,1.3-2.2,1.7S31.8,91,30.6,91c-1.1,0-2-0.2-2.9-0.5
			c-0.9-0.4-1.6-0.9-2.2-1.5c-0.6-0.7-1.1-1.4-1.4-2.3c-0.3-0.9-0.5-1.9-0.5-3c0-1.1,0.2-2.1,0.5-3s0.8-1.7,1.5-2.3s1.4-1.2,2.3-1.5
			s1.8-0.5,2.9-0.5c1.1,0,2,0.2,2.8,0.5s1.5,0.8,2.1,1.4l-0.9,1.2c-0.1,0.1-0.1,0.2-0.2,0.2c-0.1,0.1-0.2,0.1-0.3,0.1
			c-0.1,0-0.2,0-0.3-0.1s-0.2-0.1-0.3-0.2c-0.1-0.1-0.3-0.2-0.4-0.3c-0.2-0.1-0.4-0.2-0.6-0.3c-0.2-0.1-0.5-0.2-0.8-0.2
			s-0.6-0.1-1-0.1c-0.6,0-1.2,0.1-1.8,0.3c-0.5,0.2-1,0.6-1.4,1c-0.4,0.4-0.7,1-0.9,1.6c-0.2,0.6-0.3,1.3-0.3,2.2
			c0,0.8,0.1,1.5,0.3,2.2c0.2,0.6,0.5,1.2,0.9,1.6s0.9,0.8,1.4,1c0.5,0.2,1.1,0.3,1.7,0.3c0.4,0,0.7,0,1-0.1c0.3,0,0.6-0.1,0.8-0.2
			s0.5-0.2,0.7-0.3c0.2-0.1,0.4-0.3,0.7-0.5c0.1-0.1,0.1-0.1,0.2-0.1C34.2,87.5,34.3,87.4,34.4,87.4z"/>
		<path class="st6" d="M41.6,80.4c0.8,0,1.5,0.1,2.1,0.4c0.6,0.2,1.2,0.6,1.6,1s0.8,1,1,1.7s0.4,1.4,0.4,2.2c0,0.8-0.1,1.5-0.4,2.2
			s-0.6,1.2-1,1.7s-1,0.8-1.6,1.1c-0.6,0.2-1.3,0.4-2.1,0.4c-0.8,0-1.5-0.1-2.1-0.4c-0.6-0.2-1.2-0.6-1.6-1.1c-0.4-0.5-0.8-1-1-1.7
			s-0.4-1.4-0.4-2.2c0-0.8,0.1-1.5,0.4-2.2s0.6-1.2,1-1.7c0.4-0.5,1-0.8,1.6-1C40.2,80.6,40.9,80.4,41.6,80.4z M41.6,89.1
			c0.9,0,1.5-0.3,1.9-0.9c0.4-0.6,0.6-1.4,0.6-2.5s-0.2-2-0.6-2.5s-1-0.9-1.9-0.9c-0.9,0-1.5,0.3-1.9,0.9c-0.4,0.6-0.6,1.4-0.6,2.5
			c0,1.1,0.2,1.9,0.6,2.5C40.1,88.8,40.8,89.1,41.6,89.1z"/>
		<path class="st6" d="M50.9,82.4c0.3-0.6,0.7-1.1,1.1-1.4c0.4-0.4,1-0.5,1.6-0.5c0.5,0,0.9,0.1,1.1,0.3l-0.2,1.8
			c0,0.1-0.1,0.2-0.1,0.3s-0.1,0.1-0.3,0.1c-0.1,0-0.2,0-0.4,0c-0.2,0-0.4,0-0.6,0c-0.3,0-0.5,0-0.7,0.1c-0.2,0.1-0.4,0.2-0.6,0.3
			c-0.2,0.1-0.3,0.3-0.5,0.5c-0.1,0.2-0.3,0.5-0.4,0.7v6.3h-2.5V80.6H50c0.3,0,0.4,0,0.5,0.1c0.1,0.1,0.2,0.3,0.2,0.5L50.9,82.4z"/>
		<path class="st6" d="M58.4,82.4c0.3-0.6,0.7-1.1,1.1-1.4c0.4-0.4,1-0.5,1.6-0.5c0.5,0,0.9,0.1,1.1,0.3l-0.2,1.8
			c0,0.1-0.1,0.2-0.1,0.3s-0.1,0.1-0.3,0.1c-0.1,0-0.2,0-0.4,0c-0.2,0-0.4,0-0.6,0c-0.3,0-0.5,0-0.7,0.1c-0.2,0.1-0.4,0.2-0.6,0.3
			c-0.2,0.1-0.3,0.3-0.5,0.5c-0.1,0.2-0.3,0.5-0.4,0.7v6.3H56V80.6h1.5c0.3,0,0.4,0,0.5,0.1c0.1,0.1,0.2,0.3,0.2,0.5L58.4,82.4z"/>
		<path class="st6" d="M63.1,82c1.2-1.1,2.6-1.6,4.3-1.6c0.6,0,1.1,0.1,1.6,0.3c0.5,0.2,0.9,0.5,1.2,0.8c0.3,0.3,0.6,0.8,0.7,1.3
			s0.3,1,0.3,1.6v6.5h-1.1c-0.2,0-0.4,0-0.5-0.1c-0.1-0.1-0.2-0.2-0.3-0.4L69,89.6c-0.3,0.2-0.5,0.4-0.8,0.6
			c-0.2,0.2-0.5,0.3-0.8,0.4s-0.6,0.2-0.9,0.3C66.3,91,66,91,65.6,91c-0.4,0-0.8-0.1-1.2-0.2c-0.4-0.1-0.7-0.3-1-0.5
			s-0.5-0.5-0.6-0.9s-0.2-0.8-0.2-1.2c0-0.3,0-0.5,0.1-0.8c0.1-0.3,0.2-0.5,0.4-0.7s0.5-0.5,0.8-0.7c0.3-0.2,0.7-0.4,1.2-0.5
			s1-0.3,1.6-0.4C67.3,85,68,85,68.8,85v-0.6c0-0.7-0.1-1.2-0.4-1.5c-0.3-0.3-0.7-0.5-1.3-0.5c-0.4,0-0.7,0-1,0.1
			c-0.3,0.1-0.5,0.2-0.7,0.3S65,83,64.9,83.1c-0.2,0.1-0.3,0.1-0.5,0.1c-0.2,0-0.3,0-0.4-0.1c-0.1-0.1-0.2-0.2-0.3-0.3L63.1,82z
			 M68.8,86.5c-0.7,0-1.3,0.1-1.8,0.2s-0.9,0.2-1.2,0.3c-0.3,0.1-0.5,0.3-0.6,0.5c-0.1,0.2-0.2,0.4-0.2,0.6c0,0.4,0.1,0.7,0.4,0.9
			c0.3,0.2,0.6,0.3,1,0.3c0.5,0,0.9-0.1,1.3-0.3c0.4-0.2,0.7-0.5,1.1-0.8V86.5z"/>
		<path class="st6" d="M76,76v14.9h-2.5V76H76z"/>
	</g>
</g>
<g id="Layer_3">
</g>
</svg>
