<?xml version="1.0" encoding="utf-8"?>
<!-- Generator: Adobe Illustrator 19.1.0, SVG Export Plug-In . SVG Version: 6.00 Build 0)  -->
<svg version="1.1" id="Layer_1" xmlns="http://www.w3.org/2000/svg" xmlns:xlink="http://www.w3.org/1999/xlink" x="0px" y="0px"
	 viewBox="-349 251 100 100" style="enable-background:new -349 251 100 100;" xml:space="preserve">
<style type="text/css">
	.st0{fill:#2980B9;}
	.st1{fill:#DDEBF4;}
	.st2{fill:none;stroke:#2980B9;stroke-width:1.2876;stroke-miterlimit:10;}
	.st3{fill:#666666;}
</style>
<g>
	<path class="st0" d="M-298.6,309.1c0.2,0,0.6-1.3,1.1-2.8l4.1-14.9c0.5-1.5,0.6-2.8,0.5-2.8c-0.2,0-0.6,1.3-1.1,2.8l-4.1,14.9
		C-298.5,307.8-298.7,309.1-298.6,309.1L-298.6,309.1z"/>
	<path class="st0" d="M-297.6,309.1c0.2,0,1-1.2,1.8-2.6l8.9-15.5c0.8-1.4,1.3-2.6,1.1-2.6c-0.2,0-1,1.2-1.8,2.6l-8.9,15.5
		C-297.3,307.9-297.8,309.1-297.6,309.1L-297.6,309.1z"/>
	<path class="st0" d="M-299.6,309.1c0.2,0,0-1.3-0.5-2.8l-4-14.9c-0.5-1.5-0.9-2.8-1.1-2.8c-0.2,0,0,1.3,0.5,2.8l4.1,14.9
		C-300.3,307.8-299.8,309.1-299.6,309.1L-299.6,309.1z"/>
	<path class="st0" d="M-300.6,309.1c0.2,0-0.3-1.2-1.1-2.6l-8.9-15.5c-0.8-1.4-1.6-2.6-1.8-2.6c-0.2,0,0.3,1.2,1.1,2.6l8.9,15.5
		C-301.6,307.9-300.8,309.1-300.6,309.1L-300.6,309.1z"/>
	<path class="st0" d="M-289,310.9c-0.3,0.1-0.5,0.3-0.5,0.5c0,0.3,0.2,0.5,0.5,0.5V310.9L-289,310.9z"/>
	<g>
		<path class="st1" d="M-316.5,288.4c-2.9,0-5.3-2.4-5.3-5.3s2.3-5.2,5.2-5.3c-0.1-0.6-0.3-1.2-0.3-1.9c0-4.2,3.4-7.6,7.6-7.6
			c0.7,0,1.4,0.1,2.1,0.3c1.9-3.7,5.7-6,9.8-6c5.4,0,10.1,4.1,10.9,9.3c0.6-0.1,1.3-0.3,1.9-0.3c4.6,0,8.3,3.7,8.3,8.3
			c0,4.6-3.7,8.3-8.3,8.3L-316.5,288.4L-316.5,288.4z"/>
		<path class="st0" d="M-297.4,263.3c5.5,0,9.9,4.2,10.4,9.5c0.8-0.3,1.6-0.5,2.5-0.5c4.2,0,7.7,3.4,7.7,7.7s-3.4,7.7-7.7,7.7h-32
			c-2.6,0-4.6-2.1-4.6-4.6s2.1-4.6,4.6-4.6c0.3,0,0.6,0,0.8,0.1c-0.3-0.8-0.5-1.7-0.5-2.6c0-3.9,3.1-7,7-7c0.8,0,1.6,0.1,2.4,0.4
			C-305.2,265.8-301.6,263.3-297.4,263.3 M-297.4,262c-4.2,0-8.1,2.3-10.2,5.9c-0.6-0.1-1.2-0.2-1.7-0.2c-4.6,0-8.2,3.7-8.2,8.2
			c0,0.5,0.1,0.8,0.1,1.3c-2.8,0.5-5,2.9-5,5.9c0,3.3,2.6,5.9,5.9,5.9h32c5,0,8.9-4,8.9-8.9c0-5-4-8.9-8.9-8.9c-0.5,0-1,0.1-1.4,0.1
			C-287.1,266-291.9,262-297.4,262L-297.4,262z"/>
	</g>
	<g>
		<path class="st1" d="M-295.3,321.2c-0.7,0-1.3-0.6-1.3-1.3v-2.5h-8.2v2.4c0,0.7-0.6,1.3-1.3,1.3h-3.2c-0.7,0-1.3-0.6-1.3-1.3v-5.8
			l-0.4,0.5c-0.1,0.1-0.3,0.2-0.5,0.2c-0.3,0-0.5-0.1-0.6-0.3l-0.5-0.5c-0.3-0.3-0.3-0.6-0.1-1l2.2-3.3c0.2-0.4,0.6-0.7,1.1-0.7
			h11.7c0.2,0,0.4,0.1,0.6,0.1c0.1-0.5,0.4-1.4,1.1-1.4c0.5,0,0.8,0.5,0.9,1.2h2.3h0.1h2.8c0.8,0,1.4,0.5,1.6,1.2h0.3
			c0.2,0,0.4-0.2,0.4-0.4v-0.4c0-1,0.4-1.7,1-1.7c0.8,0,1,1.1,1.1,1.5l0.3,1.7c0.1,0.5-0.1,0.9-0.3,1.2c-0.3,0.3-0.7,0.5-1.2,0.5
			h-1.5v3.2c0,0.9-0.7,1.7-1.7,1.7h-0.7v2.5c0,0.7-0.6,1.3-1.3,1.3L-295.3,321.2L-295.3,321.2z"/>
		<path class="st0" d="M-286.8,308.4c0.2,0,0.4,0.5,0.5,1l0.3,1.7c0.1,0.5-0.3,1-0.8,1h-1.7h-0.1v-1.2h0.1h0.5c0.6,0,1-0.5,1-1v-0.3
			C-287.1,308.8-286.9,308.4-286.8,308.4 M-296,308.4c0.2,0,0.3,0.5,0.3,1v0.3h0.1h2.8h0.1h2.8c0.6,0,1,0.5,1,1v5.2c0,0.6-0.5,1-1,1
			h-2.7c-0.6,0-1-0.5-1-1v-2.1c-0.3,0.2-0.4,0.5-0.4,0.8v1.7c0,0.6,0.5,1,1,1h1.7v2.6c0,0.3-0.3,0.6-0.6,0.6h-3.3
			c-0.3,0-0.6-0.3-0.6-0.6v-2.5c0-0.3-0.3-0.6-0.6-0.6h-8.2c-0.3,0-0.6,0.3-0.6,0.6v2.5c0,0.3-0.3,0.6-0.6,0.6h-3.3
			c-0.3,0-0.6-0.3-0.6-0.6v-7.1l-1.5,1.2l-0.1,0.1c-0.1,0-0.1,0-0.1-0.1l-0.5-0.5c-0.1-0.1-0.1-0.1,0-0.2l2.2-3.3
			c0.1-0.2,0.3-0.4,0.6-0.4h11.7c0.4,0,0.6,0.3,0.6,0.7l-0.3,1.4c-0.1,0.4,0.3,0.7,0.6,0.7h2.3c0.3,0,0.6-0.2,0.6-0.5
			c-0.1,0.1-0.3,0.1-0.5,0.1h-1.7c-0.6,0-0.9-0.5-0.8-1l0.4-1.6C-296.4,308.8-296.1,308.4-296,308.4 M-286.8,307.1
			c-0.7,0-1.5,0.5-1.6,2c-0.4-0.5-1-0.7-1.7-0.7h-2.7c-0.1,0-0.1,0-0.1,0h-1.6c-0.3-0.9-0.9-1.2-1.5-1.2c-0.7,0-1.2,0.5-1.5,1.3
			c-0.1,0-0.1,0-0.1,0h-11.7c-0.7,0-1.4,0.4-1.7,1l-2.1,3.2c-0.3,0.5-0.3,1.2,0.1,1.7l0.5,0.5c0.3,0.3,0.6,0.5,1.1,0.5
			c0.1,0,0.2,0,0.3,0v4.7c0,1,0.8,1.9,1.9,1.9h3.3c1,0,1.9-0.8,1.9-1.9v-1.8h6.9v1.8c0,1,0.8,1.9,1.9,1.9h3.3c1,0,1.9-0.8,1.9-1.9
			v-1.9h-0.1c1.3,0,2.3-1,2.3-2.3v-2.5h0.9c0.6,0,1.2-0.3,1.7-0.8c0.4-0.5,0.6-1.1,0.5-1.7l-0.3-1.7
			C-285.2,307.8-285.9,307.1-286.8,307.1L-286.8,307.1z"/>
	</g>
</g>
<line class="st2" x1="-312.5" y1="288.5" x2="-301.3" y2="308.4"/>
<line class="st2" x1="-305.2" y1="288.5" x2="-299.6" y2="309.1"/>
<line class="st2" x1="-298.6" y1="309.1" x2="-293" y2="288.5"/>
<line class="st2" x1="-285.8" y1="288.5" x2="-297" y2="308.4"/>
<g>
	<path class="st3" d="M-315,338.3v1.6h-5.9v-10.1h1.9v8.6H-315z"/>
	<path class="st3" d="M-304.3,334.8c0,0.7-0.1,1.4-0.4,2.1c-0.2,0.6-0.6,1.2-1,1.6c-0.4,0.5-1,0.8-1.6,1.1c-0.6,0.3-1.3,0.4-2.1,0.4
		c-0.8,0-1.5-0.1-2.1-0.4s-1.2-0.6-1.6-1.1s-0.8-1-1-1.6c-0.2-0.6-0.4-1.3-0.4-2.1c0-0.7,0.1-1.4,0.4-2.1c0.2-0.6,0.6-1.2,1-1.6
		c0.5-0.5,1-0.8,1.6-1.1c0.6-0.3,1.3-0.4,2.1-0.4c0.5,0,1,0.1,1.4,0.2c0.5,0.1,0.9,0.3,1.2,0.5c0.4,0.2,0.7,0.5,1,0.8
		c0.3,0.3,0.6,0.7,0.8,1c0.2,0.4,0.4,0.8,0.5,1.2C-304.4,333.9-304.3,334.3-304.3,334.8z M-306.3,334.8c0-0.6-0.1-1.1-0.2-1.5
		c-0.1-0.4-0.4-0.8-0.6-1.1c-0.3-0.3-0.6-0.5-1-0.7c-0.4-0.2-0.8-0.2-1.3-0.2s-0.9,0.1-1.3,0.2c-0.4,0.2-0.7,0.4-1,0.7
		c-0.3,0.3-0.5,0.7-0.6,1.1c-0.1,0.4-0.2,0.9-0.2,1.5c0,0.6,0.1,1.1,0.2,1.5c0.1,0.4,0.4,0.8,0.6,1.1s0.6,0.5,1,0.7
		c0.4,0.2,0.8,0.2,1.3,0.2s0.9-0.1,1.3-0.2c0.4-0.2,0.7-0.4,1-0.7s0.5-0.7,0.6-1.1C-306.3,335.9-306.3,335.4-306.3,334.8z"/>
	<path class="st3" d="M-295.7,337.5c0.1,0,0.2,0,0.3,0.1l0.7,0.8c-0.4,0.5-0.9,0.9-1.5,1.2s-1.3,0.4-2.2,0.4c-0.8,0-1.4-0.1-2-0.4
		c-0.6-0.3-1.1-0.6-1.5-1.1c-0.4-0.5-0.8-1-1-1.6c-0.2-0.6-0.3-1.3-0.3-2.1c0-0.8,0.1-1.5,0.4-2.1c0.2-0.6,0.6-1.2,1-1.6
		c0.4-0.5,1-0.8,1.6-1.1s1.3-0.4,2-0.4c0.7,0,1.4,0.1,2,0.4c0.6,0.2,1.1,0.6,1.5,1l-0.6,0.9c0,0.1-0.1,0.1-0.1,0.1
		c-0.1,0-0.1,0.1-0.2,0.1c-0.1,0-0.1,0-0.2-0.1c-0.1,0-0.2-0.1-0.2-0.1c-0.1-0.1-0.2-0.1-0.3-0.2c-0.1-0.1-0.3-0.1-0.4-0.2
		c-0.2-0.1-0.3-0.1-0.5-0.1s-0.4-0.1-0.7-0.1c-0.5,0-0.9,0.1-1.2,0.2c-0.4,0.2-0.7,0.4-1,0.7s-0.5,0.7-0.6,1.1
		c-0.1,0.4-0.2,0.9-0.2,1.5c0,0.6,0.1,1.1,0.2,1.5s0.4,0.8,0.7,1.1s0.6,0.5,1,0.7c0.4,0.2,0.8,0.2,1.2,0.2c0.3,0,0.5,0,0.7,0
		c0.2,0,0.4-0.1,0.6-0.1c0.2-0.1,0.3-0.1,0.5-0.2c0.2-0.1,0.3-0.2,0.5-0.4c0,0,0.1-0.1,0.1-0.1
		C-295.8,337.5-295.8,337.5-295.7,337.5z"/>
	<path class="st3" d="M-284.7,339.9h-1.5c-0.2,0-0.3,0-0.4-0.1c-0.1-0.1-0.2-0.2-0.2-0.3l-0.8-2.1h-4.2l-0.8,2.1
		c0,0.1-0.1,0.2-0.2,0.3s-0.2,0.1-0.4,0.1h-1.5l4-10.1h1.9L-284.7,339.9z M-288.1,336.1l-1.2-3.4c-0.1-0.1-0.1-0.3-0.2-0.5
		c-0.1-0.2-0.1-0.4-0.2-0.7c-0.1,0.2-0.1,0.5-0.2,0.7c-0.1,0.2-0.1,0.4-0.2,0.5l-1.2,3.4H-288.1z"/>
	<path class="st3" d="M-277.8,338.3v1.6h-5.9v-10.1h1.9v8.6H-277.8z"/>
</g>
</svg>
