<?xml version="1.0" encoding="utf-8"?>
<!-- Generator: Adobe Illustrator 19.1.0, SVG Export Plug-In . SVG Version: 6.00 Build 0)  -->
<svg version="1.1" id="Layer_1" xmlns="http://www.w3.org/2000/svg" xmlns:xlink="http://www.w3.org/1999/xlink" x="0px" y="0px"
	 viewBox="0 0 100 100" style="enable-background:new 0 0 100 100;" xml:space="preserve">
<style type="text/css">
	.st0{fill:#394D54;}
	.st1{fill:#0074AA;}
	.st2{fill:none;}
	.st3{fill:#39B7E1;}
	.st4{fill:#FFFFFF;}
	.st5{fill:#336EE5;}
	.st6{fill:none;stroke:#FFFFFF;stroke-width:0.2744;}
	.st7{fill:#373535;}
	.st8{fill:#95A5A6;}
</style>
<g>
	<path class="st0" d="M34.2,87.3c0.1,0,0.3,0.1,0.4,0.2l1.1,1.2c-0.6,0.7-1.3,1.3-2.2,1.7c-0.9,0.4-1.9,0.6-3.1,0.6
		c-1.1,0-2.1-0.2-3-0.6c-0.9-0.4-1.6-0.9-2.2-1.6c-0.6-0.7-1.1-1.5-1.4-2.4s-0.5-1.9-0.5-3c0-1.1,0.2-2.1,0.5-3
		c0.4-0.9,0.9-1.7,1.5-2.4c0.6-0.7,1.4-1.2,2.3-1.6c0.9-0.4,1.9-0.6,3-0.6c1.1,0,2,0.2,2.9,0.5c0.8,0.4,1.5,0.8,2.1,1.4L34.5,79
		c-0.1,0.1-0.1,0.2-0.2,0.2c-0.1,0.1-0.2,0.1-0.4,0.1c-0.1,0-0.2,0-0.3-0.1c-0.1-0.1-0.2-0.1-0.4-0.2c-0.1-0.1-0.3-0.2-0.4-0.3
		c-0.2-0.1-0.4-0.2-0.6-0.3s-0.5-0.2-0.8-0.2c-0.3-0.1-0.6-0.1-1-0.1c-0.7,0-1.3,0.1-1.8,0.4c-0.5,0.2-1,0.6-1.4,1
		c-0.4,0.4-0.7,1-0.9,1.6c-0.2,0.6-0.3,1.4-0.3,2.2c0,0.8,0.1,1.6,0.4,2.2c0.2,0.6,0.6,1.2,1,1.6s0.9,0.8,1.4,1
		c0.5,0.2,1.1,0.4,1.8,0.4c0.4,0,0.7,0,1-0.1c0.3,0,0.6-0.1,0.8-0.2s0.5-0.2,0.7-0.3c0.2-0.1,0.5-0.3,0.7-0.5
		c0.1-0.1,0.1-0.1,0.2-0.1C34,87.3,34.1,87.3,34.2,87.3z"/>
	<path class="st0" d="M36.9,81.8c1.2-1.1,2.7-1.7,4.3-1.7c0.6,0,1.2,0.1,1.6,0.3c0.5,0.2,0.9,0.5,1.2,0.8c0.3,0.4,0.6,0.8,0.8,1.3
		c0.2,0.5,0.3,1,0.3,1.6v6.6H44c-0.2,0-0.4,0-0.6-0.1c-0.1-0.1-0.2-0.2-0.3-0.4l-0.2-0.8c-0.3,0.2-0.5,0.4-0.8,0.6
		c-0.3,0.2-0.5,0.3-0.8,0.5s-0.6,0.2-0.9,0.3c-0.3,0.1-0.7,0.1-1,0.1c-0.4,0-0.9-0.1-1.2-0.2c-0.4-0.1-0.7-0.3-1-0.5
		c-0.3-0.2-0.5-0.5-0.6-0.9s-0.2-0.8-0.2-1.2c0-0.3,0-0.5,0.1-0.8c0.1-0.3,0.2-0.5,0.4-0.7c0.2-0.2,0.5-0.5,0.8-0.7
		c0.3-0.2,0.7-0.4,1.2-0.6c0.5-0.2,1-0.3,1.6-0.4c0.6-0.1,1.3-0.2,2.1-0.2v-0.6c0-0.7-0.2-1.2-0.5-1.6c-0.3-0.3-0.7-0.5-1.3-0.5
		c-0.4,0-0.7,0-1,0.1c-0.3,0.1-0.5,0.2-0.7,0.3c-0.2,0.1-0.4,0.2-0.6,0.3C38.5,83,38.3,83,38.1,83c-0.2,0-0.3,0-0.4-0.1
		c-0.1-0.1-0.2-0.2-0.3-0.3L36.9,81.8z M42.7,86.3c-0.7,0-1.3,0.1-1.8,0.2c-0.5,0.1-0.9,0.2-1.2,0.4c-0.3,0.1-0.5,0.3-0.6,0.5
		c-0.1,0.2-0.2,0.4-0.2,0.6c0,0.4,0.1,0.8,0.4,1c0.3,0.2,0.6,0.3,1,0.3c0.5,0,1-0.1,1.3-0.3c0.4-0.2,0.7-0.5,1.1-0.9V86.3z"/>
	<path class="st0" d="M50.8,90.9c-0.9,0-1.6-0.3-2.1-0.8C48.3,89.7,48,88.9,48,88v-5.8h-1.1c-0.1,0-0.3,0-0.3-0.1
		c-0.1-0.1-0.1-0.2-0.1-0.4v-1l1.7-0.3l0.5-2.9c0-0.1,0.1-0.2,0.2-0.3c0.1-0.1,0.2-0.1,0.4-0.1h1.3v3.3h4.4l0.5-2.9
		c0-0.1,0.1-0.2,0.2-0.3c0.1-0.1,0.2-0.1,0.4-0.1h1.3v3.3h2.8v1.8h-2.8v5.7c0,0.3,0.1,0.6,0.2,0.8c0.2,0.2,0.4,0.3,0.7,0.3
		c0.1,0,0.3,0,0.4-0.1c0.1,0,0.2-0.1,0.3-0.1c0.1,0,0.1-0.1,0.2-0.1c0.1,0,0.1-0.1,0.2-0.1c0.1,0,0.1,0,0.2,0.1c0,0,0.1,0.1,0.2,0.2
		l0.8,1.2c-0.4,0.3-0.8,0.5-1.3,0.7s-1,0.2-1.5,0.2c-0.9,0-1.6-0.3-2.1-0.8c-0.5-0.5-0.7-1.2-0.7-2.1v-5.8h-4.2v5.7
		c0,0.3,0.1,0.6,0.2,0.8c0.2,0.2,0.4,0.3,0.7,0.3c0.2,0,0.3,0,0.4-0.1c0.1,0,0.2-0.1,0.3-0.1c0.1,0,0.1-0.1,0.2-0.1
		c0.1,0,0.1-0.1,0.2-0.1c0.1,0,0.1,0,0.2,0.1c0,0,0.1,0.1,0.2,0.2l0.8,1.2c-0.4,0.3-0.8,0.5-1.3,0.7C51.8,90.9,51.4,90.9,50.8,90.9z
		"/>
	<path class="st0" d="M64.3,75.6v15.2h-2.5V75.6H64.3z"/>
	<path class="st0" d="M68.7,85.9c0,0.5,0.1,1,0.3,1.4c0.1,0.4,0.3,0.7,0.6,1c0.2,0.3,0.5,0.4,0.9,0.6c0.3,0.1,0.7,0.2,1.1,0.2
		c0.4,0,0.8,0,1.1-0.1c0.3-0.1,0.6-0.2,0.8-0.3c0.2-0.1,0.4-0.2,0.6-0.3c0.2-0.1,0.3-0.1,0.5-0.1c0.2,0,0.4,0.1,0.5,0.2l0.7,0.9
		c-0.3,0.3-0.6,0.6-0.9,0.8c-0.3,0.2-0.7,0.4-1.1,0.5c-0.4,0.1-0.8,0.2-1.2,0.3c-0.4,0.1-0.8,0.1-1.1,0.1c-0.7,0-1.4-0.1-2-0.4
		c-0.6-0.2-1.2-0.6-1.6-1.1c-0.5-0.5-0.8-1.1-1.1-1.8c-0.3-0.7-0.4-1.5-0.4-2.4c0-0.7,0.1-1.4,0.3-2c0.2-0.6,0.6-1.2,1-1.6
		c0.4-0.5,1-0.8,1.6-1.1c0.6-0.3,1.3-0.4,2.1-0.4c0.7,0,1.3,0.1,1.8,0.3c0.6,0.2,1,0.5,1.4,0.9c0.4,0.4,0.7,0.9,0.9,1.5
		c0.2,0.6,0.3,1.3,0.3,2c0,0.4,0,0.6-0.1,0.8c-0.1,0.1-0.2,0.2-0.5,0.2H68.7z M73.5,84.3c0-0.3,0-0.6-0.1-0.9
		c-0.1-0.3-0.2-0.5-0.4-0.8c-0.2-0.2-0.4-0.4-0.7-0.5c-0.3-0.1-0.6-0.2-1-0.2c-0.7,0-1.3,0.2-1.7,0.6c-0.4,0.4-0.7,1-0.8,1.8H73.5z"
		/>
</g>
<g>
	<g>
		<g>
			<path class="st1" d="M51,13.9L50.7,12c-0.1-0.7-0.3-1.1-0.6-1.1c-0.2,0-0.3,0.6-0.3,1.1v0.5c0,0.7-0.6,1.1-1.1,1.1h-0.5h-0.1v1.4
				h0.1h1.9C50.7,15,51.1,14.5,51,13.9z"/>
		</g>
	</g>
	<path class="st1" d="M46.5,12.2h-3.1c0,0,0,0-0.1,0h-3.2H40v-0.3c0-0.7-0.1-1.1-0.3-1.1s-0.5,0.5-0.6,1.1l-0.3,1.9
		c-0.1,0.7,0.3,1.1,1,1.1h1.8c0.2,0,0.3,0,0.6-0.1c-0.1,0.3-0.3,0.6-0.7,0.6h-2.7c-0.5,0-0.8-0.3-0.7-0.8l0.2-1.6
		c0.1-0.5-0.2-0.8-0.7-0.8H24.2c-0.3,0-0.6,0.1-0.7,0.5L21,16.5c0,0.1,0,0.1,0,0.2l0.5,0.6c0.1,0.1,0.1,0.1,0.2,0l1.7-1.4v8.2
		c0,0.3,0.3,0.7,0.7,0.7h3.8c0.3,0,0.7-0.3,0.7-0.7v-2.9c0-0.3,0.3-0.7,0.7-0.7h9.6c0.3,0,0.7,0.3,0.7,0.7v2.9
		c0,0.3,0.3,0.7,0.7,0.7H44c0.3,0,0.7-0.3,0.7-0.7v-3.1h-2.1c-0.7,0-1.1-0.6-1.1-1.1V18c0-0.3,0.2-0.7,0.5-0.9v2.4
		c0,0.7,0.6,1.1,1.1,1.1h3.1c0.7,0,1.1-0.6,1.1-1.1v-6.2C47.6,12.8,47,12.2,46.5,12.2z"/>
</g>
<g>
	<g>
		<g>
			<path class="st1" d="M84.8,21L84.5,19c-0.1-0.7-0.3-1.1-0.6-1.1c-0.2,0-0.3,0.6-0.3,1.1v0.5c0,0.7-0.6,1.1-1.1,1.1H82h-0.1V22H82
				h1.9C84.5,22.1,85,21.5,84.8,21z"/>
		</g>
	</g>
	<path class="st1" d="M80.3,19.3h-3.1c0,0,0,0-0.1,0h-3.2h-0.1v-0.3c0-0.7-0.1-1.1-0.3-1.1s-0.5,0.5-0.6,1.1l-0.3,1.9
		c-0.1,0.7,0.3,1.1,1,1.1h1.8c0.2,0,0.3,0,0.6-0.1c-0.1,0.3-0.3,0.6-0.7,0.6h-2.7c-0.5,0-0.8-0.3-0.7-0.8l0.2-1.6
		c0.1-0.5-0.2-0.8-0.7-0.8H58c-0.3,0-0.6,0.1-0.7,0.5l-2.5,3.9c0,0.1,0,0.1,0,0.2l0.5,0.6c0.1,0.1,0.1,0.1,0.2,0l1.7-1.4v8.2
		c0,0.3,0.3,0.7,0.7,0.7h3.8c0.3,0,0.7-0.3,0.7-0.7v-2.9c0-0.3,0.3-0.7,0.7-0.7h9.6c0.3,0,0.7,0.3,0.7,0.7v2.9
		c0,0.3,0.3,0.7,0.7,0.7h3.8c0.3,0,0.7-0.3,0.7-0.7v-3.1h-2.1c-0.7,0-1.1-0.6-1.1-1.1v-1.9c0-0.3,0.2-0.7,0.5-0.9v2.4
		c0,0.7,0.6,1.1,1.1,1.1h3.1c0.7,0,1.1-0.6,1.1-1.1v-6.2C81.4,19.8,80.8,19.3,80.3,19.3z"/>
</g>
<g>
	<g>
		<g>
			<path class="st1" d="M73.5,39.1L73,36.3c-0.2-1-0.5-1.6-0.8-1.6c-0.3,0-0.5,0.8-0.5,1.6V37c0,1-0.8,1.6-1.6,1.6h-0.7h-0.2v2h0.2
				h2.8C73,40.7,73.7,39.9,73.5,39.1z"/>
		</g>
	</g>
	<path class="st1" d="M67,36.7h-4.4c0,0,0,0-0.2,0h-4.6h-0.2v-0.5c0-1-0.2-1.6-0.5-1.6s-0.7,0.7-0.8,1.6l-0.5,2.8
		c-0.2,1,0.5,1.6,1.5,1.6H60c0.3,0,0.5,0,0.8-0.2c-0.2,0.5-0.5,0.8-1,0.8h-3.9c-0.7,0-1.1-0.5-1-1.1l0.3-2.3c0.2-0.7-0.3-1.1-1-1.1
		H35.2c-0.5,0-0.8,0.2-1,0.7l-3.6,5.5c0,0.2,0,0.2,0,0.3l0.7,0.8c0.2,0.2,0.2,0.2,0.3,0l2.4-2v11.7c0,0.5,0.5,1,1,1h5.4
		c0.5,0,1-0.5,1-1v-4.1c0-0.5,0.5-1,1-1h13.7c0.5,0,1,0.5,1,1v4.1c0,0.5,0.5,1,1,1h5.4c0.5,0,1-0.5,1-1v-4.4h-2.9
		c-1,0-1.6-0.8-1.6-1.6V45c0-0.5,0.3-1,0.7-1.3v3.4c0,1,0.8,1.6,1.6,1.6h4.4c1,0,1.6-0.8,1.6-1.6v-8.8C68.6,37.5,67.8,36.7,67,36.7z
		"/>
</g>
<rect x="33.1" y="49.8" class="st8" width="33.9" height="3.1"/>
<rect x="33.1" y="56" class="st8" width="33.9" height="3.1"/>
<rect x="33.1" y="62.2" class="st8" width="33.9" height="3.1"/>
<rect x="32" y="48.1" class="st8" width="1.5" height="19.8"/>
<rect x="49.3" y="48.1" class="st8" width="1.5" height="19.8"/>
<rect x="66.6" y="48.1" class="st8" width="1.5" height="19.8"/>
<polygon class="st8" points="10.4,46.4 32.1,53 32.1,49.9 10.4,43.3 "/>
<polygon class="st8" points="10.4,52.6 32.1,59.1 32.1,56.1 10.4,49.5 "/>
<polygon class="st8" points="10.4,58.8 32.1,65.3 32.1,62.3 10.4,55.7 "/>
<rect x="19.2" y="44.8" class="st8" width="1.5" height="19.8"/>
<rect x="9.7" y="42.4" class="st8" width="1.5" height="19.8"/>
<polygon class="st8" points="89.8,46.4 68.1,53 68.1,50 89.8,43.4 "/>
<polygon class="st8" points="89.8,52.6 68.1,59.2 68.1,56.2 89.8,49.6 "/>
<polygon class="st8" points="89.8,58.8 68.1,65.4 68.1,62.3 89.8,55.8 "/>
<rect x="79.5" y="44.9" class="st8" width="1.5" height="19.8"/>
<rect x="89.1" y="42.4" class="st8" width="1.5" height="19.8"/>
</svg>
