<?xml version="1.0" encoding="utf-8"?>
<!-- Generator: Adobe Illustrator 19.2.1, SVG Export Plug-In . SVG Version: 6.00 Build 0)  -->
<svg version="1.1" id="Layer_1" xmlns="http://www.w3.org/2000/svg" xmlns:xlink="http://www.w3.org/1999/xlink" x="0px" y="0px"
	 viewBox="0 0 100 100" style="enable-background:new 0 0 100 100;" xml:space="preserve">
<style type="text/css">
	.st0{fill:#0075A8;}
</style>
<path class="st0" d="M62.6,48.3L56,73.8h-1l6.6-25.5L62.6,48.3L62.6,48.3z M72.2,48.3L57.6,73.8h1.2l14.6-25.5L72.2,48.3L72.2,48.3z
	 M44,48.3l6.6,25.5h1l-6.6-25.5H44L44,48.3z M33.2,48.3l14.6,25.5H49L34.4,48.3C34.4,48.3,33.2,48.3,33.2,48.3z M70.8,82.5
	C70.8,82.5,70.7,82.6,70.8,82.5l2.7,0.1c0.8,0,1.4-0.6,1.4-1.3c0-0.1,0-0.2,0-0.3l-0.5-2.8c-0.1-0.9-0.3-1.6-0.6-1.6
	c-0.3,0-0.4,0.7-0.4,1.6v0.7c0,0.9-1,2-2,2h-0.7L70.8,82.5z M77.3,17.3c-1.4,0-2.8,0.2-4.1,0.7C72.4,8.6,64.1,1.6,54.7,2.4
	c-6.2,0.5-11.6,4.4-14.2,10c-5.9-2.2-12.5,0.9-14.7,6.8c-1,2.6-0.9,5.5,0.1,8.1c-0.4-0.1-0.9-0.1-1.3-0.1c-4.2,0-7.6,3.2-7.6,7.4
	s3.4,7.4,7.6,7.4h52.7c7,0,12.6-5.4,12.6-12.4S84.3,17.3,77.3,17.3z M69.9,80.2v8.6c0,0.9-0.7,1.7-1.6,1.7h-4.4
	c-0.9,0-1.9-0.8-1.9-1.7v-3.4c0,0.3-0.9,0.8-0.9,1.3v2.8c0,0.9,1.2,1.8,2.1,1.8h3.2v4.2c0,0.6-0.8,1.1-1.3,1.1h-5.4
	c-0.6,0-1.1-0.5-1.1-1.1v-4.1c0-0.6-0.3-1-0.9-1H44c-0.6,0-1.4,0.4-1.4,1v4.1c0,0.6-0.1,1.1-0.6,1.1h-5.4c-0.6,0-1-0.5-1-1.1V83.8
	l-2.5,2c-0.1,0.1-0.3,0.1-0.4,0l-0.7-0.8c-0.1-0.1-0.1-0.2,0-0.3l3.6-5.7c0.2-0.3,0.5-0.8,0.9-0.8h19.2c0.6,0,1.1,0.7,1,1.4
	l-0.4,2.5c-0.1,0.6,0.4,1.4,1,1.4h3.8c0.5,0,0.9-0.4,1-0.9c-0.3,0.1-0.5,0.1-0.8,0h-2.7c-0.8,0-1.4-0.6-1.4-1.3c0-0.1,0-0.2,0-0.3
	l0.5-2.8c0.1-0.9,0.7-1.6,0.9-1.6c0.3,0,0.7,0.7,0.7,1.6v0.4c0,0-0.2-0.4-0.2-0.4h9.1C69.2,78.2,69.9,79.3,69.9,80.2z"/>
<path class="st0" d="M23.2,66.9L21,75.2h-0.3l2.2-8.3H23.2z M26.3,66.9l-4.8,8.3H22l4.8-8.3H26.3L26.3,66.9z M17.1,66.9l2.2,8.3h0.4
	l-2.2-8.3H17.1L17.1,66.9z M13.6,66.9l4.8,8.3h0.4L14,66.9H13.6L13.6,66.9z M25.9,78C25.9,78,25.9,78.1,25.9,78l0.9,0
	c0.2,0,0.5-0.2,0.5-0.4c0,0,0-0.1,0-0.1l-0.2-0.9c0-0.3-0.1-0.5-0.2-0.5c-0.1,0-0.1,0.2-0.1,0.5v0.2c0,0.3-0.3,0.6-0.6,0.6h-0.2
	L25.9,78z M28,56.7c-0.5,0-0.9,0.1-1.3,0.2c-0.3-3.1-3-5.4-6-5.1c-2,0.2-3.8,1.4-4.6,3.3c-1.9-0.7-4.1,0.3-4.8,2.2
	c-0.3,0.9-0.3,1.8,0,2.7c-0.1,0-0.3,0-0.4,0c-1.3,0-2.4,1.1-2.4,2.4c0,1.3,1.1,2.4,2.4,2.4c0,0,0,0,0,0H28c2.2,0,4.1-1.8,4.1-4.1
	S30.3,56.7,28,56.7z M25.6,77.3v2.8c0,0.3-0.2,0.6-0.5,0.6h-1.4c-0.3,0-0.6-0.3-0.6-0.6V79c0,0.1-0.3,0.3-0.3,0.4v0.9
	c0,0.3,0.4,0.6,0.7,0.6h1v1.4c0,0.2-0.2,0.3-0.4,0.4h-1.8c-0.2,0-0.4-0.2-0.4-0.4V81c0-0.2-0.1-0.3-0.3-0.3c0,0,0,0,0,0h-4.4
	c-0.2,0-0.5,0.1-0.5,0.3v1.3c0,0.2,0,0.4-0.2,0.4h-1.8c-0.2,0-0.3-0.2-0.3-0.3v-3.8l-0.8,0.6c0,0-0.1,0-0.1,0l-0.2-0.3
	c0,0,0-0.1,0-0.1l1.2-1.9c0-0.1,0.2-0.2,0.3-0.3H21c0.2,0,0.4,0.2,0.3,0.4c0,0,0,0,0,0l-0.1,0.8c0,0.2,0.1,0.4,0.3,0.5c0,0,0,0,0,0
	h1.3c0.2,0,0.3-0.1,0.3-0.3c-0.1,0-0.2,0-0.3,0h-0.9c-0.2,0-0.5-0.2-0.5-0.4c0,0,0-0.1,0-0.1l0.2-0.9c0-0.3,0.2-0.5,0.3-0.5
	c0.1,0,0.2,0.2,0.2,0.5v0.1c0,0,0-0.1-0.1-0.1h3C25.4,76.6,25.6,77,25.6,77.3z"/>
<path class="st0" d="M87.7,56.4l-1.2,4.8h-0.2l1.2-4.8H87.7z M89.5,56.4l-2.7,4.8H87l2.7-4.8H89.5z M84.3,56.4l1.2,4.8h0.2l-1.2-4.8
	H84.3L84.3,56.4z M82.3,56.4l2.7,4.8h0.2l-2.7-4.8H82.3z M89.3,62.8C89.3,62.8,89.3,62.8,89.3,62.8l0.5,0c0.1,0,0.3-0.1,0.3-0.3
	c0,0,0,0,0-0.1L90,62c0-0.2-0.1-0.3-0.1-0.3s-0.1,0.1-0.1,0.3v0.1c0,0.2-0.2,0.3-0.4,0.4h-0.1V62.8z M90.5,50.6
	c-0.3,0-0.5,0-0.8,0.1c-0.1-1.8-1.7-3.1-3.4-2.9c-1.2,0.1-2.2,0.8-2.7,1.9c-1.1-0.4-2.3,0.2-2.7,1.3c-0.2,0.5-0.2,1,0,1.5
	c-0.1,0-0.2,0-0.2,0c-0.8,0-1.4,0.6-1.4,1.3s0.6,1.4,1.3,1.4c0,0,0.1,0,0.1,0h9.8c1.3,0,2.3-1,2.3-2.3
	C92.8,51.6,91.8,50.6,90.5,50.6L90.5,50.6z M89.1,62.3v1.6c0,0.2-0.1,0.3-0.3,0.3H88c-0.2,0-0.3-0.1-0.3-0.3v-0.6
	c0,0.1-0.2,0.1-0.2,0.2v0.5c0,0.2,0.2,0.3,0.4,0.3h0.6v0.8c0,0.1-0.1,0.2-0.2,0.2h-1c-0.1,0-0.2-0.1-0.2-0.2v-0.8
	c0-0.1-0.1-0.2-0.1-0.2c0,0,0,0,0,0h-2.5c-0.1,0-0.2,0.1-0.3,0.2v0.8c0,0.1,0,0.2-0.1,0.2h-1c-0.1,0-0.2-0.1-0.2-0.2c0,0,0,0,0,0V63
	l-0.5,0.4c0,0,0,0-0.1,0l-0.1-0.2c0,0,0,0,0-0.1l0.7-1c0-0.1,0.1-0.1,0.2-0.1h3.6c0.1,0,0.2,0.1,0.2,0.2c0,0,0,0,0,0l-0.1,0.5
	c0,0.1,0.1,0.2,0.2,0.3c0,0,0,0,0,0h0.7c0.1,0,0.2-0.1,0.2-0.2c0,0-0.1,0-0.1,0H87c-0.1,0-0.3-0.1-0.3-0.3c0,0,0,0,0-0.1l0.1-0.5
	c0-0.1,0.1-0.2,0.2-0.3c0.1,0.1,0.1,0.2,0.1,0.3V62c0,0,0,0,0-0.1h1.7C89,62,89.1,62.2,89.1,62.3L89.1,62.3z"/>
</svg>
