<?xml version="1.0" encoding="utf-8"?>
<!-- Generator: Adobe Illustrator 19.2.1, SVG Export Plug-In . SVG Version: 6.00 Build 0)  -->
<svg version="1.1" id="Layer_1" xmlns="http://www.w3.org/2000/svg" xmlns:xlink="http://www.w3.org/1999/xlink" x="0px" y="0px"
	 viewBox="0 0 100 100" style="enable-background:new 0 0 100 100;" xml:space="preserve">
<style type="text/css">
	.st0{fill:#0075A8;}
</style>
<g>
	<path class="st0" d="M60.9,48.7L54.1,75H53l6.8-26.2L60.9,48.7L60.9,48.7z M70.8,48.7L55.8,75H57l15-26.2L70.8,48.7L70.8,48.7z
		 M41.8,48.7L48.7,75h1.1l-6.8-26.2H41.8L41.8,48.7z M30.7,48.7l15,26.2h1.2l-15-26.2C31.9,48.7,30.7,48.7,30.7,48.7z M69.4,84
		C69.4,84,69.3,84,69.4,84l2.7,0.1c0.8,0,1.4-0.6,1.4-1.4c0-0.1,0-0.2,0-0.3l-0.5-2.9c-0.2-0.9-0.4-1.7-0.6-1.7
		c-0.3,0-0.4,0.8-0.4,1.7v0.8c0,0.9-1.1,2-2,2h-0.7L69.4,84z M76.1,16.9c-1.4,0-2.9,0.2-4.2,0.7c-0.8-9.7-9.4-16.9-19-16
		c-6.4,0.5-11.9,4.5-14.6,10.3c-6.1-2.2-12.8,0.9-15.1,7c-1,2.7-0.9,5.7,0.1,8.4c-0.5-0.1-0.9-0.1-1.4-0.1c-4.3,0-7.8,3.3-7.8,7.6
		s3.5,7.6,7.8,7.6h54.2c7.2,0,13-5.6,13-12.8S83.2,16.9,76.1,16.9z M68.5,81.6v8.8c0,0.9-0.7,1.8-1.7,1.8h-4.6
		c-0.9,0-1.9-0.9-1.9-1.8v-3.5c0,0.3-0.9,0.8-0.9,1.4v2.9c0,0.9,1.2,1.9,2.1,1.9h3.3v4.3c0,0.6-0.8,1.1-1.4,1.1h-5.6
		c-0.6,0-1.2-0.5-1.2-1.1v-4.2c0-0.6-0.3-1-0.9-1h-14c-0.6,0-1.4,0.5-1.4,1v4.2c0,0.6-0.1,1.1-0.6,1.1h-5.6c-0.6,0-1-0.5-1-1.1V85.3
		l-2.5,2c-0.1,0.1-0.3,0.1-0.4,0l-0.7-0.8c-0.1-0.1-0.1-0.2,0-0.3l3.7-5.8c0.2-0.4,0.5-0.8,0.9-0.8h19.7c0.6,0,1.1,0.8,1,1.4
		l-0.4,2.6c-0.1,0.6,0.4,1.4,1,1.4h4c0.5,0,0.9-0.5,1-0.9c-0.3,0.1-0.5,0.1-0.8,0h-2.8c-0.8,0-1.4-0.6-1.4-1.4c0-0.1,0-0.2,0-0.3
		l0.5-2.9c0.2-0.9,0.7-1.7,1-1.7s0.7,0.8,0.7,1.7v0.4c0,0-0.2-0.4-0.2-0.4h9.4C67.7,79.5,68.5,80.6,68.5,81.6z"/>
	<path class="st0" d="M20.4,67.8l-2.2,8.6h-0.4l2.2-8.6H20.4z M23.7,67.8l-4.9,8.6h0.4l4.9-8.6H23.7L23.7,67.8z M14.2,67.8l2.2,8.6
		h0.4l-2.2-8.6H14.2L14.2,67.8z M10.6,67.8l4.9,8.6h0.4L11,67.8H10.6L10.6,67.8z M23.2,79.3C23.2,79.3,23.2,79.4,23.2,79.3l0.9,0
		c0.3,0,0.5-0.2,0.5-0.5c0,0,0-0.1,0-0.1l-0.2-0.9c0-0.3-0.1-0.6-0.2-0.6c-0.1,0-0.1,0.2-0.1,0.6v0.2c0,0.3-0.3,0.6-0.6,0.7h-0.2
		L23.2,79.3z M25.4,57.5c-0.5,0-0.9,0.1-1.4,0.2c-0.3-3.2-3-5.5-6.2-5.2c-2.1,0.2-3.9,1.5-4.8,3.4c-2-0.7-4.2,0.3-4.9,2.3
		c-0.3,0.9-0.3,1.9,0,2.7c-0.1,0-0.3,0-0.4,0c-1.4,0-2.5,1.1-2.5,2.5c0,1.4,1.1,2.5,2.5,2.5c0,0,0,0,0,0h17.7c2.3,0,4.2-1.9,4.2-4.2
		C29.6,59.3,27.7,57.5,25.4,57.5z M22.9,78.6v2.9c0,0.3-0.2,0.6-0.5,0.6h-1.5c-0.3,0-0.6-0.3-0.6-0.6v-1.1c0,0.1-0.3,0.3-0.3,0.4v1
		c0,0.3,0.4,0.6,0.7,0.6h1.1v1.4c0,0.2-0.2,0.4-0.4,0.4h-1.8c-0.2,0-0.4-0.2-0.4-0.4v-1.4c0-0.2-0.1-0.3-0.3-0.3c0,0,0,0,0,0h-4.6
		c-0.2,0-0.5,0.1-0.5,0.3v1.4c0,0.2,0,0.4-0.2,0.4h-1.8c-0.2,0-0.3-0.2-0.3-0.4v-3.9l-0.8,0.6c0,0-0.1,0-0.1,0l-0.2-0.3
		c0,0,0-0.1,0-0.1l1.2-1.9c0-0.1,0.2-0.2,0.3-0.3h6.4c0.2,0,0.4,0.2,0.3,0.4c0,0,0,0,0,0l-0.1,0.9c0,0.2,0.1,0.4,0.3,0.5
		c0,0,0,0,0,0H20c0.2,0,0.3-0.1,0.3-0.3c-0.1,0-0.2,0-0.3,0h-0.9c-0.3,0-0.5-0.2-0.5-0.5c0,0,0-0.1,0-0.1l0.2-0.9
		c0-0.3,0.2-0.6,0.3-0.6s0.2,0.3,0.2,0.6V78c0,0,0-0.1-0.1-0.1h3.1C22.7,77.9,22.9,78.3,22.9,78.6z"/>
	<path class="st0" d="M86.8,57.1L85.5,62h-0.2l1.3-4.9H86.8z M88.6,57.1L85.8,62H86l2.8-4.9H88.6z M83.2,57.1l1.3,4.9h0.2l-1.3-4.9
		H83.2L83.2,57.1z M81.2,57.1L84,62h0.2l-2.8-4.9H81.2z M88.4,63.6C88.4,63.6,88.4,63.7,88.4,63.6l0.5,0c0.1,0,0.3-0.1,0.3-0.3
		c0,0,0,0,0-0.1l-0.1-0.5c0-0.2-0.1-0.3-0.1-0.3c-0.1,0-0.1,0.1-0.1,0.3v0.1c0,0.2-0.2,0.4-0.4,0.4h-0.1V63.6z M89.6,51.1
		c-0.3,0-0.5,0-0.8,0.1c-0.1-1.8-1.7-3.2-3.5-3c-1.2,0.1-2.3,0.8-2.8,2c-1.1-0.4-2.4,0.2-2.8,1.3c-0.2,0.5-0.2,1.1,0,1.6
		c-0.1,0-0.2,0-0.3,0c-0.8,0-1.4,0.6-1.5,1.4c0,0.8,0.6,1.4,1.4,1.5c0,0,0.1,0,0.1,0h10.1c1.3,0,2.4-1.1,2.4-2.4
		C92,52.2,90.9,51.1,89.6,51.1L89.6,51.1z M88.2,63.2v1.6c0,0.2-0.1,0.3-0.3,0.3H87c-0.2,0-0.3-0.1-0.4-0.3v-0.6
		c0,0.1-0.2,0.1-0.2,0.3V65c0,0.2,0.2,0.3,0.4,0.4h0.6v0.8c0,0.1-0.1,0.2-0.3,0.2h-1c-0.1,0-0.2-0.1-0.2-0.2v-0.8
		c0-0.1-0.1-0.2-0.1-0.2c0,0,0,0,0,0h-2.6c-0.1,0-0.2,0.1-0.3,0.2v0.8c0,0.1,0,0.2-0.1,0.2h-1c-0.1,0-0.2-0.1-0.2-0.2c0,0,0,0,0,0
		v-2.2l-0.5,0.4c0,0,0,0-0.1,0l-0.1-0.2c0,0,0,0,0-0.1l0.7-1.1c0-0.1,0.1-0.1,0.2-0.1h3.7c0.1,0,0.2,0.1,0.2,0.2c0,0,0,0,0,0
		l-0.1,0.5c0,0.1,0.1,0.2,0.2,0.3c0,0,0,0,0,0h0.7c0.1,0,0.2-0.1,0.2-0.2c-0.1,0-0.1,0-0.2,0H86c-0.1,0-0.3-0.1-0.3-0.3
		c0,0,0,0,0-0.1l0.1-0.5c0-0.1,0.1-0.2,0.2-0.3c0.1,0.1,0.1,0.2,0.1,0.3v0.1c0,0,0,0,0-0.1h1.8C88.1,62.9,88.2,63,88.2,63.2
		L88.2,63.2z"/>
</g>
</svg>
