<svg id="Layer_1" data-name="Layer 1" xmlns="http://www.w3.org/2000/svg" viewBox="0 0 100 100"><defs><style>.cls-1{fill:#0075a8;}</style></defs><title>provider-local</title><path class="cls-1" d="M89.78,22.72l-.89-5.52c-.27-1.78-1-3.2-1.51-3.2s-1,1.51-1,3.2v1.51a3.25,3.25,0,0,1-3.2,3.2H81.5v3.92h5.7a2.53,2.53,0,0,0,2.58-3.12"/><path class="cls-1" d="M76.87,18.1H58.62V17.2c0-1.78-.45-3.2-1-3.2s-1.25,1.42-1.51,3.2l-.89,5.52A2.67,2.67,0,0,0,58,25.93h5.43a7.84,7.84,0,0,0,1.51-.18,2,2,0,0,1-2,1.6H55.42a2,2,0,0,1-2-2.31l.8-4.63a2,2,0,0,0-2-2.31H14.47a1.86,1.86,0,0,0-1.78,1.16L5.57,30a.75.75,0,0,0,0,.62l1.34,1.6a.67.67,0,0,0,.71.09l4.81-3.83V51.66a2,2,0,0,0,2,2H25.06a2,2,0,0,0,2-2v-8a2,2,0,0,1,2-2H55.69a2,2,0,0,1,2,2v8a2,2,0,0,0,2,2H70.29a2,2,0,0,0,2-2V43H66.9a3.25,3.25,0,0,1-3.2-3.2V34.21A3.25,3.25,0,0,1,65,31.63V38.3a3.25,3.25,0,0,0,3.2,3.2H77a3.25,3.25,0,0,0,3.2-3.2V21.39a3.34,3.34,0,0,0-3.29-3.29"/><path class="cls-1" d="M90.4,16.14a2,2,0,0,1,4.1,0,2,2,0,0,1-2,2A2,2,0,0,1,90.4,16.14Zm3.65,0a1.43,1.43,0,0,0-1.51-1.6,1.49,1.49,0,0,0-1.6,1.6,1.54,1.54,0,0,0,1.6,1.6A1.58,1.58,0,0,0,94.05,16.14Zm-2.31-1.07h.71c.36,0,.71.09.71.62a.56.56,0,0,1-.45.53l.45.89h-.45l-.45-.8H92.1v.8h-.45v-2Zm.8.89c.18,0,.36-.09.36-.27s-.18-.27-.36-.27h-.36V16Z"/><path class="cls-1" d="M33.88,76.09H35V85h5.21v.92h-6.3Z"/><path class="cls-1" d="M42.45,85.66a3.15,3.15,0,0,1-1.32-1.24,4,4,0,0,1,0-3.76,3.28,3.28,0,0,1,1.32-1.26,4.37,4.37,0,0,1,3.85,0,3.28,3.28,0,0,1,1.32,1.26,3.64,3.64,0,0,1,.48,1.88,3.67,3.67,0,0,1-.47,1.88,3.16,3.16,0,0,1-1.32,1.24,4.55,4.55,0,0,1-3.88,0Zm3.86-1.16a3.06,3.06,0,0,0,0-3.95,2.89,2.89,0,0,0-3.85,0,3.06,3.06,0,0,0,0,3.95,2.89,2.89,0,0,0,3.85,0Z"/><path class="cls-1" d="M51.11,85.66a3.15,3.15,0,0,1-1.32-1.23,4,4,0,0,1,0-3.79,3.2,3.2,0,0,1,1.34-1.25A4.21,4.21,0,0,1,53.06,79a5.94,5.94,0,0,1,1.36.14,3.24,3.24,0,0,1,1,.45v.91a3.89,3.89,0,0,0-2.31-.63,2.83,2.83,0,0,0-2,.71,3,3,0,0,0,0,4,2.79,2.79,0,0,0,2,.71,4.87,4.87,0,0,0,1.33-.17,4.06,4.06,0,0,0,1.12-.52v.91a3.3,3.3,0,0,1-1.1.48,6.26,6.26,0,0,1-1.45.15A4.19,4.19,0,0,1,51.11,85.66Z"/><path class="cls-1" d="M57.6,85.48a2.09,2.09,0,0,1-.71-1.67,2.13,2.13,0,0,1,.69-1.7,3,3,0,0,1,2-.59,5,5,0,0,1,2.51.6v-.5a1.68,1.68,0,0,0-.52-1.35,2.5,2.5,0,0,0-1.64-.44,5.37,5.37,0,0,0-2.2.45v-.91a4.82,4.82,0,0,1,1.06-.29A7.23,7.23,0,0,1,60,79a3.36,3.36,0,0,1,2.37.72,2.6,2.6,0,0,1,.77,2v4.21h-1V85a3.19,3.19,0,0,1-2.62,1.08A2.85,2.85,0,0,1,57.6,85.48Zm3.56-.57a2.08,2.08,0,0,0,.92-.85V83A4.5,4.5,0,0,0,61,82.51a4.62,4.62,0,0,0-1.21-.15,2.15,2.15,0,0,0-1.38.36A1.33,1.33,0,0,0,58,83.81q0,1.4,1.82,1.4A3,3,0,0,0,61.16,84.91Z"/><path class="cls-1" d="M65,75.53h1.08V85.88H65Z"/></svg>