<?xml version="1.0" encoding="utf-8"?>
<!-- Generator: Adobe Illustrator 19.2.1, SVG Export Plug-In . SVG Version: 6.00 Build 0)  -->
<svg version="1.1" id="Layer_1" xmlns="http://www.w3.org/2000/svg" xmlns:xlink="http://www.w3.org/1999/xlink" x="0px" y="0px"
	 viewBox="0 0 100 100" style="enable-background:new 0 0 100 100;" xml:space="preserve">
<style type="text/css">
	.st0{fill:#0074AA;}
	.st1{fill:#95A5A6;}
</style>
<g>
	<g>
		<g>
			<g>
				<path class="st0" d="M50.9,24.6l-0.3-1.9c-0.1-0.7-0.3-1.1-0.6-1.1c-0.2,0-0.3,0.6-0.3,1.1v0.5c0,0.7-0.6,1.1-1.1,1.1h-0.5H48
					v1.4h0.1H50C50.6,25.7,51,25.2,50.9,24.6z"/>
			</g>
		</g>
		<path class="st0" d="M46.4,22.9h-3.1c0,0,0,0-0.1,0H40h-0.1v-0.3c0-0.7-0.1-1.1-0.3-1.1S39.1,22,39,22.6l-0.3,1.9
			c-0.1,0.7,0.3,1.1,1,1.1h1.8c0.2,0,0.3,0,0.6-0.1c-0.1,0.3-0.3,0.6-0.7,0.6h-2.7c-0.5,0-0.8-0.3-0.7-0.8l0.2-1.6
			c0.1-0.5-0.2-0.8-0.7-0.8H24.1c-0.3,0-0.6,0.1-0.7,0.5l-2.5,3.8c0,0.1,0,0.1,0,0.2l0.5,0.6c0.1,0.1,0.1,0.1,0.2,0l1.7-1.4v8.2
			c0,0.3,0.3,0.7,0.7,0.7h3.8c0.3,0,0.7-0.3,0.7-0.7v-2.9c0-0.3,0.3-0.7,0.7-0.7h9.6c0.3,0,0.7,0.3,0.7,0.7v2.9
			c0,0.3,0.3,0.7,0.7,0.7h3.7c0.3,0,0.7-0.3,0.7-0.7v-3.1h-2.1c-0.7,0-1.1-0.6-1.1-1.1v-1.9c0-0.3,0.2-0.7,0.5-0.9v2.4
			c0,0.7,0.6,1.1,1.1,1.1h3.1c0.7,0,1.1-0.6,1.1-1.1V24C47.5,23.5,46.9,22.9,46.4,22.9z"/>
	</g>
	<g>
		<g>
			<g>
				<path class="st0" d="M84.7,31.7l-0.3-2c-0.1-0.7-0.3-1.1-0.6-1.1c-0.2,0-0.3,0.6-0.3,1.1v0.5c0,0.7-0.6,1.1-1.1,1.1h-0.5h-0.1
					v1.4h0.1h1.9C84.3,32.8,84.8,32.2,84.7,31.7z"/>
			</g>
		</g>
		<path class="st0" d="M80.2,30h-3.1c0,0,0,0-0.1,0h-3.2h-0.1v-0.3c0-0.7-0.1-1.1-0.3-1.1s-0.5,0.5-0.6,1.1l-0.3,1.9
			c-0.1,0.7,0.3,1.1,1,1.1h1.8c0.2,0,0.3,0,0.6-0.1c-0.1,0.3-0.3,0.6-0.7,0.6h-2.7c-0.5,0-0.8-0.3-0.7-0.8l0.2-1.6
			c0.1-0.5-0.2-0.8-0.7-0.8H57.9c-0.3,0-0.6,0.1-0.7,0.5l-2.5,3.9c0,0.1,0,0.1,0,0.2l0.5,0.6c0.1,0.1,0.1,0.1,0.2,0l1.7-1.4V42
			c0,0.3,0.3,0.7,0.7,0.7h3.8c0.3,0,0.7-0.3,0.7-0.7v-2.9c0-0.3,0.3-0.7,0.7-0.7h9.6c0.3,0,0.7,0.3,0.7,0.7V42
			c0,0.3,0.3,0.7,0.7,0.7h3.8c0.3,0,0.7-0.3,0.7-0.7v-3.1h-2.1c-0.7,0-1.1-0.6-1.1-1.1v-1.9c0-0.3,0.2-0.7,0.5-0.9v2.4
			c0,0.7,0.6,1.1,1.1,1.1h3.1c0.7,0,1.1-0.6,1.1-1.1v-6.2C81.2,30.5,80.7,30,80.2,30z"/>
	</g>
	<g>
		<g>
			<g>
				<path class="st0" d="M73.3,49.8L72.8,47c-0.2-1-0.5-1.6-0.8-1.6s-0.5,0.8-0.5,1.6v0.7c0,1-0.8,1.6-1.6,1.6h-0.7h-0.2v2h0.2h2.8
					C72.8,51.4,73.5,50.6,73.3,49.8z"/>
			</g>
		</g>
		<path class="st0" d="M66.8,47.4h-4.4c0,0,0,0-0.2,0h-4.6h-0.2v-0.5c0-1-0.2-1.6-0.5-1.6s-0.7,0.7-0.8,1.6l-0.5,2.8
			c-0.2,1,0.5,1.6,1.5,1.6h2.7c0.3,0,0.5,0,0.8-0.2c-0.2,0.5-0.5,0.8-1,0.8h-3.9c-0.7,0-1.1-0.5-1-1.1l0.3-2.3
			c0.2-0.7-0.3-1.1-1-1.1h-19c-0.5,0-0.8,0.2-1,0.7l-3.6,5.5c0,0.2,0,0.2,0,0.3l0.7,0.8c0.2,0.2,0.2,0.2,0.3,0l2.4-2v11.7
			c0,0.5,0.5,1,1,1h5.4c0.5,0,1-0.5,1-1v-4.1c0-0.5,0.5-1,1-1H56c0.5,0,1,0.5,1,1v4.1c0,0.5,0.5,1,1,1h5.4c0.5,0,1-0.5,1-1V60h-2.9
			c-1,0-1.6-0.8-1.6-1.6v-2.7c0-0.5,0.3-1,0.7-1.3v3.4c0,1,0.8,1.6,1.6,1.6h4.4c1,0,1.6-0.8,1.6-1.6V49
			C68.4,48.2,67.7,47.4,66.8,47.4z"/>
	</g>
	<rect x="33" y="60.5" class="st1" width="33.9" height="3.1"/>
	<rect x="33" y="66.7" class="st1" width="33.9" height="3.1"/>
	<rect x="33" y="72.9" class="st1" width="33.9" height="3.1"/>
	<rect x="31.9" y="58.8" class="st1" width="1.5" height="19.8"/>
	<rect x="49.2" y="58.8" class="st1" width="1.5" height="19.8"/>
	<rect x="66.4" y="58.8" class="st1" width="1.5" height="19.8"/>
	<polygon class="st1" points="10.2,57.1 31.9,63.7 31.9,60.6 10.2,54 	"/>
	<polygon class="st1" points="10.2,63.2 31.9,69.8 31.9,66.8 10.2,60.2 	"/>
	<polygon class="st1" points="10.2,69.5 31.9,76 31.9,73 10.2,66.4 	"/>
	<rect x="19.1" y="55.5" class="st1" width="1.5" height="19.8"/>
	<rect x="9.6" y="53.1" class="st1" width="1.5" height="19.8"/>
	<polygon class="st1" points="89.7,57.1 67.9,63.7 67.9,60.7 89.7,54.1 	"/>
	<polygon class="st1" points="89.7,63.2 67.9,69.9 67.9,66.9 89.7,60.2 	"/>
	<polygon class="st1" points="89.7,69.5 67.9,76.1 67.9,73 89.7,66.5 	"/>
	<rect x="79.3" y="55.6" class="st1" width="1.5" height="19.8"/>
	<rect x="88.9" y="53.1" class="st1" width="1.5" height="19.8"/>
</g>
</svg>
