<?xml version="1.0" encoding="utf-8"?>
<!-- Generator: Adobe Illustrator 19.1.0, SVG Export Plug-In . SVG Version: 6.00 Build 0)  -->
<svg version="1.1" id="Layer_1" xmlns="http://www.w3.org/2000/svg" xmlns:xlink="http://www.w3.org/1999/xlink" x="0px" y="0px"
	 viewBox="0 0 100 100" style="enable-background:new 0 0 100 100;" xml:space="preserve">
<style type="text/css">
	.st0{fill:#ECF0F1;stroke:#99A3A8;stroke-width:5;stroke-miterlimit:10;}
	.st1{fill:#ECF0F1;}
	.st2{fill:#99A3A8;}
	.st3{fill:none;stroke:#000000;stroke-width:5;stroke-miterlimit:10;}
	.st4{fill:none;stroke:#000000;stroke-width:3;stroke-miterlimit:10;}
	.st5{fill:none;stroke:#99A3A8;stroke-width:5;stroke-miterlimit:10;}
	.st6{fill:#EAF2F8;}
	.st7{fill:#2980B9;}
	.st8{fill:#D6EFF1;stroke:#78C9CF;stroke-width:5;stroke-miterlimit:10;}
	.st9{fill:#F9F5CD;stroke:#EADF5A;stroke-width:5;stroke-miterlimit:10;}
	.st10{fill:#F9F5CD;}
	.st11{fill:#EADF5A;}
	.st12{fill:none;stroke:#2980B9;stroke-width:5;stroke-miterlimit:10;}
	.st13{fill:none;stroke:#2980B9;stroke-width:3;stroke-miterlimit:10;}
	.st14{fill:none;stroke:#334851;stroke-width:5;stroke-miterlimit:10;}
	.st15{fill:#D6EFF1;}
	.st16{fill:#78C9CF;}
	.st17{fill:#CCD1D3;}
	.st18{fill:#A3ABAF;}
	.st19{fill:#3498DB;}
	.st20{fill:#E67E22;}
	.st21{fill:#D35401;}
	.st22{fill:#F1C40F;}
	.st23{fill:#E49701;}
	.st24{fill:#D7C320;}
	.st25{fill:#34495E;}
	.st26{fill:#2C3E50;}
	.st27{fill:#2B2B2B;}
	.st28{fill:#262626;}
	.st29{fill:#3A6F81;}
	.st30{fill:#356272;}
	.st31{fill:#0075A8;}
	.st32{fill:#00558B;}
	.st33{fill:#2ECC71;}
	.st34{fill:#27AE60;}
	.st35{fill:#A5C63B;}
	.st36{fill:#8EB021;}
	.st37{fill:#BDC3C7;}
	.st38{fill:#95A5A6;}
	.st39{fill:#7F8C8D;}
	.st40{fill:#E74C3C;}
	.st41{fill:#C0392B;}
	.st42{fill:#F15354;}
	.st43{fill:#EA3738;}
	.st44{fill:#389EA8;}
	.st45{fill:#2D8490;}
	.st46{fill:#1A6470;}
	.st47{fill:#21364A;}
	.st48{fill:#040B15;}
	.st49{fill:#66767C;}
	.st50{fill:#334851;}
	.st51{fill:#5C686F;}
	.st52{fill:#29373C;}
	.st53{fill:#0A141A;}
	.st54{fill:#E95E50;}
	.st55{fill:#EC7063;}
	.st56{fill:#EE8277;}
	.st57{fill:#F1948A;}
	.st58{fill:#F3A69E;}
	.st59{fill:#F5B7B1;}
	.st60{fill:#F8C9C4;}
	.st61{fill:#FADBD8;}
	.st62{fill:#FDEDEB;}
	.st63{fill:#F26465;}
	.st64{fill:#F47576;}
	.st65{fill:#F58787;}
	.st66{fill:#F79898;}
	.st67{fill:#F8A9A9;}
	.st68{fill:#F9BABB;}
	.st69{fill:#FBCBCC;}
	.st70{fill:#FCDDDD;}
	.st71{fill:#FEEEEE;}
	.st72{fill:#E98B38;}
	.st73{fill:#EB984E;}
	.st74{fill:#EEA564;}
	.st75{fill:#F0B27A;}
	.st76{fill:#F3BE90;}
	.st77{fill:#F5CBA7;}
	.st78{fill:#F7D8BD;}
	.st79{fill:#FAE5D3;}
	.st80{fill:#FCF2E9;}
	.st81{fill:#F2CA27;}
	.st82{fill:#F4D03F;}
	.st83{fill:#F5D657;}
	.st84{fill:#F7DC6F;}
	.st85{fill:#F8E187;}
	.st86{fill:#F9E79F;}
	.st87{fill:#FBEDB7;}
	.st88{fill:#FCF3CF;}
	.st89{fill:#FEF9E7;}
	.st90{fill:#ECE26B;}
	.st91{fill:#EEE57B;}
	.st92{fill:#F0E98B;}
	.st93{fill:#F2EC9C;}
	.st94{fill:#F5EFAC;}
	.st95{fill:#F7F2BD;}
	.st96{fill:#FBF9DE;}
	.st97{fill:#FDFCEE;}
	.st98{fill:#43D17F;}
	.st99{fill:#58D68D;}
	.st100{fill:#6DDB9C;}
	.st101{fill:#82E0AA;}
	.st102{fill:#96E5B8;}
	.st103{fill:#ABEBC6;}
	.st104{fill:#C0F0D4;}
	.st105{fill:#D5F5E3;}
	.st106{fill:#EAFAF1;}
	.st107{fill:#AECC4F;}
	.st108{fill:#B7D162;}
	.st109{fill:#C0D776;}
	.st110{fill:#C9DD89;}
	.st111{fill:#D2E39D;}
	.st112{fill:#DBE8B1;}
	.st113{fill:#E4EEC4;}
	.st114{fill:#EDF4D8;}
	.st115{fill:#F6F9EB;}
	.st116{fill:#374A5C;}
	.st117{fill:#4D5E6E;}
	.st118{fill:#647280;}
	.st119{fill:#7A8692;}
	.st120{fill:#909AA4;}
	.st121{fill:#A6AFB7;}
	.st122{fill:#BCC3C9;}
	.st123{fill:#D3D7DB;}
	.st124{fill:#E9EBED;}
	.st125{fill:#485B6E;}
	.st126{fill:#5D6D7E;}
	.st127{fill:#71808E;}
	.st128{fill:#85929E;}
	.st129{fill:#99A4AE;}
	.st130{fill:#AEB6BF;}
	.st131{fill:#C2C8CF;}
	.st132{fill:#D6DBDF;}
	.st133{fill:#EBEDEF;}
	.st134{fill:#1A83B1;}
	.st135{fill:#3391B9;}
	.st136{fill:#4D9EC2;}
	.st137{fill:#66ACCB;}
	.st138{fill:#80BAD3;}
	.st139{fill:#99C8DC;}
	.st140{fill:#B2D6E5;}
	.st141{fill:#CCE3EE;}
	.st142{fill:#E5F1F6;}
	.st143{fill:#4E7D8E;}
	.st144{fill:#618C9A;}
	.st145{fill:#759AA7;}
	.st146{fill:#89A9B3;}
	.st147{fill:#9CB7C0;}
	.st148{fill:#B0C5CD;}
	.st149{fill:#C4D4D9;}
	.st150{fill:#D8E2E6;}
	.st151{fill:#EBF1F2;}
	.st152{fill:#42909B;}
	.st153{fill:#579DA6;}
	.st154{fill:#6CA9B1;}
	.st155{fill:#81B5BC;}
	.st156{fill:#96C1C7;}
	.st157{fill:#ABCED3;}
	.st158{fill:#C0DADE;}
	.st159{fill:#D5E6E9;}
	.st160{fill:#EAF3F4;}
	.st161{fill:#48A2DF;}
	.st162{fill:#5DADE2;}
	.st163{fill:#71B7E6;}
	.st164{fill:#85C1E9;}
	.st165{fill:#99CBED;}
	.st166{fill:#AED6F1;}
	.st167{fill:#C2E0F4;}
	.st168{fill:#D6EAF8;}
	.st169{fill:#EBF5FB;}
	.st170{fill:#85CED4;}
	.st171{fill:#93D4D9;}
	.st172{fill:#A0D9DD;}
	.st173{fill:#AEDFE2;}
	.st174{fill:#BBE4E7;}
	.st175{fill:#C9E9EC;}
	.st176{fill:#E4F4F5;}
	.st177{fill:#F1FAFA;}
	.st178{fill:#404040;}
	.st179{fill:#555555;}
	.st180{fill:#6B6B6B;}
	.st181{fill:#808080;}
	.st182{fill:#959595;}
	.st183{fill:#AAAAAA;}
	.st184{fill:#BFBFBF;}
	.st185{fill:#D5D5D5;}
	.st186{fill:#EAEAEA;}
	.st187{fill:#475A62;}
	.st188{fill:#5C6D74;}
	.st189{fill:#707F85;}
	.st190{fill:#859197;}
	.st191{fill:#ADB6B9;}
	.st192{fill:#C2C8CB;}
	.st193{fill:#D6DADC;}
	.st194{fill:#EBEDEE;}
	.st195{fill:#758489;}
	.st196{fill:#859196;}
	.st197{fill:#949FA3;}
	.st198{fill:#A3ADB0;}
	.st199{fill:#B2BABD;}
	.st200{fill:#D1D6D8;}
	.st201{fill:#E0E4E5;}
	.st202{fill:#F0F1F2;}
	.st203{fill:#A3ACB1;}
	.st204{fill:#ADB5B9;}
	.st205{fill:#B8BFC2;}
	.st206{fill:#E0E3E5;}
	.st207{fill:#F5F6F6;}
	.st208{fill:#D1D6D7;}
	.st209{fill:#DBDFE0;}
	.st210{fill:#E5E8E9;}
	.st211{fill:#EBEDED;}
	.st212{fill:#FAFAFB;}
	.st213{fill:#A0AEAF;}
	.st214{fill:#AAB7B8;}
	.st215{fill:#B5C0C1;}
	.st216{fill:#BFC9CA;}
	.st217{fill:#CAD2D3;}
	.st218{fill:#D5DBDB;}
	.st219{fill:#DFE4E4;}
	.st220{fill:#EAEDED;}
	.st221{fill:#F4F6F6;}
	.st222{fill:#EEF2F2;}
	.st223{fill:#F0F3F4;}
	.st224{fill:#F2F5F5;}
	.st225{fill:#F4F6F7;}
	.st226{fill:#F5F7F8;}
	.st227{fill:#F7F9F9;}
	.st228{fill:#F9FAFB;}
	.st229{fill:#FBFCFC;}
	.st230{fill:#FDFDFE;}
	.st231{fill:#212020;}
	.st232{fill:#95D2ED;}
	.st233{fill:#9CD9EF;}
	.st234{fill:#232222;}
	.st235{fill:#7CB9E5;}
	.st236{fill:#9BD3E7;}
	.st237{fill:#030303;}
	.st238{fill:#F3C9B0;}
	.st239{fill:#C29A85;}
	.st240{fill:#9BD8EE;}
	.st241{fill:#96D1E6;}
	.st242{fill:#FDFCFC;}
	.st243{fill:#AC5E53;}
	.st244{fill-rule:evenodd;clip-rule:evenodd;fill:#C2E0F4;}
	.st245{fill-rule:evenodd;clip-rule:evenodd;fill:#DFEFF9;stroke:#3498DB;stroke-width:2;stroke-miterlimit:10;}
	.st246{fill:#414042;}
	.st247{fill:#DDEBF4;}
	.st248{fill:#D6EFF1;stroke:#78C9CF;stroke-width:2;stroke-miterlimit:10;}
	.st249{fill:#F9F5CD;stroke:#EADF5A;stroke-width:2;stroke-miterlimit:10;}
	.st250{fill:none;stroke:#2980B9;stroke-width:2;stroke-miterlimit:10;}
	.st251{fill:none;stroke:#2980B9;stroke-miterlimit:10;}
	.st252{fill:none;stroke:#334851;stroke-width:2;stroke-miterlimit:10;}
</style>
<g>
	<path class="st7" d="M50.6,76.5c0.3,0,1-2,1.7-4.4L58.6,49c0.7-2.4,1-4.4,0.7-4.4c-0.3,0-1,2-1.7,4.4l-6.3,23.1
		C50.7,74.5,50.4,76.5,50.6,76.5L50.6,76.5z"/>
	<path class="st7" d="M52.1,76.5c0.3,0,1.6-1.8,2.8-4l13.8-24c1.3-2.2,2-4,1.7-4c-0.3,0-1.6,1.8-2.8,4l-13.8,24
		C52.6,74.7,51.8,76.5,52.1,76.5L52.1,76.5z"/>
	<path class="st7" d="M49,76.5c0.3,0,0-2-0.7-4.4L42.1,49c-0.7-2.4-1.4-4.4-1.7-4.4c-0.3,0,0,2,0.7,4.4l6.3,23.1
		C48,74.5,48.8,76.5,49,76.5L49,76.5z"/>
	<path class="st7" d="M47.5,76.5c0.3,0-0.5-1.8-1.7-4L32,48.5c-1.3-2.2-2.5-4-2.8-4s0.5,1.8,1.7,4l13.8,24
		C45.9,74.7,47.2,76.5,47.5,76.5L47.5,76.5z"/>
	<path class="st7" d="M65.5,79.4c-0.5,0.2-0.8,0.5-0.8,0.8c0,0.4,0.3,0.7,0.8,0.8V79.4L65.5,79.4z"/>
	<g>
		<path class="st247" d="M22.8,44.4c-4.5,0-8.2-3.7-8.2-8.2c0-4.5,3.6-8.1,8-8.2c-0.2-0.9-0.4-1.9-0.4-2.9c0-6.5,5.3-11.8,11.8-11.8
			c1.1,0,2.1,0.1,3.2,0.4c2.9-5.7,8.8-9.3,15.3-9.3c8.4,0,15.7,6.3,17,14.5c1-0.2,2-0.4,3-0.4c7.1,0,12.9,5.8,12.9,12.9
			s-5.8,12.9-12.9,12.9H22.8z"/>
		<path class="st7" d="M52.5,5.4c8.5,0,15.4,6.5,16.1,14.8c1.2-0.4,2.5-0.7,3.9-0.7c6.6,0,11.9,5.3,11.9,11.9
			c0,6.6-5.3,11.9-11.9,11.9H22.8c-4,0-7.2-3.2-7.2-7.2s3.2-7.2,7.2-7.2c0.4,0,0.9,0,1.3,0.1c-0.5-1.2-0.8-2.6-0.8-4
			c0-6,4.8-10.8,10.8-10.8c1.3,0,2.5,0.2,3.7,0.6C40.3,9.3,45.9,5.4,52.5,5.4 M52.5,3.4C46,3.4,39.9,7,36.7,12.6
			c-0.9-0.2-1.8-0.3-2.7-0.3c-7.1,0-12.8,5.7-12.8,12.8c0,0.7,0.1,1.3,0.2,2c-4.4,0.7-7.8,4.5-7.8,9.1c0,5.1,4.1,9.2,9.2,9.2h49.7
			c7.7,0,13.9-6.2,13.9-13.9c0-7.7-6.2-13.9-13.9-13.9c-0.8,0-1.5,0.1-2.2,0.2C68.5,9.6,61.1,3.4,52.5,3.4L52.5,3.4z"/>
	</g>
	<g>
		<path class="st247" d="M55.8,95.4c-1.1,0-2-0.9-2-2v-3.9l-12.8,0l0,3.8c0,1.1-0.9,2-2,2H34c-1.1,0-2-0.9-2-2v-9L31.4,85
			c-0.2,0.2-0.5,0.3-0.8,0.3c-0.4,0-0.7-0.2-0.9-0.4L29,84.1c-0.4-0.4-0.4-1-0.1-1.5l3.4-5.1c0.3-0.6,1-1.1,1.7-1.1h18.1
			c0.3,0,0.6,0.1,0.9,0.2c0.2-0.8,0.6-2.2,1.7-2.2c0.8,0,1.3,0.7,1.4,1.9h3.5l0.1,0H64c1.2,0,2.2,0.8,2.5,1.9H67
			c0.3,0,0.6-0.3,0.6-0.6V77c0-1.6,0.6-2.6,1.5-2.6c1.2,0,1.6,1.7,1.7,2.4l0.4,2.6c0.1,0.7-0.1,1.4-0.5,1.9s-1.1,0.8-1.8,0.8h-2.4
			V87c0,1.4-1.1,2.6-2.6,2.6h-1.1v3.9c0,1.1-0.9,2-2,2H55.8z"/>
		<path class="st7" d="M69,75.4c0.3,0,0.6,0.7,0.7,1.5l0.4,2.6c0.1,0.8-0.4,1.5-1.3,1.5h-2.6c0,0-0.1,0-0.1,0v-1.9c0,0,0.1,0,0.1,0
			H67c0.9,0,1.6-0.7,1.6-1.6V77C68.5,76.1,68.8,75.4,69,75.4 M54.7,75.4c0.3,0,0.5,0.7,0.5,1.6v0.4c0,0,0.1,0,0.1,0h4.3
			c0,0,0.1,0,0.1,0H64c0.9,0,1.6,0.7,1.6,1.6V87c0,0.9-0.7,1.6-1.6,1.6h-4.2c-0.9,0-1.6-0.7-1.6-1.6v-3.2c-0.4,0.3-0.6,0.7-0.6,1.2
			v2.7c0,0.9,0.7,1.6,1.6,1.6h2.7v4.1c0,0.5-0.4,1-1,1h-5.1c-0.5,0-1-0.4-1-1v-3.9c0-0.5-0.4-1-1-1H41.1c-0.5,0-1,0.4-1,1v3.9
			c0,0.5-0.4,1-1,1H34c-0.5,0-1-0.4-1-1V82.4l-2.3,1.8c0,0-0.1,0.1-0.1,0.1c-0.1,0-0.1,0-0.2-0.1l-0.7-0.8c-0.1-0.1-0.1-0.2,0-0.3
			l3.4-5.2c0.1-0.3,0.5-0.6,0.9-0.6h18.1c0.6,0,1,0.5,0.9,1.1l-0.4,2.2c-0.1,0.6,0.4,1.1,0.9,1.1h3.6c0.5,0,0.9-0.3,0.9-0.8
			c-0.2,0.1-0.5,0.1-0.7,0.1h-2.6c-0.9,0-1.4-0.7-1.3-1.5L54,77C54.1,76.1,54.5,75.4,54.7,75.4 M69,73.4c-1.1,0-2.3,0.8-2.5,3.1
			c-0.6-0.7-1.6-1.1-2.6-1.1h-4.2c-0.1,0-0.1,0-0.2,0H57c-0.4-1.4-1.4-1.9-2.3-1.9c-1.1,0-1.9,0.7-2.4,2c-0.1,0-0.2,0-0.2,0H34
			c-1.1,0-2.1,0.6-2.6,1.6L28.1,82c-0.5,0.8-0.5,1.9,0.2,2.7l0.7,0.8c0.4,0.5,1,0.8,1.7,0.8c0.2,0,0.3,0,0.5,0v7.3c0,1.6,1.3,3,3,3
			h5.1c1.6,0,3-1.3,3-3v-2.8h10.7v2.8c0,1.6,1.3,3,3,3h5.1c1.6,0,3-1.3,3-3v-2.9H64c2,0,3.6-1.6,3.6-3.6v-3.9h1.4
			c1,0,1.9-0.4,2.6-1.2c0.6-0.7,0.9-1.7,0.7-2.7l-0.4-2.6C71.4,74.6,70.4,73.4,69,73.4L69,73.4z"/>
	</g>
</g>
<line class="st250" x1="29.1" y1="44.5" x2="46.5" y2="75.4"/>
<line class="st250" x1="40.4" y1="44.5" x2="49" y2="76.5"/>
<line class="st250" x1="50.6" y1="76.5" x2="59.3" y2="44.5"/>
<line class="st250" x1="70.5" y1="44.5" x2="53.1" y2="75.4"/>
</svg>
