<?xml version="1.0" encoding="utf-8"?>
<!-- Generator: Adobe Illustrator 22.1.0, SVG Export Plug-In . SVG Version: 6.00 Build 0)  -->
<svg version="1.1" id="Layer_1" xmlns="http://www.w3.org/2000/svg" xmlns:xlink="http://www.w3.org/1999/xlink" x="0px" y="0px"
	 viewBox="0 0 100 100" style="enable-background:new 0 0 100 100;" xml:space="preserve">
<style type="text/css">
	.st0{fill:#0075A8;}
</style>
<g>
	<title>provider-local</title>
	<g>
		<path class="st0" d="M94.9747314,38.1323051l-0.9506989-5.8964615c-0.2884064-1.9013939-1.0681992-3.4182377-1.6129837-3.4182377
			s-1.0681992,1.6129818-1.0681992,3.4182377v1.6129799c-0.0286484,1.8758469-1.5423889,3.389595-3.4182358,3.4182396H86.130043
			v4.1873436h6.0887299c1.4908829,0.0710564,2.7570801-1.079937,2.8281403-2.5708199
			c0.012207-0.2561264-0.0120926-0.5126877-0.0721817-0.7619629"/>
		<path class="st0" d="M81.1842804,33.1972237H61.6896362v-0.9613762c0-1.9013958-0.48069-3.4182396-1.0681992-3.4182396
			s-1.335247,1.5168438-1.6129799,3.4182396l-0.950695,5.8964577c-0.3216286,1.5419807,0.6676598,3.0527382,2.2096443,3.3743668
			c0.2497368,0.0520897,0.5053329,0.0704384,0.7599487,0.054554h5.8003197
			c0.5426254-0.011673,1.0828247-0.0760689,1.6129837-0.192276c-0.2061005,1.0107803-1.1050262,1.7299194-2.1363983,1.7091179
			h-8.0328598c-1.1798172,0.0142746-2.1478157-0.930584-2.1620865-2.1103973
			c-0.0014496-0.1195564,0.0071449-0.2390251,0.0256844-0.3571396l0.8545609-4.9457664
			c0.1829681-1.1656265-0.6136284-2.2588806-1.7792587-2.4418526c-0.1181183-0.0185394-0.2375832-0.0271339-0.3571396-0.0256882
			H14.528636c-0.8305502-0.0251961-1.5890598,0.4691162-1.9013939,1.2391129L5.0216618,45.9087982
			c-0.0955186,0.2104301-0.0955186,0.4518547,0,0.6622849l1.4313874,1.7091179
			c0.2130828,0.1756897,0.5082407,0.2131081,0.7584214,0.096138l5.1380396-4.0912018v24.7608604
			c0,1.1798935,0.9564981,2.1363983,2.1363983,2.1363983h11.3549576c1.179903,0,2.1364002-0.9565048,2.1364002-2.1363983v-8.5455971
			c0-1.1799011,0.9564972-2.1363983,2.1363983-2.1363983h28.4461498c1.1798973,0,2.1363983,0.9564972,2.1363983,2.1363983v8.5455971
			c0,1.1798935,0.9564972,2.1363983,2.1363983,2.1363983h11.3229141c1.1799011,0,2.1363983-0.9565048,2.1363983-2.1363983
			v-9.2506104h-5.7575912c-1.8758545-0.0286407-3.389595-1.5423889-3.4182434-3.4182358v-5.9712372
			c0.0066986-1.0852013,0.520462-2.1048431,1.3886642-2.7559547v7.1248932
			c0.0286407,1.8758469,1.5423889,3.3895912,3.4182358,3.4182358h9.4001541
			c1.8758469-0.0286446,3.3895874-1.5423889,3.4182358-3.4182358V36.7116013
			c-0.0286636-1.9289398-1.5854416-3.4857101-3.5143738-3.5143776"/>
	</g>
</g>
</svg>
