<?xml version="1.0" encoding="utf-8"?>
<!-- Generator: Adobe Illustrator 18.1.1, SVG Export Plug-In . SVG Version: 6.00 Build 0)  -->
<svg version="1.1" id="Layer_1" xmlns="http://www.w3.org/2000/svg" xmlns:xlink="http://www.w3.org/1999/xlink" x="0px" y="0px"
	 viewBox="0 0 2194.2 428" enable-background="new 0 0 2194.2 428" xml:space="preserve">
<path fill="#58585A" d="M0,26.1h154.6c73.4,0,122.9,35.6,122.9,104.5c0,56.1-38.4,90.1-75.6,101.7c11.1,9.5,19.5,22.2,26.1,35.6
	c15.6,31.7,26.1,66.7,58.9,66.7c8.3,0,15-2.8,15-2.8l-7.2,66.2c0,0-20,5-37.3,5c-44.5,0-70.1-17.2-96.2-76.7
	C150.1,299.7,134.6,253,114,253H92.9v148.5H0V26.1z M92.9,93.4v92.3h33.4c26.7,0,57.8-8.3,57.8-48.4c0-32.8-21.1-43.9-46.7-43.9
	H92.9z"/>
<path fill="#58585A" d="M403,26.1h94l126.8,375.3h-94l-23.4-71.2H380.8L358,401.4h-81.2L403,26.1z M403,261.3h80.6l-25.6-79
	c-8.9-26.7-12.8-64.5-12.8-64.5h-2.2c0,0-5.6,38.4-13.9,63.9L403,261.3z"/>
<path fill="#58585A" d="M627.6,26.1h99.5l98.4,186.3c8.3,16.1,19.5,44.5,28.4,66.7h2.2c-1.1-21.1-3.9-51.2-3.9-72.8V26.1h76.2v375.3
	h-97.3L728.8,215.7c-9.5-16.7-19.5-41.1-27.2-61.2h-2.2c1.7,21.1,4.5,46.1,4.5,66.7v180.1h-76.2V26.1z"/>
<path fill="#58585A" d="M948.4,211.3c0-135.7,67.3-191.8,171.2-191.8c109.5,0,153.5,60.1,141.2,141.2l-86.7,7.8
	c9.5-59.5-13.9-83.4-56.2-83.4c-40.6,0-73.4,30-73.4,126.8c0,102.3,35.6,128.4,76.2,128.4c38.4,0,69.5-23.9,62.8-72.8l81.2,8.3
	c6.1,76.2-48.9,132.3-149,132.3C1014,408.1,948.4,348,948.4,211.3"/>
<polygon fill="#58585A" points="1283.6,26.1 1376.4,26.1 1376.4,167.9 1490.4,167.9 1490.4,26.1 1583.3,26.1 1583.3,401.4 
	1490.4,401.4 1490.4,242.4 1376.4,242.4 1376.4,401.4 1283.6,401.4 "/>
<polygon fill="#58585A" points="1620.5,26.1 1869,26.1 1869,95.1 1713.3,95.1 1713.3,175.7 1844,175.7 1844,244.6 1713.3,244.6 
	1713.3,332.5 1874.6,332.5 1874.6,401.4 1620.5,401.4 "/>
<path fill="#58585A" d="M1892.3,26.1h154.6c73.4,0,122.9,35.6,122.9,104.5c0,56.1-38.4,90.1-75.6,101.7
	c11.1,9.5,19.5,22.2,26.1,35.6c15.6,31.7,26.1,66.7,58.9,66.7c8.3,0,15-2.8,15-2.8l-7.2,66.2c0,0-20,5-37.3,5
	c-44.5,0-70.1-17.2-96.2-76.7c-11.1-26.7-26.7-73.4-47.3-73.4h-21.1v148.5h-92.8V26.1z M1985.1,93.4v92.3h33.4
	c26.7,0,57.8-8.3,57.8-48.4c0-32.8-21.1-43.9-46.7-43.9H1985.1z"/>
</svg>
