<?xml version="1.0" encoding="utf-8"?>
<!-- Generator: Adobe Illustrator 19.2.1, SVG Export Plug-In . SVG Version: 6.00 Build 0)  -->
<svg version="1.1" id="Layer_1" xmlns="http://www.w3.org/2000/svg" xmlns:xlink="http://www.w3.org/1999/xlink" x="0px" y="0px"
	 viewBox="0 0 305.3 143.2" style="enable-background:new 0 0 305.3 143.2;" xml:space="preserve">
<style type="text/css">
	.st0{fill:#0876A9;}
</style>
<g>
	<path class="st0" d="M305.2,31.5l-3.3-19.9C300.8,5.2,298.3,0,296.4,0c-2,0-3.6,5.3-3.6,11.8v5.2c0,6.5-5.3,11.8-11.8,11.8h-5.2
		c-0.4,0-0.7,0-1.1,0V43c0.4,0,0.7,0,1.1,0h19.5C301.8,43.1,306.2,37.8,305.2,31.5"/>
	<path class="st0" d="M258.3,14.6h-31.7c-0.3,0-0.5,0-0.8,0h-32.5c-0.4,0-0.8,0-1.1,0.1v-3c0-6.5-1.6-11.8-3.6-11.8
		s-4.5,5.2-5.5,11.6l-3.3,19.9c-1.1,6.4,3.4,11.6,9.8,11.6h19.5c2,0,3.9-0.3,5.6-0.9c-0.6,3.3-3.5,5.9-7,5.9h-27.4
		c-4.4,0-7.8-4-7.1-8.4L176,23c0.7-4.4-2.6-8.4-7.1-8.4H32.5c-2.9,0-5.4,1.7-6.5,4.2L0.3,58c-0.4,0.7-0.4,1.5,0.1,2.1l5,5.9
		c0.6,0.7,1.7,0.8,2.5,0.2l17.5-13.8v83.6c0,4,3.2,7.2,7.2,7.2h38.7c4,0,7.2-3.2,7.2-7.2V107c0-4,3.2-7.2,7.2-7.2h96.7
		c4,0,7.2,3.2,7.2,7.2v29.1c0,4,3.2,7.2,7.2,7.2h38.7c4,0,7.2-3.2,7.2-7.2v-31.3h-20.6c-6.5,0-11.8-5.3-11.8-11.8V72.9
		c0-3.8,1.9-7.2,4.7-9.4v24c0,6.5,5.3,11.8,11.8,11.8h31.7c6.5,0,11.8-5.3,11.8-11.8V26.4C270.1,19.9,264.8,14.6,258.3,14.6"/>
</g>
</svg>
